<svg xmlns="http://www.w3.org/2000/svg" width="82" height="88.761" viewBox="0 0 82 88.761">
  <g id="Grupo_1099915" data-name="Grupo 1099915" transform="translate(4697.749 9735.37)">
    <g id="Grupo_1099914" data-name="Grupo 1099914">
      <g id="Grupo_1099913" data-name="Grupo 1099913">
        <path id="_12068" data-name="12068" d="M72.033,71.913c-8.038-1.11-16.53-.839-23.844,2.675C38.045,79.46,31.382,90.507,31.127,101.757s5.606,22.305,14.66,28.988,21,9.051,32.068,7.045c11.165-2.023,21.645-8.583,27.469-18.322,3.735-6.245,5.48-13.956,3.417-20.934a28.6,28.6,0,0,0-6.787-11.156A50.145,50.145,0,0,0,72.033,71.913Z" transform="translate(-4725.369 -9785.091)" fill="#ffd947"/>
        <g id="Grupo_55576" data-name="Grupo 55576" transform="translate(-4990.749 -11825.37)">
          <g id="Grupo_55574" data-name="Grupo 55574" transform="translate(293 2090)">
            <g id="Grupo_55568" data-name="Grupo 55568" transform="translate(11.684 1.371)">
              <path id="Trazado_125469" data-name="Trazado 125469" d="M-56.391,2840.32v3.043c0,12.215-4.522,15.2-27.387,44.428-22.867-29.226-27.387-32.215-27.387-44.428v-3.043a27.418,27.418,0,0,1,27.387-27.387,27.418,27.418,0,0,1,27.387,27.387Zm-9.129,3.043v-3.043a18.258,18.258,0,0,0-18.258-18.258,18.258,18.258,0,0,0-18.258,18.258v3.043a18.258,18.258,0,0,0,18.258,18.258,18.258,18.258,0,0,0,18.258-18.258Zm0,0" transform="translate(112.687 -2811.411)" fill="#fff"/>
              <path id="Trazado_125470" data-name="Trazado 125470" d="M-29.649,2876.19v3.043a18.259,18.259,0,0,1-18.258,18.258,18.259,18.259,0,0,1-18.258-18.258v-3.043a18.259,18.259,0,0,1,18.258-18.258,18.259,18.259,0,0,1,18.258,18.258Zm0,0" transform="translate(76.816 -2847.282)" fill="#ccf"/>
              <path id="Trazado_125471" data-name="Trazado 125471" d="M-53.885,2850.433a19.8,19.8,0,0,0-19.78,19.78v3.043a19.8,19.8,0,0,0,19.78,19.78,19.8,19.8,0,0,0,19.78-19.78v-3.043a19.8,19.8,0,0,0-19.78-19.78Zm16.737,22.823a16.755,16.755,0,0,1-16.737,16.737,16.755,16.755,0,0,1-16.737-16.737v-3.043a16.755,16.755,0,0,1,16.737-16.737,16.755,16.755,0,0,1,16.737,16.737Zm0,0" transform="translate(82.794 -2841.304)" fill="#5e5385"/>
              <path id="Trazado_125472" data-name="Trazado 125472" d="M-89.756,2805.433a28.941,28.941,0,0,0-28.909,28.909v3.043c0,10.552,3.282,14.664,17.094,31.963,3.053,3.824,6.514,8.159,10.616,13.4a1.52,1.52,0,0,0,1.2.584,1.52,1.52,0,0,0,1.2-.584c4.106-5.249,7.57-9.585,10.624-13.413,13.806-17.292,17.086-21.4,17.086-31.952v-3.043a28.941,28.941,0,0,0-28.909-28.909Zm25.866,31.952c0,9.485-2.828,13.028-16.421,30.054-2.758,3.455-5.848,7.325-9.445,11.907-3.593-4.578-6.68-8.444-9.437-11.9-13.6-17.033-16.429-20.578-16.429-30.064v-3.043a25.9,25.9,0,0,1,25.866-25.866,25.9,25.9,0,0,1,25.866,25.866Zm0,0" transform="translate(118.665 -2805.433)" fill="#5e5385"/>
              <path id="Trazado_125473" data-name="Trazado 125473" d="M6.007,2901.519A6.086,6.086,0,0,1-.079,2907.6a6.086,6.086,0,0,1-6.086-6.086,6.086,6.086,0,0,1,6.086-6.086,6.086,6.086,0,0,1,6.086,6.086Zm0,0" transform="translate(28.988 -2877.175)" fill="#fff"/>
              <path id="Trazado_125474" data-name="Trazado 125474" d="M-5.841,2962.548a10.566,10.566,0,0,0-10.021-7.115,10.566,10.566,0,0,0-10.021,7.115,1.524,1.524,0,0,0,.2,1.377,1.522,1.522,0,0,0,1.238.636H-7.281a1.522,1.522,0,0,0,1.238-.636,1.524,1.524,0,0,0,.2-1.377Zm0,0" transform="translate(44.771 -2925.002)" fill="#fff"/>
            </g>
            <rect id="Rectángulo_30393" data-name="Rectángulo 30393" width="82" height="82" fill="none" opacity="0.616"/>
          </g>
        </g>
      </g>
    </g>
  </g>
</svg>
