<svg xmlns="http://www.w3.org/2000/svg" xmlns:xlink="http://www.w3.org/1999/xlink" width="82" height="88.76" viewBox="0 0 82 88.76">
  <defs>
    <clipPath id="clip-path">
      <rect id="Rect치ngulo_30389" data-name="Rect치ngulo 30389" width="59" height="78" transform="translate(-0.48 0.36)" fill="none"/>
    </clipPath>
  </defs>
  <g id="Grupo_1099908" data-name="Grupo 1099908" transform="translate(-759 -1964.63)">
    <g id="Grupo_1099907" data-name="Grupo 1099907">
      <g id="Grupo_1099906" data-name="Grupo 1099906">
        <g id="Grupo_1099905" data-name="Grupo 1099905">
          <path id="_12068" data-name="12068" d="M72.033,71.913c-8.038-1.11-16.53-.839-23.844,2.675C38.045,79.46,31.382,90.507,31.127,101.757s5.606,22.305,14.66,28.988,21,9.051,32.068,7.045c11.165-2.023,21.645-8.583,27.469-18.322,3.735-6.245,5.48-13.956,3.417-20.934a28.6,28.6,0,0,0-6.787-11.156A50.145,50.145,0,0,0,72.033,71.913Z" transform="translate(729.631 1914.909)" fill="#ffd947"/>
          <g id="Grupo_55578" data-name="Grupo 55578" transform="translate(466 182.63)">
            <g id="Grupo_55566" data-name="Grupo 55566" transform="translate(304.48 1783.64)">
              <path id="Trazado_125457" data-name="Trazado 125457" d="M484.042,2374.959a4.571,4.571,0,1,1-4.571-4.571,4.571,4.571,0,0,1,4.571,4.571Zm0,0" transform="translate(-470.228 -2368.495)" fill="#b9f"/>
              <path id="Trazado_125458" data-name="Trazado 125458" d="M679.042,2374.959a4.571,4.571,0,1,1-4.571-4.571,4.571,4.571,0,0,1,4.571,4.571Zm0,0" transform="translate(-625.614 -2368.495)" fill="#b9f"/>
              <path id="Trazado_125459" data-name="Trazado 125459" d="M547.089,2415.389a12.192,12.192,0,0,0-10.558,18.283h21.116a12.192,12.192,0,0,0-10.558-18.283Zm0,0" transform="translate(-518.039 -2404.354)" fill="#fff"/>
              <g id="Grupo_55565" data-name="Grupo 55565">
                <g id="Grupo_55564" data-name="Grupo 55564" transform="translate(0 0)" clip-path="url(#clip-path)">
                  <path id="Trazado_125460" data-name="Trazado 125460" d="M459.9,2505.389h54.85v9.142L491.9,2529.767v17.064l-9.142,6.094v-23.159L459.9,2514.531Zm0,0" transform="translate(-458.275 -2476.07)" fill="#ccf"/>
                  <path id="Trazado_125461" data-name="Trazado 125461" d="M476.059,2476.576a1.524,1.524,0,0,0,1.564-.076l9.142-6.094a1.523,1.523,0,0,0,.679-1.267V2452.89l22.176-14.785a1.523,1.523,0,0,0,.679-1.268V2427.7a1.524,1.524,0,0,0-1.524-1.524h-14.5a13.713,13.713,0,1,0-25.857,0h-14.5a1.524,1.524,0,0,0-1.524,1.524v9.141a1.523,1.523,0,0,0,.679,1.268l22.176,14.785v22.343a1.524,1.524,0,0,0,.8,1.344Zm-5.376-54.975a10.665,10.665,0,1,1,20.3,4.571H471.711a10.687,10.687,0,0,1-1.028-4.571Zm-11.728,16.76h13.251a1.524,1.524,0,1,0,0-3.047h-16.76v-6.094h51.8v6.094H490.49a1.524,1.524,0,1,0,0,3.047h13.251l-18.667,12.446a1.523,1.523,0,0,0-.679,1.267v16.249l-6.094,4.063v-20.312a1.523,1.523,0,0,0-.678-1.267Zm0,0" transform="translate(-452.298 -2398.377)" fill="#5e5385"/>
                </g>
              </g>
              <path id="Trazado_125462" data-name="Trazado 125462" d="M479.589,2368.983a6.094,6.094,0,1,0-6.094,6.095,6.1,6.1,0,0,0,6.094-6.095Zm-9.142,0a3.047,3.047,0,1,1,3.047,3.047,3.051,3.051,0,0,1-3.047-3.047Zm0,0" transform="translate(-464.251 -2362.519)" fill="#5e5385"/>
              <path id="Trazado_125463" data-name="Trazado 125463" d="M674.589,2368.983a6.094,6.094,0,1,0-6.094,6.095,6.1,6.1,0,0,0,6.094-6.095Zm-9.142,0a3.047,3.047,0,1,1,3.047,3.047,3.051,3.051,0,0,1-3.047-3.047Zm0,0" transform="translate(-619.637 -2362.519)" fill="#5e5385"/>
            </g>
            <rect id="Rect치ngulo_30391" data-name="Rect치ngulo 30391" width="82" height="82" transform="translate(293 1782)" fill="none" opacity="0.616"/>
          </g>
        </g>
      </g>
    </g>
  </g>
</svg>
