<svg xmlns="http://www.w3.org/2000/svg" width="97.423" height="104.184" viewBox="0 0 97.423 104.184">
  <g id="Grupo_1099919" data-name="Grupo 1099919" transform="translate(4387.711 9750.793)">
    <g id="Grupo_1099918" data-name="Grupo 1099918">
      <g id="Grupo_1099917" data-name="Grupo 1099917">
        <g id="Grupo_1099916" data-name="Grupo 1099916">
          <path id="_12068" data-name="12068" d="M72.033,71.913c-8.038-1.11-16.53-.839-23.844,2.675C38.045,79.46,31.382,90.507,31.127,101.757s5.606,22.305,14.66,28.988,21,9.051,32.068,7.045c11.165-2.023,21.645-8.583,27.469-18.322,3.735-6.245,5.48-13.956,3.417-20.934a28.6,28.6,0,0,0-6.787-11.156A50.145,50.145,0,0,0,72.033,71.913Z" transform="translate(-4409.369 -9785.091)" fill="#ffd947"/>
          <g id="Grupo_55573" data-name="Grupo 55573" transform="translate(-4680.711 -11997.793)">
            <g id="Grupo_55569" data-name="Grupo 55569" transform="translate(312.516 2247.655)">
              <path id="Trazado_125475" data-name="Trazado 125475" d="M365.722,3000.831v20.955a11.226,11.226,0,1,1-22.452,0v-20.955H332.044v20.955a22.452,22.452,0,1,0,44.9,0v-20.955Zm0,0" transform="translate(-326.431 -2950.315)" fill="#fff"/>
              <path id="Trazado_125476" data-name="Trazado 125476" d="M410.77,2811.444a5.613,5.613,0,1,1-5.613-5.613,5.613,5.613,0,0,1,5.613,5.613Zm0,0" transform="translate(-377.092 -2803.96)" fill="#fff"/>
              <path id="Trazado_125477" data-name="Trazado 125477" d="M388.27,2865.831a11.226,11.226,0,0,0-11.226,11.226H399.5a11.226,11.226,0,0,0-11.226-11.226Zm0,0" transform="translate(-360.205 -2848.992)" fill="#ccf"/>
              <path id="Trazado_125478" data-name="Trazado 125478" d="M332.044,2967.057v-11.226h11.226v11.226" transform="translate(-326.431 -2916.541)" fill="#ccf"/>
              <path id="Trazado_125479" data-name="Trazado 125479" d="M467.044,2967.057v-11.226h11.226v11.226" transform="translate(-427.753 -2916.541)" fill="#ccf"/>
              <path id="Trazado_125480" data-name="Trazado 125480" d="M324.544,2950.2v32.181a24.323,24.323,0,1,0,48.645,0V2950.2a1.871,1.871,0,0,0-1.871-1.871H360.093a1.871,1.871,0,0,0-1.871,1.871v32.181a9.355,9.355,0,0,1-18.71,0V2950.2a1.871,1.871,0,0,0-1.871-1.871H326.415a1.871,1.871,0,0,0-1.871,1.871Zm44.9,1.871v7.484h-7.484v-7.484Zm-20.581,43.406a13.111,13.111,0,0,0,13.1-13.1V2963.3h7.484v19.084a20.581,20.581,0,0,1-41.161,0V2963.3h7.484v19.084a13.111,13.111,0,0,0,13.1,13.1Zm-13.1-43.406v7.484h-7.484v-7.484Zm0,0" transform="translate(-320.802 -2910.911)" fill="#5e5385"/>
              <path id="Trazado_125481" data-name="Trazado 125481" d="M407.012,2805.815a7.484,7.484,0,1,0-7.484,7.483,7.492,7.492,0,0,0,7.484-7.483Zm-7.484,3.741a3.742,3.742,0,1,1,3.742-3.741,3.746,3.746,0,0,1-3.742,3.741Zm0,0" transform="translate(-371.463 -2798.331)" fill="#5e5385"/>
              <path id="Trazado_125482" data-name="Trazado 125482" d="M369.544,2871.428a1.872,1.872,0,0,0,1.871,1.871h22.452a1.872,1.872,0,0,0,1.871-1.871,13.1,13.1,0,1,0-26.194,0Zm13.1-9.355a9.371,9.371,0,0,1,9.167,7.484H373.474a9.371,9.371,0,0,1,9.167-7.484Zm0,0" transform="translate(-354.576 -2843.363)" fill="#5e5385"/>
              <path id="Trazado_125483" data-name="Trazado 125483" d="M489.824,2851.7a1.87,1.87,0,0,0-.082,1.821l3.742,7.483a1.871,1.871,0,0,0,3.346-1.673l-2.387-4.777H498.9a1.871,1.871,0,0,0,1.673-2.708l-3.742-7.484a1.871,1.871,0,0,0-3.346,1.674l2.387,4.777h-4.456a1.869,1.869,0,0,0-1.591.887Zm0,0" transform="translate(-444.641 -2832.104)" fill="#5e5385"/>
              <path id="Trazado_125484" data-name="Trazado 125484" d="M315.994,2843.529a1.87,1.87,0,0,0-2.51.837l-3.742,7.484a1.87,1.87,0,0,0,1.673,2.707h4.456l-2.387,4.777a1.87,1.87,0,0,0,3.346,1.673l3.742-7.483a1.871,1.871,0,0,0-1.673-2.708h-4.456l2.387-4.776a1.871,1.871,0,0,0-.836-2.51Zm0,0" transform="translate(-309.544 -2832.105)" fill="#5e5385"/>
            </g>
            <rect id="Rectángulo_30394" data-name="Rectángulo 30394" width="97.423" height="97.423" transform="translate(293 2247)" fill="none" opacity="0.616"/>
          </g>
        </g>
      </g>
    </g>
  </g>
</svg>
