<svg xmlns="http://www.w3.org/2000/svg" width="86.501" height="85.096" viewBox="0 0 86.501 85.096">
  <g id="Grupo_1100024" data-name="Grupo 1100024" transform="translate(-915 -9895.305)">
    <g id="Grupo_1100023" data-name="Grupo 1100023">
      <g id="Grupo_1100022" data-name="Grupo 1100022">
        <g id="Grupo_1099357" data-name="Grupo 1099357" transform="translate(674.737 3278.838)">
          <path id="_12068" data-name="12068" d="M72.033,71.913c-8.038-1.11-16.53-.839-23.844,2.675C38.045,79.46,31.382,90.507,31.127,101.757s5.606,22.305,14.66,28.988,21,9.051,32.068,7.045c11.165-2.023,21.645-8.583,27.469-18.322,3.735-6.245,5.48-13.956,3.417-20.934a28.6,28.6,0,0,0-6.787-11.156A50.145,50.145,0,0,0,72.033,71.913Z" transform="translate(209.144 6563.081)" fill="#26aab7"/>
        </g>
        <g id="food-stand" transform="translate(912.613 9895.305)">
          <g id="Grupo_1099360" data-name="Grupo 1099360" transform="translate(24.434 51.808)">
            <g id="Grupo_1099359" data-name="Grupo 1099359">
              <path id="Trazado_873542" data-name="Trazado 873542" d="M105.4,374.042H50.856a2.933,2.933,0,0,1-2.933-2.933V352.458h60.406v18.651A2.933,2.933,0,0,1,105.4,374.042Z" transform="translate(-47.923 -352.458)" fill="#d4cdcb"/>
            </g>
          </g>
          <g id="Grupo_1099362" data-name="Grupo 1099362" transform="translate(77.498 51.808)">
            <g id="Grupo_1099361" data-name="Grupo 1099361">
              <path id="Trazado_873543" data-name="Trazado 873543" d="M411.857,352.458v18.651a2.933,2.933,0,0,1-2.933,2.933h4.41a2.933,2.933,0,0,0,2.933-2.933V352.458Z" transform="translate(-408.924 -352.458)" fill="#c4bebc"/>
            </g>
          </g>
          <g id="Grupo_1099364" data-name="Grupo 1099364" transform="translate(21.49 46.433)">
            <g id="Grupo_1099363" data-name="Grupo 1099363" transform="translate(0)">
              <path id="Trazado_873544" data-name="Trazado 873544" d="M92.412,315.891H29.66a1.772,1.772,0,0,0-1.772,1.772v1.831a1.772,1.772,0,0,0,1.772,1.772H92.412a1.772,1.772,0,0,0,1.772-1.772v-1.831A1.772,1.772,0,0,0,92.412,315.891Z" transform="translate(-27.888 -315.891)" fill="#f0e9e6"/>
            </g>
          </g>
          <g id="Grupo_1099366" data-name="Grupo 1099366" transform="translate(25.613 17.093)">
            <g id="Grupo_1099365" data-name="Grupo 1099365" transform="translate(0)">
              <path id="Trazado_873545" data-name="Trazado 873545" d="M55.941,116.285h4.77v29.34h-4.77Z" transform="translate(-55.941 -116.285)" fill="#d4cdcb"/>
            </g>
          </g>
          <g id="Grupo_1099368" data-name="Grupo 1099368" transform="translate(78.892 17.093)">
            <g id="Grupo_1099367" data-name="Grupo 1099367">
              <path id="Trazado_873546" data-name="Trazado 873546" d="M418.408,116.285h4.77v29.34h-4.77Z" transform="translate(-418.408 -116.285)" fill="#d4cdcb"/>
            </g>
          </g>
          <g id="Grupo_1099370" data-name="Grupo 1099370" transform="translate(22.783 1.102)">
            <g id="Grupo_1099369" data-name="Grupo 1099369">
              <path id="Trazado_873547" data-name="Trazado 873547" d="M41.238,31.766a4.551,4.551,0,0,1-4.551-4.551V12.1a4.6,4.6,0,0,1,4.6-4.6h4.5V27.215A4.551,4.551,0,0,1,41.238,31.766Z" transform="translate(-36.687 -7.5)" fill="#62529b"/>
            </g>
          </g>
          <g id="Grupo_1099372" data-name="Grupo 1099372" transform="translate(31.884 1.102)">
            <g id="Grupo_1099371" data-name="Grupo 1099371" transform="translate(0)">
              <path id="Trazado_873548" data-name="Trazado 873548" d="M103.156,31.766A4.551,4.551,0,0,1,98.6,27.215V7.5h9.1V27.215A4.55,4.55,0,0,1,103.156,31.766Z" transform="translate(-98.605 -7.5)" fill="#faf8f8"/>
            </g>
          </g>
          <g id="Grupo_1099374" data-name="Grupo 1099374" transform="translate(40.985 1.102)">
            <g id="Grupo_1099373" data-name="Grupo 1099373">
              <path id="Trazado_873549" data-name="Trazado 873549" d="M165.073,31.766a4.551,4.551,0,0,1-4.551-4.551V7.5h9.1V27.215A4.551,4.551,0,0,1,165.073,31.766Z" transform="translate(-160.522 -7.5)" fill="#df6937"/>
            </g>
          </g>
          <g id="Grupo_1099376" data-name="Grupo 1099376" transform="translate(50.087 1.102)">
            <g id="Grupo_1099375" data-name="Grupo 1099375" transform="translate(0)">
              <path id="Trazado_873550" data-name="Trazado 873550" d="M226.991,31.766a4.551,4.551,0,0,1-4.551-4.551V7.5h9.1V27.215A4.55,4.55,0,0,1,226.991,31.766Z" transform="translate(-222.44 -7.5)" fill="#faf8f8"/>
            </g>
          </g>
          <g id="Grupo_1099378" data-name="Grupo 1099378" transform="translate(59.188 1.102)">
            <g id="Grupo_1099377" data-name="Grupo 1099377">
              <path id="Trazado_873551" data-name="Trazado 873551" d="M288.908,31.766a4.551,4.551,0,0,1-4.551-4.551V7.5h9.1V27.215A4.551,4.551,0,0,1,288.908,31.766Z" transform="translate(-284.357 -7.5)" fill="#62529b"/>
            </g>
          </g>
          <g id="Grupo_1099380" data-name="Grupo 1099380" transform="translate(68.289 1.102)">
            <g id="Grupo_1099379" data-name="Grupo 1099379">
              <path id="Trazado_873552" data-name="Trazado 873552" d="M350.826,31.766a4.551,4.551,0,0,1-4.551-4.551V7.5h9.1V27.215A4.551,4.551,0,0,1,350.826,31.766Z" transform="translate(-346.275 -7.5)" fill="#faf8f8"/>
            </g>
          </g>
          <g id="Grupo_1099382" data-name="Grupo 1099382" transform="translate(77.391 1.102)">
            <g id="Grupo_1099381" data-name="Grupo 1099381">
              <path id="Trazado_873553" data-name="Trazado 873553" d="M412.744,31.766a4.551,4.551,0,0,1-4.551-4.551V7.5h4.5a4.6,4.6,0,0,1,4.6,4.6V27.215a4.551,4.551,0,0,1-4.551,4.551Z" transform="translate(-408.193 -7.5)" fill="#62529b"/>
            </g>
          </g>
          <g id="Grupo_1099384" data-name="Grupo 1099384" transform="translate(37.896 58.337)">
            <g id="Grupo_1099383" data-name="Grupo 1099383">
              <path id="Trazado_873554" data-name="Trazado 873554" d="M172.748,405.07h-32.03a1.214,1.214,0,0,1-1.214-1.214v-5.768a1.214,1.214,0,0,1,1.214-1.214h32.03a1.214,1.214,0,0,1,1.214,1.214v5.768A1.214,1.214,0,0,1,172.748,405.07Z" transform="translate(-139.504 -396.875)" fill="#f0e9e6"/>
            </g>
          </g>
          <g id="Grupo_1099385" data-name="Grupo 1099385" transform="translate(40.971 1.094)">
            <path id="Trazado_873555" data-name="Trazado 873555" d="M164.966,31.716a4.551,4.551,0,0,1-4.542-4.559l.038-19.715,9.1.017-.038,19.715A4.55,4.55,0,0,1,164.966,31.716Z" transform="translate(-160.424 -7.441)" fill="#62529b"/>
          </g>
          <g id="Grupo_1099386" data-name="Grupo 1099386" transform="translate(20.387 0)">
            <path id="Trazado_873556" data-name="Trazado 873556" d="M86.013,45.33H84.764V25.712a5.655,5.655,0,0,0,2.83-4.894V5.707A5.713,5.713,0,0,0,81.888,0h-54.5A5.713,5.713,0,0,0,21.68,5.707V20.818a5.655,5.655,0,0,0,2.83,4.895V45.33H23.261A2.878,2.878,0,0,0,20.387,48.2v1.831a2.878,2.878,0,0,0,2.874,2.874h.071V70.459a4.04,4.04,0,0,0,4.035,4.035H81.908a4.04,4.04,0,0,0,4.035-4.035V52.91h.071a2.878,2.878,0,0,0,2.874-2.874V48.2a2.877,2.877,0,0,0-2.874-2.874Zm-3.454,0H79.994v-19.2a5.63,5.63,0,0,0,2.565.311Zm-.618-21.064a3.452,3.452,0,0,1-3.448-3.448v-.773h6.9v.773A3.452,3.452,0,0,1,81.941,24.266ZM32.987,20.045H39.87v.762c0,.082,0,.163.006.244a3.448,3.448,0,0,1-6.888-.233v-.773Zm9.1.773v-.773h6.883v.779a3.448,3.448,0,0,1-6.888.224c0-.077.006-.153.006-.23Zm9.1-.773h6.9v.773a3.448,3.448,0,0,1-6.9,0Zm9.1,0h6.9v.773a3.448,3.448,0,1,1-6.9,0Zm9.1,0h6.9v.773a3.448,3.448,0,1,1-6.9,0Zm16-14.338V17.84h-6.9V2.2h3.395a3.506,3.506,0,0,1,3.5,3.5Zm-9.1,12.134h-6.9V2.2h6.9Zm-9.1,0h-6.9V2.2h6.9Zm-9.1,0h-6.9L51.21,2.2h6.875Zm-9.1-15.629L48.975,17.84H42.088L42.109,2.2ZM39.874,17.84H32.987V2.2h6.9ZM27.387,2.2h3.395V17.84h-6.9V5.707a3.506,3.506,0,0,1,3.5-3.5Zm-3.5,17.84h6.9v.773a3.448,3.448,0,1,1-6.9,0Zm2.83,6.391a5.687,5.687,0,0,0,.618.034,5.626,5.626,0,0,0,1.947-.346v19.2H26.715ZM83.738,70.459a1.832,1.832,0,0,1-1.83,1.83H27.367a1.832,1.832,0,0,1-1.83-1.83V52.91h58.2Zm2.945-20.423a.67.67,0,0,1-.669.669H23.261a.67.67,0,0,1-.669-.669V48.2a.67.67,0,0,1,.669-.669H44.955a1.1,1.1,0,0,0,0-2.2H31.485V24.65a5.683,5.683,0,0,0,.4-.483,5.646,5.646,0,0,0,9.094.01,5.646,5.646,0,0,0,9.1-.021,5.646,5.646,0,0,0,9.109.01,5.646,5.646,0,0,0,9.1,0,5.646,5.646,0,0,0,9.1,0,5.707,5.707,0,0,0,.4.483V45.33H49.365a1.1,1.1,0,1,0,0,2.2H86.014a.67.67,0,0,1,.669.669v1.831Z" transform="translate(-20.387 0)"/>
            <path id="Trazado_873557" data-name="Trazado 873557" d="M134.32,399.775h8.455a1.1,1.1,0,1,0,0-2.2H134.32a.111.111,0,0,1-.111-.111v-5.768a.111.111,0,0,1,.111-.111h32.03a.111.111,0,0,1,.111.111v5.768a.111.111,0,0,1-.111.111H147.185a1.1,1.1,0,0,0,0,2.2H166.35a2.319,2.319,0,0,0,2.316-2.316v-5.768a2.319,2.319,0,0,0-2.316-2.316H134.32A2.319,2.319,0,0,0,132,391.691v5.768A2.319,2.319,0,0,0,134.32,399.775Z" transform="translate(-115.597 -332.141)"/>
          </g>
        </g>
      </g>
    </g>
  </g>
</svg>
