<svg xmlns="http://www.w3.org/2000/svg" width="78.501" height="91.713" viewBox="0 0 78.501 91.713">
  <g id="Grupo_1100018" data-name="Grupo 1100018" transform="translate(-180 -9613.7)">
    <g id="Grupo_1100017" data-name="Grupo 1100017">
      <g id="Grupo_1100016" data-name="Grupo 1100016">
        <g id="Grupo_1100015" data-name="Grupo 1100015">
          <path id="_12068" data-name="12068" d="M72.033,71.913c-8.038-1.11-16.53-.839-23.844,2.675C38.045,79.46,31.382,90.507,31.127,101.757s5.606,22.305,14.66,28.988,21,9.051,32.068,7.045c11.165-2.023,21.645-8.583,27.469-18.322,3.735-6.245,5.48-13.956,3.417-20.934a28.6,28.6,0,0,0-6.787-11.156A50.145,50.145,0,0,0,72.033,71.913Z" transform="translate(148.881 9566.932)" fill="#26aab7"/>
          <g id="merchandise_1_" data-name="merchandise (1)" transform="translate(129.961 9613.7)">
            <g id="Grupo_1099354" data-name="Grupo 1099354" transform="translate(61.946 21.111)">
              <g id="Grupo_1099353" data-name="Grupo 1099353">
                <path id="Trazado_873511" data-name="Trazado 873511" d="M115.389,144.874H74.544a2.186,2.186,0,0,0-2.178,2l-4.007,48.033a2.186,2.186,0,0,0,2.178,2.368H119.4a2.186,2.186,0,0,0,2.178-2.368l-4.007-48.033A2.186,2.186,0,0,0,115.389,144.874Z" transform="translate(-68.351 -144.874)" fill="#62dbfb"/>
                <path id="Trazado_873512" data-name="Trazado 873512" d="M373.165,194.911l-4.007-48.033a2.186,2.186,0,0,0-2.178-2h-5.829a2.186,2.186,0,0,1,2.178,2l4.007,48.033a2.186,2.186,0,0,1-2.178,2.368h5.829A2.186,2.186,0,0,0,373.165,194.911Z" transform="translate(-318.484 -144.874)" fill="#01c0fa"/>
                <path id="Trazado_873513" data-name="Trazado 873513" d="M180.76,262.082l-6.213,3.267a1.075,1.075,0,0,1-1.56-1.133l1.187-6.919a1.075,1.075,0,0,0-.309-.952l-5.027-4.9a1.075,1.075,0,0,1,.6-1.834l6.947-1.009a1.075,1.075,0,0,0,.809-.588l3.107-6.295a1.075,1.075,0,0,1,1.928,0l3.107,6.295a1.075,1.075,0,0,0,.809.588l6.947,1.009a1.075,1.075,0,0,1,.6,1.834l-5.027,4.9a1.075,1.075,0,0,0-.309.952l1.187,6.919a1.075,1.075,0,0,1-1.56,1.133l-6.213-3.267A1.075,1.075,0,0,0,180.76,262.082Z" transform="translate(-153.916 -227.094)" fill="#ffe177"/>
              </g>
            </g>
            <g id="Grupo_1099355" data-name="Grupo 1099355" transform="translate(60.853 0)">
              <path id="Trazado_873514" data-name="Trazado 873514" d="M177.785,237.644a1.093,1.093,0,0,0,.773-1.866l-1.838-1.838a1.093,1.093,0,0,0-1.546,1.546l1.838,1.838A1.09,1.09,0,0,0,177.785,237.644Z" transform="translate(-158.242 -199.577)"/>
              <path id="Trazado_873515" data-name="Trazado 873515" d="M311.4,237.324l1.838-1.838a1.093,1.093,0,0,0-1.546-1.546l-1.838,1.838a1.093,1.093,0,0,0,1.546,1.546Z" transform="translate(-273.294 -199.577)"/>
              <path id="Trazado_873516" data-name="Trazado 873516" d="M145.173,357.893a1.093,1.093,0,0,0,1.546,1.546l1.838-1.838a1.093,1.093,0,1,0-1.546-1.546Z" transform="translate(-132.613 -303.897)"/>
              <path id="Trazado_873517" data-name="Trazado 873517" d="M342.463,359.76a1.093,1.093,0,0,0,.773-1.866l-1.838-1.838a1.093,1.093,0,0,0-1.546,1.546l1.838,1.838A1.09,1.09,0,0,0,342.463,359.76Z" transform="translate(-298.923 -303.898)"/>
              <path id="Trazado_873518" data-name="Trazado 873518" d="M162.1,447.621a1.093,1.093,0,0,0,0,2.186h25.5a1.093,1.093,0,1,0,0-2.186Z" transform="translate(-146.417 -382.394)"/>
              <path id="Trazado_873519" data-name="Trazado 873519" d="M161.116,243.6a2.155,2.155,0,0,0,.549,2.223l5.02,4.893-1.185,6.909a2.168,2.168,0,0,0,3.146,2.286l6.205-3.262.685.36a1.093,1.093,0,1,0,1.017-1.935l-.693-.364a2.168,2.168,0,0,0-2.018,0l-6.181,3.25,1.181-6.883a2.169,2.169,0,0,0-.624-1.919l-5-4.875,6.911-1a2.167,2.167,0,0,0,1.633-1.186l3.091-6.262,3.091,6.262a2.167,2.167,0,0,0,1.632,1.186l6.911,1-5,4.875a2.168,2.168,0,0,0-.623,1.919l1.18,6.883-1.019-.536A1.093,1.093,0,1,0,180,259.357l1.051.553a2.168,2.168,0,0,0,3.146-2.285l-1.185-6.909,5.02-4.893a2.168,2.168,0,0,0-1.2-3.7l-6.937-1.008-3.1-6.286a2.168,2.168,0,0,0-3.888,0l-3.1,6.286-6.937,1.008a2.154,2.154,0,0,0-1.751,1.475Z" transform="translate(-146.414 -199.577)"/>
              <path id="Trazado_873520" data-name="Trazado 873520" d="M117.715,71.057l-4.007-48.033a3.3,3.3,0,0,0-3.267-3.006h-6.091V15.061a15.061,15.061,0,0,0-30.122,0v4.957H68.138a3.3,3.3,0,0,0-3.267,3.006L62.562,50.7a1.093,1.093,0,0,0,1,1.18c.031,0,.061,0,.092,0a1.093,1.093,0,0,0,1.088-1l2.309-27.678a1.1,1.1,0,0,1,1.089-1H92.5a1.093,1.093,0,1,0,0-2.186H76.415V15.061a12.875,12.875,0,0,1,25.75,0v4.957h-4.9a1.093,1.093,0,1,0,0,2.186h13.177a1.1,1.1,0,0,1,1.089,1l4.007,48.033a1.093,1.093,0,0,1-1.089,1.184H64.131a1.093,1.093,0,0,1-1.089-1.184l1.3-15.592a1.093,1.093,0,0,0-2.178-.182l-1.3,15.592a3.279,3.279,0,0,0,3.267,3.551h50.317a3.278,3.278,0,0,0,3.267-3.551Z" transform="translate(-60.853 0)"/>
            </g>
          </g>
        </g>
      </g>
    </g>
  </g>
</svg>
