<svg xmlns="http://www.w3.org/2000/svg" width="80.625" height="78" viewBox="0 0 80.625 78">
  <g id="Grupo_1100014" data-name="Grupo 1100014" transform="translate(-1073.625 -6974.315)">
    <g id="Grupo_1100013" data-name="Grupo 1100013">
      <g id="Grupo_1100012" data-name="Grupo 1100012">
        <g id="Grupo_1100011" data-name="Grupo 1100011">
          <g id="Grupo_1100010" data-name="Grupo 1100010">
            <g id="Grupo_1100009" data-name="Grupo 1100009">
              <g id="Grupo_1100008" data-name="Grupo 1100008">
                <path id="_12068" data-name="12068" d="M72.033,71.913c-8.038-1.11-16.53-.839-23.844,2.675C38.045,79.46,31.382,90.507,31.127,101.757s5.606,22.305,14.66,28.988,21,9.051,32.068,7.045c11.165-2.023,21.645-8.583,27.469-18.322,3.735-6.245,5.48-13.956,3.417-20.934a28.6,28.6,0,0,0-6.787-11.156A50.145,50.145,0,0,0,72.033,71.913Z" transform="translate(1044.63 6913.833)" fill="#ffd947"/>
                <g id="coupon" transform="translate(1073.625 6974.315)">
                  <path id="XMLID_2545_" d="M70.212,10,81.6,21.386a9.69,9.69,0,0,1,0,13.7L70.212,46.475H13.964A3.963,3.963,0,0,1,10,42.512V13.963A3.963,3.963,0,0,1,13.964,10Z" transform="translate(-8.477 -8.477)" fill="#f5737f"/>
                  <path id="XMLID_2483_" d="M104.935,64.006H126.52l4.207,4.207V89.8L90.954,129.571a3.963,3.963,0,0,1-5.6,0L65.163,109.384a3.963,3.963,0,0,1,0-5.6Z" transform="translate(-54.251 -54.255)" fill="#91def5"/>
                  <circle id="XMLID_2590_" cx="2.704" cy="2.704" r="2.704" transform="translate(63.997 16.701)" fill="#f5737f"/>
                  <circle id="XMLID_2480_" cx="3.047" cy="3.047" r="3.047" transform="translate(24.311 22.764)" fill="#fff"/>
                  <circle id="XMLID_2476_" cx="3.047" cy="3.047" r="3.047" transform="translate(11.452 10.663)" fill="#fff"/>
                  <path id="XMLID_1468_" d="M76.527,11.854l1.027-1.027A1.524,1.524,0,0,0,75.4,8.673L74.372,9.7,73.346,8.674a1.524,1.524,0,0,0-1.077-.446H70.593L62.812.446A1.524,1.524,0,0,0,61.735,0H5.487A5.493,5.493,0,0,0,0,5.486V34.035a5.493,5.493,0,0,0,5.486,5.486H18.759L9.834,48.447a5.487,5.487,0,0,0,0,7.759L30.021,76.393a5.487,5.487,0,0,0,7.759,0L52.9,61.273a1.523,1.523,0,0,0-2.154-2.155L35.626,74.238a2.44,2.44,0,0,1-3.45,0L11.989,54.051a2.44,2.44,0,0,1,0-3.45L51.316,11.274H71.638l.58.58L68.7,15.377a4.572,4.572,0,1,0,2.154,2.155l3.523-3.523.58.58V34.911L60.44,49.424a1.524,1.524,0,0,0,2.155,2.155L77.553,36.62A1.524,1.524,0,0,0,78,35.543V13.958a1.524,1.524,0,0,0-.446-1.077ZM27.358,27.335a1.524,1.524,0,1,1,1.524-1.524A1.526,1.526,0,0,1,27.358,27.335ZM50.685,8.227a1.524,1.524,0,0,0-1.077.446L31.891,26.39a4.58,4.58,0,1,0-3.954,3.954l-6.131,6.131H5.487a2.442,2.442,0,0,1-2.44-2.44V5.486a2.442,2.442,0,0,1,2.44-2.44H61.1l5.181,5.181Zm16.042,12.8a1.523,1.523,0,1,1,.924-2.732,1.372,1.372,0,0,0,.284.284,1.521,1.521,0,0,1-1.208,2.448Z"/>
                  <path id="XMLID_1527_" d="M276.171,230.931a1.524,1.524,0,0,0,1.077-.446l3.447-3.447a1.523,1.523,0,0,0-2.154-2.155l-2.37,2.37-7.541-7.54a1.523,1.523,0,0,0-2.154,2.155l8.618,8.618A1.524,1.524,0,0,0,276.171,230.931Z" transform="translate(-225.502 -185.864)"/>
                  <path id="XMLID_1528_" d="M331.176,157.62a1.524,1.524,0,0,0-2.155,0l-1.939,1.939-2.154-2.154,1.939-1.939a1.523,1.523,0,0,0-2.155-2.155l-1.939,1.939-2.154-2.154,1.939-1.939A1.523,1.523,0,0,0,320.4,149l-3.016,3.016a1.523,1.523,0,0,0,0,2.154L326,162.791a1.523,1.523,0,0,0,2.154,0l3.016-3.016A1.523,1.523,0,0,0,331.176,157.62Z" transform="translate(-268.657 -125.925)"/>
                  <path id="XMLID_1531_" d="M231.612,274.633A1.523,1.523,0,1,0,233,271.918L221.577,266.1a1.523,1.523,0,0,0-2.049,2.049l5.817,11.418a1.523,1.523,0,0,0,2.715-1.383l-.467-.917,3.1-3.1Zm-5.474-.219-1.768-3.47,3.47,1.768Z" transform="translate(-185.943 -225.422)"/>
                  <path id="XMLID_1532_" d="M160.506,325.977a1.523,1.523,0,1,0,2.154,2.155l2.155-2.154a4.57,4.57,0,0,0-6.19-6.714,1.523,1.523,0,0,0-.161.138l-.113.113a1.523,1.523,0,0,1-2.154-2.155l2.154-2.154a1.523,1.523,0,1,0-2.154-2.155l-2.155,2.154a4.57,4.57,0,0,0,6.46,6.467l0,0a1.523,1.523,0,1,1,2.154,2.154Z" transform="translate(-129.442 -264.982)"/>
                  <path id="XMLID_1533_" d="M104.02,63.461a1.523,1.523,0,0,0-2.075.578L92.118,81.444a1.523,1.523,0,1,0,2.653,1.5L104.6,65.536A1.523,1.523,0,0,0,104.02,63.461Z" transform="translate(-77.917 -53.626)"/>
                  <path id="XMLID_1536_" d="M74.311,64.565a4.571,4.571,0,1,0-4.571,4.571A4.576,4.576,0,0,0,74.311,64.565Zm-6.095,0a1.524,1.524,0,1,1,1.524,1.524A1.526,1.526,0,0,1,68.216,64.565Z" transform="translate(-55.24 -50.854)"/>
                  <path id="XMLID_1537_" d="M363.514,353.319a1.524,1.524,0,1,0,1.077.447A1.532,1.532,0,0,0,363.514,353.319Z" transform="translate(-306.844 -299.494)"/>
                </g>
              </g>
            </g>
          </g>
        </g>
      </g>
    </g>
  </g>
</svg>
