<svg id="Email_campaign-pana-04" data-name="Email campaign-pana-04" xmlns="http://www.w3.org/2000/svg" width="399.045" height="246.638" viewBox="0 0 399.045 246.638">
  <g id="freepik--background-simple--inject-13" transform="translate(46.283 11.219)">
    <path id="Trazado_100183" data-name="Trazado 100183" d="M121.243,227.735H308.089a130.889,130.889,0,0,0,32.855-26.709c30.311-34.212,41.452-92.055,25.89-134.952L365.4,62.986a76.159,76.159,0,0,0-63.256-44,75.158,75.158,0,0,0-11.655.048c-25.86,2.133-50.1,17.969-62.127,40.621-7.079,13.309-10.562,29.217-22.1,39.056-14.994,12.8-37.473,10.478-57.121,7.443s-42.145-5.3-57.079,7.563c-9.355,8.059-13.572,20.639-14.409,32.855C75.448,178.512,94.337,209.676,121.243,227.735Z" transform="translate(-77.478 -18.78)" fill="#e0e0e0"/>
  </g>
  <g id="freepik--Plant--inject-13" transform="translate(325.198 105.484)">
    <path id="Trazado_100184" data-name="Trazado 100184" d="M560.23,279.5a18.83,18.83,0,0,0-8.077-2.79,5.426,5.426,0,0,0-3.829.7.807.807,0,0,0-.394.7.9.9,0,0,0,.376.478,11.571,11.571,0,0,0,11.947.908" transform="translate(-545.809 -216.872)" fill="#26aab7"/>
    <path id="Trazado_100185" data-name="Trazado 100185" d="M562.364,272.478a39.481,39.481,0,0,1-5.227-4.6,13.143,13.143,0,0,1-3.274-6.057,2.445,2.445,0,0,1,.257-2.031c4.182,3.256,7.437,7.467,8.244,12.688" transform="translate(-548.152 -210.083)" fill="#26aab7"/>
    <path id="Trazado_100186" data-name="Trazado 100186" d="M568.268,272.921a18.773,18.773,0,0,1,.1-6.858,9.265,9.265,0,0,1,3.656-5.663,8.108,8.108,0,0,1-.1,5.376,26.077,26.077,0,0,1-3.626,7.634" transform="translate(-553.889 -210.328)" fill="#26aab7"/>
    <path id="Trazado_100187" data-name="Trazado 100187" d="M568.413,293.66a12,12,0,0,0-6.493,3.286,12.273,12.273,0,0,0-3.71,6.374c2.431-.149,4.492-1.864,5.974-3.787s2.533-4.032,4.182-5.83" transform="translate(-549.948 -223.72)" fill="#26aab7"/>
    <path id="Trazado_100188" data-name="Trazado 100188" d="M576.021,285.367a16.017,16.017,0,0,1,1.846-15.137,19.252,19.252,0,0,1-1.846,15.137" transform="translate(-556.672 -214.286)" fill="#26aab7"/>
    <path id="Trazado_100189" data-name="Trazado 100189" d="M578.236,306.315a11.584,11.584,0,0,0-11.063,6.374.86.86,0,0,0-.078.866.824.824,0,0,0,.735.215,9.647,9.647,0,0,0,5.711-2.945,54.6,54.6,0,0,1,4.749-4.516" transform="translate(-553.492 -228.806)" fill="#26aab7"/>
    <path id="Trazado_100190" data-name="Trazado 100190" d="M584.893,295.415a20.588,20.588,0,0,1-.209-11.517,5.637,5.637,0,0,1,2.455-3.74.5.5,0,0,1,.376-.066.514.514,0,0,1,.239.275,6.881,6.881,0,0,1,.6,3.3,20.476,20.476,0,0,1-.514,3.345c-.436,2.043-.663,4.241-1.792,6a12.208,12.208,0,0,0-.711,1.32c-.215.448-.215.6-.406.962" transform="translate(-560.317 -218.252)" fill="#26aab7"/>
    <path id="Trazado_100191" data-name="Trazado 100191" d="M609.163,300.761a14.854,14.854,0,0,1,2.6-12.21c.185-.239.43-.5.735-.472.472.042.6.663.6,1.135a22.033,22.033,0,0,1-3.907,11.547" transform="translate(-570.304 -221.471)" fill="#26aab7"/>
    <path id="Trazado_100192" data-name="Trazado 100192" d="M611.59,307.921a17.758,17.758,0,0,0,14.57-2.987,11.823,11.823,0,0,0-7.891-.968,11.257,11.257,0,0,0-6.679,3.931" transform="translate(-571.441 -227.754)" fill="#26aab7"/>
    <path id="Trazado_100193" data-name="Trazado 100193" d="M613.4,301.136a16.865,16.865,0,0,1,13.226-7.646,8.1,8.1,0,0,1-4.325,4.779,24.148,24.148,0,0,1-6.35,1.894,4.467,4.467,0,0,0-2.551,1" transform="translate(-572.169 -223.651)" fill="#26aab7"/>
    <path id="Trazado_100194" data-name="Trazado 100194" d="M608.608,274.12a38.365,38.365,0,0,0,1.691-7.766,12.888,12.888,0,0,0-1.547-7.664,16.877,16.877,0,0,0-.221,15.675" transform="translate(-569.474 -209.64)" fill="#26aab7"/>
    <path id="Trazado_100195" data-name="Trazado 100195" d="M624.31,270.228c2.987-5.436,9.1-9.779,15.275-10.388-2.389,5.932-8.883,10.52-15.275,10.388" transform="translate(-576.562 -210.103)" fill="#26aab7"/>
    <path id="Trazado_100196" data-name="Trazado 100196" d="M621.15,278.416c4.468.675,8.268,3.53,12.437,5.257a5.566,5.566,0,0,0,2.814.538,2.2,2.2,0,0,0,1.374-3.895,5.973,5.973,0,0,0-2.037-1.237,22.682,22.682,0,0,0-14.2-.795" transform="translate(-575.29 -217.221)" fill="#26aab7"/>
    <path id="Trazado_100197" data-name="Trazado 100197" d="M616.83,284.111a5.257,5.257,0,0,1,2.157,1.493,23.23,23.23,0,0,0,9.432,4.845c.358.09.83.119,1.01-.2s-.042-.627-.245-.884a13.045,13.045,0,0,0-5.693-3.865c-2.174-.806-4.062-1.792-6.661-1.577" transform="translate(-573.55 -219.786)" fill="#26aab7"/>
    <path id="Trazado_100198" data-name="Trazado 100198" d="M611.984,252.334a17.85,17.85,0,0,0,13.686,4.654.921.921,0,0,0,.6-.221c.346-.376-.072-.956-.472-1.266a15.756,15.756,0,0,0-13.835-3.166" transform="translate(-571.589 -206.886)" fill="#26aab7"/>
    <path id="Trazado_100199" data-name="Trazado 100199" d="M617.724,247.991a19.075,19.075,0,0,1,17.073-2.814,13.577,13.577,0,0,1-8.136,3.584A25.773,25.773,0,0,1,617.7,248" transform="translate(-573.901 -203.839)" fill="#26aab7"/>
    <path id="Trazado_100200" data-name="Trazado 100200" d="M613.887,227.813c-.394-4.014-.137-7.168-.418-11.219,0-.323-.09-.711-.394-.824-.418-.161-.771.352-.908.783a12.869,12.869,0,0,0,1.714,11.171" transform="translate(-571.438 -192.347)" fill="#26aab7"/>
    <path id="Trazado_100201" data-name="Trazado 100201" d="M615,228.156a23.535,23.535,0,0,0,6.649-6.464c1.314-1.792,2.39-3.949,2.121-6.153a6.362,6.362,0,0,0-4.779,2.389,13.343,13.343,0,0,0-2.443,4.916c-.532,1.792-.908,3.584-1.529,5.317" transform="translate(-572.813 -192.266)" fill="#26aab7"/>
    <path id="Trazado_100202" data-name="Trazado 100202" d="M625.834,226.88a53.611,53.611,0,0,0,16.368-9.654c-1.953-.789-4.182-.317-6.147.472a19.393,19.393,0,0,0-10.3,9.134" transform="translate(-577.142 -192.782)" fill="#26aab7"/>
    <path id="Trazado_100203" data-name="Trazado 100203" d="M618,237.18a33.561,33.561,0,0,0,9.086.048,38.7,38.7,0,0,0,8.489-2.82.98.98,0,0,0,.6-.442.662.662,0,0,0-.2-.723,1.791,1.791,0,0,0-.723-.34,15.736,15.736,0,0,0-9.17.55A42.63,42.63,0,0,0,618,237.18" transform="translate(-574.021 -199.074)" fill="#26aab7"/>
    <path id="Trazado_100204" data-name="Trazado 100204" d="M588.129,243.873a16.077,16.077,0,0,1-.149-13.3,10.245,10.245,0,0,1,1.195,6.613c-.215,2.27-.92,4.612-.962,6.9" transform="translate(-561.384 -198.318)" fill="#26aab7"/>
    <path id="Trazado_100205" data-name="Trazado 100205" d="M566.067,245.889a18.519,18.519,0,0,0-13.787,5.872,12.863,12.863,0,0,0,7.551-1.4,38.338,38.338,0,0,0,6.47-4.331" transform="translate(-547.561 -204.485)" fill="#26aab7"/>
    <path id="Trazado_100206" data-name="Trazado 100206" d="M557.355,242.626c-2.521-.2-4.94-.52-7.366.227a8.83,8.83,0,0,0-5.609,4.779,13.3,13.3,0,0,0,6.9-1.3,40.136,40.136,0,0,0,6.075-3.68" transform="translate(-544.38 -203.074)" fill="#26aab7"/>
    <path id="Trazado_100207" data-name="Trazado 100207" d="M569.871,240.347a22.737,22.737,0,0,0-7.228-3.584c-2.634-.6-5.693-.161-7.533,1.792,2.133,1.254,4.725,1.4,7.168,1.4s5.514-.03,7.844.794" transform="translate(-548.7 -200.711)" fill="#26aab7"/>
    <path id="Trazado_100208" data-name="Trazado 100208" d="M576.878,232.46c-3.871-3.805-5.341-10.633-3.781-15.83a24.122,24.122,0,0,1,3.781,15.83" transform="translate(-555.695 -192.705)" fill="#26aab7"/>
    <path id="Trazado_100209" data-name="Trazado 100209" d="M597.67,216.687c.729-1.7,1.243-3.477,1.894-5.2a15.033,15.033,0,0,1,2.712-4.779,7.114,7.114,0,0,1,4.779-2.485,19.331,19.331,0,0,1-9.313,12.545" transform="translate(-565.836 -187.709)" fill="#26aab7"/>
    <path id="Trazado_100210" data-name="Trazado 100210" d="M587.688,224.251c-1.195-1.661-2.6-3.919-4.241-5.161a7.1,7.1,0,0,0-5.776-1.517,13.441,13.441,0,0,0,10.018,6.679" transform="translate(-557.783 -193.026)" fill="#26aab7"/>
    <path id="Trazado_100211" data-name="Trazado 100211" d="M593.692,216.919a28.407,28.407,0,0,1-1.912-6.189,9.644,9.644,0,0,1,.968-6.29c2.127,4.02,2.808,8.363,1.051,12.545" transform="translate(-563.4 -187.797)" fill="#26aab7"/>
    <path id="Trazado_100212" data-name="Trazado 100212" d="M597.7,198.706c1.195-3.984,4.851-6.918,8.787-8.262a3.34,3.34,0,0,1,1.541-.233,1.338,1.338,0,0,1,1.135.95c.143.675-.412,1.284-.944,1.732a29.917,29.917,0,0,1-10.52,5.812" transform="translate(-565.848 -182.064)" fill="#26aab7"/>
    <path id="Trazado_100213" data-name="Trazado 100213" d="M597.722,189.967a28.866,28.866,0,0,1,1.147-7.611,9.6,9.6,0,0,1,4.779-5.777c.4,2.593-.747,5.173-2.127,7.4s-3.047,4.343-3.871,6.828" transform="translate(-565.828 -176.58)" fill="#26aab7"/>
    <path id="Trazado_100214" data-name="Trazado 100214" d="M592.659,192.537c-1-2.9-1.1-6.571-2.838-9.122-1.195-1.792-3.16-2.987-4.182-4.845a7.407,7.407,0,0,0,.245,5.5,15.91,15.91,0,0,0,3.22,4.6c1.284,1.374,2.39,2.389,3.584,3.865" transform="translate(-560.825 -177.381)" fill="#26aab7"/>
    <path id="Trazado_100215" data-name="Trazado 100215" d="M597.6,286.75c-.078,0-.143-19.361-.149-43.244s.054-43.256.131-43.256.143,19.361.149,43.256S597.677,286.75,597.6,286.75Z" transform="translate(-565.747 -186.11)" fill="#263238"/>
    <path id="Trazado_100216" data-name="Trazado 100216" d="M614.574,247.95a4.536,4.536,0,0,1-.729.275l-2.007.675c-1.685.6-4.008,1.41-6.529,2.437s-4.845,1.941-6.183,3.1a4.561,4.561,0,0,0-1.243,1.649c-.191.454-.227.729-.251.723s0-.066,0-.2a3.083,3.083,0,0,1,.143-.562,4.333,4.333,0,0,1,1.195-1.75,10.811,10.811,0,0,1,2.682-1.673c1.075-.5,2.264-1.021,3.53-1.541,2.527-1.033,4.863-1.84,6.571-2.389.854-.263,1.553-.46,2.037-.6A4.2,4.2,0,0,1,614.574,247.95Z" transform="translate(-565.817 -205.316)" fill="#263238"/>
    <path id="Trazado_100217" data-name="Trazado 100217" d="M621.065,225.14a.993.993,0,0,1-.2.215l-.6.6-2.318,2.109-7.724,6.876c-2.987,2.682-5.615,5.245-7.419,7.168-.908.968-1.619,1.762-2.1,2.318l-.562.645a1.282,1.282,0,0,1-.209.209,2,2,0,0,1,.167-.245c.119-.155.287-.388.52-.675.46-.6,1.153-1.4,2.037-2.389a98.333,98.333,0,0,1,7.383-7.252c3.023-2.676,5.776-5.084,7.766-6.816l2.389-2.043c.263-.215.484-.394.657-.544A1.278,1.278,0,0,1,621.065,225.14Z" transform="translate(-566.746 -196.132)" fill="#263238"/>
    <path id="Trazado_100218" data-name="Trazado 100218" d="M611.675,241.562c-.084-.03.55-1.487,1.195-3.327s.932-3.387,1.01-3.375a11.455,11.455,0,0,1-.747,3.465,22.439,22.439,0,0,1-.938,2.33A3.8,3.8,0,0,1,611.675,241.562Z" transform="translate(-571.472 -200.045)" fill="#26aab7"/>
    <path id="Trazado_100219" data-name="Trazado 100219" d="M590.177,256.164a3.582,3.582,0,0,1-.466-.544l-1.195-1.523c-1-1.29-2.389-3.076-3.931-5.03s-2.987-3.7-4-4.964l-1.195-1.505a3.977,3.977,0,0,1-.418-.6,3.379,3.379,0,0,1,.5.5c.311.335.747.83,1.284,1.446,1.069,1.237,2.521,2.987,4.074,4.922s2.909,3.763,3.865,5.084c.484.663.866,1.195,1.123,1.583A3.686,3.686,0,0,1,590.177,256.164Z" transform="translate(-558.307 -202.92)" fill="#263238"/>
    <path id="Trazado_100220" data-name="Trazado 100220" d="M590.223,253.776a6.773,6.773,0,0,1-1.559-2.909,8.442,8.442,0,0,1-.352-2.933h.125c-.054.221-.1.341-.119.335s0-.125,0-.358h.119a13.7,13.7,0,0,0,.5,2.855,21.209,21.209,0,0,0,1.29,3.011Z" transform="translate(-562.062 -205.299)" fill="#26aab7"/>
    <path id="Trazado_100221" data-name="Trazado 100221" d="M577.867,246.836a5.453,5.453,0,0,0-1.087-.627,7.254,7.254,0,0,0-2.987-.239,18.359,18.359,0,0,0-3.035.49,9.837,9.837,0,0,1-1.248.3,4.117,4.117,0,0,1,1.195-.49,13.874,13.874,0,0,1,3.065-.6,6.571,6.571,0,0,1,3.106.335A1.924,1.924,0,0,1,577.867,246.836Z" transform="translate(-554.498 -204.375)" fill="#26aab7"/>
    <path id="Trazado_100222" data-name="Trazado 100222" d="M573.668,244c0,.042-.633-.251-1.667-.6a16.727,16.727,0,0,0-8.363-.639c-1.075.191-1.721.388-1.738.346a1.661,1.661,0,0,1,.442-.191,11.014,11.014,0,0,1,1.255-.352,14.857,14.857,0,0,1,8.489.645,10.429,10.429,0,0,1,1.195.544A1.553,1.553,0,0,1,573.668,244Z" transform="translate(-551.434 -203.012)" fill="#26aab7"/>
    <path id="Trazado_100223" data-name="Trazado 100223" d="M596.229,229.135a32.986,32.986,0,0,1-1.195-4.211,33.433,33.433,0,0,1-.944-4.283,74.443,74.443,0,0,1,2.139,8.495Z" transform="translate(-564.395 -194.32)" fill="#263238"/>
    <path id="Trazado_100224" data-name="Trazado 100224" d="M595.557,231.784a21.422,21.422,0,0,0-1.344-2.521,11.269,11.269,0,0,0-1.983-2.043,1.878,1.878,0,0,1,.765.394,6.154,6.154,0,0,1,1.446,1.487A5.671,5.671,0,0,1,595.557,231.784Z" transform="translate(-563.646 -196.969)" fill="#263238"/>
    <path id="Trazado_100225" data-name="Trazado 100225" d="M585.742,308.722c-.03,0-.09-.466-.3-1.284a18.218,18.218,0,0,0-1.3-3.357,46.426,46.426,0,0,0-6.864-9.671c-1.535-1.75-3.023-3.405-4.283-4.982a35.09,35.09,0,0,1-3.065-4.421,21.825,21.825,0,0,1-1.547-3.274c-.137-.406-.245-.723-.3-.938a1.84,1.84,0,0,1-.084-.335s.167.442.484,1.231a24.727,24.727,0,0,0,1.619,3.22,37.745,37.745,0,0,0,3.088,4.355c1.272,1.565,2.76,3.208,4.3,4.958A44.068,44.068,0,0,1,584.32,304a16.547,16.547,0,0,1,1.195,3.411,8.815,8.815,0,0,1,.173.974A1.819,1.819,0,0,1,585.742,308.722Z" transform="translate(-553.89 -218.405)" fill="#263238"/>
    <path id="Trazado_100226" data-name="Trazado 100226" d="M613.009,298.86a8.748,8.748,0,0,1-.777.478,17.8,17.8,0,0,0-2.079,1.374,23.543,23.543,0,0,0-2.73,2.491c-.962,1.016-1.948,2.186-2.957,3.447-2.013,2.527-3.895,4.779-5.024,6.571a21.074,21.074,0,0,0-1.26,2.156,6.487,6.487,0,0,1-.442.806.6.6,0,0,1,.072-.227c.072-.149.143-.358.269-.627a20.693,20.693,0,0,1,1.195-2.21,71.008,71.008,0,0,1,4.976-6.619c1.01-1.26,2.007-2.443,2.987-3.453a22.261,22.261,0,0,1,2.8-2.467,14.958,14.958,0,0,1,2.145-1.314c.269-.131.484-.215.6-.275A2.432,2.432,0,0,1,613.009,298.86Z" transform="translate(-565.864 -225.813)" fill="#263238"/>
    <path id="Trazado_100227" data-name="Trazado 100227" d="M616.7,308.229a11.463,11.463,0,0,1-1.673.251,22.459,22.459,0,0,0-4.014.794,11.852,11.852,0,0,0-3.584,1.888c-.83.639-1.224,1.195-1.26,1.135a1.4,1.4,0,0,1,.251-.388,6.014,6.014,0,0,1,.884-.9,10.846,10.846,0,0,1,3.632-2,17.909,17.909,0,0,1,4.086-.723,9.169,9.169,0,0,1,1.679-.054Z" transform="translate(-569.258 -229.579)" fill="#26aab7"/>
    <path id="Trazado_100228" data-name="Trazado 100228" d="M606.935,310.144c-.09-.048.675-1.195,1.266-2.784s.687-2.987.783-2.951a2.693,2.693,0,0,1,0,.908,10.144,10.144,0,0,1-.5,2.139,10.479,10.479,0,0,1-.986,1.965C607.18,309.893,606.971,310.168,606.935,310.144Z" transform="translate(-569.564 -228.047)" fill="#26aab7"/>
    <path id="Trazado_100229" data-name="Trazado 100229" d="M617.933,273.66a2.143,2.143,0,0,1-.275.143l-.794.358c-.346.149-.771.341-1.249.6s-1.033.5-1.619.854l-.926.526c-.317.179-.633.4-.974.6-.681.418-1.362.926-2.091,1.446a39.065,39.065,0,0,0-4.373,3.841,39.976,39.976,0,0,0-3.692,4.492c-.5.747-.98,1.446-1.368,2.145-.2.341-.406.669-.6.992s-.335.645-.5.944c-.329.6-.562,1.159-.794,1.649s-.412.914-.55,1.266-.245.6-.335.806a1.3,1.3,0,0,1-.131.275,1.064,1.064,0,0,1,.084-.293c.072-.221.167-.49.281-.83s.287-.795.508-1.29.442-1.069.759-1.673l.484-.956c.167-.329.376-.657.6-1.01.388-.7.866-1.416,1.362-2.168a37.6,37.6,0,0,1,3.7-4.546,38.887,38.887,0,0,1,4.415-3.853c.741-.52,1.434-1.021,2.121-1.428.346-.209.669-.424.992-.6s.639-.346.938-.514c.6-.334,1.159-.6,1.649-.812a13.088,13.088,0,0,1,1.272-.55l.818-.317A.873.873,0,0,1,617.933,273.66Z" transform="translate(-565.836 -215.667)" fill="#263238"/>
    <path id="Trazado_100230" data-name="Trazado 100230" d="M611.33,285.889a1.943,1.943,0,0,1,.663-.992,4.224,4.224,0,0,1,2.682-1.027,7.4,7.4,0,0,1,2.82.55,4.113,4.113,0,0,1,1.069.52,6.14,6.14,0,0,1-1.129-.329,8.437,8.437,0,0,0-2.748-.46,4.341,4.341,0,0,0-2.563.9A7.779,7.779,0,0,0,611.33,285.889Z" transform="translate(-571.336 -219.778)" fill="#26aab7"/>
    <path id="Trazado_100231" data-name="Trazado 100231" d="M608.3,286.96a7.168,7.168,0,0,0,.6-5.06,1.647,1.647,0,0,1,.317.723,5.123,5.123,0,0,1,.131,1.894,5.043,5.043,0,0,1-.568,1.792C608.533,286.763,608.33,286.984,608.3,286.96Z" transform="translate(-570.116 -218.985)" fill="#26aab7"/>
    <path id="Trazado_100232" data-name="Trazado 100232" d="M575.31,332.42c.418,7.4,2.646,14.934,6.075,22.533H596.32a64.77,64.77,0,0,0,5.717-22.533Z" transform="translate(-556.833 -239.326)" fill="#455a64"/>
    <path id="Trazado_100233" data-name="Trazado 100233" d="M601.211,352.367c0,.078-4.916.143-10.974.143s-10.968-.066-10.968-.143,4.91-.137,10.968-.137S601.211,352.3,601.211,352.367Z" transform="translate(-558.428 -247.302)" fill="#fafafa"/>
    <path id="Trazado_100234" data-name="Trazado 100234" d="M601.557,356.857c0,.078-4.606.143-10.287.143s-10.281-.066-10.281-.143,4.606-.137,10.281-.137S601.557,356.78,601.557,356.857Z" transform="translate(-559.12 -249.109)" fill="#fafafa"/>
  </g>
  <g id="freepik--Device--inject-13" transform="translate(71.601 65.687)">
    <rect id="Rectángulo_29399" data-name="Rectángulo 29399" width="229.702" height="151.9" rx="14.57" transform="translate(8.979)" fill="#455a64"/>
    <path id="Trazado_100235" data-name="Trazado 100235" d="M119.86,347.82H368.725v2.658a10.633,10.633,0,0,1-10.633,10.633h-227.6a10.633,10.633,0,0,1-10.633-10.633V347.82Z" transform="translate(-119.86 -205.729)" fill="#455a64"/>
    <rect id="Rectángulo_29400" data-name="Rectángulo 29400" width="216.727" height="128.274" transform="translate(15.143 6.033)" fill="#263238"/>
    <path id="Trazado_100236" data-name="Trazado 100236" d="M289.25,345.43l3.082,4.916h43.459l2.867-4.916Z" transform="translate(-188.061 -204.767)" fill="#263238"/>
    <rect id="Rectángulo_29401" data-name="Rectángulo 29401" width="208.244" height="123.525" rx="3.27" transform="translate(19.612 10.376)" fill="#ebebeb"/>
    <path id="Trazado_100237" data-name="Trazado 100237" d="M360.554,257.259H152.31l.227-114.469H360.554Z" transform="translate(-132.925 -123.178)" fill="#fafafa"/>
    <path id="Trazado_100238" data-name="Trazado 100238" d="M179.033,134.2a1.667,1.667,0,1,1-1.673-1.661h.006a1.661,1.661,0,0,1,1.667,1.655Z" transform="translate(-142.343 -119.051)" fill="#263238"/>
    <path id="Trazado_100239" data-name="Trazado 100239" d="M162.153,134.2a1.667,1.667,0,1,1-1.673-1.661h.012a1.655,1.655,0,0,1,1.661,1.649Z" transform="translate(-135.546 -119.051)" fill="#263238"/>
    <path id="Trazado_100240" data-name="Trazado 100240" d="M170.253,134.2a1.667,1.667,0,1,1-1.673-1.661h.012a1.655,1.655,0,0,1,1.661,1.649Z" transform="translate(-138.808 -119.051)" fill="#263238"/>
    <path id="Trazado_100241" data-name="Trazado 100241" d="M362.614,345.329c0,.084-50.98.149-113.853.149s-113.871-.066-113.871-.149,50.974-.149,113.871-.149S362.614,345.252,362.614,345.329Z" transform="translate(-125.911 -204.666)" fill="#263238"/>
    <path id="Trazado_100242" data-name="Trazado 100242" d="M263.956,217.109l84.725-.789,2.479,57.593-87.73-.627Z" transform="translate(-177.665 -152.783)" fill="#7d6eb2"/>
    <path id="Trazado_100243" data-name="Trazado 100243" d="M264.31,195.04l40.024-32.527a4.611,4.611,0,0,1,5.818,0l38.877,31.732" transform="translate(-178.02 -130.703)" fill="#7d6eb2"/>
    <g id="Grupo_53344" data-name="Grupo 53344" transform="translate(86.29 30.777)" opacity="0.3">
      <path id="Trazado_100244" data-name="Trazado 100244" d="M264.31,195.04l40.024-32.527a4.611,4.611,0,0,1,5.818,0l38.877,31.732" transform="translate(-264.31 -161.48)"/>
    </g>
    <path id="Trazado_100245" data-name="Trazado 100245" d="M263.429,289.571c-.1-.1,6.661-7.521,15.114-16.571s15.394-16.284,15.5-16.2-6.661,7.515-15.12,16.571S263.537,289.679,263.429,289.571Z" transform="translate(-177.664 -169.081)" fill="#263238"/>
    <path id="Trazado_100246" data-name="Trazado 100246" d="M390.621,290.694c-.108.1-6.726-7.168-14.785-16.171s-14.5-16.428-14.4-16.523,6.726,7.168,14.791,16.177S390.728,290.6,390.621,290.694Z" transform="translate(-217.126 -169.564)" fill="#263238"/>
    <g id="Grupo_53345" data-name="Grupo 53345" transform="translate(86.29 63.537)" opacity="0.5">
      <path id="Trazado_100247" data-name="Trazado 100247" d="M349.035,216.32l-42.473,34.074L264.31,217.109" transform="translate(-264.31 -216.32)"/>
    </g>
    <path id="Trazado_100248" data-name="Trazado 100248" d="M271.341,204.371l-.191-26.464,74.188-1.027.89,27.838L309.31,234.066Z" transform="translate(-180.774 -136.904)" fill="#fafafa"/>
    <path id="Trazado_100249" data-name="Trazado 100249" d="M271.3,204.283s.245.173.7.526l2.019,1.559,7.682,5.974c6.619,5.167,16.129,12.545,27.64,21.553H309.2l36.9-29.373-.054.125c-.173-5.311-.352-10.884-.532-16.553-.125-3.817-.245-7.593-.364-11.29l.155.149-74.182.98.1-.1c.036,8.321.072,14.934.09,19.462v5.221c0-1.195-.036-2.927-.06-5.185-.042-4.546-.108-11.159-.185-19.5v-.1h.1l74.14-1.075h.155v.155c.119,3.7.239,7.467.364,11.284.179,5.669.358,11.243.526,16.553v.078l-.06.048L309.34,234.109l-.078.066-.078-.066-27.611-21.667-7.622-6.01-1.989-1.577Z" transform="translate(-180.737 -136.815)" fill="#263238"/>
    <path id="Trazado_100250" data-name="Trazado 100250" d="M341.6,199.182c0,.084-11.35.245-25.341.358s-25.34.137-25.34.054,11.35-.245,25.34-.364S341.6,199.092,341.6,199.182Z" transform="translate(-188.733 -145.861)" fill="#263238"/>
    <path id="Trazado_100251" data-name="Trazado 100251" d="M341.625,211.7c0,.084-11.35.251-25.335.364s-25.341.137-25.341.048,11.35-.245,25.341-.358S341.625,211.613,341.625,211.7Z" transform="translate(-188.746 -150.902)" fill="#263238"/>
    <path id="Trazado_100252" data-name="Trazado 100252" d="M341.655,226.116c0,.09-11.35.251-25.335.364s-25.341.137-25.341.048,11.35-.245,25.341-.358S341.655,226.033,341.655,226.116Z" transform="translate(-188.758 -156.708)" fill="#263238"/>
    <path id="Trazado_100253" data-name="Trazado 100253" d="M343.255,240.535c0,.09-10.818.245-24.17.352s-24.176.131-24.176.042,10.818-.245,24.176-.352S343.255,240.451,343.255,240.535Z" transform="translate(-190.34 -162.512)" fill="#263238"/>
    <path id="Trazado_100254" data-name="Trazado 100254" d="M340.283,253.24a.988.988,0,0,1-.3.036l-.854.036-3.13.078-10.341.191c-4.038.072-7.7.1-10.346.1h-3.984a1.2,1.2,0,0,1-.3-.03.99.99,0,0,1,.3-.036l.848-.036,3.136-.078,10.341-.185c4.038-.078,7.694-.1,10.341-.1h3.99A1.521,1.521,0,0,1,340.283,253.24Z" transform="translate(-196.83 -167.636)" fill="#263238"/>
    <path id="Trazado_100255" data-name="Trazado 100255" d="M336.753,265.349a93.147,93.147,0,0,1-10.753.024,93.165,93.165,0,0,1,10.753-.024Z" transform="translate(-202.858 -172.458)" fill="#263238"/>
  </g>
  <g id="freepik--Floor--inject-13" transform="translate(0 220.401)">
    <path id="Trazado_100256" data-name="Trazado 100256" d="M399.045,369.105c0,.09-89.331.155-199.522.155S0,369.195,0,369.105s89.313-.155,199.522-.155S399.045,369.022,399.045,369.105Z" transform="translate(0 -368.95)" fill="#263238"/>
  </g>
  <g id="freepik--envelope-3--inject-13" transform="translate(215.264 12.584)">
    <path id="Trazado_100257" data-name="Trazado 100257" d="M360.6,176.49c.084,0,.119.346.078.759s-.143.735-.227.729-.119-.352-.078-.765S360.506,176.478,360.6,176.49Z" transform="translate(-360.351 -83.644)" fill="#263238"/>
    <path id="Trazado_100258" data-name="Trazado 100258" d="M361.783,166.75a3.639,3.639,0,0,1-.066,1.47,3.69,3.69,0,0,1-.376,1.428,6.925,6.925,0,0,1,.442-2.9Z" transform="translate(-360.744 -79.723)" fill="#263238"/>
    <path id="Trazado_100259" data-name="Trazado 100259" d="M363.612,157.11a3.585,3.585,0,0,1-.161,1.47,3.667,3.667,0,0,1-.472,1.4,3.525,3.525,0,0,1,.167-1.464,3.584,3.584,0,0,1,.466-1.4Z" transform="translate(-361.402 -75.841)" fill="#263238"/>
    <path id="Trazado_100260" data-name="Trazado 100260" d="M366.144,147.66a6.888,6.888,0,0,1-.854,2.814,3.668,3.668,0,0,1,.281-1.452A3.517,3.517,0,0,1,366.144,147.66Z" transform="translate(-362.339 -72.036)" fill="#263238"/>
    <path id="Trazado_100261" data-name="Trazado 100261" d="M369.417,138.44a3.677,3.677,0,0,1-.4,1.422,3.585,3.585,0,0,1-.687,1.308,3.7,3.7,0,0,1,.4-1.4A3.541,3.541,0,0,1,369.417,138.44Z" transform="translate(-363.563 -68.324)" fill="#263238"/>
    <path id="Trazado_100262" data-name="Trazado 100262" d="M373.508,129.589a7.071,7.071,0,0,1-1.338,2.611,3.58,3.58,0,0,1,.532-1.374C373.072,130.1,373.43,129.547,373.508,129.589Z" transform="translate(-365.109 -64.759)" fill="#263238"/>
    <path id="Trazado_100263" data-name="Trazado 100263" d="M378.471,121.208a3.656,3.656,0,0,1-.687,1.308c-.43.681-.842,1.195-.914,1.153a3.474,3.474,0,0,1,.651-1.326C377.975,121.668,378.4,121.16,378.471,121.208Z" transform="translate(-367.002 -61.385)" fill="#263238"/>
    <path id="Trazado_100264" data-name="Trazado 100264" d="M384.336,113.467a3.717,3.717,0,0,1-.818,1.231c-.52.6-.992,1.081-1.063,1.027s.3-.6.824-1.225S384.27,113.413,384.336,113.467Z" transform="translate(-369.247 -58.268)" fill="#263238"/>
    <path id="Trazado_100265" data-name="Trazado 100265" d="M391.074,106.5c.06.066-.37.568-.956,1.123s-1.111.956-1.195.9.364-.562.956-1.123S391.02,106.43,391.074,106.5Z" transform="translate(-371.851 -55.46)" fill="#263238"/>
    <path id="Trazado_100266" data-name="Trazado 100266" d="M398.673,100.44c.048.072-.442.52-1.093,1a3.624,3.624,0,0,1-1.272.741c-.054-.066.436-.514,1.093-.992a3.53,3.53,0,0,1,1.272-.747Z" transform="translate(-374.826 -53.024)" fill="#263238"/>
    <path id="Trazado_100267" data-name="Trazado 100267" d="M407.005,95.47a6.99,6.99,0,0,1-2.587,1.4c-.042-.078.5-.448,1.195-.836A3.529,3.529,0,0,1,407.005,95.47Z" transform="translate(-378.093 -51.023)" fill="#263238"/>
    <path id="Trazado_100268" data-name="Trazado 100268" d="M415.99,91.77a3.733,3.733,0,0,1-1.326.645,3.543,3.543,0,0,1-1.434.352,3.644,3.644,0,0,1,1.326-.645A3.445,3.445,0,0,1,415.99,91.77Z" transform="translate(-381.641 -49.534)" fill="#263238"/>
    <path id="Trazado_100269" data-name="Trazado 100269" d="M425.469,89.531a3.7,3.7,0,0,1-1.416.394,3.584,3.584,0,0,1-1.464.149,5.87,5.87,0,0,1,2.879-.544Z" transform="translate(-385.41 -48.627)" fill="#263238"/>
    <path id="Trazado_100270" data-name="Trazado 100270" d="M435.243,88.888a3.629,3.629,0,0,1-1.464.167,3.5,3.5,0,0,1-1.47-.137,3.64,3.64,0,0,1,1.464-.173,3.488,3.488,0,0,1,1.469.143Z" transform="translate(-389.323 -48.306)" fill="#263238"/>
    <path id="Trazado_100271" data-name="Trazado 100271" d="M445.043,89.826a3.628,3.628,0,0,1-1.476-.084,3.548,3.548,0,0,1-1.428-.388A7.1,7.1,0,0,1,445.043,89.826Z" transform="translate(-393.281 -48.558)" fill="#263238"/>
    <path id="Trazado_100272" data-name="Trazado 100272" d="M454.518,92.308a6.935,6.935,0,0,1-2.778-.968,3.773,3.773,0,0,1,1.44.335A3.525,3.525,0,0,1,454.518,92.308Z" transform="translate(-397.146 -49.36)" fill="#263238"/>
    <path id="Trazado_100273" data-name="Trazado 100273" d="M463.425,96.434a3.718,3.718,0,0,1-1.35-.6,3.618,3.618,0,0,1-1.195-.866,3.58,3.58,0,0,1,1.35.6C462.935,95.98,463.473,96.362,463.425,96.434Z" transform="translate(-400.827 -50.822)" fill="#263238"/>
    <path id="Trazado_100274" data-name="Trazado 100274" d="M471.359,102.19a3.751,3.751,0,0,1-1.195-.854c-.6-.526-1.051-1.016-1-1.081s.6.311,1.195.848S471.419,102.131,471.359,102.19Z" transform="translate(-404.161 -52.947)" fill="#263238"/>
    <path id="Trazado_100275" data-name="Trazado 100275" d="M477.061,108.3c-.072.048-.329-.173-.6-.5s-.4-.627-.335-.687.323.167.6.5S477.132,108.243,477.061,108.3Z" transform="translate(-406.959 -55.707)" fill="#263238"/>
    <path id="Trazado_100276" data-name="Trazado 100276" d="M522.115,168.5a3.658,3.658,0,0,1-1.416-.49c-.753-.346-1.332-.693-1.29-.771a3.9,3.9,0,0,1,1.422.49A3.754,3.754,0,0,1,522.115,168.5Z" transform="translate(-424.391 -79.92)" fill="#263238"/>
    <path id="Trazado_100277" data-name="Trazado 100277" d="M531.456,172.072a7.264,7.264,0,0,1-2.856-.872A7.169,7.169,0,0,1,531.456,172.072Z" transform="translate(-428.092 -81.514)" fill="#263238"/>
    <path id="Trazado_100278" data-name="Trazado 100278" d="M541.249,173.946a3.694,3.694,0,0,1-1.505,0,3.644,3.644,0,0,1-1.464-.317,3.816,3.816,0,0,1,1.5,0,3.752,3.752,0,0,1,1.469.317Z" transform="translate(-431.99 -82.463)" fill="#263238"/>
    <path id="Trazado_100279" data-name="Trazado 100279" d="M551.221,173.83a3.71,3.71,0,0,1-1.476.263,3.584,3.584,0,0,1-1.505-.042,3.915,3.915,0,0,1,1.481-.269,3.644,3.644,0,0,1,1.5.048Z" transform="translate(-436 -82.531)" fill="#263238"/>
    <path id="Trazado_100280" data-name="Trazado 100280" d="M561.085,172.054a3.837,3.837,0,0,1-1.416.5,3.747,3.747,0,0,1-1.5.149,3.758,3.758,0,0,1,1.434-.448A3.643,3.643,0,0,1,561.085,172.054Z" transform="translate(-439.998 -81.854)" fill="#263238"/>
    <path id="Trazado_100281" data-name="Trazado 100281" d="M570.5,168.37c.042.078-.538.418-1.29.771a3.585,3.585,0,0,1-1.422.478A7.259,7.259,0,0,1,570.5,168.37Z" transform="translate(-443.872 -80.375)" fill="#263238"/>
    <path id="Trazado_100282" data-name="Trazado 100282" d="M579.011,162.8c.054.066-.412.556-1.075,1.057a3.3,3.3,0,0,1-1.308.741c-.048-.072.466-.5,1.123-.986a4.171,4.171,0,0,1,1.26-.812Z" transform="translate(-447.429 -78.132)" fill="#263238"/>
    <path id="Trazado_100283" data-name="Trazado 100283" d="M586.136,155.5a3.316,3.316,0,0,1-.794,1.284c-.532.639-1.045,1.081-1.105,1.021s.346-.6.866-1.195S586.064,155.45,586.136,155.5Z" transform="translate(-450.491 -75.191)" fill="#263238"/>
    <path id="Trazado_100284" data-name="Trazado 100284" d="M591.283,146.66a3.186,3.186,0,0,1-.412,1.452,3.321,3.321,0,0,1-.8,1.278,4.392,4.392,0,0,1,.514-1.41,4.526,4.526,0,0,1,.7-1.32Z" transform="translate(-452.842 -71.634)" fill="#263238"/>
    <path id="Trazado_100285" data-name="Trazado 100285" d="M593.771,136.92a3.157,3.157,0,0,1,.066,1.505,3.093,3.093,0,0,1-.37,1.464,4.643,4.643,0,0,1,.06-1.493,4.538,4.538,0,0,1,.245-1.476Z" transform="translate(-454.196 -67.712)" fill="#263238"/>
    <path id="Trazado_100286" data-name="Trazado 100286" d="M592.51,127.06a3.25,3.25,0,0,1,.538,1.41,3.177,3.177,0,0,1,.125,1.5,4.442,4.442,0,0,1-.43-1.428A4.522,4.522,0,0,1,592.51,127.06Z" transform="translate(-453.824 -63.742)" fill="#263238"/>
    <path id="Trazado_100287" data-name="Trazado 100287" d="M588.16,118.1c.066-.054.52.46.938,1.195a3.106,3.106,0,0,1,.562,1.392c-.078.042-.424-.532-.83-1.237a4.608,4.608,0,0,1-.669-1.35Z" transform="translate(-452.073 -60.132)" fill="#263238"/>
    <path id="Trazado_100288" data-name="Trazado 100288" d="M581.218,110.96a3.116,3.116,0,0,1,1.272.812c.633.544,1.045,1.081.986,1.141s-.6-.376-1.195-.908S581.17,111.032,581.218,110.96Z" transform="translate(-449.277 -57.26)" fill="#263238"/>
    <path id="Trazado_100289" data-name="Trazado 100289" d="M572.15,106.891a2.987,2.987,0,0,1,1.493.245,3.1,3.1,0,0,1,1.344.687,4.663,4.663,0,0,1-1.44-.394A4.891,4.891,0,0,1,572.15,106.891Z" transform="translate(-445.627 -55.617)" fill="#263238"/>
    <path id="Trazado_100290" data-name="Trazado 100290" d="M562.22,106.726a2.884,2.884,0,0,1,1.446-.436,2.987,2.987,0,0,1,1.511.048,16.081,16.081,0,0,1-2.987.388Z" transform="translate(-441.617 -55.349)" fill="#263238"/>
    <path id="Trazado_100291" data-name="Trazado 100291" d="M553.615,110.674c-.066-.054.346-.6,1.022-1.117a2.815,2.815,0,0,1,1.35-.687c.042.084-.52.448-1.195.938S553.681,110.734,553.615,110.674Z" transform="translate(-438.162 -56.419)" fill="#263238"/>
    <path id="Trazado_100292" data-name="Trazado 100292" d="M549.615,118.921a2.724,2.724,0,0,1,.09-1.511,2.643,2.643,0,0,1,.627-1.38,6.473,6.473,0,0,1-.329,1.452,5.76,5.76,0,0,1-.388,1.44Z" transform="translate(-436.527 -59.301)" fill="#263238"/>
    <path id="Trazado_100293" data-name="Trazado 100293" d="M550.943,128.66a2.9,2.9,0,0,1-.723-1.326,2.817,2.817,0,0,1-.251-1.493,5.383,5.383,0,0,1,.543,1.392A5.153,5.153,0,0,1,550.943,128.66Z" transform="translate(-436.69 -63.251)" fill="#263238"/>
    <path id="Trazado_100294" data-name="Trazado 100294" d="M556.635,136.672a2.988,2.988,0,0,1-1.284-.8c-.633-.55-1.022-1.111-.956-1.165s.55.394,1.159.932S556.683,136.6,556.635,136.672Z" transform="translate(-438.475 -66.819)" fill="#263238"/>
    <path id="Trazado_100295" data-name="Trazado 100295" d="M565.326,141.418a3.154,3.154,0,0,1-1.481-.281,3.028,3.028,0,0,1-1.344-.687,4.664,4.664,0,0,1,1.44.394,4.426,4.426,0,0,1,1.386.573Z" transform="translate(-441.742 -69.134)" fill="#263238"/>
    <path id="Trazado_100296" data-name="Trazado 100296" d="M575.137,142.9a5.516,5.516,0,0,1-2.987-.066,4.715,4.715,0,0,1,1.493-.072,4.342,4.342,0,0,1,1.493.137Z" transform="translate(-445.627 -70.052)" fill="#263238"/>
    <path id="Trazado_100297" data-name="Trazado 100297" d="M585.051,141.19a5.592,5.592,0,0,1-2.891.741,4.26,4.26,0,0,1,1.416-.472A4.57,4.57,0,0,1,585.051,141.19Z" transform="translate(-449.657 -69.431)" fill="#263238"/>
    <path id="Trazado_100298" data-name="Trazado 100298" d="M594.22,137.04a3.75,3.75,0,0,1-1.248.836,3.7,3.7,0,0,1-1.392.561A7.285,7.285,0,0,1,594.22,137.04Z" transform="translate(-453.45 -67.761)" fill="#263238"/>
    <path id="Trazado_100299" data-name="Trazado 100299" d="M602.443,131.08c.06.066-.412.544-1.051,1.069a3.882,3.882,0,0,1-1.254.83c-.054-.072.424-.55,1.057-1.069A3.934,3.934,0,0,1,602.443,131.08Z" transform="translate(-456.894 -65.361)" fill="#263238"/>
    <path id="Trazado_100300" data-name="Trazado 100300" d="M609.541,123.766c.066.054-.317.6-.854,1.237s-1.027,1.093-1.087,1.033a3.955,3.955,0,0,1,.848-1.237C608.98,124.16,609.47,123.7,609.541,123.766Z" transform="translate(-459.9 -62.413)" fill="#263238"/>
    <path id="Trazado_100301" data-name="Trazado 100301" d="M615.305,115.428a3.665,3.665,0,0,1-.633,1.362c-.43.711-.83,1.249-.9,1.195a3.693,3.693,0,0,1,.633-1.362C614.827,115.924,615.228,115.387,615.305,115.428Z" transform="translate(-462.384 -59.058)" fill="#263238"/>
    <path id="Trazado_100302" data-name="Trazado 100302" d="M619.655,106.29a3.851,3.851,0,0,1-.4,1.452,3.382,3.382,0,0,1-.7,1.326,4.267,4.267,0,0,1,.412-1.44A3.757,3.757,0,0,1,619.655,106.29Z" transform="translate(-464.309 -55.38)" fill="#263238"/>
    <path id="Trazado_100303" data-name="Trazado 100303" d="M622.687,96.66a3.619,3.619,0,0,1-.221,1.481,3.738,3.738,0,0,1-.526,1.41A7.144,7.144,0,0,1,622.687,96.66Z" transform="translate(-465.674 -51.502)" fill="#263238"/>
    <path id="Trazado_100304" data-name="Trazado 100304" d="M624.606,86.86a3.579,3.579,0,0,1-.072,1.5,3.766,3.766,0,0,1-.376,1.452,3.576,3.576,0,0,1,.072-1.5,3.806,3.806,0,0,1,.376-1.452Z" transform="translate(-466.547 -47.557)" fill="#263238"/>
    <path id="Trazado_100305" data-name="Trazado 100305" d="M625.646,76.9a7.13,7.13,0,0,1-.221,2.987,3.87,3.87,0,0,1-.042-1.505,3.764,3.764,0,0,1,.263-1.481Z" transform="translate(-467.038 -43.547)" fill="#263238"/>
    <path id="Trazado_100306" data-name="Trazado 100306" d="M626.039,66.91a3.587,3.587,0,0,1,.125,1.493,3.583,3.583,0,0,1-.185,1.493,3.912,3.912,0,0,1-.125-1.5A3.819,3.819,0,0,1,626.039,66.91Z" transform="translate(-467.24 -39.524)" fill="#263238"/>
    <path id="Trazado_100307" data-name="Trazado 100307" d="M626,56.91a3.744,3.744,0,0,1,.179,1.493,3.587,3.587,0,0,1-.137,1.493,3.769,3.769,0,0,1-.179-1.493A3.847,3.847,0,0,1,626,56.91Z" transform="translate(-467.246 -35.498)" fill="#263238"/>
    <path id="Trazado_100308" data-name="Trazado 100308" d="M625.9,50.76c.084,0,.161.149.167.34s-.06.34-.149.346-.161-.149-.161-.341S625.8,50.76,625.9,50.76Z" transform="translate(-467.212 -33.022)" fill="#263238"/>
    <rect id="Rectángulo_29402" data-name="Rectángulo 29402" width="40.842" height="27.533" transform="translate(131.154 4.411) rotate(-6.2)" fill="#cbc5e0"/>
    <path id="Trazado_100309" data-name="Trazado 100309" d="M582.837,52.892h0L579.85,25.509h0L620.471,21.1h0l2.987,27.39h0ZM579.9,25.521l2.987,27.342,40.574-4.409-2.987-27.342Z" transform="translate(-448.727 -21.08)" fill="#263238"/>
    <path id="Trazado_100310" data-name="Trazado 100310" d="M620.763,21.66a2.8,2.8,0,0,1-.34.406L619.4,23.183l-3.817,4.05L602.866,40.507l-.1.114-.131-.084-.311-.2L586.623,30.3l-4.779-3.076-1.278-.854a3.55,3.55,0,0,1-.436-.317,2.718,2.718,0,0,1,.478.251l1.314.795,4.779,2.987,15.777,9.952.311.2h-.233l12.844-13.2,3.9-3.967,1.069-1.063a2.9,2.9,0,0,1,.394-.346Z" transform="translate(-448.84 -21.305)" fill="#5e5385"/>
    <path id="Trazado_100311" data-name="Trazado 100311" d="M585.149,62.668c-.084-.054,2.563-4.14,5.908-9.116s6.135-8.961,6.219-8.913-2.557,4.14-5.908,9.116S585.232,62.728,585.149,62.668Z" transform="translate(-450.86 -30.557)" fill="#5e5385"/>
    <path id="Trazado_100312" data-name="Trazado 100312" d="M628,41.659c.078-.072,3.5,3.327,7.646,7.587s7.449,7.766,7.378,7.844-3.495-3.321-7.646-7.587S627.915,41.7,628,41.659Z" transform="translate(-468.113 -29.357)" fill="#5e5385"/>
  </g>
  <g id="freepik--envelope-2--inject-13" transform="translate(186.165)">
    <path id="Trazado_100313" data-name="Trazado 100313" d="M337.42,160.01c.084,0,.209.3.281.711s.054.747-.03.765-.209-.3-.281-.717S337.336,160.022,337.42,160.01Z" transform="translate(-321.99 -64.424)" fill="#263238"/>
    <path id="Trazado_100314" data-name="Trazado 100314" d="M335.843,150.25a3.7,3.7,0,0,1,.388,1.434,3.644,3.644,0,0,1,.084,1.481,3.544,3.544,0,0,1-.388-1.434,3.643,3.643,0,0,1-.084-1.481Z" transform="translate(-321.369 -60.495)" fill="#263238"/>
    <path id="Trazado_100315" data-name="Trazado 100315" d="M334.406,140.47a3.586,3.586,0,0,1,.358,1.44,3.684,3.684,0,0,1,.054,1.481,3.493,3.493,0,0,1-.358-1.44,3.687,3.687,0,0,1-.054-1.481Z" transform="translate(-320.786 -56.557)" fill="#263238"/>
    <path id="Trazado_100316" data-name="Trazado 100316" d="M333.27,130.66a3.714,3.714,0,0,1,.311,1.452,3.518,3.518,0,0,1,0,1.481,3.658,3.658,0,0,1-.3-1.452A3.588,3.588,0,0,1,333.27,130.66Z" transform="translate(-320.319 -52.607)" fill="#263238"/>
    <path id="Trazado_100317" data-name="Trazado 100317" d="M332.574,120.78a7.1,7.1,0,0,1,.167,2.951A7.09,7.09,0,0,1,332.574,120.78Z" transform="translate(-320.035 -48.629)" fill="#263238"/>
    <path id="Trazado_100318" data-name="Trazado 100318" d="M332.413,110.89a7.25,7.25,0,0,1,0,2.987,3.5,3.5,0,0,1-.149-1.476A3.589,3.589,0,0,1,332.413,110.89Z" transform="translate(-319.934 -44.647)" fill="#263238"/>
    <path id="Trazado_100319" data-name="Trazado 100319" d="M332.919,101.03a3.79,3.79,0,0,1,.03,1.487,3.673,3.673,0,0,1-.275,1.458,3.539,3.539,0,0,1-.036-1.481,3.619,3.619,0,0,1,.281-1.464Z" transform="translate(-320.07 -40.677)" fill="#263238"/>
    <path id="Trazado_100320" data-name="Trazado 100320" d="M334.282,91.26a3.489,3.489,0,0,1-.1,1.481,3.6,3.6,0,0,1-.412,1.428,7.265,7.265,0,0,1,.514-2.909Z" transform="translate(-320.548 -36.744)" fill="#263238"/>
    <path id="Trazado_100321" data-name="Trazado 100321" d="M336.591,81.71a3.751,3.751,0,0,1-.275,1.458,3.794,3.794,0,0,1-.568,1.374,3.585,3.585,0,0,1,.269-1.464,3.511,3.511,0,0,1,.573-1.368Z" transform="translate(-321.346 -32.899)" fill="#263238"/>
    <path id="Trazado_100322" data-name="Trazado 100322" d="M340.049,72.54a3.619,3.619,0,0,1-.454,1.416,3.71,3.71,0,0,1-.735,1.29,7.169,7.169,0,0,1,1.195-2.706Z" transform="translate(-322.599 -29.207)" fill="#263238"/>
    <path id="Trazado_100323" data-name="Trazado 100323" d="M344.643,63.918a3.686,3.686,0,0,1-.627,1.344,4.469,4.469,0,0,1-.9,1.195,3.689,3.689,0,0,1,.633-1.344C344.171,64.4,344.572,63.87,344.643,63.918Z" transform="translate(-324.315 -25.734)" fill="#263238"/>
    <path id="Trazado_100324" data-name="Trazado 100324" d="M350.352,56.007c.066.06-.293.6-.8,1.249s-.98,1.105-1.051,1.051a3.743,3.743,0,0,1,.806-1.249C349.82,56.425,350.292,55.953,350.352,56.007Z" transform="translate(-326.481 -22.548)" fill="#263238"/>
    <path id="Trazado_100325" data-name="Trazado 100325" d="M357.157,49.055c.054.072-.388.568-.986,1.117s-1.135.938-1.195.878.382-.556.986-1.111S357.1,48.989,357.157,49.055Z" transform="translate(-329.086 -19.748)" fill="#263238"/>
    <path id="Trazado_100326" data-name="Trazado 100326" d="M365.029,43.38c.042.078-.478.49-1.165.926a3.648,3.648,0,0,1-1.326.663c-.048-.066.472-.484,1.159-.926A3.791,3.791,0,0,1,365.029,43.38Z" transform="translate(-332.132 -17.466)" fill="#263238"/>
    <path id="Trazado_100327" data-name="Trazado 100327" d="M373.858,39.33a7.185,7.185,0,0,1-2.748,1.075,3.638,3.638,0,0,1,1.32-.681,3.584,3.584,0,0,1,1.428-.394Z" transform="translate(-335.584 -15.835)" fill="#263238"/>
    <path id="Trazado_100328" data-name="Trazado 100328" d="M381.943,37.509c0,.084-.3.215-.7.293s-.747.072-.765,0,.3-.215.7-.293S381.931,37.426,381.943,37.509Z" transform="translate(-339.356 -15.078)" fill="#263238"/>
    <rect id="Rectángulo_29403" data-name="Rectángulo 29403" width="29.934" height="44.409" transform="translate(0.014 27.922) rotate(-68.86)" fill="#cbc5e0"/>
    <path id="Trazado_100329" data-name="Trazado 100329" d="M353.074,43.961h0L311.64,27.933h0L322.446,0h0L363.88,16.022h0Zm-41.4-16.045,41.4,16,10.789-27.891-41.4-16Z" transform="translate(-311.64)" fill="#263238"/>
    <path id="Trazado_100330" data-name="Trazado 100330" d="M371.17,16.672a2.879,2.879,0,0,1-.526.221l-1.547.562-5.7,2.007-18.925,6.5-.155.054-.084-.143-.2-.346L333.87,7.98l-3.041-5.341-.806-1.464A2.98,2.98,0,0,1,329.76.65a3.285,3.285,0,0,1,.329.484l.878,1.428,3.118,5.263c2.652,4.5,6.272,10.675,10.269,17.485l.2.346-.239-.09L363.3,19.175l5.747-1.882,1.571-.5a2.629,2.629,0,0,1,.55-.125Z" transform="translate(-318.936 -0.262)" fill="#5e5385"/>
    <path id="Trazado_100331" data-name="Trazado 100331" d="M311.67,39.73c-.054-.1,4.54-2.718,10.263-5.854s10.4-5.6,10.454-5.508-4.54,2.718-10.263,5.86S311.723,39.826,311.67,39.73Z" transform="translate(-311.652 -11.421)" fill="#5e5385"/>
    <path id="Trazado_100332" data-name="Trazado 100332" d="M369.626,36.66c.108-.03,1.714,4.958,3.584,11.141s3.315,11.231,3.208,11.26-1.714-4.952-3.584-11.141S369.519,36.714,369.626,36.66Z" transform="translate(-334.985 -14.76)" fill="#5e5385"/>
  </g>
  <g id="freepik--envelope-1--inject-13" transform="translate(26.726 25.53)">
    <path id="Trazado_100333" data-name="Trazado 100333" d="M308.2,170.95c.084,0,.125.346.1.759s-.131.741-.215.735-.131-.346-.1-.759S308.113,170.944,308.2,170.95Z" transform="translate(-150.724 -94.359)" fill="#263238"/>
    <path id="Trazado_100334" data-name="Trazado 100334" d="M308.482,160.78a3.778,3.778,0,0,1,.155,1.523,3.906,3.906,0,0,1-.161,1.517,3.823,3.823,0,0,1-.149-1.517,3.958,3.958,0,0,1,.155-1.523Z" transform="translate(-150.859 -90.264)" fill="#263238"/>
    <path id="Trazado_100335" data-name="Trazado 100335" d="M307.856,150.66a7.636,7.636,0,0,1,.281,3.029,3.681,3.681,0,0,1-.293-1.5A3.956,3.956,0,0,1,307.856,150.66Z" transform="translate(-150.645 -86.19)" fill="#263238"/>
    <path id="Trazado_100336" data-name="Trazado 100336" d="M306.2,140.6a3.892,3.892,0,0,1,.442,1.464,3.84,3.84,0,0,1,.137,1.523,3.938,3.938,0,0,1-.442-1.464,3.713,3.713,0,0,1-.137-1.523Z" transform="translate(-150.002 -82.139)" fill="#263238"/>
    <path id="Trazado_100337" data-name="Trazado 100337" d="M303.45,130.81a7.46,7.46,0,0,1,.926,2.9,3.843,3.843,0,0,1-.6-1.4,3.8,3.8,0,0,1-.329-1.493Z" transform="translate(-148.904 -78.197)" fill="#263238"/>
    <path id="Trazado_100338" data-name="Trazado 100338" d="M299.56,121.42a3.775,3.775,0,0,1,.765,1.32,3.9,3.9,0,0,1,.484,1.452,3.929,3.929,0,0,1-.765-1.32A3.839,3.839,0,0,1,299.56,121.42Z" transform="translate(-147.338 -74.417)" fill="#263238"/>
    <path id="Trazado_100339" data-name="Trazado 100339" d="M294.51,112.588c.072-.048.5.49.956,1.195a3.972,3.972,0,0,1,.645,1.392c-.078.042-.484-.508-.914-1.231a3.855,3.855,0,0,1-.687-1.356Z" transform="translate(-145.304 -70.86)" fill="#263238"/>
    <path id="Trazado_100340" data-name="Trazado 100340" d="M288.28,104.557c.066-.06.556.418,1.093,1.063a3.924,3.924,0,0,1,.854,1.272c-.072.048-.556-.43-1.093-1.069A3.868,3.868,0,0,1,288.28,104.557Z" transform="translate(-142.796 -67.625)" fill="#263238"/>
    <path id="Trazado_100341" data-name="Trazado 100341" d="M281,97.475c.054-.066.6.341,1.231.9s1.081,1.075,1.022,1.135a3.883,3.883,0,0,1-1.231-.9C281.383,98.049,280.923,97.541,281,97.475Z" transform="translate(-139.86 -64.773)" fill="#263238"/>
    <path id="Trazado_100342" data-name="Trazado 100342" d="M272.728,91.54a3.786,3.786,0,0,1,1.35.711,4.241,4.241,0,0,1,1.195.974,3.954,3.954,0,0,1-1.35-.717C273.212,92.048,272.68,91.612,272.728,91.54Z" transform="translate(-136.533 -62.386)" fill="#263238"/>
    <path id="Trazado_100343" data-name="Trazado 100343" d="M263.67,86.92a3.8,3.8,0,0,1,1.446.5,3.844,3.844,0,0,1,1.314.777,3.8,3.8,0,0,1-1.446-.5,3.924,3.924,0,0,1-1.314-.777Z" transform="translate(-132.887 -60.526)" fill="#263238"/>
    <path id="Trazado_100344" data-name="Trazado 100344" d="M254,83.848a3.938,3.938,0,0,1,1.511.245,3.823,3.823,0,0,1,1.428.55,4.033,4.033,0,0,1-1.511-.245,3.943,3.943,0,0,1-1.428-.55Z" transform="translate(-128.994 -59.288)" fill="#263238"/>
    <path id="Trazado_100345" data-name="Trazado 100345" d="M243.89,82.5a6.2,6.2,0,0,1,3.029.245A9.466,9.466,0,0,1,243.89,82.5Z" transform="translate(-124.923 -58.713)" fill="#263238"/>
    <path id="Trazado_100346" data-name="Trazado 100346" d="M233.75,83a7.487,7.487,0,0,1,3.023-.358,3.791,3.791,0,0,1-1.493.335A3.98,3.98,0,0,1,233.75,83Z" transform="translate(-120.841 -58.792)" fill="#263238"/>
    <path id="Trazado_100347" data-name="Trazado 100347" d="M223.93,85.268a3.775,3.775,0,0,1,1.4-.6,3.726,3.726,0,0,1,1.493-.311,3.892,3.892,0,0,1-1.4.6,3.973,3.973,0,0,1-1.493.311Z" transform="translate(-116.887 -59.495)" fill="#263238"/>
    <path id="Trazado_100348" data-name="Trazado 100348" d="M214.769,89.308c-.042-.078.52-.46,1.266-.86a3.778,3.778,0,0,1,1.41-.6,7.681,7.681,0,0,1-2.676,1.452Z" transform="translate(-113.197 -60.901)" fill="#263238"/>
    <path id="Trazado_100349" data-name="Trazado 100349" d="M206.647,95.077c-.06-.06.418-.55,1.063-1.093a3.924,3.924,0,0,1,1.272-.854c.048.072-.43.562-1.069,1.093A3.751,3.751,0,0,1,206.647,95.077Z" transform="translate(-109.926 -63.026)" fill="#263238"/>
    <path id="Trazado_100350" data-name="Trazado 100350" d="M200,102.445a3.43,3.43,0,0,1,.771-1.326c.52-.669,1.027-1.135,1.087-1.081a4.809,4.809,0,0,1-.842,1.272C200.5,101.985,200.072,102.492,200,102.445Z" transform="translate(-107.252 -65.806)" fill="#263238"/>
    <path id="Trazado_100351" data-name="Trazado 100351" d="M196.27,109.754c-.078-.036,0-.364.185-.741s.388-.645.466-.6,0,.37-.185.741S196.347,109.8,196.27,109.754Z" transform="translate(-105.738 -69.179)" fill="#263238"/>
    <path id="Trazado_100352" data-name="Trazado 100352" d="M132.75,169.48c0-.084.317-.191.723-.245s.747,0,.759.066-.3.2-.723.245S132.756,169.582,132.75,169.48Z" transform="translate(-80.175 -93.66)" fill="#263238"/>
    <path id="Trazado_100353" data-name="Trazado 100353" d="M122.85,168.56a4.738,4.738,0,0,1,1.481.221,4.626,4.626,0,0,1,1.446.394,5.122,5.122,0,0,1-2.927-.6Z" transform="translate(-76.189 -93.396)" fill="#263238"/>
    <path id="Trazado_100354" data-name="Trazado 100354" d="M113.888,164.13a4.5,4.5,0,0,1,1.338.681c.7.418,1.272.771,1.237.854a3.332,3.332,0,0,1-1.392-.6C114.354,164.65,113.84,164.2,113.888,164.13Z" transform="translate(-72.58 -91.613)" fill="#263238"/>
    <path id="Trazado_100355" data-name="Trazado 100355" d="M106.445,157.447c.066-.054.556.4,1.135.986s1.027,1.081.974,1.147-.6-.335-1.195-.926S106.379,157.507,106.445,157.447Z" transform="translate(-69.581 -88.921)" fill="#263238"/>
    <path id="Trazado_100356" data-name="Trazado 100356" d="M100.57,149.348c.078-.042.5.478.95,1.195a3.833,3.833,0,0,1,.693,1.332c-.072.054-.5-.472-.95-1.165A3.691,3.691,0,0,1,100.57,149.348Z" transform="translate(-67.219 -85.661)" fill="#263238"/>
    <path id="Trazado_100357" data-name="Trazado 100357" d="M96.25,140.32a3.752,3.752,0,0,1,.729,1.314,3.968,3.968,0,0,1,.448,1.44,3.708,3.708,0,0,1-.735-1.314,3.816,3.816,0,0,1-.442-1.44Z" transform="translate(-65.479 -82.026)" fill="#263238"/>
    <path id="Trazado_100358" data-name="Trazado 100358" d="M93.377,130.72a3.8,3.8,0,0,1,.532,1.41,3.7,3.7,0,0,1,.227,1.487,3.633,3.633,0,0,1-.532-1.41A3.722,3.722,0,0,1,93.377,130.72Z" transform="translate(-64.32 -78.161)" fill="#263238"/>
    <path id="Trazado_100359" data-name="Trazado 100359" d="M91.608,120.85a3.913,3.913,0,0,1,.376,1.458,3.751,3.751,0,0,1,.072,1.505,3.7,3.7,0,0,1-.376-1.458A3.626,3.626,0,0,1,91.608,120.85Z" transform="translate(-63.591 -74.187)" fill="#263238"/>
    <path id="Trazado_100360" data-name="Trazado 100360" d="M90.614,110.88a7.233,7.233,0,0,1,.239,2.987,3.7,3.7,0,0,1-.275-1.475A3.644,3.644,0,0,1,90.614,110.88Z" transform="translate(-63.171 -70.173)" fill="#263238"/>
    <path id="Trazado_100361" data-name="Trazado 100361" d="M90.177,103.37c.09,0,.173.329.191.741s-.036.747-.119.753-.173-.329-.191-.741S90.094,103.376,90.177,103.37Z" transform="translate(-62.985 -67.149)" fill="#263238"/>
    <rect id="Rectángulo_29404" data-name="Rectángulo 29404" width="49.725" height="33.519" transform="matrix(0.999, -0.047, 0.047, 0.999, 0.019, 2.343)" fill="#cbc5e0"/>
    <path id="Trazado_100362" data-name="Trazado 100362" d="M46.317,78.576h0L44.74,45.082h0L94.429,42.74h0l1.577,33.495h0ZM44.77,45.082l1.577,33.453,49.642-2.342L94.412,42.74Z" transform="translate(-44.74 -42.738)" fill="#263238"/>
    <path id="Trazado_100363" data-name="Trazado 100363" d="M94.732,43.4a3.231,3.231,0,0,1-.442.466l-1.326,1.278-4.928,4.642L71.583,65l-.137.125-.149-.108-.358-.263L52.581,51.387c-2.306-1.708-4.182-3.1-5.532-4.092L45.562,46.16a3.264,3.264,0,0,1-.5-.418,4.073,4.073,0,0,1,.556.346l1.541,1.051,5.615,3.979L71.2,64.38l.364.263h-.287L87.814,49.529l5.03-4.534L94.23,43.8a3.057,3.057,0,0,1,.5-.4Z" transform="translate(-44.869 -43.004)" fill="#5e5385"/>
    <path id="Trazado_100364" data-name="Trazado 100364" d="M47.7,89.205c-.1-.078,3.423-4.845,7.861-10.645s8.118-10.442,8.214-10.37-3.417,4.845-7.855,10.645S47.8,89.277,47.7,89.205Z" transform="translate(-45.93 -52.984)" fill="#5e5385"/>
    <path id="Trazado_100365" data-name="Trazado 100365" d="M102.219,66.189c.1-.084,4,4.3,8.722,9.785s8.477,10,8.363,10.084-4-4.3-8.722-9.791S102.123,66.273,102.219,66.189Z" transform="translate(-67.882 -52.179)" fill="#5e5385"/>
  </g>
  <g id="freepik--Character--inject-13" transform="translate(5.645 96.182)">
    <path id="Trazado_100366" data-name="Trazado 100366" d="M176.688,239.714a1.356,1.356,0,0,0-1.027-1.511l-1.332.09-4.779-1.655a1.428,1.428,0,0,0-1.792,1.3c0,1.368-.6,5.1-1.679,3.925l-.084-.078c-1.571-1.75-3.387-2.6-4.086-2.5a.8.8,0,0,0-.346,1.41.84.84,0,0,0,.287.2c.048,0,.108.06.155.084a12.079,12.079,0,0,1,1.822,1.631,6.323,6.323,0,0,1,1.195,1.792c.317.741.567,1.386.765,1.941l.072,4.379-1.9,20.472s-12.6-13.238-12.312-13.363l.735,20.621,7.634,6.314a9.6,9.6,0,0,0,15.735-7.557l-.436-26.47.311-3.471Z" transform="translate(-66.7 -191.44)" fill="#ffbe9d"/>
    <path id="Trazado_100367" data-name="Trazado 100367" d="M48.673,290.54,34.868,322.105l-10.9,22.772L15.866,347.6s-6.416,1.864-6.416,3.19,1.691,1.027,1.691,1.027c.311,1.983,3.059.86,4.982,0s6.2-1.1,6.2-1.1A1.738,1.738,0,0,0,22.2,353.5c.681.478,1.864-.1,2.664-.956s2.867-1.249,5.167-2.073,2.676-3.907,2.676-3.907l27.6-46.517Z" transform="translate(-9.45 -213.162)" fill="#ffbe9d"/>
    <path id="Trazado_100368" data-name="Trazado 100368" d="M115.477,289.168l3.471,4.582,7.521-16.685s-7.3-8.907-9.97-12.64-4.63-4.349-4.63-4.349a37.351,37.351,0,0,0-7.27-1.416l-11.983.717-12.168,5.311a16.858,16.858,0,0,0-7.33,6.171L61.66,289.263,77.885,296.2l5.442,31.159c1.039,4.666,1.953,9.068,6.26,11.219l30.09-28.919-3.524-5.556Z" transform="translate(-30.471 -200.326)" fill="#f5ca56"/>
    <path id="Trazado_100369" data-name="Trazado 100369" d="M97.835,300.18c.072.048-1.792,2.927-4.14,6.44s-4.331,6.308-4.4,6.26,1.792-2.927,4.14-6.44S97.764,300.132,97.835,300.18Z" transform="translate(-41.599 -217.043)" fill="#263238"/>
    <path id="Trazado_100370" data-name="Trazado 100370" d="M131.406,349.66a5.645,5.645,0,0,1-.8.478c-.52.287-1.284.693-2.234,1.195-1.906.986-4.546,2.306-7.5,3.7s-5.657,2.593-7.628,3.429c-.986.418-1.792.753-2.342.974a5.856,5.856,0,0,1-.878.311,5.274,5.274,0,0,1,.83-.424l2.3-1.057c1.947-.89,4.636-2.121,7.587-3.513s5.609-2.682,7.533-3.584l2.282-1.1a5.509,5.509,0,0,1,.854-.406Z" transform="translate(-49.942 -236.965)" fill="#263238"/>
    <path id="Trazado_100371" data-name="Trazado 100371" d="M96.057,284.313A10.713,10.713,0,0,1,95,282.98a21.267,21.267,0,0,0-2.67-3.047,9.438,9.438,0,0,0-3.447-2.025c-.986-.311-1.643-.3-1.643-.358a1.2,1.2,0,0,1,.46-.036,5.9,5.9,0,0,1,1.243.179,8.788,8.788,0,0,1,3.584,2.007,17.136,17.136,0,0,1,2.64,3.154,8.53,8.53,0,0,1,.89,1.458Z" transform="translate(-40.77 -207.914)" fill="#263238"/>
    <path id="Trazado_100372" data-name="Trazado 100372" d="M130.689,314.27a1.254,1.254,0,0,1,0,.335v.944a21.985,21.985,0,0,1-.484,3.447,24.7,24.7,0,0,1-13.9,17.324,22.7,22.7,0,0,1-3.262,1.195c-.394.119-.711.185-.92.233a1.317,1.317,0,0,1-.323.06s.43-.149,1.195-.406a26.772,26.772,0,0,0,3.2-1.3,25.281,25.281,0,0,0,13.787-17.186,27.741,27.741,0,0,0,.6-3.411A10.464,10.464,0,0,1,130.689,314.27Z" transform="translate(-50.659 -222.716)" fill="#263238"/>
    <g id="Grupo_53346" data-name="Grupo 53346" transform="translate(47.473 87.39)" opacity="0.3">
      <path id="Trazado_100373" data-name="Trazado 100373" d="M90.963,327.826c-.054-.3,3.859-20.526,3.859-20.526l-5.9,8.859" transform="translate(-88.92 -307.3)"/>
    </g>
    <path id="Trazado_100374" data-name="Trazado 100374" d="M150.452,277.23a1.472,1.472,0,0,1,.042.346c0,.263.036.6.066,1,.042.908.107,2.151.185,3.674.149,3.142.358,7.413.6,12.127s.406,9.032.5,12.139c.048,1.553.078,2.814.09,3.68v1a1.3,1.3,0,0,1,0,.346,1.473,1.473,0,0,1-.042-.346c0-.263-.036-.6-.066-1-.042-.908-.108-2.156-.185-3.674-.149-3.142-.358-7.413-.6-12.133s-.4-9.026-.5-12.139c-.048-1.553-.078-2.808-.09-3.68v-1a1.341,1.341,0,0,1,0-.352Z" transform="translate(-66.217 -207.803)" fill="#263238"/>
    <g id="Grupo_53347" data-name="Grupo 53347" transform="translate(59.586 106.219)" opacity="0.2">
      <path id="Trazado_100375" data-name="Trazado 100375" d="M109.832,355.325c-.968-.8-.747-2.437.108-3.357a7.694,7.694,0,0,1,3.321-1.7c5.717-1.852,11.464-4.468,15.233-9.152a9.23,9.23,0,0,1,1.691-1.792,2.337,2.337,0,0,1,2.348-.323c1.153.6,1.195,2.27.711,3.483a6.676,6.676,0,0,1-3.148,3.441" transform="translate(-109.197 -338.818)"/>
    </g>
    <g id="Grupo_53348" data-name="Grupo 53348" transform="translate(84.361 73.017)" opacity="0.2">
      <path id="Trazado_100376" data-name="Trazado 100376" d="M150.67,283.24l3.339,19.379-2.6-3.435Z" transform="translate(-150.67 -283.24)"/>
    </g>
    <path id="Trazado_100377" data-name="Trazado 100377" d="M200.045,368.45,194.4,387.817l24.056,7.168c.544-2.342-10.532-10.651-10.532-10.651l4.158-12.282Z" transform="translate(-83.916 -244.53)" fill="#7d6eb2"/>
    <g id="Grupo_53349" data-name="Grupo 53349" transform="translate(115.866 136.529)" opacity="0.6">
      <path id="Trazado_100378" data-name="Trazado 100378" d="M204.425,389.559a1.021,1.021,0,0,0-1.016.914.992.992,0,0,0,.9,1.015,1.088,1.088,0,0,0,1.069-.98,1.022,1.022,0,0,0-1.057-.95" transform="translate(-203.409 -389.559)" fill="#fff"/>
    </g>
    <g id="Grupo_53350" data-name="Grupo 53350" transform="translate(110.484 141.357)" opacity="0.6">
      <path id="Trazado_100379" data-name="Trazado 100379" d="M194.4,399.569l.645-1.93,22.826,7.575s.932.783.6,1.5Z" transform="translate(-194.4 -397.64)" fill="#fff"/>
    </g>
    <path id="Trazado_100380" data-name="Trazado 100380" d="M216.009,394.8c-.036.113-.639,0-1.332.2s-1.141.6-1.237.526.281-.7,1.123-.938S216.069,394.694,216.009,394.8Z" transform="translate(-91.576 -255.021)" fill="#263238"/>
    <path id="Trazado_100381" data-name="Trazado 100381" d="M220.049,397.906c0,.125-.6.173-1.123.55s-.818.872-.932.83,0-.729.693-1.195S220.079,397.792,220.049,397.906Z" transform="translate(-93.4 -256.34)" fill="#263238"/>
    <path id="Trazado_100382" data-name="Trazado 100382" d="M222.318,402.566c-.119,0-.108-.645.388-1.195s1.117-.645,1.135-.538-.418.358-.818.818S222.437,402.59,222.318,402.566Z" transform="translate(-95.131 -257.553)" fill="#263238"/>
    <path id="Trazado_100383" data-name="Trazado 100383" d="M217.1,389.558c-.084.09-.6-.233-1.249-.382s-1.26-.1-1.29-.215.6-.388,1.386-.2S217.212,389.48,217.1,389.558Z" transform="translate(-92.032 -252.681)" fill="#263238"/>
    <path id="Trazado_100384" data-name="Trazado 100384" d="M217.066,383.126a2.39,2.39,0,0,1-1.195-.364,5.453,5.453,0,0,1-1.147-.765,5.872,5.872,0,0,1-.6-.6,1.464,1.464,0,0,1-.275-.388.538.538,0,0,1,.131-.645.675.675,0,0,1,.6-.113,1.748,1.748,0,0,1,.436.2,4.793,4.793,0,0,1,.669.478,4.4,4.4,0,0,1,.9,1.063,2.073,2.073,0,0,1,.418,1.195c-.066,0-.227-.43-.669-1.021a4.785,4.785,0,0,0-.9-.926,4.409,4.409,0,0,0-.627-.418c-.233-.143-.448-.209-.55-.114s-.042.048,0,.137a1.111,1.111,0,0,0,.2.287,6.769,6.769,0,0,0,.532.556,7.517,7.517,0,0,0,1.027.794C216.642,382.875,217.09,383.06,217.066,383.126Z" transform="translate(-91.726 -249.272)" fill="#263238"/>
    <path id="Trazado_100385" data-name="Trazado 100385" d="M218.871,382.882a1.977,1.977,0,0,1,.03-1.254,3.911,3.911,0,0,1,.556-1.272,3.648,3.648,0,0,1,.526-.639,1.034,1.034,0,0,1,.95-.382.6.6,0,0,1,.4.484,1.777,1.777,0,0,1,0,.478,2.819,2.819,0,0,1-.239.812,2.99,2.99,0,0,1-.884,1.093,1.642,1.642,0,0,1-1.195.436,5.114,5.114,0,0,0,.992-.669,2.834,2.834,0,0,0,.717-1.016,2.445,2.445,0,0,0,.185-.7c.042-.269,0-.5-.1-.5a.97.97,0,0,0-.544.269,4.658,4.658,0,0,0-.49.562,4.5,4.5,0,0,0-.6,1.135C218.948,382.4,218.943,382.882,218.871,382.882Z" transform="translate(-93.733 -248.909)" fill="#263238"/>
    <path id="Trazado_100386" data-name="Trazado 100386" d="M190.576,315.957c.6,4.468-.92,9.5-2.539,13.74l-10.55,24.779-11.679-1.792a15,15,0,0,1-5.544,3.751c-1.392.46-5.974,1.362-9.743-1.35h0s-5.335,7.431-13.74,9.677-21.1,3.489-27.252-6.332L138.8,330.21c.6.143,25.227-16.464,38.531-20.245C177.356,309.965,189.452,307.743,190.576,315.957Z" transform="translate(-49.745 -220.873)" fill="#263238"/>
    <path id="Trazado_100387" data-name="Trazado 100387" d="M179.868,364.641a1.5,1.5,0,0,1,.155-.1l.478-.251c.424-.227,1.045-.544,1.834-.98a29.78,29.78,0,0,0,2.8-1.721,14.724,14.724,0,0,0,3.16-2.933,10.156,10.156,0,0,0,2.049-4.743,15.761,15.761,0,0,0-.251-5.974,9.648,9.648,0,0,0-3.22-5.609,12.192,12.192,0,0,0-6.571-2.342,20.232,20.232,0,0,0-3.614.03,27.105,27.105,0,0,0-3.471.6,41.3,41.3,0,0,0-6.3,2.18c-3.9,1.708-7.288,3.548-10.263,4.821a36.543,36.543,0,0,1-7.258,2.419c-.442.1-.842.167-1.195.215s-.633.1-.872.119l-.538.054H146.6l.185-.042.532-.078c.233-.036.526-.078.866-.149s.735-.131,1.195-.239a38.4,38.4,0,0,0,7.168-2.509c2.951-1.29,6.326-3.148,10.239-4.881a41.2,41.2,0,0,1,6.344-2.21,27.643,27.643,0,0,1,3.507-.6,20.9,20.9,0,0,1,3.674-.03,12.435,12.435,0,0,1,6.762,2.419,8.506,8.506,0,0,1,2.192,2.664,12.131,12.131,0,0,1,1.117,3.118,16.158,16.158,0,0,1,.227,6.075,10.449,10.449,0,0,1-2.133,4.833,14.575,14.575,0,0,1-3.238,2.939,29.456,29.456,0,0,1-2.832,1.685c-.8.418-1.434.723-1.864.926l-.5.227a.754.754,0,0,1-.179.06Z" transform="translate(-64.67 -232.926)" fill="#455a64"/>
    <path id="Trazado_100388" data-name="Trazado 100388" d="M211.075,327.01a34.382,34.382,0,0,1-2.449,4,36.109,36.109,0,0,1-2.706,3.823,35.464,35.464,0,0,1,2.449-4,36.116,36.116,0,0,1,2.706-3.823Z" transform="translate(-88.554 -227.846)" fill="#455a64"/>
    <path id="Trazado_100389" data-name="Trazado 100389" d="M190.972,378.2a20.744,20.744,0,0,1-2.121.55c-1.308.323-3.106.818-5.054,1.5s-3.662,1.416-4.887,1.977a21.106,21.106,0,0,1-2,.9,2.415,2.415,0,0,1,.49-.329c.329-.2.812-.46,1.416-.765a40.766,40.766,0,0,1,9.988-3.495c.663-.137,1.195-.233,1.583-.281a2.413,2.413,0,0,1,.585-.054Z" transform="translate(-76.874 -248.455)" fill="#455a64"/>
    <path id="Trazado_100390" data-name="Trazado 100390" d="M217.545,379.353c-.054,0-.191-.526-.687-1.254a5.06,5.06,0,0,0-6.01-1.953c-.83.3-1.266.663-1.3.6s.084-.12.287-.281a4.234,4.234,0,0,1,.932-.538,4.976,4.976,0,0,1,6.278,2.067,4.108,4.108,0,0,1,.436.986C217.58,379.185,217.58,379.353,217.545,379.353Z" transform="translate(-90.012 -247.374)" fill="#455a64"/>
    <path id="Trazado_100391" data-name="Trazado 100391" d="M133.48,366.45a1.614,1.614,0,0,1,.155.556,9.053,9.053,0,0,1,.131,1.571,9.729,9.729,0,0,1-1.374,4.994,7.646,7.646,0,0,1-4,3.25,5.734,5.734,0,0,1-1.553.3,1.6,1.6,0,0,1-.6,0,11.178,11.178,0,0,0,2.061-.478,7.766,7.766,0,0,0,3.811-3.208,10.211,10.211,0,0,0,1.422-4.827C133.606,367.262,133.426,366.456,133.48,366.45Z" transform="translate(-56.473 -243.725)" fill="#455a64"/>
    <path id="Trazado_100392" data-name="Trazado 100392" d="M115.6,387.911c-.066.054-.376-.215-.669-.6s-.448-.794-.37-.836.341.257.627.651S115.662,387.857,115.6,387.911Z" transform="translate(-51.761 -251.787)" fill="#455a64"/>
    <path id="Trazado_100393" data-name="Trazado 100393" d="M119.548,392.387c-.054.066-.388-.167-.747-.514s-.6-.675-.538-.729.4.167.753.508S119.608,392.321,119.548,392.387Z" transform="translate(-53.258 -253.665)" fill="#455a64"/>
    <path id="Trazado_100394" data-name="Trazado 100394" d="M124.262,396.1c-.042.072-.418-.084-.836-.358s-.717-.55-.669-.6a1.683,1.683,0,0,1,.836.358C124,395.761,124.3,396.048,124.262,396.1Z" transform="translate(-55.068 -255.277)" fill="#455a64"/>
    <path id="Trazado_100395" data-name="Trazado 100395" d="M129.643,398.667c0,.084-.424,0-.9-.155s-.824-.37-.789-.454.436,0,.89.161S129.667,398.583,129.643,398.667Z" transform="translate(-57.164 -256.438)" fill="#455a64"/>
    <path id="Trazado_100396" data-name="Trazado 100396" d="M135.486,399.859c0,.084-.406.119-.908.072s-.89-.149-.878-.233.424-.12.908-.072S135.486,399.775,135.486,399.859Z" transform="translate(-59.476 -257.074)" fill="#455a64"/>
    <path id="Trazado_100397" data-name="Trazado 100397" d="M141.458,399.64c0,.084-.388.179-.884.215a4.028,4.028,0,0,1-.669,0h0c-.149,0-.239-.036-.245-.078s.078-.084.221-.125h0a3.808,3.808,0,0,1,.657-.1C141.058,399.509,141.446,399.551,141.458,399.64Z" transform="translate(-61.876 -257.047)" fill="#455a64"/>
    <path id="Trazado_100398" data-name="Trazado 100398" d="M147.384,398.621c0,.084-.352.233-.842.341s-.89.119-.9.036.358-.239.842-.341S147.366,398.525,147.384,398.621Z" transform="translate(-64.284 -256.655)" fill="#455a64"/>
    <path id="Trazado_100399" data-name="Trazado 100399" d="M153.152,396.866c0,.084-.329.275-.8.436s-.878.215-.9.137.335-.275.8-.436S153.122,396.789,153.152,396.866Z" transform="translate(-66.622 -255.957)" fill="#455a64"/>
    <path id="Trazado_100400" data-name="Trazado 100400" d="M158.709,394.533c.042.078-.3.311-.747.514s-.848.311-.884.233.3-.311.753-.514S158.673,394.455,158.709,394.533Z" transform="translate(-68.888 -255.022)" fill="#455a64"/>
    <path id="Trazado_100401" data-name="Trazado 100401" d="M164.025,391.648c.042.072-.269.335-.7.6s-.812.388-.848.317.269-.341.693-.6S163.983,391.583,164.025,391.648Z" transform="translate(-71.062 -253.864)" fill="#455a64"/>
    <path id="Trazado_100402" data-name="Trazado 100402" d="M169.014,388.281c.054.072-.233.358-.639.651s-.771.466-.818.394.239-.364.639-.651S168.972,388.215,169.014,388.281Z" transform="translate(-73.106 -252.509)" fill="#455a64"/>
    <path id="Trazado_100403" data-name="Trazado 100403" d="M173.705,384.463c.06.066-.2.382-.6.7s-.729.538-.783.472.2-.382.6-.7S173.645,384.4,173.705,384.463Z" transform="translate(-75.025 -250.974)" fill="#455a64"/>
    <path id="Trazado_100404" data-name="Trazado 100404" d="M178.117,380.343c.06.066-.185.394-.544.729s-.7.562-.759.5.179-.382.544-.729S178.063,380.284,178.117,380.343Z" transform="translate(-76.833 -249.315)" fill="#455a64"/>
    <path id="Trazado_100405" data-name="Trazado 100405" d="M182.757,376.651c.048.072-.233.364-.633.651s-.765.466-.818.4.233-.358.633-.651S182.709,376.585,182.757,376.651Z" transform="translate(-78.641 -247.827)" fill="#455a64"/>
    <path id="Trazado_100406" data-name="Trazado 100406" d="M187.915,373.757c.036.078-.3.317-.735.538s-.83.335-.872.257.287-.317.735-.538S187.879,373.691,187.915,373.757Z" transform="translate(-80.656 -246.659)" fill="#455a64"/>
    <path id="Trazado_100407" data-name="Trazado 100407" d="M193.548,371.958c0,.084-.358.251-.83.364s-.884.149-.908.072.346-.251.83-.37S193.536,371.874,193.548,371.958Z" transform="translate(-82.872 -245.924)" fill="#455a64"/>
    <path id="Trazado_100408" data-name="Trazado 100408" d="M199.492,371.523c0,.09-.412.12-.9.108s-.884-.054-.89-.137.394-.179.9-.173S199.5,371.451,199.492,371.523Z" transform="translate(-85.245 -245.686)" fill="#455a64"/>
    <path id="Trazado_100409" data-name="Trazado 100409" d="M205.34,372.762c-.042.078-.424-.036-.878-.2s-.83-.323-.812-.406.436-.06.914.113S205.376,372.684,205.34,372.762Z" transform="translate(-87.64 -246.005)" fill="#455a64"/>
    <path id="Trazado_100410" data-name="Trazado 100410" d="M205.205,376.655c-.054-.072.215-.364.532-.723s.6-.657.651-.6-.072.436-.418.818S205.259,376.721,205.205,376.655Z" transform="translate(-88.264 -247.299)" fill="#455a64"/>
    <path id="Trazado_100411" data-name="Trazado 100411" d="M199.92,379.822c0-.084.317-.3.765-.484s.848-.275.89-.2-.3.293-.771.484S199.968,379.906,199.92,379.822Z" transform="translate(-86.138 -248.824)" fill="#455a64"/>
    <path id="Trazado_100412" data-name="Trazado 100412" d="M194.2,381.728c0-.084.329-.275.8-.436s.872-.221.9-.137-.335.275-.8.43S194.23,381.806,194.2,381.728Z" transform="translate(-83.835 -249.63)" fill="#455a64"/>
    <path id="Trazado_100413" data-name="Trazado 100413" d="M188.6,383.807c-.036-.078.311-.287.777-.472s.86-.263.89-.185-.317.293-.777.478S188.628,383.891,188.6,383.807Z" transform="translate(-81.579 -250.437)" fill="#455a64"/>
    <path id="Trazado_100414" data-name="Trazado 100414" d="M183.068,386.163c-.036-.078.3-.3.759-.5s.854-.293.884-.215-.3.3-.759.5A1.813,1.813,0,0,1,183.068,386.163Z" transform="translate(-79.352 -251.365)" fill="#455a64"/>
    <path id="Trazado_100415" data-name="Trazado 100415" d="M171.89,201.531s3.907-1.195,9.1-6.959,7.282-13.142,7.969-13.142,3.584-1.625,10.155,10.311,4.576,14.976,3.447,15.036-8.961-1.505-13.74-.6a51.743,51.743,0,0,0-10.753,3.859Z" transform="translate(-74.853 -169.201)" fill="#455a64"/>
    <path id="Trazado_100416" data-name="Trazado 100416" d="M158.248,220.865l1.547,2.479.693,1.105a3.376,3.376,0,0,0,4.5,1.165l8.292-3.584-5.8-10.95-8.172,5.125a3.375,3.375,0,0,0-1.061,4.654Z" transform="translate(-69.15 -181.169)" fill="#263238"/>
    <path id="Trazado_100417" data-name="Trazado 100417" d="M167.33,232.109l3.112,5.114,1.326-.478,9.4,6.571,2.1-5.054s-5.376-1.87-6.511-3.662,0-2.3,0-2.3l-2.67-2.64Z" transform="translate(-73.017 -188.65)" fill="#263238"/>
    <path id="Trazado_100418" data-name="Trazado 100418" d="M210.371,192.17c3.519,6.47,5.221,12.342,3.8,13.142s-5.424-3.841-8.961-10.311-5.221-12.342-3.8-13.142S206.846,185.695,210.371,192.17Z" transform="translate(-86.535 -169.368)" fill="#263238"/>
    <path id="Trazado_100419" data-name="Trazado 100419" d="M157.152,231.421l2.258-.9-1.631-2.6-1.649,1.2Z" transform="translate(-68.507 -187.949)" fill="#455a64"/>
    <path id="Trazado_100420" data-name="Trazado 100420" d="M175.582,231.2l-5.908,4.415-.884-1.458Z" transform="translate(-73.605 -189.27)" fill="#455a64"/>
    <path id="Trazado_100421" data-name="Trazado 100421" d="M158.757,227.92l1.631,2.6-.466.185-1.362-2.646Z" transform="translate(-69.486 -187.949)" fill="#455a64"/>
    <path id="Trazado_100422" data-name="Trazado 100422" d="M161.63,226.986a26.025,26.025,0,0,0,4.851-2.646,13.023,13.023,0,0,0-2.5,1.195,12.862,12.862,0,0,0-2.354,1.452Z" transform="translate(-70.722 -186.508)" fill="#455a64"/>
    <path id="Trazado_100423" data-name="Trazado 100423" d="M160.24,224.423a10.933,10.933,0,0,0,2.252-1.153,11.352,11.352,0,0,0,2.109-1.41A21.382,21.382,0,0,0,160.24,224.423Z" transform="translate(-70.162 -185.509)" fill="#455a64"/>
    <path id="Trazado_100424" data-name="Trazado 100424" d="M163.339,229.9a1.982,1.982,0,0,0,.711-.215l.747-.311c.275-.125.562-.293.866-.46a9.874,9.874,0,0,0,2.1-1.392,12.2,12.2,0,0,0-2.246,1.129c-.3.167-.6.346-.848.478s-.508.257-.711.364C163.566,229.706,163.321,229.856,163.339,229.9Z" transform="translate(-71.41 -187.788)" fill="#455a64"/>
    <path id="Trazado_100425" data-name="Trazado 100425" d="M206.24,197.024s3.3-2.389,5.532,2.127-1.338,5.562-1.338,5.562a31.135,31.135,0,0,1-4.194-7.688Z" transform="translate(-88.683 -175.255)" fill="#455a64"/>
    <path id="Trazado_100426" data-name="Trazado 100426" d="M199.41,188.6a4.4,4.4,0,0,0,.2.884c.155.562.37,1.374.669,2.39.179.49.382,1.021.6,1.595l.335.89c.06.149.114.3.173.466s.143.3.215.46l.932,1.953c.078.173.161.34.245.514s.185.335.281.5l.6,1.021.6,1.022c.1.161.191.335.3.49s.221.317.323.472l1.243,1.792c.1.137.191.281.293.412l.323.388.6.729,1.093,1.314c.723.753,1.32,1.338,1.732,1.75a4.741,4.741,0,0,0,.669.6,6.277,6.277,0,0,0-.6-.687l-1.661-1.792-1.033-1.368-.6-.735-.311-.388c-.1-.131-.191-.275-.287-.412l-1.195-1.792-.317-.466c-.114-.155-.2-.329-.3-.49l-.6-1.016c-.2-.34-.394-.681-.6-1.01-.09-.167-.2-.329-.281-.5s-.161-.34-.245-.508l-.938-1.93c-.072-.155-.155-.3-.215-.46s-.125-.311-.185-.46c-.119-.3-.233-.6-.346-.878l-.627-1.577c-.317-.974-.567-1.792-.753-2.336A6.087,6.087,0,0,0,199.41,188.6Z" transform="translate(-85.933 -172.118)" fill="#263238"/>
    <path id="Trazado_100427" data-name="Trazado 100427" d="M182.991,234.071a1.01,1.01,0,0,1,.7,1.225c-.257,1.016-.675,2.611-1.01,3.584a2.676,2.676,0,0,1-.448.884.836.836,0,0,1-1.523-.43,2.668,2.668,0,0,1,.09-1.039c.209-.95.6-2.389.932-3.53a1.01,1.01,0,0,1,1.246-.7l.014,0Z" transform="translate(-78.397 -190.409)" fill="#ffbe9d"/>
    <path id="Trazado_100428" data-name="Trazado 100428" d="M185.7,236.828a1.01,1.01,0,0,1,.7,1.225c-.257,1.016-.675,2.611-1.016,3.584a2.583,2.583,0,0,1-.448.884.914.914,0,0,1-.884.335.937.937,0,0,1-.633-.771,2.786,2.786,0,0,1,.084-1.039c.215-.944.6-2.389.932-3.53a1.022,1.022,0,0,1,1.266-.693Z" transform="translate(-79.488 -191.517)" fill="#ffbe9d"/>
    <path id="Trazado_100429" data-name="Trazado 100429" d="M188.512,238.5a.884.884,0,0,1,.6,1.063c-.221.878-.6,2.258-.878,3.1a2.287,2.287,0,0,1-.388.771.723.723,0,0,1-1.314-.376,2.31,2.31,0,0,1,.072-.9c.185-.818.52-2.049.806-3.059a.885.885,0,0,1,1.093-.6Z" transform="translate(-80.741 -192.193)" fill="#ffbe9d"/>
    <path id="Trazado_100430" data-name="Trazado 100430" d="M191.474,238.829a.884.884,0,0,1,.6,1.069c-.221.884-.6,2.27-.884,3.118a2.244,2.244,0,0,1-.388.771.723.723,0,0,1-1.32-.376,2.341,2.341,0,0,1,.072-.908c.185-.818.52-2.061.812-3.07a.884.884,0,0,1,1.1-.6h0Z" transform="translate(-81.928 -192.329)" fill="#ffbe9d"/>
    <path id="Trazado_100431" data-name="Trazado 100431" d="M183.6,241.144a6.19,6.19,0,0,1,.436-1.912,6.313,6.313,0,0,1,.741-1.822,6.088,6.088,0,0,1-.442,1.912A6.414,6.414,0,0,1,183.6,241.144Z" transform="translate(-79.568 -191.77)" fill="#eb996e"/>
    <path id="Trazado_100432" data-name="Trazado 100432" d="M189.23,243.405a24.511,24.511,0,0,1,1.117-3.746,8.319,8.319,0,0,1-1.117,3.752Z" transform="translate(-81.834 -192.676)" fill="#eb996e"/>
    <path id="Trazado_100433" data-name="Trazado 100433" d="M186.44,243.037a24.79,24.79,0,0,1,1.117-3.757A8.312,8.312,0,0,1,186.44,243.037Z" transform="translate(-80.711 -192.523)" fill="#eb996e"/>
    <path id="Trazado_100434" data-name="Trazado 100434" d="M229.708,161.01c.066.048-2.389,3.375-5.472,7.425s-5.651,7.294-5.717,7.24,2.389-3.375,5.466-7.425S229.636,160.956,229.708,161.01Z" transform="translate(-93.626 -161.009)" fill="#263238"/>
    <path id="Trazado_100435" data-name="Trazado 100435" d="M248.486,176.879c.036.078-5.113,2.545-11.505,5.508s-11.6,5.3-11.631,5.227,5.114-2.545,11.5-5.508S248.438,176.8,248.486,176.879Z" transform="translate(-96.377 -167.398)" fill="#263238"/>
    <path id="Trazado_100436" data-name="Trazado 100436" d="M249.048,208.827c0,.084-3.68-.2-8.2-.633s-8.178-.86-8.172-.944,3.68.2,8.2.633S249.06,208.744,249.048,208.827Z" transform="translate(-99.329 -179.621)" fill="#263238"/>
    <path id="Trazado_100437" data-name="Trazado 100437" d="M102.279,219.862l4.056,23.059a7.587,7.587,0,0,0,8.542,6.141h0a7.5,7.5,0,0,0,6.484-8.4c-.01-.076-.021-.152-.033-.227l-.657-3.967s5.675-1.541,5.084-7.24c-.287-2.748-1.338-8.363-2.354-13.417a10.878,10.878,0,0,0-12.413-8.5h0a10.609,10.609,0,0,0-8.781,12.167C102.23,219.607,102.253,219.735,102.279,219.862Z" transform="translate(-46.741 -179.593)" fill="#ffbe9d"/>
    <path id="Trazado_100438" data-name="Trazado 100438" d="M128,255.39a13.7,13.7,0,0,1-7.766-1.26s2.252,3.9,7.951,2.706Z" transform="translate(-54.053 -198.502)" fill="#eb996e"/>
    <path id="Trazado_100439" data-name="Trazado 100439" d="M134.606,227.639a.818.818,0,0,1-.7.908.789.789,0,0,1-.929-.617l0-.016a.818.818,0,0,1,.7-.914.789.789,0,0,1,.928.618Z" transform="translate(-59.182 -187.572)" fill="#263238"/>
    <path id="Trazado_100440" data-name="Trazado 100440" d="M133.782,225.3c-.09.119-.771-.269-1.655-.161s-1.487.6-1.595.514,0-.245.287-.478a2.354,2.354,0,0,1,1.26-.55,2.2,2.2,0,0,1,1.338.269C133.728,225.072,133.848,225.239,133.782,225.3Z" transform="translate(-58.185 -186.618)" fill="#263238"/>
    <path id="Trazado_100441" data-name="Trazado 100441" d="M120.635,229.323a.825.825,0,0,1-.7.914.794.794,0,0,1-.935-.623V229.6a.818.818,0,0,1,.7-.908.794.794,0,0,1,.936.622Z" transform="translate(-53.556 -188.253)" fill="#263238"/>
    <path id="Trazado_100442" data-name="Trazado 100442" d="M119.455,227.2c-.09.113-.765-.269-1.655-.167s-1.487.6-1.595.52.03-.245.293-.484a2.27,2.27,0,0,1,1.26-.544,2.238,2.238,0,0,1,1.332.263C119.389,226.98,119.5,227.2,119.455,227.2Z" transform="translate(-52.418 -187.38)" fill="#263238"/>
    <path id="Trazado_100443" data-name="Trazado 100443" d="M127.48,233.94a6.261,6.261,0,0,1,1.416-.418c.221-.048.43-.119.454-.275a1.149,1.149,0,0,0-.233-.645l-.866-1.625a31.459,31.459,0,0,1-2.025-4.277,30.138,30.138,0,0,1,2.389,4.11c.293.568.6,1.111.836,1.637a1.254,1.254,0,0,1,.221.86.563.563,0,0,1-.335.37,1.516,1.516,0,0,1-.376.1A6.008,6.008,0,0,1,127.48,233.94Z" transform="translate(-56.464 -187.457)" fill="#263238"/>
    <path id="Trazado_100444" data-name="Trazado 100444" d="M124.014,240.33c.143,0,.257.92,1.159,1.505s1.918.358,1.936.49-.2.209-.639.269a2.442,2.442,0,0,1-1.613-.352,2.078,2.078,0,0,1-.908-1.272C123.865,240.575,123.966,240.33,124.014,240.33Z" transform="translate(-55.537 -192.946)" fill="#263238"/>
    <path id="Trazado_100445" data-name="Trazado 100445" d="M118.689,222.483c-.06.245-.962.233-1.989.472s-1.834.6-2,.424c-.078-.1.042-.34.358-.6a3.639,3.639,0,0,1,3.035-.681C118.5,222.2,118.713,222.363,118.689,222.483Z" transform="translate(-51.819 -185.57)" fill="#263238"/>
    <path id="Trazado_100446" data-name="Trazado 100446" d="M133.159,221.974c-.131.215-.771.078-1.505.149s-1.344.287-1.511.1c-.072-.09,0-.3.251-.52a2.071,2.071,0,0,1,1.195-.466,2.14,2.14,0,0,1,1.249.263C133.105,221.676,133.213,221.867,133.159,221.974Z" transform="translate(-58.033 -185.253)" fill="#263238"/>
    <path id="Trazado_100447" data-name="Trazado 100447" d="M122.3,203.492a2.013,2.013,0,0,0-2.622.161,1.792,1.792,0,0,0-.508-2.389,3.084,3.084,0,0,0-2.611-.376,8.859,8.859,0,0,0-2.443,1.195.92.92,0,0,0-.4-.932,2.21,2.21,0,0,0-1.027-.323,7.83,7.83,0,0,0-4.307.968A26.846,26.846,0,0,0,104.4,204.5h0a19.028,19.028,0,0,0-3.644,3.895l-.048.042a6.373,6.373,0,0,0-1.428,4.134c.472,4.1,1.834,6.476,2.6,10.358a1.363,1.363,0,0,0,.293.723c.472.49,1.32.072,1.792-.442a7.336,7.336,0,0,0,1.517-4.618c.054-1.649-.185-3.292-.143-4.94v-.119a9.3,9.3,0,0,1,.119-1.255,4.1,4.1,0,0,1,3.035-2.987c2.389-.406,7.139,1.924,9.486,1.553s2.473-2.025,2.473-2.025l1.38,2.808a8.5,8.5,0,0,0,.221-3.507,3.986,3.986,0,0,0,1.195-2.049A2.635,2.635,0,0,0,122.3,203.492Z" transform="translate(-45.612 -177.01)" fill="#263238"/>
    <path id="Trazado_100448" data-name="Trazado 100448" d="M103.776,232.478c-.1-.03-4.1-.7-3.524,3.172s4.415,2.5,4.4,2.389S103.776,232.478,103.776,232.478Z" transform="translate(-45.986 -189.759)" fill="#ffbe9d"/>
    <path id="Trazado_100449" data-name="Trazado 100449" d="M103.942,237.658a.977.977,0,0,1-.167.125.71.71,0,0,1-.514.09,1.7,1.7,0,0,1-1.01-1.386,2.306,2.306,0,0,1,.048-1,.783.783,0,0,1,.442-.6.358.358,0,0,1,.43.125c.066.1.054.185.078.185s.072-.078,0-.233a.5.5,0,0,0-.191-.221.547.547,0,0,0-.394-.042.979.979,0,0,0-.6.7,2.307,2.307,0,0,0-.072,1.117,1.792,1.792,0,0,0,1.249,1.529.745.745,0,0,0,.6-.2C103.948,237.754,103.954,237.658,103.942,237.658Z" transform="translate(-46.696 -190.674)" fill="#eb996e"/>
    <path id="Trazado_100450" data-name="Trazado 100450" d="M84.688,279.472a.717.717,0,0,1,.341-.054,1.337,1.337,0,0,1,.884.442,1.924,1.924,0,0,1,.514,1.47,8.531,8.531,0,0,1-.454,2.007,2.735,2.735,0,0,0,.137,2.3c.424.741,1.29,1.308,1.643,2.342a2.754,2.754,0,0,1-.866,2.987,2.8,2.8,0,0,1-1.613.627,5.907,5.907,0,0,1-1.726-.281,3.128,3.128,0,0,0-1.613-.1,2.339,2.339,0,0,0-1.195.968,8.267,8.267,0,0,1-1.016,1.272,2.031,2.031,0,0,1-1.511.556,2.987,2.987,0,0,1-2.389-1.583,5.845,5.845,0,0,1-.6-2.437c-.042-.765,0-1.452,0-2.049a10.246,10.246,0,0,0-.131-1.523,7.765,7.765,0,0,0-.364-1.254,1.242,1.242,0,0,1,.167.3,3.966,3.966,0,0,1,.311.932,8.521,8.521,0,0,1,.191,1.541,19.383,19.383,0,0,0,.078,2.043,5.573,5.573,0,0,0,.6,2.324,2.753,2.753,0,0,0,2.168,1.422,1.726,1.726,0,0,0,1.3-.49A7.93,7.93,0,0,0,80.513,292a2.649,2.649,0,0,1,1.35-1.087,3.345,3.345,0,0,1,1.792.1,5.992,5.992,0,0,0,1.637.269,2.5,2.5,0,0,0,1.44-.556,2.467,2.467,0,0,0,.789-2.67c-.293-.914-1.135-1.493-1.6-2.3a2.422,2.422,0,0,1-.34-1.3,4.923,4.923,0,0,1,.215-1.195,8.629,8.629,0,0,0,.5-1.959,1.792,1.792,0,0,0-.43-1.38,1.339,1.339,0,0,0-.8-.454C84.808,279.454,84.688,279.49,84.688,279.472Z" transform="translate(-35.734 -208.683)" fill="#fafafa"/>
    <path id="Trazado_100451" data-name="Trazado 100451" d="M94.149,338.48a1.755,1.755,0,0,0,.179.37,1.56,1.56,0,0,0,.926.645,1.882,1.882,0,0,0,1.708-.358,3.584,3.584,0,0,0,1.141-2.091c.191-.89.155-1.906.329-2.987a4.786,4.786,0,0,1,.55-1.631,2.724,2.724,0,0,1,1.374-1.231,3.87,3.87,0,0,1,1.918-.173c.651.066,1.29.215,1.935.3a4.686,4.686,0,0,0,1.953-.1,4.468,4.468,0,0,0,1.744-.968,3.794,3.794,0,0,0,1.075-1.667,3.186,3.186,0,0,0-.036-1.906,3.28,3.28,0,0,0-2.6-2.312c-1.195-.131-2.27.448-3.4.472a3.226,3.226,0,0,1-1.577-.358,7.459,7.459,0,0,1-1.237-.794,7.553,7.553,0,0,0-2.091-1.278,2.15,2.15,0,0,0-1.792.12,1.626,1.626,0,0,0-.765.83,3.827,3.827,0,0,0-.1.4.936.936,0,0,1,.036-.418,1.636,1.636,0,0,1,.765-.92,2.3,2.3,0,0,1,.836-.287,2.543,2.543,0,0,1,1.039.113,7.483,7.483,0,0,1,2.174,1.266,4.25,4.25,0,0,0,2.67,1.069,8.269,8.269,0,0,0,1.631-.3,5.035,5.035,0,0,1,1.792-.191,3.548,3.548,0,0,1,2.849,2.5,3.415,3.415,0,0,1,.042,2.091,4.1,4.1,0,0,1-1.159,1.792,4.711,4.711,0,0,1-1.87,1.039,4.885,4.885,0,0,1-2.073.1c-.669-.09-1.308-.233-1.93-.3a3.611,3.611,0,0,0-1.792.149,2.389,2.389,0,0,0-1.243,1.1,4.713,4.713,0,0,0-.538,1.535c-.173,1.057-.155,2.085-.364,2.987a3.757,3.757,0,0,1-1.249,2.18,2,2,0,0,1-1.846.335,1.561,1.561,0,0,1-.95-.729A.872.872,0,0,1,94.149,338.48Z" transform="translate(-43.552 -225.881)" fill="#fafafa"/>
    <path id="Trazado_100452" data-name="Trazado 100452" d="M120.325,287.909a2.21,2.21,0,0,1,.412-.556,3.191,3.191,0,0,1,1.792-.9,3.065,3.065,0,0,1,2.855,1.135,3.285,3.285,0,0,1,.723,1.846,4.9,4.9,0,0,0,.454,2.079,1.613,1.613,0,0,0,.872.651,4.71,4.71,0,0,0,1.195.185,9.636,9.636,0,0,1,1.3.06,2.437,2.437,0,0,1,1.308.466,1.549,1.549,0,0,1,.573,1.344,2.49,2.49,0,0,1-.6,1.35,3.818,3.818,0,0,1-1.195.938c-.448.227-.92.412-1.38.627a4.852,4.852,0,0,0-1.272.783,2.469,2.469,0,0,0-.747,1.272,19.721,19.721,0,0,0-.072,3.226,4.182,4.182,0,0,1-.454,1.673,1.989,1.989,0,0,1-1.422,1.069,2.206,2.206,0,0,1-1.714-.6,5.22,5.22,0,0,1-1.141-1.392,14.742,14.742,0,0,0-.92-1.464,2.7,2.7,0,0,0-1.272-.992,2.286,2.286,0,0,0-1.565.1,9.287,9.287,0,0,0-1.458.777,8.285,8.285,0,0,1-1.481.771,4.583,4.583,0,0,1-1.643.275,5.173,5.173,0,0,1-2.987-1.051,4.241,4.241,0,0,1-1.637-2.527,2.927,2.927,0,0,1,.711-2.73,2.853,2.853,0,0,1,1.231-.633,10.156,10.156,0,0,1,1.284-.221,4.181,4.181,0,0,0,2.2-.747,4.376,4.376,0,0,0,1.195-1.792c.257-.639.424-1.272.645-1.852a5.42,5.42,0,0,1,.806-1.523,7.06,7.06,0,0,1,1.039-1,3.682,3.682,0,0,1,1.792-.866.832.832,0,0,1,.663.185,1.064,1.064,0,0,0-.657-.119,3.664,3.664,0,0,0-1.714.9,6.615,6.615,0,0,0-1,1,5.527,5.527,0,0,0-.759,1.487c-.209.6-.37,1.195-.6,1.864a4.516,4.516,0,0,1-1.195,1.87,4.322,4.322,0,0,1-2.312.812,4.351,4.351,0,0,0-2.389.812,2.658,2.658,0,0,0-.6,2.485,4.017,4.017,0,0,0,1.541,2.354,4.922,4.922,0,0,0,2.826.98,4.181,4.181,0,0,0,1.529-.257,8.238,8.238,0,0,0,1.434-.753,9.446,9.446,0,0,1,1.344-.771,2.581,2.581,0,0,1,1.792-.108,2.987,2.987,0,0,1,1.422,1.093,14.039,14.039,0,0,1,.944,1.5,5.176,5.176,0,0,0,1.069,1.308,1.87,1.87,0,0,0,1.47.5,1.643,1.643,0,0,0,1.195-.908,3.92,3.92,0,0,0,.418-1.541,17.259,17.259,0,0,1,.09-3.28,2.77,2.77,0,0,1,.836-1.416,4.989,4.989,0,0,1,1.35-.83c.472-.215.938-.394,1.374-.6a3.513,3.513,0,0,0,1.105-.866,2.229,2.229,0,0,0,.6-1.195,1.336,1.336,0,0,0-.1-.6,1.4,1.4,0,0,0-.382-.49,2.2,2.2,0,0,0-1.195-.412c-.424-.048-.854-.048-1.278-.072a4.864,4.864,0,0,1-1.248-.209,1.865,1.865,0,0,1-.98-.747,4.977,4.977,0,0,1-.466-2.174,3.129,3.129,0,0,0-.657-1.792,2.987,2.987,0,0,0-2.7-1.141,3.21,3.21,0,0,0-1.738.818A5.829,5.829,0,0,0,120.325,287.909Z" transform="translate(-49.435 -211.505)" fill="#fafafa"/>
    <path id="Trazado_100453" data-name="Trazado 100453" d="M107.914,268.769a2.079,2.079,0,0,1-1.243.6,3.884,3.884,0,0,1-1.517,0,2.653,2.653,0,0,1-1.631-.938,3.5,3.5,0,0,1-.6-1.792,4.779,4.779,0,0,1,.1-1.511,2.022,2.022,0,0,1,.639-1.195,5.376,5.376,0,0,0-.418,1.266,5.123,5.123,0,0,0-.042,1.44,3.459,3.459,0,0,0,.556,1.619,2.389,2.389,0,0,0,1.44.842,4.183,4.183,0,0,0,1.422.054A6.114,6.114,0,0,0,107.914,268.769Z" transform="translate(-47.078 -202.448)" fill="#fafafa"/>
    <path id="Trazado_100454" data-name="Trazado 100454" d="M145.683,269.321a.474.474,0,0,1-.042.161,1.639,1.639,0,0,1-.233.43,2.682,2.682,0,0,1-1.487.992,2.773,2.773,0,0,1-1.26,0,3.345,3.345,0,0,1-1.272-.681,4.091,4.091,0,0,0-1.254-.771,1.14,1.14,0,0,0-1.272.5,10.815,10.815,0,0,0-.735,1.458,2.987,2.987,0,0,1-1.057,1.195,2.82,2.82,0,0,1-3.916-.753c-.024-.035-.047-.071-.069-.107a1.191,1.191,0,0,1-.245-.6,4,4,0,0,0,.34.538,2.986,2.986,0,0,0,1.35,1.01,2.712,2.712,0,0,0,3.321-1.422,11.306,11.306,0,0,1,.753-1.5,1.613,1.613,0,0,1,.711-.6,1.4,1.4,0,0,1,.9-.036,4.275,4.275,0,0,1,1.356.836,3.117,3.117,0,0,0,1.153.657,2.59,2.59,0,0,0,1.153,0,2.66,2.66,0,0,0,1.44-.848A4.749,4.749,0,0,0,145.683,269.321Z" transform="translate(-59.13 -204.523)" fill="#fafafa"/>
    <path id="Trazado_100455" data-name="Trazado 100455" d="M158.857,298.553a3.171,3.171,0,0,1-.663-.43,13.575,13.575,0,0,1-1.631-1.422,7.792,7.792,0,0,1-.95-1.195,3.974,3.974,0,0,1-.6-1.649,3.222,3.222,0,0,1,.3-1.918,2.389,2.389,0,0,1,.675-.8,7.29,7.29,0,0,1,.878-.562,3.822,3.822,0,0,0,.795-.6,1.882,1.882,0,0,0,.46-.788,4.619,4.619,0,0,0,.06-1.792,8.975,8.975,0,0,1-.125-1.72,2.1,2.1,0,0,1,.556-1.428,3.172,3.172,0,0,1,2.013-.806.86.86,0,0,1,.741.275,1.412,1.412,0,0,0-.735-.155,3.176,3.176,0,0,0-1.864.842,1.888,1.888,0,0,0-.454,1.29,9.993,9.993,0,0,0,.149,1.667,4.7,4.7,0,0,1-.048,1.93,2.133,2.133,0,0,1-.532.92,3.828,3.828,0,0,1-.86.627,3.213,3.213,0,0,0-1.44,1.272,3.024,3.024,0,0,0-.293,1.744,4.779,4.779,0,0,0,1.422,2.694C157.979,297.866,158.893,298.505,158.857,298.553Z" transform="translate(-68.045 -210.303)" fill="#fafafa"/>
    <path id="Trazado_100456" data-name="Trazado 100456" d="M136.531,328.572a.816.816,0,0,1,.275,0,6.522,6.522,0,0,1,.8.048,7.724,7.724,0,0,1,2.832.824,5.156,5.156,0,0,1,2.676,3.387,3.584,3.584,0,0,1-.37,2.587A3.5,3.5,0,0,1,140.5,337.1a3.2,3.2,0,0,1-1.452-.078,1.971,1.971,0,0,0-1.243,0,2.389,2.389,0,0,0-.968.747,6.884,6.884,0,0,0-.639,1.01,4.007,4.007,0,0,1-1.559,1.792,2.947,2.947,0,0,1-2.049.245,2.58,2.58,0,0,1-1.428-.932,2.859,2.859,0,0,1-.55-1.159,2.456,2.456,0,0,1-.042-.806.921.921,0,0,1,.06-.275,4.291,4.291,0,0,0,.1,1.051,2.794,2.794,0,0,0,.568,1.081,2.39,2.39,0,0,0,1.314.794,2.748,2.748,0,0,0,1.882-.257,3.809,3.809,0,0,0,1.428-1.691,3.852,3.852,0,0,1,1.792-1.924,2.27,2.27,0,0,1,1.422,0,2.83,2.83,0,0,0,1.32.078,3.215,3.215,0,0,0,2.043-1.529,3.327,3.327,0,0,0,.352-2.389,4.982,4.982,0,0,0-2.5-3.256,8.144,8.144,0,0,0-2.736-.9A6.129,6.129,0,0,1,136.531,328.572Z" transform="translate(-58.21 -228.47)" fill="#fafafa"/>
    <path id="Trazado_100457" data-name="Trazado 100457" d="M118.122,359.809a4.058,4.058,0,0,0-.556-1.231,3.028,3.028,0,0,0-1.117-.9,2.389,2.389,0,0,0-3.082.824,2.987,2.987,0,0,0-.52,1.308,4.032,4.032,0,0,0,.131,1.344,1.1,1.1,0,0,1-.2-.329,2.419,2.419,0,0,1-.155-1.039,3.1,3.1,0,0,1,.5-1.481,2.575,2.575,0,0,1,3.447-.92,3.051,3.051,0,0,1,1.195,1.033,2.386,2.386,0,0,1,.382.974A1.075,1.075,0,0,1,118.122,359.809Z" transform="translate(-50.989 -239.945)" fill="#fafafa"/>
    <path id="Trazado_100458" data-name="Trazado 100458" d="M114.733,374.32a3.433,3.433,0,0,0-.269-.735,3.135,3.135,0,0,0-1.434-1.47,2.987,2.987,0,0,0-2.909.221,4.571,4.571,0,0,0-1.195,1.362,4.326,4.326,0,0,1-.681.777,1.636,1.636,0,0,1-1.045.388,2.6,2.6,0,0,1-1.792-1.081,5.967,5.967,0,0,0-1.266-1.32,2.236,2.236,0,0,0-1.547-.281,3.144,3.144,0,0,0-1.308.544,5.325,5.325,0,0,0-1.374,1.583,5.407,5.407,0,0,1-.412.675,2.739,2.739,0,0,1,.3-.729,5.008,5.008,0,0,1,1.35-1.7,3.192,3.192,0,0,1,1.4-.6,2.481,2.481,0,0,1,1.744.287,6.1,6.1,0,0,1,1.344,1.368,2.33,2.33,0,0,0,1.565.968,1.967,1.967,0,0,0,1.47-1.033,4.927,4.927,0,0,1,1.3-1.422,3.095,3.095,0,0,1,4.618,1.44,2.453,2.453,0,0,1,.149.6C114.769,374.248,114.769,374.32,114.733,374.32Z" transform="translate(-45.707 -245.795)" fill="#fafafa"/>
    <path id="Trazado_100459" data-name="Trazado 100459" d="M127.369,339.1a6.842,6.842,0,0,0-1.72-.759,5.42,5.42,0,0,0-2.007-.108,4.848,4.848,0,0,0-2.27.884,4.182,4.182,0,0,0-1.434,1.941,4.3,4.3,0,0,0-.215,1.983,5.633,5.633,0,0,0,.633,1.756,1.852,1.852,0,0,1-.335-.4,3.621,3.621,0,0,1-.52-1.326,4.354,4.354,0,0,1,1.685-4.182,4.929,4.929,0,0,1,2.389-.914,5.191,5.191,0,0,1,2.1.179,4.088,4.088,0,0,1,1.278.6C127.256,338.967,127.381,339.086,127.369,339.1Z" transform="translate(-53.737 -232.245)" fill="#fafafa"/>
  </g>
</svg>
