<svg xmlns="http://www.w3.org/2000/svg" width="258.994" height="296.116" viewBox="0 0 258.994 296.116">
  <g id="Grupo_1099984" data-name="Grupo 1099984" transform="translate(-349.005 -2442.434)">
    <g id="Grupo_1099983" data-name="Grupo 1099983">
      <g id="Grupo_1099982" data-name="Grupo 1099982">
        <g id="Grupo_1099981" data-name="Grupo 1099981">
          <g id="Grupo_1099980" data-name="Grupo 1099980">
            <path id="Trazado_129671" data-name="Trazado 129671" d="M-3830.263-10150h20.648l-10.324,10.326Z" transform="translate(4292.094 12878.225)" fill="#7d6eb2"/>
            <g id="Grupo_1099972" data-name="Grupo 1099972">
              <g id="Grupo_1099971" data-name="Grupo 1099971">
                <g id="Grupo_1099970" data-name="Grupo 1099970">
                  <g id="Grupo_1099969" data-name="Grupo 1099969">
                    <g id="Grupo_1099968" data-name="Grupo 1099968">
                      <g id="Grupo_1099967" data-name="Grupo 1099967">
                        <rect id="Rect치ngulo_30771" data-name="Rect치ngulo 30771" width="224.716" height="212.655" rx="21.262" transform="translate(366.779 2462.245)" fill="#7d6eb2"/>
                        <path id="Trazado_129672" data-name="Trazado 129672" d="M-3698.2-10600.211h-104.929v4.445H-3698.2a19.594,19.594,0,0,1,19.573,19.572v200.3a19.6,19.6,0,0,1-19.573,19.574h-104.929v4.445H-3698.2a24.045,24.045,0,0,0,24.016-24.02v-200.3A24.043,24.043,0,0,0-3698.2-10600.211Z" transform="translate(4282.185 13042.645)" fill="#7d6eb2"/>
                        <path id="Trazado_129673" data-name="Trazado 129673" d="M-3877.147-10351.871h-7.664a2.224,2.224,0,0,1-2.222-2.225,2.22,2.22,0,0,1,2.222-2.221h7.664a2.221,2.221,0,0,1,2.222,2.221A2.225,2.225,0,0,1-3877.147-10351.871Zm-15.328,0h-7.665a2.225,2.225,0,0,1-2.222-2.225,2.221,2.221,0,0,1,2.222-2.221h7.665a2.222,2.222,0,0,1,2.222,2.221A2.225,2.225,0,0,1-3892.476-10351.871Zm-15.329,0h-7.664a2.224,2.224,0,0,1-2.222-2.225,2.221,2.221,0,0,1,2.222-2.221h7.664a2.221,2.221,0,0,1,2.222,2.221A2.225,2.225,0,0,1-3907.8-10351.871Zm-15.329,0h-7.664a2.225,2.225,0,0,1-2.222-2.225,2.222,2.222,0,0,1,2.222-2.221h7.664a2.221,2.221,0,0,1,2.222,2.221A2.224,2.224,0,0,1-3923.133-10351.871Zm-15.328,0h-7.665a2.224,2.224,0,0,1-2.222-2.225,2.221,2.221,0,0,1,2.222-2.221h7.665a2.221,2.221,0,0,1,2.222,2.221A2.225,2.225,0,0,1-3938.461-10351.871Zm-15.329,0h-7.664a2.225,2.225,0,0,1-2.222-2.225,2.221,2.221,0,0,1,2.222-2.221h7.664a2.221,2.221,0,0,1,2.222,2.221A2.224,2.224,0,0,1-3953.79-10351.871Zm-15.329,0h-7.664a2.224,2.224,0,0,1-2.222-2.225,2.221,2.221,0,0,1,2.222-2.221h7.664a2.221,2.221,0,0,1,2.222,2.221A2.224,2.224,0,0,1-3969.118-10351.871Zm-15.327-.008h-.047a23.763,23.763,0,0,1-8.244-1.654,2.223,2.223,0,0,1-1.251-2.883,2.221,2.221,0,0,1,2.882-1.25,19.439,19.439,0,0,0,6.707,1.346,2.221,2.221,0,0,1,2.174,2.268A2.221,2.221,0,0,1-3984.445-10351.879Zm-13.972-5.492a2.215,2.215,0,0,1-1.474-.559,24.15,24.15,0,0,1-5.22-6.572,2.223,2.223,0,0,1,.893-3.014,2.223,2.223,0,0,1,3.012.895,19.729,19.729,0,0,0,4.264,5.365,2.222,2.222,0,0,1,.188,3.137A2.213,2.213,0,0,1-3998.417-10357.371Zm-7.144-13.2a2.22,2.22,0,0,1-2.2-1.906,23.971,23.971,0,0,1-.243-3.41v-4.559a2.221,2.221,0,0,1,2.222-2.221,2.221,2.221,0,0,1,2.221,2.221v4.559a19.611,19.611,0,0,0,.2,2.779,2.222,2.222,0,0,1-1.883,2.514A2.209,2.209,0,0,1-4005.561-10370.574Zm-.217-15.316a2.222,2.222,0,0,1-2.222-2.223v-7.664a2.221,2.221,0,0,1,2.222-2.221,2.221,2.221,0,0,1,2.221,2.221v7.664A2.221,2.221,0,0,1-4005.778-10385.891Zm0-15.33a2.222,2.222,0,0,1-2.222-2.223v-7.662a2.222,2.222,0,0,1,2.222-2.223,2.221,2.221,0,0,1,2.221,2.223v7.662A2.221,2.221,0,0,1-4005.778-10401.221Zm0-15.328a2.221,2.221,0,0,1-2.222-2.221v-7.666a2.221,2.221,0,0,1,2.222-2.221,2.221,2.221,0,0,1,2.221,2.221v7.666A2.221,2.221,0,0,1-4005.778-10416.549Zm0-15.328a2.222,2.222,0,0,1-2.222-2.223v-7.664a2.221,2.221,0,0,1,2.222-2.221,2.221,2.221,0,0,1,2.221,2.221v7.664A2.221,2.221,0,0,1-4005.778-10431.877Zm0-15.328a2.222,2.222,0,0,1-2.222-2.223v-7.666a2.222,2.222,0,0,1,2.222-2.221,2.222,2.222,0,0,1,2.221,2.221v7.666A2.221,2.221,0,0,1-4005.778-10447.205Zm0-15.33a2.221,2.221,0,0,1-2.222-2.221v-7.664a2.223,2.223,0,0,1,2.222-2.223,2.222,2.222,0,0,1,2.221,2.223v7.664A2.221,2.221,0,0,1-4005.778-10462.535Zm0-15.328a2.221,2.221,0,0,1-2.222-2.221v-7.664a2.223,2.223,0,0,1,2.222-2.223,2.222,2.222,0,0,1,2.221,2.223v7.664A2.221,2.221,0,0,1-4005.778-10477.863Zm0-15.328a2.221,2.221,0,0,1-2.222-2.221v-7.666a2.221,2.221,0,0,1,2.222-2.221,2.221,2.221,0,0,1,2.221,2.221v7.666A2.221,2.221,0,0,1-4005.778-10493.191Zm0-15.328a2.223,2.223,0,0,1-2.222-2.223v-7.662a2.222,2.222,0,0,1,2.222-2.223,2.221,2.221,0,0,1,2.221,2.223v7.662A2.222,2.222,0,0,1-4005.778-10508.52Zm0-15.328a2.223,2.223,0,0,1-2.222-2.223v-7.664a2.221,2.221,0,0,1,2.222-2.221,2.221,2.221,0,0,1,2.221,2.221v7.664A2.222,2.222,0,0,1-4005.778-10523.848Zm0-15.33a2.221,2.221,0,0,1-2.222-2.221v-7.664a2.222,2.222,0,0,1,2.222-2.223,2.221,2.221,0,0,1,2.221,2.223v7.664A2.221,2.221,0,0,1-4005.778-10539.178Zm0-15.328a2.221,2.221,0,0,1-2.222-2.221v-7.664a2.223,2.223,0,0,1,2.222-2.223,2.222,2.222,0,0,1,2.221,2.223v7.664A2.221,2.221,0,0,1-4005.778-10554.506Zm0-15.328a2.222,2.222,0,0,1-2.222-2.223v-4.137a24.047,24.047,0,0,1,.313-3.869,2.224,2.224,0,0,1,2.551-1.834,2.222,2.222,0,0,1,1.834,2.551,19.61,19.61,0,0,0-.255,3.152v4.137A2.221,2.221,0,0,1-4005.778-10569.834Zm2.823-14.834a2.207,2.207,0,0,1-1.1-.291,2.223,2.223,0,0,1-.835-3.029,24.193,24.193,0,0,1,5.348-6.471,2.224,2.224,0,0,1,3.132.248,2.223,2.223,0,0,1-.247,3.133,19.728,19.728,0,0,0-4.368,5.283A2.223,2.223,0,0,1-4002.955-10584.668Zm11.427-9.744a2.223,2.223,0,0,1-2.083-1.447,2.22,2.22,0,0,1,1.308-2.855,23.816,23.816,0,0,1,8.271-1.5,2.228,2.228,0,0,1,2.226,2.219,2.221,2.221,0,0,1-2.217,2.227,19.359,19.359,0,0,0-6.73,1.215A2.242,2.242,0,0,1-3991.528-10594.412Zm114.8-1.354h-7.664a2.222,2.222,0,0,1-2.222-2.221,2.223,2.223,0,0,1,2.222-2.225h7.664a2.223,2.223,0,0,1,2.222,2.225A2.222,2.222,0,0,1-3876.728-10595.766Zm-15.328,0h-7.665a2.223,2.223,0,0,1-2.222-2.221,2.224,2.224,0,0,1,2.222-2.225h7.665a2.223,2.223,0,0,1,2.222,2.225A2.223,2.223,0,0,1-3892.056-10595.766Zm-15.329,0h-7.664a2.222,2.222,0,0,1-2.222-2.221,2.223,2.223,0,0,1,2.222-2.225h7.664a2.223,2.223,0,0,1,2.222,2.225A2.222,2.222,0,0,1-3907.385-10595.766Zm-15.328,0h-7.664a2.222,2.222,0,0,1-2.222-2.221,2.223,2.223,0,0,1,2.222-2.225h7.664a2.223,2.223,0,0,1,2.221,2.225A2.222,2.222,0,0,1-3922.713-10595.766Zm-15.329,0h-7.665a2.222,2.222,0,0,1-2.221-2.221,2.223,2.223,0,0,1,2.221-2.225h7.665a2.223,2.223,0,0,1,2.222,2.225A2.223,2.223,0,0,1-3938.042-10595.766Zm-15.328,0h-7.665a2.222,2.222,0,0,1-2.222-2.221,2.223,2.223,0,0,1,2.222-2.225h7.665a2.223,2.223,0,0,1,2.222,2.225A2.222,2.222,0,0,1-3953.37-10595.766Zm-15.329,0h-7.664a2.222,2.222,0,0,1-2.222-2.221,2.223,2.223,0,0,1,2.222-2.225h7.664a2.223,2.223,0,0,1,2.222,2.225A2.222,2.222,0,0,1-3968.7-10595.766Z" transform="translate(4357.005 13042.645)" fill="#7d6eb2"/>
                        <rect id="Rect치ngulo_30772" data-name="Rect치ngulo 30772" width="4.444" height="36.818" transform="translate(469.933 2690.771)" fill="#7d6eb2"/>
                        <g id="Grupo_55884" data-name="Grupo 55884" transform="translate(450.531 2503.548)">
                          <g id="Grupo_55883" data-name="Grupo 55883">
                            <path id="Trazado_129674" data-name="Trazado 129674" d="M-3796.24-10493.543a1.638,1.638,0,0,0,1.638-1.638v-5.171a3.584,3.584,0,0,0-3.582-3.581h-34.667a1.643,1.643,0,0,0-1.158.478l-13.575,13.575a1.636,1.636,0,0,0-.479,1.16v49.092a3.588,3.588,0,0,0,3.584,3.584h46.3a3.587,3.587,0,0,0,3.582-3.584v-25.021a1.64,1.64,0,0,0-1.638-1.64,1.64,1.64,0,0,0-1.638,1.64v25.021a.305.305,0,0,1-.3.3h-46.3a.306.306,0,0,1-.307-.3v-47.454h9.993a3.586,3.586,0,0,0,3.582-3.584v-9.992h33.028a.306.306,0,0,1,.3.307v5.171A1.638,1.638,0,0,0-3796.24-10493.543Zm-38.248,2.877a.3.3,0,0,1-.3.307h-7.674l7.979-7.981Z" transform="translate(3848.063 10503.933)" fill="#fff"/>
                          </g>
                        </g>
                        <g id="Grupo_55886" data-name="Grupo 55886" transform="translate(461.709 2513.311)">
                          <g id="Grupo_55885" data-name="Grupo 55885">
                            <path id="Trazado_129675" data-name="Trazado 129675" d="M-3777.2-10485.008l-1.928-1.926a5.553,5.553,0,0,0-7.842,0l-15.3,15.3h-26.547a1.639,1.639,0,0,0-1.638,1.639,1.637,1.637,0,0,0,1.638,1.639h23.27l-9.863,9.863h-13.407a1.639,1.639,0,0,0-1.638,1.639,1.639,1.639,0,0,0,1.638,1.639h10.13l-.027.026a1.64,1.64,0,0,0-.42.722l-2.531,9.115h-7.152a1.638,1.638,0,0,0-1.638,1.637,1.639,1.639,0,0,0,1.638,1.641h8.4s.359-.04.412-.055l10.342-2.87a1.63,1.63,0,0,0,.72-.421l31.75-31.747A5.555,5.555,0,0,0-3777.2-10485.008Zm-40.87,38.942,1.337-4.817,3.479,3.481Zm7.962-2.829-5.134-5.132,26.208-26.21,5.135,5.134Zm30.59-30.589-2.065,2.065-5.134-5.134,2.065-2.066a2.272,2.272,0,0,1,3.206,0l1.928,1.931A2.267,2.267,0,0,1-3779.513-10479.483Z" transform="translate(3830.455 10488.555)" fill="#fff"/>
                          </g>
                        </g>
                        <path id="Trazado_129676" data-name="Trazado 129676" d="M-3857.993-10348.246a9.111,9.111,0,0,1-.787,3.907,5.927,5.927,0,0,1-2.254,2.591,6.233,6.233,0,0,1-3.363.913,6.284,6.284,0,0,1-3.348-.9,5.989,5.989,0,0,1-2.28-2.576,8.845,8.845,0,0,1-.819-3.851v-.746a9.078,9.078,0,0,1,.8-3.923,5.983,5.983,0,0,1,2.271-2.6,6.235,6.235,0,0,1,3.353-.906,6.235,6.235,0,0,1,3.353.906,5.976,5.976,0,0,1,2.27,2.6,9.046,9.046,0,0,1,.8,3.912Zm-3.15-.684a6.354,6.354,0,0,0-.85-3.607,2.771,2.771,0,0,0-2.426-1.234,2.769,2.769,0,0,0-2.415,1.219,6.269,6.269,0,0,0-.86,3.57v.736a6.424,6.424,0,0,0,.85,3.585,2.758,2.758,0,0,0,2.446,1.275,2.737,2.737,0,0,0,2.4-1.229,6.391,6.391,0,0,0,.85-3.58Z" transform="translate(4306.914 12953.58)" fill="#fff"/>
                        <path id="Trazado_129677" data-name="Trazado 129677" d="M-3837.244-10346.906a6.789,6.789,0,0,1-1.15,4.2,3.81,3.81,0,0,1-3.213,1.509,3.5,3.5,0,0,1-2.913-1.4l-.134,1.19h-2.695v-15.919h3v5.711a3.411,3.411,0,0,1,2.726-1.214,3.84,3.84,0,0,1,3.217,1.509,6.8,6.8,0,0,1,1.167,4.244Zm-3-.217a4.457,4.457,0,0,0-.54-2.481,1.82,1.82,0,0,0-1.606-.783,1.974,1.974,0,0,0-1.969,1.171v4.426a2,2,0,0,0,1.989,1.183,1.849,1.849,0,0,0,1.908-1.431A7.383,7.383,0,0,0-3840.239-10347.123Z" transform="translate(4298.333 12953.938)" fill="#fff"/>
                        <path id="Trazado_129678" data-name="Trazado 129678" d="M-3826.58-10352.466v11.826a4.007,4.007,0,0,1-.984,2.885,3.746,3.746,0,0,1-2.84,1.033,6.06,6.06,0,0,1-1.482-.178v-2.373a5.584,5.584,0,0,0,.943.093q1.358,0,1.358-1.441v-11.845Zm-3.244-2.9a1.475,1.475,0,0,1,.451-1.109,1.694,1.694,0,0,1,1.228-.436,1.693,1.693,0,0,1,1.228.436,1.474,1.474,0,0,1,.451,1.109,1.471,1.471,0,0,1-.461,1.119,1.707,1.707,0,0,1-1.218.435,1.7,1.7,0,0,1-1.217-.435A1.469,1.469,0,0,1-3829.824-10355.368Z" transform="translate(4292.687 12953.79)" fill="#fff"/>
                        <path id="Trazado_129679" data-name="Trazado 129679" d="M-3814.908-10338.6a5.5,5.5,0,0,1-4.016-1.516,5.371,5.371,0,0,1-1.55-4.03v-.291a6.772,6.772,0,0,1,.653-3.021,4.782,4.782,0,0,1,1.85-2.053,5.189,5.189,0,0,1,2.731-.72,4.653,4.653,0,0,1,3.623,1.45,5.9,5.9,0,0,1,1.322,4.115v1.224h-7.141a2.785,2.785,0,0,0,.876,1.763,2.653,2.653,0,0,0,1.85.662,3.232,3.232,0,0,0,2.706-1.255l1.472,1.649a4.5,4.5,0,0,1-1.824,1.487A6,6,0,0,1-3814.908-10338.6Zm-.342-9.214a1.865,1.865,0,0,0-1.445.6,3.118,3.118,0,0,0-.71,1.726h4.167v-.236a2.23,2.23,0,0,0-.539-1.547A1.929,1.929,0,0,0-3815.251-10347.818Z" transform="translate(4288.519 12951.349)" fill="#fff"/>
                        <path id="Trazado_129680" data-name="Trazado 129680" d="M-3798.778-10354.252v2.758h1.918v2.2h-1.918v5.6a1.337,1.337,0,0,0,.239.892,1.2,1.2,0,0,0,.912.27,4.809,4.809,0,0,0,.881-.073v2.271a6.228,6.228,0,0,1-1.813.27q-3.151,0-3.213-3.183v-6.043h-1.637v-2.2h1.637v-2.758Z" transform="translate(4282.287 12952.818)" fill="#fff"/>
                        <path id="Trazado_129681" data-name="Trazado 129681" d="M-3790.5-10355.368a1.474,1.474,0,0,1,.451-1.109,1.694,1.694,0,0,1,1.228-.436,1.7,1.7,0,0,1,1.223.436,1.466,1.466,0,0,1,.456,1.109,1.469,1.469,0,0,1-.461,1.119,1.7,1.7,0,0,1-1.218.435,1.707,1.707,0,0,1-1.218-.435A1.472,1.472,0,0,1-3790.5-10355.368Zm3.182,14.115h-3.006v-11.213h3.006Z" transform="translate(4277.57 12953.79)" fill="#fff"/>
                        <path id="Trazado_129682" data-name="Trazado 129682" d="M-3777.984-10342.353l2.083-7.557h3.13l-3.784,11.215h-2.86l-3.783-11.215h3.13Z" transform="translate(4274.905 12951.232)" fill="#fff"/>
                        <path id="Trazado_129683" data-name="Trazado 129683" d="M-3765.678-10344.524a6.655,6.655,0,0,1,.642-2.975,4.7,4.7,0,0,1,1.851-2.021,5.388,5.388,0,0,1,2.8-.715,5.109,5.109,0,0,1,3.705,1.388,5.574,5.574,0,0,1,1.6,3.773l.021.767a5.871,5.871,0,0,1-1.441,4.143,5.011,5.011,0,0,1-3.866,1.56,5.029,5.029,0,0,1-3.87-1.556,5.962,5.962,0,0,1-1.446-4.229Zm3,.212a4.193,4.193,0,0,0,.6,2.445,1.986,1.986,0,0,0,1.721.847,1.988,1.988,0,0,0,1.7-.836,4.585,4.585,0,0,0,.612-2.674,4.145,4.145,0,0,0-.612-2.428,1.986,1.986,0,0,0-1.72-.86,1.952,1.952,0,0,0-1.7.854A4.668,4.668,0,0,0-3762.683-10344.312Z" transform="translate(4268.507 12951.349)" fill="#fff"/>
                        <path id="Trazado_129684" data-name="Trazado 129684" d="M-3740.29-10341.913a.968.968,0,0,0-.544-.865,6.148,6.148,0,0,0-1.747-.564q-4-.841-4-3.4a3.078,3.078,0,0,1,1.239-2.493,5,5,0,0,1,3.24-1,5.368,5.368,0,0,1,3.415,1.006,3.165,3.165,0,0,1,1.28,2.611h-2.995a1.449,1.449,0,0,0-.415-1.062,1.756,1.756,0,0,0-1.3-.42,1.8,1.8,0,0,0-1.172.342,1.081,1.081,0,0,0-.415.871.922.922,0,0,0,.472.8,4.846,4.846,0,0,0,1.591.528,13,13,0,0,1,1.886.5,3.1,3.1,0,0,1,2.373,3.017,2.929,2.929,0,0,1-1.317,2.484,5.678,5.678,0,0,1-3.4.948,5.947,5.947,0,0,1-2.5-.5,4.212,4.212,0,0,1-1.715-1.38,3.2,3.2,0,0,1-.622-1.891h2.84a1.565,1.565,0,0,0,.59,1.224,2.346,2.346,0,0,0,1.472.425,2.168,2.168,0,0,0,1.3-.328A1.017,1.017,0,0,0-3740.29-10341.913Z" transform="translate(4261.661 12951.349)" fill="#fff"/>
                        <path id="Trazado_129685" data-name="Trazado 129685" d="M-3852.677-10314.126v2.759h1.918v2.2h-1.918v5.6a1.336,1.336,0,0,0,.239.892,1.2,1.2,0,0,0,.912.269,4.721,4.721,0,0,0,.88-.073v2.271a6.163,6.163,0,0,1-1.813.27q-3.151,0-3.212-3.182v-6.043h-1.638v-2.2h1.638v-2.759Z" transform="translate(4301.971 12938.164)" fill="#fff"/>
                        <path id="Trazado_129686" data-name="Trazado 129686" d="M-3838.119-10301.274a3.292,3.292,0,0,1-.3-1,3.627,3.627,0,0,1-2.83,1.212,3.971,3.971,0,0,1-2.731-.954,3.06,3.06,0,0,1-1.083-2.4,3.167,3.167,0,0,1,1.321-2.736,6.52,6.52,0,0,1,3.819-.964h1.378v-.642a1.852,1.852,0,0,0-.4-1.246,1.57,1.57,0,0,0-1.259-.465,1.786,1.786,0,0,0-1.186.362,1.233,1.233,0,0,0-.431,1h-2.995a3.01,3.01,0,0,1,.6-1.8,3.97,3.97,0,0,1,1.7-1.3,6.177,6.177,0,0,1,2.467-.474,4.9,4.9,0,0,1,3.291,1.043,3.645,3.645,0,0,1,1.218,2.929v4.861a5.355,5.355,0,0,0,.446,2.415v.175Zm-2.477-2.083a2.572,2.572,0,0,0,1.222-.295,1.938,1.938,0,0,0,.83-.793v-1.928h-1.12q-2.249,0-2.394,1.554l-.01.177a1.194,1.194,0,0,0,.394.922A1.526,1.526,0,0,0-3840.6-10303.357Zm1.14-13.836h3.265l-2.871,3.211h-2.436Z" transform="translate(4297.499 12939.282)" fill="#fff"/>
                        <path id="Trazado_129687" data-name="Trazado 129687" d="M-3822.038-10300.895a1.964,1.964,0,0,0,1.348-.455,1.6,1.6,0,0,0,.539-1.212h2.809a3.847,3.847,0,0,1-.622,2.088,4.1,4.1,0,0,1-1.674,1.471,5.221,5.221,0,0,1-2.348.524,4.864,4.864,0,0,1-3.793-1.53,6.041,6.041,0,0,1-1.389-4.222v-.2a5.984,5.984,0,0,1,1.378-4.135,4.812,4.812,0,0,1,3.783-1.544,4.727,4.727,0,0,1,3.374,1.2,4.244,4.244,0,0,1,1.291,3.188h-2.809a2.064,2.064,0,0,0-.539-1.423,1.8,1.8,0,0,0-1.368-.546,1.8,1.8,0,0,0-1.581.762,4.428,4.428,0,0,0-.533,2.477v.312a4.473,4.473,0,0,0,.528,2.49A1.825,1.825,0,0,0-3822.038-10300.895Z" transform="translate(4290.963 12936.696)" fill="#fff"/>
                        <path id="Trazado_129688" data-name="Trazado 129688" d="M-3806.012-10314.126v2.759h1.917v2.2h-1.917v5.6a1.34,1.34,0,0,0,.238.892,1.2,1.2,0,0,0,.912.269,4.732,4.732,0,0,0,.881-.073v2.271a6.161,6.161,0,0,1-1.813.27q-3.152,0-3.213-3.182v-6.043h-1.638v-2.2h1.638v-2.759Z" transform="translate(4284.929 12938.164)" fill="#fff"/>
                        <path id="Trazado_129689" data-name="Trazado 129689" d="M-3797.729-10315.24a1.474,1.474,0,0,1,.45-1.109,1.69,1.69,0,0,1,1.229-.436,1.693,1.693,0,0,1,1.222.436,1.465,1.465,0,0,1,.457,1.109,1.471,1.471,0,0,1-.461,1.118,1.7,1.7,0,0,1-1.218.436,1.7,1.7,0,0,1-1.218-.436A1.471,1.471,0,0,1-3797.729-10315.24Zm3.182,14.114h-3.006v-11.212h3.006Z" transform="translate(4280.212 12939.133)" fill="#fff"/>
                        <path id="Trazado_129690" data-name="Trazado 129690" d="M-3784.435-10300.895a1.96,1.96,0,0,0,1.347-.455,1.6,1.6,0,0,0,.539-1.212h2.809a3.84,3.84,0,0,1-.622,2.088,4.089,4.089,0,0,1-1.675,1.471,5.213,5.213,0,0,1-2.347.524,4.866,4.866,0,0,1-3.793-1.53,6.045,6.045,0,0,1-1.388-4.222v-.2a5.982,5.982,0,0,1,1.378-4.135,4.812,4.812,0,0,1,3.783-1.544,4.726,4.726,0,0,1,3.374,1.2,4.245,4.245,0,0,1,1.291,3.188h-2.809a2.061,2.061,0,0,0-.539-1.423,1.794,1.794,0,0,0-1.368-.546,1.8,1.8,0,0,0-1.581.762,4.421,4.421,0,0,0-.534,2.477v.312a4.472,4.472,0,0,0,.529,2.49A1.823,1.823,0,0,0-3784.435-10300.895Z" transform="translate(4277.23 12936.696)" fill="#fff"/>
                        <path id="Trazado_129691" data-name="Trazado 129691" d="M-3772.127-10304.4a6.652,6.652,0,0,1,.643-2.976,4.708,4.708,0,0,1,1.85-2.021,5.4,5.4,0,0,1,2.8-.715,5.111,5.111,0,0,1,3.705,1.389,5.575,5.575,0,0,1,1.6,3.773l.021.767a5.859,5.859,0,0,1-1.44,4.14,5,5,0,0,1-3.866,1.561,5.03,5.03,0,0,1-3.871-1.555,5.962,5.962,0,0,1-1.446-4.229Zm3,.212a4.193,4.193,0,0,0,.6,2.445,1.98,1.98,0,0,0,1.721.845,1.987,1.987,0,0,0,1.7-.835,4.584,4.584,0,0,0,.612-2.673,4.149,4.149,0,0,0-.612-2.429,1.987,1.987,0,0,0-1.72-.86,1.954,1.954,0,0,0-1.7.854A4.669,4.669,0,0,0-3769.132-10304.185Z" transform="translate(4270.862 12936.696)" fill="#fff"/>
                        <path id="Trazado_129692" data-name="Trazado 129692" d="M-3746.74-10301.785a.968.968,0,0,0-.544-.865,6.163,6.163,0,0,0-1.747-.564q-4-.841-4-3.4a3.08,3.08,0,0,1,1.238-2.492,4.989,4.989,0,0,1,3.239-1,5.377,5.377,0,0,1,3.415,1,3.169,3.169,0,0,1,1.281,2.612h-3a1.45,1.45,0,0,0-.415-1.062,1.751,1.751,0,0,0-1.3-.42,1.794,1.794,0,0,0-1.171.341,1.08,1.08,0,0,0-.415.871.922.922,0,0,0,.472.8,4.859,4.859,0,0,0,1.591.528,12.732,12.732,0,0,1,1.886.5,3.1,3.1,0,0,1,2.374,3.016,2.925,2.925,0,0,1-1.317,2.482,5.671,5.671,0,0,1-3.4.948,5.95,5.95,0,0,1-2.5-.5,4.217,4.217,0,0,1-1.715-1.379,3.2,3.2,0,0,1-.621-1.892h2.84a1.567,1.567,0,0,0,.591,1.224,2.345,2.345,0,0,0,1.472.425,2.162,2.162,0,0,0,1.3-.328A1.015,1.015,0,0,0-3746.74-10301.785Z" transform="translate(4264.016 12936.696)" fill="#fff"/>
                      </g>
                    </g>
                  </g>
                </g>
              </g>
            </g>
          </g>
        </g>
      </g>
    </g>
  </g>
</svg>
