<svg xmlns="http://www.w3.org/2000/svg" xmlns:xlink="http://www.w3.org/1999/xlink" width="260" height="249.301" viewBox="0 0 260 249.301">
  <defs>
    <clipPath id="clip-path">
      <rect id="Rect치ngulo_30776" data-name="Rect치ngulo 30776" width="82.265" height="94.017" fill="#62529b"/>
    </clipPath>
  </defs>
  <g id="Grupo_1099979" data-name="Grupo 1099979" transform="translate(-348 -3109.974)">
    <g id="Grupo_1099978" data-name="Grupo 1099978">
      <g id="Grupo_1099977" data-name="Grupo 1099977">
        <rect id="Rect치ngulo_30775" data-name="Rect치ngulo 30775" width="225.588" height="213.481" rx="21.262" transform="translate(365.843 3129.862)" fill="#ffd947" opacity="0.842"/>
        <path id="Trazado_129717" data-name="Trazado 129717" d="M-3697.794-9666.209h-105.337v4.461h105.337a19.671,19.671,0,0,1,19.649,19.648v201.082a19.669,19.669,0,0,1-19.649,19.646h-105.337v4.463h105.337a24.137,24.137,0,0,0,24.109-24.109V-9642.1A24.136,24.136,0,0,0-3697.794-9666.209Z" transform="translate(4281.685 12776.183)" fill="#ffd947"/>
        <path id="Trazado_129718" data-name="Trazado 129718" d="M-3876.64-9416.908h-7.693a2.231,2.231,0,0,1-2.23-2.23,2.231,2.231,0,0,1,2.23-2.232h7.693a2.232,2.232,0,0,1,2.23,2.232A2.231,2.231,0,0,1-3876.64-9416.908Zm-15.388,0h-7.694a2.232,2.232,0,0,1-2.23-2.23,2.232,2.232,0,0,1,2.23-2.232h7.694a2.232,2.232,0,0,1,2.23,2.232A2.232,2.232,0,0,1-3892.027-9416.908Zm-15.388,0h-7.694a2.231,2.231,0,0,1-2.23-2.23,2.231,2.231,0,0,1,2.23-2.232h7.694a2.232,2.232,0,0,1,2.23,2.232A2.231,2.231,0,0,1-3907.415-9416.908Zm-15.388,0h-7.694a2.231,2.231,0,0,1-2.23-2.23,2.232,2.232,0,0,1,2.23-2.232h7.694a2.232,2.232,0,0,1,2.23,2.232A2.231,2.231,0,0,1-3922.8-9416.908Zm-15.388,0h-7.694a2.231,2.231,0,0,1-2.23-2.23,2.232,2.232,0,0,1,2.23-2.232h7.694a2.232,2.232,0,0,1,2.23,2.232A2.231,2.231,0,0,1-3938.191-9416.908Zm-15.388,0h-7.694a2.231,2.231,0,0,1-2.23-2.23,2.232,2.232,0,0,1,2.23-2.232h7.694a2.232,2.232,0,0,1,2.23,2.232A2.231,2.231,0,0,1-3953.579-9416.908Zm-15.389,0h-7.693a2.231,2.231,0,0,1-2.23-2.23,2.232,2.232,0,0,1,2.23-2.232h7.693a2.231,2.231,0,0,1,2.23,2.232A2.231,2.231,0,0,1-3968.968-9416.908Zm-15.386-.006-.048,0a23.808,23.808,0,0,1-8.276-1.66,2.232,2.232,0,0,1-1.256-2.895,2.23,2.23,0,0,1,2.894-1.254,19.406,19.406,0,0,0,6.732,1.352,2.23,2.23,0,0,1,2.183,2.275A2.232,2.232,0,0,1-3984.354-9416.914Zm-14.026-5.514a2.223,2.223,0,0,1-1.479-.562,24.281,24.281,0,0,1-5.241-6.6,2.232,2.232,0,0,1,.9-3.025,2.231,2.231,0,0,1,3.023.9,19.8,19.8,0,0,0,4.281,5.387,2.233,2.233,0,0,1,.188,3.15A2.228,2.228,0,0,1-3998.38-9422.428Zm-7.171-13.254a2.232,2.232,0,0,1-2.205-1.914,24.177,24.177,0,0,1-.244-3.422v-4.578a2.23,2.23,0,0,1,2.23-2.23,2.23,2.23,0,0,1,2.23,2.23v4.578a19.67,19.67,0,0,0,.2,2.787,2.232,2.232,0,0,1-1.891,2.525A2.218,2.218,0,0,1-4005.551-9435.682Zm-.218-15.377a2.232,2.232,0,0,1-2.23-2.232v-7.693a2.231,2.231,0,0,1,2.23-2.23,2.231,2.231,0,0,1,2.23,2.23v7.693A2.231,2.231,0,0,1-4005.77-9451.059Zm0-15.389a2.23,2.23,0,0,1-2.23-2.23v-7.693a2.229,2.229,0,0,1,2.23-2.23,2.228,2.228,0,0,1,2.23,2.23v7.693A2.23,2.23,0,0,1-4005.77-9466.447Zm0-15.387a2.231,2.231,0,0,1-2.23-2.23v-7.7a2.231,2.231,0,0,1,2.23-2.23,2.231,2.231,0,0,1,2.23,2.23v7.7A2.231,2.231,0,0,1-4005.77-9481.834Zm0-15.391a2.23,2.23,0,0,1-2.23-2.23v-7.693a2.228,2.228,0,0,1,2.23-2.229,2.228,2.228,0,0,1,2.23,2.229v7.693A2.23,2.23,0,0,1-4005.77-9497.225Zm0-15.387a2.23,2.23,0,0,1-2.23-2.23v-7.7a2.231,2.231,0,0,1,2.23-2.23,2.231,2.231,0,0,1,2.23,2.23v7.7A2.23,2.23,0,0,1-4005.77-9512.611Zm0-15.389a2.23,2.23,0,0,1-2.23-2.23v-7.693a2.23,2.23,0,0,1,2.23-2.23,2.23,2.23,0,0,1,2.23,2.23v7.693A2.23,2.23,0,0,1-4005.77-9528Zm0-15.389a2.23,2.23,0,0,1-2.23-2.23v-7.693a2.23,2.23,0,0,1,2.23-2.229,2.229,2.229,0,0,1,2.23,2.229v7.693A2.23,2.23,0,0,1-4005.77-9543.389Zm0-15.387a2.231,2.231,0,0,1-2.23-2.23v-7.693a2.23,2.23,0,0,1,2.23-2.23,2.23,2.23,0,0,1,2.23,2.23v7.693A2.231,2.231,0,0,1-4005.77-9558.775Zm0-15.389a2.23,2.23,0,0,1-2.23-2.23v-7.693a2.23,2.23,0,0,1,2.23-2.23,2.23,2.23,0,0,1,2.23,2.23v7.693A2.23,2.23,0,0,1-4005.77-9574.164Zm0-15.389a2.23,2.23,0,0,1-2.23-2.229v-7.7a2.231,2.231,0,0,1,2.23-2.23,2.231,2.231,0,0,1,2.23,2.23v7.7A2.229,2.229,0,0,1-4005.77-9589.553Zm0-15.387a2.232,2.232,0,0,1-2.23-2.232v-7.693a2.23,2.23,0,0,1,2.23-2.229,2.229,2.229,0,0,1,2.23,2.229v7.693A2.231,2.231,0,0,1-4005.77-9604.939Zm0-15.389a2.23,2.23,0,0,1-2.23-2.23v-7.7a2.23,2.23,0,0,1,2.23-2.229,2.229,2.229,0,0,1,2.23,2.229v7.7A2.23,2.23,0,0,1-4005.77-9620.328Zm0-15.387a2.232,2.232,0,0,1-2.23-2.232v-4.152a24.087,24.087,0,0,1,.314-3.883,2.232,2.232,0,0,1,2.561-1.844,2.233,2.233,0,0,1,1.841,2.563,19.664,19.664,0,0,0-.256,3.164v4.152A2.231,2.231,0,0,1-4005.77-9635.715Zm2.834-14.893a2.244,2.244,0,0,1-1.1-.291,2.234,2.234,0,0,1-.838-3.043,24.286,24.286,0,0,1,5.368-6.494,2.229,2.229,0,0,1,3.144.25,2.228,2.228,0,0,1-.249,3.143,19.816,19.816,0,0,0-4.384,5.3A2.229,2.229,0,0,1-4002.936-9650.607Zm11.471-9.781a2.23,2.23,0,0,1-2.09-1.455,2.231,2.231,0,0,1,1.313-2.867,23.861,23.861,0,0,1,8.3-1.5,2.236,2.236,0,0,1,2.234,2.225,2.23,2.23,0,0,1-2.226,2.236,19.459,19.459,0,0,0-6.757,1.219A2.217,2.217,0,0,1-3991.464-9660.389Zm115.246-1.359h-7.694a2.231,2.231,0,0,1-2.23-2.23,2.23,2.23,0,0,1,2.23-2.23h7.694a2.23,2.23,0,0,1,2.23,2.23A2.231,2.231,0,0,1-3876.218-9661.748Zm-15.388,0h-7.694a2.232,2.232,0,0,1-2.23-2.23,2.23,2.23,0,0,1,2.23-2.23h7.694a2.23,2.23,0,0,1,2.23,2.23A2.232,2.232,0,0,1-3891.606-9661.748Zm-15.389,0h-7.693a2.231,2.231,0,0,1-2.23-2.23,2.23,2.23,0,0,1,2.23-2.23h7.693a2.23,2.23,0,0,1,2.23,2.23A2.231,2.231,0,0,1-3906.995-9661.748Zm-15.388,0h-7.693a2.231,2.231,0,0,1-2.23-2.23,2.23,2.23,0,0,1,2.23-2.23h7.693a2.23,2.23,0,0,1,2.23,2.23A2.231,2.231,0,0,1-3922.382-9661.748Zm-15.388,0h-7.694a2.231,2.231,0,0,1-2.23-2.23,2.23,2.23,0,0,1,2.23-2.23h7.694a2.23,2.23,0,0,1,2.23,2.23A2.232,2.232,0,0,1-3937.77-9661.748Zm-15.388,0h-7.694a2.231,2.231,0,0,1-2.23-2.23,2.23,2.23,0,0,1,2.23-2.23h7.694a2.23,2.23,0,0,1,2.23,2.23A2.232,2.232,0,0,1-3953.158-9661.748Zm-15.389,0h-7.693a2.231,2.231,0,0,1-2.23-2.23,2.23,2.23,0,0,1,2.23-2.23h7.693a2.23,2.23,0,0,1,2.23,2.23A2.231,2.231,0,0,1-3968.546-9661.748Z" transform="translate(4356 12776.183)" fill="#ffd947"/>
        <g id="Grupo_55890" data-name="Grupo 55890" transform="translate(434.275 3277.682)">
          <path id="Trazado_129719" data-name="Trazado 129719" d="M-3868.944-9393.215a9.157,9.157,0,0,1-.79,3.924,5.948,5.948,0,0,1-2.263,2.6,6.253,6.253,0,0,1-3.376.917,6.3,6.3,0,0,1-3.361-.906,6,6,0,0,1-2.289-2.585,8.885,8.885,0,0,1-.822-3.866v-.749a9.106,9.106,0,0,1,.806-3.937,6.017,6.017,0,0,1,2.279-2.612,6.276,6.276,0,0,1,3.367-.909,6.268,6.268,0,0,1,3.365.909,6.005,6.005,0,0,1,2.279,2.612,9.072,9.072,0,0,1,.806,3.927Zm-3.162-.687a6.374,6.374,0,0,0-.854-3.62,2.779,2.779,0,0,0-2.435-1.238,2.78,2.78,0,0,0-2.424,1.223,6.29,6.29,0,0,0-.864,3.585v.737a6.451,6.451,0,0,0,.854,3.6,2.771,2.771,0,0,0,2.455,1.279,2.748,2.748,0,0,0,2.414-1.233,6.414,6.414,0,0,0,.854-3.594Z" transform="translate(3881.845 9401.965)" fill="#62529b"/>
          <path id="Trazado_129720" data-name="Trazado 129720" d="M-3848.2-9391.865a6.811,6.811,0,0,1-1.155,4.219,3.827,3.827,0,0,1-3.226,1.515,3.518,3.518,0,0,1-2.924-1.4l-.135,1.2h-2.706v-15.982h3.007v5.733a3.425,3.425,0,0,1,2.736-1.219,3.855,3.855,0,0,1,3.23,1.516,6.819,6.819,0,0,1,1.171,4.261Zm-3.007-.219a4.475,4.475,0,0,0-.542-2.491,1.826,1.826,0,0,0-1.612-.786,1.983,1.983,0,0,0-1.977,1.176v4.442a2.009,2.009,0,0,0,2,1.187,1.855,1.855,0,0,0,1.915-1.436A7.406,7.406,0,0,0-3851.211-9392.084Z" transform="translate(3873.322 9402.322)" fill="#62529b"/>
          <path id="Trazado_129721" data-name="Trazado 129721" d="M-3837.56-9397.448v11.871a4.03,4.03,0,0,1-.988,2.9,3.762,3.762,0,0,1-2.851,1.035,6.158,6.158,0,0,1-1.488-.176v-2.385a5.651,5.651,0,0,0,.947.095q1.363,0,1.363-1.446v-11.892Zm-3.257-2.914a1.48,1.48,0,0,1,.453-1.113,1.7,1.7,0,0,1,1.232-.437,1.7,1.7,0,0,1,1.233.438,1.478,1.478,0,0,1,.453,1.113,1.474,1.474,0,0,1-.463,1.123,1.709,1.709,0,0,1-1.223.437,1.708,1.708,0,0,1-1.222-.437A1.471,1.471,0,0,1-3840.816-9400.362Z" transform="translate(3867.713 9402.174)" fill="#62529b"/>
          <path id="Trazado_129722" data-name="Trazado 129722" d="M-3825.887-9383.561a5.525,5.525,0,0,1-4.032-1.52,5.4,5.4,0,0,1-1.556-4.048v-.292a6.8,6.8,0,0,1,.656-3.033,4.8,4.8,0,0,1,1.857-2.059,5.218,5.218,0,0,1,2.741-.725,4.677,4.677,0,0,1,3.637,1.456,5.926,5.926,0,0,1,1.328,4.132v1.228h-7.17a2.8,2.8,0,0,0,.879,1.771,2.668,2.668,0,0,0,1.857.664,3.246,3.246,0,0,0,2.715-1.259l1.478,1.654a4.5,4.5,0,0,1-1.831,1.493A6.009,6.009,0,0,1-3825.887-9383.561Zm-.343-9.249a1.875,1.875,0,0,0-1.451.6,3.132,3.132,0,0,0-.713,1.734h4.184v-.239a2.242,2.242,0,0,0-.542-1.552A1.934,1.934,0,0,0-3826.23-9392.81Z" transform="translate(3863.573 9399.751)" fill="#62529b"/>
          <path id="Trazado_129723" data-name="Trazado 129723" d="M-3809.76-9399.251v2.768h1.925v2.205h-1.925v5.62a1.335,1.335,0,0,0,.24.894,1.2,1.2,0,0,0,.915.271,4.766,4.766,0,0,0,.885-.073v2.278a6.211,6.211,0,0,1-1.821.271q-3.163,0-3.225-3.194v-6.067h-1.644v-2.205h1.644v-2.768Z" transform="translate(3857.384 9401.207)" fill="#62529b"/>
          <path id="Trazado_129724" data-name="Trazado 129724" d="M-3801.5-9400.362a1.478,1.478,0,0,1,.453-1.113,1.7,1.7,0,0,1,1.233-.437,1.7,1.7,0,0,1,1.227.438,1.47,1.47,0,0,1,.458,1.113,1.473,1.473,0,0,1-.463,1.123,1.709,1.709,0,0,1-1.222.437,1.709,1.709,0,0,1-1.223-.437A1.474,1.474,0,0,1-3801.5-9400.362Zm3.194,14.171h-3.017v-11.257h3.017Z" transform="translate(3852.699 9402.174)" fill="#62529b"/>
          <path id="Trazado_129725" data-name="Trazado 129725" d="M-3788.965-9387.322l2.092-7.586h3.143l-3.8,11.258h-2.872l-3.8-11.258h3.142Z" transform="translate(3850.052 9399.632)" fill="#62529b"/>
          <path id="Trazado_129726" data-name="Trazado 129726" d="M-3776.678-9389.5a6.672,6.672,0,0,1,.645-2.986,4.726,4.726,0,0,1,1.858-2.029,5.411,5.411,0,0,1,2.814-.719,5.125,5.125,0,0,1,3.719,1.4,5.6,5.6,0,0,1,1.608,3.787l.021.771a5.881,5.881,0,0,1-1.447,4.155,5.026,5.026,0,0,1-3.881,1.567,5.053,5.053,0,0,1-3.886-1.562,5.987,5.987,0,0,1-1.452-4.245Zm3.007.213a4.213,4.213,0,0,0,.6,2.455,1.993,1.993,0,0,0,1.728.849,1.994,1.994,0,0,0,1.706-.84,4.593,4.593,0,0,0,.615-2.683,4.159,4.159,0,0,0-.615-2.437,1.992,1.992,0,0,0-1.727-.864,1.96,1.96,0,0,0-1.707.858A4.681,4.681,0,0,0-3773.671-9389.289Z" transform="translate(3843.696 9399.751)" fill="#62529b"/>
          <path id="Trazado_129727" data-name="Trazado 129727" d="M-3751.265-9386.881a.969.969,0,0,0-.546-.868,6.218,6.218,0,0,0-1.753-.567q-4.017-.842-4.017-3.413a3.089,3.089,0,0,1,1.244-2.5,5.017,5.017,0,0,1,3.251-1,5.4,5.4,0,0,1,3.429,1.01,3.184,3.184,0,0,1,1.285,2.623h-3.007a1.459,1.459,0,0,0-.417-1.068,1.764,1.764,0,0,0-1.3-.42,1.8,1.8,0,0,0-1.176.342,1.088,1.088,0,0,0-.416.874.925.925,0,0,0,.473.807,4.837,4.837,0,0,0,1.6.532,13.1,13.1,0,0,1,1.894.5,3.114,3.114,0,0,1,2.383,3.029,2.936,2.936,0,0,1-1.322,2.492,5.7,5.7,0,0,1-3.412.952,5.928,5.928,0,0,1-2.513-.506,4.22,4.22,0,0,1-1.722-1.384,3.216,3.216,0,0,1-.624-1.9h2.851a1.566,1.566,0,0,0,.593,1.228,2.353,2.353,0,0,0,1.478.427,2.176,2.176,0,0,0,1.306-.328A1.022,1.022,0,0,0-3751.265-9386.881Z" transform="translate(3836.897 9399.751)" fill="#62529b"/>
          <path id="Trazado_129728" data-name="Trazado 129728" d="M-3856.96-9346.337v-9.052h-1.675v-2.205h1.675v-.958a3.887,3.887,0,0,1,1.087-2.939,4.21,4.21,0,0,1,3.043-1.046,6.982,6.982,0,0,1,1.53.209l-.032,2.33a3.822,3.822,0,0,0-.916-.095q-1.7,0-1.7,1.593v.906h2.237v2.205h-2.237v9.052Z" transform="translate(3873.426 9387.891)" fill="#62529b"/>
          <path id="Trazado_129729" data-name="Trazado 129729" d="M-3845.344-9360.236a1.484,1.484,0,0,1,.453-1.113,1.7,1.7,0,0,1,1.233-.437,1.708,1.708,0,0,1,1.228.438,1.476,1.476,0,0,1,.458,1.113,1.475,1.475,0,0,1-.464,1.124,1.7,1.7,0,0,1-1.222.438,1.705,1.705,0,0,1-1.223-.437A1.476,1.476,0,0,1-3845.344-9360.236Zm3.194,14.172h-3.017v-11.258h3.017Z" transform="translate(3868.604 9387.617)" fill="#62529b"/>
          <path id="Trazado_129730" data-name="Trazado 129730" d="M-3833.714-9354.9l.094,1.3a3.934,3.934,0,0,1,3.236-1.509,3.266,3.266,0,0,1,2.664,1.052,4.9,4.9,0,0,1,.9,3.142v7.273h-3.007v-7.2a1.943,1.943,0,0,0-.417-1.388,1.857,1.857,0,0,0-1.383-.434,2.07,2.07,0,0,0-1.9,1.082v7.939h-3.007V-9354.9Z" transform="translate(3865.413 9385.197)" fill="#62529b"/>
          <path id="Trazado_129731" data-name="Trazado 129731" d="M-3811.448-9343.643a3.325,3.325,0,0,1-.3-1.009,3.64,3.64,0,0,1-2.84,1.218,4,4,0,0,1-2.742-.957,3.081,3.081,0,0,1-1.087-2.414,3.181,3.181,0,0,1,1.327-2.746,6.547,6.547,0,0,1,3.834-.97h1.383v-.646a1.848,1.848,0,0,0-.4-1.247,1.575,1.575,0,0,0-1.264-.469,1.8,1.8,0,0,0-1.192.364,1.24,1.24,0,0,0-.431,1h-3.007a3.03,3.03,0,0,1,.6-1.812,3.976,3.976,0,0,1,1.707-1.3,6.2,6.2,0,0,1,2.476-.475,4.908,4.908,0,0,1,3.3,1.047,3.657,3.657,0,0,1,1.222,2.94v4.879a5.389,5.389,0,0,0,.448,2.425v.176Zm-2.488-2.092a2.585,2.585,0,0,0,1.229-.3,1.936,1.936,0,0,0,.832-.8v-1.935H-3813q-2.258,0-2.4,1.562l-.01.177a1.2,1.2,0,0,0,.395.926A1.536,1.536,0,0,0-3813.936-9345.734Z" transform="translate(3858.838 9385.197)" fill="#62529b"/>
          <path id="Trazado_129732" data-name="Trazado 129732" d="M-3796.528-9346.213h-3.017V-9362.2h3.017Z" transform="translate(3851.991 9387.767)" fill="#62529b"/>
          <path id="Trazado_129733" data-name="Trazado 129733" d="M-3785.974-9343.434a5.528,5.528,0,0,1-4.032-1.52,5.4,5.4,0,0,1-1.555-4.048v-.291a6.8,6.8,0,0,1,.656-3.033,4.809,4.809,0,0,1,1.857-2.059,5.213,5.213,0,0,1,2.742-.726,4.677,4.677,0,0,1,3.636,1.458,5.92,5.92,0,0,1,1.327,4.131v1.227h-7.169a2.792,2.792,0,0,0,.879,1.771,2.664,2.664,0,0,0,1.857.664,3.246,3.246,0,0,0,2.716-1.258l1.477,1.655a4.5,4.5,0,0,1-1.831,1.492A6.018,6.018,0,0,1-3785.974-9343.434Zm-.344-9.249a1.878,1.878,0,0,0-1.451.6,3.146,3.146,0,0,0-.713,1.736h4.183v-.241a2.244,2.244,0,0,0-.541-1.553A1.938,1.938,0,0,0-3786.317-9352.683Z" transform="translate(3849.095 9385.197)" fill="#62529b"/>
          <path id="Trazado_129734" data-name="Trazado 129734" d="M-3767.078-9346.754a.971.971,0,0,0-.546-.869,6.189,6.189,0,0,0-1.753-.565q-4.017-.845-4.016-3.413a3.1,3.1,0,0,1,1.243-2.5,5.017,5.017,0,0,1,3.251-1,5.4,5.4,0,0,1,3.428,1.01,3.184,3.184,0,0,1,1.286,2.623h-3.007a1.462,1.462,0,0,0-.416-1.067,1.762,1.762,0,0,0-1.3-.421,1.8,1.8,0,0,0-1.176.343,1.085,1.085,0,0,0-.416.874.926.926,0,0,0,.474.807,4.833,4.833,0,0,0,1.6.531,13.1,13.1,0,0,1,1.894.5,3.112,3.112,0,0,1,2.383,3.028,2.939,2.939,0,0,1-1.322,2.492,5.707,5.707,0,0,1-3.412.952,5.944,5.944,0,0,1-2.513-.506,4.2,4.2,0,0,1-1.722-1.384,3.212,3.212,0,0,1-.625-1.9h2.852a1.564,1.564,0,0,0,.593,1.227,2.348,2.348,0,0,0,1.478.428,2.175,2.175,0,0,0,1.306-.329A1.02,1.02,0,0,0-3767.078-9346.754Z" transform="translate(3842.634 9385.197)" fill="#62529b"/>
        </g>
        <g id="Grupo_55894" data-name="Grupo 55894" transform="translate(441.617 3158.388)">
          <g id="Grupo_55893" data-name="Grupo 55893" transform="translate(0 0)" clip-path="url(#clip-path)">
            <path id="Trazado_129736" data-name="Trazado 129736" d="M-3842.111-9512.336l-7.444,13.387a1.835,1.835,0,0,0,.712,2.5,1.837,1.837,0,0,0,2.5-.712l7.58-13.629a34.686,34.686,0,0,0,12.851,2.453,34.686,34.686,0,0,0,12.851-2.453l7.58,13.629a1.836,1.836,0,0,0,2.5.712,1.837,1.837,0,0,0,.712-2.5l-7.445-13.385a34.923,34.923,0,0,0,18.694-30.894,34.758,34.758,0,0,0-8.968-23.327l5.5-5.5,14.2-3.549a1.835,1.835,0,0,0,1.392-1.782V-9588.4a1.838,1.838,0,0,0-1.836-1.838h-11.018a1.839,1.839,0,0,0-1.782,1.392l-3.549,14.2-5.5,5.5a34.757,34.757,0,0,0-23.325-8.966,34.928,34.928,0,0,0-34.889,34.89,34.922,34.922,0,0,0,18.693,30.894Zm51.784-74.229h7.748v7.748l-10.33,2.582Zm-35.588,12.119a31.086,31.086,0,0,1,20.725,7.895l-5.2,5.2a23.769,23.769,0,0,0-15.523-5.752,23.9,23.9,0,0,0-23.872,23.872,23.9,23.9,0,0,0,23.872,23.871,23.9,23.9,0,0,0,23.872-23.871,23.763,23.763,0,0,0-5.752-15.522l5.2-5.2a31.089,31.089,0,0,1,7.895,20.726,31.251,31.251,0,0,1-31.217,31.216,31.251,31.251,0,0,1-31.217-31.216,31.251,31.251,0,0,1,31.217-31.217Zm9.181,31.217a9.191,9.191,0,0,1-9.181,9.18,9.191,9.191,0,0,1-9.182-9.18,9.191,9.191,0,0,1,9.182-9.182,9.131,9.131,0,0,1,5.059,1.524l-6.358,6.357a1.841,1.841,0,0,0,0,2.6,1.841,1.841,0,0,0,2.6,0l6.358-6.359a9.132,9.132,0,0,1,1.525,5.06Zm-1.487-10.291a12.788,12.788,0,0,0-7.694-2.562,12.867,12.867,0,0,0-12.854,12.854,12.869,12.869,0,0,0,12.854,12.854,12.869,12.869,0,0,0,12.854-12.854,12.784,12.784,0,0,0-2.563-7.694l5.225-5.226a20.122,20.122,0,0,1,4.684,12.92,20.223,20.223,0,0,1-20.2,20.2,20.221,20.221,0,0,1-20.2-20.2,20.22,20.22,0,0,1,20.2-20.2,20.1,20.1,0,0,1,12.918,4.682Zm0,0" transform="translate(3860.988 9590.238)" fill="#62529b"/>
          </g>
        </g>
      </g>
    </g>
  </g>
</svg>
