<svg xmlns="http://www.w3.org/2000/svg" width="107.226" height="89.154" viewBox="0 0 107.226 89.154">
  <g id="Grupo_1100030" data-name="Grupo 1100030" transform="translate(-431.387 -949.886)">
    <g id="Grupo_1100029" data-name="Grupo 1100029">
      <g id="Grupo_1100028" data-name="Grupo 1100028">
        <g id="Grupo_1100027" data-name="Grupo 1100027">
          <path id="_12068" data-name="12068" d="M85.441,72.1C74.768,70.63,63.494,70.99,53.782,75.655,40.314,82.124,31.469,96.79,31.13,111.728s7.442,29.615,19.464,38.488,27.876,12.018,42.577,9.354c14.824-2.686,28.739-11.4,36.471-24.326,4.958-8.291,7.276-18.529,4.537-27.794a37.971,37.971,0,0,0-9.011-14.812A66.579,66.579,0,0,0,85.441,72.1Z" transform="translate(403.268 878.554)" fill="#ffd947"/>
          <g id="chat" transform="translate(431.387 899.134)">
            <path id="Trazado_873572" data-name="Trazado 873572" d="M89.749,75.779V97.886H64.8a5.365,5.365,0,0,0-5.36,5.36v11.71c-3.328,0-11.636,0-11.67.009a2.222,2.222,0,0,0-1.435.649L33.658,128.288s0-11.228-.011-11.286a2.249,2.249,0,0,0-2.237-2.046H25.026a.868.868,0,0,1-.869-.869V75.779a.87.87,0,0,1,.869-.869H88.88A.87.87,0,0,1,89.749,75.779ZM79.633,87.512a2.245,2.245,0,0,0-2.245-2.245H36.519a2.245,2.245,0,0,0,0,4.491H77.387A2.246,2.246,0,0,0,79.633,87.512ZM54.274,102.357a2.246,2.246,0,0,0-2.245-2.245H36.519a2.245,2.245,0,0,0,0,4.491h15.51A2.246,2.246,0,0,0,54.274,102.357Z" transform="translate(-19.666 -19.666)" fill="#9b8ccc"/>
            <path id="Trazado_873573" data-name="Trazado 873573" d="M284.511,223.521v26.133a.87.87,0,0,1-.869.869h-3.788a2.246,2.246,0,0,0-2.237,2.073c0,.049-.009,6.748-.009,6.748l-8.153-8.153-.025-.025c-.034-.031-.063-.058-.092-.083a2.228,2.228,0,0,0-1.478-.559H238.945a.871.871,0,0,1-.869-.869V223.521a.87.87,0,0,1,.869-.869h44.7A.868.868,0,0,1,284.511,223.521Zm-10.538,13.067a2.245,2.245,0,1,0-2.245,2.245A2.246,2.246,0,0,0,273.973,236.588Zm-10.433,0a2.245,2.245,0,1,0-2.245,2.245A2.246,2.246,0,0,0,263.54,236.588Zm-10.435,0a2.245,2.245,0,1,0-2.245,2.245A2.246,2.246,0,0,0,253.105,236.588Z" transform="translate(-193.814 -139.941)" fill="#94e7ef"/>
            <g id="Grupo_1099390" data-name="Grupo 1099390" transform="translate(0 50.753)">
              <path id="Trazado_873574" data-name="Trazado 873574" d="M409.249,285.531A2.245,2.245,0,1,1,407,287.776,2.246,2.246,0,0,1,409.249,285.531Z" transform="translate(-331.336 -241.883)" fill="#1e0478"/>
              <path id="Trazado_873575" data-name="Trazado 873575" d="M39.77,99.782H29.183L13.334,115.633a2.251,2.251,0,0,1-1.59.658,2.218,2.218,0,0,1-.858-.173A2.24,2.24,0,0,1,9.5,114.045V99.782H5.36A5.364,5.364,0,0,1,0,94.422V56.113a5.365,5.365,0,0,1,5.36-5.36H69.214a5.367,5.367,0,0,1,5.36,5.36V78.22H89.828a5.364,5.364,0,0,1,5.36,5.36v26.133a5.365,5.365,0,0,1-5.36,5.36H88.285v9.75a2.245,2.245,0,0,1-3.833,1.588L73.114,115.074H45.131a5.367,5.367,0,0,1-5.36-5.36ZM70.083,78.22V56.113a.87.87,0,0,0-.869-.869H5.36a.87.87,0,0,0-.869.869V94.422a.868.868,0,0,0,.869.869h6.384a2.249,2.249,0,0,1,2.237,2.046c.007.058.011,11.286.011,11.286L26.666,95.949A2.223,2.223,0,0,1,28.1,95.3c.034,0,8.342-.007,11.67-.009V83.58a5.365,5.365,0,0,1,5.36-5.36ZM90.7,109.714V83.58a.868.868,0,0,0-.869-.869h-44.7a.87.87,0,0,0-.869.869v26.133a.871.871,0,0,0,.869.869H74.046a2.227,2.227,0,0,1,1.478.559c.029.025.058.052.092.083l.025.025,8.153,8.153s0-6.7.009-6.748a2.246,2.246,0,0,1,2.237-2.073h3.788A.87.87,0,0,0,90.7,109.714Z" transform="translate(0 -50.753)" fill="#1e0478"/>
              <path id="Trazado_873576" data-name="Trazado 873576" d="M353.133,285.531a2.245,2.245,0,1,1-2.245,2.245A2.246,2.246,0,0,1,353.133,285.531Z" transform="translate(-285.653 -241.883)" fill="#1e0478"/>
              <path id="Trazado_873577" data-name="Trazado 873577" d="M121.684,130.615a2.245,2.245,0,1,1,0,4.491H80.815a2.245,2.245,0,1,1,0-4.491Z" transform="translate(-63.963 -115.768)" fill="#1e0478"/>
              <path id="Trazado_873578" data-name="Trazado 873578" d="M297.005,285.531a2.245,2.245,0,1,1-2.245,2.245A2.246,2.246,0,0,1,297.005,285.531Z" transform="translate(-239.96 -241.883)" fill="#1e0478"/>
              <path id="Trazado_873579" data-name="Trazado 873579" d="M96.325,210.465a2.245,2.245,0,1,1,0,4.491H80.815a2.245,2.245,0,1,1,0-4.491Z" transform="translate(-63.963 -180.772)" fill="#1e0478"/>
            </g>
          </g>
        </g>
      </g>
    </g>
  </g>
</svg>
