<svg xmlns="http://www.w3.org/2000/svg" width="400.001" height="379.246" viewBox="0 0 400.001 379.246">
  <g id="Grupo_1100042" data-name="Grupo 1100042" transform="translate(-1000 -1578.529)">
    <g id="Grupo_1100041" data-name="Grupo 1100041">
      <g id="Grupo_1100040" data-name="Grupo 1100040">
        <g id="Grupo_1100039" data-name="Grupo 1100039">
          <g id="Grupo_1100038" data-name="Grupo 1100038">
            <g id="Grupo_1100037" data-name="Grupo 1100037">
              <g id="Grupo_1100036" data-name="Grupo 1100036">
                <g id="Grupo_1100035" data-name="Grupo 1100035">
                  <g id="Grupo_1100034" data-name="Grupo 1100034">
                    <g id="Grupo_1099485" data-name="Grupo 1099485" transform="translate(275.001 -3260.847)">
                      <path id="_12068" data-name="12068" d="M222.787,74.053c-37.657-5.2-77.436-3.928-111.7,12.531-47.521,22.825-78.732,74.575-79.928,127.28s26.26,104.494,68.677,135.8,98.356,42.4,150.229,33c52.307-9.479,101.4-40.211,128.686-85.833,17.5-29.255,25.673-65.379,16.008-98.068-5.835-19.731-17.764-37.212-31.8-52.261A234.916,234.916,0,0,0,222.787,74.053Z" transform="translate(710.005 4820.32)" fill="#aee6e6"/>
                      <g id="Grupo_1099291" data-name="Grupo 1099291" transform="translate(724.999 5170.994) rotate(-90)">
                        <path id="Trazado_873104" data-name="Trazado 873104" d="M1.7,7.454a4.316,4.316,0,0,0,5.641-.639A4.316,4.316,0,0,0,7.1,1.143,4.318,4.318,0,0,0,1.424.99,4.139,4.139,0,0,0,1.7,7.454Z" transform="translate(56.381 338.287)" fill="#fff"/>
                        <path id="Trazado_873105" data-name="Trazado 873105" d="M1.7,7.454a4.316,4.316,0,0,0,5.643-.637A4.318,4.318,0,0,0,7.1,1.143,4.318,4.318,0,0,0,1.425.99,4.139,4.139,0,0,0,1.7,7.454Z" transform="translate(138.745 355.987)" fill="#ffd947"/>
                        <path id="Trazado_873106" data-name="Trazado 873106" d="M1.7,7.454a4.314,4.314,0,0,0,5.641-.637A4.318,4.318,0,0,0,7.1,1.143,4.318,4.318,0,0,0,1.424.99,4.139,4.139,0,0,0,1.7,7.454Z" transform="translate(285.006 0)" fill="#7d6eb2"/>
                        <path id="Trazado_873109" data-name="Trazado 873109" d="M5.6,17.394a9.415,9.415,0,0,0,11.659-4.607A9.418,9.418,0,0,0,13.2.93,9.415,9.415,0,0,0,1.164,4.452,9.128,9.128,0,0,0,5.6,17.394Z" transform="translate(236.065 342.099)" fill="#26aab7"/>
                        <path id="Trazado_873110" data-name="Trazado 873110" d="M5.6,17.393a9.415,9.415,0,0,0,11.66-4.607A9.416,9.416,0,0,0,13.2.931,9.413,9.413,0,0,0,1.165,4.451,9.127,9.127,0,0,0,5.6,17.393Z" transform="translate(171.84 382.004)" fill="#7d6eb2"/>
                        <path id="Trazado_873111" data-name="Trazado 873111" d="M5.6,17.393a9.412,9.412,0,0,0,11.658-4.606A9.414,9.414,0,0,0,13.2.931,9.412,9.412,0,0,0,1.165,4.451,9.127,9.127,0,0,0,5.6,17.393Z" transform="translate(0 107.56)" fill="#7d6eb2"/>
                        <path id="Trazado_873113" data-name="Trazado 873113" d="M5.6,17.394a9.417,9.417,0,0,0,11.66-4.606A9.418,9.418,0,0,0,13.2.93,9.417,9.417,0,0,0,1.164,4.452,9.128,9.128,0,0,0,5.6,17.394Z" transform="translate(266.987 22.647)" fill="#ffd947"/>
                        <circle id="Elipse_11485" data-name="Elipse 11485" cx="4.445" cy="4.445" r="4.445" transform="translate(20.396 359.765)" fill="none" stroke="#26aab7" stroke-linecap="round" stroke-linejoin="round" stroke-width="1.5"/>
                      </g>
                    </g>
                    <g id="OBJECTS" transform="translate(1020 1578.529)">
                      <g id="Grupo_1099396" data-name="Grupo 1099396" transform="translate(0 239.559)">
                        <path id="Trazado_873580" data-name="Trazado 873580" d="M329.558,307.614,314.31,426.958H427.324L408.92,306Z" transform="translate(-314.31 -306)" fill="#fff484"/>
                        <path id="Trazado_873581" data-name="Trazado 873581" d="M314.31,426.958h37.034L332.94,306Z" transform="translate(-238.33 -306)" fill="#f2b83d"/>
                        <g id="Grupo_1099391" data-name="Grupo 1099391" transform="translate(26.511 5.364)">
                          <path id="Trazado_873582" data-name="Trazado 873582" d="M383.438,352.05a23.521,23.521,0,0,1-2.489-.135c-7.62-.83-12.778-7.98-14.906-20.659a91.494,91.494,0,0,1-.938-18.936.4.4,0,0,1,.424-.37.407.407,0,0,1,.37.424c-.027.37-2.444,36.818,15.14,38.738,5.5.6,10.163-.83,13.86-4.247,10.695-9.883,10.09-33.346,10.09-33.581a.389.389,0,0,1,.388-.406.407.407,0,0,1,.406.388,77.048,77.048,0,0,1-1.01,13.219c-1.091,6.637-3.6,15.663-9.333,20.965A17.088,17.088,0,0,1,383.438,352.05Z" transform="translate(-364.97 -311.949)" fill="#000302"/>
                        </g>
                        <g id="Grupo_1099394" data-name="Grupo 1099394" transform="translate(23.724 3.056)">
                          <g id="Grupo_1099392" data-name="Grupo 1099392" transform="translate(0)">
                            <path id="Trazado_873583" data-name="Trazado 873583" d="M412.619,312.735a3.265,3.265,0,0,0-3.183-3.345,3.3,3.3,0,0,0-3.345,3.183,3.259,3.259,0,0,0,3.183,3.345,3.114,3.114,0,0,0,.766-.072A3.244,3.244,0,0,0,412.619,312.735Zm-3.21-2.191a2.094,2.094,0,0,1,2.047,2.155,2.106,2.106,0,1,1-2.552-2.11A3.283,3.283,0,0,1,409.409,310.544Z" transform="translate(-406.089 -309.389)" fill="#000302"/>
                          </g>
                          <g id="Grupo_1099393" data-name="Grupo 1099393" transform="translate(39.658 0.848)">
                            <path id="Trazado_873584" data-name="Trazado 873584" d="M368.638,313.675a3.265,3.265,0,1,0-3.345,3.183,3.113,3.113,0,0,0,.766-.072A3.244,3.244,0,0,0,368.638,313.675Zm-3.21-2.182a2.1,2.1,0,1,1-.5.045A1.817,1.817,0,0,1,365.428,311.493Z" transform="translate(-362.109 -310.329)" fill="#000302"/>
                          </g>
                        </g>
                        <g id="Grupo_1099395" data-name="Grupo 1099395" transform="translate(79.659 7.169)">
                          <line id="Línea_1607" data-name="Línea 1607" x1="14.834" y2="111.643" transform="translate(0)" fill="none" stroke="#000302" stroke-linecap="round" stroke-linejoin="round" stroke-miterlimit="10" stroke-width="0.5"/>
                          <path id="Trazado_873585" data-name="Trazado 873585" d="M317.06,435.784l16.051-18.134L347.935,436.8" transform="translate(-317.06 -324.14)" fill="none" stroke="#000302" stroke-linecap="round" stroke-linejoin="round" stroke-miterlimit="10" stroke-width="0.5"/>
                          <line id="Línea_1608" data-name="Línea 1608" x1="1.686" y1="81.12" transform="translate(14.833 8.314)" fill="none" stroke="#000302" stroke-linecap="round" stroke-linejoin="round" stroke-miterlimit="10" stroke-width="0.5"/>
                        </g>
                      </g>
                      <g id="Grupo_1099402" data-name="Grupo 1099402" transform="translate(216.091 239.676)">
                        <path id="Trazado_873586" data-name="Trazado 873586" d="M176.047,307.537l13.246,103.744H91.05l16-105.151Z" transform="translate(-91.05 -306.13)" fill="#0cc9cd"/>
                        <path id="Trazado_873587" data-name="Trazado 873587" d="M196.491,411.281h-32.2l16-105.151Z" transform="translate(-164.29 -306.13)" fill="#009aaf"/>
                        <g id="Grupo_1099397" data-name="Grupo 1099397" transform="translate(39.722 4.678)">
                          <path id="Trazado_873588" data-name="Trazado 873588" d="M136.03,346.163a19.812,19.812,0,0,0,2.164-.117c6.628-.721,11.109-6.934,12.958-17.953a79.252,79.252,0,0,0,.812-16.457.344.344,0,0,0-.685.054c.018.316,2.119,32.012-13.165,33.68a14.64,14.64,0,0,1-12.047-3.688c-9.3-8.594-8.774-28.991-8.765-29.2a.337.337,0,0,0-.334-.352.349.349,0,0,0-.352.334,66.68,66.68,0,0,0,.875,11.5c.947,5.771,3.129,13.616,8.116,18.224A14.908,14.908,0,0,0,136.03,346.163Z" transform="translate(-116.607 -311.318)" fill="#000302"/>
                        </g>
                        <g id="Grupo_1099400" data-name="Grupo 1099400" transform="translate(37.466 2.65)">
                          <g id="Grupo_1099398" data-name="Grupo 1099398" transform="translate(34.473)">
                            <path id="Trazado_873589" data-name="Trazado 873589" d="M116.165,314.688a2.749,2.749,0,0,0,.667.063,2.841,2.841,0,0,0,2.768-2.913,2.871,2.871,0,0,0-2.913-2.768,2.841,2.841,0,0,0-.523,5.618Zm.974-4.563a1.829,1.829,0,0,1-.343,3.616,1.842,1.842,0,0,1-1.867-1.785,1.832,1.832,0,0,1,1.785-1.876A1.655,1.655,0,0,1,117.139,310.125Z" transform="translate(-113.919 -309.069)" fill="#000302"/>
                          </g>
                          <g id="Grupo_1099399" data-name="Grupo 1099399" transform="translate(0 0.739)">
                            <path id="Trazado_873590" data-name="Trazado 873590" d="M154.395,315.508a2.749,2.749,0,0,0,.667.063,2.846,2.846,0,1,0-.667-.063Zm.974-4.563a1.829,1.829,0,0,1-.343,3.616,1.831,1.831,0,0,1-.09-3.661A1.68,1.68,0,0,1,155.369,310.945Z" transform="translate(-152.149 -309.889)" fill="#000302"/>
                          </g>
                        </g>
                        <g id="Grupo_1099401" data-name="Grupo 1099401" transform="translate(2.155 6.231)">
                          <line id="Línea_1609" data-name="Línea 1609" x2="12.895" y2="97.053" transform="translate(13.95)" fill="none" stroke="#000302" stroke-linecap="round" stroke-linejoin="round" stroke-miterlimit="10" stroke-width="0.5"/>
                          <path id="Trazado_873591" data-name="Trazado 873591" d="M194.685,418.952,180.726,403.19,167.84,419.836" transform="translate(-167.84 -321.899)" fill="none" stroke="#000302" stroke-linecap="round" stroke-linejoin="round" stroke-miterlimit="10" stroke-width="0.5"/>
                          <line id="Línea_1610" data-name="Línea 1610" y1="70.524" x2="1.47" transform="translate(12.48 7.223)" fill="none" stroke="#000302" stroke-linecap="round" stroke-linejoin="round" stroke-miterlimit="10" stroke-width="0.5"/>
                        </g>
                      </g>
                      <g id="Grupo_1099408" data-name="Grupo 1099408" transform="translate(184.918 258.928)">
                        <path id="Trazado_873592" data-name="Trazado 873592" d="M220.686,327.48l4.635,98.65H156l-15.555-8.3L157.6,327.48Z" transform="translate(-140.45 -327.48)" fill="#fff484"/>
                        <path id="Trazado_873593" data-name="Trazado 873593" d="M231.1,426.13l-15.555-8.3L232.7,327.48Z" transform="translate(-215.55 -327.48)" fill="#f2b83d"/>
                        <g id="Grupo_1099403" data-name="Grupo 1099403" transform="translate(31.282 5.986)">
                          <path id="Trazado_873594" data-name="Trazado 873594" d="M180.014,368.873a19.523,19.523,0,0,0,2.155-.117c6.61-.721,11.082-6.916,12.922-17.908a78.817,78.817,0,0,0,.812-16.412.344.344,0,1,0-.685.054c.027.316,2.119,31.921-13.129,33.59a14.587,14.587,0,0,1-12.02-3.679c-9.27-8.575-8.747-28.91-8.747-29.117a.337.337,0,0,0-.334-.352.349.349,0,0,0-.352.334,66.228,66.228,0,0,0,.875,11.461c.947,5.753,3.12,13.58,8.1,18.179A14.888,14.888,0,0,0,180.014,368.873Z" transform="translate(-160.627 -334.118)" fill="#000302"/>
                        </g>
                        <g id="Grupo_1099406" data-name="Grupo 1099406" transform="translate(29.17 3.705)">
                          <g id="Grupo_1099404" data-name="Grupo 1099404" transform="translate(34.373)">
                            <path id="Trazado_873595" data-name="Trazado 873595" d="M160.066,337.19a2.718,2.718,0,0,0,.658.063,2.831,2.831,0,0,0,2.759-2.9,2.838,2.838,0,0,0-4.887-1.885,2.785,2.785,0,0,0-.775,2.029A2.839,2.839,0,0,0,160.066,337.19Zm.974-4.554a1.823,1.823,0,1,1-1.7.523,1.792,1.792,0,0,1,1.271-.568A2.182,2.182,0,0,1,161.04,332.636Z" transform="translate(-157.819 -331.589)" fill="#000302"/>
                          </g>
                          <g id="Grupo_1099405" data-name="Grupo 1099405" transform="translate(0 0.739)">
                            <path id="Trazado_873596" data-name="Trazado 873596" d="M198.176,338.01a3.284,3.284,0,0,0,.667.063,2.836,2.836,0,1,0-.667-.063Zm.974-4.554a1.834,1.834,0,1,1-.424-.036A1.648,1.648,0,0,1,199.15,333.456Z" transform="translate(-195.939 -332.409)" fill="#000302"/>
                          </g>
                        </g>
                        <g id="Grupo_1099407" data-name="Grupo 1099407" transform="translate(0.568 9.369)">
                          <line id="Línea_1611" data-name="Línea 1611" x1="2.047" y2="88.253" transform="translate(13.49)" fill="none" stroke="#000302" stroke-linecap="round" stroke-linejoin="round" stroke-miterlimit="10" stroke-width="0.5"/>
                          <path id="Trazado_873597" data-name="Trazado 873597" d="M232.47,433.952l-5.555-16.411-7.935,8.7" transform="translate(-218.98 -345.699)" fill="none" stroke="#000302" stroke-linecap="round" stroke-linejoin="round" stroke-miterlimit="10" stroke-width="0.5"/>
                          <line id="Línea_1612" data-name="Línea 1612" y1="61.056" x2="6.069" transform="translate(8.098 7.232)" fill="none" stroke="#000302" stroke-linecap="round" stroke-linejoin="round" stroke-miterlimit="10" stroke-width="0.5"/>
                        </g>
                      </g>
                      <g id="Grupo_1099478" data-name="Grupo 1099478" transform="translate(21.84)">
                        <g id="Grupo_1099412" data-name="Grupo 1099412" transform="translate(91.214)">
                          <g id="Grupo_1099409" data-name="Grupo 1099409" transform="translate(3.81)">
                            <path id="Trazado_873598" data-name="Trazado 873598" d="M273.735,53.306s9.54-12.841,11.849-12.119,4.905,9.91,4.247,11.38S273.735,53.306,273.735,53.306Z" transform="translate(-257.197 -40.416)" fill="#f6428c"/>
                            <path id="Trazado_873599" data-name="Trazado 873599" d="M297.357,53.207s-6.637-13.156-8.846-12.868-6.006,8.224-5.636,9.667C283.227,51.449,297.357,53.207,297.357,53.207Z" transform="translate(-272.839 -40.335)" fill="#ff6cb6"/>
                            <path id="Trazado_873600" data-name="Trazado 873600" d="M286.06,53.969s-1.443-2.858-3.21-5.879" transform="translate(-261.542 -41.097)" fill="none" stroke="#000302" stroke-linecap="round" stroke-linejoin="round" stroke-miterlimit="10" stroke-width="0.5"/>
                            <path id="Trazado_873601" data-name="Trazado 873601" d="M282.95,81.038l19.306,3.382,5.122-30.848L288.072,50.19Z" transform="translate(-282.95 -41.303)" fill="#8d67de"/>
                            <path id="Trazado_873602" data-name="Trazado 873602" d="M266.59,84.788l15.059.812,4.815-29.072L271.712,53.94Z" transform="translate(-247.284 -41.672)" fill="#6343b2"/>
                            <path id="Trazado_873603" data-name="Trazado 873603" d="M289.81,82.428l5.96,1.046,5.122-30.848-5.951-1.046Z" transform="translate(-282.65 -41.44)" fill="#f6428c"/>
                            <path id="Trazado_873604" data-name="Trazado 873604" d="M281.784,55.841l-4.905,29.613-5.338-.289,5.014-30.235Z" transform="translate(-247.067 -41.769)" fill="#f6428c"/>
                          </g>
                          <path id="Trazado_873605" data-name="Trazado 873605" d="M277.159,77.01s-.433-2.128-1.812-1.8-4.761,7.62-4.941,9.6,4.418,9.144,6.655,10.677,11.587,2.155,11.587,2.155l6.069,18.747,15.239-8.648L297.917,91.519s-1.181-9.279-12.282-7.89c0,0,.794-1.758,1.56-3.228s-.388-3.472-1.082-3.508-1.912,1.434-1.912,1.434-.28-2.263-1.163-2.525-2.146,1.461-2.146,1.461,0-1.785-.884-2.047C279.125,74.972,277.159,77.01,277.159,77.01Z" transform="translate(-270.4 -43.758)" fill="#ff8e6a"/>
                          <g id="Grupo_1099410" data-name="Grupo 1099410" transform="translate(14.838 39.419)">
                            <path id="Trazado_873606" data-name="Trazado 873606" d="M286,86.324a4.12,4.12,0,0,1,.4-1.785c5.519-.866,8.557,1.244,10.253,3.363l-2.372-.126Z" transform="translate(-286 -84.078)" fill="#8d67de"/>
                            <path id="Trazado_873607" data-name="Trazado 873607" d="M288.354,88.06,286,87.934l.307-1.984A6.436,6.436,0,0,1,288.354,88.06Z" transform="translate(-277.704 -84.237)" fill="#6343b2"/>
                            <path id="Trazado_873608" data-name="Trazado 873608" d="M295.407,84.51a5.245,5.245,0,0,1,2.128-.46l-.433,2.615-2.092-.37A4.12,4.12,0,0,1,295.407,84.51Z" transform="translate(-295.01 -84.05)" fill="#f6428c"/>
                          </g>
                          <g id="Grupo_1099411" data-name="Grupo 1099411" transform="translate(2.665 33.243)">
                            <path id="Trazado_873609" data-name="Trazado 873609" d="M306.78,85.4a13.583,13.583,0,0,1,.9-4.4,17.635,17.635,0,0,1,3.183-3.8" transform="translate(-306.78 -77.2)" fill="none" stroke="#000302" stroke-linecap="round" stroke-linejoin="round" stroke-miterlimit="10" stroke-width="0.5"/>
                            <path id="Trazado_873610" data-name="Trazado 873610" d="M302.63,86.211c.036.09.5-3.156,1.262-4.446A49.907,49.907,0,0,1,307.13,77.5" transform="translate(-299.303 -77.229)" fill="none" stroke="#000302" stroke-linecap="round" stroke-linejoin="round" stroke-miterlimit="10" stroke-width="0.5"/>
                            <path id="Trazado_873611" data-name="Trazado 873611" d="M298.96,86.507A10.15,10.15,0,0,1,300,82.792c.839-1.326,2.913-4.112,2.913-4.112" transform="translate(-291.773 -77.345)" fill="none" stroke="#000302" stroke-linecap="round" stroke-linejoin="round" stroke-miterlimit="10" stroke-width="0.5"/>
                            <path id="Trazado_873612" data-name="Trazado 873612" d="M297.768,84.56a3.645,3.645,0,0,0-.189,2.831" transform="translate(-285.198 -77.923)" fill="none" stroke="#000302" stroke-linecap="round" stroke-linejoin="round" stroke-miterlimit="10" stroke-width="0.5"/>
                          </g>
                        </g>
                        <g id="Grupo_1099413" data-name="Grupo 1099413" transform="translate(112.121 57.851)">
                          <path id="Trazado_873613" data-name="Trazado 873613" d="M275.388,150.009c-9.342-.532-48.252-1.425-49.316-2.146S207.9,104.49,207.9,104.49l-16.493,9.062s19.3,53.608,22.156,56.827S275.4,183.6,275.4,183.6,288.653,150.758,275.388,150.009Z" transform="translate(-191.41 -104.49)" fill="#f2b83d"/>
                          <path id="Trazado_873614" data-name="Trazado 873614" d="M258.268,151.758c-12.354-.415-24.545-.866-25.14-1.262-.487-.325-4.337-9.432-8.368-19.216" transform="translate(-198.465 -107.123)" fill="none" stroke="#000302" stroke-linecap="round" stroke-linejoin="round" stroke-miterlimit="10" stroke-width="0.75"/>
                        </g>
                        <g id="Grupo_1099448" data-name="Grupo 1099448" transform="translate(183.317 39.576)">
                          <g id="Grupo_1099414" data-name="Grupo 1099414" transform="translate(0)">
                            <path id="Trazado_873615" data-name="Trazado 873615" d="M119.108,108.657c-4.5-2.633-4.527-14.211,2.308-11.939-.289-4.1-.433-9,3.941-11.073,3.8-1.84,6.763,1.3,7.611,4.969,5-9.973,24.383-7.989,24.626,3.977,10.28-4.644,19.64,5.7,15.032,15.636,6.1-2.588,16.177-1.722,20.478,3.679,5.771,6.664-1.975,11.136-7.755,12.714,7.557,4.184,18.44,8.134,16.664,19.261-.676,4.364-4.382,7.575-8.2,9.216-5.519,2.543-9.982.5-15.194-1.1,1.65,9.5-4.987,18.612-14.671,20.469-11.046,2.146-22.21-5.906-22.633-17.656-7.953,9.784-20.695-3.859-16.033-13.021-8.007.559-13.643-1.407-14.094-10.6-.271-6.655,3.255-9.658,8.1-13.328Z" transform="translate(-111.176 -84.224)" fill="#172749"/>
                          </g>
                          <g id="Grupo_1099447" data-name="Grupo 1099447" transform="translate(5.665 3.861)">
                            <g id="Grupo_1099416" data-name="Grupo 1099416" transform="translate(54.183 39.919)">
                              <g id="Grupo_1099415" data-name="Grupo 1099415" transform="translate(0)">
                                <path id="Trazado_873616" data-name="Trazado 873616" d="M128.828,132.788A26.444,26.444,0,0,1,137.188,138c2.678,2.345,5.3,5.347,6.15,8.9a8.72,8.72,0,0,1-2.867,8.684c-2.3,1.794-5.4,1.84-8.143,1.289a24.476,24.476,0,0,1-8.774-3.724c-.243-.162-.018-.55.225-.388a24.858,24.858,0,0,0,7.25,3.336c2.624.73,5.69,1.073,8.2-.243a8.012,8.012,0,0,0,3.85-7.89c-.433-3.49-2.868-6.51-5.338-8.855a26.534,26.534,0,0,0-9.026-5.9c-.28-.081-.162-.523.117-.424Z" transform="translate(-123.449 -132.774)" fill="#000302"/>
                              </g>
                            </g>
                            <g id="Grupo_1099418" data-name="Grupo 1099418" transform="translate(48.925 40.486)">
                              <g id="Grupo_1099417" data-name="Grupo 1099417" transform="translate(0)">
                                <path id="Trazado_873617" data-name="Trazado 873617" d="M140.8,133.409a13.706,13.706,0,0,1,5.636,3.021,10.059,10.059,0,0,1,3.6,5.537,5.432,5.432,0,0,1-1.885,5.275,7.652,7.652,0,0,1-5.23,1.326,15.213,15.213,0,0,1-6.069-1.7c-.262-.135-.027-.523.225-.388a15.165,15.165,0,0,0,4.941,1.542,8.44,8.44,0,0,0,5.176-.694,4.9,4.9,0,0,0,2.471-4.77,8.888,8.888,0,0,0-3.093-5.41,13.528,13.528,0,0,0-5.9-3.318c-.28-.054-.153-.487.126-.424Z" transform="translate(-136.733 -133.403)" fill="#000302"/>
                              </g>
                            </g>
                            <g id="Grupo_1099420" data-name="Grupo 1099420" transform="translate(41.202 54.695)">
                              <g id="Grupo_1099419" data-name="Grupo 1099419" transform="translate(0)">
                                <path id="Trazado_873618" data-name="Trazado 873618" d="M150.6,149.178a12.522,12.522,0,0,1,8.08,10.307,9.929,9.929,0,0,1-1.308,6.222,12.027,12.027,0,0,1-4.833,4.617,7,7,0,0,1-6.646.081.224.224,0,0,1,.225-.388c3.914,2.173,8.377-.739,10.559-4.04a9.477,9.477,0,0,0,1.614-5.717,11.69,11.69,0,0,0-1.921-6.006,12.611,12.611,0,0,0-5.888-4.644c-.271-.108-.153-.541.117-.433Z" transform="translate(-145.783 -149.161)" fill="#000302"/>
                              </g>
                            </g>
                            <g id="Grupo_1099422" data-name="Grupo 1099422" transform="translate(35.533 55.079)">
                              <g id="Grupo_1099421" data-name="Grupo 1099421" transform="translate(0)">
                                <path id="Trazado_873619" data-name="Trazado 873619" d="M159.942,149.6a7.514,7.514,0,0,1,4.175,3.481,9.462,9.462,0,0,1,1.01,5.212c-.262,3.445-2.11,7.214-5.446,8.612a7.386,7.386,0,0,1-6.15-.424c-.262-.126-.036-.514.225-.388a7.05,7.05,0,0,0,5.248.586,7.464,7.464,0,0,0,3.8-2.976,10.58,10.58,0,0,0,1.244-9.73,7.046,7.046,0,0,0-4.22-3.932c-.28-.1-.162-.532.117-.442Z" transform="translate(-153.415 -149.586)" fill="#000302"/>
                              </g>
                            </g>
                            <g id="Grupo_1099424" data-name="Grupo 1099424" transform="translate(38.691 37.455)">
                              <g id="Grupo_1099423" data-name="Grupo 1099423" transform="translate(0)">
                                <path id="Trazado_873620" data-name="Trazado 873620" d="M158.161,130.1a9.675,9.675,0,0,1,2.5,10.613A11.486,11.486,0,0,1,152.715,148a9.424,9.424,0,0,1-6.375-.893c-.261-.135-.027-.523.225-.388a9.2,9.2,0,0,0,10.271-1.3,11.012,11.012,0,0,0,3.968-9.36,9.1,9.1,0,0,0-2.976-5.636c-.2-.2.117-.523.334-.325Z" transform="translate(-146.225 -130.041)" fill="#000302"/>
                              </g>
                            </g>
                            <g id="Grupo_1099426" data-name="Grupo 1099426" transform="translate(32.2 36.275)">
                              <g id="Grupo_1099425" data-name="Grupo 1099425" transform="translate(0)">
                                <path id="Trazado_873621" data-name="Trazado 873621" d="M165.475,128.775a7.606,7.606,0,0,1,2.227,9.252,8.826,8.826,0,0,1-3.1,3.85,9.131,9.131,0,0,1-6.547,1.308,10.154,10.154,0,0,1-3.2-1.145,5.876,5.876,0,0,1-2.408-1.984.224.224,0,0,1,.388-.225,4.992,4.992,0,0,0,1.957,1.659,10.067,10.067,0,0,0,2.525,1.082,8.941,8.941,0,0,0,6.6-.794,8.443,8.443,0,0,0,4-7.935,6.634,6.634,0,0,0-2.678-4.68c-.225-.171,0-.559.234-.388Z" transform="translate(-152.414 -128.733)" fill="#000302"/>
                              </g>
                            </g>
                            <g id="Grupo_1099428" data-name="Grupo 1099428" transform="translate(30.245 14.165)">
                              <g id="Grupo_1099427" data-name="Grupo 1099427" transform="translate(0)">
                                <path id="Trazado_873622" data-name="Trazado 873622" d="M163.545,104.427a32.179,32.179,0,0,0,.334,9.621,23.8,23.8,0,0,0,3.571,9.234,14.086,14.086,0,0,0,3.823,3.805c.243.162.018.55-.225.388-5.663-3.706-7.737-11.118-8.107-17.512a31.548,31.548,0,0,1,.153-5.537c.036-.28.487-.289.451,0Z" transform="translate(-162.884 -104.214)" fill="#000302"/>
                              </g>
                            </g>
                            <g id="Grupo_1099430" data-name="Grupo 1099430" transform="translate(40.294 9.328)">
                              <g id="Grupo_1099429" data-name="Grupo 1099429" transform="translate(0)">
                                <path id="Trazado_873623" data-name="Trazado 873623" d="M150.057,98.85a10.479,10.479,0,0,1,8.251,4.121,8.575,8.575,0,0,1,1.136,8.377,8.8,8.8,0,0,1-2.822,3.9c-.225.18-.451-.216-.225-.388a8.513,8.513,0,0,0-1.5-14.3,9.961,9.961,0,0,0-4.833-1.262.226.226,0,0,1-.009-.451Z" transform="translate(-149.842 -98.85)" fill="#000302"/>
                              </g>
                            </g>
                            <g id="Grupo_1099432" data-name="Grupo 1099432" transform="translate(59.21 23.377)">
                              <g id="Grupo_1099431" data-name="Grupo 1099431" transform="translate(0)">
                                <path id="Trazado_873624" data-name="Trazado 873624" d="M132.911,114.43c3.012.135,5.185,2.642,6.087,5.338a9.417,9.417,0,0,1-1.6,8.657,7.978,7.978,0,0,1-4.437,2.958c-.28.072-.406-.37-.117-.433a8.415,8.415,0,0,0,5.879-6.285,8.576,8.576,0,0,0-1.849-7.755,5.676,5.676,0,0,0-3.977-2.038.221.221,0,0,1,.009-.442Z" transform="translate(-132.684 -114.43)" fill="#000302"/>
                              </g>
                            </g>
                            <g id="Grupo_1099434" data-name="Grupo 1099434" transform="translate(52.349 25.07)">
                              <g id="Grupo_1099433" data-name="Grupo 1099433" transform="translate(0)">
                                <path id="Trazado_873625" data-name="Trazado 873625" d="M140.12,116.31c5.888-.18,8.765,8.3,5.51,12.588a7.771,7.771,0,0,1-5.753,2.94c-.289.009-.289-.442,0-.451a7.331,7.331,0,0,0,5.2-2.525,6.34,6.34,0,0,0,1.38-3.445,8.823,8.823,0,0,0-2.444-7.133,5.334,5.334,0,0,0-3.9-1.515c-.28,0-.28-.451.009-.46Z" transform="translate(-139.66 -116.307)" fill="#000302"/>
                              </g>
                            </g>
                            <g id="Grupo_1099436" data-name="Grupo 1099436" transform="translate(2.402 8.641)">
                              <g id="Grupo_1099435" data-name="Grupo 1099435" transform="translate(0)">
                                <path id="Trazado_873626" data-name="Trazado 873626" d="M200.247,98.423c-4.184,6.862-12.7,8.666-20.181,7.728a31.283,31.283,0,0,1-6.222-1.425c-.271-.09-.153-.532.117-.433,6.781,2.3,15.275,2.642,21.452-1.461A14.717,14.717,0,0,0,199.85,98.2c.162-.252.55-.027.4.225Z" transform="translate(-173.691 -98.088)" fill="#000302"/>
                              </g>
                            </g>
                            <g id="Grupo_1099438" data-name="Grupo 1099438" transform="translate(4.091 8.019)">
                              <g id="Grupo_1099437" data-name="Grupo 1099437" transform="translate(0)">
                                <path id="Trazado_873627" data-name="Trazado 873627" d="M198.743,98.229a32.7,32.7,0,0,0-8.7-.18,17.917,17.917,0,0,0-8.431,2.9,9.748,9.748,0,0,0-3.129,3.715c-.126.262-.514.036-.388-.225,2.75-5.771,10.1-7.1,15.861-7.043a34.381,34.381,0,0,1,4.905.4c.289.045.162.478-.117.433Z" transform="translate(-178.068 -97.398)" fill="#000302"/>
                              </g>
                            </g>
                            <g id="Grupo_1099440" data-name="Grupo 1099440" transform="translate(0 1.854)">
                              <g id="Grupo_1099439" data-name="Grupo 1099439">
                                <path id="Trazado_873628" data-name="Trazado 873628" d="M203.91,92.273a5.319,5.319,0,0,0-3.481-1.244,4.191,4.191,0,0,0-2.858,1.488c-1.831,2.11-1.858,5.239-1.046,7.773.072.234-.216.352-.379.216a3.654,3.654,0,0,0-5.194.523,3.983,3.983,0,0,0-.018,5.356c.2.216-.126.532-.316.316a4.436,4.436,0,0,1,.018-6,4.1,4.1,0,0,1,5.825-.523l-.379.216c-.866-2.723-.775-6.1,1.253-8.3a4.588,4.588,0,0,1,2.967-1.515,5.626,5.626,0,0,1,3.832,1.3c.234.18.009.568-.225.4Z" transform="translate(-189.46 -90.561)" fill="#000302"/>
                              </g>
                            </g>
                            <g id="Grupo_1099442" data-name="Grupo 1099442" transform="translate(33.325 13.949)">
                              <g id="Grupo_1099441" data-name="Grupo 1099441" transform="translate(0)">
                                <path id="Trazado_873629" data-name="Trazado 873629" d="M164.653,104.079a22.692,22.692,0,0,1,3.652,10.469,39.64,39.64,0,0,1,.054,5.573,13.723,13.723,0,0,1-.947,5.149c-.117.262-.514.036-.388-.225a13.977,13.977,0,0,0,.9-5.275,38.806,38.806,0,0,0-.063-5.221,22.194,22.194,0,0,0-3.589-10.244c-.171-.243.216-.469.379-.225Z" transform="translate(-164.231 -103.974)" fill="#000302"/>
                              </g>
                            </g>
                            <g id="Grupo_1099444" data-name="Grupo 1099444" transform="translate(37.407 13.142)">
                              <g id="Grupo_1099443" data-name="Grupo 1099443" transform="translate(0)">
                                <path id="Trazado_873630" data-name="Trazado 873630" d="M158.539,103.089c5.5,1.605,6.673,9.252,2.723,13.057a10.2,10.2,0,0,1-4.418,2.3v-.433c2.1.46,3.391,2.345,3.995,4.292a8.754,8.754,0,0,1-.216,6.168c-.126.261-.514.036-.388-.225a8.308,8.308,0,0,0,.207-5.7c-.541-1.849-1.722-3.661-3.715-4.1a.225.225,0,0,1,0-.433,10.338,10.338,0,0,0,3.76-1.785,7.2,7.2,0,0,0,2.254-3.372,7.9,7.9,0,0,0-.9-6.916,6.29,6.29,0,0,0-3.418-2.426.22.22,0,0,1,.117-.424Z" transform="translate(-156.564 -103.079)" fill="#000302"/>
                              </g>
                            </g>
                            <g id="Grupo_1099446" data-name="Grupo 1099446" transform="translate(21.755)">
                              <g id="Grupo_1099445" data-name="Grupo 1099445" transform="translate(0)">
                                <path id="Trazado_873631" data-name="Trazado 873631" d="M179.943,91.548c-1.957-2.146-5.528-3.4-8.278-2.083a7.879,7.879,0,0,0-3.607,7.277.224.224,0,0,1-.433.117,5.935,5.935,0,0,1,.37-3.372,9.613,9.613,0,0,1,1.885-3.246c1.722-1.885,4.482-2.083,6.781-1.317a8.6,8.6,0,0,1,3.6,2.3c.2.216-.117.541-.316.325Z" transform="translate(-167.51 -88.505)" fill="#000302"/>
                              </g>
                            </g>
                          </g>
                        </g>
                        <path id="Trazado_873632" data-name="Trazado 873632" d="M230.923,168.54s-8.774,48.288,19.739,69.028-51.218,66.972,58.531,94.574C309.194,332.141,283.666,183.824,230.923,168.54Z" transform="translate(-141.679 -52.933)" fill="#000302"/>
                        <path id="Trazado_873633" data-name="Trazado 873633" d="M389.139,173.073c-7.142-3.156-89.163,104.276-89.163,104.276s-24.085,11.578-24.085,13.319l45.258-2s3.607-4.319,2.705-8.5l70.5-64.717Z" transform="translate(-268.532 -53.372)" fill="#ff8e6a"/>
                        <path id="Trazado_873634" data-name="Trazado 873634" d="M260.362,267.78s-32.147,11.993-33.878,17.854,49.208,131.779,49.208,131.779l-33.923,11.741,56.016-.09s-4.509-63.175-24.347-106.459Z" transform="translate(-127.374 -62.685)" fill="#ff8e6a"/>
                        <g id="Grupo_1099450" data-name="Grupo 1099450" transform="translate(88.346 115.527)">
                          <path id="Trazado_873635" data-name="Trazado 873635" d="M298.732,244.565c3.868,14.689,2.705,46.466-21.164,53.942-44.6,13.968-54.248,33.617-54.248,33.617s-37.882-3.219-51.462-45.2c-11.317-34.978,36.457-50.822-.361-68.8-24.879-12.155-29.667-27.16-26.448-49.586,0,0,25.249-1.109,44.906,4.96s52.661,48.558,52.661,48.558l4.292-7.863,42.886,6.429C289.8,220.624,294.71,229.272,298.732,244.565Z" transform="translate(-144.16 -168.452)" fill="#6343b2"/>
                          <g id="Grupo_1099449" data-name="Grupo 1099449" transform="translate(21.926 0.783)">
                            <path id="Trazado_873636" data-name="Trazado 873636" d="M155.768,267c-2.922-13.337,5.32-35.15-8.738-43.355l1.794-3.291c6.492,4.157,11.515,12.309,12.354,19.595,1.353,11.723-3.156,22.994,7.665,32.012,6.339,5.573,20.217,6.592,31.479,9.856-2.038,6.42-5.41,12.354-10.64,16.646-3.814-3.327-8.8-5.807-12.732-8.007C167.941,285.482,158.473,278.268,155.768,267Z" transform="translate(-68.578 -174.335)" fill="#8d67de"/>
                            <path id="Trazado_873637" data-name="Trazado 873637" d="M203.125,271.8a44.873,44.873,0,0,1,.451-40.127c4.734-9.459,13.571-17.719,15.843-26.682.784.848,1.56,1.686,2.308,2.516a40.9,40.9,0,0,1-6.429,14.7c-8.566,12.173-17.133,27.052-8.566,41.931,7.214,12.624,21.191,18.936,29.757,30.208a51.13,51.13,0,0,1,9.315,18.35,102.392,102.392,0,0,0-15.311,9.612,58.127,58.127,0,0,0-3.03-16.24C222.963,292.539,209.437,284.874,203.125,271.8Z" transform="translate(-160.571 -172.825)" fill="#8d67de"/>
                            <path id="Trazado_873638" data-name="Trazado 873638" d="M250.976,279.115c2.705-14.428,11.723-25.249,10.821-40.578-.9-13.977-6.763-22.543-14.428-33.815-8.584-12.723-9.991-23.211-7.854-35.4.83.081,1.668.162,2.516.262a42.167,42.167,0,0,0,1.731,15.3c5.41,15.78,21.642,22.994,23.9,41.029,2.254,14.879-2.254,28.4-6.763,42.381-5.861,15.329-5.41,31.11,7.214,42.832,7.557,6.952,15.1,11.876,19.667,19.387A62.669,62.669,0,0,1,250.8,301.5,65.3,65.3,0,0,1,250.976,279.115Z" transform="translate(-238.63 -169.32)" fill="#8d67de"/>
                          </g>
                          <line id="Línea_1613" data-name="Línea 1613" x1="9.567" y2="16.357" transform="translate(93.182 45.734)" fill="none" stroke="#000302" stroke-linecap="round" stroke-linejoin="round" stroke-miterlimit="10" stroke-width="0.75"/>
                          <path id="Trazado_873639" data-name="Trazado 873639" d="M208.25,168.531s25.249-1.109,44.906,4.96,52.661,48.558,52.661,48.558" transform="translate(-207.351 -168.452)" fill="none" stroke="#000302" stroke-linecap="round" stroke-linejoin="round" stroke-miterlimit="10" stroke-width="0.75"/>
                        </g>
                        <g id="Grupo_1099451" data-name="Grupo 1099451" transform="translate(191.095 103.182)">
                          <path id="Trazado_873640" data-name="Trazado 873640" d="M196.438,219.279s3.219-49.667,1.785-52.174-37.53-13.941-39.667-12.155-5,57.9-5,57.9S166.78,219.991,196.438,219.279Z" transform="translate(-153.552 -154.761)" fill="#f2b83d"/>
                          <path id="Trazado_873641" data-name="Trazado 873641" d="M201.891,154.97c-1.317,1.1-2.913,22.76-3.941,39.261" transform="translate(-196.886 -154.782)" fill="none" stroke="#000302" stroke-linecap="round" stroke-linejoin="round" stroke-miterlimit="10" stroke-width="0.75"/>
                        </g>
                        <g id="Grupo_1099458" data-name="Grupo 1099458" transform="translate(84.375 179.945)">
                          <g id="Grupo_1099455" data-name="Grupo 1099455" transform="translate(0 25.844)">
                            <path id="Trazado_873642" data-name="Trazado 873642" d="M258.332,309.949s-7.9-32.165,6.312-40.163,18.981,24.852,9.865,42.715" transform="translate(-219.918 -268.55)" fill="none" stroke="#000302" stroke-linecap="round" stroke-linejoin="round" stroke-miterlimit="10" stroke-width="0.5"/>
                            <path id="Trazado_873643" data-name="Trazado 873643" d="M228.09,375.257l68.315,15.266,16.231-10.442-11.614-72.31L251.4,301.82l-.92,1.984-6.024,1.677Z" transform="translate(-228.09 -271.819)" fill="#ff6cb6"/>
                            <path id="Trazado_873644" data-name="Trazado 873644" d="M233.185,391.172l16.231-10.442L237.8,308.42,228.09,311l1.578,2.786Z" transform="translate(-164.87 -272.468)" fill="#f6428c"/>
                            <path id="Trazado_873645" data-name="Trazado 873645" d="M242.61,306.57l46.944,6.655-1.578-2.786,8.233-2.182-47.5-5.537-.848,1.794Z" transform="translate(-224.756 -271.908)" fill="#000302"/>
                            <g id="Grupo_1099454" data-name="Grupo 1099454" transform="translate(29.495 0.532)">
                              <g id="Grupo_1099452" data-name="Grupo 1099452" transform="translate(0 38.783)">
                                <path id="Trazado_873646" data-name="Trazado 873646" d="M288.57,314.828a2.618,2.618,0,0,0-2.552-2.678,2.611,2.611,0,1,0-.135,5.221,2.319,2.319,0,0,0,.613-.054A2.6,2.6,0,0,0,288.57,314.828Zm-2.561-1.749a1.679,1.679,0,0,1,1.632,1.722,1.682,1.682,0,1,1-2.038-1.686A2.059,2.059,0,0,1,286.009,313.079Z" transform="translate(-283.339 -312.149)" fill="#000302"/>
                              </g>
                              <g id="Grupo_1099453" data-name="Grupo 1099453" transform="translate(16.195 41.335)">
                                <path id="Trazado_873647" data-name="Trazado 873647" d="M270.611,317.658a2.611,2.611,0,1,0-2.678,2.543,3.443,3.443,0,0,0,.613-.054A2.617,2.617,0,0,0,270.611,317.658Zm-2.57-1.749a1.675,1.675,0,1,1-.4.036A1.907,1.907,0,0,1,268.041,315.909Z" transform="translate(-265.389 -314.979)" fill="#000302"/>
                              </g>
                              <line id="Línea_1614" data-name="Línea 1614" x2="3.147" y2="73.185" transform="translate(35.809 42.805)" fill="none" stroke="#000302" stroke-linecap="round" stroke-linejoin="round" stroke-miterlimit="10" stroke-width="0.5"/>
                              <path id="Trazado_873648" data-name="Trazado 873648" d="M229.9,396.121l5.122-15.131,9.342,5.888" transform="translate(-190.944 -280.131)" fill="none" stroke="#000302" stroke-linecap="round" stroke-linejoin="round" stroke-miterlimit="10" stroke-width="0.5"/>
                              <line id="Línea_1615" data-name="Línea 1615" x1="5.6" y1="56.295" transform="translate(38.333 41.29)" fill="none" stroke="#000302" stroke-linecap="round" stroke-linejoin="round" stroke-miterlimit="10" stroke-width="0.5"/>
                              <path id="Trazado_873649" data-name="Trazado 873649" d="M265.312,310.539s-7.9-32.165,6.312-40.163,18.981,24.852,9.865,42.715" transform="translate(-262.687 -269.14)" fill="none" stroke="#000302" stroke-linecap="round" stroke-linejoin="round" stroke-miterlimit="10" stroke-width="0.5"/>
                            </g>
                          </g>
                          <g id="Grupo_1099457" data-name="Grupo 1099457" transform="translate(39.382)">
                            <path id="Trazado_873650" data-name="Trazado 873650" d="M232.054,277.519c-4.815,8.684-12.787,3.8-12.787,3.8-.884.812-2.426,2.263-5.492.667s-3.273-3.724-3.273-3.724c-1.632-.9-1.849-3.318-1.849-3.318a2.734,2.734,0,0,1-1.785-2.173,2.941,2.941,0,0,1-1.632-2.606c-.216-2.363,5.365-9.946,8.621-9.811,3.084.126,12.444,5.906,12.444,5.906l31.723-26.367,12.985,18.071Z" transform="translate(-205.23 -239.89)" fill="#ff8e6a"/>
                            <g id="Grupo_1099456" data-name="Grupo 1099456" transform="translate(1.638 25.393)">
                              <path id="Trazado_873651" data-name="Trazado 873651" d="M262.61,281.62a16.181,16.181,0,0,0,4.094,3.8" transform="translate(-254.305 -269.383)" fill="none" stroke="#000302" stroke-linecap="round" stroke-linejoin="round" stroke-miterlimit="10" stroke-width="0.5"/>
                              <path id="Trazado_873652" data-name="Trazado 873652" d="M271.806,275.43s-5.023,3.165-4.914,6.321" transform="translate(-263.267 -268.775)" fill="none" stroke="#000302" stroke-linecap="round" stroke-linejoin="round" stroke-miterlimit="10" stroke-width="0.5"/>
                              <path id="Trazado_873653" data-name="Trazado 873653" d="M269.853,278.049c-.09-1.19,1.6-4.725,4.085-6.529" transform="translate(-268.068 -268.391)" fill="none" stroke="#000302" stroke-linecap="round" stroke-linejoin="round" stroke-miterlimit="10" stroke-width="0.5"/>
                              <path id="Trazado_873654" data-name="Trazado 873654" d="M271.03,275.543c.045-1.632,1.722-4.878,4.806-7.493" transform="translate(-271.03 -268.05)" fill="none" stroke="#000302" stroke-linecap="round" stroke-linejoin="round" stroke-miterlimit="10" stroke-width="0.5"/>
                            </g>
                          </g>
                          <path id="Trazado_873655" data-name="Trazado 873655" d="M267.19,285.03c1.461,9.27.262,21.137-4.067,29.622" transform="translate(-214.826 -244.326)" fill="none" stroke="#000302" stroke-linecap="round" stroke-linejoin="round" stroke-miterlimit="10" stroke-width="0.5"/>
                        </g>
                        <g id="Grupo_1099459" data-name="Grupo 1099459" transform="translate(166.478 109.283)">
                          <path id="Trazado_873656" data-name="Trazado 873656" d="M219.459,184.533c-5.428,10.28-26.655,52.724-28.161,54.23s-25.537,18.576-25.537,18.576l-16.7-19.27s20.514-16.926,22.219-18.08,22.083-42.381,25.961-49.307c5.275-9.423,13.5-11.867,21.479-5.951C225.176,169.519,222.714,178.365,219.459,184.533Z" transform="translate(-149.051 -161.527)" fill="#f2b83d"/>
                          <path id="Trazado_873657" data-name="Trazado 873657" d="M177.37,239.076s20.514-16.926,22.219-18.08,22.083-42.381,25.961-49.307" transform="translate(-177.37 -162.526)" fill="none" stroke="#000302" stroke-linecap="round" stroke-linejoin="round" stroke-miterlimit="10" stroke-width="0.75"/>
                          <path id="Trazado_873658" data-name="Trazado 873658" d="M165.519,165.08c6.465,4.788,4,13.634.739,19.8-2.958,5.6-10.6,20.74-17.2,33.608" transform="translate(-95.861 -161.876)" fill="none" stroke="#000302" stroke-linecap="round" stroke-linejoin="round" stroke-miterlimit="10" stroke-width="0.75"/>
                        </g>
                        <path id="Trazado_873659" data-name="Trazado 873659" d="M191.311,159.075s-9.919,10.352-17.981,9.053c0,0-2.326-25.3-1.776-25.113s18.1-6.465,18.1-6.465Z" transform="translate(28.667 -49.79)" fill="#ff8e6a"/>
                        <g id="Grupo_1099464" data-name="Grupo 1099464" transform="translate(185.895 59.375)">
                          <path id="Trazado_873660" data-name="Trazado 873660" d="M204.6,130.238c.225-.424.433-.848.631-1.271-7.98-8.675-7.52-22.787-7.52-22.787-9.324,6.222-20.262,3.4-23.436,2.633a32.825,32.825,0,0,0-3.264,5.591c-5.528,11.966-2.75,23.553,6.763,28.2C188.179,147.66,198.2,142.186,204.6,130.238Z" transform="translate(-168.19 -106.18)" fill="#ff8e6a"/>
                          <path id="Trazado_873661" data-name="Trazado 873661" d="M202.195,114.817a34.069,34.069,0,0,1,2.867-5.23c-.884-.18-1.614-.361-2.128-.487a32.824,32.824,0,0,0-3.264,5.591c-5.528,11.966-2.75,23.553,6.763,28.2.541.261,1.073.487,1.605.694C199.363,138.37,196.929,126.774,202.195,114.817Z" transform="translate(-196.841 -106.467)" fill="#ff9c7c"/>
                          <path id="Trazado_873662" data-name="Trazado 873662" d="M176.42,147.911c5.293.794,10.334-1.073,14.662-5.041" transform="translate(-161.463 -109.785)" fill="none" stroke="#000302" stroke-linecap="round" stroke-linejoin="round" stroke-miterlimit="10" stroke-width="0.5"/>
                          <path id="Trazado_873663" data-name="Trazado 873663" d="M167.57,108.525s13.156,5.212,24.5-2.345c0,0-.433,14.834,8.08,23.382" transform="translate(-162.55 -106.18)" fill="none" stroke="#000302" stroke-linecap="round" stroke-linejoin="round" stroke-miterlimit="10" stroke-width="0.5"/>
                          <g id="Grupo_1099460" data-name="Grupo 1099460" transform="translate(1.562 11.772)">
                            <path id="Trazado_873664" data-name="Trazado 873664" d="M180.164,132.627a1.876,1.876,0,1,1-.117-2.651A1.872,1.872,0,0,1,180.164,132.627Z" transform="translate(-153.035 -120.242)" fill="#ff6cb6"/>
                            <path id="Trazado_873665" data-name="Trazado 873665" d="M206.823,121.719a1.484,1.484,0,1,1-2.191-2,1.484,1.484,0,0,1,2.191,2Z" transform="translate(-204.24 -119.235)" fill="#ff6cb6"/>
                          </g>
                          <g id="Grupo_1099463" data-name="Grupo 1099463" transform="translate(3.767 10.28)">
                            <path id="Trazado_873666" data-name="Trazado 873666" d="M199.95,121.72c-1.948,2.723-4.238,6.141-4,6.862.406,1.244,2.29,1.867,2.29,1.867" transform="translate(-191.69 -117.987)" fill="none" stroke="#000302" stroke-linecap="round" stroke-linejoin="round" stroke-miterlimit="10" stroke-width="0.75"/>
                            <path id="Trazado_873667" data-name="Trazado 873667" d="M188.64,134.13s6.06,6.276,11.524-.73" transform="translate(-185.331 -119.135)" fill="none" stroke="#000302" stroke-linecap="round" stroke-linejoin="round" stroke-miterlimit="10" stroke-width="0.75"/>
                            <g id="Grupo_1099461" data-name="Grupo 1099461" transform="translate(12.895 5.674)">
                              <path id="Trazado_873668" data-name="Trazado 873668" d="M180.46,125.006s5.843-3.859,9.315,2.66" transform="translate(-180.46 -123.872)" fill="none" stroke="#000302" stroke-linecap="round" stroke-linejoin="round" stroke-miterlimit="10" stroke-width="0.75"/>
                              <line id="Línea_1616" data-name="Línea 1616" y1="0.514" x2="1.091" transform="translate(7.845 1.233)" fill="none" stroke="#000302" stroke-linecap="round" stroke-linejoin="round" stroke-miterlimit="10" stroke-width="0.75"/>
                              <line id="Línea_1617" data-name="Línea 1617" y1="0.171" x2="1.479" transform="translate(8.783 2.748)" fill="none" stroke="#000302" stroke-linecap="round" stroke-linejoin="round" stroke-miterlimit="10" stroke-width="0.75"/>
                            </g>
                            <g id="Grupo_1099462" data-name="Grupo 1099462" transform="translate(0)">
                              <path id="Trazado_873669" data-name="Trazado 873669" d="M198.81,119.043s3.436-2.786,5.113,2.056" transform="translate(-198.26 -117.645)" fill="none" stroke="#000302" stroke-linecap="round" stroke-linejoin="round" stroke-miterlimit="10" stroke-width="0.75"/>
                              <line id="Línea_1618" data-name="Línea 1618" x1="0.983" y1="0.812" transform="translate(0 0.298)" fill="none" stroke="#000302" stroke-linecap="round" stroke-linejoin="round" stroke-miterlimit="10" stroke-width="0.75"/>
                              <line id="Línea_1619" data-name="Línea 1619" x1="0.271" y1="0.785" transform="translate(1.434)" fill="none" stroke="#000302" stroke-linecap="round" stroke-linejoin="round" stroke-miterlimit="10" stroke-width="0.75"/>
                            </g>
                          </g>
                        </g>
                        <g id="Grupo_1099465" data-name="Grupo 1099465" transform="translate(217.519 84.04)">
                          <path id="Trazado_873670" data-name="Trazado 873670" d="M169.527,142.484a4.514,4.514,0,1,1,3.607-5.275A4.513,4.513,0,0,1,169.527,142.484Z" transform="translate(-164.173 -133.533)" fill="#ff8e6a"/>
                          <path id="Trazado_873671" data-name="Trazado 873671" d="M169.482,141.264a2.386,2.386,0,1,1,1.9-2.786A2.388,2.388,0,0,1,169.482,141.264Z" transform="translate(-164.624 -133.828)" fill="#d46643"/>
                          <path id="Trazado_873672" data-name="Trazado 873672" d="M171.509,137.953c-.785-1.894-3.192-1.587-4.148-.379-.929,1.172-.451,3.147.911,2.913a1.17,1.17,0,0,0,.785-1.767A1.541,1.541,0,0,0,167.09,138" transform="translate(-164.911 -133.834)" fill="none" stroke="#000302" stroke-linecap="round" stroke-linejoin="round" stroke-miterlimit="10" stroke-width="0.5"/>
                          <path id="Trazado_873673" data-name="Trazado 873673" d="M170.189,138.9a4.512,4.512,0,0,1,3.607-5.275" transform="translate(-170.11 -133.541)" fill="none" stroke="#000302" stroke-linecap="round" stroke-linejoin="round" stroke-miterlimit="10" stroke-width="0.5"/>
                        </g>
                        <g id="Grupo_1099471" data-name="Grupo 1099471" transform="translate(113.249 345.064)">
                          <path id="Trazado_873674" data-name="Trazado 873674" d="M243.305,431.945l-3.607-8.17c1.6-2.254,13.418.5,15.068,7.214,0,0,13.3,4.121,22.11-1.831,2.85,8.3,5.086,15.257,5.086,15.257H221.42C221.411,444.407,221.411,433.7,243.305,431.945Z" transform="translate(-220.275 -423.003)" fill="#0cc9cd"/>
                          <line id="Línea_1620" data-name="Línea 1620" y1="3.4" x2="22.174" transform="translate(10.307 10.115)" fill="none" stroke="#000302" stroke-linecap="round" stroke-linejoin="round" stroke-miterlimit="10" stroke-width="0.5"/>
                          <g id="Grupo_1099470" data-name="Grupo 1099470" transform="translate(0 3.226)">
                            <g id="Grupo_1099467" data-name="Grupo 1099467" transform="translate(0 6.781)">
                              <g id="Grupo_1099466" data-name="Grupo 1099466" transform="translate(0 10.262)">
                                <path id="Trazado_873675" data-name="Trazado 873675" d="M221.306,447.752h60.551a1.136,1.136,0,0,0-.009-2.272H221.306a1.136,1.136,0,0,0,0,2.272Z" transform="translate(-220.17 -445.48)" fill="#fff"/>
                              </g>
                              <path id="Trazado_873676" data-name="Trazado 873676" d="M282.623,434.1a26.822,26.822,0,0,1,5.194,11.4H271.27C271.261,445.5,271.279,438.3,282.623,434.1Z" transform="translate(-271.081 -434.1)" fill="#fff"/>
                            </g>
                            <g id="Grupo_1099468" data-name="Grupo 1099468" transform="translate(14.561 6.445)">
                              <path id="Trazado_873677" data-name="Trazado 873677" d="M271.007,433.838a6.889,6.889,0,0,1,2.326,3.652c.117.541-.721.775-.839.234a6.1,6.1,0,0,0-2.11-3.273c-.415-.361.207-.974.622-.613Z" transform="translate(-270.248 -433.728)" fill="#fff"/>
                            </g>
                            <g id="Grupo_1099469" data-name="Grupo 1099469" transform="translate(18.56 5.142)">
                              <path id="Trazado_873678" data-name="Trazado 873678" d="M266.572,432.4a6.888,6.888,0,0,1,2.326,3.652c.117.55-.712.775-.839.234a6.14,6.14,0,0,0-2.1-3.273c-.424-.37.2-.983.613-.613Z" transform="translate(-265.817 -432.283)" fill="#fff"/>
                            </g>
                            <path id="Trazado_873679" data-name="Trazado 873679" d="M256.546,427.852c.4-1.749,2.065-1.434,3.165-.6a6.118,6.118,0,0,1,2.3,3.706c1.316-1.831,4.409-2.714,6.132-1.244,1.235,1.055.343,2.308-.748,2.931a6.038,6.038,0,0,1-5.591.135.161.161,0,0,1-.09-.081.121.121,0,0,1-.045-.027C259.134,433.244,255.969,430.421,256.546,427.852Zm9.757,4.455a4.288,4.288,0,0,0,1.362-.748c1-.839-.4-1.605-.974-1.767a4.147,4.147,0,0,0-4.446,2.372A5.274,5.274,0,0,0,266.3,432.306Zm-4.96-.325a5.228,5.228,0,0,0-1.587-3.67,4.093,4.093,0,0,0-1.371-.974c-.911-.361-1.19.73-1.163,1.389C257.3,430.448,259.63,432.225,261.343,431.981Z" transform="translate(-238.664 -426.581)" fill="#fff"/>
                          </g>
                          <line id="Línea_1621" data-name="Línea 1621" x1="46.079" transform="translate(1.145 20.268)" fill="none" stroke="#000302" stroke-linecap="round" stroke-linejoin="round" stroke-miterlimit="10" stroke-width="0.5"/>
                        </g>
                        <g id="Grupo_1099477" data-name="Grupo 1099477" transform="translate(0 219.372)">
                          <path id="Trazado_873680" data-name="Trazado 873680" d="M368.886,292.555l-3.607-8.17c1.6-2.254,13.418.5,15.068,7.214,0,0,13.3,4.121,22.11-1.831,2.849,8.3,5.095,15.257,5.095,15.257H347.01C347,305.026,347,294.323,368.886,292.555Z" transform="translate(-345.865 -283.613)" fill="#0cc9cd"/>
                          <line id="Línea_1622" data-name="Línea 1622" y1="3.4" x2="22.183" transform="translate(10.298 10.124)" fill="none" stroke="#000302" stroke-linecap="round" stroke-linejoin="round" stroke-miterlimit="10" stroke-width="0.5"/>
                          <g id="Grupo_1099476" data-name="Grupo 1099476" transform="translate(0 3.235)">
                            <g id="Grupo_1099473" data-name="Grupo 1099473" transform="translate(0 6.771)">
                              <g id="Grupo_1099472" data-name="Grupo 1099472" transform="translate(0 10.262)">
                                <path id="Trazado_873681" data-name="Trazado 873681" d="M346.9,308.362h60.551a1.136,1.136,0,0,0-.009-2.272H346.9a1.136,1.136,0,1,0,0,2.272Z" transform="translate(-345.76 -306.09)" fill="#fff"/>
                              </g>
                              <path id="Trazado_873682" data-name="Trazado 873682" d="M408.223,294.71a26.821,26.821,0,0,1,5.194,11.4H396.87C396.87,306.117,396.879,298.921,408.223,294.71Z" transform="translate(-396.69 -294.71)" fill="#fff"/>
                            </g>
                            <g id="Grupo_1099474" data-name="Grupo 1099474" transform="translate(14.557 6.441)">
                              <path id="Trazado_873683" data-name="Trazado 873683" d="M396.6,294.458a6.888,6.888,0,0,1,2.326,3.652c.117.541-.712.775-.839.234a6.1,6.1,0,0,0-2.11-3.273c-.424-.37.2-.983.622-.613Z" transform="translate(-395.837 -294.343)" fill="#fff"/>
                            </g>
                            <g id="Grupo_1099475" data-name="Grupo 1099475" transform="translate(18.559 5.133)">
                              <path id="Trazado_873684" data-name="Trazado 873684" d="M392.164,293.008a6.888,6.888,0,0,1,2.326,3.652c.117.55-.712.775-.839.234a6.14,6.14,0,0,0-2.1-3.273c-.424-.37.189-.983.613-.613Z" transform="translate(-391.408 -292.893)" fill="#fff"/>
                            </g>
                            <path id="Trazado_873685" data-name="Trazado 873685" d="M382.146,288.471c.4-1.749,2.065-1.434,3.165-.6a6.118,6.118,0,0,1,2.3,3.706c1.317-1.831,4.409-2.714,6.132-1.244,1.235,1.055.343,2.308-.748,2.931a6.038,6.038,0,0,1-5.591.135.161.161,0,0,1-.09-.081.12.12,0,0,1-.045-.027C384.734,293.855,381.569,291.032,382.146,288.471Zm9.766,4.446a4.288,4.288,0,0,0,1.362-.748c1.01-.839-.4-1.605-.974-1.767a4.147,4.147,0,0,0-4.446,2.372A5.235,5.235,0,0,0,391.912,292.917Zm-4.96-.325a5.266,5.266,0,0,0-1.587-3.67,4.093,4.093,0,0,0-1.371-.974c-.911-.361-1.19.73-1.163,1.389C382.9,291.06,385.239,292.836,386.952,292.592Z" transform="translate(-364.273 -287.201)" fill="#fff"/>
                          </g>
                          <line id="Línea_1623" data-name="Línea 1623" x1="46.088" transform="translate(1.136 20.277)" fill="none" stroke="#000302" stroke-linecap="round" stroke-linejoin="round" stroke-miterlimit="10" stroke-width="0.5"/>
                        </g>
                      </g>
                      <g id="Grupo_1099484" data-name="Grupo 1099484" transform="translate(250.023 279.515)">
                        <path id="Trazado_873686" data-name="Trazado 873686" d="M148.4,365.477l-66.53-1.037-7.3,78.983L84.8,451.43h68.946Z" transform="translate(-74.58 -351.699)" fill="#8d67de"/>
                        <path id="Trazado_873687" data-name="Trazado 873687" d="M158.335,364.44l-7.3,78.983,10.217,8.007Z" transform="translate(-151.04 -351.699)" fill="#6343b2"/>
                        <g id="Grupo_1099479" data-name="Grupo 1099479" transform="translate(28.993)">
                          <path id="Trazado_873688" data-name="Trazado 873688" d="M111.889,350.31a18.962,18.962,0,0,1,1.993.108c6.1.667,10.217,6.375,11.921,16.511a72.668,72.668,0,0,1,.748,15.131.328.328,0,0,1-.343.3.323.323,0,0,1-.3-.343c.018-.3,1.957-29.433-12.1-30.965a13.437,13.437,0,0,0-11.082,3.391c-8.548,7.9-8.071,26.655-8.061,26.845a.314.314,0,0,1-.307.325.326.326,0,0,1-.325-.307,62.072,62.072,0,0,1,.8-10.568c.875-5.3,2.877-12.516,7.457-16.763A13.7,13.7,0,0,1,111.889,350.31Z" transform="translate(-94.028 -350.31)" fill="#000302"/>
                        </g>
                        <g id="Grupo_1099482" data-name="Grupo 1099482" transform="translate(26.835 28.061)">
                          <g id="Grupo_1099480" data-name="Grupo 1099480" transform="translate(31.696)">
                            <path id="Trazado_873689" data-name="Trazado 873689" d="M93.734,386.6a2.32,2.32,0,0,0,.613.054,2.61,2.61,0,0,0,2.543-2.678,2.616,2.616,0,1,0-3.156,2.624Zm.9-4.2A1.667,1.667,0,0,1,95.961,384a1.682,1.682,0,1,1-2.9-1.118,1.664,1.664,0,0,1,1.172-.523A2,2,0,0,1,94.636,382.395Z" transform="translate(-91.659 -381.429)" fill="#000302"/>
                          </g>
                          <g id="Grupo_1099481" data-name="Grupo 1099481" transform="translate(0 0.676)">
                            <path id="Trazado_873690" data-name="Trazado 873690" d="M128.884,387.347a2.32,2.32,0,0,0,.613.054,2.6,2.6,0,0,0,2.543-2.678,2.611,2.611,0,1,0-5.221.135A2.609,2.609,0,0,0,128.884,387.347Zm.9-4.193a1.683,1.683,0,0,1-.316,3.327,1.682,1.682,0,0,1-.081-3.363A1.447,1.447,0,0,1,129.786,383.154Z" transform="translate(-126.819 -382.179)" fill="#000302"/>
                          </g>
                        </g>
                        <g id="Grupo_1099483" data-name="Grupo 1099483" transform="translate(0.631 20.523)">
                          <line id="Línea_1624" data-name="Línea 1624" x2="2.227" y2="77.594" transform="translate(6.339)" fill="none" stroke="#000302" stroke-linecap="round" stroke-linejoin="round" stroke-miterlimit="10" stroke-width="0.5"/>
                          <path id="Trazado_873691" data-name="Trazado 873691" d="M160.736,457.45l-4.391-15.32L152.17,450.7" transform="translate(-152.17 -379.856)" fill="none" stroke="#000302" stroke-linecap="round" stroke-linejoin="round" stroke-miterlimit="10" stroke-width="0.5"/>
                          <line id="Línea_1625" data-name="Línea 1625" y1="51.245" x2="1.686" transform="translate(4.175 8.215)" fill="none" stroke="#000302" stroke-linecap="round" stroke-linejoin="round" stroke-miterlimit="10" stroke-width="0.5"/>
                        </g>
                      </g>
                    </g>
                  </g>
                </g>
              </g>
            </g>
          </g>
        </g>
      </g>
    </g>
  </g>
</svg>
