<svg xmlns="http://www.w3.org/2000/svg" width="445.787" height="300.222" viewBox="0 0 445.787 300.222">
  <g id="Grupo_1100053" data-name="Grupo 1100053" transform="translate(-906.962 -2538.624)">
    <g id="Grupo_1100052" data-name="Grupo 1100052">
      <g id="Grupo_1100051" data-name="Grupo 1100051">
        <g id="Grupo_1100050" data-name="Grupo 1100050">
          <g id="Grupo_1100049" data-name="Grupo 1100049">
            <g id="Grupo_1100048" data-name="Grupo 1100048">
              <g id="Grupo_1099487" data-name="Grupo 1099487" transform="translate(190 -2339.072)">
                <path id="_12068" data-name="12068" d="M206.274,73.819c-34.413-4.752-70.764-3.59-102.079,11.451-43.427,20.858-71.948,68.15-73.042,116.314s24,95.491,62.76,124.1,89.882,38.75,137.285,30.159c47.8-8.662,92.665-36.746,117.6-78.438,15.988-26.734,23.461-59.746,14.628-89.619-5.333-18.031-16.233-34.006-29.056-47.759A214.676,214.676,0,0,0,206.274,73.819Z" transform="translate(708.615 4819.118)" fill="#aee6e6"/>
                <g id="Grupo_1099291" data-name="Grupo 1099291" transform="translate(724.999 5145.724) rotate(-90)">
                  <path id="Trazado_873104" data-name="Trazado 873104" d="M1.556,6.812a3.945,3.945,0,0,0,5.155-.584,3.944,3.944,0,0,0-.222-5.184A3.946,3.946,0,0,0,1.3.9,3.783,3.783,0,0,0,1.556,6.812Z" transform="translate(51.524 309.141)" fill="#fff"/>
                  <path id="Trazado_873105" data-name="Trazado 873105" d="M1.555,6.812A3.944,3.944,0,0,0,6.712,6.23,3.946,3.946,0,0,0,6.49,1.044,3.946,3.946,0,0,0,1.3.9,3.783,3.783,0,0,0,1.555,6.812Z" transform="translate(126.791 325.315)" fill="#ffd947"/>
                  <path id="Trazado_873106" data-name="Trazado 873106" d="M1.556,6.812a3.942,3.942,0,0,0,5.155-.582A3.946,3.946,0,0,0,6.49,1.044,3.946,3.946,0,0,0,1.3.9,3.783,3.783,0,0,0,1.556,6.812Z" transform="translate(260.451 0)" fill="#7d6eb2"/>
                  <path id="Trazado_873109" data-name="Trazado 873109" d="M5.121,15.9a8.6,8.6,0,0,0,10.655-4.21A8.607,8.607,0,0,0,12.058.849,8.6,8.6,0,0,0,1.064,4.068,8.342,8.342,0,0,0,5.121,15.9Z" transform="translate(215.726 312.625)" fill="#26aab7"/>
                  <path id="Trazado_873110" data-name="Trazado 873110" d="M5.121,15.895a8.6,8.6,0,0,0,10.655-4.21A8.6,8.6,0,0,0,12.059.85,8.6,8.6,0,0,0,1.064,4.068,8.34,8.34,0,0,0,5.121,15.895Z" transform="translate(157.035 349.091)" fill="#7d6eb2"/>
                  <path id="Trazado_873111" data-name="Trazado 873111" d="M5.121,15.895a8.6,8.6,0,0,0,10.653-4.21A8.6,8.6,0,0,0,12.059.85,8.6,8.6,0,0,0,1.064,4.068,8.34,8.34,0,0,0,5.121,15.895Z" transform="translate(0 98.293)" fill="#7d6eb2"/>
                  <path id="Trazado_873113" data-name="Trazado 873113" d="M5.121,15.9a8.605,8.605,0,0,0,10.655-4.21A8.607,8.607,0,0,0,12.06.849a8.606,8.606,0,0,0-11,3.219A8.341,8.341,0,0,0,5.121,15.9Z" transform="translate(243.984 20.696)" fill="#ffd947"/>
                  <circle id="Elipse_11485" data-name="Elipse 11485" cx="4.062" cy="4.062" r="4.062" transform="translate(18.639 328.768)" fill="none" stroke="#26aab7" stroke-linecap="round" stroke-linejoin="round" stroke-width="1.5"/>
                </g>
              </g>
              <g id="Grupo_55840" data-name="Grupo 55840" transform="translate(-1413.9 1782.914)">
                <g id="Grupo_50301" data-name="Grupo 50301" transform="translate(2320.862 761.138)">
                  <g id="Grupo_50275" data-name="Grupo 50275" transform="translate(16.385 141.264)">
                    <path id="Trazado_100403" data-name="Trazado 100403" d="M2742.343,1781.61v97.649a8.6,8.6,0,0,1-3.937,7.234,8.556,8.556,0,0,1-4.673,1.377H2592.071a8.6,8.6,0,0,1-2.849-.483,8.506,8.506,0,0,1-1.825-.894,8.61,8.61,0,0,1-3.937-7.234V1781.61a8.61,8.61,0,0,1,8.61-8.61h141.662A8.611,8.611,0,0,1,2742.343,1781.61Z" transform="translate(-2563.185 -1773)" fill="#12263f"/>
                    <path id="Trazado_100500" data-name="Trazado 100500" d="M12.763.042H119.237a28.615,28.615,0,0,1,28.615,28.615V82.233a28.614,28.614,0,0,1-28.614,28.614H11.608c-15.8,0-11.478,1.671-11.478-14.132V13.154C.131-2.649-3.04.042,12.763.042Z" transform="translate(25.726 5.539)" fill="#fff"/>
                    <path id="Trazado_100404" data-name="Trazado 100404" d="M2691.625,1915.786c-1.464,0-2.655-.839-2.655-1.871V1864c0-1.031,1.191-1.871,2.655-1.871h124.113c1.463,0,2.654.84,2.654,1.871v49.915c0,1.031-1.19,1.871-2.654,1.871Z" transform="translate(-2653.964 -1849.687)" fill="#edf4f9"/>
                    <path id="Trazado_100405" data-name="Trazado 100405" d="M2742.343,2514.305v4.146a8.6,8.6,0,0,1-3.937,7.232H2587.4a8.6,8.6,0,0,1-3.937-7.232v-4.146Z" transform="translate(-2563.185 -2410.813)" opacity="0.2" style="mix-blend-mode: multiply;isolation: isolate"/>
                    <rect id="Rectángulo_29036" data-name="Rectángulo 29036" width="30.973" height="4.731" transform="translate(84.23 107.466)" fill="#172735"/>
                    <path id="Trazado_100406" data-name="Trazado 100406" d="M2637.661,2544.663v2.354a7.807,7.807,0,0,1-7.807,7.807H2446.035a7.808,7.808,0,0,1-7.808-7.807v-2.354a1.9,1.9,0,0,1,1.9-1.895h83.7l1.594,2.763a3.427,3.427,0,0,0,2.968,1.714h19.12a3.425,3.425,0,0,0,2.967-1.714l1.595-2.763h83.7A1.894,1.894,0,0,1,2637.661,2544.663Z" transform="translate(-2438.227 -2435.303)" fill="#12263f"/>
                    <g id="Grupo_50274" data-name="Grupo 50274" transform="translate(35.005 73.311)">
                      <rect id="Rectángulo_29037" data-name="Rectángulo 29037" width="18.077" height="18.077" rx="2" fill="#edf4f9"/>
                      <rect id="Rectángulo_29038" data-name="Rectángulo 29038" width="33.852" height="1.496" transform="translate(22.232 0.582)" fill="#edf4f9"/>
                      <rect id="Rectángulo_29039" data-name="Rectángulo 29039" width="33.852" height="1.496" transform="translate(22.232 3.906)" fill="#edf4f9"/>
                      <rect id="Rectángulo_29040" data-name="Rectángulo 29040" width="15.5" height="1.496" transform="translate(22.232 7.231)" fill="#edf4f9"/>
                      <rect id="Rectángulo_29041" data-name="Rectángulo 29041" width="30.419" height="1.496" transform="translate(22.232 12.051)" fill="#edf4f9"/>
                    </g>
                    <rect id="Rectángulo_29042" data-name="Rectángulo 29042" width="18.077" height="18.077" rx="2" transform="translate(104.101 73.311)" fill="#edf4f9"/>
                    <rect id="Rectángulo_29043" data-name="Rectángulo 29043" width="33.852" height="1.496" transform="translate(126.333 73.801)" fill="#edf4f9"/>
                    <rect id="Rectángulo_29044" data-name="Rectángulo 29044" width="33.852" height="1.496" transform="translate(126.333 77.126)" fill="#edf4f9"/>
                    <rect id="Rectángulo_29045" data-name="Rectángulo 29045" width="15.5" height="1.496" transform="translate(126.333 80.45)" fill="#edf4f9"/>
                    <rect id="Rectángulo_29046" data-name="Rectángulo 29046" width="30.419" height="1.496" transform="translate(126.333 85.271)" fill="#edf4f9"/>
                  </g>
                  <g id="Grupo_50282" data-name="Grupo 50282" transform="translate(0 144.077)">
                    <path id="Trazado_100407" data-name="Trazado 100407" d="M2490.172,2541.893s-6.217,3.6-16.833-1.238a17.45,17.45,0,0,1,10.4-2.859C2489.512,2538.235,2490.172,2541.893,2490.172,2541.893Z" transform="translate(-2452.052 -2433.802)"/>
                    <path id="Trazado_100408" data-name="Trazado 100408" d="M2338.189,2517.372s-7.59,3.219-17.327-3.959c0,0,5.115-5.116,9.983-5.116S2338.189,2517.372,2338.189,2517.372Z" transform="translate(-2320.862 -2408.457)"/>
                    <g id="Grupo_50277" data-name="Grupo 50277" transform="translate(7.023 102.865)">
                      <g id="Grupo_50276" data-name="Grupo 50276" transform="translate(0.209)">
                        <path id="Trazado_100409" data-name="Trazado 100409" d="M2381.109,2539.017s1.814-5.693,2.09-6.491-6-2.558-6-2.558,1.154,5.667.687,8.142-.137,3.108-.137,3.108Z" transform="translate(-2376.57 -2529.967)" fill="#ebc4a1"/>
                        <path id="Trazado_100410" data-name="Trazado 100410" d="M2372.942,2590.689a1.615,1.615,0,0,0,.784.522c.356.084,10.548-.266,10.932-.625.042-.038.252.019.3-.029a2.952,2.952,0,0,0,.832-1.38c-.026-.33-7.672-2.586-8.2-3.272a3.181,3.181,0,0,0-3.6-.331,17.281,17.281,0,0,1-1.22,3.8c-.061.122.063.527,0,.639C2372.571,2590.333,2372.682,2590.423,2372.942,2590.689Z" transform="translate(-2372.666 -2577.432)" fill="#12263f"/>
                      </g>
                      <path id="Trazado_100411" data-name="Trazado 100411" d="M2371.4,2616.858a3.739,3.739,0,0,0,1,.828c.356.084,10.752-.494,11.137-.854.042-.038.086-.083.132-.131-2.68-.189-9.09-.684-12.187-1.181-.061.123-.125.237-.193.35A.81.81,0,0,0,2371.4,2616.858Z" transform="translate(-2371.166 -2603.576)" fill="#e1f0ff"/>
                    </g>
                    <g id="Grupo_50279" data-name="Grupo 50279" transform="translate(28.045 101.855)">
                      <g id="Grupo_50278" data-name="Grupo 50278" transform="translate(0.094)">
                        <path id="Trazado_100412" data-name="Trazado 100412" d="M2536.188,2532.155s2.44-5.455,2.8-6.217-5.672-3.211-5.672-3.211.514,5.76-.227,8.167-.484,3.072-.484,3.072Z" transform="translate(-2531.148 -2522.726)" fill="#ebc4a1"/>
                        <path id="Trazado_100413" data-name="Trazado 100413" d="M2522.832,2584.4a2.482,2.482,0,0,0,.839.757c.345.123,10.152.754,10.575.44.045-.034.411.092.462.05.42-.354.972-.983.979-1.278.012-.331-7.334-3.428-7.778-4.169a3.182,3.182,0,0,0-3.543-.731,17.267,17.267,0,0,1-1.637,3.643c-.074.115-.151.222-.229.325C2522.271,2583.727,2522.6,2584.1,2522.832,2584.4Z" transform="translate(-2522.422 -2571.296)" fill="#12263f"/>
                      </g>
                      <path id="Trazado_100414" data-name="Trazado 100414" d="M2521.919,2608.639a3.728,3.728,0,0,0,.9.934c.345.123,10.741.711,11.164.4.046-.034.1-.073.146-.117-2.641-.487-8.957-1.695-11.979-2.535-.074.115-.151.222-.23.326A.809.809,0,0,0,2521.919,2608.639Z" transform="translate(-2521.747 -2595.509)" fill="#e1f0ff"/>
                    </g>
                    <path id="Trazado_100415" data-name="Trazado 100415" d="M2738.931,1997.847s3.467,6.6-.879,12.267c0,0-2.808-4.235-1.762-7.481S2737.666,1998.452,2738.931,1997.847Z" transform="translate(-2678.092 -1969.27)" fill="#002c3d"/>
                    <path id="Trazado_100416" data-name="Trazado 100416" d="M2320.862,2178.074c11.882-1.238,17.327,3.959,17.327,3.959,1.367-2.256,2.953-8.981,4.281-15.723,1.19-6.026,2.179-12.062,2.631-14.918.173-1.078.266-1.7.266-1.7l2.069,2.76,2.387,3.183c-.167,6.6-7.675,24.339-7.675,24.339,12.212-3.051,16.833,1.238,16.833,1.238,1.357-1.4,3.443-6.215,5.292-11.138,2.191-5.83,4.056-11.8,4-12.375-.3-3.508-14.026-23.1-15.511-26.954a41.935,41.935,0,0,1-2.038-6.931c-.118-.154-.241-.3-.359-.446-7.9-9.45-18.893-2.086-18.893-2.086s-.439,20.132-1.319,27.946S2320.862,2178.074,2320.862,2178.074Z" transform="translate(-2320.862 -2073.118)" fill="#12263f"/>
                    <path id="Trazado_100417" data-name="Trazado 100417" d="M2458.154,1845.714a4.749,4.749,0,0,1-.976,3.3c-1.191,1.364-.488,2.436-.305,2.58s5.571.266,5.571.266l.272-.645.366-.86-.681-.764a1.593,1.593,0,0,1-.263-.677,6.852,6.852,0,0,1-.1-1.844.009.009,0,0,0,0,.006c.032.026.575.5,1.38,1.207.725.635,1.922-2.1,1.867-3.392a17.071,17.071,0,0,0-.138-1.791,1.524,1.524,0,0,0,1.1-.145.365.365,0,0,0,.182-.465,4.419,4.419,0,0,1-.664-3.064,3.421,3.421,0,0,1,.176-.52c.488-1.133-3.937-2.377-6.957-1.929-1.582.238-2.775.937-2.676,2.362A13.559,13.559,0,0,0,2458.154,1845.714Z" transform="translate(-2437.403 -1830.777)" fill="#ebc4a1"/>
                    <path id="Trazado_100418" data-name="Trazado 100418" d="M2320.862,2178.074c11.882-1.238,17.327,3.959,17.327,3.959,1.367-2.256,2.953-8.981,4.281-15.723a2.776,2.776,0,0,0-.779.676c-.8,1.043-1.043,2.407-1.723,3.53a5.13,5.13,0,0,1-8.863-.164c-1.663-2.977-.067-6.619,1.2-9.78a48.617,48.617,0,0,0,3.485-17.889c.009-3.366-.328-6.773.34-10.076s2.593-6.594,5.741-7.791c2.235-.854,4.681-.526,6.991-1a9.431,9.431,0,0,0,1.505-.455c-7.9-9.45-18.893-2.086-18.893-2.086s-.439,20.132-1.319,27.946S2320.862,2178.074,2320.862,2178.074Z" transform="translate(-2320.862 -2073.118)" fill="#12263f" opacity="0.3" style="mix-blend-mode: multiply;isolation: isolate"/>
                    <path id="Trazado_100419" data-name="Trazado 100419" d="M2395.059,2185.688s-3.464,5.821-11.84,5.737c0,0,.824-4.047,6.146-5.737S2395.059,2185.688,2395.059,2185.688Z" transform="translate(-2374.513 -2130.241)" fill="#002c3d"/>
                    <path id="Trazado_100420" data-name="Trazado 100420" d="M2733.125,2015.655c.023.69.174,1.392.264,2.076a2.166,2.166,0,0,0,.285.963,1.594,1.594,0,0,0,1.223.584c.468.029.937-.051,1.4-.048a5.849,5.849,0,0,1,2.856.924c.157.093.313.19.467.289.7.45,1.362.944,2.07,1.367a12.087,12.087,0,0,0,3.719,1.45.334.334,0,0,0,.362-.488.29.29,0,0,0-.089-.1,9.236,9.236,0,0,0-2-1.123c.054.019.106.039.16.054q1.715.6,3.43,1.19c.244.087.571.148.723-.064a.419.419,0,0,0-.062-.491,1.2,1.2,0,0,0-.439-.285q-1.479-.679-2.959-1.361l3.588,1.28c.318.113.758.18.908-.119a.468.468,0,0,0-.116-.526,1.379,1.379,0,0,0-.491-.289l-3.452-1.435c1.013.344,2.028.69,3.042,1.033.324.112.748.2.962-.071a.584.584,0,0,0-.106-.744,1.715,1.715,0,0,0-.731-.36l-5.038-1.534a11.859,11.859,0,0,0,1.932.244,1.2,1.2,0,0,0,.5-.055.423.423,0,0,0,.279-.391c-.013-.234-.266-.369-.481-.459a6.579,6.579,0,0,0-3.815-.722c-.558.122-1.075.389-1.63.527a5.316,5.316,0,0,1-3.485-.8c-.154-.08-.3-.148-.44-.208a4.923,4.923,0,0,1-1.078-.594,1.773,1.773,0,0,0-1.181-.471C2733.27,2014.94,2733.112,2015.244,2733.125,2015.655Z" transform="translate(-2675.569 -1983.94)" fill="#ebc4a1"/>
                    <path id="Trazado_100421" data-name="Trazado 100421" d="M2733.125,2015.655c.023.69.174,1.392.264,2.076a2.166,2.166,0,0,0,.285.963,1.594,1.594,0,0,0,1.223.584c.468.029.937-.051,1.4-.048a5.849,5.849,0,0,1,2.856.924c.157.093.313.19.467.289a5.491,5.491,0,0,0-1.905-1.614,3.377,3.377,0,0,1-1.732-2.031,3.606,3.606,0,0,1-.017-.831,4.923,4.923,0,0,1-1.078-.594,1.773,1.773,0,0,0-1.181-.471C2733.27,2014.94,2733.112,2015.244,2733.125,2015.655Z" transform="translate(-2675.569 -1983.94)" fill="#1a1a1a" opacity="0.3" style="mix-blend-mode: multiply;isolation: isolate"/>
                    <g id="Grupo_50281" data-name="Grupo 50281" transform="translate(12.829 53.676)">
                      <g id="Grupo_50280" data-name="Grupo 50280">
                        <path id="Trazado_100422" data-name="Trazado 100422" d="M2455.657,2258.908a2.321,2.321,0,0,0,2.049-.513.362.362,0,0,0-.372-.385c-.4-.028-1.5.412-2.31,0v.647Z" transform="translate(-2449.123 -2246.787)" fill="#ebc4a1"/>
                        <path id="Trazado_100423" data-name="Trazado 100423" d="M2456.972,2257.521s1.426,1.985,2.148,2.191,1.176.31,1.32.557a1.877,1.877,0,0,1,.155.591.235.235,0,0,1-.262.265,4.909,4.909,0,0,1-1.591-.443s-1.574-.9-1.771-1.343A5.474,5.474,0,0,1,2456.972,2257.521Z" transform="translate(-2450.724 -2246.368)" fill="#ebc4a1"/>
                        <path id="Trazado_100424" data-name="Trazado 100424" d="M2462.648,2264.9a2.319,2.319,0,0,0,2.048-.513.362.362,0,0,0-.371-.385c-.4-.027-1.5.413-2.31,0v.646Z" transform="translate(-2455.138 -2251.94)" fill="#ebc4a1"/>
                        <path id="Trazado_100425" data-name="Trazado 100425" d="M2412.753,2179.9s2.375,3.786,3.106,5.474a3.239,3.239,0,0,1,.2.552,55.271,55.271,0,0,0,4.1,8.288c.289.083.311-.8.311-1.2a13.584,13.584,0,0,0-.568-1.614c-.2-.51-.408-1.088-.6-1.649-.086-.26-.167-.517-.241-.76-.019-.068-.039-.135-.058-.2v0c-.225-.805-.324-1.463-.122-1.672.62-.641,1.63.947,1.71,1.031a2.27,2.27,0,0,0,1.136.289,11.752,11.752,0,0,0-1.755-2.888,19.17,19.17,0,0,1-2.1-1.527,20.112,20.112,0,0,1-.982-4.143c-.218-1.228-.382-2.249-.382-2.249Z" transform="translate(-2412.753 -2177.629)" fill="#ebc4a1"/>
                      </g>
                      <path id="Trazado_100426" data-name="Trazado 100426" d="M2412.753,2179.9s2.375,3.786,3.106,5.474a2.087,2.087,0,0,0,.058-.436,8.077,8.077,0,0,0-.3-1.89,3.1,3.1,0,0,1,.074-1.887,3.609,3.609,0,0,1,1.194-1.281c-.218-1.228-.382-2.249-.382-2.249Z" transform="translate(-2412.753 -2177.629)" fill="#1a1a1a" opacity="0.3" style="mix-blend-mode: multiply;isolation: isolate"/>
                    </g>
                    <path id="Trazado_100427" data-name="Trazado 100427" d="M2356.374,1949.919c.414,2.143,4.168,8.869,3.591,16.791,0,0,4.952-6.231,11.841-5.737l-1.823-4.55-1.011-2.516a21.426,21.426,0,0,1,12.155,2.31,6.673,6.673,0,0,1-.62-3.542,12.222,12.222,0,0,1,.18-1.576c.256-1.447.6-3.831.915-6.193.417-3.2.77-6.36.738-7.117v-.013c0-.382.876-.042,2.1.616,2.831,1.534,7.524,4.788,7.524,4.788s19.307,3.353,19.253,3.19-1.54-9.517.879-12.267c0,0-2.237-.3-5.333-.616a118.216,118.216,0,0,0-11.831-.7s-11.715-5.613-14.3-6.491-3.52-1.954-4.374-1.954c0,0-.193,1.13-.85,1.017s-3.908-1.566-4.374-1.594a.312.312,0,0,0-.244.058,3.266,3.266,0,0,1-1.158.988c-1.293.741-2.5.661-3.851,1.816s-5.172,7.261-9.408,22.112C2356.374,1948.735,2355.963,1947.772,2356.374,1949.919Z" transform="translate(-2351.259 -1905.525)" fill="#dee7f3"/>
                    <path id="Trazado_100428" data-name="Trazado 100428" d="M2433.16,2008.456a49.679,49.679,0,0,0,2.033,5.558,21.425,21.425,0,0,1,12.155,2.31,6.68,6.68,0,0,1-.619-3.543,33.22,33.22,0,0,0-7.685-1.723c-3.575-.475-2.9.038-3.19-3.151-.285-3.129,1.682-13.887,1.756-14.289C2437.459,1994.087,2433.1,2007.644,2433.16,2008.456Z" transform="translate(-2417.482 -1965.631)" fill="#1a1a1a" opacity="0.3" style="mix-blend-mode: multiply;isolation: isolate"/>
                    <path id="Trazado_100429" data-name="Trazado 100429" d="M2489.841,1905.378a6.866,6.866,0,0,1-.1-1.845l-1.233-1.024A6.981,6.981,0,0,0,2489.841,1905.378Z" transform="translate(-2465.104 -1887.242)" fill="#1a1a1a" opacity="0.3" style="mix-blend-mode: multiply;isolation: isolate"/>
                    <path id="Trazado_100430" data-name="Trazado 100430" d="M2454.5,1840.071a2.341,2.341,0,0,1,1.5.15c-.278-.386-.494-.674-.494-.674s1.248-2.1,1.6-2.57c3.02-.449,7.444.8,6.957,1.929a3.372,3.372,0,0,0-.177.52,3.862,3.862,0,0,1-2.175.285c-3.116-.331-3.959-.866-4.043.433a6.653,6.653,0,0,0,.761,3.029l.044.087a4.98,4.98,0,0,1-1.066-.885c-.568-.429-1.2-.822-1.417-.663-.44.316.289,1.65.578,1.8s-.123,2.2-.123,2.2-1.2-1.5-1.224-1.568S2453.351,1840.438,2454.5,1840.071Z" transform="translate(-2435.52 -1830.777)" fill="#1a1a1a" opacity="0.3" style="mix-blend-mode: multiply;isolation: isolate"/>
                    <path id="Trazado_100431" data-name="Trazado 100431" d="M2443,1801.4c-.054,4.181,3.88,6.684,3.88,6.684l-.29-1.585-.042-.231c-.937-.356-1.431-2.339-.552-2.75.787-.369,1.474.642,1.611.866-.154-.3-1.018-2.047.012-3.205,1.13-1.264,2.558.414,6.552.388s1.563-6.466,1.563-6.466c-.908,1.431-2.917.687-2.917.687a3.91,3.91,0,0,0,.825-2.641,4.1,4.1,0,0,1-.241.359,5.969,5.969,0,0,1-4.653,2.612C2445.529,1796.15,2443.051,1797.222,2443,1801.4Z" transform="translate(-2425.945 -1793.15)" fill="#1a1a1a"/>
                    <path id="Trazado_100432" data-name="Trazado 100432" d="M2356.374,1950.283c.414,2.143,4.168,8.869,3.591,16.792,0,0,4.952-6.231,11.841-5.737l-1.823-4.55a.528.528,0,0,0-.324.26c-1.155,2.147-7.342,1.941-7.55.247s-2.269-5.734-2.68-8.25,2.31-8.17,3.052-11.346,2.971-8.744,5.734-10.56,2.576-2.955,2.576-2.955a3.27,3.27,0,0,1-1.158.988c-1.293.741-2.5.661-3.851,1.816s-5.172,7.261-9.408,22.112C2356.374,1949.1,2355.963,1948.137,2356.374,1950.283Z" transform="translate(-2351.259 -1905.89)" fill="#1a1a1a" opacity="0.3" style="mix-blend-mode: multiply;isolation: isolate"/>
                    <path id="Trazado_100433" data-name="Trazado 100433" d="M2534.084,1961.912c1.97,2.32,5.917,6.748,8.625,8.381,3.741,2.256,4.88,2.256,8.051,2.42,3,.157,9.584-1.069,8.016-7.656,3.1.315,5.333.616,5.333.616-2.419,2.75-.937,12.1-.879,12.267s-19.252-3.189-19.252-3.189-4.694-3.254-7.524-4.788c-1.226-.657-2.1-1-2.1-.616-.007-.308-.155-5.939-1.479-8.888a.01.01,0,0,1,0-.007A5.244,5.244,0,0,1,2534.084,1961.912Z" transform="translate(-2503.27 -1937.095)" fill="#1a1a1a" opacity="0.3" style="mix-blend-mode: multiply;isolation: isolate"/>
                    <path id="Trazado_100434" data-name="Trazado 100434" d="M2460.767,1923.819s5.552,3.931,5.991,2.789a2.514,2.514,0,0,0-.523-2.269s-.193,1.13-.851,1.017-3.908-1.566-4.373-1.594A.313.313,0,0,0,2460.767,1923.819Z" transform="translate(-2441.235 -1905.525)" fill="#1a1a1a" opacity="0.3" style="mix-blend-mode: multiply;isolation: isolate"/>
                    <path id="Trazado_100435" data-name="Trazado 100435" d="M2473.34,2274.845c12.212-3.051,16.833,1.24,16.833,1.24,1.357-1.4,3.443-6.216,5.292-11.138a1.026,1.026,0,0,0-.116-.065c-1.351-.664-2.958.119-4.163,1.021s-2.444,2.006-3.949,2.015a9.609,9.609,0,0,1-2.876-.771,2.9,2.9,0,0,0-2.833.3,52.247,52.247,0,0,0,3.882-7.9,17.436,17.436,0,0,0,1.025-8.654,27.843,27.843,0,0,0-4.239-11.035c-2.246-3.4-4.188-6.337-5.391-11.047-.2,4.887.729,9.749-.241,14.578a14.621,14.621,0,0,0-.272,2.875c.173-1.078.266-1.7.266-1.7l2.069,2.76,2.388,3.184C2480.848,2257.107,2473.34,2274.845,2473.34,2274.845Z" transform="translate(-2452.052 -2167.993)" fill="#1a1a1a" opacity="0.3" style="mix-blend-mode: multiply;isolation: isolate"/>
                    <path id="Trazado_100436" data-name="Trazado 100436" d="M2443,1803.618c-.054,4.181,3.88,6.684,3.88,6.684l-.29-1.585c-.151-.083-.3-.173-.439-.266a4.67,4.67,0,0,1-1.806-4.736,6,6,0,0,1,3.257-4.046,38.379,38.379,0,0,0,3.86-1.623,5.283,5.283,0,0,0,1.582-1.614,5.164,5.164,0,0,0,.359-.706,5.97,5.97,0,0,1-4.653,2.612C2445.529,1798.365,2443.051,1799.437,2443,1803.618Z" transform="translate(-2425.945 -1795.365)" fill="#1a1a1a" opacity="0.3" style="mix-blend-mode: multiply;isolation: isolate"/>
                  </g>
                  <g id="Grupo_50284" data-name="Grupo 50284" transform="translate(20.124 51.185)">
                    <path id="Trazado_100437" data-name="Trazado 100437" d="M2534.4,1127.775h-63.915c-3.023,0-5.474,2.947-5.474,6.581v47.569c0,3.635,2.451,6.582,5.474,6.582H2534.4c3.023,0,5.474-2.947,5.474-6.582v-47.569C2539.873,1130.722,2537.422,1127.775,2534.4,1127.775Z" transform="translate(-2465.01 -1127.775)" fill="#d7e9f9"/>
                    <path id="Trazado_100438" data-name="Trazado 100438" d="M2539.869,1134.359v2.608h-74.863v-2.608c0-3.635,2.451-6.581,5.474-6.581h63.915C2537.418,1127.778,2539.869,1130.724,2539.869,1134.359Z" transform="translate(-2465.006 -1127.778)" fill="#26aab7"/>
                    <g id="Grupo_50283" data-name="Grupo 50283" transform="translate(11.321 20.414)">
                      <rect id="Rectángulo_29047" data-name="Rectángulo 29047" width="9.201" height="17.925" rx="2" transform="translate(0 13.592)" fill="#f5ca56"/>
                      <rect id="Rectángulo_29048" data-name="Rectángulo 29048" width="9.201" height="22.315" rx="2" transform="translate(14.34 9.201)" fill="#f5ca56"/>
                      <rect id="Rectángulo_29049" data-name="Rectángulo 29049" width="9.201" height="26.737" rx="2" transform="translate(28.68 4.78)" fill="#dbdada"/>
                      <rect id="Rectángulo_29050" data-name="Rectángulo 29050" width="9.201" height="31.517" rx="2" transform="translate(43.02)" fill="#dbdada"/>
                    </g>
                    <circle id="Elipse_4018" data-name="Elipse 4018" cx="1.791" cy="1.791" r="1.791" transform="translate(3.681 3.207)" fill="#d8e5ed"/>
                    <circle id="Elipse_4019" data-name="Elipse 4019" cx="1.791" cy="1.791" r="1.791" transform="translate(8.558 3.207)" fill="#d8e5ed"/>
                    <circle id="Elipse_4020" data-name="Elipse 4020" cx="1.791" cy="1.791" r="1.791" transform="translate(13.435 3.207)" fill="#d8e5ed"/>
                  </g>
                  <path id="Trazado_100439" data-name="Trazado 100439" d="M3378.593,1882.36v2.354a7.808,7.808,0,0,1-7.807,7.808h-67.367a21.93,21.93,0,0,1-1.855-3.135q-.36-.742-.664-1.516a21.767,21.767,0,0,1-1.507-7.4c0-.2-.008-.4-.008-.6V1773h50.323a8.611,8.611,0,0,1,8.611,8.61v98.855h18.38A1.9,1.9,0,0,1,3378.593,1882.36Z" transform="translate(-3162.775 -1631.736)" opacity="0.05" style="mix-blend-mode: multiply;isolation: isolate"/>
                  <g id="Grupo_50287" data-name="Grupo 50287" transform="translate(145.872 19.242)">
                    <g id="Grupo_50285" data-name="Grupo 50285">
                      <path id="Trazado_100440" data-name="Trazado 100440" d="M3825.706,949.849q-.252-.65-.482-1.307a39.747,39.747,0,0,1,.638-27.856,14.984,14.984,0,1,0-27.52-1.728,14.9,14.9,0,0,0,.738,1.728,39.726,39.726,0,0,1,.636,27.856q-.227.656-.481,1.307-.389,1-.837,1.991l-.912,2.017h29.973l-.915-2.017Q3826.1,950.853,3825.706,949.849ZM3812.47,907.5a6.666,6.666,0,1,1-6.665,6.667A6.667,6.667,0,0,1,3812.47,907.5Z" transform="translate(-3737.209 -898.965)" fill="#12263f"/>
                      <path id="Trazado_100441" data-name="Trazado 100441" d="M3827.455,1183.929h-29.972l.913-2.018a39.673,39.673,0,0,0,3.524-15.543h21.1a39.664,39.664,0,0,0,3.524,15.543Z" transform="translate(-3737.208 -1129.037)" fill="#1a1a1a" opacity="0.2" style="mix-blend-mode: multiply;isolation: isolate"/>
                      <path id="Trazado_100442" data-name="Trazado 100442" d="M3516.255,1227.565v172.119a12.673,12.673,0,0,1-12.658,12.659H3378.39a12.673,12.673,0,0,1-12.658-12.659V1227.565a12.672,12.672,0,0,1,12.658-12.658H3503.6A12.672,12.672,0,0,1,3516.255,1227.565Z" transform="translate(-3365.732 -1170.799)" fill="#12263f"/>
                      <rect id="Rectángulo_29051" data-name="Rectángulo 29051" width="136.97" height="183.882" rx="2" transform="translate(6.777 50.884)" fill="#fff"/>
                      <path id="Trazado_100443" data-name="Trazado 100443" d="M3720.324,1263.949l-4.692-7.876a4.085,4.085,0,0,0-3.5-1.991h-53.695a4.07,4.07,0,0,0-2.99,1.307,3.927,3.927,0,0,0-.513.684l-4.693,7.876a4.078,4.078,0,0,0,3.5,6.165h63.08A4.078,4.078,0,0,0,3720.324,1263.949Zm-17.639,1.112h-34.809a1.481,1.481,0,0,1,0-2.963h34.809a1.481,1.481,0,1,1,0,2.963Z" transform="translate(-3610.018 -1204.504)" fill="#12263f"/>
                    </g>
                    <g id="Grupo_50286" data-name="Grupo 50286" transform="translate(20.065 78.946)">
                      <rect id="Rectángulo_29052" data-name="Rectángulo 29052" width="24.461" height="24.461" rx="2" fill="#dee7f3"/>
                      <rect id="Rectángulo_29053" data-name="Rectángulo 29053" width="24.461" height="24.461" rx="2" transform="translate(0 48.473)" fill="#dee7f3"/>
                      <rect id="Rectángulo_29054" data-name="Rectángulo 29054" width="24.461" height="24.461" rx="2" transform="translate(0 96.945)" fill="#dee7f3"/>
                    </g>
                    <rect id="Rectángulo_29055" data-name="Rectángulo 29055" width="76.205" height="1.981" transform="translate(53.157 83.238)" fill="#edf4f9"/>
                    <rect id="Rectángulo_29056" data-name="Rectángulo 29056" width="76.205" height="1.981" transform="translate(53.157 90.186)" fill="#edf4f9"/>
                    <rect id="Rectángulo_29057" data-name="Rectángulo 29057" width="76.205" height="1.981" transform="translate(53.157 97.134)" fill="#edf4f9"/>
                    <rect id="Rectángulo_29058" data-name="Rectángulo 29058" width="76.205" height="1.981" transform="translate(53.157 131.71)" fill="#edf4f9"/>
                    <rect id="Rectángulo_29059" data-name="Rectángulo 29059" width="76.205" height="1.981" transform="translate(53.157 138.658)" fill="#edf4f9"/>
                    <rect id="Rectángulo_29060" data-name="Rectángulo 29060" width="76.205" height="1.981" transform="translate(53.157 145.606)" fill="#edf4f9"/>
                    <rect id="Rectángulo_29061" data-name="Rectángulo 29061" width="76.205" height="1.981" transform="translate(53.157 180.183)" fill="#edf4f9"/>
                    <rect id="Rectángulo_29062" data-name="Rectángulo 29062" width="76.205" height="1.981" transform="translate(53.157 187.131)" fill="#edf4f9"/>
                    <rect id="Rectángulo_29063" data-name="Rectángulo 29063" width="76.205" height="1.981" transform="translate(53.157 194.079)" fill="#edf4f9"/>
                  </g>
                  <g id="Grupo_50292" data-name="Grupo 50292" transform="translate(122.811 0)">
                    <g id="Grupo_50288" data-name="Grupo 50288" transform="translate(38.917)">
                      <path id="Trazado_100444" data-name="Trazado 100444" d="M3513.243,817.174c-.177.2-6.227,1.578-6.227,1.578l-.455-.666-.612-.886.594-1.019a1.863,1.863,0,0,0,.141-.824,5.372,5.372,0,0,0-.026-.592,9.6,9.6,0,0,0-.286-1.511s0,0,0,0c-.031.037-.534.7-1.279,1.68-.674.882-2.653-1.931-2.887-3.4a19.263,19.263,0,0,1-.256-2.053,1.757,1.757,0,0,1-1.279.091.423.423,0,0,1-.314-.483,5.091,5.091,0,0,0,.047-3.611,4.011,4.011,0,0,0-.319-.546c-.81-1.166,3.9-3.587,7.409-3.774,1.84-.1,3.349.421,3.563,2.051a15.607,15.607,0,0,1-.609,7.619,5.466,5.466,0,0,0,1.859,3.5C3513.963,815.6,3513.417,816.969,3513.243,817.174Z" transform="translate(-3497.105 -795.565)" fill="#ebc4a1"/>
                      <path id="Trazado_100445" data-name="Trazado 100445" d="M3511.148,804.12a2.693,2.693,0,0,0-1.659.513c.226-.5.4-.874.4-.874s-1.892-2.086-2.4-2.533c-3.512.186-8.22,2.607-7.41,3.774a3.928,3.928,0,0,1,.318.546,4.451,4.451,0,0,0,2.521-.177c3.442-1.088,4.271-1.887,4.663-.439a7.652,7.652,0,0,1-.163,3.594l-.03.108a5.736,5.736,0,0,0,1-1.244c.543-.615,1.16-1.2,1.446-1.073.569.256.053,1.929-.239,2.166s.645,2.455.645,2.455,1.007-1.967,1.022-2.051S3512.531,804.27,3511.148,804.12Z" transform="translate(-3497.103 -795.63)" fill="#1a1a1a" opacity="0.3" style="mix-blend-mode: multiply;isolation: isolate"/>
                      <path id="Trazado_100446" data-name="Trazado 100446" d="M3495.3,768.011c1.021,4.707-2.845,8.435-2.845,8.435l-.038-1.855-.006-.271c.976-.617,1.078-2.969-.009-3.231-.971-.236-1.514,1.063-1.619,1.348.106-.368.678-2.544-.75-3.615-1.565-1.168-2.792,1.054-7.307,1.943s-3.248-6.94-3.248-6.94c1.354,1.407,3.45.106,3.45.106-1.215-.722-1.537-2.792-1.537-2.792a4.76,4.76,0,0,0,.354.35,6.876,6.876,0,0,0,5.852,1.881C3491.233,762.662,3494.276,763.3,3495.3,768.011Z" transform="translate(-3479.312 -761.138)" fill="#1a1a1a"/>
                      <path id="Trazado_100447" data-name="Trazado 100447" d="M3510.277,770.169c1.021,4.707-2.845,8.435-2.845,8.435l-.038-1.855c.151-.129.3-.264.435-.4a5.381,5.381,0,0,0,.952-5.761,6.922,6.922,0,0,0-4.605-3.82c-1.555-.415-3.227-.362-4.73-.947a6.073,6.073,0,0,1-2.156-1.459,5.978,5.978,0,0,1-.568-.714,6.879,6.879,0,0,0,5.852,1.88C3506.214,764.821,3509.256,765.462,3510.277,770.169Z" transform="translate(-3494.292 -763.297)" fill="#1a1a1a" opacity="0.3" style="mix-blend-mode: multiply;isolation: isolate"/>
                      <path id="Trazado_100448" data-name="Trazado 100448" d="M3546.889,874.079a8.421,8.421,0,0,1-.91,3.434,9.661,9.661,0,0,0-.286-1.511v0Z" transform="translate(-3536.426 -858.311)" fill="#1a1a1a" opacity="0.3" style="mix-blend-mode: multiply;isolation: isolate"/>
                    </g>
                    <path id="Trazado_100449" data-name="Trazado 100449" d="M3355.744,1069.666s-1.1,2.549-.42,2.549,2.034-2.989,2.68-3.236l.194-.086-.081-.758-1.081-.13Z" transform="translate(-3333.526 -1025.164)" fill="#ebc4a1"/>
                    <path id="Trazado_100450" data-name="Trazado 100450" d="M3335.691,1030.052l-1.646,1.087s-.407.075-.934.2a6.4,6.4,0,0,0-2.311.861,4.344,4.344,0,0,1-2.783,1.332c-.918-.1-.267-1.261-.048-1.2s1.913-1.215,1.744-2.111-3.022-.34-3,1.67c.194,2.985-.871,2.443-.871,2.443-.727-.072-.412-4.092-.412-4.4s2.033-1.719,2.154-1.791a10.918,10.918,0,0,1,3,.419,6.248,6.248,0,0,0,2.063.11c.572-.041,1.016-.109,1.016-.109l.911-.03Z" transform="translate(-3307.938 -990.847)" fill="#ebc4a1"/>
                    <path id="Trazado_100451" data-name="Trazado 100451" d="M3380.608,1032.561l-1.646,1.087s-.406.075-.933.2a3.489,3.489,0,0,0-.461-2.677c.571-.041,1.016-.108,1.016-.108l.912-.03Z" transform="translate(-3352.854 -993.356)" fill="#1a1a1a" opacity="0.2"/>
                    <path id="Trazado_100452" data-name="Trazado 100452" d="M3407.717,928.651l-2.329,7.113a60.449,60.449,0,0,1-10.6.526c-4.254-.326-9.7-1.051-10.178-1.115a.22.22,0,0,0-.033,0,2.636,2.636,0,0,0-.485-2.71c1.164-.4,4.453-.5,7.661-.5h0c3.753.009,7.39.165,7.39.165a62.025,62.025,0,0,1,1.979-7.776,64.375,64.375,0,0,1,3.027-7.772h1.486Z" transform="translate(-3358.469 -894.88)" fill="#5b7393"/>
                    <path id="Trazado_100453" data-name="Trazado 100453" d="M3386.157,1369.512l1,4.676,3.708-.158-.63-5.861Z" transform="translate(-3360.245 -1283.423)" fill="#ebc4a1"/>
                    <g id="Grupo_50289" data-name="Grupo 50289" transform="translate(16.055 89.328)">
                      <path id="Trazado_100454" data-name="Trazado 100454" d="M3331.671,1427.55a2.01,2.01,0,0,1-.651,1.618c-1.582,1.257-15.517.3-15.472-.572a1.4,1.4,0,0,1,.66-1.158C3319.907,1428.155,3326.325,1428.982,3331.671,1427.55Z" transform="translate(-3315.548 -1423.746)" fill="#e1e1e1"/>
                      <path id="Trazado_100455" data-name="Trazado 100455" d="M3335.735,1404.794c-5.346,1.432-11.764.6-15.463-.112l.038-.019a37.156,37.156,0,0,1,9.288-3.674s1.49,1.518,5.3.356A9.363,9.363,0,0,1,3335.735,1404.794Z" transform="translate(-3319.612 -1400.989)" fill="#5b7393"/>
                    </g>
                    <path id="Trazado_100456" data-name="Trazado 100456" d="M3354.97,1224.389a3.466,3.466,0,0,0-.9-.459,4.807,4.807,0,0,0-1.211-.28,6.681,6.681,0,0,0-2.771.3,10.133,10.133,0,0,0-1.122.433s-1.109-3.344-2.315-7.537a84.164,84.164,0,0,1-2.964-13.244,11.635,11.635,0,0,1,3.669-4.753,12.058,12.058,0,0,1,6.463-2.437s.323,3.475.652,8.075C3354.942,1211.127,3355.428,1220.105,3354.97,1224.389Z" transform="translate(-3323.704 -1135.647)" fill="#12263f"/>
                    <path id="Trazado_100457" data-name="Trazado 100457" d="M3377.579,1224.389a3.467,3.467,0,0,0-.9-.459,4.811,4.811,0,0,0-1.212-.28c-.136-6.117-3.383-17.777-5.5-24.8a12.06,12.06,0,0,1,6.464-2.437s.322,3.475.651,8.075C3377.552,1211.127,3378.037,1220.105,3377.579,1224.389Z" transform="translate(-3346.313 -1135.647)" fill="#12263f" opacity="0.2" style="mix-blend-mode: multiply;isolation: isolate"/>
                    <g id="Grupo_50290" data-name="Grupo 50290" transform="translate(0 49.842)">
                      <path id="Trazado_100458" data-name="Trazado 100458" d="M3264.568,1360.952l-2.64,3.987,2.709,2.537,3.743-4.553Z" transform="translate(-3253.359 -1327.055)" fill="#ebc4a1"/>
                      <path id="Trazado_100459" data-name="Trazado 100459" d="M3211.341,1365.815a1.733,1.733,0,0,1-1.364.635c-1.735-.14-9.942-8.951-9.4-9.471a1.208,1.208,0,0,1,1.1-.341C3203.58,1359.268,3207.133,1363.568,3211.341,1365.815Z" transform="translate(-3200.55 -1323.322)" fill="#e1e1e1"/>
                      <path id="Trazado_100460" data-name="Trazado 100460" d="M3218.262,1365.962c-4.208-2.248-7.761-6.548-9.667-9.179l.035.011a32.037,32.037,0,0,1,8.01,3.158s.044,1.833,3.124,3.344A8.087,8.087,0,0,1,3218.262,1365.962Z" transform="translate(-3207.472 -1323.468)" fill="#5b7393"/>
                      <path id="Trazado_100461" data-name="Trazado 100461" d="M3311,1132.183c-14.908,2.8-22.941,2.023-22.941,2.023s-4.846,12.872-14.145,22.158a2.149,2.149,0,0,0-.06-.249,3.051,3.051,0,0,0-3.267-2.286,2.67,2.67,0,0,0-.293.019s3.924-20.714,10.9-27.1c0,0,15.1-4.834,24.007-6.088,4.341-.615,7.831-1.228,10.266-1.69,2.563-.492,3.964-.823,3.964-.823S3325.9,1129.381,3311,1132.183Z" transform="translate(-3260.554 -1118.149)" fill="#12263f"/>
                    </g>
                    <path id="Trazado_100462" data-name="Trazado 100462" d="M3410.7,928.651l-2.33,7.113a60.438,60.438,0,0,1-10.6.526c-4.453-.341-10.212-1.119-10.212-1.119,3.276-1.809,15-1.807,15-1.807s.195-1.2.68-3.144a40.008,40.008,0,0,0,.866-5.868,64.529,64.529,0,0,1,3.026-7.772h1.486Z" transform="translate(-3361.455 -894.88)" fill="#1a1a1a" opacity="0.2"/>
                    <path id="Trazado_100463" data-name="Trazado 100463" d="M3333.307,1132.183c-14.908,2.8-22.941,2.023-22.941,2.023s-4.847,12.872-14.145,22.158q.554-.813,1.073-1.63c.166-.26.328-.515.485-.775a75.774,75.774,0,0,0,9.214-22.337s25.474-.181,30.121-4.053c2.805-2.336,1.851-6.033.655-8.6,2.563-.492,3.964-.823,3.964-.823S3348.215,1129.381,3333.307,1132.183Z" transform="translate(-3282.865 -1068.307)" fill="#1a1a1a" opacity="0.2" style="mix-blend-mode: multiply;isolation: isolate"/>
                    <path id="Trazado_100464" data-name="Trazado 100464" d="M3520.735,919.756a18.447,18.447,0,0,1-11.358,2.092c-1.208.079-2.274.255-3.249.4a9.221,9.221,0,0,1-3.724.047c-1.934-.516-2.062-.325-1.677-3.1.241-1.717.8-5.736,1.261-9.727.28-2.454.518-4.9.62-6.791.258-4.969,1.165-11.812,1.745-12.519s2.019-2.581,2.752-2.581c0,0,1.23,3.235,4.575-1.706,0,0,2.562,1.051,3.077,2.274s1.987,3.889,1.986,5.436S3515.511,909.492,3520.735,919.756Z" transform="translate(-3458.671 -868.46)" fill="#5b7393"/>
                    <path id="Trazado_100465" data-name="Trazado 100465" d="M3338.892,1111.354l-14.754-4.81a1.011,1.011,0,0,0-1.287,1.235l2.29,8.137a1.01,1.01,0,0,0,1.233.7l12.465-3.327A1.01,1.01,0,0,0,3338.892,1111.354Z" transform="translate(-3305.743 -1058.279)" fill="#1a1a1a"/>
                    <path id="Trazado_100466" data-name="Trazado 100466" d="M3338.841,1113.293l-12.465,3.327a1.01,1.01,0,0,1-1.234-.7l-2.289-8.136a1.01,1.01,0,0,1,1.149-1.268,7.744,7.744,0,0,0,13.341,4.339l1.55.505A1.01,1.01,0,0,1,3338.841,1113.293Z" transform="translate(-3305.745 -1058.281)" fill="#1a1a1a" opacity="0.2"/>
                    <g id="Grupo_50291" data-name="Grupo 50291" transform="translate(10.954 28.292)">
                      <path id="Trazado_100467" data-name="Trazado 100467" d="M3280.644,963.993a.271.271,0,0,0-.327-.19l-1.1.278a.268.268,0,0,0-.193.331l5.011,18.474,1.621-.41Z" transform="translate(-3279.015 -963.795)" fill="#1a1a1a"/>
                      <path id="Trazado_100468" data-name="Trazado 100468" d="M3328.281,1096.85,3306,1089.606a.241.241,0,0,1-.155-.305l.389-1.2a.241.241,0,0,1,.3-.156l22.277,7.244a.242.242,0,0,1,.155.305l-.389,1.2A.242.242,0,0,1,3328.281,1096.85Z" transform="translate(-3302.093 -1070.606)" fill="#1a1a1a"/>
                      <rect id="Rectángulo_29064" data-name="Rectángulo 29064" width="11.842" height="0.427" transform="translate(5.837 18.506) rotate(18.013)" fill="#e1e1e1"/>
                      <rect id="Rectángulo_29065" data-name="Rectángulo 29065" width="1.194" height="0.427" transform="translate(18.479 22.617) rotate(18.013)" fill="#e1e1e1"/>
                      <rect id="Rectángulo_29066" data-name="Rectángulo 29066" width="1.194" height="0.427" transform="matrix(0.951, 0.309, -0.309, 0.951, 20.105, 23.146)" fill="#e1e1e1"/>
                      <path id="Trazado_100469" data-name="Trazado 100469" d="M3312.472,1094.441a.193.193,0,1,1-.124-.244A.193.193,0,0,1,3312.472,1094.441Z" transform="translate(-3307.476 -1075.984)" fill="#e1e1e1"/>
                    </g>
                    <path id="Trazado_100470" data-name="Trazado 100470" d="M3338.124,1052.955s-1.629,1.08-1.716,1.223a2.953,2.953,0,0,1-.727.286c-.455.143-1.065.308-1.671.447-.034.007-.064.019-.09.023s-.056.011-.083.019l-.026,0a12.565,12.565,0,0,1-1.25.221c-1.307.147-2.35,1.43-2.832,1.682a1.549,1.549,0,0,1-1.355.089c-.26-.1.976-1.11,2.019-1.919a11.154,11.154,0,0,1-3.189,1.768.869.869,0,0,1-.411,0c-1.061-.347,1.387-1.957,2.983-3.187a26.78,26.78,0,0,1,5.433-2.561c.411-.155.667-.245.667-.245l1.987.63Z" transform="translate(-3308.945 -1010.362)" fill="#ebc4a1"/>
                    <path id="Trazado_100471" data-name="Trazado 100471" d="M3384.2,1052.955s-1.63,1.08-1.717,1.223a2.943,2.943,0,0,1-.727.286c-.455.143-1.065.308-1.671.447a2.586,2.586,0,0,0,1.593-1.836,2.072,2.072,0,0,0-.394-2.029c.411-.155.667-.245.667-.245l1.987.63Z" transform="translate(-3355.017 -1010.362)" fill="#1a1a1a" opacity="0.2"/>
                    <path id="Trazado_100472" data-name="Trazado 100472" d="M3514.449,933.676c-2.68,9.421-7.241,12.75-7.995,15.731a21.389,21.389,0,0,0-.326,5,9.221,9.221,0,0,1-3.724.047c-1.934-.517-2.062-.325-1.677-3.1.241-1.716.8-5.737,1.261-9.727a5.113,5.113,0,0,0,.485-.6c.9-1.415,5.332-10.576,5.445-11.675s.887-4.129.887-4.129l5.339-1.974S3517.134,924.255,3514.449,933.676Z" transform="translate(-3458.671 -900.614)" fill="#1a1a1a" opacity="0.2"/>
                    <path id="Trazado_100473" data-name="Trazado 100473" d="M3422.715,920.074a20.9,20.9,0,0,1-.765,2.435c-2.676,7.162-9.584,17.229-9.584,17.229-6.147.14-18.392-2.779-18.392-2.779a2.4,2.4,0,0,0-.345-3.211,2.2,2.2,0,0,0-.188-.166,7.783,7.783,0,0,1,2.251-.6c4.514-.683,12.709-.194,12.709-.194s4.7-11.81,5.905-15.552S3424.394,913.043,3422.715,920.074Z" transform="translate(-3366.512 -893.144)" fill="#5b7393"/>
                  </g>
                  <path id="Trazado_100474" data-name="Trazado 100474" d="M4087.813,1666.587v121.718a12.673,12.673,0,0,1-12.659,12.659H4032.5a18.452,18.452,0,0,1-2.472-9.226V1685.075a18.51,18.51,0,0,1,18.489-18.488Z" transform="translate(-3791.416 -1540.179)" opacity="0.05" style="mix-blend-mode: multiply;isolation: isolate"/>
                  <g id="Grupo_50293" data-name="Grupo 50293" transform="translate(268.128 47.678)">
                    <path id="Trazado_100475" data-name="Trazado 100475" d="M5058.135,1904.575l42.659,42.658c4.854,4.853,4.17,13.405-1.525,19.1h0c-5.7,5.7-14.247,6.379-19.1,1.526l-42.658-42.658Z" transform="translate(-4926.371 -1792.62)" fill="#00223d"/>
                    <rect id="Rectángulo_29067" data-name="Rectángulo 29067" width="20.808" height="22.669" transform="translate(94.386 109.917) rotate(-45)" fill="#12263f"/>
                    <path id="Trazado_100476" data-name="Trazado 100476" d="M4932.233,1784.588l7.4,7.4a68.936,68.936,0,0,1-14.84,14.588l-7.272-7.273Z" transform="translate(-4823.135 -1689.384)" fill="#1a1a1a" opacity="0.2" style="mix-blend-mode: multiply;isolation: isolate"/>
                    <circle id="Elipse_4021" data-name="Elipse 4021" cx="61.846" cy="61.846" r="61.846" fill="#12263f"/>
                    <circle id="Elipse_4022" data-name="Elipse 4022" cx="51.101" cy="51.101" r="51.101" transform="translate(10.745 10.745)" fill="#fff" style="mix-blend-mode: screen;isolation: isolate"/>
                    <path id="Trazado_100477" data-name="Trazado 100477" d="M4449.157,1259.269a51.109,51.109,0,0,1-97.569,21.291,51.124,51.124,0,0,0,67.759-67.759A51.107,51.107,0,0,1,4449.157,1259.269Z" transform="translate(-4336.211 -1197.423)" fill="#1a1a1a" opacity="0.2" style="mix-blend-mode: multiply;isolation: isolate"/>
                    <rect id="Rectángulo_29068" data-name="Rectángulo 29068" width="29.172" height="7.731" transform="translate(111.137 132.583) rotate(-45)" fill="#1a1a1a" opacity="0.2" style="mix-blend-mode: multiply;isolation: isolate"/>
                    <path id="Trazado_100478" data-name="Trazado 100478" d="M5014.438,1859.419l-22.086,22.086a2.445,2.445,0,0,1-3.458,0l-4.205-4.2a2.448,2.448,0,0,1,0-3.459l22.085-22.085a2.445,2.445,0,0,1,3.459,0l4.205,4.2A2.445,2.445,0,0,1,5014.438,1859.419Z" transform="translate(-4880.31 -1746.558)" fill="#d8e5ed"/>
                  </g>
                  <g id="Grupo_50294" data-name="Grupo 50294" transform="translate(247.876 135.67)">
                    <rect id="Rectángulo_29069" data-name="Rectángulo 29069" width="74.665" height="125.114" rx="2" fill="#12263f"/>
                    <rect id="Rectángulo_29070" data-name="Rectángulo 29070" width="68.201" height="118.65" rx="2" transform="translate(3.232 3.232)" fill="#fff"/>
                    <path id="Trazado_100479" data-name="Trazado 100479" d="M4232.408,1745.256h-21.318l5.773,5.772a2.638,2.638,0,0,0,1.865.773h27.359a2.638,2.638,0,0,0,1.866-.773l5.772-5.772Z" transform="translate(-4195.075 -1743.536)" fill="#12263f"/>
                    <rect id="Rectángulo_29071" data-name="Rectángulo 29071" width="62.962" height="42.512" rx="2" transform="translate(5.852 14.061)" fill="#edf4f9"/>
                    <rect id="Rectángulo_29072" data-name="Rectángulo 29072" width="18.077" height="18.077" rx="2" transform="translate(7.73 71.866)" fill="#edf4f9"/>
                    <rect id="Rectángulo_29073" data-name="Rectángulo 29073" width="18.077" height="18.077" rx="2" transform="translate(7.73 94.896)" fill="#edf4f9"/>
                    <rect id="Rectángulo_29074" data-name="Rectángulo 29074" width="33.852" height="1.496" transform="translate(29.962 72.447)" fill="#edf4f9"/>
                    <rect id="Rectángulo_29075" data-name="Rectángulo 29075" width="33.852" height="1.496" transform="translate(29.962 75.772)" fill="#edf4f9"/>
                    <rect id="Rectángulo_29076" data-name="Rectángulo 29076" width="62.962" height="1.496" transform="translate(5.852 59.706)" fill="#edf4f9"/>
                    <rect id="Rectángulo_29077" data-name="Rectángulo 29077" width="33.852" height="1.496" transform="translate(5.852 63.03)" fill="#edf4f9"/>
                    <rect id="Rectángulo_29078" data-name="Rectángulo 29078" width="15.5" height="1.496" transform="translate(29.962 79.096)" fill="#edf4f9"/>
                    <rect id="Rectángulo_29079" data-name="Rectángulo 29079" width="30.419" height="1.496" transform="translate(29.962 83.917)" fill="#edf4f9"/>
                    <rect id="Rectángulo_29080" data-name="Rectángulo 29080" width="33.852" height="1.496" transform="translate(29.962 95.386)" fill="#edf4f9"/>
                    <rect id="Rectángulo_29081" data-name="Rectángulo 29081" width="33.852" height="1.496" transform="translate(29.962 98.71)" fill="#edf4f9"/>
                    <rect id="Rectángulo_29082" data-name="Rectángulo 29082" width="15.5" height="1.496" transform="translate(29.962 102.035)" fill="#edf4f9"/>
                    <rect id="Rectángulo_29083" data-name="Rectángulo 29083" width="30.419" height="1.496" transform="translate(29.962 106.855)" fill="#edf4f9"/>
                  </g>
                  <g id="Grupo_50300" data-name="Grupo 50300" transform="translate(87.346 121.782)">
                    <rect id="Rectángulo_29086" data-name="Rectángulo 29086" width="60.77" height="15.734" rx="2" fill="#26aab7"/>
                    <g id="Grupo_50298" data-name="Grupo 50298" transform="translate(4.158 4.114)">
                      <path id="Trazado_100490" data-name="Trazado 100490" d="M2980.239,1662.916l.932,2.867h3.014l-2.438,1.772.931,2.867-2.438-1.772-2.439,1.772.932-2.867-2.439-1.772h3.015Z" transform="translate(-2976.292 -1662.916)" fill="#f5ca56"/>
                      <path id="Trazado_100491" data-name="Trazado 100491" d="M3060.037,1662.916l.931,2.867h3.015l-2.439,1.772.932,2.867-2.439-1.772-2.439,1.772.932-2.867-2.439-1.772h3.015Z" transform="translate(-3044.95 -1662.916)" fill="#f5ca56"/>
                      <path id="Trazado_100492" data-name="Trazado 100492" d="M3139.836,1662.916l.931,2.867h3.015l-2.438,1.772.931,2.867-2.439-1.772-2.439,1.772.931-2.867-2.438-1.772h3.015Z" transform="translate(-3113.609 -1662.916)" fill="#f5ca56"/>
                      <path id="Trazado_100493" data-name="Trazado 100493" d="M3219.635,1662.916l.932,2.867h3.014l-2.438,1.772.931,2.867-2.438-1.772-2.439,1.772.932-2.867-2.439-1.772h3.015Z" transform="translate(-3182.267 -1662.916)" fill="#f5ca56"/>
                      <path id="Trazado_100494" data-name="Trazado 100494" d="M3299.434,1662.916l.931,2.867h3.015l-2.439,1.772.932,2.867-2.438-1.772-2.439,1.772.932-2.867-2.438-1.772h3.015Z" transform="translate(-3250.925 -1662.916)" fill="#d8e5ed"/>
                    </g>
                    <rect id="Rectángulo_29087" data-name="Rectángulo 29087" width="60.77" height="15.734" rx="2" transform="translate(10.921 19.355)" fill="#26aab7"/>
                    <g id="Grupo_50299" data-name="Grupo 50299" transform="translate(15.078 23.469)">
                      <path id="Trazado_100495" data-name="Trazado 100495" d="M3058.465,1801.557l.931,2.867h3.016l-2.439,1.772.932,2.867-2.439-1.772-2.439,1.772.932-2.867-2.439-1.772h3.015Z" transform="translate(-3054.518 -1801.557)" fill="#f5ca56"/>
                      <path id="Trazado_100496" data-name="Trazado 100496" d="M3138.263,1801.557l.932,2.867h3.015l-2.438,1.772.931,2.867-2.439-1.772-2.438,1.772.931-2.867-2.439-1.772h3.016Z" transform="translate(-3123.176 -1801.557)" fill="#f5ca56"/>
                      <path id="Trazado_100497" data-name="Trazado 100497" d="M3218.063,1801.557l.931,2.867h3.015l-2.438,1.772.931,2.867-2.438-1.772-2.439,1.772.932-2.867-2.439-1.772h3.015Z" transform="translate(-3191.835 -1801.557)" fill="#f5ca56"/>
                      <path id="Trazado_100498" data-name="Trazado 100498" d="M3297.86,1801.557l.932,2.867h3.015l-2.439,1.772.932,2.867-2.439-1.772-2.438,1.772.932-2.867-2.439-1.772h3.015Z" transform="translate(-3260.493 -1801.557)" fill="#f5ca56"/>
                      <path id="Trazado_100499" data-name="Trazado 100499" d="M3377.659,1801.557l.932,2.867h3.014l-2.438,1.772.932,2.867-2.439-1.772-2.439,1.772.932-2.867-2.439-1.772h3.015Z" transform="translate(-3329.151 -1801.557)" fill="#f5ca56"/>
                    </g>
                  </g>
                  <g id="Grupo_50457" data-name="Grupo 50457" transform="translate(297.129 178.854)">
                    <rect id="Rectángulo_29086-2" data-name="Rectángulo 29086" width="60.77" height="15.734" rx="2" fill="#7d6eb2"/>
                    <g id="Grupo_50298-2" data-name="Grupo 50298" transform="translate(4.158 4.114)">
                      <path id="Trazado_100490-2" data-name="Trazado 100490" d="M2980.239,1662.916l.932,2.867h3.014l-2.438,1.772.931,2.867-2.438-1.772-2.439,1.772.932-2.867-2.439-1.772h3.015Z" transform="translate(-2976.292 -1662.916)" fill="#f5ca56"/>
                      <path id="Trazado_100491-2" data-name="Trazado 100491" d="M3060.037,1662.916l.931,2.867h3.015l-2.439,1.772.932,2.867-2.439-1.772-2.439,1.772.932-2.867-2.439-1.772h3.015Z" transform="translate(-3044.95 -1662.916)" fill="#f5ca56"/>
                      <path id="Trazado_100492-2" data-name="Trazado 100492" d="M3139.836,1662.916l.931,2.867h3.015l-2.438,1.772.931,2.867-2.439-1.772-2.439,1.772.931-2.867-2.438-1.772h3.015Z" transform="translate(-3113.609 -1662.916)" fill="#f5ca56"/>
                      <path id="Trazado_100493-2" data-name="Trazado 100493" d="M3219.635,1662.916l.932,2.867h3.014l-2.438,1.772.931,2.867-2.438-1.772-2.439,1.772.932-2.867-2.439-1.772h3.015Z" transform="translate(-3182.267 -1662.916)" fill="#f5ca56"/>
                      <path id="Trazado_100494-2" data-name="Trazado 100494" d="M3299.434,1662.916l.931,2.867h3.015l-2.439,1.772.932,2.867-2.438-1.772-2.439,1.772.932-2.867-2.438-1.772h3.015Z" transform="translate(-3250.925 -1662.916)" fill="#d8e5ed"/>
                    </g>
                    <rect id="Rectángulo_29087-2" data-name="Rectángulo 29087" width="60.77" height="15.734" rx="2" transform="translate(10.921 19.355)" fill="#7d6eb2"/>
                    <g id="Grupo_50299-2" data-name="Grupo 50299" transform="translate(15.078 23.469)">
                      <path id="Trazado_100495-2" data-name="Trazado 100495" d="M3058.465,1801.557l.931,2.867h3.016l-2.439,1.772.932,2.867-2.439-1.772-2.439,1.772.932-2.867-2.439-1.772h3.015Z" transform="translate(-3054.518 -1801.557)" fill="#f5ca56"/>
                      <path id="Trazado_100496-2" data-name="Trazado 100496" d="M3138.263,1801.557l.932,2.867h3.015l-2.438,1.772.931,2.867-2.439-1.772-2.438,1.772.931-2.867-2.439-1.772h3.016Z" transform="translate(-3123.176 -1801.557)" fill="#f5ca56"/>
                      <path id="Trazado_100497-2" data-name="Trazado 100497" d="M3218.063,1801.557l.931,2.867h3.015l-2.438,1.772.931,2.867-2.438-1.772-2.439,1.772.932-2.867-2.439-1.772h3.015Z" transform="translate(-3191.835 -1801.557)" fill="#f5ca56"/>
                      <path id="Trazado_100498-2" data-name="Trazado 100498" d="M3297.86,1801.557l.932,2.867h3.015l-2.439,1.772.932,2.867-2.439-1.772-2.438,1.772.932-2.867-2.439-1.772h3.015Z" transform="translate(-3260.493 -1801.557)" fill="#f5ca56"/>
                      <path id="Trazado_100499-2" data-name="Trazado 100499" d="M3377.659,1801.557l.932,2.867h3.014l-2.438,1.772.932,2.867-2.439-1.772-2.439,1.772.932-2.867-2.439-1.772h3.015Z" transform="translate(-3329.151 -1801.557)" fill="#f5ca56"/>
                    </g>
                  </g>
                </g>
              </g>
            </g>
          </g>
        </g>
      </g>
    </g>
  </g>
</svg>
