<svg xmlns="http://www.w3.org/2000/svg" width="137.039" height="134.085" viewBox="0 0 137.039 134.085">
  <g id="Grupo_1100058" data-name="Grupo 1100058" transform="translate(-521.481 -4247.046)">
    <g id="Grupo_1100057" data-name="Grupo 1100057">
      <g id="Grupo_1100056" data-name="Grupo 1100056">
        <g id="Grupo_1100055" data-name="Grupo 1100055">
          <g id="Grupo_1100054" data-name="Grupo 1100054">
            <path id="_12068" data-name="12068" d="M102.542,72.346c-14.033-1.938-28.856-1.464-41.625,4.669-17.708,8.505-29.338,27.789-29.784,47.429s9.786,38.939,25.592,50.6,36.651,15.8,55.981,12.3c19.492-3.532,37.786-14.984,47.953-31.985,6.519-10.9,9.567-24.363,5.965-36.544-2.174-7.352-6.62-13.866-11.848-19.475A87.539,87.539,0,0,0,102.542,72.346Z" transform="translate(490.362 4192.578)" fill="#ffd947"/>
            <g id="groceries" transform="translate(533.895 4242.933)">
              <g id="Grupo_1099645" data-name="Grupo 1099645" transform="translate(5.324 5.404)">
                <path id="Trazado_873862" data-name="Trazado 873862" d="M67.362,224.517c-.32-2.512.5-3.688,1.428-4.236-3.907-1.459-6.365-13.519,3.114-16.055,0,0-.843-7.522,6.109-10.331,3.287-1.328,6.241-.066,8.443,1.633A9.355,9.355,0,0,1,93,191.177V169.088l-6.918,4.307-6.918-4.307-6.917,4.307-6.917-4.307-6.917,4.307-6.917-4.307-6.916,4.307-6.916-4.307-6.915,4.307-6.916-4.307-6.916,4.307L10,169.088v73.775H88.147l0-.012a21.158,21.158,0,0,1-20.787-18.335Z" transform="translate(-10 -133.79)" fill="#ffcea3"/>
                <path id="Trazado_873863" data-name="Trazado 873863" d="M329.138,195.528a9.355,9.355,0,0,1,6.541-4.351V169.088l-6.918,4.307-6.918-4.307v24.443a8.668,8.668,0,0,1,7.295,2Z" transform="translate(-252.682 -133.79)" fill="#ef8d51"/>
                <g id="Grupo_1099643" data-name="Grupo 1099643" transform="translate(55.324 57.308)">
                  <path id="Trazado_873864" data-name="Trazado 873864" d="M426.249,387.479a4.033,4.033,0,0,0-4.711,3.036,4.011,4.011,0,0,0-4.167,2.732,13.4,13.4,0,0,0-12.662.734c.339-8.976,6.742-7.37,6.742-7.37s1.978-5.478,7.758-3.509a10.794,10.794,0,0,1,1.153.47s3.892-2.342,5.369.217v0A6.429,6.429,0,0,1,426.249,387.479Z" transform="translate(-372.494 -357.252)" fill="#43ce87"/>
                  <path id="Trazado_873865" data-name="Trazado 873865" d="M393.3,404.394a21.54,21.54,0,0,1-21.539,21.539h-8.874c-.173,0-.344,0-.517-.007a23.432,23.432,0,0,1,5.693-12.029,16.765,16.765,0,0,1,3.7-3,13.4,13.4,0,0,1,12.662-.734,4.011,4.011,0,0,1,4.167-2.732,4.033,4.033,0,0,1,4.711-3.036Z" transform="translate(-339.545 -374.167)" fill="#00b387"/>
                  <path id="Trazado_873866" data-name="Trazado 873866" d="M391.865,344.179c-5.78-1.969-7.758,3.509-7.758,3.509s-6.4-1.606-6.742,7.37a16.764,16.764,0,0,0-3.7,3,12.148,12.148,0,0,0-3.819-4.34c-.863-5.1.437-7.911,1.905-9.441v0a6.117,6.117,0,0,1,2.919-1.748s-1.918-9.375,7.561-8.743a4.543,4.543,0,0,1,2.278-1.158,4.044,4.044,0,0,1,3.411,1.127c3.054,2.664,2.956,8.729,2.956,8.729S392.047,342.444,391.865,344.179Z" transform="translate(-345.15 -318.328)" fill="#93cf00"/>
                  <path id="Trazado_873867" data-name="Trazado 873867" d="M295.121,422.1a23.431,23.431,0,0,0-5.693,12.029A21.161,21.161,0,0,1,268.64,415.79a2.175,2.175,0,0,1,3.067,1.116s.563-2.036,4-2.036,5.407,3.52,5.407,3.52,3.992-2.954,8.308-1.539v0a7.99,7.99,0,0,1,1.876.907A12.149,12.149,0,0,1,295.121,422.1Z" transform="translate(-266.602 -382.37)" fill="#00b387"/>
                  <path id="Trazado_873868" data-name="Trazado 873868" d="M289.179,392.942c-4.316-1.415-8.308,1.539-8.308,1.539s-1.967-3.52-5.407-3.52-4,2.036-4,2.036a2.175,2.175,0,0,0-3.067-1.116c-.319-2.511.5-3.688,1.424-4.238a3.688,3.688,0,0,1,2.043-.459,3.159,3.159,0,0,1,2.129-2.775,4.174,4.174,0,0,1,.989-.237c2.555-.295,4,2.136,4,2.136C281.266,384.707,288.028,384.938,289.179,392.942Z" transform="translate(-266.356 -358.462)" fill="#43ce87"/>
                  <path id="Trazado_873869" data-name="Trazado 873869" d="M313.81,340.345c-1.468,1.53-2.768,4.345-1.905,9.441a7.989,7.989,0,0,0-1.876-.907v0c-1.151-8-7.913-8.235-10.2-6.633,0,0-1.444-2.431-4-2.136-2.615-6.019,2.557-12.879,5.922-12.573a2.855,2.855,0,0,1,1.517.577c1.883,1.437,1.725,5.006,1.725,5.006s7.454-1.823,8.818,7.226Z" transform="translate(-287.206 -314.397)" fill="#93cf00"/>
                  <path id="Trazado_873870" data-name="Trazado 873870" d="M355.17,312.674a4.543,4.543,0,0,0-2.278,1.158c-9.479-.632-7.561,8.743-7.561,8.743a6.117,6.117,0,0,0-2.919,1.748c-1.364-9.049-8.818-7.226-8.818-7.226s.157-3.568-1.725-5.006a15.283,15.283,0,0,1,9.047-4.952C347.035,306.162,353.141,308.877,355.17,312.674Z" transform="translate(-315.809 -298.375)" fill="#d8f68b"/>
                  <g id="Grupo_1099642" data-name="Grupo 1099642">
                    <path id="Trazado_873871" data-name="Trazado 873871" d="M386.845,294.868c-1.477-2.559-5.369-.217-5.369-.217a10.812,10.812,0,0,0-1.153-.47c.182-1.734-.987-1.7-.987-1.7s.1-6.066-2.956-8.729a4.044,4.044,0,0,0-3.411-1.127c-2.029-3.8-8.135-6.512-14.254-5.536a18.6,18.6,0,0,0-3.974-4.334c5.25-7.811,14.868-3.95,15.429,1.317,0,0,8.638-4.072,12.921,3.44s1.122,11.586,1.122,11.586S387.863,289.543,386.845,294.868Z" transform="translate(-333.607 -268.33)" fill="#43ce87"/>
                    <path id="Trazado_873872" data-name="Trazado 873872" d="M284.56,284.959a15.283,15.283,0,0,0-9.046,4.952,2.855,2.855,0,0,0-1.517-.577c-3.364-.306-8.536,6.554-5.922,12.573a4.173,4.173,0,0,0-.989.237,3.159,3.159,0,0,0-2.129,2.775,3.688,3.688,0,0,0-2.043.459c-3.906-1.466-6.356-13.518,3.118-16.055,0,0-.843-7.521,6.11-10.331,3.287-1.328,6.241-.067,8.443,1.632A18.6,18.6,0,0,1,284.56,284.959Z" transform="translate(-259.452 -276.197)" fill="#43ce87"/>
                  </g>
                </g>
                <g id="Grupo_1099644" data-name="Grupo 1099644" transform="translate(19.211 58.853)">
                  <path id="Trazado_873873" data-name="Trazado 873873" d="M150.263,301.959c-6.273-11.691-.909-17.892,5.846-21.244s8.269-5.418,8.269-5.418a22.941,22.941,0,0,1,1.711,16.682c-2.973,10.461-15.826,9.98-15.826,9.98Z" transform="translate(-136.199 -275.297)" fill="#93cf00"/>
                  <path id="Trazado_873874" data-name="Trazado 873874" d="M113.688,298.163c-6.851-4.363-16.812-1.874-16.812-1.874s-3.3,15.753,13.808,21.456C105.328,307.763,108.456,301.784,113.688,298.163Z" transform="translate(-96.62 -291.083)" fill="#00b387"/>
                </g>
                <path id="Trazado_873875" data-name="Trazado 873875" d="M162.507,28.884c-3.988,3.252-6.66,10.772-7.008,11.79.792.129,1.253.249,1.253.249a16.522,16.522,0,0,1,1.615.382c2.02-.627,3.1-3.183,3.1-3.183,3.827,2.517,6.038-2.573,6.038-2.573a3.919,3.919,0,0,0,5.507-3.063c1.138-4.848-6.227-7.094-10.509-3.6Z" transform="translate(-123.23 -23.361)" fill="#93cf00"/>
                <path id="Trazado_873876" data-name="Trazado 873876" d="M121.323,21.033a20.06,20.06,0,0,0-2.1-7.286c-2.778-4.776-10.463-5.267-11.1-.329a3.919,3.919,0,0,0,4.076,4.806s.277,5.543,4.745,4.535c0,0,.114,2.776,1.787,4.074a43.184,43.184,0,0,1,2.6-5.8Z" transform="translate(-86.309 -9.933)" fill="#00b387"/>
                <path id="Trazado_873877" data-name="Trazado 873877" d="M78.383,79.915c.292-2.4.53-4.248,1.255-5.539-.763-2.534-2.593-2.355-2.593-2.355A4.9,4.9,0,0,0,72.5,68.01c-2.922-.262-2.831,4.492-2.831,4.492a27.325,27.325,0,0,1,3.358,7.022A7.205,7.205,0,0,1,78.085,83c.086-1.106.185-2.159.3-3.089Z" transform="translate(-56.438 -55.122)" fill="#00b387"/>
                <path id="Trazado_873878" data-name="Trazado 873878" d="M34.285,95.814c0-1.966.136-6.867.459-11.022a7.205,7.205,0,0,0-5.054-3.479s-4.224-14.384-12.3-10.278.726,15.158.726,15.158-4.651,5.255,2.444,9.981l6.369-3.966,6.916,4.307.444-.276c0-.141,0-.281,0-.424Z" transform="translate(-13.097 -56.909)" fill="#93cf00"/>
                <path id="Trazado_873879" data-name="Trazado 873879" d="M161.362,122.909l6.916-4.307,6.917,4.307,6.917-4.307,6.917,4.307,6.917-4.307,6.918,4.307.129-.081c5.1-14.663-9.893-21.58-16.2-17.418-1.774,1.171-5.142,2.439-7.16,1.415l-.586-.332q-.839-.488-1.743-1.083c-6.291-4.152-21.228,2.722-16.235,17.316l.293.183Z" transform="translate(-126.783 -83.305)" fill="#fb5657"/>
                <path id="Trazado_873880" data-name="Trazado 873880" d="M126.126,91.335c-.6-1.044-1.788-1.936-3.839-2.8a25.7,25.7,0,0,0-9.011-1.914c-5.965-.122-6.341,2.47-6.986,7.781-.537,4.426-.761,11.622-.757,14.111,0,.143,0,.283,0,.424l6.471-4.03,6.622,4.124c-3.211-9.385,1.821-15.577,7.5-17.7Z" transform="translate(-84.346 -69.611)" fill="#ffa300"/>
                <path id="Trazado_873881" data-name="Trazado 873881" d="M258.4,54.19a6.4,6.4,0,0,1,.737-.415c4.942-3.464,6.164-9.8,5.186-15.378,0,0-9.349.253-11.5,6.7a12.491,12.491,0,0,0,1.016,10.833A11.606,11.606,0,0,0,258.4,54.19Z" transform="translate(-198.389 -32.084)" fill="#93cf00"/>
              </g>
              <g id="Grupo_1099646" data-name="Grupo 1099646" transform="translate(3.992 4.113)">
                <path id="Trazado_873882" data-name="Trazado 873882" d="M115.271,89.087a6.64,6.64,0,0,0-.9-5.068,4.575,4.575,0,0,0-1.277-1.19c.763-2.006,1.385-5.961-1.805-11.556a9.8,9.8,0,0,0-9.261-5.209,14.848,14.848,0,0,0-3.9.67,8.943,8.943,0,0,0-6.216-5.02,10.335,10.335,0,0,0-2.26-.3V56.105a1.331,1.331,0,0,0-2.661,0v5.616a10.258,10.258,0,0,0-4.256,2.328V45.781l4.256-2.65V45.9a1.331,1.331,0,1,0,2.661,0V40.735a1.331,1.331,0,0,0-2.034-1.13l-3.955,2.462a13.991,13.991,0,0,0-5.154-13.939,14.657,14.657,0,0,0-8.479-3.091,15.107,15.107,0,0,0,2.283-5.055,20.606,20.606,0,0,0,.257-8.443,1.339,1.339,0,0,0-1.36-1.12c-.548.016-10.315.412-12.713,7.605a14.455,14.455,0,0,0-.013,9.579c-.608-.346-1.244-.734-1.907-1.172a10.8,10.8,0,0,0-8.99-.852,10.475,10.475,0,0,0-3.806-2.445q-.219-.092-.431-.177a8.45,8.45,0,0,0,.766-1,4.4,4.4,0,0,0,2.755.093,6.459,6.459,0,0,0,3.4-2.867,5.414,5.414,0,0,0,3.425-.44,5.477,5.477,0,0,0,2.708-3.875A5.167,5.167,0,0,0,53.946,9.13a9.132,9.132,0,0,0-10.187.8,15.76,15.76,0,0,0-2.725,2.984,16.379,16.379,0,0,0-1.649-4.33,9.133,9.133,0,0,0-9.253-4.335,5.167,5.167,0,0,0-4.321,4.5,5.477,5.477,0,0,0,1.17,4.58,5.414,5.414,0,0,0,3.051,1.618,6.459,6.459,0,0,0,2.174,3.882,4.4,4.4,0,0,0,2.611.883,8.3,8.3,0,0,0,.459,1.445c-.318-.019-.65-.033-.995-.04-2.6-.054-4.319.406-5.492,1.26a3.886,3.886,0,0,0-1.794-1.218A6.208,6.208,0,0,0,21.507,17a3.317,3.317,0,0,0-2.631.874A4.71,4.71,0,0,0,17.7,19.794a9,9,0,0,0-2.564-1.736,6.934,6.934,0,0,0-6.125.318A7.025,7.025,0,0,0,5.05,23.239C4.1,27.613,7.313,32.771,8.7,34.739A7.554,7.554,0,0,0,7.57,39.6a6.8,6.8,0,0,0,.246,1.119l-1.79-1.115a1.331,1.331,0,0,0-2.034,1.13V114.51a1.331,1.331,0,0,0,1.331,1.331H92.863a22.9,22.9,0,0,0,22.869-22.822,8.495,8.495,0,0,0-.462-3.933ZM82.387,113.12a19.751,19.751,0,0,1-18.143-15.7,1.736,1.736,0,0,1,.3.408,1.358,1.358,0,0,0,1.359.827,1.262,1.262,0,0,0,1.131-1c.077-.167.6-1.086,2.725-1.086,2.6,0,4.231,2.816,4.245,2.839a1.334,1.334,0,0,0,1.95.424c.031-.023,3.121-2.244,6.473-1.518a8.314,8.314,0,0,1,5.088,3.988,24.727,24.727,0,0,0-5.125,10.813ZM68.551,75.729c-.028-.267-.618-6.568,5.285-8.954,4.145-1.675,7.832,1.751,9.63,3.892a16.733,16.733,0,0,0-7.019,4.144,4.413,4.413,0,0,0-1.135-.253c-2.008-.181-4.349,1.215-6.107,3.648a10.684,10.684,0,0,0-1.772,9.4A4.449,4.449,0,0,0,65.06,90.2a4.941,4.941,0,0,0-.911.241c-1.2-.888-2.295-3.52-2.16-6.342a7.121,7.121,0,0,1,5.582-6.94,1.335,1.335,0,0,0,.979-1.429Zm7.265-32.6,4.256,2.65V64.55a9.164,9.164,0,0,0-4.256-.9V43.131Zm12.9,42.913c-.193.087-.4.194-.624.319a8.89,8.89,0,0,0-3.471-5.026A8.426,8.426,0,0,0,79.7,79.99a8.1,8.1,0,0,0-1.176-3.485,14.224,14.224,0,0,1,11.621-3.754A12.826,12.826,0,0,1,97.926,76.4a5.775,5.775,0,0,0-.669.449c-2.939-.087-5.19.735-6.685,2.447-1.885,2.159-1.975,5.13-1.853,6.751ZM70.067,87.112a8,8,0,0,1,1.3-7.347c1.288-1.782,2.837-2.635,3.709-2.556,2.132.194,2.035,4.162,2.034,4.2a1.335,1.335,0,0,0,1.639,1.353,6.19,6.19,0,0,1,4.42.8,7.048,7.048,0,0,1,2.669,4.732,9.853,9.853,0,0,0-2.014,5.3,8.485,8.485,0,0,0-4.339-4.438,7.942,7.942,0,0,0-5.832-.235,5.607,5.607,0,0,0-3.58-1.8Zm-6.085,7.416a1.777,1.777,0,0,1,2.029-1.736,1.331,1.331,0,0,0,1.471-1.3,1.8,1.8,0,0,1,1.259-1.547,2.88,2.88,0,0,1,3.383,1.328,1.331,1.331,0,0,0,1.907.412,4.978,4.978,0,0,1,4.39-.09,6.1,6.1,0,0,1,3.3,3.947,11.619,11.619,0,0,0-6.191,1.443,7.617,7.617,0,0,0-5.776-3.069A6.092,6.092,0,0,0,65.7,95.17a3.3,3.3,0,0,0-.923-.489,3.082,3.082,0,0,0-.8-.154ZM86.577,97.37c-1.122-7.929,3.656-9.079,3.852-9.122a1.331,1.331,0,0,0,1.046-1.572c-.007-.035-.675-3.6,1.1-5.633,1.014-1.161,2.718-1.671,5.066-1.515a1.3,1.3,0,0,0,1.032-.389,2.934,2.934,0,0,1,1.472-.772c.038,0,.076-.011.114-.018a2.854,2.854,0,0,1,2.284.824c2.094,1.826,2.515,6.11,2.5,7.663a6.625,6.625,0,0,0-2.61.494,7.611,7.611,0,0,0-3.614,3.342A6.491,6.491,0,0,0,94.631,91.9c-1.789,1.342-2.815,3.63-3.056,6.8a17.951,17.951,0,0,0-2.165,1.653,12.771,12.771,0,0,0-2.833-2.99Zm9.629-3.322a4.062,4.062,0,0,1,3.077-.654,1.339,1.339,0,0,0,1.572-.832,5.3,5.3,0,0,1,2.615-2.78,5.537,5.537,0,0,1,4.476.485,1.33,1.33,0,0,0,1.256-.062c.744-.447,2.444-1.09,3.192-.628.418.259.662.971.709,2.015a5.155,5.155,0,0,0-4.349,3.085,5.152,5.152,0,0,0-3.865,2.371,14.6,14.6,0,0,0-10.417.158,5.281,5.281,0,0,1,1.733-3.158Zm-7.779-29.9c.04,0,.079-.008.118-.015a7.616,7.616,0,0,1,2.727.163c2.472.612,4.413,2.435,4.616,4.335A1.333,1.333,0,0,0,97.775,69.7c.308-.143,7.588-3.44,11.2,2.895,3.734,6.55,1.322,9.983,1.228,10.111a1.332,1.332,0,0,0-.193,1.35,1.29,1.29,0,0,0,1.072.786,1.942,1.942,0,0,1,1.162.784,2.831,2.831,0,0,1,.44,1.242,6.676,6.676,0,0,0-4.048.642,2.505,2.505,0,0,0-.608-1.21,2.271,2.271,0,0,0-.346-.3c-.106-1.945-.653-6.44-3.389-8.826a5.586,5.586,0,0,0-3.574-1.513c-1.949-2.869-5.858-5.008-10.249-5.545a17.645,17.645,0,0,0-4.08-.029,20.591,20.591,0,0,0-2.782-3.124,7.585,7.585,0,0,1,4.818-2.808ZM64.621,26.419a14.3,14.3,0,0,1-1.848.965,41.528,41.528,0,0,1,1.749-4.132l4.262-1.315A10.727,10.727,0,0,1,65.39,25.98a7.53,7.53,0,0,0-.768.438Zm5.233-7.6-3.5,1.08a34.981,34.981,0,0,1,3.865-5.213,17.262,17.262,0,0,1-.366,4.134Zm-8.832.046c1.008-3.026,4.016-4.474,6.518-5.164a41.436,41.436,0,0,0-6.915,11.786,12.114,12.114,0,0,1,.4-6.621Zm-5.958,9.756a10.156,10.156,0,0,0,2.267,1.387C62.646,33,66.044,33.043,66.2,33.043a1.331,1.331,0,0,0,.01-2.661,10.862,10.862,0,0,1-2.507-.491,17.384,17.384,0,0,0,2.319-1.211c.222-.165.5-.214.716-.4,2.737-1.261,7.006-.483,10.133,1.948,3.83,2.979,5.192,7.593,3.846,12.82l-5.533-3.444a1.343,1.343,0,0,0-1.407,0l-6.214,3.869-6.213-3.869a1.33,1.33,0,0,0-1.407,0l-6.213,3.869-6.213-3.869a1.331,1.331,0,0,0-1.407,0l-5.641,3.513c-1.379-5.265-.012-9.917,3.851-12.906,3.374-2.61,8.076-3.3,10.739-1.589ZM45.442,11.991a6.451,6.451,0,0,1,7.094-.6,2.535,2.535,0,0,1,1.279,2.871A3,3,0,0,1,52.49,16.37a3.3,3.3,0,0,1-2.383.024,1.335,1.335,0,0,0-1.722.7A4.672,4.672,0,0,1,46.1,19.5a2.138,2.138,0,0,1-1.809-.413,1.331,1.331,0,0,0-1.956.592,5.167,5.167,0,0,1-1.962,2.3c-.429-.112-.767-.187-.994-.233,1.138-2.935,3.422-7.649,6.058-9.756ZM33.821,16.714a4.668,4.668,0,0,1-1.285-3.053A1.34,1.34,0,0,0,31.2,12.4h-.019a3.307,3.307,0,0,1-2.232-.861,3,3,0,0,1-.5-2.443,2.535,2.535,0,0,1,2.208-2.237A6.451,6.451,0,0,1,37.085,9.92a17.979,17.979,0,0,1,1.875,6.358c-.584,1.1-1.08,2.163-1.483,3.1a6.082,6.082,0,0,1-.2-1.17,1.331,1.331,0,0,0-1.622-1.243,2.137,2.137,0,0,1-1.838-.25Zm.406,7.065a20.792,20.792,0,0,1,4.283.507,20.889,20.889,0,0,1,4.24,1.3,11.117,11.117,0,0,1,2.109,1.12,15.3,15.3,0,0,0-2.162,1.4,13.981,13.981,0,0,0-5.2,13.87L33.69,39.605a1.331,1.331,0,0,0-1.407,0l-4.414,2.749c.033-1.444.1-3.327.2-5.285a31.994,31.994,0,0,1,5.471.481,1.331,1.331,0,0,0,.57-2.6,33.98,33.98,0,0,0-5.882-.541c.118-1.721.253-3.18.446-4.681a34.892,34.892,0,0,1,6.278.35,1.331,1.331,0,0,0,.553-2.6,35.078,35.078,0,0,0-6.427-.413,5.625,5.625,0,0,1,.679-1.866c.713-1.106,1.962-1.469,4.473-1.417ZM21.765,40.792l2.67-8.37a7.146,7.146,0,0,1,1.174,1.268c-.046.631-.088,1.273-.127,1.916,0,.013,0,.026,0,.038-.161,2.734-.251,5.471-.284,7.284l-3.431-2.136Zm-.5-21.141a3.53,3.53,0,0,1,3.343,2.875,1.281,1.281,0,0,0,.485.9,1.208,1.208,0,0,0,.937.24c.158.008.656.1,1.037.938a20.642,20.642,0,0,0-1.125,5.467c-.006.047-.011.1-.017.143a8.435,8.435,0,0,0-2.989-1.524A28.233,28.233,0,0,0,19.9,22.428a4.513,4.513,0,0,1,.794-2.605.664.664,0,0,1,.578-.171Zm-7.189.849c3.469,1.494,5.911,7.52,6.558,9.715a1.411,1.411,0,0,0,1.391.987L20,37.562,10.809,20.485a4.151,4.151,0,0,1,3.272.015ZM7.652,23.8a3.989,3.989,0,0,1,.93-1.836l9.59,17.814L12.836,43.1a6.024,6.024,0,0,1-2.623-3.82,5.188,5.188,0,0,1,1.126-3.68,1.332,1.332,0,0,0,.045-1.71C10.09,32.262,6.9,27.27,7.652,23.8Zm-1,19.33,4.882,3.04a1.331,1.331,0,0,0,1.407,0L19.155,42.3l6.213,3.869a1.331,1.331,0,0,0,1.407,0L32.986,42.3,39.2,46.171a1.331,1.331,0,0,0,1.407,0L46.818,42.3l6.213,3.869a1.331,1.331,0,0,0,1.407,0L60.651,42.3l6.213,3.869a1.331,1.331,0,0,0,1.407,0l4.883-3.04V64.188a11.318,11.318,0,0,0-7.3,10.724,9.629,9.629,0,0,0-6.52,9.058c-.157,3.27.968,6.454,2.718,8.156a6.245,6.245,0,0,0-.684,4.206s0,0,0,0v0A22.244,22.244,0,0,0,68.886,110.3a22.471,22.471,0,0,0,4.234,2.876H6.654V43.131ZM92.863,113.18H85.105c1.4-5.853,4.706-10.607,9.03-12.894a12.106,12.106,0,0,1,10.844-.333,1.322,1.322,0,0,0,1.812-.8,2.65,2.65,0,0,1,2.774-1.818,1.321,1.321,0,0,0,1.423-1.022,2.663,2.663,0,0,1,2.041-2.021A20.235,20.235,0,0,1,92.863,113.18Z" transform="translate(-3.992 -4.113)"/>
                <path id="Trazado_873883" data-name="Trazado 873883" d="M121.257,270.039a1.315,1.315,0,0,0-2.2-.106c-.125.148-1.809,2.055-7.8,5.026a25.026,25.026,0,0,0-2.286,1.285c-7.181-4-16.684-1.7-17.1-1.6a1.35,1.35,0,0,0-.98,1.018,21.1,21.1,0,0,0,.509,9.224c1.283,4.545,4.778,10.616,14.132,13.751a1.849,1.849,0,0,0,.737.089,23.192,23.192,0,0,0,6.948-1.138c5.115-1.694,8.529-5.075,9.878-9.777l.007-.021,0-.015a24.122,24.122,0,0,0-1.844-17.72Zm-.9,4.762a21.742,21.742,0,0,1,.366,11.626,30,30,0,0,1-6.328,1.644,68.977,68.977,0,0,0,5.962-13.27Zm-7.91,2.542a51.278,51.278,0,0,0,5.216-2.932,65.662,65.662,0,0,1-11.35,20.594c-1.764-3.885-2.2-7.295-1.289-10.154C106.01,281.542,109.227,278.887,112.445,277.343Zm-6.014.813a13.652,13.652,0,0,0-3.621,5.007l-.248-.175v-6.123a16.676,16.676,0,0,1,4.019,1.155c-.05.044-.1.09-.149.135ZM99.9,276.595v4.346c-1.78-1.444-3.532-2.989-4.81-4.146A29.319,29.319,0,0,1,99.9,276.595ZM94,284.268a19,19,0,0,1-.717-5.519,85.649,85.649,0,0,0,8.78,7.127,13.566,13.566,0,0,0-.148,2.629,19.484,19.484,0,0,0,1.46,6.4A16.694,16.694,0,0,1,94,284.268ZM112.46,295.04a19.832,19.832,0,0,1-3.393.8c1.305-1.627,2.483-3.268,3.545-4.891a32.806,32.806,0,0,0,6.846-1.281,12.142,12.142,0,0,1-7,5.369Z" transform="translate(-71.401 -210.556)"/>
                <path id="Trazado_873884" data-name="Trazado 873884" d="M470.451,250.374a1.33,1.33,0,0,0,1.782-.607l.982-2a1.331,1.331,0,1,0-2.388-1.175l-.982,2a1.331,1.331,0,0,0,.607,1.781Z" transform="translate(-366.42 -192.24)"/>
                <path id="Trazado_873885" data-name="Trazado 873885" d="M444.946,247.783a1.331,1.331,0,0,0,2.519-.858l-.717-2.1a1.331,1.331,0,1,0-2.519.858Z" transform="translate(-346.537 -190.733)"/>
                <path id="Trazado_873886" data-name="Trazado 873886" d="M485.2,271.217a1.333,1.333,0,0,0,1.689.831l2.1-.717a1.331,1.331,0,0,0-.858-2.519l-2.1.717A1.331,1.331,0,0,0,485.2,271.217Z" transform="translate(-378.421 -210.051)"/>
                <circle id="Elipse_11580" data-name="Elipse 11580" cx="1.331" cy="1.331" r="1.331" transform="translate(82.998 45.56)"/>
              </g>
            </g>
          </g>
        </g>
      </g>
    </g>
  </g>
</svg>
