<svg xmlns="http://www.w3.org/2000/svg" xmlns:xlink="http://www.w3.org/1999/xlink" width="556.872" height="275.449" viewBox="0 0 556.872 275.449">
  <defs>
    <clipPath id="clip-path">
      <path id="Trazado_873757" data-name="Trazado 873757" d="M400.546,329.641l.24.147-.013-.12c24.146-.893,37.159,18.786,37.159,18.786l4.133,73.319,20.346,53.412-18.706,7.773-29.226-61.172-9.066-50.426-.053-.467-.267,119.2-18.426-.227L374.36,346.48C374.387,346.494,387.067,329.641,400.546,329.641Z" transform="translate(-374.36 -329.638)"/>
    </clipPath>
  </defs>
  <g id="OBJECTS" transform="translate(-36.28 -255.06)">
    <g id="Grupo_1099552" data-name="Grupo 1099552" transform="translate(299.929 258.98)">
      <g id="Grupo_1099550" data-name="Grupo 1099550" transform="translate(14.8)">
        <g id="Grupo_1099493" data-name="Grupo 1099493" transform="translate(118.591 36.009)">
          <g id="Grupo_1099492" data-name="Grupo 1099492">
            <path id="Trazado_873702" data-name="Trazado 873702" d="M334.219,291.864a1.124,1.124,0,0,1,1.653.12s-2.187-2.533-1.2-3.387c.787-.68,1.84.133,1.84.133s-1.88-2.173-.893-3.027,2.867,1.32,2.867,1.32a1.307,1.307,0,0,1,.133-1.84c1.387-1.2,5.24,4.08,5.24,4.08s-.64-3,.827-3.44c1.64-.493,7.267,14.64,7.267,14.64.16.627-8.147,3.053-8.773,3.2l-5.573-6.053-.427-.493C337.192,297.117,333.245,292.944,334.219,291.864Z" transform="translate(-334.064 -285.007)" fill="#a34f2a"/>
            <g id="Grupo_1099489" data-name="Grupo 1099489" transform="translate(3.685 1.252)">
              <rect id="Rectángulo_401145" data-name="Rectángulo 401145" width="1.08" height="6.267" transform="translate(0 0.705) rotate(-40.783)" fill="#10000d"/>
            </g>
            <g id="Grupo_1099490" data-name="Grupo 1099490" transform="translate(1.711 2.956)">
              <rect id="Rectángulo_401146" data-name="Rectángulo 401146" width="1.08" height="6.267" transform="translate(0 0.705) rotate(-40.783)" fill="#10000d"/>
            </g>
            <g id="Grupo_1099491" data-name="Grupo 1099491" transform="translate(1.116 6.294)">
              <rect id="Rectángulo_401147" data-name="Rectángulo 401147" width="1.08" height="4.173" transform="matrix(0.757, -0.653, 0.653, 0.757, 0, 0.705)" fill="#10000d"/>
            </g>
          </g>
          <path id="Trazado_873703" data-name="Trazado 873703" d="M363.483,338.813c-14.893-2.773-21.28-25.026-24.533-40.053,5.013-1.253,10.04-2.307,15.066-3.4,10.013,36.533,18.773,27.32,35.733,3.733,1.653-2.293,3.293-2.427,5.587-1.307,1.84.907,5.973,4.133,7.693,5.347,2.267,1.6,1.973,4.467,1.013,6.067-3.293,5.44-7.733,12.586-11.667,16.706C384.043,334.626,375.349,341.026,363.483,338.813Z" transform="translate(-332.436 -281.556)" fill="#ffd947"/>
        </g>
        <g id="Grupo_1099518" data-name="Grupo 1099518" transform="translate(168.384 4.871)">
          <g id="Grupo_1099502" data-name="Grupo 1099502" transform="translate(17.356)">
            <g id="Grupo_1099500" data-name="Grupo 1099500" transform="translate(0.707 4.594)">
              <g id="Grupo_1099494" data-name="Grupo 1099494" transform="translate(9.867 21.468)">
                <path id="Trazado_873704" data-name="Trazado 873704" d="M396.561,302.693h0a4.589,4.589,0,0,1-4.187-4.96l.067-2.72,1.32-13.813,9.147.76-1.387,16.533A4.607,4.607,0,0,1,396.561,302.693Z" transform="translate(-392.358 -281.2)" fill="#a34f2a"/>
              </g>
              <path id="Trazado_873705" data-name="Trazado 873705" d="M392.467,295.8l-.387-8.653,9.08-.747Z" transform="translate(-382.583 -257.999)" fill="#10000d"/>
              <path id="Trazado_873706" data-name="Trazado 873706" d="M394.321,298.273c-7.813-.92-10.467-9.24-8.96-17.56,1.827-10.08,8.467-18.04,18.613-14.933C422.494,271.447,413.574,300.553,394.321,298.273Z" transform="translate(-384.957 -265.099)" fill="#a34f2a"/>
              <g id="Grupo_1099499" data-name="Grupo 1099499" transform="translate(2.79 11.321)">
                <g id="Grupo_1099495" data-name="Grupo 1099495" transform="translate(11.56 4.667)">
                  <path id="Trazado_873707" data-name="Trazado 873707" d="M397.56,278.25a.935.935,0,1,1-.68-1.133A.939.939,0,0,1,397.56,278.25Z" transform="translate(-395.72 -277.09)" fill="#10000d"/>
                </g>
                <g id="Grupo_1099496" data-name="Grupo 1099496" transform="translate(1.827 3.2)">
                  <path id="Trazado_873708" data-name="Trazado 873708" d="M390.26,277.15a.935.935,0,1,1-.68-1.133A.939.939,0,0,1,390.26,277.15Z" transform="translate(-388.42 -275.99)" fill="#10000d"/>
                </g>
                <g id="Grupo_1099497" data-name="Grupo 1099497" transform="translate(9.893 1.42)">
                  <path id="Trazado_873709" data-name="Trazado 873709" d="M399.63,277.968a3.394,3.394,0,0,0-2.093-2.133,2.614,2.614,0,0,0-2.387.6l-.68-.853a3.714,3.714,0,0,1,3.36-.8,4.374,4.374,0,0,1,2.827,2.8Z" transform="translate(-394.47 -274.655)" fill="#10000d"/>
                </g>
                <g id="Grupo_1099498" data-name="Grupo 1099498">
                  <path id="Trazado_873710" data-name="Trazado 873710" d="M394.4,282.99l-3.64-.613.933-6.213a2.108,2.108,0,0,0-1.427-1.44,2.767,2.767,0,0,0-2.44.96l-.773-.76a3.824,3.824,0,0,1,3.453-1.267,3.193,3.193,0,0,1,2.253,2.253l.04.12-.813,5.44,2.587.44Z" transform="translate(-387.05 -273.59)" fill="#10000d"/>
                </g>
              </g>
            </g>
            <path id="Trazado_873711" data-name="Trazado 873711" d="M405.967,277.05l-1.387,7.587h.133a3.895,3.895,0,0,0,1.253-7.587Z" transform="translate(-377.71 -256.522)" fill="#a34f2a"/>
            <g id="Grupo_1099501" data-name="Grupo 1099501" transform="translate(7.217 25.982)">
              <path id="Trazado_873712" data-name="Trazado 873712" d="M393.24,284.02a4.915,4.915,0,0,1-3.4-1.36l.733-.8a3.852,3.852,0,0,0,3,1.053,4.759,4.759,0,0,0,3.267-1.773l.853.667a5.815,5.815,0,0,1-4.027,2.2C393.533,284.02,393.387,284.02,393.24,284.02Z" transform="translate(-389.84 -281.14)" fill="#10000d"/>
            </g>
            <path id="Trazado_873713" data-name="Trazado 873713" d="M398.444,262.875c-16.306-5.027-16.64,6.787-9.84,11.333,3.893,2.6,18.146,4.547,18.146,4.547s-.373,10.84,4.533,8.32C418,283.635,418.1,268.942,398.444,262.875Z" transform="translate(-384.427 -261.654)" fill="#10000d"/>
          </g>
          <g id="Grupo_1099513" data-name="Grupo 1099513" transform="translate(3.933 90.644)">
            <g id="Grupo_1099505" data-name="Grupo 1099505" transform="translate(55.293 115.428)">
              <path id="Trazado_873714" data-name="Trazado 873714" d="M440.83,463.836l8.96-8.093L434.1,416.21,415.83,421.6Z" transform="translate(-415.83 -416.21)" fill="#a34f2a"/>
              <path id="Trazado_873715" data-name="Trazado 873715" d="M427.13,465.486l23.946-10.147-4.627-9.48-20.6,18.706Z" transform="translate(-412.49 -406.327)" fill="#a34f2a"/>
              <g id="Grupo_1099504" data-name="Grupo 1099504" transform="translate(12.893 42.706)">
                <g id="Grupo_1099503" data-name="Grupo 1099503" transform="translate(0.467)">
                  <path id="Trazado_873716" data-name="Trazado 873716" d="M436.863,453.773l11.72-5.533,3.067,6.6-24.52,9.853-1.28-.92Z" transform="translate(-425.85 -448.24)" fill="#ffd947"/>
                </g>
                <path id="Trazado_873717" data-name="Trazado 873717" d="M425.5,462.767l5.093-4.867,1.147,2.507,19.573-8.547,1,2.067L426.22,464.073Z" transform="translate(-425.5 -447.033)" fill="#10000d"/>
                <path id="Trazado_873718" data-name="Trazado 873718" d="M433.745,456.371l2.813-1.933s-1.467-5.373-2.813-4.88C432.172,450.118,433.745,456.371,433.745,456.371Z" transform="translate(-422.985 -447.811)" fill="#ffd947"/>
              </g>
            </g>
            <path id="Trazado_873719" data-name="Trazado 873719" d="M437.113,482.968l18.706-7.773-20.346-53.413-4.133-73.319s-13.013-19.68-37.159-18.786h0l4.64,41.693,9.067,50.426Z" transform="translate(-367.754 -329.635)" fill="#7d6eb2"/>
            <g id="Grupo_1099508" data-name="Grupo 1099508" transform="translate(1.427 123.281)">
              <path id="Trazado_873720" data-name="Trazado 873720" d="M386.647,468.073l12.173-5.347,1.653-40.626L384.7,431.167Z" transform="translate(-372.34 -422.1)" fill="#a34f2a"/>
              <path id="Trazado_873721" data-name="Trazado 873721" d="M376.663,463.836l26-.76-.88-10.506-25.973,9.946Z" transform="translate(-375.303 -411.944)" fill="#a34f2a"/>
              <g id="Grupo_1099507" data-name="Grupo 1099507" transform="translate(0 41.452)">
                <g id="Grupo_1099506" data-name="Grupo 1099506" transform="translate(0.507 2.907)">
                  <path id="Trazado_873722" data-name="Trazado 873722" d="M389.69,456.263l12.933-.893.467,7.253-26.426.28-.853-1.32Z" transform="translate(-375.81 -455.37)" fill="#ffd947"/>
                </g>
                <path id="Trazado_873723" data-name="Trazado 873723" d="M375.43,460.71l6.493-2.68.173,2.747,21.333-.853.187,2.293-28-.027Z" transform="translate(-375.43 -451.577)" fill="#10000d"/>
                <path id="Trazado_873724" data-name="Trazado 873724" d="M384.89,459.55l3.32-.787s.573-5.533-.853-5.573C385.7,453.15,384.89,459.55,384.89,459.55Z" transform="translate(-372.277 -453.19)" fill="#ffd947"/>
              </g>
            </g>
            <path id="Trazado_873725" data-name="Trazado 873725" d="M405.1,490.1l-18.426-.227L374.37,346.493s12.693-16.866,26.173-16.853l4.907,3.013Z" transform="translate(-374.357 -329.637)" fill="#7d6eb2"/>
            <g id="Grupo_1099509" data-name="Grupo 1099509" transform="translate(46.999 31.976)">
              <path id="Trazado_873726" data-name="Trazado 873726" d="M421.876,361.047a14.59,14.59,0,0,1-12.266-6.867l.933-.56a13.457,13.457,0,0,0,12.76,6.267l.133,1.08A15.474,15.474,0,0,1,421.876,361.047Z" transform="translate(-409.61 -353.62)" fill="#10000d"/>
            </g>
            <g id="Grupo_1099511" data-name="Grupo 1099511">
              <g id="Grupo_1099510" data-name="Grupo 1099510" clip-path="url(#clip-path)">
                <path id="Trazado_873727" data-name="Trazado 873727" d="M415.047,356.83l-4.267-8.04,8.293.013Z" transform="translate(-362.221 -323.254)" fill="#fff"/>
                <path id="Trazado_873728" data-name="Trazado 873728" d="M402.043,356.82H393.75l4.027-8.04Z" transform="translate(-367.897 -323.258)" fill="#fff"/>
                <path id="Trazado_873729" data-name="Trazado 873729" d="M381,356.8l-4.267-8.04,8.28.013Z" transform="translate(-373.57 -323.264)" fill="#fff"/>
                <path id="Trazado_873730" data-name="Trazado 873730" d="M424.663,369.02l-4.253-8.04,8.28.013Z" transform="translate(-359.011 -319.191)" fill="#fff"/>
                <path id="Trazado_873731" data-name="Trazado 873731" d="M411.663,369.01H403.37l4.027-8.04Z" transform="translate(-364.691 -319.194)" fill="#fff"/>
                <path id="Trazado_873732" data-name="Trazado 873732" d="M390.617,369l-4.267-8.04h8.293Z" transform="translate(-370.363 -319.198)" fill="#fff"/>
                <path id="Trazado_873733" data-name="Trazado 873733" d="M377.6,368.98h-8.28l4.027-8.04Z" transform="translate(-376.04 -319.204)" fill="#fff"/>
                <path id="Trazado_873734" data-name="Trazado 873734" d="M415.027,381.2l-4.267-8.04h8.293Z" transform="translate(-362.227 -315.131)" fill="#fff"/>
                <path id="Trazado_873735" data-name="Trazado 873735" d="M402.023,381.19l-8.293-.013,4.027-8.027Z" transform="translate(-367.904 -315.135)" fill="#fff"/>
                <path id="Trazado_873736" data-name="Trazado 873736" d="M380.977,381.17l-4.267-8.04,8.28.013Z" transform="translate(-373.577 -315.141)" fill="#fff"/>
                <path id="Trazado_873737" data-name="Trazado 873737" d="M424.643,393.39l-4.253-8.04,8.28.013Z" transform="translate(-359.018 -311.068)" fill="#fff"/>
                <path id="Trazado_873738" data-name="Trazado 873738" d="M411.643,393.38l-8.293-.013,4.027-8.026Z" transform="translate(-364.697 -311.072)" fill="#fff"/>
                <path id="Trazado_873739" data-name="Trazado 873739" d="M390.6,393.36l-4.267-8.04,8.293.013Z" transform="translate(-370.37 -311.078)" fill="#fff"/>
                <path id="Trazado_873740" data-name="Trazado 873740" d="M377.58,393.35H369.3l4.027-8.04Z" transform="translate(-376.047 -311.082)" fill="#fff"/>
                <path id="Trazado_873741" data-name="Trazado 873741" d="M415.007,405.57l-4.267-8.04h8.293Z" transform="translate(-362.234 -307.009)" fill="#fff"/>
                <path id="Trazado_873742" data-name="Trazado 873742" d="M402,405.55H393.71l4.027-8.04Z" transform="translate(-367.91 -307.015)" fill="#fff"/>
                <path id="Trazado_873743" data-name="Trazado 873743" d="M380.957,405.54l-4.267-8.04h8.28Z" transform="translate(-373.583 -307.019)" fill="#fff"/>
                <path id="Trazado_873744" data-name="Trazado 873744" d="M424.623,417.76l-4.253-8.04h8.28Z" transform="translate(-359.024 -302.945)" fill="#fff"/>
                <path id="Trazado_873745" data-name="Trazado 873745" d="M411.623,417.75l-8.293-.013,4.027-8.027Z" transform="translate(-364.704 -302.949)" fill="#fff"/>
                <path id="Trazado_873746" data-name="Trazado 873746" d="M390.577,417.73l-4.267-8.04H394.6Z" transform="translate(-370.377 -302.955)" fill="#fff"/>
                <path id="Trazado_873747" data-name="Trazado 873747" d="M377.56,417.72l-8.28-.013,4.027-8.027Z" transform="translate(-376.053 -302.959)" fill="#fff"/>
                <path id="Trazado_873748" data-name="Trazado 873748" d="M436.033,429.95l-8.293-.013,4.027-8.026Z" transform="translate(-356.568 -298.882)" fill="#fff"/>
                <path id="Trazado_873749" data-name="Trazado 873749" d="M414.987,429.93l-4.267-8.04,8.293.013Z" transform="translate(-362.241 -298.889)" fill="#fff"/>
                <path id="Trazado_873750" data-name="Trazado 873750" d="M401.983,429.92l-8.293-.013,4.027-8.027Z" transform="translate(-367.917 -298.892)" fill="#fff"/>
                <path id="Trazado_873751" data-name="Trazado 873751" d="M380.937,429.9l-4.267-8.04,8.28.013Z" transform="translate(-373.59 -298.899)" fill="#fff"/>
                <path id="Trazado_873752" data-name="Trazado 873752" d="M445.65,442.14l-8.28-.013,4.013-8.027Z" transform="translate(-353.358 -294.819)" fill="#fff"/>
                <path id="Trazado_873753" data-name="Trazado 873753" d="M424.607,442.12l-4.267-8.04,8.293.013Z" transform="translate(-359.034 -294.826)" fill="#fff"/>
                <path id="Trazado_873754" data-name="Trazado 873754" d="M411.6,442.11H403.31l4.027-8.04Z" transform="translate(-364.71 -294.829)" fill="#fff"/>
                <path id="Trazado_873755" data-name="Trazado 873755" d="M390.557,442.09l-4.267-8.04,8.293.013Z" transform="translate(-370.384 -294.836)" fill="#fff"/>
                <path id="Trazado_873756" data-name="Trazado 873756" d="M377.54,442.08h-8.28l4.027-8.04Z" transform="translate(-376.06 -294.839)" fill="#fff"/>
              </g>
            </g>
            <g id="Grupo_1099512" data-name="Grupo 1099512" transform="translate(23.2 37.882)">
              <path id="Trazado_873758" data-name="Trazado 873758" d="M399.853,480.635h-1.08l.307-118.372-7.32-3.213.44-1,7.973,3.493-.013.36Z" transform="translate(-391.76 -358.05)" fill="#10000d"/>
            </g>
          </g>
          <g id="Grupo_1099516" data-name="Grupo 1099516" transform="translate(0 41.778)">
            <path id="Trazado_873759" data-name="Trazado 873759" d="M406.193,304.07l-16.733-.96.493-9.56,15.773.493Z" transform="translate(-365.394 -292.8)" fill="#a34f2a"/>
            <path id="Trazado_873760" data-name="Trazado 873760" d="M435.152,313.837c-1.44-11.746-12.026-20.613-23.693-20.426-.307,0-.613.013-.933.013a6.941,6.941,0,0,1-6.827,5.427c-.2,0-.413-.013-.613-.027h0a7.914,7.914,0,0,1-6.773-5.387c-.747-.013-1.507-.013-2.253-.027A20.851,20.851,0,0,0,372.473,313.8q-.32,28.6-.653,57.212l69.892.053Q438.412,342.443,435.152,313.837Z" transform="translate(-371.273 -292.848)" fill="#ffd947"/>
            <g id="Grupo_1099514" data-name="Grupo 1099514">
              <path id="Trazado_873761" data-name="Trazado 873761" d="M441.3,371.256l-6.547-57.226a23.085,23.085,0,0,0-22.773-19.946h-.893a7.465,7.465,0,0,1-7.253,5.427h0c-.213,0-.44-.013-.653-.027a8.473,8.473,0,0,1-7.107-5.387l-1.893-.027c-11.6-.213-20.813,8.507-21.04,19.853l-.653,57.212-1.08-.013.653-57.212c.24-11.946,9.933-21.12,22.146-20.92l2.64.04.12.36a7.372,7.372,0,0,0,6.307,5.013c.187.013.387.027.573.027h0a6.379,6.379,0,0,0,6.293-5l.093-.413L411.6,293h.387A24.178,24.178,0,0,1,435.836,313.9l6.547,57.226Z" transform="translate(-371.41 -292.988)" fill="#10000d"/>
            </g>
            <g id="Grupo_1099515" data-name="Grupo 1099515" transform="translate(21.346 4.163)">
              <path id="Trazado_873762" data-name="Trazado 873762" d="M397.367,302.91a10.382,10.382,0,0,1-9.946-6.4l1-.4c1.627,4.013,5.747,6.227,10.48,5.613l.133,1.08A13.814,13.814,0,0,1,397.367,302.91Z" transform="translate(-387.42 -296.11)" fill="#10000d"/>
            </g>
          </g>
          <g id="Grupo_1099517" data-name="Grupo 1099517" transform="translate(39.293 41.791)">
            <path id="Trazado_873763" data-name="Trazado 873763" d="M431.48,371.253l-6.547-57.226a23.085,23.085,0,0,0-22.773-19.946h-.373c-.333,0-.853.027-.853.027l-.053-1.08s.533-.027.88-.027A24.17,24.17,0,0,1,426,313.894l6.547,57.226Z" transform="translate(-400.88 -292.997)" fill="#10000d"/>
          </g>
        </g>
        <g id="Grupo_1099542" data-name="Grupo 1099542" transform="translate(0 92.132)">
          <g id="Grupo_1099524" data-name="Grupo 1099524" transform="translate(22.68)">
            <g id="Grupo_1099521" data-name="Grupo 1099521" transform="translate(36.906)">
              <g id="Grupo_1099519" data-name="Grupo 1099519" transform="translate(28.093)">
                <path id="Trazado_873764" data-name="Trazado 873764" d="M335.573,339.446h-1.08a11.267,11.267,0,0,0-22.533,0h-1.08a12.346,12.346,0,1,1,24.693,0Z" transform="translate(-310.88 -327.1)" fill="#10000d"/>
              </g>
              <g id="Grupo_1099520" data-name="Grupo 1099520" transform="translate(0 11.88)">
                <path id="Trazado_873765" data-name="Trazado 873765" d="M370.769,413.742H289.863l-.053-.6,7.467-77.132h64.892Zm-79.839-1.08h78.625L361.182,337.1H298.237Z" transform="translate(-289.81 -336.01)" fill="#10000d"/>
              </g>
            </g>
            <g id="Grupo_1099522" data-name="Grupo 1099522" transform="translate(29.373 28.08)">
              <path id="Trazado_873766" data-name="Trazado 873766" d="M310.346,361.253h-1.08a12.013,12.013,0,0,0-24.026,0h-1.08a13.093,13.093,0,1,1,26.186,0Z" transform="translate(-284.16 -348.16)" fill="#10000d"/>
            </g>
            <path id="Trazado_873767" data-name="Trazado 873767" d="M338.022,358.05h-68l-7.893,91.465h84.919Z" transform="translate(-262.13 -316.784)" fill="#7d6eb2"/>
            <g id="Grupo_1099523" data-name="Grupo 1099523" transform="translate(83.092 53.892)">
              <path id="Trazado_873768" data-name="Trazado 873768" d="M350.636,380.613h-1.08a12.013,12.013,0,0,0-24.026,0h-1.08a13.093,13.093,0,0,1,26.186,0Z" transform="translate(-324.45 -367.52)" fill="#10000d"/>
            </g>
            <path id="Trazado_873769" data-name="Trazado 873769" d="M366.716,377.51H316.623l-5.813,65.519h62.559Z" transform="translate(-245.904 -310.298)" fill="#ffd947"/>
          </g>
          <g id="Grupo_1099541" data-name="Grupo 1099541" transform="translate(0 23.386)">
            <g id="Grupo_1099525" data-name="Grupo 1099525" transform="translate(0 136.104)">
              <path id="Trazado_873770" data-name="Trazado 873770" d="M254.733,465.786h0a9.532,9.532,0,0,0,9.453-9.613h0a9.532,9.532,0,0,0-9.613-9.453h0a9.532,9.532,0,0,0-9.453,9.613h0A9.531,9.531,0,0,0,254.733,465.786Z" transform="translate(-245.12 -446.72)" fill="#ffd947"/>
            </g>
            <g id="Grupo_1099526" data-name="Grupo 1099526" transform="translate(119.012 136.104)">
              <path id="Trazado_873771" data-name="Trazado 873771" d="M343.993,465.786h0a9.532,9.532,0,0,0,9.453-9.613h0a9.532,9.532,0,0,0-9.613-9.453h0a9.532,9.532,0,0,0-9.453,9.613h0A9.531,9.531,0,0,0,343.993,465.786Z" transform="translate(-334.38 -446.72)" fill="#ffd947"/>
            </g>
            <g id="Grupo_1099527" data-name="Grupo 1099527" transform="translate(150.398)">
              <path id="Trazado_873772" data-name="Trazado 873772" d="M358.973,453.865l-1.053-.24,25.906-108.692,15.493-.293.013,1.08L384.68,346Z" transform="translate(-357.92 -344.64)" fill="#10000d"/>
            </g>
            <g id="Grupo_1099529" data-name="Grupo 1099529" transform="translate(2.027 14.213)">
              <g id="Grupo_1099528" data-name="Grupo 1099528">
                <path id="Trazado_873773" data-name="Trazado 873773" d="M250.387,451.832l-3.747-86.225.533-.027L418.7,355.3l-22.746,95.479h-.427Zm-2.613-85.212,3.653,84.119,143.691-1.04,22.2-93.239Z" transform="translate(-246.64 -355.3)" fill="#10000d"/>
              </g>
            </g>
            <g id="Grupo_1099530" data-name="Grupo 1099530" transform="translate(18.059 23.895)">
              <rect id="Rectángulo_401148" data-name="Rectángulo 401148" width="1.08" height="86.252" transform="matrix(0.999, -0.03, 0.03, 0.999, 0, 0.033)" fill="#10000d"/>
            </g>
            <g id="Grupo_1099531" data-name="Grupo 1099531" transform="translate(74.189 20.063)">
              <rect id="Rectángulo_401149" data-name="Rectángulo 401149" width="89.585" height="1.08" transform="translate(0 89.549) rotate(-88.344)" fill="#10000d"/>
            </g>
            <g id="Grupo_1099532" data-name="Grupo 1099532" transform="translate(56.613 21.333)">
              <path id="Trazado_873774" data-name="Trazado 873774" d="M288.327,449.092l-.747-88.452h1.093l.733,88.439Z" transform="translate(-287.58 -360.64)" fill="#10000d"/>
            </g>
            <g id="Grupo_1099533" data-name="Grupo 1099533" transform="translate(37.56 22.64)">
              <path id="Trazado_873775" data-name="Trazado 873775" d="M275.49,449.005l-2.2-87.359,1.08-.027,2.2,87.359Z" transform="translate(-273.29 -361.62)" fill="#10000d"/>
            </g>
            <g id="Grupo_1099534" data-name="Grupo 1099534" transform="translate(115.148 17.657)">
              <rect id="Rectángulo_401150" data-name="Rectángulo 401150" width="91.905" height="1.08" transform="translate(0 91.721) rotate(-86.411)" fill="#10000d"/>
            </g>
            <g id="Grupo_1099535" data-name="Grupo 1099535" transform="translate(137.705 16.341)">
              <rect id="Rectángulo_401151" data-name="Rectángulo 401151" width="93.505" height="1.08" transform="translate(0 92.823) rotate(-83.096)" fill="#10000d"/>
            </g>
            <g id="Grupo_1099536" data-name="Grupo 1099536" transform="translate(93.586 18.84)">
              <path id="Trazado_873776" data-name="Trazado 873776" d="M316.39,449.462l-1.08-.053,4.68-90.639,1.08.053Z" transform="translate(-315.31 -358.77)" fill="#10000d"/>
            </g>
            <g id="Grupo_1099537" data-name="Grupo 1099537" transform="translate(4.104 48.433)">
              <rect id="Rectángulo_401152" data-name="Rectángulo 401152" width="161.718" height="1.08" transform="translate(0 1.354) rotate(-0.48)" fill="#10000d"/>
            </g>
            <g id="Grupo_1099538" data-name="Grupo 1099538" transform="translate(4.861 77.945)">
              <rect id="Rectángulo_401153" data-name="Rectángulo 401153" width="153.278" height="1.08" transform="translate(0 1.094) rotate(-0.409)" fill="#10000d"/>
            </g>
            <g id="Grupo_1099539" data-name="Grupo 1099539" transform="translate(9.24 108.838)">
              <path id="Trazado_873777" data-name="Trazado 873777" d="M253.13,462.8h-1.08V450.9l139.185-.693-10.68-23.48.987-.453,11.373,25-139.785.707Z" transform="translate(-252.05 -426.27)" fill="#10000d"/>
            </g>
            <g id="Grupo_1099540" data-name="Grupo 1099540" transform="translate(127.998 133.371)">
              <rect id="Rectángulo_401154" data-name="Rectángulo 401154" width="1.08" height="11.36" fill="#10000d"/>
            </g>
          </g>
        </g>
        <g id="Grupo_1099548" data-name="Grupo 1099548" transform="translate(170.782 55.679)">
          <g id="Grupo_1099546" data-name="Grupo 1099546" transform="translate(0 56.145)">
            <path id="Trazado_873778" data-name="Trazado 873778" d="M379.8,357.963a1.174,1.174,0,0,1,.307-1.707s-2.867,2-3.653.88c-.627-.893.347-1.907.347-1.907s-2.467,1.72-3.24.6,1.68-2.84,1.68-2.84a1.355,1.355,0,0,1-1.893-.347c-1.093-1.573,4.8-5,4.8-5s-3.187.347-3.493-1.227c-.333-1.76,11.8-4.547,11.8-4.547.667-.093,6.507,7.373,6.6,8.053l-6.907,5.133-.56.387C385.584,355.43,380.81,359.083,379.8,357.963Z" transform="translate(-373.209 -341.869)" fill="#a34f2a"/>
            <g id="Grupo_1099543" data-name="Grupo 1099543" transform="translate(1.269 7.241)">
              <line id="Línea_1626" data-name="Línea 1626" y1="3.747" x2="5.387" transform="translate(0.307 0.44)" fill="#fff"/>
              <path id="Trazado_873779" data-name="Trazado 873779" d="M374.773,351.927l-.613-.893,5.373-3.733.627.88Z" transform="translate(-374.16 -347.3)" fill="#10000d"/>
            </g>
            <g id="Grupo_1099544" data-name="Grupo 1099544" transform="translate(2.829 9.481)">
              <line id="Línea_1627" data-name="Línea 1627" y1="3.747" x2="5.373" transform="translate(0.307 0.44)" fill="#fff"/>
              <path id="Trazado_873780" data-name="Trazado 873780" d="M375.943,353.607l-.613-.88,5.373-3.747.627.88Z" transform="translate(-375.33 -348.98)" fill="#10000d"/>
            </g>
            <g id="Grupo_1099545" data-name="Grupo 1099545" transform="translate(6.175 11.721)">
              <line id="Línea_1628" data-name="Línea 1628" y1="2.493" x2="3.573" transform="translate(0.32 0.44)" fill="#fff"/>
              <path id="Trazado_873781" data-name="Trazado 873781" d="M378.467,354.047l-.627-.893,3.587-2.493.627.893Z" transform="translate(-377.84 -350.66)" fill="#10000d"/>
            </g>
          </g>
          <path id="Trazado_873782" data-name="Trazado 873782" d="M411.667,299.81c3.373,28.533-8.867,40.493-29.826,54.479-.2.133,8.16,11.453,8.373,11.32,3.347-2.173,40.653-17.84,37.786-60.772" transform="translate(-370.332 -299.743)" fill="#ffd947"/>
          <g id="Grupo_1099547" data-name="Grupo 1099547" transform="translate(10.948)">
            <path id="Trazado_873783" data-name="Trazado 873783" d="M390.327,366.212c-.4,0-1.027-.813-3.947-4.733-1.613-2.16-3.72-5.067-4.547-6.32-.333-.507-.653-.987-.16-1.307,22.586-15.066,32.786-26.986,29.6-53.959l1.08-.133c3.52,29.786-10.653,42-29.666,54.719,1.147,1.76,6.48,8.987,7.747,10.467.307-.173.72-.4,1.227-.667,20.493-10.906,32.4-26.133,35.373-45.253l1.067.16c-3.027,19.466-15.12,34.959-35.933,46.039-.72.387-1.24.667-1.52.84A.53.53,0,0,1,390.327,366.212Z" transform="translate(-381.419 -299.76)" fill="#10000d"/>
          </g>
        </g>
        <g id="Grupo_1099549" data-name="Grupo 1099549" transform="translate(124.492)">
          <path id="Trazado_873784" data-name="Trazado 873784" d="M374.383,258.41H352.45a13.554,13.554,0,0,0-13.56,13.56h0a13.554,13.554,0,0,0,13.56,13.56h15.666l11.16,7.787-1.467-8.253a13.538,13.538,0,0,0,10.12-13.106h0A13.523,13.523,0,0,0,374.383,258.41Z" transform="translate(-338.357 -257.863)" fill="#fff"/>
          <path id="Trazado_873785" data-name="Trazado 873785" d="M380.183,294.653l-12.093-8.44H352.6a14.106,14.106,0,0,1,0-28.213h21.933a14.1,14.1,0,0,1,4.067,27.6ZM352.6,259.093a13.013,13.013,0,1,0,0,26.026h15.84l10.24,7.147-1.32-7.453.48-.12a13.011,13.011,0,0,0-3.307-25.6Z" transform="translate(-338.49 -258)" fill="#10000d"/>
        </g>
      </g>
      <g id="Grupo_1099551" data-name="Grupo 1099551" transform="translate(0 270.449)">
        <line id="Línea_1629" data-name="Línea 1629" x2="293.222" transform="translate(0 0.547)" fill="#fff"/>
        <rect id="Rectángulo_401155" data-name="Rectángulo 401155" width="293.222" height="1.08" fill="#10000d"/>
      </g>
    </g>
    <g id="Grupo_1099639" data-name="Grupo 1099639" transform="translate(36.28 255.06)">
      <g id="Grupo_1099553" data-name="Grupo 1099553" transform="translate(34.813 274.369)">
        <line id="Línea_1630" data-name="Línea 1630" x2="201.37" transform="translate(0 0.547)" fill="#fff"/>
        <rect id="Rectángulo_401156" data-name="Rectángulo 401156" width="201.37" height="1.08" fill="#10000d"/>
      </g>
      <g id="Grupo_1099638" data-name="Grupo 1099638">
        <g id="Grupo_1099597" data-name="Grupo 1099597" transform="translate(0 1.304)">
          <g id="Grupo_1099554" data-name="Grupo 1099554" transform="translate(103.132 59.815)">
            <path id="Trazado_873786" data-name="Trazado 873786" d="M174.869,315.98c.013-.053,9.147,9.147,9.147,9.147-6.04,4.947-20.746,12.346-32.12,11.6-15.786-1.04-26.8-8.813-38.266-30.44l13.546-5.387C146.256,335.673,170.869,319.74,174.869,315.98Z" transform="translate(-113.63 -300.9)" fill="#10000d"/>
          </g>
          <g id="Grupo_1099555" data-name="Grupo 1099555" transform="translate(57.706 223.292)">
            <path id="Trazado_873787" data-name="Trazado 873787" d="M91.977,468.336l-11.027-5.48.027-39.346,14.133.067Z" transform="translate(-79.097 -423.51)" fill="#a34f2a"/>
            <path id="Trazado_873788" data-name="Trazado 873788" d="M105.856,463.513H79.71l1.653-10.493,25.346,9.187Z" transform="translate(-79.51 -413.674)" fill="#a34f2a"/>
            <path id="Trazado_873789" data-name="Trazado 873789" d="M97.146,456.94c-4.067,7.427-16.746.08-16.746.08l-.84,5.373h27.493l.2-1.48Z" transform="translate(-79.56 -412.367)" fill="#10000d"/>
          </g>
          <path id="Trazado_873790" data-name="Trazado 873790" d="M95.008,494.564H79.821S71.515,318.02,123.607,320.193l.707-.053Z" transform="translate(-21.929 -234.672)" fill="#7d6eb2"/>
          <g id="Grupo_1099556" data-name="Grupo 1099556" transform="translate(58.807 77.215)">
            <path id="Trazado_873791" data-name="Trazado 873791" d="M80.5,496.641a678.689,678.689,0,0,1,3.827-84.585c6.64-57.746,20.44-90.759,41.026-98.105l.36,1.027C77.5,332.176,81.538,494.961,81.578,496.6Z" transform="translate(-80.386 -313.95)" fill="#fff"/>
          </g>
          <g id="Grupo_1099557" data-name="Grupo 1099557" transform="translate(103.772 223.292)">
            <path id="Trazado_873792" data-name="Trazado 873792" d="M126.53,468.336l-11.04-5.48.04-39.346,14.133.067Z" transform="translate(-113.65 -423.51)" fill="#a34f2a"/>
            <path id="Trazado_873793" data-name="Trazado 873793" d="M140.406,463.513H114.26l1.64-10.493,25.36,9.187Z" transform="translate(-114.06 -413.674)" fill="#a34f2a"/>
            <path id="Trazado_873794" data-name="Trazado 873794" d="M131.7,456.94c-4.067,7.427-16.746.08-16.746.08l-.84,5.373H141.6l.2-1.48Z" transform="translate(-114.11 -412.367)" fill="#10000d"/>
          </g>
          <path id="Trazado_873795" data-name="Trazado 873795" d="M115.163,494.561h17.28s25.6-174.411-22.906-174.411h0l-2.747,30.893,2.613,4.973Z" transform="translate(-12.778 -234.669)" fill="#7d6eb2"/>
          <g id="Grupo_1099558" data-name="Grupo 1099558" transform="translate(96.065 120.254)">
            <path id="Trazado_873796" data-name="Trazado 873796" d="M114.1,485.895,108.33,346.83l6.8-.6.093,1.08-5.773.507L115.2,485.841Z" transform="translate(-108.33 -346.23)" fill="#10000d"/>
          </g>
          <g id="Grupo_1099573" data-name="Grupo 1099573" transform="translate(68.167 52.762)">
            <path id="Trazado_873797" data-name="Trazado 873797" d="M92.064,354.089c-1.507-4.213-3-13.64-3.267-14.853-4.12-18.386.013-43.626,24.613-43.626h4.347c11.186,0,20.106,5.72,24.146,15.786,3.027,7.547,2.907,15.68,1.4,23.533-.253,1.293-3.893,19.146-3.893,19.146H92.064Z" transform="translate(-87.406 -295.61)" fill="#ffd947"/>
            <g id="Grupo_1099559" data-name="Grupo 1099559" transform="translate(20.605 1.947)">
              <path id="Trazado_873798" data-name="Trazado 873798" d="M110.727,304.937a7.881,7.881,0,0,1-7.867-7.867h1.08a6.787,6.787,0,1,0,13.573,0h1.08A7.881,7.881,0,0,1,110.727,304.937Z" transform="translate(-102.86 -297.07)" fill="#10000d"/>
            </g>
            <g id="Grupo_1099572" data-name="Grupo 1099572" transform="translate(5.938 53.239)">
              <g id="Grupo_1099560" data-name="Grupo 1099560" transform="translate(44.493)">
                <rect id="Rectángulo_401157" data-name="Rectángulo 401157" width="1.08" height="4.187" fill="#10000d"/>
              </g>
              <g id="Grupo_1099561" data-name="Grupo 1099561" transform="translate(40.439)">
                <rect id="Rectángulo_401158" data-name="Rectángulo 401158" width="1.08" height="4.187" fill="#10000d"/>
              </g>
              <g id="Grupo_1099562" data-name="Grupo 1099562" transform="translate(36.399)">
                <rect id="Rectángulo_401159" data-name="Rectángulo 401159" width="1.08" height="4.187" fill="#10000d"/>
              </g>
              <g id="Grupo_1099563" data-name="Grupo 1099563" transform="translate(32.36)">
                <rect id="Rectángulo_401160" data-name="Rectángulo 401160" width="1.08" height="4.187" fill="#10000d"/>
              </g>
              <g id="Grupo_1099564" data-name="Grupo 1099564" transform="translate(28.306)">
                <rect id="Rectángulo_401161" data-name="Rectángulo 401161" width="1.08" height="4.187" fill="#10000d"/>
              </g>
              <g id="Grupo_1099565" data-name="Grupo 1099565" transform="translate(24.266)">
                <rect id="Rectángulo_401162" data-name="Rectángulo 401162" width="1.08" height="4.187" fill="#10000d"/>
              </g>
              <g id="Grupo_1099566" data-name="Grupo 1099566" transform="translate(20.226)">
                <rect id="Rectángulo_401163" data-name="Rectángulo 401163" width="1.08" height="4.187" fill="#10000d"/>
              </g>
              <g id="Grupo_1099567" data-name="Grupo 1099567" transform="translate(16.173)">
                <rect id="Rectángulo_401164" data-name="Rectángulo 401164" width="1.08" height="4.187" fill="#10000d"/>
              </g>
              <g id="Grupo_1099568" data-name="Grupo 1099568" transform="translate(12.133)">
                <rect id="Rectángulo_401165" data-name="Rectángulo 401165" width="1.08" height="4.187" fill="#10000d"/>
              </g>
              <g id="Grupo_1099569" data-name="Grupo 1099569" transform="translate(8.08)">
                <rect id="Rectángulo_401166" data-name="Rectángulo 401166" width="1.08" height="4.187" fill="#10000d"/>
              </g>
              <g id="Grupo_1099570" data-name="Grupo 1099570" transform="translate(4.04)">
                <rect id="Rectángulo_401167" data-name="Rectángulo 401167" width="1.08" height="4.187" fill="#10000d"/>
              </g>
              <g id="Grupo_1099571" data-name="Grupo 1099571">
                <rect id="Rectángulo_401168" data-name="Rectángulo 401168" width="1.08" height="4.187" fill="#10000d"/>
              </g>
            </g>
          </g>
          <g id="Grupo_1099586" data-name="Grupo 1099586" transform="translate(68.516)">
            <g id="Grupo_1099575" data-name="Grupo 1099575">
              <path id="Trazado_873799" data-name="Trazado 873799" d="M88.1,272.84a13.445,13.445,0,1,0,9.667-16.373A13.439,13.439,0,0,0,88.1,272.84Z" transform="translate(-87.668 -256.038)" fill="#10000d"/>
              <g id="Grupo_1099574" data-name="Grupo 1099574" transform="translate(8.069 9.989)">
                <path id="Trazado_873800" data-name="Trazado 873800" d="M94.667,279.583l-.947-.16a19.3,19.3,0,0,1,14.493-15.28,20.183,20.183,0,0,1,3.973-.613l.053.96a19.129,19.129,0,0,0-3.787.587A18.344,18.344,0,0,0,94.667,279.583Z" transform="translate(-93.72 -263.53)" fill="#fff"/>
              </g>
            </g>
            <ellipse id="Elipse_11579" data-name="Elipse 11579" cx="17.586" cy="16.493" rx="17.586" ry="16.493" transform="translate(10.522 12.296)" fill="#10000d"/>
            <g id="Grupo_1099585" data-name="Grupo 1099585" transform="translate(13.164 14.319)">
              <g id="Grupo_1099583" data-name="Grupo 1099583" transform="translate(2.708 2.409)">
                <g id="Grupo_1099576" data-name="Grupo 1099576" transform="translate(8.01 21.327)">
                  <path id="Trazado_873801" data-name="Trazado 873801" d="M110.14,305.393h0a4.493,4.493,0,0,0,4.493-4.52l.147-2.667-.187-13.626-9.013.013.027,16.293A4.55,4.55,0,0,0,110.14,305.393Z" transform="translate(-105.58 -284.58)" fill="#a34f2a"/>
                  <path id="Trazado_873802" data-name="Trazado 873802" d="M105.6,289.48l9.013-4.56.173,13.186-.147,2.667v.107l-9.013-7.453Z" transform="translate(-105.573 -284.467)" fill="#10000d"/>
                </g>
                <path id="Trazado_873803" data-name="Trazado 873803" d="M117.529,301.525c7.72-.28,10.986-8.2,10.173-16.48-.987-10-6.84-18.333-17.026-16.093C92.1,273.018,98.5,302.218,117.529,301.525Z" transform="translate(-99.573 -268.585)" fill="#a34f2a"/>
                <g id="Grupo_1099582" data-name="Grupo 1099582" transform="translate(9.85 12.584)">
                  <g id="Grupo_1099577" data-name="Grupo 1099577" transform="translate(2.695 3.065)">
                    <path id="Trazado_873804" data-name="Trazado 873804" d="M108.993,281.386a.918.918,0,1,0,.76-1.053A.921.921,0,0,0,108.993,281.386Z" transform="translate(-108.981 -280.321)" fill="#10000d"/>
                  </g>
                  <g id="Grupo_1099578" data-name="Grupo 1099578" transform="translate(12.335 2.398)">
                    <path id="Trazado_873805" data-name="Trazado 873805" d="M116.223,280.886a.918.918,0,1,0,.76-1.053A.936.936,0,0,0,116.223,280.886Z" transform="translate(-116.211 -279.821)" fill="#10000d"/>
                  </g>
                  <g id="Grupo_1099579" data-name="Grupo 1099579" transform="translate(0 0.395)">
                    <path id="Trazado_873806" data-name="Trazado 873806" d="M107.56,280.214l-.6-.907a7.018,7.018,0,0,1,6.24-.493l-.36,1.027A5.962,5.962,0,0,0,107.56,280.214Z" transform="translate(-106.96 -278.319)" fill="#10000d"/>
                  </g>
                  <g id="Grupo_1099580" data-name="Grupo 1099580" transform="translate(4.147 9.263)">
                    <path id="Trazado_873807" data-name="Trazado 873807" d="M114.217,287.2a7.052,7.052,0,0,1-4.147-1.387l.68-.84a5.822,5.822,0,0,0,6.307.387l.52.947A6.866,6.866,0,0,1,114.217,287.2Z" transform="translate(-110.07 -284.97)" fill="#10000d"/>
                  </g>
                  <g id="Grupo_1099581" data-name="Grupo 1099581" transform="translate(10.133)">
                    <path id="Trazado_873808" data-name="Trazado 873808" d="M114.733,286.672l-.173-1.067,1.467-.24-1.187-6.013.227-.2a4.527,4.527,0,0,1,5.44-.413l-.587.907a3.493,3.493,0,0,0-3.88.12l1.28,6.507Z" transform="translate(-114.56 -278.023)" fill="#10000d"/>
                  </g>
                </g>
              </g>
              <g id="Grupo_1099584" data-name="Grupo 1099584">
                <path id="Trazado_873809" data-name="Trazado 873809" d="M102.019,269.474c27.013-10.507,27.213,13.08,27.213,13.08l-11.786-8.28L100.966,292.5C100.979,292.514,92.593,273.141,102.019,269.474Z" transform="translate(-97.542 -266.778)" fill="#10000d"/>
              </g>
            </g>
          </g>
          <g id="Grupo_1099589" data-name="Grupo 1099589" transform="translate(19.013 132.574)">
            <path id="Trazado_873810" data-name="Trazado 873810" d="M107.832,432.842,51.06,421.029,70.833,355.59,121.7,366.176Z" transform="translate(-50.367 -355.43)" fill="#ffd947"/>
            <g id="Grupo_1099587" data-name="Grupo 1099587" transform="translate(56.839 10.627)">
              <path id="Trazado_873811" data-name="Trazado 873811" d="M100.41,431.609,93.65,430.2l13.88-66.666Z" transform="translate(-93.01 -363.41)" fill="#fff"/>
              <path id="Trazado_873812" data-name="Trazado 873812" d="M101.05,432.279l-7.88-1.64,13.986-67.2,1.067.16Zm-6.6-2.48,5.64,1.173,5.933-56.826Z" transform="translate(-93.17 -363.44)" fill="#10000d"/>
            </g>
            <g id="Grupo_1099588" data-name="Grupo 1099588">
              <path id="Trazado_873813" data-name="Trazado 873813" d="M107.9,433.4,50.54,421.482,70.486,355.47l1.04.32-19.6,64.866,56.186,11.693Z" transform="translate(-50.54 -355.47)" fill="#10000d"/>
            </g>
          </g>
          <g id="Grupo_1099593" data-name="Grupo 1099593" transform="translate(0 123.521)">
            <g id="Grupo_1099590" data-name="Grupo 1099590" transform="translate(54.453 4.541)">
              <path id="Trazado_873814" data-name="Trazado 873814" d="M94.28,367.611l-.92-.573a9.079,9.079,0,0,0-2.84-12.493A9.05,9.05,0,0,0,78.04,357.4l-.92-.573a10.134,10.134,0,1,1,17.16,10.786Z" transform="translate(-77.12 -352.086)" fill="#10000d"/>
            </g>
            <path id="Trazado_873815" data-name="Trazado 873815" d="M85.683,434.3,36.87,402.983,78.723,348.93,122.455,377Z" transform="translate(-36.083 -348.597)" fill="#7d6eb2"/>
            <g id="Grupo_1099591" data-name="Grupo 1099591" transform="translate(48.866 28.12)">
              <path id="Trazado_873816" data-name="Trazado 873816" d="M79.3,431.019,73.49,427.3l36.773-57.319Z" transform="translate(-72.743 -369.7)" fill="#fff"/>
              <path id="Trazado_873817" data-name="Trazado 873817" d="M79.7,431.876l-6.773-4.347L110,369.77l.933.533Zm-5.28-4.68,4.853,3.107,25.84-50.946Z" transform="translate(-72.93 -369.77)" fill="#10000d"/>
            </g>
            <g id="Grupo_1099592" data-name="Grupo 1099592">
              <path id="Trazado_873818" data-name="Trazado 873818" d="M85.586,434.839,36.28,403.212l.36-.48L78.493,348.68l.853.667L37.867,402.932l48.306,31Z" transform="translate(-36.28 -348.68)" fill="#10000d"/>
            </g>
          </g>
          <g id="Grupo_1099596" data-name="Grupo 1099596" transform="translate(48.995 54.228)">
            <g id="Grupo_1099594" data-name="Grupo 1099594" transform="translate(6.111 67.345)">
              <path id="Trazado_873819" data-name="Trazado 873819" d="M81.223,359.007c15.466,4.653,7.467-10.24,7.467-10.24-1.84-3.787-10.533.52-11.08.893C77.61,349.673,79.743,358.567,81.223,359.007Z" transform="translate(-77.61 -347.219)" fill="#a34f2a"/>
            </g>
            <path id="Trazado_873820" data-name="Trazado 873820" d="M104.317,314.906c-20.76,15.4-19.973,27.96-13.04,48.839.067.2-13.413,3.92-13.466,3.707-1.613-7-19.466-43.733,29.533-70.372" transform="translate(-72.927 -296.587)" fill="#ffd947"/>
            <g id="Grupo_1099595" data-name="Grupo 1099595">
              <path id="Trazado_873821" data-name="Trazado 873821" d="M77.818,368.109h-.053l-.307-.093-.08-.32c-.147-.613-.4-1.48-.747-2.573-3.467-11.24-14-45.453,30.546-68.412l.493.96C63.924,320.2,74.258,353.763,77.658,364.789c.267.867.493,1.587.64,2.173,2.013-.427,10.493-2.773,12.413-3.427-4.96-19.6-6.587-33.666,13.36-48.959l.653.853c-19.626,15.053-17.946,28.28-12.853,48.279l.08.307-.227.227C91.271,364.709,78.924,368.109,77.818,368.109Z" transform="translate(-73.027 -296.71)" fill="#10000d"/>
            </g>
          </g>
        </g>
        <g id="Grupo_1099636" data-name="Grupo 1099636" transform="translate(102.238 9.498)">
          <path id="Trazado_873822" data-name="Trazado 873822" d="M157.181,287.245c3.747-19.386,23.386-40.893,43.746-8.107C219.54,309.1,152.395,307.925,157.181,287.245Z" transform="translate(-98.302 -262.184)" fill="#10000d"/>
          <g id="Grupo_1099602" data-name="Grupo 1099602" transform="translate(87.912 30.603)">
            <g id="Grupo_1099601" data-name="Grupo 1099601" transform="translate(51.672)">
              <path id="Trazado_873823" data-name="Trazado 873823" d="M234.13,291.408a1.091,1.091,0,0,0-1.587.227s1.933-2.573.92-3.333c-.8-.6-1.76.253-1.76.253s1.653-2.213.653-2.973-2.667,1.453-2.667,1.453a1.255,1.255,0,0,0-.253-1.76c-1.413-1.053-4.76,4.253-4.76,4.253s.413-2.92-1.013-3.253c-1.6-.36-6.013,14.546-6.013,14.546-.107.613,8.027,2.387,8.64,2.507l4.947-6.187.373-.507C231.61,296.648,235.13,292.381,234.13,291.408Z" transform="translate(-217.649 -285.136)" fill="#ffa87c"/>
              <g id="Grupo_1099598" data-name="Grupo 1099598" transform="translate(8.3 1.178)">
                <rect id="Rectángulo_401169" data-name="Rectángulo 401169" width="6.04" height="1.08" transform="translate(0 4.83) rotate(-53.101)" fill="#10000d"/>
              </g>
              <g id="Grupo_1099599" data-name="Grupo 1099599" transform="translate(10.304 2.695)">
                <rect id="Rectángulo_401170" data-name="Rectángulo 401170" width="6.04" height="1.08" transform="translate(0 4.83) rotate(-53.101)" fill="#10000d"/>
              </g>
              <g id="Grupo_1099600" data-name="Grupo 1099600" transform="translate(12.322 5.818)">
                <rect id="Rectángulo_401171" data-name="Rectángulo 401171" width="4.027" height="1.08" transform="translate(0 3.22) rotate(-53.101)" fill="#10000d"/>
              </g>
            </g>
            <path id="Trazado_873824" data-name="Trazado 873824" d="M218.1,296.98c2.28.187,4.947.267,7.24.44l1.667,1.613c-1.267,2.427-2.147,8.333-2.147,8.333l-8.613-2.387S217.677,297.327,218.1,296.98Z" transform="translate(-166.444 -281.189)" fill="#ffa87c"/>
            <path id="Trazado_873825" data-name="Trazado 873825" d="M220.688,337.323c14.12-3.653,17.826-19.693,19.96-34.346l-12.92-4.307c-7.213,35.746-17.053,23.773-34.893,2.227-1.733-2.093-3.32-2.12-5.453-.88-1.707.987-5.467,4.36-7.04,5.64a4.383,4.383,0,0,0-.573,5.893c3.52,5.013,8.253,11.586,12.306,15.28C200.675,334.656,209.448,340.229,220.688,337.323Z" transform="translate(-178.895 -280.625)" fill="#7d6eb2"/>
          </g>
          <g id="Grupo_1099606" data-name="Grupo 1099606" transform="translate(33.622 73.754)">
            <g id="Grupo_1099604" data-name="Grupo 1099604" transform="translate(6.697 141.345)">
              <path id="Trazado_873826" data-name="Trazado 873826" d="M155.617,468.336l-11.027-5.48.027-39.346,14.133.067Z" transform="translate(-142.737 -423.51)" fill="#ffa87c"/>
              <path id="Trazado_873827" data-name="Trazado 873827" d="M169.5,463.513H143.35L145,453.02l25.346,9.187Z" transform="translate(-143.15 -413.674)" fill="#ffa87c"/>
              <path id="Trazado_873828" data-name="Trazado 873828" d="M160.786,456.94c-4.067,7.427-16.746.08-16.746.08l-.84,5.373h27.493l.2-1.48Z" transform="translate(-143.2 -412.367)" fill="#10000d"/>
              <g id="Grupo_1099603" data-name="Grupo 1099603" transform="translate(0.981 38.497)">
                <rect id="Rectángulo_401172" data-name="Rectángulo 401172" width="13.933" height="1.08" transform="translate(0 6.551) rotate(-28.046)" fill="#10000d"/>
              </g>
            </g>
            <path id="Trazado_873829" data-name="Trazado 873829" d="M171.527,471H138.181s-1.413-149.638,50.666-147.571h0Z" transform="translate(-138.177 -315.532)" fill="#ffd947"/>
            <g id="Grupo_1099605" data-name="Grupo 1099605" transform="translate(6.352)">
              <path id="Trazado_873830" data-name="Trazado 873830" d="M142.98,472.978a486.025,486.025,0,0,1,4.587-71.332c7.147-48.866,21.213-77.186,41.8-84.145l.347,1.027c-48.213,16.306-45.679,153.051-45.639,154.424Z" transform="translate(-142.941 -317.5)" fill="#fff"/>
            </g>
          </g>
          <g id="Grupo_1099613" data-name="Grupo 1099613" transform="translate(78.825 81.62)">
            <g id="Grupo_1099608" data-name="Grupo 1099608" transform="translate(7.56 133.478)">
              <path id="Trazado_873831" data-name="Trazado 873831" d="M190.17,468.336l-11.04-5.48.04-39.346,14.133.067Z" transform="translate(-177.29 -423.51)" fill="#ffa87c"/>
              <path id="Trazado_873832" data-name="Trazado 873832" d="M204.046,463.513H177.9l1.64-10.493,25.36,9.187Z" transform="translate(-177.7 -413.674)" fill="#ffa87c"/>
              <path id="Trazado_873833" data-name="Trazado 873833" d="M195.336,456.94c-4.067,7.427-16.746.08-16.746.08l-.84,5.373h27.493l.2-1.48Z" transform="translate(-177.75 -412.367)" fill="#10000d"/>
              <g id="Grupo_1099607" data-name="Grupo 1099607" transform="translate(0.964 38.47)">
                <rect id="Rectángulo_401173" data-name="Rectángulo 401173" width="13.933" height="1.08" transform="translate(0 6.55) rotate(-28.041)" fill="#10000d"/>
              </g>
            </g>
            <path id="Trazado_873834" data-name="Trazado 873834" d="M172.49,470.971h33.346S221,323.4,172.49,323.4h0Z" transform="translate(-171.943 -323.4)" fill="#ffd947"/>
            <g id="Grupo_1099611" data-name="Grupo 1099611" transform="translate(16.866 94.599)">
              <g id="Grupo_1099609" data-name="Grupo 1099609">
                <path id="Trazado_873835" data-name="Trazado 873835" d="M185.317,401.2l-.587-.907,4.507-2.947a.013.013,0,0,0,.013-.013c1.64-1.08,3.28-2.16,4.56-2.987l.587.907-4.573,2.987C188.21,399.323,186.6,400.4,185.317,401.2Z" transform="translate(-184.73 -394.35)" fill="#10000d"/>
              </g>
              <g id="Grupo_1099610" data-name="Grupo 1099610" transform="translate(0 5.76)">
                <path id="Trazado_873836" data-name="Trazado 873836" d="M185.317,405.523l-.587-.907,4.507-2.947a.013.013,0,0,0,.013-.013c1.64-1.08,3.28-2.16,4.56-2.987l.587.907-4.573,2.987C188.21,403.643,186.6,404.71,185.317,405.523Z" transform="translate(-184.73 -398.67)" fill="#10000d"/>
              </g>
            </g>
            <g id="Grupo_1099612" data-name="Grupo 1099612" transform="translate(0 29.493)">
              <path id="Trazado_873837" data-name="Trazado 873837" d="M172.227,463.492l-.147-114.825,7.267-3.147.427.987-6.6,2.867.133,114.118Z" transform="translate(-172.08 -345.52)" fill="#10000d"/>
            </g>
          </g>
          <path id="Trazado_873838" data-name="Trazado 873838" d="M155.714,355.012c-1.507-4.36-3-14.133-3.267-15.386-4.12-19.04.013-45.186,24.613-45.186h4.347c11.186,0,20.106,5.933,24.146,16.36,3.027,7.813,2.907,16.24,1.4,24.373-.253,1.333-3.173,14.626-4.68,19.84Z" transform="translate(-100.262 -251.432)" fill="#10000d"/>
          <g id="Grupo_1099623" data-name="Grupo 1099623" transform="translate(64.824 3.884)">
            <g id="Grupo_1099621" data-name="Grupo 1099621" transform="translate(0 3.09)">
              <g id="Grupo_1099614" data-name="Grupo 1099614" transform="translate(9.454 20.207)">
                <path id="Trazado_873839" data-name="Trazado 873839" d="M174.5,304.223h0a4.493,4.493,0,0,1-4.493-4.52l-.147-2.667.187-13.626,9.013.013-.027,16.293A4.532,4.532,0,0,1,174.5,304.223Z" transform="translate(-168.273 -282.29)" fill="#ffa87c"/>
                <path id="Trazado_873840" data-name="Trazado 873840" d="M168.67,299.45l13.28-9.213-12.426-7.667Z" transform="translate(-168.67 -282.57)" fill="#10000d"/>
              </g>
              <path id="Trazado_873841" data-name="Trazado 873841" d="M171.873,300.355c-7.72-.28-10.987-8.2-10.173-16.48.987-10,6.84-18.333,17.026-16.093C197.3,271.862,190.9,301.061,171.873,300.355Z" transform="translate(-161.579 -267.415)" fill="#ffa87c"/>
              <g id="Grupo_1099620" data-name="Grupo 1099620" transform="translate(2.308 12.086)">
                <g id="Grupo_1099615" data-name="Grupo 1099615" transform="translate(11.562 3.563)">
                  <path id="Trazado_873842" data-name="Trazado 873842" d="M173.806,280.216a.918.918,0,1,1-.76-1.053A.921.921,0,0,1,173.806,280.216Z" transform="translate(-171.981 -279.151)" fill="#10000d"/>
                </g>
                <g id="Grupo_1099616" data-name="Grupo 1099616" transform="translate(1.922 2.91)">
                  <path id="Trazado_873843" data-name="Trazado 873843" d="M166.576,279.726a.918.918,0,1,1-.76-1.053A.921.921,0,0,1,166.576,279.726Z" transform="translate(-164.751 -278.661)" fill="#10000d"/>
                </g>
                <g id="Grupo_1099617" data-name="Grupo 1099617" transform="translate(9.653 0.089)">
                  <path id="Trazado_873844" data-name="Trazado 873844" d="M176.27,279.125a3.4,3.4,0,0,0-2.453-1.507,3.305,3.305,0,0,0-2.493,1.12l-.773-.747a4.322,4.322,0,0,1,3.333-1.44,4.436,4.436,0,0,1,3.253,1.933Z" transform="translate(-170.55 -276.546)" fill="#10000d"/>
                </g>
                <g id="Grupo_1099618" data-name="Grupo 1099618" transform="translate(4.387 9.841)">
                  <path id="Trazado_873845" data-name="Trazado 873845" d="M170.133,286.353A5.917,5.917,0,0,1,166.6,285.1l.64-.88a4.531,4.531,0,0,0,6.187-.36l.8.733A6.141,6.141,0,0,1,170.133,286.353Z" transform="translate(-166.6 -283.86)" fill="#10000d"/>
                </g>
                <g id="Grupo_1099619" data-name="Grupo 1099619">
                  <path id="Trazado_873846" data-name="Trazado 873846" d="M169.1,285.627l-2.56-.427,1.293-6.6a2.18,2.18,0,0,0-1.333-1.013,3.492,3.492,0,0,0-2.533.973l-.653-.867a4.432,4.432,0,0,1,3.387-1.173,3.372,3.372,0,0,1,2.173,1.667l.12.187-1.16,5.933,1.467.24Z" transform="translate(-163.31 -276.479)" fill="#10000d"/>
                </g>
              </g>
            </g>
            <g id="Grupo_1099622" data-name="Grupo 1099622" transform="translate(2.707)">
              <path id="Trazado_873847" data-name="Trazado 873847" d="M190.516,269.381c-3.827-6.053-20.16-4.893-25.573-1.427-6.493,4.16,12.493,14.133,18.773,13.613-2.613,10.986,4.187,15.706,7.613,8.667C193.09,286.647,194.343,275.434,190.516,269.381Z" transform="translate(-163.609 -265.097)" fill="#10000d"/>
            </g>
          </g>
          <g id="Grupo_1099624" data-name="Grupo 1099624" transform="translate(37.893 42.861)">
            <path id="Trazado_873848" data-name="Trazado 873848" d="M178.019,294.33c2.613,41.346-4.6,71.252-10.467,84.8-6.8-1.053-26.173-6.28-26.173-6.28s12.56-20.413,12.626-20.386C152.353,344.609,143.993,295.383,178.019,294.33Z" transform="translate(-141.38 -294.33)" fill="#7d6eb2"/>
          </g>
          <g id="Grupo_1099627" data-name="Grupo 1099627" transform="translate(85.008 42.328)">
            <path id="Trazado_873849" data-name="Trazado 873849" d="M177.268,294.33c-2.613,41.346,4.6,71.252,10.467,84.8,6.8-1.053,19.893-6.28,19.893-6.28s-6.28-20.413-6.347-20.386C202.934,344.609,211.281,295.383,177.268,294.33Z" transform="translate(-176.717 -293.797)" fill="#7d6eb2"/>
            <g id="Grupo_1099625" data-name="Grupo 1099625" transform="translate(3.911 3.28)">
              <path id="Trazado_873850" data-name="Trazado 873850" d="M181.237,339.336l-1.067-.227,5.6-25.413-6.12-8.44,5.413-8.867.92.573-5.04,8.24,5.987,8.253Z" transform="translate(-179.65 -296.39)" fill="#10000d"/>
            </g>
            <g id="Grupo_1099626" data-name="Grupo 1099626" transform="translate(0.538)">
              <path id="Trazado_873851" data-name="Trazado 873851" d="M206.973,373.142c-2.4-7.813-6.04-19.573-6.32-20.306a.545.545,0,0,1-.04-.36c.72-3.4,6.68-33.68-5.307-48.933-4.267-5.427-10.386-8.293-18.186-8.533l.04-1.08c8.147.253,14.533,3.267,19,8.947,12.186,15.506,6.347,45.866,5.533,49.733.453,1.173,1.707,5.253,6.32,20.213Z" transform="translate(-177.12 -293.93)" fill="#10000d"/>
            </g>
          </g>
          <g id="Grupo_1099632" data-name="Grupo 1099632" transform="translate(0 120.479)">
            <g id="Grupo_1099628" data-name="Grupo 1099628" transform="translate(34.666)">
              <path id="Trazado_873852" data-name="Trazado 873852" d="M158.866,364.685l-1.067-.213a9.062,9.062,0,0,0-17.773-3.547l-1.067-.213a10.15,10.15,0,1,1,19.906,3.973Z" transform="translate(-138.96 -352.545)" fill="#10000d"/>
            </g>
            <g id="Grupo_1099629" data-name="Grupo 1099629" transform="translate(0 3.434)">
              <path id="Trazado_873853" data-name="Trazado 873853" d="M170.242,432.842,113.47,421.029l19.773-65.439,50.879,10.586Z" transform="translate(-112.79 -354.963)" fill="#fff"/>
              <path id="Trazado_873854" data-name="Trazado 873854" d="M170.839,433.639,112.96,421.6l20.093-66.479,51.879,10.8Zm-56.506-12.867L170,432.359l13.653-65.6L133.8,356.387Z" transform="translate(-112.96 -355.12)" fill="#10000d"/>
            </g>
            <g id="Grupo_1099630" data-name="Grupo 1099630" transform="translate(56.826 14.527)">
              <path id="Trazado_873855" data-name="Trazado 873855" d="M163.46,432.279l-7.88-1.64,13.986-67.2,1.067.16Zm-6.587-2.48,5.64,1.173,5.933-56.826Z" transform="translate(-155.58 -363.44)" fill="#10000d"/>
            </g>
            <g id="Grupo_1099631" data-name="Grupo 1099631" transform="translate(0 3.9)">
              <path id="Trazado_873856" data-name="Trazado 873856" d="M170.306,433.4l-57.346-11.92,19.946-66.012,1.027.32-19.6,64.866,56.2,11.693Z" transform="translate(-112.96 -355.47)" fill="#10000d"/>
            </g>
          </g>
          <g id="Grupo_1099635" data-name="Grupo 1099635" transform="translate(30.259 44.088)">
            <g id="Grupo_1099633" data-name="Grupo 1099633" transform="translate(5.82 66.945)">
              <path id="Trazado_873857" data-name="Trazado 873857" d="M143.633,357.247c15.466,4.653,7.467-10.24,7.467-10.24-1.84-3.787-10.533.52-11.08.893C140.02,347.9,142.167,356.807,143.633,357.247Z" transform="translate(-140.02 -345.459)" fill="#ffa87c"/>
            </g>
            <path id="Trazado_873858" data-name="Trazado 873858" d="M166.722,312.876c-18.4,14.626-19.973,27.973-13.053,48.839.067.2-13.413,3.92-13.466,3.707-1.613-7-19.373-43.426,30.093-69.332" transform="translate(-135.609 -294.97)" fill="#7d6eb2"/>
            <g id="Grupo_1099634" data-name="Grupo 1099634">
              <path id="Trazado_873859" data-name="Trazado 873859" d="M140.168,366.236h-.053l-.307-.093-.08-.32c-.133-.573-.36-1.36-.653-2.347-3.373-11.427-13.626-46.2,31.426-68l.467-.227,5.587,10.387-6.107,8.413,5.6,25.413-1.053.24-5.707-25.893,6-8.267-4.773-8.867c-43.693,21.413-33.693,55.319-30.4,66.479.227.76.413,1.4.547,1.933,2.027-.427,10.493-2.773,12.413-3.427-4.96-19.6-6.587-33.666,13.36-48.959l.653.853c-19.626,15.053-17.946,28.28-12.853,48.279l.08.307-.227.227C153.621,362.849,141.275,366.236,140.168,366.236Z" transform="translate(-135.655 -295.25)" fill="#10000d"/>
            </g>
          </g>
        </g>
        <g id="Grupo_1099637" data-name="Grupo 1099637" transform="translate(213.57)">
          <path id="Trazado_873860" data-name="Trazado 873860" d="M232.343,255.47H210.41a13.554,13.554,0,0,0-13.56,13.56h0a13.577,13.577,0,0,0,10.12,13.107l-1.467,8.253,11.16-7.787h15.666a13.554,13.554,0,0,0,13.56-13.56h0A13.537,13.537,0,0,0,232.343,255.47Z" transform="translate(-196.33 -254.923)" fill="#fff"/>
          <path id="Trazado_873861" data-name="Trazado 873861" d="M204.887,291.713l1.613-9.053a14.1,14.1,0,0,1,4.067-27.6H232.5a14.106,14.106,0,0,1,0,28.213H217.006Zm5.667-35.573a13.011,13.011,0,0,0-3.307,25.6l.48.12-1.32,7.453,10.24-7.133h15.84a13.02,13.02,0,0,0,0-26.04H210.553Z" transform="translate(-196.46 -255.06)" fill="#10000d"/>
        </g>
      </g>
    </g>
  </g>
</svg>
