<svg xmlns="http://www.w3.org/2000/svg" width="440.96" height="375.598" viewBox="0 0 440.96 375.598">
  <g id="Grupo_1100047" data-name="Grupo 1100047" transform="translate(-212.353 -2068.403)">
    <g id="Grupo_1100046" data-name="Grupo 1100046">
      <g id="Grupo_1100045" data-name="Grupo 1100045">
        <g id="Grupo_1100044" data-name="Grupo 1100044">
          <g id="Grupo_1100043" data-name="Grupo 1100043">
            <path id="Trazado_873694" data-name="Trazado 873694" d="M238.884,74.282c-40.82-5.637-83.939-4.258-121.084,13.583C66.288,112.606,32.457,168.7,31.16,225.833S59.625,339.1,105.6,373.038,212.22,419,268.449,408.813c56.7-10.275,109.917-43.587,139.493-93.041,18.965-31.712,27.829-70.869,17.352-106.3-6.325-21.388-19.256-40.337-34.466-56.65A254.644,254.644,0,0,0,238.884,74.282Z" transform="translate(209.245 2031.68)" fill="#ffd947"/>
            <g id="Grupo_1099486" data-name="Grupo 1099486" transform="translate(-2625.688 11750.554)">
              <g id="Grupo_1099291" data-name="Grupo 1099291" transform="translate(2879 -9388.854) rotate(-90)">
                <path id="Trazado_873104" data-name="Trazado 873104" d="M1.7,7.454a4.316,4.316,0,0,0,5.641-.639A4.316,4.316,0,0,0,7.1,1.143,4.318,4.318,0,0,0,1.424.99,4.139,4.139,0,0,0,1.7,7.454Z" transform="translate(56.381 338.287)" fill="#fff"/>
                <path id="Trazado_873105" data-name="Trazado 873105" d="M1.7,7.454a4.316,4.316,0,0,0,5.643-.637A4.318,4.318,0,0,0,7.1,1.143,4.318,4.318,0,0,0,1.425.99,4.139,4.139,0,0,0,1.7,7.454Z" transform="translate(138.745 355.987)" fill="#ffd947"/>
                <path id="Trazado_873106" data-name="Trazado 873106" d="M1.7,7.454a4.314,4.314,0,0,0,5.641-.637A4.318,4.318,0,0,0,7.1,1.143,4.318,4.318,0,0,0,1.424.99,4.139,4.139,0,0,0,1.7,7.454Z" transform="translate(285.006 0)" fill="#7d6eb2"/>
                <path id="Trazado_873109" data-name="Trazado 873109" d="M5.6,17.394a9.415,9.415,0,0,0,11.659-4.607A9.418,9.418,0,0,0,13.2.93,9.415,9.415,0,0,0,1.164,4.452,9.128,9.128,0,0,0,5.6,17.394Z" transform="translate(236.065 342.099)" fill="#26aab7"/>
                <path id="Trazado_873110" data-name="Trazado 873110" d="M5.6,17.393a9.415,9.415,0,0,0,11.66-4.607A9.416,9.416,0,0,0,13.2.931,9.413,9.413,0,0,0,1.165,4.451,9.127,9.127,0,0,0,5.6,17.393Z" transform="translate(171.84 382.004)" fill="#7d6eb2"/>
                <path id="Trazado_873111" data-name="Trazado 873111" d="M5.6,17.393a9.412,9.412,0,0,0,11.658-4.606A9.414,9.414,0,0,0,13.2.931,9.412,9.412,0,0,0,1.165,4.451,9.127,9.127,0,0,0,5.6,17.393Z" transform="translate(0 107.56)" fill="#7d6eb2"/>
                <path id="Trazado_873113" data-name="Trazado 873113" d="M5.6,17.394a9.417,9.417,0,0,0,11.66-4.606A9.418,9.418,0,0,0,13.2.93,9.417,9.417,0,0,0,1.164,4.452,9.128,9.128,0,0,0,5.6,17.394Z" transform="translate(266.987 22.647)" fill="#ffd947"/>
                <circle id="Elipse_11485" data-name="Elipse 11485" cx="4.445" cy="4.445" r="4.445" transform="translate(20.396 359.765)" fill="none" stroke="#26aab7" stroke-linecap="round" stroke-linejoin="round" stroke-width="1.5"/>
              </g>
            </g>
            <g id="graficos15-15" transform="translate(169.173 2061.066)">
              <g id="freepik--Screens--inject-15" transform="translate(43.18 82.94)">
                <path id="Trazado_129486" data-name="Trazado 129486" d="M538.952,381.627h-23.2l11.142-35.267h23.2Z" transform="translate(-336.235 -246.295)" fill="#4db5c1"/>
                <path id="Trazado_129487" data-name="Trazado 129487" d="M536.51,356.658h23.2l3.255-10.3h-23.2Z" transform="translate(-349.109 -246.295)" opacity="0.2" style="isolation: isolate"/>
                <rect id="Rectángulo_30749" data-name="Rectángulo 30749" width="44.395" height="5.36" transform="translate(176.681 133.095)" fill="#4db5c1"/>
                <rect id="Rectángulo_30750" data-name="Rectángulo 30750" width="44.395" height="5.36" transform="translate(176.681 133.095)" fill="#fff" opacity="0.5" style="isolation: isolate"/>
                <rect id="Rectángulo_30751" data-name="Rectángulo 30751" width="22.196" height="5.36" transform="translate(176.681 133.095)" fill="#fff" opacity="0.6" style="isolation: isolate"/>
                <path id="Trazado_129488" data-name="Trazado 129488" d="M436.269,175.343l-8.084-92.4L301.654,94.093H174.144L45.657,82.94,43.18,85.417l8.084,92.4,128.487,11.153H307.261l126.531-11.153Z" transform="translate(-43.18 -82.94)" fill="#4db5c1"/>
                <path id="Trazado_129489" data-name="Trazado 129489" d="M440.312,175.343l-8.084-92.4L305.7,94.093H178.187L49.7,82.94l8.08,92.4L186.271,186.5H313.781Z" transform="translate(-47.223 -82.94)" fill="#fff" opacity="0.2" style="isolation: isolate"/>
                <rect id="Rectángulo_30752" data-name="Rectángulo 30752" width="120.108" height="85.641" transform="translate(263.662 13.847) rotate(-5.143)" fill="#fff" opacity="0.8" style="isolation: isolate"/>
                <path id="Trazado_129490" data-name="Trazado 129490" d="M790.629,135.088a1.335,1.335,0,1,1-.236-2.659l29.972-2.64a1.327,1.327,0,0,1,.262,2.64h0Z" transform="translate(-505.795 -111.989)" fill="#23acb9" opacity="0.5" style="isolation: isolate"/>
                <g id="Grupo_55817" data-name="Grupo 55817" transform="translate(283.381 17.794)" opacity="0.5">
                  <path id="Trazado_129491" data-name="Trazado 129491" d="M790.629,135.088a1.335,1.335,0,1,1-.236-2.659l29.972-2.64a1.327,1.327,0,0,1,.262,2.64h0Z" transform="translate(-789.176 -129.783)" fill="#fff" opacity="0.5" style="isolation: isolate"/>
                </g>
                <path id="Trazado_129492" data-name="Trazado 129492" d="M919.019,123.795a1.335,1.335,0,0,1-.236-2.659h0l29.972-2.636a1.326,1.326,0,0,1,.224,2.636Z" transform="translate(-585.414 -104.991)" fill="#23acb9" opacity="0.5" style="isolation: isolate"/>
                <g id="Grupo_55818" data-name="Grupo 55818" transform="translate(332.152 13.508)" opacity="0.5">
                  <path id="Trazado_129493" data-name="Trazado 129493" d="M919.019,123.795a1.335,1.335,0,0,1-.236-2.659h0l29.972-2.636a1.326,1.326,0,0,1,.224,2.636Z" transform="translate(-917.566 -118.499)" fill="#fff" opacity="0.5" style="isolation: isolate"/>
                </g>
                <ellipse id="Elipse_4328" data-name="Elipse 4328" cx="15.252" cy="15.362" rx="15.252" ry="15.362" transform="matrix(1, -0.04, 0.04, 1, 285.614, 27.11)" fill="#4db5c1"/>
                <g id="Grupo_55819" data-name="Grupo 55819" transform="translate(291.535 28.815)" opacity="0.9">
                  <path id="Trazado_129494" data-name="Trazado 129494" d="M813.976,194.573l-1.732.148a.817.817,0,0,1-.881-.741l-.718-8.2a.809.809,0,0,1,.726-.878h0l1.732-.16a.813.813,0,0,1,.878.741l.718,8.2A.813.813,0,0,1,813.976,194.573Z" transform="translate(-810.641 -174.886)" fill="#fff"/>
                  <path id="Trazado_129495" data-name="Trazado 129495" d="M824.8,168.047c1.117-1.1,3.913-4.22,3.9-7.575a1.683,1.683,0,0,1,3.081-.931c.619,1.079.76,3.119-.346,6.933l4.285-.38a2.872,2.872,0,0,1,2.784,1.519h0a2.929,2.929,0,0,1,.3,1.945l-1.238,6.458a2.894,2.894,0,0,1-3.039,2.34l-8.182-.581a1.386,1.386,0,0,1-1.238-1.238l-.646-7.366a1.371,1.371,0,0,1,.342-1.124Z" transform="translate(-819.199 -158.796)" fill="#fff"/>
                </g>
                <ellipse id="Elipse_4329" data-name="Elipse 4329" cx="15.252" cy="15.362" rx="15.252" ry="15.362" transform="matrix(0.999, -0.044, 0.044, 0.999, 334.315, 21.589)" fill="#fff" opacity="0.9" style="isolation: isolate"/>
                <path id="Trazado_129496" data-name="Trazado 129496" d="M940.327,160.856l-1.732.148a.817.817,0,0,0-.76.885h0l.718,8.182a.821.821,0,0,0,.874.76h0l1.732-.163a.817.817,0,0,0,.76-.885h0L941.2,161.6a.8.8,0,0,0-.859-.741Z" transform="translate(-597.981 -131.257)" fill="#4db5c1"/>
                <path id="Trazado_129497" data-name="Trazado 129497" d="M953.077,167.31c1.238.9,4.577,3.48,5.147,6.784a1.683,1.683,0,0,0,3.206.38c.422-1.162.213-3.206-1.546-6.758l4.27-.38a2.9,2.9,0,0,0,2.477-1.972h0a2.918,2.918,0,0,0,0-1.968l-2.351-6.188a2.883,2.883,0,0,0-3.392-1.77l-7.977,2.006a1.379,1.379,0,0,0-1.041,1.47l.642,7.354a1.387,1.387,0,0,0,.566,1.041Z" transform="translate(-606.682 -127.845)" fill="#4db5c1"/>
                <rect id="Rectángulo_30753" data-name="Rectángulo 30753" width="9.075" height="10.5" transform="translate(288.49 79.938) rotate(-5.04)" fill="#4db5c1"/>
                <rect id="Rectángulo_30754" data-name="Rectángulo 30754" width="9.112" height="8.242" transform="translate(299.195 81.179) rotate(-5.143)" fill="#fff" opacity="0.9" style="isolation: isolate"/>
                <rect id="Rectángulo_30755" data-name="Rectángulo 30755" width="9.075" height="18.868" transform="translate(314.875 69.196) rotate(-5.04)" fill="#fff" opacity="0.9" style="isolation: isolate"/>
                <rect id="Rectángulo_30756" data-name="Rectángulo 30756" width="9.075" height="21.121" transform="translate(332.767 65.367) rotate(-5.04)" fill="#fff" opacity="0.9" style="isolation: isolate"/>
                <rect id="Rectángulo_30757" data-name="Rectángulo 30757" width="9.075" height="16.414" transform="translate(351.253 68.467) rotate(-5.04)" fill="#fff" opacity="0.9" style="isolation: isolate"/>
                <rect id="Rectángulo_30758" data-name="Rectángulo 30758" width="9.075" height="17.17" transform="translate(305.993 71.683) rotate(-5.04)" fill="#4db5c1"/>
                <rect id="Rectángulo_30759" data-name="Rectángulo 30759" width="9.075" height="23.373" transform="translate(323.524 63.919) rotate(-5.04)" fill="#4db5c1"/>
                <rect id="Rectángulo_30760" data-name="Rectángulo 30760" width="9.112" height="18.944" transform="translate(343.592 66.414) rotate(-5.143)" fill="#4db5c1"/>
                <rect id="Rectángulo_30761" data-name="Rectángulo 30761" width="9.112" height="29.433" transform="translate(360.797 54.333) rotate(-5.143)" fill="#4db5c1"/>
                <path id="Trazado_129498" data-name="Trazado 129498" d="M60.38,93.56l7.442,84.973,121,10.511-7.43-84.973Z" transform="translate(-53.846 -89.526)" fill="#fff" opacity="0.8" style="isolation: isolate"/>
                <path id="Trazado_129499" data-name="Trazado 129499" d="M171.733,156.606l-64.916-5.6a6.188,6.188,0,0,1-5.387-5.349l-.817-9.36a3.992,3.992,0,0,1,3.445-4.482,3.922,3.922,0,0,1,1.075,0l64.958,5.569a6.078,6.078,0,0,1,5.371,5.349l.832,9.36a4.027,4.027,0,0,1-3.472,4.509A3.96,3.96,0,0,1,171.733,156.606Z" transform="translate(-78.775 -113.229)" fill="#fff"/>
                <path id="Trazado_129500" data-name="Trazado 129500" d="M125.79,149.069a4.8,4.8,0,0,1-4.179,5.364,4.718,4.718,0,0,1-1.246,0,7.309,7.309,0,0,1-6.458-6.389,4.817,4.817,0,0,1,4.179-5.379,4.881,4.881,0,0,1,1.246,0,7.316,7.316,0,0,1,6.458,6.4Z" transform="translate(-87.017 -119.952)" fill="#4db5c1"/>
                <path id="Trazado_129501" data-name="Trazado 129501" d="M162.861,148.507a1.592,1.592,0,0,1-1.4-1.387,1.037,1.037,0,0,1,.885-1.174,1.078,1.078,0,0,1,.349,0l39.8,3.453a1.584,1.584,0,0,1,1.4,1.387,1.037,1.037,0,0,1-.885,1.174.923.923,0,0,1-.353,0Z" transform="translate(-116.525 -122.004)" fill="#23acb9"/>
                <path id="Trazado_129502" data-name="Trazado 129502" d="M164.975,172.792a1.6,1.6,0,0,1-1.4-1.387,1.041,1.041,0,0,1,.885-1.174.919.919,0,0,1,.353,0l23.313,2.017a1.584,1.584,0,0,1,1.4,1.387,1.033,1.033,0,0,1-.9,1.162.968.968,0,0,1-.277,0Z" transform="translate(-117.834 -137.062)" fill="#23acb9"/>
                <path id="Trazado_129503" data-name="Trazado 129503" d="M163.931,160.631a1.592,1.592,0,0,1-1.4-1.387,1.041,1.041,0,0,1,.885-1.178,1.1,1.1,0,0,1,.353,0L197.53,161a1.592,1.592,0,0,1,1.4,1.387,1.037,1.037,0,0,1-.9,1.162,1.142,1.142,0,0,1-.277,0Z" transform="translate(-117.188 -129.52)" fill="#23acb9"/>
                <g id="Grupo_55820" data-name="Grupo 55820" transform="translate(44.928 23.929)" opacity="0.5">
                  <path id="Trazado_129504" data-name="Trazado 129504" d="M162.861,148.507a1.592,1.592,0,0,1-1.4-1.387,1.037,1.037,0,0,1,.885-1.174,1.078,1.078,0,0,1,.349,0l39.8,3.453a1.584,1.584,0,0,1,1.4,1.387,1.037,1.037,0,0,1-.885,1.174.923.923,0,0,1-.353,0Z" transform="translate(-161.453 -145.932)" fill="#fff"/>
                  <path id="Trazado_129505" data-name="Trazado 129505" d="M164.975,172.792a1.6,1.6,0,0,1-1.4-1.387,1.041,1.041,0,0,1,.885-1.174.919.919,0,0,1,.353,0l23.313,2.017a1.584,1.584,0,0,1,1.4,1.387,1.033,1.033,0,0,1-.9,1.162.968.968,0,0,1-.277,0Z" transform="translate(-162.762 -160.991)" fill="#fff"/>
                  <path id="Trazado_129506" data-name="Trazado 129506" d="M163.931,160.631a1.592,1.592,0,0,1-1.4-1.387,1.041,1.041,0,0,1,.885-1.178,1.1,1.1,0,0,1,.353,0L197.53,161a1.592,1.592,0,0,1,1.4,1.387,1.037,1.037,0,0,1-.9,1.162,1.142,1.142,0,0,1-.277,0Z" transform="translate(-162.116 -153.449)" fill="#fff"/>
                </g>
                <path id="Trazado_129507" data-name="Trazado 129507" d="M281.607,122.286l-7.6-.581a1.55,1.55,0,0,0-1.709,1.364,1.5,1.5,0,0,0,0,.38l.638,6.317a2.359,2.359,0,0,0,2.07,2.017l2.2.171,1.075,1.55a.8.8,0,0,0,1.09.323.779.779,0,0,0,.273-.236l.76-1.413,2.192.175a1.519,1.519,0,0,0,1.709-1.337,1.562,1.562,0,0,0,0-.38l-.619-6.313A2.348,2.348,0,0,0,281.607,122.286Z" transform="translate(-185.257 -106.973)" fill="#4db5c1"/>
                <g id="Grupo_55821" data-name="Grupo 55821" transform="translate(89.453 17.044)" opacity="0.9">
                  <path id="Trazado_129508" data-name="Trazado 129508" d="M279.719,131.217a3.115,3.115,0,0,1-1.018-1.873,1.234,1.234,0,0,1,.9-1.5,1.219,1.219,0,0,1,.608,0c.942.087,1.238.532,1.9,1.238.494-.57.76-.965,1.706-.893a1.926,1.926,0,0,1,1.8,1.785,2.1,2.1,0,0,1-.707,1.732l-2.363,2.329Z" transform="translate(-278.664 -127.809)" fill="#fff"/>
                </g>
                <path id="Trazado_129509" data-name="Trazado 129509" d="M218.4,219.819l-64.958-5.645a6.12,6.12,0,0,1-5.387-5.349l-.817-9.345a4.011,4.011,0,0,1,4.532-4.494l64.931,5.645a6.108,6.108,0,0,1,5.387,5.318l.817,9.36a4.008,4.008,0,0,1-4.52,4.494Z" transform="translate(-107.686 -152.4)" fill="#fff"/>
                <path id="Trazado_129510" data-name="Trazado 129510" d="M172.519,212.442a4.8,4.8,0,0,1-4.144,5.379,5,5,0,0,1-1.261,0,7.316,7.316,0,0,1-6.435-6.4,4.8,4.8,0,0,1,4.179-5.368,4.718,4.718,0,0,1,1.246,0,7.286,7.286,0,0,1,6.416,6.389Z" transform="translate(-116.021 -159.26)" fill="#4db5c1"/>
                <path id="Trazado_129511" data-name="Trazado 129511" d="M209.591,211.792a1.592,1.592,0,0,1-1.4-1.387,1.037,1.037,0,0,1,.885-1.174.923.923,0,0,1,.353,0l39.738,3.419a1.592,1.592,0,0,1,1.4,1.387,1.037,1.037,0,0,1-.885,1.174,1.106,1.106,0,0,1-.353,0Z" transform="translate(-145.503 -161.247)" fill="#23acb9"/>
                <path id="Trazado_129512" data-name="Trazado 129512" d="M211.706,236.05a1.611,1.611,0,0,1-1.4-1.4,1.045,1.045,0,0,1,.923-1.162.92.92,0,0,1,.251,0l23.313,2.032a1.584,1.584,0,0,1,1.4,1.387,1.037,1.037,0,0,1-.9,1.162,1.138,1.138,0,0,1-.277,0Z" transform="translate(-146.817 -176.293)" fill="#23acb9"/>
                <path id="Trazado_129513" data-name="Trazado 129513" d="M210.7,223.819a1.592,1.592,0,0,1-1.4-1.387,1.045,1.045,0,0,1,.9-1.166,1.139,1.139,0,0,1,.277,0l33.748,2.933a1.588,1.588,0,0,1,1.387,1.387,1.041,1.041,0,0,1-.809,1.227.924.924,0,0,1-.353,0Z" transform="translate(-146.189 -168.715)" fill="#23acb9"/>
                <g id="Grupo_55822" data-name="Grupo 55822" transform="translate(62.679 47.968)" opacity="0.5">
                  <path id="Trazado_129514" data-name="Trazado 129514" d="M209.591,211.792a1.592,1.592,0,0,1-1.4-1.387,1.037,1.037,0,0,1,.885-1.174.923.923,0,0,1,.353,0l39.738,3.419a1.592,1.592,0,0,1,1.4,1.387,1.037,1.037,0,0,1-.885,1.174,1.106,1.106,0,0,1-.353,0Z" transform="translate(-208.183 -209.215)" fill="#fff"/>
                  <path id="Trazado_129515" data-name="Trazado 129515" d="M211.706,236.05a1.611,1.611,0,0,1-1.4-1.4,1.045,1.045,0,0,1,.923-1.162.92.92,0,0,1,.251,0l23.313,2.032a1.584,1.584,0,0,1,1.4,1.387,1.037,1.037,0,0,1-.9,1.162,1.138,1.138,0,0,1-.277,0Z" transform="translate(-209.496 -224.261)" fill="#fff"/>
                  <path id="Trazado_129516" data-name="Trazado 129516" d="M210.7,223.819a1.592,1.592,0,0,1-1.4-1.387,1.045,1.045,0,0,1,.9-1.166,1.139,1.139,0,0,1,.277,0l33.748,2.933a1.588,1.588,0,0,1,1.387,1.387,1.041,1.041,0,0,1-.809,1.227.924.924,0,0,1-.353,0Z" transform="translate(-208.868 -216.683)" fill="#fff"/>
                </g>
                <path id="Trazado_129517" data-name="Trazado 129517" d="M328.338,185.57l-7.6-.581a1.52,1.52,0,0,0-1.709,1.333,1.56,1.56,0,0,0,0,.38l.619,6.313a2.34,2.34,0,0,0,2.066,2.032l2.2.171L325,196.738a.79.79,0,0,0,1.064.346.851.851,0,0,0,.285-.247l.779-1.421,2.181.171a1.519,1.519,0,0,0,1.687-1.364,1.606,1.606,0,0,0,0-.357l-.631-6.3A2.317,2.317,0,0,0,328.338,185.57Z" transform="translate(-214.236 -146.215)" fill="#4db5c1"/>
                <g id="Grupo_55823" data-name="Grupo 55823" transform="translate(107.209 41.06)" opacity="0.9">
                  <path id="Trazado_129518" data-name="Trazado 129518" d="M326.457,194.437a3.039,3.039,0,0,1-1.014-1.88,1.235,1.235,0,0,1,1.519-1.485c.931.072,1.238.532,1.9,1.238.482-.57.76-.98,1.694-.893a1.9,1.9,0,0,1,1.808,1.782,2.127,2.127,0,0,1-.707,1.721l-2.363,2.34Z" transform="translate(-325.407 -191.029)" fill="#fff"/>
                </g>
                <path id="Trazado_129519" data-name="Trazado 129519" d="M196.093,281.118l-64.958-5.645a6.1,6.1,0,0,1-5.387-5.349l-.805-9.345a4.008,4.008,0,0,1,3.457-4.5,3.958,3.958,0,0,1,1.06,0l64.958,5.645a6.1,6.1,0,0,1,5.36,5.352l.817,9.345a4.011,4.011,0,0,1-3.457,4.5A3.966,3.966,0,0,1,196.093,281.118Z" transform="translate(-93.863 -190.412)" fill="#fff"/>
                <path id="Trazado_129520" data-name="Trazado 129520" d="M150.187,273.736a4.805,4.805,0,0,1-5.409,5.375,7.32,7.32,0,0,1-6.439-6.4,4.805,4.805,0,0,1,4.179-5.368,4.688,4.688,0,0,1,1.242,0,7.312,7.312,0,0,1,6.427,6.393Z" transform="translate(-102.168 -197.268)" fill="#4db5c1"/>
                <path id="Trazado_129521" data-name="Trazado 129521" d="M187.274,273.116a1.58,1.58,0,0,1-1.4-1.387,1.041,1.041,0,0,1,.9-1.166.97.97,0,0,1,.277,0l39.8,3.453a1.6,1.6,0,0,1,1.4,1.424,1.037,1.037,0,0,1-.9,1.162.874.874,0,0,1-.281,0Z" transform="translate(-131.664 -199.285)" fill="#23acb9"/>
                <path id="Trazado_129522" data-name="Trazado 129522" d="M189.388,297.35a1.6,1.6,0,0,1-1.4-1.387,1.056,1.056,0,0,1,.912-1.178,1.04,1.04,0,0,1,.266,0l32.1,2.784a1.6,1.6,0,0,1,1.4,1.387,1.045,1.045,0,0,1-.885,1.178,1.1,1.1,0,0,1-.353,0Z" transform="translate(-132.974 -214.307)" fill="#23acb9"/>
                <path id="Trazado_129523" data-name="Trazado 129523" d="M188.312,285.217a1.591,1.591,0,0,1-1.4-1.386,1.041,1.041,0,0,1,.885-1.174,1.1,1.1,0,0,1,.353,0l28.768,2.477a1.607,1.607,0,0,1,1.4,1.387,1.053,1.053,0,0,1-1.238,1.238Z" transform="translate(-132.307 -206.782)" fill="#23acb9"/>
                <g id="Grupo_55824" data-name="Grupo 55824" transform="translate(54.202 71.269)" opacity="0.5">
                  <path id="Trazado_129524" data-name="Trazado 129524" d="M187.274,273.116a1.58,1.58,0,0,1-1.4-1.387,1.041,1.041,0,0,1,.9-1.166.97.97,0,0,1,.277,0l39.8,3.453a1.6,1.6,0,0,1,1.4,1.424,1.037,1.037,0,0,1-.9,1.162.874.874,0,0,1-.281,0Z" transform="translate(-185.867 -270.554)" fill="#fff"/>
                  <path id="Trazado_129525" data-name="Trazado 129525" d="M189.388,297.35a1.6,1.6,0,0,1-1.4-1.387,1.056,1.056,0,0,1,.912-1.178,1.04,1.04,0,0,1,.266,0l32.1,2.784a1.6,1.6,0,0,1,1.4,1.387,1.045,1.045,0,0,1-.885,1.178,1.1,1.1,0,0,1-.353,0Z" transform="translate(-187.176 -285.576)" fill="#fff"/>
                  <path id="Trazado_129526" data-name="Trazado 129526" d="M188.312,285.217a1.591,1.591,0,0,1-1.4-1.386,1.041,1.041,0,0,1,.885-1.174,1.1,1.1,0,0,1,.353,0l28.768,2.477a1.607,1.607,0,0,1,1.4,1.387,1.053,1.053,0,0,1-1.238,1.238Z" transform="translate(-186.51 -278.05)" fill="#fff"/>
                </g>
                <path id="Trazado_129527" data-name="Trazado 129527" d="M306.565,253.438l-7.6-.57a1.52,1.52,0,0,0-1.706,1.732l.619,6.313a2.317,2.317,0,0,0,2.066,2.021l2.2.171,1.079,1.55a.817.817,0,0,0,1.109.315.862.862,0,0,0,.251-.217l.76-1.424,2.192.175a1.52,1.52,0,0,0,1.709-1.337,1.558,1.558,0,0,0,0-.4l-.619-6.3A2.367,2.367,0,0,0,306.565,253.438Z" transform="translate(-200.734 -188.309)" fill="#4db5c1"/>
                <path id="Trazado_129528" data-name="Trazado 129528" d="M305.229,267.729h0a.684.684,0,0,1-.608-.593l-.186-2.131a.456.456,0,0,1,.4-.505h.106a.7.7,0,0,1,.619.6l.186,2.12a.456.456,0,0,1-.4.509A.411.411,0,0,1,305.229,267.729Z" transform="translate(-205.19 -195.531)" fill="#fff" opacity="0.9" style="isolation: isolate"/>
                <path id="Trazado_129529" data-name="Trazado 129529" d="M309.1,260.145a3.1,3.1,0,0,0,1.311-2.23c0-.532.76-.631,1.041-.125a3.039,3.039,0,0,1-.122,2.23l1.436.125a1.231,1.231,0,0,1,.927.653h0a.912.912,0,0,1,.1.646l-.422,2.028a.79.79,0,0,1-.946.6l-.068-.019L309.6,263.4a.566.566,0,0,1-.422-.482l-.213-2.477A.441.441,0,0,1,309.1,260.145Z" transform="translate(-208.005 -191.165)" fill="#fff" opacity="0.9" style="isolation: isolate"/>
                <path id="Trazado_129530" data-name="Trazado 129530" d="M398.56,122.08,406,207.053H526.082l-7.438-84.973Z" transform="translate(-263.562 -107.212)" fill="#fff" opacity="0.8" style="isolation: isolate"/>
                <g id="Grupo_55825" data-name="Grupo 55825" transform="translate(135.328 70.842)" opacity="0.2">
                  <path id="Trazado_129531" data-name="Trazado 129531" d="M402.787,298.034h0a1.052,1.052,0,0,1-1.014-.931l-2.34-26.75a.84.84,0,0,1,.76-.923h.1a1.018,1.018,0,0,1,1,.931l2.34,26.75a.843.843,0,0,1-.76.927Z" transform="translate(-399.428 -269.43)"/>
                </g>
                <g id="Grupo_55826" data-name="Grupo 55826" transform="translate(131.627 27.92)" opacity="0.2">
                  <path id="Trazado_129532" data-name="Trazado 129532" d="M393.984,196.262h0a1.045,1.045,0,0,1-1.014-.931l-3.278-37.968a.836.836,0,0,1,.76-.923h.091a1.033,1.033,0,0,1,1.014.927l3.32,37.968a.843.843,0,0,1-.76.927Z" transform="translate(-389.687 -156.44)"/>
                </g>
                <g id="Grupo_55827" data-name="Grupo 55827" transform="translate(130.475 15.268)" opacity="0.2">
                  <path id="Trazado_129533" data-name="Trazado 129533" d="M388.354,132.894h0a1.052,1.052,0,0,1-1.014-.927l-.68-7.909a.828.828,0,0,1,.722-.923.635.635,0,0,1,.118,0h0a1.045,1.045,0,0,1,1.018.931l.68,7.909a.84.84,0,0,1-.76.923Z" transform="translate(-386.654 -123.133)"/>
                </g>
                <g id="Grupo_55828" data-name="Grupo 55828" transform="translate(261.76 58.657)" opacity="0.2">
                  <path id="Trazado_129534" data-name="Trazado 129534" d="M736.7,278.142h0a1.041,1.041,0,0,1-1.014-.931l-3.419-38.933a.839.839,0,0,1,.76-.923.509.509,0,0,1,.107,0h0a1.041,1.041,0,0,1,1,.927l3.419,38.933a.843.843,0,0,1-.76.927Z" transform="translate(-732.258 -237.353)"/>
                </g>
                <g id="Grupo_55829" data-name="Grupo 55829" transform="translate(258.719 23.799)" opacity="0.2">
                  <path id="Trazado_129535" data-name="Trazado 129535" d="M727.933,177.773h0a1.041,1.041,0,0,1-1.014-.931l-2.659-30.329a.828.828,0,0,1,.726-.923h.118a1.033,1.033,0,0,1,1.014.931l2.659,30.329a.839.839,0,0,1-.76.927Z" transform="translate(-724.254 -145.59)"/>
                </g>
                <g id="Grupo_55830" data-name="Grupo 55830" transform="translate(257.973 15.263)" opacity="0.2">
                  <path id="Trazado_129536" data-name="Trazado 129536" d="M723.569,128.013h0a1.014,1.014,0,0,1-1-.927l-.273-3.039a.847.847,0,0,1,.76-.927h.1a1.014,1.014,0,0,1,1,.931l.273,3.039a.843.843,0,0,1-.76.923Z" transform="translate(-722.289 -123.12)"/>
                </g>
                <path id="Trazado_129537" data-name="Trazado 129537" d="M677.813,218.545a1.14,1.14,0,0,1,1.06-1.235h.1a1.417,1.417,0,0,1,1.387,1.238l1.474,16.786a1.139,1.139,0,0,1-1.06,1.235h-.1a1.413,1.413,0,0,1-1.386-1.238Z" transform="translate(-436.733 -166.267)" fill="#4db5c1"/>
                <path id="Trazado_129538" data-name="Trazado 129538" d="M419.98,136.843a1.413,1.413,0,0,1-1.387-1.238,1.14,1.14,0,0,1,1.064-1.235h29.269a1.417,1.417,0,0,1,1.387,1.238,1.14,1.14,0,0,1-1.064,1.235Z" transform="translate(-275.983 -114.833)" fill="#23acb9"/>
                <path id="Trazado_129539" data-name="Trazado 129539" d="M422.2,161.093a1.413,1.413,0,0,1-1.386-1.238,1.14,1.14,0,0,1,1.06-1.235h24.312a1.413,1.413,0,0,1,1.387,1.238,1.14,1.14,0,0,1-1.064,1.235H422.2Z" transform="translate(-277.359 -129.871)" fill="#23acb9"/>
                <path id="Trazado_129540" data-name="Trazado 129540" d="M421.13,149.033a1.406,1.406,0,0,1-1.387-1.238,1.14,1.14,0,0,1,1.06-1.235h19.373a1.413,1.413,0,0,1,1.387,1.238,1.14,1.14,0,0,1-1.06,1.235Z" transform="translate(-276.696 -122.393)" fill="#23acb9"/>
                <g id="Grupo_55831" data-name="Grupo 55831" transform="translate(142.606 19.537)" opacity="0.5">
                  <path id="Trazado_129541" data-name="Trazado 129541" d="M419.98,136.843a1.413,1.413,0,0,1-1.387-1.238,1.14,1.14,0,0,1,1.064-1.235h29.269a1.417,1.417,0,0,1,1.387,1.238,1.14,1.14,0,0,1-1.064,1.235Z" transform="translate(-418.589 -134.37)" fill="#fff"/>
                  <path id="Trazado_129542" data-name="Trazado 129542" d="M422.2,161.093a1.413,1.413,0,0,1-1.386-1.238,1.14,1.14,0,0,1,1.06-1.235h24.312a1.413,1.413,0,0,1,1.387,1.238,1.14,1.14,0,0,1-1.064,1.235H422.2Z" transform="translate(-419.966 -149.408)" fill="#fff"/>
                  <path id="Trazado_129543" data-name="Trazado 129543" d="M421.13,149.033a1.406,1.406,0,0,1-1.387-1.238,1.14,1.14,0,0,1,1.06-1.235h19.373a1.413,1.413,0,0,1,1.387,1.238,1.14,1.14,0,0,1-1.06,1.235Z" transform="translate(-419.302 -141.929)" fill="#fff"/>
                </g>
                <path id="Trazado_129544" data-name="Trazado 129544" d="M674.542,182.209a5.96,5.96,0,0,1-5.276,6.568,5.54,5.54,0,0,1-.76.03,7.339,7.339,0,0,1-7.176-6.6,5.953,5.953,0,0,1,5.261-6.572,5.831,5.831,0,0,1,.76-.038A7.43,7.43,0,0,1,674.542,182.209Z" transform="translate(-426.491 -140.4)" fill="#4db5c1"/>
                <path id="Trazado_129545" data-name="Trazado 129545" d="M668.523,194.4h0a.79.79,0,0,1-.794-.729l-.247-2.773a.653.653,0,0,1,.577-.726h.091a.813.813,0,0,1,.79.729l.235,2.773a.653.653,0,0,1-.577.726Z" transform="translate(-430.327 -149.437)" fill="#fff"/>
                <path id="Trazado_129546" data-name="Trazado 129546" d="M673.523,183.649a4.661,4.661,0,0,0,1.7-3.1.718.718,0,0,1,1.348-.273,4.034,4.034,0,0,1-.163,2.948h1.835a1.379,1.379,0,0,1,1.238.76h0a1.337,1.337,0,0,1,.133.84l-.543,2.708a1.14,1.14,0,0,1-1.326.893l-3.552-.558a.668.668,0,0,1-.558-.593l-.285-3.183A.581.581,0,0,1,673.523,183.649Z" transform="translate(-433.967 -143.068)" fill="#fff"/>
                <path id="Trazado_129547" data-name="Trazado 129547" d="M683.19,281.5a7.347,7.347,0,0,0-7.183-6.61,5.953,5.953,0,0,0-6.078,5.842,6.445,6.445,0,0,0,.034.76,7.423,7.423,0,0,0,7.21,6.617,5.953,5.953,0,0,0,6.078-5.842A6.481,6.481,0,0,0,683.19,281.5Z" transform="translate(-431.846 -201.972)" fill="#4db5c1"/>
                <path id="Trazado_129548" data-name="Trazado 129548" d="M676.36,284h0a.657.657,0,0,0-.672.638.732.732,0,0,0,0,.091l.285,2.773a.809.809,0,0,0,.794.733h0a.657.657,0,0,0,.657-.653.281.281,0,0,0,0-.08l-.236-2.784A.824.824,0,0,0,676.36,284Z" transform="translate(-435.417 -207.623)" fill="#fff"/>
                <path id="Trazado_129549" data-name="Trazado 129549" d="M682.164,287.673a5.888,5.888,0,0,1,2.241,3.107c.11.707,1.14.915,1.386.27s.1-1.36-.669-2.955h1.858a1.139,1.139,0,0,0,1.086-.76h0a1.284,1.284,0,0,0,0-.843l-1.026-2.72a1.371,1.371,0,0,0-1.474-.893l-3.453.558a.539.539,0,0,0-.46.593l.285,3.168A.619.619,0,0,0,682.164,287.673Z" transform="translate(-439.116 -206.921)" fill="#fff"/>
                <ellipse id="Elipse_4330" data-name="Elipse 4330" cx="32.684" cy="35.677" rx="32.684" ry="35.677" transform="translate(150.456 59.685) rotate(-46.25)" fill="#4db5c1"/>
                <path id="Trazado_129550" data-name="Trazado 129550" d="M532.69,162.973a37.125,37.125,0,0,0-25.018-9.9c-18.853,0-32.806,15.29-31.149,34.143h34.143Z" transform="translate(-311.826 -126.43)" fill="#fff" opacity="0.6" style="isolation: isolate"/>
                <path id="Trazado_129551" data-name="Trazado 129551" d="M497.47,162.967l26.257,24.141-2.982-34.044a31.149,31.149,0,0,0-23.275,9.9Z" transform="translate(-324.899 -126.423)" opacity="0.2" style="isolation: isolate"/>
                <path id="Trazado_129552" data-name="Trazado 129552" d="M497.47,162.967l26.257,24.141-2.982-34.044a31.149,31.149,0,0,0-23.275,9.9Z" transform="translate(-324.899 -126.423)" fill="#4db5c1"/>
                <path id="Trazado_129553" data-name="Trazado 129553" d="M497.47,162.967l26.257,24.141-2.982-34.044a31.149,31.149,0,0,0-23.275,9.9Z" transform="translate(-324.899 -126.423)" opacity="0.3" style="isolation: isolate"/>
                <path id="Trazado_129554" data-name="Trazado 129554" d="M533.619,276.944c18.853,0,32.806-15.29,31.149-34.154H530.622l-22.032,24.1A37.14,37.14,0,0,0,533.619,276.944Z" transform="translate(-331.795 -182.068)" fill="#fff" opacity="0.3" style="isolation: isolate"/>
                <path id="Trazado_129555" data-name="Trazado 129555" d="M606.117,303.777a7.506,7.506,0,0,1-6.651,8.266,8.361,8.361,0,0,1-.923.042,9.25,9.25,0,0,1-9.026-8.308,7.434,7.434,0,0,1,6.507-8.247,7.219,7.219,0,0,1,1.071-.046A9.246,9.246,0,0,1,606.117,303.777Z" transform="translate(-381.948 -214.743)" fill="#23acb9"/>
                <path id="Trazado_129556" data-name="Trazado 129556" d="M601.777,314.4a3.3,3.3,0,0,1-1.238-2.116,1.637,1.637,0,0,1,1.333-1.9,1.52,1.52,0,0,1,.414-.019c1.09,0,1.5.505,2.192,1.238.57-.718.889-1.238,1.979-1.238a2.009,2.009,0,0,1,2.082,1.9,2.727,2.727,0,0,1-.821,2.116l-2.735,2.982Z" transform="translate(-388.8 -223.972)" fill="#4db5c1"/>
                <path id="Trazado_129557" data-name="Trazado 129557" d="M482.815,194.277a7.43,7.43,0,0,1-6.5,8.258,7.918,7.918,0,0,1-1.083.049,9.246,9.246,0,0,1-9.022-8.308,7.426,7.426,0,0,1,6.507-8.247,7.149,7.149,0,0,1,1.067-.046A9.235,9.235,0,0,1,482.815,194.277Z" transform="translate(-305.485 -146.838)" fill="#23acb9"/>
                <path id="Trazado_129558" data-name="Trazado 129558" d="M484.81,199.243a4.718,4.718,0,0,1-4.209,5.174,4.574,4.574,0,0,1-.558.027,5.827,5.827,0,0,1-5.7-5.238,4.718,4.718,0,0,1,4.179-5.2,4.536,4.536,0,0,1,.612-.015A5.82,5.82,0,0,1,484.81,199.243Z" transform="translate(-310.541 -151.805)" fill="#4db5c1"/>
                <path id="Trazado_129559" data-name="Trazado 129559" d="M484.81,199.243a4.718,4.718,0,0,1-4.209,5.174,4.574,4.574,0,0,1-.558.027,5.827,5.827,0,0,1-5.7-5.238,4.718,4.718,0,0,1,4.179-5.2,4.536,4.536,0,0,1,.612-.015A5.82,5.82,0,0,1,484.81,199.243Z" transform="translate(-310.541 -151.805)" fill="#fff" opacity="0.5" style="isolation: isolate"/>
                <path id="Trazado_129560" data-name="Trazado 129560" d="M486.023,210.494a2.614,2.614,0,0,1-3.628,0,.434.434,0,0,0-.669.555.573.573,0,0,0,.087.08,3.525,3.525,0,0,0,4.938,0c.38-.38-.3-1.029-.7-.634Z" transform="translate(-315.074 -161.943)" fill="#4db5c1"/>
                <path id="Trazado_129561" data-name="Trazado 129561" d="M483.028,201.679c0,.566-.11,1.026-.357,1.026s-.486-.46-.536-1.026.114-1.029.38-1.029S482.979,201.163,483.028,201.679Z" transform="translate(-315.384 -155.936)" fill="#4db5c1"/>
                <path id="Trazado_129562" data-name="Trazado 129562" d="M491.923,201.679c0,.566-.114,1.026-.349,1.026s-.482-.46-.543-1.026.11-1.029.361-1.029S491.873,201.163,491.923,201.679Z" transform="translate(-320.898 -155.936)" fill="#4db5c1"/>
                <path id="Trazado_129563" data-name="Trazado 129563" d="M616.268,174.441a7.43,7.43,0,0,1-6.507,8.247,7.778,7.778,0,0,1-1.071.049,9.246,9.246,0,0,1-9.022-8.3,7.5,7.5,0,0,1,6.652-8.262,6.838,6.838,0,0,1,.923-.042,9.246,9.246,0,0,1,9.026,8.3Z" transform="translate(-388.248 -134.532)" fill="#23acb9"/>
                <path id="Trazado_129564" data-name="Trazado 129564" d="M618.236,179.453a4.722,4.722,0,0,1-4.179,5.2c-.194.019-.38.027-.585.027a5.831,5.831,0,0,1-5.7-5.227,4.729,4.729,0,0,1,4.179-5.208,4.277,4.277,0,0,1,.585-.027A5.831,5.831,0,0,1,618.236,179.453Z" transform="translate(-393.285 -139.544)" fill="#4db5c1"/>
                <path id="Trazado_129565" data-name="Trazado 129565" d="M618.236,179.453a4.722,4.722,0,0,1-4.179,5.2c-.194.019-.38.027-.585.027a5.831,5.831,0,0,1-5.7-5.227,4.729,4.729,0,0,1,4.179-5.208,4.277,4.277,0,0,1,.585-.027A5.831,5.831,0,0,1,618.236,179.453Z" transform="translate(-393.285 -139.544)" fill="#fff" opacity="0.5" style="isolation: isolate"/>
                <path id="Trazado_129566" data-name="Trazado 129566" d="M616.047,192.169a2.6,2.6,0,0,1,3.639,0,.433.433,0,0,0,.581-.642h0a3.548,3.548,0,0,0-4.938,0c-.38.38.308,1.026.691.642Z" transform="translate(-397.919 -149.658)" fill="#4db5c1"/>
                <path id="Trazado_129567" data-name="Trazado 129567" d="M616.318,181.8c0,.57-.11,1.026-.357,1.026s-.486-.456-.536-1.026.114-1.029.361-1.029S616.318,181.237,616.318,181.8Z" transform="translate(-398.042 -143.607)" fill="#4db5c1"/>
                <path id="Trazado_129568" data-name="Trazado 129568" d="M625.366,181.8c0,.57-.114,1.026-.349,1.026s-.482-.456-.532-1.026.1-1.029.35-1.029S625.316,181.237,625.366,181.8Z" transform="translate(-403.659 -143.607)" fill="#4db5c1"/>
                <ellipse id="Elipse_4331" data-name="Elipse 4331" cx="7.947" cy="8.665" rx="7.947" ry="8.665" transform="translate(157.967 72.707) rotate(-46.25)" fill="#23acb9"/>
                <ellipse id="Elipse_4332" data-name="Elipse 4332" cx="5.003" cy="5.459" rx="5.003" ry="5.459" transform="translate(162.321 72.748) rotate(-46.25)" fill="#4db5c1"/>
                <ellipse id="Elipse_4333" data-name="Elipse 4333" cx="5.003" cy="5.459" rx="5.003" ry="5.459" transform="translate(162.321 72.748) rotate(-46.25)" fill="#fff" opacity="0.5" style="isolation: isolate"/>
                <path id="Trazado_129569" data-name="Trazado 129569" d="M483.417,277.858a3.715,3.715,0,0,0,5.185,0l-.08-.858H483.33Z" transform="translate(-316.13 -203.283)" fill="#4db5c1"/>
                <path id="Trazado_129570" data-name="Trazado 129570" d="M484.3,270.033a1.649,1.649,0,0,0-2.279,0c-.311.273.209.76.52.471a.927.927,0,0,1,1.311,0C484.234,270.789,484.652,270.307,484.3,270.033Z" transform="translate(-315.261 -198.679)" fill="#4db5c1"/>
                <path id="Trazado_129571" data-name="Trazado 129571" d="M493.336,270.036a1.652,1.652,0,0,0-2.279,0c-.308.273.213.76.52.471a.953.953,0,0,1,1.326,0C493.248,270.792,493.7,270.309,493.336,270.036Z" transform="translate(-320.864 -198.681)" fill="#4db5c1"/>
                <path id="Trazado_129572" data-name="Trazado 129572" d="M675.309,430.99H636.92v6.241H713.7v-2.564Z" transform="translate(-411.376 -298.776)" fill="#4db5c1"/>
                <path id="Trazado_129573" data-name="Trazado 129573" d="M675.309,430.99H636.92v6.241H713.7v-2.564Z" transform="translate(-411.376 -298.776)" fill="#fff" opacity="0.6" style="isolation: isolate"/>
                <path id="Trazado_129574" data-name="Trazado 129574" d="M675.309,437.231H636.92V430.99l38.389,3.677Z" transform="translate(-411.376 -298.776)" fill="#fff" opacity="0.6" style="isolation: isolate"/>
                <g id="Grupo_55832" data-name="Grupo 55832" transform="translate(343.88 4.034)" opacity="0.5">
                  <path id="Trazado_129575" data-name="Trazado 129575" d="M991.5,153.936,986.21,93.56l-7.157.631L948.44,182.522l34.181-3.02Z" transform="translate(-948.44 -93.56)" fill="#fff"/>
                </g>
                <g id="Grupo_55833" data-name="Grupo 55833" transform="translate(191.215 14.868)" opacity="0.5">
                  <path id="Trazado_129576" data-name="Trazado 129576" d="M579.69,207.053l29.463-84.973h-33.14L546.55,207.053Z" transform="translate(-546.55 -122.08)" fill="#fff"/>
                </g>
                <path id="Trazado_129577" data-name="Trazado 129577" d="M265.675,199.735,289.85,130l-1.1-12.589-26.861-2.34L233.5,196.936Z" transform="translate(-161.203 -102.865)" fill="#fff" opacity="0.5" style="isolation: isolate"/>
              </g>
              <g id="freepik--Table--inject-15" transform="translate(115.564 221.406)">
                <path id="Trazado_129578" data-name="Trazado 129578" d="M253.57,460.09h246.7v5.261a2.131,2.131,0,0,1-2.131,2.131H255.781a2.131,2.131,0,0,1-2.131-2.131h0V460.09Z" transform="translate(-246.033 -455.288)" fill="#ccf"/>
                <path id="Trazado_129579" data-name="Trazado 129579" d="M253.57,460.09h246.7v5.261a2.131,2.131,0,0,1-2.131,2.131H255.781a2.131,2.131,0,0,1-2.131-2.131h0V460.09Z" transform="translate(-246.033 -455.288)" opacity="0.2" style="isolation: isolate"/>
                <path id="Trazado_129580" data-name="Trazado 129580" d="M253.57,460.09H365.252v7.43H255.75a2.131,2.131,0,0,1-2.131-2.146h0v-5.246h0Z" transform="translate(-246.033 -455.288)" fill="#fff" opacity="0.3" style="isolation: isolate"/>
                <rect id="Rectángulo_30762" data-name="Rectángulo 30762" width="261.757" height="6.188" rx="3.094" transform="translate(0 0)" fill="#ccf"/>
                <path id="Trazado_129581" data-name="Trazado 129581" d="M236.3,447.45H352.987v6.188H236.3a2.473,2.473,0,0,1-2.477-2.473V450a2.481,2.481,0,0,1,2.4-2.549Z" transform="translate(-233.784 -447.45)" fill="#fff" opacity="0.4" style="isolation: isolate"/>
                <path id="Trazado_129582" data-name="Trazado 129582" d="M358.275,628.427H272.661a9.31,9.31,0,0,1-9.311-9.31v-130.2a9.311,9.311,0,0,1,9.311-9.311h85.615a9.311,9.311,0,0,1,9.311,9.311v130.2a9.31,9.31,0,0,1-9.311,9.31ZM272.661,484.563a4.368,4.368,0,0,0-4.357,4.357v130.2a4.365,4.365,0,0,0,4.357,4.357h85.615a4.368,4.368,0,0,0,4.361-4.357v-130.2a4.372,4.372,0,0,0-4.361-4.357Z" transform="translate(-252.098 -467.393)" fill="#263238"/>
                <g id="Grupo_55834" data-name="Grupo 55834" transform="translate(11.252 12.217)" opacity="0.4">
                  <path id="Trazado_129583" data-name="Trazado 129583" d="M358.275,628.427H272.661a9.31,9.31,0,0,1-9.311-9.31v-130.2a9.311,9.311,0,0,1,9.311-9.311h85.615a9.311,9.311,0,0,1,9.311,9.311v130.2a9.31,9.31,0,0,1-9.311,9.31ZM272.661,484.563a4.368,4.368,0,0,0-4.357,4.357v130.2a4.365,4.365,0,0,0,4.357,4.357h85.615a4.368,4.368,0,0,0,4.361-4.357v-130.2a4.372,4.372,0,0,0-4.361-4.357Z" transform="translate(-263.35 -479.61)" fill="#fff" opacity="0.2" style="isolation: isolate"/>
                </g>
                <path id="Trazado_129584" data-name="Trazado 129584" d="M358.356,479.61H272.741a9.326,9.326,0,0,0-9.261,8.357h5.014a4.357,4.357,0,0,1,4.247-3.419h85.615a4.357,4.357,0,0,1,4.247,3.419h5.014a9.322,9.322,0,0,0-9.261-8.357Z" transform="translate(-252.179 -467.393)" opacity="0.2" style="isolation: isolate"/>
                <path id="Trazado_129585" data-name="Trazado 129585" d="M709.135,628.427H623.517a9.307,9.307,0,0,1-9.307-9.311v-130.2a9.311,9.311,0,0,1,9.307-9.311h85.619a9.322,9.322,0,0,1,9.311,9.311v130.2A9.322,9.322,0,0,1,709.135,628.427ZM623.517,484.563a4.369,4.369,0,0,0-4.357,4.357v130.2a4.369,4.369,0,0,0,4.357,4.357h85.619a4.368,4.368,0,0,0,4.357-4.357v-130.2a4.368,4.368,0,0,0-4.357-4.357Z" transform="translate(-469.677 -467.393)" fill="#263238"/>
                <path id="Trazado_129586" data-name="Trazado 129586" d="M709.135,628.427H623.517a9.307,9.307,0,0,1-9.307-9.311v-130.2a9.311,9.311,0,0,1,9.307-9.311h85.619a9.322,9.322,0,0,1,9.311,9.311v130.2A9.322,9.322,0,0,1,709.135,628.427ZM623.517,484.563a4.369,4.369,0,0,0-4.357,4.357v130.2a4.369,4.369,0,0,0,4.357,4.357h85.619a4.368,4.368,0,0,0,4.357-4.357v-130.2a4.368,4.368,0,0,0-4.357-4.357Z" transform="translate(-469.677 -467.393)" fill="#fff" opacity="0.1" style="isolation: isolate"/>
                <path id="Trazado_129587" data-name="Trazado 129587" d="M709.216,479.61H623.6a9.318,9.318,0,0,0-9.257,8.357h4.938a4.372,4.372,0,0,1,4.258-3.419h85.642a4.361,4.361,0,0,1,4.285,3.468h5.01A9.322,9.322,0,0,0,709.216,479.61Z" transform="translate(-469.758 -467.393)" opacity="0.2" style="isolation: isolate"/>
              </g>
              <g id="freepik--Device--inject-15" transform="translate(94.876 264.214)">
                <rect id="Rectángulo_30763" data-name="Rectángulo 30763" width="116.605" height="118.709" rx="27.44" transform="translate(0 0)" fill="#3f5165"/>
                <rect id="Rectángulo_30764" data-name="Rectángulo 30764" width="116.605" height="118.709" rx="27.44" transform="translate(0 0)" fill="#fff" opacity="0.4" style="isolation: isolate"/>
                <path id="Trazado_129588" data-name="Trazado 129588" d="M179.27,845v.076a10.424,10.424,0,0,0,10.412,10.435h95.769a10.424,10.424,0,0,0,10.424-10.424V845Z" transform="translate(-179.27 -736.79)" opacity="0.1" style="isolation: isolate"/>
                <rect id="Rectángulo_30765" data-name="Rectángulo 30765" width="47.4" height="118.709" rx="23.7" transform="translate(69.201 0)" fill="#3f5165"/>
                <path id="Trazado_129589" data-name="Trazado 129589" d="M380.967,574.81H407.52a4.851,4.851,0,0,1,4.851,4.851v97.862a4.851,4.851,0,0,1-4.847,4.862H380.971a4.851,4.851,0,0,1-4.851-4.851V579.661a4.855,4.855,0,0,1,4.847-4.851Z" transform="translate(-301.343 -569.237)" fill="#fff" opacity="0.3" style="isolation: isolate"/>
                <rect id="Rectángulo_30766" data-name="Rectángulo 30766" width="29.09" height="7.738" transform="translate(78.363 13.311)" fill="#fff" opacity="0.7" style="isolation: isolate"/>
                <rect id="Rectángulo_30767" data-name="Rectángulo 30767" width="29.09" height="7.738" transform="translate(78.363 22.595)" fill="#fff" opacity="0.7" style="isolation: isolate"/>
                <circle id="Elipse_4334" data-name="Elipse 4334" cx="6.055" cy="6.055" r="6.055" transform="translate(86.853 53.296)" fill="#3f5165"/>
                <g id="Grupo_55835" data-name="Grupo 55835" transform="translate(89.575 55.226)" opacity="0.9">
                  <path id="Trazado_129590" data-name="Trazado 129590" d="M419.806,711.355a1.994,1.994,0,1,1-2.819,0h0c.57-.619-.361-1.557-.942-.927a3.316,3.316,0,1,0,4.691,0h0C420.167,709.8,419.225,710.736,419.806,711.355Z" transform="translate(-415.075 -708.435)" fill="#fff"/>
                  <path id="Trazado_129591" data-name="Trazado 129591" d="M422.25,706.117v3a.669.669,0,0,0,1.326,0V706.1a.669.669,0,0,0-.76-.574A.676.676,0,0,0,422.25,706.117Z" transform="translate(-419.524 -705.521)" fill="#fff"/>
                </g>
                <circle id="Elipse_4335" data-name="Elipse 4335" cx="1.858" cy="1.858" r="1.858" transform="translate(79.575 75.415)" fill="#3f5165"/>
                <circle id="Elipse_4336" data-name="Elipse 4336" cx="1.858" cy="1.858" r="1.858" transform="translate(87.226 75.415)" fill="#3f5165"/>
                <circle id="Elipse_4337" data-name="Elipse 4337" cx="1.858" cy="1.858" r="1.858" transform="translate(94.876 75.415)" fill="#3f5165"/>
                <circle id="Elipse_4338" data-name="Elipse 4338" cx="1.858" cy="1.858" r="1.858" transform="translate(102.527 75.415)" fill="#3f5165"/>
                <circle id="Elipse_4339" data-name="Elipse 4339" cx="1.858" cy="1.858" r="1.858" transform="translate(83.4 82.014)" fill="#3f5165"/>
                <circle id="Elipse_4340" data-name="Elipse 4340" cx="1.858" cy="1.858" r="1.858" transform="translate(91.051 82.014)" fill="#3f5165"/>
                <circle id="Elipse_4341" data-name="Elipse 4341" cx="1.858" cy="1.858" r="1.858" transform="translate(98.701 82.014)" fill="#3f5165"/>
                <circle id="Elipse_4342" data-name="Elipse 4342" cx="1.858" cy="1.858" r="1.858" transform="translate(79.575 89.33)" fill="#3f5165"/>
                <circle id="Elipse_4343" data-name="Elipse 4343" cx="1.858" cy="1.858" r="1.858" transform="translate(87.226 89.33)" fill="#3f5165"/>
                <circle id="Elipse_4344" data-name="Elipse 4344" cx="1.858" cy="1.858" r="1.858" transform="translate(94.876 89.33)" fill="#3f5165"/>
                <circle id="Elipse_4345" data-name="Elipse 4345" cx="1.858" cy="1.858" r="1.858" transform="translate(102.527 89.33)" fill="#3f5165"/>
                <circle id="Elipse_4346" data-name="Elipse 4346" cx="1.858" cy="1.858" r="1.858" transform="translate(83.4 95.928)" fill="#3f5165"/>
                <circle id="Elipse_4347" data-name="Elipse 4347" cx="1.858" cy="1.858" r="1.858" transform="translate(91.051 95.928)" fill="#3f5165"/>
                <circle id="Elipse_4348" data-name="Elipse 4348" cx="1.858" cy="1.858" r="1.858" transform="translate(98.701 95.928)" fill="#3f5165"/>
                <circle id="Elipse_4349" data-name="Elipse 4349" cx="1.858" cy="1.858" r="1.858" transform="translate(79.575 103.248)" fill="#3f5165"/>
                <circle id="Elipse_4350" data-name="Elipse 4350" cx="1.858" cy="1.858" r="1.858" transform="translate(87.226 103.248)" fill="#3f5165"/>
                <circle id="Elipse_4351" data-name="Elipse 4351" cx="1.858" cy="1.858" r="1.858" transform="translate(94.876 103.248)" fill="#3f5165"/>
                <circle id="Elipse_4352" data-name="Elipse 4352" cx="1.858" cy="1.858" r="1.858" transform="translate(102.527 103.248)" fill="#3f5165"/>
              </g>
              <g id="freepik--Character--inject-15" transform="translate(293.259 107.191)">
                <path id="Trazado_129592" data-name="Trazado 129592" d="M810.575,367.451l-7.427-3.358-10.488,4.372v5.223s16.281-.543,16.27-.52,18.359,6.116,25.144,5.174,28.334-31.035,28.334-31.035l-10.857-9.5L830.9,367.235Z" transform="translate(-758.035 -265.244)" fill="#fcc1bb"/>
                <path id="Trazado_129593" data-name="Trazado 129593" d="M810.575,410.358,803.148,407l-10.488,4.372V416.6s16.281-.543,16.27-.52l1.238.41,5.246-6.192Z" transform="translate(-758.035 -308.15)" opacity="0.1" style="isolation: isolate"/>
                <path id="Trazado_129594" data-name="Trazado 129594" d="M928.46,325.714s7.5-13.349,12.308-17.58c2.91-2.576,6.967-3.369,9.706-3.6a2.967,2.967,0,0,1,3.206,2.712v.232c0,5.288-1.337,16.764-12.194,28.585Z" transform="translate(-842.249 -244.601)" fill="#263238"/>
                <path id="Trazado_129595" data-name="Trazado 129595" d="M925.372,353.69a38.712,38.712,0,0,1,14.435,12.764l-2.921,2.253a55.463,55.463,0,0,0-13.406-11.821Z" transform="translate(-839.16 -275.091)" fill="#ccf"/>
                <path id="Trazado_129596" data-name="Trazado 129596" d="M874.071,226.79l-3.711,5.816a5.124,5.124,0,0,0,4.631.46Z" transform="translate(-806.219 -196.397)" fill="#eb827e"/>
                <path id="Trazado_129597" data-name="Trazado 129597" d="M870.8,222.079a4.422,4.422,0,1,1,4.114-4.707v.285a4.285,4.285,0,0,1-4.114,4.422Zm0-7.9a3.5,3.5,0,1,0,3.183,3.8v-.323A3.35,3.35,0,0,0,870.8,214.182Z" transform="translate(-803.562 -187.998)" fill="#ccf"/>
                <path id="Trazado_129598" data-name="Trazado 129598" d="M874.27,222.562c0,.76.38,1.371.866,1.371s.927-.619.915-1.349-.38-1.375-.866-1.375S874.281,221.768,874.27,222.562Z" transform="translate(-808.644 -192.936)" fill="#1a2e35"/>
                <path id="Trazado_129599" data-name="Trazado 129599" d="M904.713,190.522c.334,9.987.7,14.222-3.837,19.806-7.18,5.918-19.176,6.61-22.5-3.085-2.971-8.665-3.02-23.522,6.34-28.471a13.618,13.618,0,0,1,19.992,11.776Z" transform="translate(-810.095 -165.636)" fill="#fcc1bb"/>
                <path id="Trazado_129600" data-name="Trazado 129600" d="M903.2,272.287l-.076-.5a1.808,1.808,0,0,0-2.044-1.519,2.273,2.273,0,0,0-.232.049l-4.061,1.1A13.212,13.212,0,0,0,903.2,272.287Z" transform="translate(-822.609 -223.348)" fill="#1a2e35" opacity="0.2" style="isolation: isolate"/>
                <path id="Trazado_129601" data-name="Trazado 129601" d="M875.8,212.338a.353.353,0,0,1-.346-.133,3.092,3.092,0,0,0-2.576-1.14.392.392,0,0,1-.194-.76.506.506,0,0,1,.106,0,3.886,3.886,0,0,1,3.271,1.424.414.414,0,0,1,0,.558h0A.346.346,0,0,1,875.8,212.338Z" transform="translate(-807.48 -186.169)" fill="#1a2e35"/>
                <path id="Trazado_129602" data-name="Trazado 129602" d="M912.69,264.191l2.192,14.83,12.391-2.564L923.3,261.27Z" transform="translate(-832.469 -217.779)" fill="#fcc1bb"/>
                <path id="Trazado_129603" data-name="Trazado 129603" d="M877.952,163.578c4.224,8.023,7.145.68,6.363,7.157s1.55,8.566,1.55,8.566l8.49,12.665a1.664,1.664,0,0,0,2.055.558,5.592,5.592,0,0,1,4.41-.456,1.542,1.542,0,0,0,1.618-.232A25.785,25.785,0,0,0,910.3,176.36c2.735-17.455-10.686-20.133-10.686-20.133-7.427-1.546-5.546-9.447-9.975-9.447-3.381,0-2.389,5.561-2.389,5.561s-3.616-2.712-5.721-1.785c-2.712,1.238-.308,6.746-.308,6.746S873.819,155.7,877.952,163.578Z" transform="translate(-810.149 -146.78)" fill="#1a2e35"/>
                <path id="Trazado_129604" data-name="Trazado 129604" d="M882.77,217.958H870.39l.593-1.238H882.77Z" transform="translate(-806.238 -190.152)" fill="#ccf"/>
                <path id="Trazado_129605" data-name="Trazado 129605" d="M896.1,218.968a7.677,7.677,0,0,0,1.238,5.744c1.573,2.215,4.072,1.238,5.075-1.14.9-2.139,1.162-5.842-1.113-7.218a3.483,3.483,0,0,0-4.756,1.265A3.42,3.42,0,0,0,896.1,218.968Z" transform="translate(-822.102 -189.635)" fill="#ffc3bd"/>
                <path id="Trazado_129606" data-name="Trazado 129606" d="M903.89,282.391s7.977-7.529,16.3-6.91c5.671.41,7.427,7.529,7.427,7.529Z" transform="translate(-827.012 -226.569)" fill="#263238"/>
                <path id="Trazado_129607" data-name="Trazado 129607" d="M903.89,282.391s7.977-7.529,16.3-6.91c5.671.41,7.427,7.529,7.427,7.529Z" transform="translate(-827.012 -226.569)" fill="#7d6eb2" opacity="0.2" style="isolation: isolate"/>
                <path id="Trazado_129608" data-name="Trazado 129608" d="M889.337,382.142,871.92,297.017a5.6,5.6,0,0,1,4.213-6.7,5.38,5.38,0,0,1,.813-.122c10.933-.919,32.98-1.8,40.357,4.938,17.185,15.772,18.572,88.206,18.572,88.206Z" transform="translate(-807.099 -235.33)" fill="#7d6eb2"/>
                <path id="Trazado_129609" data-name="Trazado 129609" d="M877.465,305.591a15.025,15.025,0,0,0-4.615,2.895l5.755,27.993c5.128-11.476,4.767-30.948,4.767-30.948Z" transform="translate(-807.763 -245.226)" opacity="0.5" style="isolation: isolate"/>
                <path id="Trazado_129610" data-name="Trazado 129610" d="M719.3,359.892l-7.426-3.711-10.363,4.813v5.736s16.1-.6,16.1-.558,18.146,6.7,24.859,5.671,28.065-34.059,28.065-34.059L759.793,327.36l-20.426,32.289Z" transform="translate(-701.51 -258.763)" fill="#fcc1bb"/>
                <path id="Trazado_129611" data-name="Trazado 129611" d="M836.14,314.026s7.426-14.659,12.156-19.3,12.593-4.011,12.593-4.011,2.784,16.984-11.859,34.663Z" transform="translate(-784.998 -236.019)" fill="#7d6eb2"/>
                <path id="Trazado_129612" data-name="Trazado 129612" d="M833.188,344.86a39.543,39.543,0,0,1,14.336,14l-2.887,2.473s-5.892-8.243-13.257-12.973Z" transform="translate(-782.046 -269.615)" fill="#263238"/>
                <path id="Trazado_129613" data-name="Trazado 129613" d="M833.188,344.86a39.543,39.543,0,0,1,14.336,14l-2.887,2.473s-5.892-8.243-13.257-12.973Z" transform="translate(-782.046 -269.615)" fill="#7d6eb2" opacity="0.2" style="isolation: isolate"/>
                <path id="Trazado_129614" data-name="Trazado 129614" d="M904.84,776.741l4.243,20.551,8.369-1.238-2.017-20Z" transform="translate(-827.601 -537.01)" fill="#fcc1bb"/>
                <path id="Trazado_129615" data-name="Trazado 129615" d="M916.76,789.231l-1.326-13.181-10.595.691,2.648,12.851Z" transform="translate(-827.601 -537.01)" opacity="0.2" style="isolation: isolate"/>
                <path id="Trazado_129616" data-name="Trazado 129616" d="M927.7,531.63s4.258,22.283-10.287,22.283-33.9,4.752-33.9,4.752,5.573,5.288,6.807,72.718l-12.069.52s-20.053-76.111-16.1-84.479c5.573-11.776,34.416-15.795,34.416-15.795Z" transform="translate(-800.813 -385.437)" fill="#12263f"/>
                <path id="Trazado_129617" data-name="Trazado 129617" d="M898.64,785.416l16.418-.406-.532,6.807-13.767.581Z" transform="translate(-823.756 -542.566)" fill="#ccf"/>
                <path id="Trazado_129618" data-name="Trazado 129618" d="M898.64,785.416l16.418-.406-.532,6.807-13.767.581Z" transform="translate(-823.756 -542.566)" fill="#fff" opacity="0.5" style="isolation: isolate"/>
                <path id="Trazado_129619" data-name="Trazado 129619" d="M901.464,832.193a3.8,3.8,0,0,1-2.659-.357.805.805,0,0,1-.087-.9,1.064,1.064,0,0,1,.6-.558c1.4-.57,4.653.794,4.79.855a.209.209,0,0,1,0,.38A15.019,15.019,0,0,1,901.464,832.193Zm-1.6-1.519a1.361,1.361,0,0,0-.38.1.551.551,0,0,0-.38.346.5.5,0,0,0,0,.448c.467.52,2.659.27,4.27-.125a9.907,9.907,0,0,0-3.51-.782Z" transform="translate(-823.742 -570.611)" fill="#ccf"/>
                <path id="Trazado_129620" data-name="Trazado 129620" d="M907.379,827.859h-.087c-1.1-.334-3.419-1.968-3.354-2.971,0-.247.137-.543.707-.68a1.554,1.554,0,0,1,1.238.224,6.006,6.006,0,0,1,1.759,3.206.22.22,0,0,1-.076.2.174.174,0,0,1-.186.023Zm-2.549-3.267h-.125c-.38.072-.38.224-.38.285,0,.593,1.573,1.9,2.724,2.412a4.85,4.85,0,0,0-1.474-2.473,1.048,1.048,0,0,0-.76-.175Z" transform="translate(-827.041 -566.847)" fill="#ccf"/>
                <path id="Trazado_129621" data-name="Trazado 129621" d="M894.928,828.539l9.5-1.14a.76.76,0,0,1,.817.505l2.659,7.529a1.238,1.238,0,0,1-.68,1.615l-.087.03-.262.061c-3.442.38-6.511.535-10.781,1.052-5.041.608-3.715,1.052-9.607,1.846-3.567.482-4.707-3.5-3.206-3.875,6.819-1.709,7.29-3.886,9.656-6.686a3.126,3.126,0,0,1,1.994-.938Z" transform="translate(-813.83 -568.849)" fill="#ccf"/>
                <path id="Trazado_129622" data-name="Trazado 129622" d="M840.38,787.682l7.9,19.164,7.685-1.535-5.284-20.5Z" transform="translate(-787.628 -542.442)" fill="#fcc1bb"/>
                <path id="Trazado_129623" data-name="Trazado 129623" d="M854.192,798.478l-3.514-13.668-10.3,2.872,5.136,12.456Z" transform="translate(-787.628 -542.442)" opacity="0.2" style="isolation: isolate"/>
                <path id="Trazado_129624" data-name="Trazado 129624" d="M862.4,531.611s8.988,23.237-20.711,22.283c-11.377-.38-60.661,11.142-60.661,11.142s8.878,4.642,20.019,66.857l-12.6,2.86s-35.749-70.656-31.8-79.013c5.573-11.776,64.2-24.141,64.2-24.141Z" transform="translate(-735.511 -385.419)" fill="#12263f"/>
                <path id="Trazado_129625" data-name="Trazado 129625" d="M836.82,795.795l14.955-3.195,1.546,6.192-14.336,3.3Z" transform="translate(-785.42 -547.273)" fill="#ccf"/>
                <path id="Trazado_129626" data-name="Trazado 129626" d="M836.82,795.795l14.955-3.195,1.546,6.192-14.336,3.3Z" transform="translate(-785.42 -547.273)" fill="#fff" opacity="0.5" style="isolation: isolate"/>
                <path id="Trazado_129627" data-name="Trazado 129627" d="M844.026,841.93a3.723,3.723,0,0,1-2.636-.361.794.794,0,0,1-.1-.9,1.093,1.093,0,0,1,.593-.558c1.413-.581,4.657.794,4.805.855a.22.22,0,0,1,.122.2.243.243,0,0,1-.148.2A16.378,16.378,0,0,1,844.026,841.93Zm-1.584-1.519a1.41,1.41,0,0,0-.38.1.616.616,0,0,0-.38.331.525.525,0,0,0,0,.46c.482.521,2.659.273,4.27-.125a9.576,9.576,0,0,0-3.51-.786Z" transform="translate(-788.132 -576.644)" fill="#ccf"/>
                <path id="Trazado_129628" data-name="Trazado 129628" d="M849.9,837.6a.114.114,0,0,1-.087,0c-1.09-.334-3.419-1.983-3.343-2.986,0-.236.137-.543.691-.669a1.58,1.58,0,0,1,1.238.213,5.926,5.926,0,0,1,1.759,3.218.194.194,0,0,1-.061.2A.217.217,0,0,1,849.9,837.6Zm-2.553-3.282h-.122c-.38.076-.38.224-.38.285,0,.593,1.573,1.9,2.735,2.412a4.962,4.962,0,0,0-1.485-2.538,1.242,1.242,0,0,0-.76-.171Z" transform="translate(-791.401 -572.885)" fill="#ccf"/>
                <path id="Trazado_129629" data-name="Trazado 129629" d="M837.505,838.282l9.52-1.14a.779.779,0,0,1,.817.505l2.659,7.54a1.238,1.238,0,0,1-.684,1.611l-.1.038h-.266c-3.442.346-6.511.532-10.785,1.037-5.037.608-3.711,1.067-9.592,1.858-3.556.46-4.7-3.529-3.221-3.909,6.838-1.7,7.293-3.875,9.668-6.686A3.038,3.038,0,0,1,837.505,838.282Z" transform="translate(-778.231 -574.892)" fill="#ccf"/>
                <path id="Trazado_129630" data-name="Trazado 129630" d="M988.612,739.371c-7.563-1.239-18.792-3-23.8-3.37-1.086-.083-2.473-.148-3.985-.186V697h-9.5v38.815c-1.519,0-2.895.1-4,.186-4.938.38-16.217,2.131-23.784,3.37A9.026,9.026,0,0,0,916,748.282v1.968h9.273l1.238-2.762s17.333-2.993,23.172-3.419a118.065,118.065,0,0,1,12.916,0c5.842.433,23.172,3.419,23.172,3.419l1.238,2.762h9.223v-1.968a9.022,9.022,0,0,0-7.62-8.912Z" transform="translate(-834.522 -487.988)" fill="#263238"/>
                <path id="Trazado_129631" data-name="Trazado 129631" d="M988.612,739.371c-7.563-1.239-18.792-3-23.8-3.37-1.086-.083-2.473-.148-3.985-.186V697h-9.5v38.815c-1.519,0-2.895.1-4,.186-4.938.38-16.217,2.131-23.784,3.37A9.026,9.026,0,0,0,916,748.282v1.968h9.273l1.238-2.762s17.333-2.993,23.172-3.419a118.065,118.065,0,0,1,12.916,0c5.842.433,23.172,3.419,23.172,3.419l1.238,2.762h9.223v-1.968a9.022,9.022,0,0,0-7.62-8.912Z" transform="translate(-834.522 -487.988)" fill="#fff" opacity="0.1" style="isolation: isolate"/>
                <path id="Trazado_129632" data-name="Trazado 129632" d="M1001.331,613.69h15.195V646.5a4.418,4.418,0,0,1-4.418,4.418h-6.42a4.418,4.418,0,0,1-4.418-4.418h0V613.69Z" transform="translate(-887.4 -436.325)" fill="#263238"/>
                <rect id="Rectángulo_30768" data-name="Rectángulo 30768" width="15.263" height="9.064" transform="translate(113.93 177.365)" opacity="0.2" style="isolation: isolate"/>
                <circle id="Elipse_4353" data-name="Elipse 4353" cx="6.5" cy="6.5" r="6.5" transform="translate(151.279 262.25)" fill="#263238"/>
                <circle id="Elipse_4354" data-name="Elipse 4354" cx="6.5" cy="6.5" r="6.5" transform="translate(78.846 262.25)" fill="#263238"/>
                <path id="Trazado_129633" data-name="Trazado 129633" d="M965.838,586.916a125.932,125.932,0,0,0-27.844-3.837c-9.668-.235-45.8,0-54.469,0a125.919,125.919,0,0,0-31.035,3.837c-6.374,1.622-4.406,10.834,1.349,10.944h110.3C970.157,598.118,972.349,588.576,965.838,586.916Z" transform="translate(-792.682 -417.278)" fill="#ccf"/>
                <path id="Trazado_129634" data-name="Trazado 129634" d="M965.838,586.916a125.932,125.932,0,0,0-27.844-3.837c-9.668-.235-45.8,0-54.469,0a125.919,125.919,0,0,0-31.035,3.837c-6.374,1.622-4.406,10.834,1.349,10.944h110.3C970.157,598.118,972.349,588.576,965.838,586.916Z" transform="translate(-792.682 -417.278)" opacity="0.3" style="isolation: isolate"/>
                <path id="Trazado_129635" data-name="Trazado 129635" d="M855.423,597.762a114.015,114.015,0,0,1,56.221,0c6.959,1.77,9.907-8.976,2.959-10.747a126.3,126.3,0,0,0-62.131,0c-6.944,1.77-4,12.517,2.959,10.747Z" transform="translate(-792.668 -417.377)" fill="#ccf"/>
                <g id="Grupo_55836" data-name="Grupo 55836" transform="translate(55.84 165.758)" opacity="0.4">
                  <path id="Trazado_129636" data-name="Trazado 129636" d="M855.423,597.762a114.015,114.015,0,0,1,56.221,0c6.959,1.77,9.907-8.976,2.959-10.747a126.3,126.3,0,0,0-62.131,0c-6.944,1.77-4,12.517,2.959,10.747Z" transform="translate(-848.509 -583.135)" fill="#fff"/>
                </g>
                <path id="Trazado_129637" data-name="Trazado 129637" d="M1047.917,383.462a3.419,3.419,0,0,0-3.073,1.77,118.834,118.834,0,0,0-14.853,82.075,3.008,3.008,0,0,0,2.86,2.659c2.238.163,41.953,0,43.328,0a4,4,0,0,0,4.087-3.875,3.808,3.808,0,0,0-.053-.76,111.032,111.032,0,0,1,14.139-76.354c1.694-2.822-.805-5.474-3.331-5.523C1089.9,383.436,1050.493,383.512,1047.917,383.462Z" transform="translate(-904.026 -293.547)" fill="#ccf"/>
                <path id="Trazado_129638" data-name="Trazado 129638" d="M1047.917,383.462a3.419,3.419,0,0,0-3.073,1.77,118.834,118.834,0,0,0-14.853,82.075,3.008,3.008,0,0,0,2.86,2.659c2.238.163,41.953,0,43.328,0a4,4,0,0,0,4.087-3.875,3.808,3.808,0,0,0-.053-.76,111.032,111.032,0,0,1,14.139-76.354c1.694-2.822-.805-5.474-3.331-5.523C1089.9,383.436,1050.493,383.512,1047.917,383.462Z" transform="translate(-904.026 -293.547)" opacity="0.2" style="isolation: isolate"/>
                <path id="Trazado_129639" data-name="Trazado 129639" d="M1037.121,465.354A110.922,110.922,0,0,1,1051.26,389c2.473-4.11-3.951-7.848-6.416-3.715a118.845,118.845,0,0,0-14.853,82.078c.854,4.707,8.007,2.712,7.168-1.968Z" transform="translate(-904.026 -293.569)" fill="#ccf"/>
                <g id="Grupo_55837" data-name="Grupo 55837" transform="translate(124.054 89.918)" opacity="0.4">
                  <path id="Trazado_129640" data-name="Trazado 129640" d="M1037.121,465.354A110.922,110.922,0,0,1,1051.26,389c2.473-4.11-3.951-7.848-6.416-3.715a118.845,118.845,0,0,0-14.853,82.078c.854,4.707,8.007,2.712,7.168-1.968Z" transform="translate(-1028.081 -383.487)" fill="#fff"/>
                </g>
                <path id="Trazado_129641" data-name="Trazado 129641" d="M922.406,506.3l38.264,34.971c2.636,2.477,6.6-1.519,3.935-3.935l-38.264-35c-2.636-2.416-6.587,1.519-3.935,3.935Z" transform="translate(-837.95 -366.802)" fill="#263238"/>
                <g id="Grupo_55838" data-name="Grupo 55838" transform="translate(83.578 134.777)" opacity="0.5">
                  <path id="Trazado_129642" data-name="Trazado 129642" d="M922.406,506.3l38.264,34.971c2.636,2.477,6.6-1.519,3.935-3.935l-38.264-35c-2.636-2.416-6.587,1.519-3.935,3.935Z" transform="translate(-921.528 -501.579)" fill="#fff"/>
                </g>
                <path id="Trazado_129643" data-name="Trazado 129643" d="M926.342,502.4c-2.636-2.412-6.587,1.52-3.935,3.939l7.316,6.7h8.243Z" transform="translate(-837.95 -366.842)" opacity="0.2" style="isolation: isolate"/>
                <path id="Trazado_129644" data-name="Trazado 129644" d="M865.442,506.466h52.517c4.775,0,4.775-7.426,0-7.426H865.442C860.663,499.025,860.652,506.466,865.442,506.466Z" transform="translate(-800.944 -365.227)" fill="#ccf"/>
                <g id="Grupo_55839" data-name="Grupo 55839" transform="translate(60.91 133.813)" opacity="0.3">
                  <path id="Trazado_129645" data-name="Trazado 129645" d="M865.442,506.466h52.517c4.775,0,4.775-7.426,0-7.426H865.442C860.663,499.025,860.652,506.466,865.442,506.466Z" transform="translate(-861.854 -499.04)" fill="#fff"/>
                </g>
              </g>
            </g>
          </g>
        </g>
      </g>
    </g>
  </g>
</svg>
