<svg xmlns="http://www.w3.org/2000/svg" width="78.501" height="99.753" viewBox="0 0 78.501 99.753">
  <g id="Grupo_1100058" data-name="Grupo 1100058" transform="translate(-445.999 -5285.637)">
    <g id="Grupo_1100057" data-name="Grupo 1100057">
      <g id="Grupo_1100056" data-name="Grupo 1100056">
        <g id="Grupo_1100055" data-name="Grupo 1100055">
          <g id="Grupo_1100054" data-name="Grupo 1100054">
            <path id="_12068" data-name="12068" d="M72.033,71.913c-8.038-1.11-16.53-.839-23.844,2.675C38.045,79.46,31.382,90.507,31.127,101.757s5.606,22.305,14.66,28.988,21,9.051,32.068,7.045c11.165-2.023,21.645-8.583,27.469-18.322,3.735-6.245,5.48-13.956,3.417-20.934a28.6,28.6,0,0,0-6.787-11.156A50.145,50.145,0,0,0,72.033,71.913Z" transform="translate(414.88 5246.909)" fill="#ffd947"/>
            <g id="merchandise_1_" data-name="merchandise (1)" transform="translate(391.146 5285.637)">
              <g id="Grupo_1099864" data-name="Grupo 1099864" transform="translate(62.089 23.883)">
                <g id="Grupo_1099863" data-name="Grupo 1099863">
                  <path id="Trazado_874026" data-name="Trazado 874026" d="M121.566,144.874H75.357a2.473,2.473,0,0,0-2.464,2.267l-4.533,54.34a2.473,2.473,0,0,0,2.464,2.678H126.1a2.473,2.473,0,0,0,2.464-2.678l-4.533-54.34A2.473,2.473,0,0,0,121.566,144.874Z" transform="translate(-68.351 -144.874)" fill="#7d6eb2"/>
                  <path id="Trazado_874027" data-name="Trazado 874027" d="M374.742,201.482l-4.533-54.34a2.473,2.473,0,0,0-2.464-2.267h-6.594a2.473,2.473,0,0,1,2.464,2.267l4.533,54.34a2.473,2.473,0,0,1-2.464,2.678h6.594A2.473,2.473,0,0,0,374.742,201.482Z" transform="translate(-312.882 -144.874)" fill="#62529b"/>
                  <path id="Trazado_874028" data-name="Trazado 874028" d="M182.369,264.834l-7.029,3.7a1.216,1.216,0,0,1-1.765-1.282l1.342-7.827a1.216,1.216,0,0,0-.35-1.077L168.88,252.8a1.216,1.216,0,0,1,.674-2.075l7.859-1.142a1.216,1.216,0,0,0,.916-.665l3.515-7.121a1.216,1.216,0,0,1,2.181,0l3.515,7.121a1.216,1.216,0,0,0,.916.665l7.859,1.142a1.216,1.216,0,0,1,.674,2.075l-5.687,5.543a1.216,1.216,0,0,0-.35,1.077l1.342,7.827a1.216,1.216,0,0,1-1.765,1.282l-7.029-3.7A1.216,1.216,0,0,0,182.369,264.834Z" transform="translate(-152 -225.253)" fill="#ffe177"/>
                </g>
              </g>
              <g id="Grupo_1099865" data-name="Grupo 1099865" transform="translate(60.853 0)">
                <path id="Trazado_874029" data-name="Trazado 874029" d="M178.17,238.172a1.236,1.236,0,0,0,.874-2.111l-2.08-2.08a1.236,1.236,0,0,0-1.749,1.749l2.08,2.08A1.233,1.233,0,0,0,178.17,238.172Z" transform="translate(-156.061 -195.107)"/>
                <path id="Trazado_874030" data-name="Trazado 874030" d="M311.642,237.81l2.08-2.08a1.236,1.236,0,0,0-1.749-1.749l-2.08,2.08a1.236,1.236,0,0,0,1.749,1.749Z" transform="translate(-268.535 -195.107)"/>
                <path id="Trazado_874031" data-name="Trazado 874031" d="M145.215,358.177a1.237,1.237,0,0,0,1.749,1.749l2.08-2.08A1.237,1.237,0,0,0,147.3,356.1Z" transform="translate(-131.005 -297.09)"/>
                <path id="Trazado_874032" data-name="Trazado 874032" d="M342.848,360.288a1.236,1.236,0,0,0,.874-2.111l-2.08-2.08a1.236,1.236,0,0,0-1.749,1.749l2.08,2.08A1.233,1.233,0,0,0,342.848,360.288Z" transform="translate(-293.591 -297.091)"/>
                <path id="Trazado_874033" data-name="Trazado 874033" d="M162.248,447.621a1.236,1.236,0,1,0,0,2.473h28.846a1.236,1.236,0,1,0,0-2.473Z" transform="translate(-144.5 -373.829)"/>
                <path id="Trazado_874034" data-name="Trazado 874034" d="M161.131,244.909a2.438,2.438,0,0,0,.621,2.514l5.679,5.536-1.341,7.817a2.453,2.453,0,0,0,3.559,2.586l7.02-3.691.775.408a1.236,1.236,0,1,0,1.151-2.189l-.784-.412a2.453,2.453,0,0,0-2.283,0l-6.993,3.676,1.336-7.787a2.454,2.454,0,0,0-.705-2.171l-5.657-5.515,7.818-1.136a2.452,2.452,0,0,0,1.847-1.342l3.5-7.085,3.5,7.085a2.452,2.452,0,0,0,1.847,1.342l7.818,1.137-5.657,5.515a2.453,2.453,0,0,0-.705,2.171l1.335,7.787-1.153-.606a1.236,1.236,0,0,0-1.151,2.189l1.189.625a2.453,2.453,0,0,0,3.559-2.586l-1.341-7.817,5.679-5.536a2.453,2.453,0,0,0-1.359-4.184l-7.848-1.141-3.51-7.112a2.453,2.453,0,0,0-4.4,0l-3.51,7.112-7.848,1.141a2.437,2.437,0,0,0-1.981,1.669Z" transform="translate(-144.498 -195.107)"/>
                <path id="Trazado_874035" data-name="Trazado 874035" d="M125.182,80.388l-4.533-54.34a3.731,3.731,0,0,0-3.7-3.4h-6.89V17.039a17.039,17.039,0,1,0-34.077,0v5.608h-6.89a3.731,3.731,0,0,0-3.7,3.4L62.787,57.36a1.236,1.236,0,0,0,1.129,1.335c.035,0,.07,0,.1,0a1.236,1.236,0,0,0,1.231-1.134l2.612-31.312A1.244,1.244,0,0,1,69.1,25.119H96.657a1.236,1.236,0,1,0,0-2.473h-18.2V17.038a14.566,14.566,0,0,1,29.131,0v5.608h-5.544a1.236,1.236,0,0,0,0,2.473h14.907a1.244,1.244,0,0,1,1.232,1.134l4.533,54.34a1.237,1.237,0,0,1-1.232,1.339H64.562a1.237,1.237,0,0,1-1.232-1.339L64.8,62.954a1.236,1.236,0,0,0-2.464-.206l-1.471,17.64a3.709,3.709,0,0,0,3.7,4.018h56.924a3.709,3.709,0,0,0,3.7-4.018Z" transform="translate(-60.853 0)"/>
              </g>
            </g>
          </g>
        </g>
      </g>
    </g>
  </g>
</svg>
