<svg xmlns="http://www.w3.org/2000/svg" width="138.973" height="157.465" viewBox="0 0 138.973 157.465">
  <g id="Grupo_1099917" data-name="Grupo 1099917" transform="translate(11669.812 12097.474)">
    <g id="Grupo_1099916" data-name="Grupo 1099916">
      <g id="Grupo_1099915" data-name="Grupo 1099915">
        <g id="Grupo_1099914" data-name="Grupo 1099914">
          <g id="Grupo_1099913" data-name="Grupo 1099913">
            <g id="Grupo_1099912" data-name="Grupo 1099912">
              <g id="Grupo_1099911" data-name="Grupo 1099911">
                <g id="Grupo_1099277" data-name="Grupo 1099277" transform="translate(-11998.612 -12157.57)">
                  <g id="Grupo_1098979" data-name="Grupo 1098979">
                    <path id="Trazado_873099" data-name="Trazado 873099" d="M471.528,81.862c-.311-7.11-6.1-12.939-13.59-13.647a550.829,550.829,0,0,0-90.6-.789c-7.51.519-13.5,6.164-14.014,13.268q-.959,13.15-1.517,26.408a45,45,0,0,0-12.917,9.6l12.543.375c-.833,26.57-.487,53.544,1.06,81.189.388,6.927,6,12.606,13.279,13.43,29.7,3.358,59.984,4.108,92.455.385a14.629,14.629,0,0,0,13.228-13.593Q474.073,140.211,471.528,81.862Z" transform="translate(-10.089 3)" fill="#7d6eb2" opacity="0.15" style="mix-blend-mode: multiply;isolation: isolate"/>
                    <path id="Trazado_873100" data-name="Trazado 873100" d="M465.768,76.749c-.311-7.11-6.1-12.938-13.59-13.647a550.938,550.938,0,0,0-90.6-.788c-7.51.518-13.5,6.163-14.014,13.267q-.959,13.152-1.517,26.408a45.027,45.027,0,0,0-12.917,9.6l12.543.375c-.833,26.57-.488,53.543,1.06,81.188.388,6.927,6,12.607,13.279,13.43,29.7,3.359,59.984,4.108,92.455.385A14.629,14.629,0,0,0,465.7,193.377Q468.312,135.1,465.768,76.749Z" fill="#fff"/>
                    <path id="Trazado_873101" data-name="Trazado 873101" d="M465.768,76.749c-.311-7.11-6.1-12.938-13.59-13.647a550.938,550.938,0,0,0-90.6-.788c-7.51.518-13.5,6.163-14.014,13.267q-.959,13.152-1.517,26.408a45.027,45.027,0,0,0-12.917,9.6l12.543.375c-.833,26.57-.488,53.543,1.06,81.188.388,6.927,6,12.607,13.279,13.43,29.7,3.359,59.984,4.108,92.455.385A14.629,14.629,0,0,0,465.7,193.377Q468.312,135.1,465.768,76.749Z" fill="none" stroke="#7d6eb2" stroke-linecap="round" stroke-linejoin="round" stroke-width="1.5"/>
                  </g>
                </g>
                <g id="news" transform="translate(-11610.422 -12084.43) rotate(22)">
                  <path id="Trazado_873322" data-name="Trazado 873322" d="M190.692,67.843a1.268,1.268,0,0,1-1.133-.7L182.022,52.09a1.268,1.268,0,0,1,2.267-1.135l6.4,12.79,6.4-12.79a1.267,1.267,0,1,1,2.266,1.135l-7.537,15.052A1.269,1.269,0,0,1,190.692,67.843Zm0,0" transform="translate(-151.157 -41.758)" fill="#fedb41"/>
                  <path id="Trazado_873323" data-name="Trazado 873323" d="M80.76,152.267V196.7a5.482,5.482,0,0,1-5.582,5.376H5.582A5.483,5.483,0,0,1,0,196.7v-44.43a5.483,5.483,0,0,1,5.582-5.376h69.6A5.482,5.482,0,0,1,80.76,152.267ZM69.6,171.441a5.29,5.29,0,1,0-5.489-5.286A5.389,5.389,0,0,0,69.6,171.441Zm-11.163,24.9V153.432H6.513v42.906Zm0,0" transform="translate(0 -122.073)" fill="#00acea"/>
                  <path id="Trazado_873324" data-name="Trazado 873324" d="M390.418,234.908a5.492,5.492,0,1,1-5.488-5.286A5.39,5.39,0,0,1,390.418,234.908Zm0,0" transform="translate(-315.333 -190.826)" fill="#00efd1"/>
                  <path id="Trazado_873325" data-name="Trazado 873325" d="M90.472,185.609v42.906H38.551V185.609Zm-14.226,36.3v-5.76H70.488v5.76Zm0-10.137v-5.76H70.488v5.76Zm0-10.137v-5.76H70.488v5.76Zm0,0" transform="translate(-32.037 -154.25)" fill="#00efd1"/>
                  <path id="Trazado_873326" data-name="Trazado 873326" d="M227.578,366.379h5.758v5.76h-5.758Zm0,0" transform="translate(-189.128 -304.478)" fill="#fedb41"/>
                  <path id="Trazado_873327" data-name="Trazado 873327" d="M227.578,306.379h5.758v5.76h-5.758Zm0,0" transform="translate(-189.128 -254.615)" fill="#fedb41"/>
                  <path id="Trazado_873328" data-name="Trazado 873328" d="M227.578,246.379h5.758v5.76h-5.758Zm0,0" transform="translate(-189.128 -204.752)" fill="#fedb41"/>
                  <path id="Trazado_873329" data-name="Trazado 873329" d="M134.321,347.23h3.444A4.775,4.775,0,0,1,142.54,352v4.221H130.488v-6.609Zm0,0" transform="translate(-108.442 -288.564)" fill="#f4b844"/>
                  <path id="Trazado_873330" data-name="Trazado 873330" d="M122.318,225.305h-9.691c-.048,0-.093,0-.141,0a2.387,2.387,0,0,1-1.548-4.07,1.924,1.924,0,0,1,.225-.2,2.361,2.361,0,0,1,1.463-.5h4.916A4.775,4.775,0,0,1,122.318,225.305Zm0,0" transform="translate(-91.614 -183.271)" fill="#405054"/>
                  <path id="Trazado_873331" data-name="Trazado 873331" d="M99.7,261.71a6.781,6.781,0,0,1-7.485.183,7.2,7.2,0,0,1-3.386-6.088v-4.2a6.537,6.537,0,0,0,5.865-2.835v0c.048,0,.093,0,.141,0h7.973v7.039a7.184,7.184,0,0,1-2.047,5.01A7.105,7.105,0,0,1,99.7,261.71Zm0,0" transform="translate(-73.82 -206.732)" fill="#f7caa5"/>
                  <path id="Trazado_873332" data-name="Trazado 873332" d="M116.356,329.026v.061l-3.832,2.386-3.652-2.386v-3.506a6.781,6.781,0,0,0,7.485-.183Zm0,0" transform="translate(-90.477 -270.421)" fill="#edb288"/>
                  <path id="Trazado_873333" data-name="Trazado 873333" d="M94.693,227.742v0a6.537,6.537,0,0,1-5.865,2.835v-.568a7,7,0,0,1,4.537-6.546l.005.007a1.921,1.921,0,0,0-.225.2,2.387,2.387,0,0,0,1.548,4.07Zm0,0" transform="translate(-73.82 -185.713)" fill="#4b5d63"/>
                  <path id="Trazado_873334" data-name="Trazado 873334" d="M383.821,399.593H372.658a1.267,1.267,0,1,1,0-2.534h11.163a1.267,1.267,0,0,1,0,2.534Zm0,0" transform="translate(-308.642 -329.974)" fill="#00efd1"/>
                  <path id="Trazado_873335" data-name="Trazado 873335" d="M383.821,336.554H372.658a1.267,1.267,0,1,1,0-2.534h11.163a1.267,1.267,0,0,1,0,2.534Zm0,0" transform="translate(-308.642 -277.585)" fill="#00efd1"/>
                  <g id="Grupo_1099267" data-name="Grupo 1099267" transform="translate(46.222 41.289)">
                    <path id="Trazado_873336" data-name="Trazado 873336" d="M278.154,247.082H274.93a1.352,1.352,0,1,1,0-2.7h3.224a1.352,1.352,0,0,1,0,2.7Zm0,0" transform="translate(-273.578 -244.379)" fill="#fedb41"/>
                    <path id="Trazado_873337" data-name="Trazado 873337" d="M282.378,268.172H274.93a1.352,1.352,0,1,1,0-2.7h7.448a1.352,1.352,0,1,1,0,2.7Zm0,0" transform="translate(-273.578 -261.906)" fill="#fedb41"/>
                    <path id="Trazado_873338" data-name="Trazado 873338" d="M278.154,307.082H274.93a1.352,1.352,0,1,1,0-2.7h3.224a1.352,1.352,0,0,1,0,2.7Zm0,0" transform="translate(-273.578 -294.242)" fill="#fedb41"/>
                    <path id="Trazado_873339" data-name="Trazado 873339" d="M282.378,328.172H274.93a1.352,1.352,0,1,1,0-2.7h7.448a1.352,1.352,0,1,1,0,2.7Zm0,0" transform="translate(-273.578 -311.768)" fill="#fedb41"/>
                    <path id="Trazado_873340" data-name="Trazado 873340" d="M278.154,367.082H274.93a1.352,1.352,0,1,1,0-2.7h3.224a1.352,1.352,0,0,1,0,2.7Zm0,0" transform="translate(-273.578 -344.104)" fill="#fedb41"/>
                    <path id="Trazado_873341" data-name="Trazado 873341" d="M282.378,388.172H274.93a1.352,1.352,0,1,1,0-2.7h7.448a1.352,1.352,0,1,1,0,2.7Zm0,0" transform="translate(-273.578 -361.631)" fill="#fedb41"/>
                  </g>
                  <path id="Trazado_873342" data-name="Trazado 873342" d="M261.9,0a5.765,5.765,0,0,0-5.841,5.673,5.844,5.844,0,0,0,11.684,0A5.767,5.767,0,0,0,261.9,0Zm0,0" transform="translate(-212.796)" fill="#00efd1"/>
                  <path id="Trazado_873343" data-name="Trazado 873343" d="M147.642,1A5.765,5.765,0,0,0,141.8,6.673a5.843,5.843,0,0,0,11.682,0A5.766,5.766,0,0,0,147.642,1Zm0,0" transform="translate(-117.843 -0.831)" fill="#00efd1"/>
                  <path id="Trazado_873344" data-name="Trazado 873344" d="M68.539,347.23l3.652,2.386v6.609H60.34V352a4.775,4.775,0,0,1,4.773-4.774Zm0,0" transform="translate(-50.145 -288.564)" fill="#fedb41"/>
                </g>
              </g>
            </g>
          </g>
        </g>
      </g>
    </g>
  </g>
</svg>
