<svg xmlns="http://www.w3.org/2000/svg" width="106.87" height="89.548" viewBox="0 0 106.87 89.548">
  <g id="Grupo_1099922" data-name="Grupo 1099922" transform="translate(11869.055 11940.751)">
    <g id="Grupo_1099921" data-name="Grupo 1099921">
      <g id="Grupo_1099920" data-name="Grupo 1099920">
        <g id="Grupo_1099919" data-name="Grupo 1099919">
          <g id="Grupo_1099918" data-name="Grupo 1099918">
            <g id="Grupo_1099275" data-name="Grupo 1099275" transform="translate(-11907.335 -12000.363)">
              <path id="Trazado_873094" data-name="Trazado 873094" d="M145.112,133.1c.2-18.392-.4-36.8-1.8-55.111-.469-6.13-4.647-10.9-9.731-11.133a491.479,491.479,0,0,0-76.435,2.884c-5.077.558-9.011,5.575-9.263,11.735-.722,17.691-.807,35.993-.394,55.42.14,6.594,4.533,11.882,9.984,12.039a494.363,494.363,0,0,0,78.492-3.788C141.09,144.485,145.043,139.333,145.112,133.1Z" fill="#7d6eb2" opacity="0.15" style="mix-blend-mode: multiply;isolation: isolate"/>
              <path id="Trazado_873095" data-name="Trazado 873095" d="M136.9,127.035c.2-18.391-.4-36.8-1.8-55.11-.469-6.13-4.647-10.9-9.732-11.134a491.468,491.468,0,0,0-76.434,2.884c-5.077.559-9.011,5.576-9.263,11.736-.722,17.691-.807,35.992-.394,55.419.139,6.6,4.533,11.882,9.983,12.04a494.373,494.373,0,0,0,78.493-3.788C132.875,138.421,136.827,133.27,136.9,127.035Z" fill="#fff"/>
              <path id="Trazado_873096" data-name="Trazado 873096" d="M136.9,127.035c.2-18.391-.4-36.8-1.8-55.11-.469-6.13-4.647-10.9-9.732-11.134a491.468,491.468,0,0,0-76.434,2.884c-5.077.559-9.011,5.576-9.263,11.736-.722,17.691-.807,35.992-.394,55.419.139,6.6,4.533,11.882,9.983,12.04a494.373,494.373,0,0,0,78.493-3.788C132.875,138.421,136.827,133.27,136.9,127.035Z" fill="none" stroke="#7d6eb2" stroke-linecap="round" stroke-linejoin="round" stroke-width="1.5"/>
            </g>
            <g id="share" transform="translate(-11850.524 -11927.607)">
              <path id="Trazado_873363" data-name="Trazado 873363" d="M54,54H6a4,4,0,0,1-4-4V6A4,4,0,0,1,6,2H50a4,4,0,0,1,4,4Z" fill="#474747"/>
              <path id="Trazado_873364" data-name="Trazado 873364" d="M45,45V2H6A4,4,0,0,0,2,6V45Z" fill="#686868"/>
              <path id="Trazado_873365" data-name="Trazado 873365" d="M50,50H8a2,2,0,0,1-2-2V8A2,2,0,0,1,8,6H48a2,2,0,0,1,2,2Z" fill="#e2e7f6"/>
              <path id="Trazado_873366" data-name="Trazado 873366" d="M45,45V6H8A2,2,0,0,0,6,8V45Z" fill="#f2f2f2"/>
              <circle id="Elipse_11541" data-name="Elipse 11541" cx="13" cy="13" r="13" transform="translate(36 36)" fill="#5e87ca"/>
              <path id="Trazado_873367" data-name="Trazado 873367" d="M59,48a12.988,12.988,0,0,0-7.463-11.748,12.991,12.991,0,0,0-8.074,24.5A12.991,12.991,0,0,0,59,48Z" fill="#78a0d4"/>
              <path id="Trazado_873368" data-name="Trazado 873368" d="M43.648,45.286h8.7v2h-8.7Z" transform="matrix(0.919, -0.394, 0.394, 0.919, -14.346, 22.635)" fill="#fff"/>
              <path id="Trazado_873369" data-name="Trazado 873369" d="M47,47.362h2v8.7H47Z" transform="matrix(0.394, -0.919, 0.919, 0.394, -18.441, 75.461)" fill="#fff"/>
              <g id="Grupo_1099270" data-name="Grupo 1099270">
                <path id="Trazado_873370" data-name="Trazado 873370" d="M40.6,11.174a1,1,0,0,0-.874-.166l-18,5.029A1,1,0,0,0,21,17V34.026A4.948,4.948,0,0,0,18,33a5,5,0,1,0,5,5V23.759l16-4.471v9.738A4.948,4.948,0,0,0,36,28a5,5,0,1,0,5,5V11.971a1,1,0,0,0-.4-.8ZM18,41a3,3,0,1,1,3-3A3,3,0,0,1,18,41Zm5-19.318V17.759l16-4.47v3.923ZM36,36a3,3,0,1,1,3-3A3,3,0,0,1,36,36Z" fill="#686868"/>
                <circle id="Elipse_11542" data-name="Elipse 11542" cx="2" cy="2" r="2" transform="translate(41 47)" fill="#686868"/>
                <circle id="Elipse_11543" data-name="Elipse 11543" cx="2" cy="2" r="2" transform="translate(51 42)" fill="#686868"/>
                <circle id="Elipse_11544" data-name="Elipse 11544" cx="2" cy="2" r="2" transform="translate(51 52)" fill="#686868"/>
              </g>
            </g>
          </g>
        </g>
      </g>
    </g>
  </g>
</svg>
