<svg xmlns="http://www.w3.org/2000/svg" width="108.067" height="89.548" viewBox="0 0 108.067 89.548">
  <g id="Grupo_1099927" data-name="Grupo 1099927" transform="translate(11652.067 11926.35)">
    <g id="Grupo_1099926" data-name="Grupo 1099926">
      <g id="Grupo_1099925" data-name="Grupo 1099925">
        <g id="Grupo_1099924" data-name="Grupo 1099924">
          <g id="Grupo_1099923" data-name="Grupo 1099923">
            <g id="Grupo_1099276" data-name="Grupo 1099276" transform="translate(-11690.348 -11985.962)">
              <path id="Trazado_873094" data-name="Trazado 873094" d="M146.308,133.1c.207-18.392-.4-36.8-1.821-55.111-.475-6.13-4.7-10.9-9.85-11.133a503.525,503.525,0,0,0-77.37,2.884c-5.139.558-9.122,5.575-9.376,11.735-.73,17.691-.817,35.993-.4,55.42.141,6.594,4.588,11.882,10.106,12.039a506.464,506.464,0,0,0,79.452-3.788C142.237,144.485,146.239,139.333,146.308,133.1Z" fill="#7d6eb2" opacity="0.15" style="mix-blend-mode: multiply;isolation: isolate"/>
              <path id="Trazado_873095" data-name="Trazado 873095" d="M138.093,127.035c.206-18.391-.4-36.8-1.821-55.11-.475-6.13-4.7-10.9-9.851-11.134a503.514,503.514,0,0,0-77.369,2.884c-5.139.559-9.122,5.576-9.376,11.736-.73,17.691-.817,35.992-.4,55.419.141,6.6,4.588,11.882,10.105,12.04a506.474,506.474,0,0,0,79.453-3.788C134.022,138.421,138.023,133.27,138.093,127.035Z" fill="#fff"/>
              <path id="Trazado_873096" data-name="Trazado 873096" d="M138.093,127.035c.206-18.391-.4-36.8-1.821-55.11-.475-6.13-4.7-10.9-9.851-11.134a503.514,503.514,0,0,0-77.369,2.884c-5.139.559-9.122,5.576-9.376,11.736-.73,17.691-.817,35.992-.4,55.419.141,6.6,4.588,11.882,10.105,12.04a506.474,506.474,0,0,0,79.453-3.788C134.022,138.421,138.023,133.27,138.093,127.035Z" fill="none" stroke="#7d6eb2" stroke-linecap="round" stroke-linejoin="round" stroke-width="1.5"/>
            </g>
            <g id="Radio" transform="translate(-11633.19 -11913.837)">
              <path id="Trazado_873359" data-name="Trazado 873359" d="M31.99,16.868a2.124,2.124,0,0,1-1.232-.4L15.891,5.853A2.125,2.125,0,1,1,18.361,2.4L33.228,13.015a2.124,2.124,0,0,1-1.238,3.853Z" transform="translate(14.611 0)" fill="#2d4a60"/>
              <path id="Trazado_873360" data-name="Trazado 873360" d="M50.849,49.477H12.619A10.632,10.632,0,0,1,2,38.858V17.619A10.632,10.632,0,0,1,12.619,7h38.23A10.632,10.632,0,0,1,61.468,17.619V38.858A10.632,10.632,0,0,1,50.849,49.477Z" transform="translate(0 5.62)" fill="#009ae0"/>
              <circle id="Elipse_11539" data-name="Elipse 11539" cx="10.619" cy="10.619" r="10.619" transform="translate(31.734 23.239)" fill="#eaeff0"/>
              <circle id="Elipse_11540" data-name="Elipse 11540" cx="4.248" cy="4.248" r="4.248" transform="translate(38.106 29.611)" fill="#d0d6d6"/>
              <g id="Grupo_1099269" data-name="Grupo 1099269" transform="translate(10.495 27.487)">
                <path id="Trazado_873361" data-name="Trazado 873361" d="M20.867,18.248H8.124a2.124,2.124,0,1,1,0-4.248H20.867a2.124,2.124,0,1,1,0,4.248Z" transform="translate(-6 -14)" fill="#eaeff0"/>
                <path id="Trazado_873362" data-name="Trazado 873362" d="M20.867,22.248H8.124a2.124,2.124,0,1,1,0-4.248H20.867a2.124,2.124,0,1,1,0,4.248Z" transform="translate(-6 -9.505)" fill="#eaeff0"/>
              </g>
            </g>
          </g>
        </g>
      </g>
    </g>
  </g>
</svg>
