<svg xmlns="http://www.w3.org/2000/svg" width="239.62" height="33.402" viewBox="0 0 239.62 33.402">
  <g id="Grupo_55604" data-name="Grupo 55604" transform="translate(877.197 488.213)">
    <g id="Grupo_55597" data-name="Grupo 55597" transform="translate(-877.197 -478.223)">
      <path id="Trazado_125915" data-name="Trazado 125915" d="M-868.692-427.722a4.094,4.094,0,0,1-1.291,2.762A4.269,4.269,0,0,1-872.9-424a4.029,4.029,0,0,1-2.248-.635,4.142,4.142,0,0,1-1.51-1.8,6.411,6.411,0,0,1-.541-2.664v-1.483a6.471,6.471,0,0,1,.534-2.7,4.1,4.1,0,0,1,1.534-1.816,4.182,4.182,0,0,1,2.3-.639,4.09,4.09,0,0,1,2.9.989,4.143,4.143,0,0,1,1.236,2.738h-.973a2.908,2.908,0,0,0-3.162-2.911,3,3,0,0,0-2.475,1.162,5.039,5.039,0,0,0-.922,3.211v1.4a5.077,5.077,0,0,0,.9,3.157,2.894,2.894,0,0,0,2.428,1.178,3.212,3.212,0,0,0,2.283-.726,3.479,3.479,0,0,0,.949-2.177Z" transform="translate(877.197 435.741)" fill="#12263f"/>
      <path id="Trazado_125916" data-name="Trazado 125916" d="M-819.236-428.145v4.653h-.965v-11.424h3.892a4.1,4.1,0,0,1,2.813.91,3.165,3.165,0,0,1,1.032,2.5,3.136,3.136,0,0,1-.993,2.483,4.221,4.221,0,0,1-2.876.875Zm0-.816h2.927a3.087,3.087,0,0,0,2.142-.668,2.384,2.384,0,0,0,.738-1.862,2.5,2.5,0,0,0-.734-1.89,2.943,2.943,0,0,0-2.083-.719h-2.989Z" transform="translate(831.052 435.074)" fill="#12263f"/>
      <path id="Trazado_125917" data-name="Trazado 125917" d="M-766.953-434.917l4.213,10.083,4.229-10.083h1.287v11.424h-.965v-4.974l.078-5.1-4.253,10.075h-.745l-4.237-10.035.078,5.029v5.006h-.965v-11.424Z" transform="translate(788.977 435.074)" fill="#12263f"/>
      <path id="Trazado_125918" data-name="Trazado 125918" d="M-669.579-412.613h-6.544v-.832h6.544Zm0,3.225h-6.544v-.832h6.544Z" transform="translate(714.405 417.69)" fill="#12263f"/>
    </g>
    <g id="Grupo_55598" data-name="Grupo 55598" transform="translate(-682.755 -477.747)">
      <path id="Trazado_125919" data-name="Trazado 125919" d="M146.7-428.843l-2.6-.846.251-.792,2.6.964-.031-2.9h.816l-.063,2.924,2.542-1,.259.792-2.613.9,1.75,2.307-.667.494-1.679-2.393-1.6,2.377-.667-.479Z" transform="translate(-144.1 432.574)" fill="#12263f"/>
      <path id="Trazado_125920" data-name="Trazado 125920" d="M210.626-421.16h-.941v-10.294l-3.107,1.153v-.879l3.892-1.444h.157Z" transform="translate(-194.682 432.741)" fill="#12263f"/>
      <path id="Trazado_125921" data-name="Trazado 125921" d="M257.984-426.422a6.322,6.322,0,0,1-.887,3.668,3,3,0,0,1-2.613,1.251,3.026,3.026,0,0,1-2.6-1.228,6.089,6.089,0,0,1-.926-3.574v-2.048a6.206,6.206,0,0,1,.894-3.648,3.02,3.02,0,0,1,2.613-1.24,3.035,3.035,0,0,1,2.589,1.2,5.981,5.981,0,0,1,.926,3.527Zm-.942-2.048a5.577,5.577,0,0,0-.639-2.966,2.139,2.139,0,0,0-1.934-1,2.14,2.14,0,0,0-1.915.981,5.4,5.4,0,0,0-.659,2.9v2.244a5.566,5.566,0,0,0,.663,2.99,2.148,2.148,0,0,0,1.926,1.036,2.117,2.117,0,0,0,1.9-1.012,5.587,5.587,0,0,0,.655-2.966Z" transform="translate(-230.617 433.241)" fill="#12263f"/>
      <path id="Trazado_125922" data-name="Trazado 125922" d="M304.76-426.422a6.323,6.323,0,0,1-.887,3.668,3,3,0,0,1-2.613,1.251,3.026,3.026,0,0,1-2.6-1.228,6.087,6.087,0,0,1-.926-3.574v-2.048a6.206,6.206,0,0,1,.894-3.648,3.02,3.02,0,0,1,2.613-1.24,3.035,3.035,0,0,1,2.589,1.2,5.981,5.981,0,0,1,.926,3.527Zm-.942-2.048a5.575,5.575,0,0,0-.639-2.966,2.138,2.138,0,0,0-1.934-1,2.14,2.14,0,0,0-1.915.981,5.4,5.4,0,0,0-.659,2.9v2.244a5.566,5.566,0,0,0,.663,2.99,2.148,2.148,0,0,0,1.926,1.036,2.117,2.117,0,0,0,1.9-1.012,5.589,5.589,0,0,0,.655-2.966Z" transform="translate(-268.487 433.241)" fill="#12263f"/>
      <path id="Trazado_125923" data-name="Trazado 125923" d="M351.535-426.422a6.322,6.322,0,0,1-.887,3.668,3,3,0,0,1-2.613,1.251,3.026,3.026,0,0,1-2.6-1.228,6.087,6.087,0,0,1-.926-3.574v-2.048a6.207,6.207,0,0,1,.894-3.648,3.02,3.02,0,0,1,2.613-1.24,3.035,3.035,0,0,1,2.589,1.2,5.981,5.981,0,0,1,.926,3.527Zm-.941-2.048a5.577,5.577,0,0,0-.639-2.966,2.139,2.139,0,0,0-1.934-1,2.14,2.14,0,0,0-1.914.981,5.394,5.394,0,0,0-.659,2.9v2.244a5.566,5.566,0,0,0,.663,2.99,2.148,2.148,0,0,0,1.926,1.036,2.116,2.116,0,0,0,1.9-1.012,5.589,5.589,0,0,0,.655-2.966Z" transform="translate(-306.357 433.241)" fill="#12263f"/>
    </g>
    <g id="Grupo_55599" data-name="Grupo 55599" transform="translate(-816.346 -488.213)">
      <path id="Trazado_125924" data-name="Trazado 125924" d="M-553.955-462.316a2.479,2.479,0,0,0,1.644-.553,1.947,1.947,0,0,0,.718-1.432h.9a2.659,2.659,0,0,1-.486,1.416,3.048,3.048,0,0,1-1.189,1,3.585,3.585,0,0,1-1.589.361,3.279,3.279,0,0,1-2.648-1.161,4.694,4.694,0,0,1-.977-3.123v-.283a5.306,5.306,0,0,1,.439-2.22,3.385,3.385,0,0,1,1.259-1.491,3.478,3.478,0,0,1,1.919-.526,3.274,3.274,0,0,1,2.3.832,3.033,3.033,0,0,1,.969,2.189h-.9a2.31,2.31,0,0,0-.718-1.608,2.325,2.325,0,0,0-1.652-.612,2.341,2.341,0,0,0-1.973.918,4.154,4.154,0,0,0-.7,2.574v.275a4.061,4.061,0,0,0,.7,2.534A2.357,2.357,0,0,0-553.955-462.316Z" transform="translate(557.58 473.732)" fill="#12263f"/>
      <path id="Trazado_125925" data-name="Trazado 125925" d="M-514.267-466.051a4.993,4.993,0,0,1,.475-2.2,3.618,3.618,0,0,1,1.342-1.526,3.614,3.614,0,0,1,1.966-.545,3.493,3.493,0,0,1,2.746,1.189,4.582,4.582,0,0,1,1.052,3.15v.2a5.041,5.041,0,0,1-.475,2.217,3.545,3.545,0,0,1-1.338,1.518,3.667,3.667,0,0,1-1.969.533,3.5,3.5,0,0,1-2.742-1.189,4.57,4.57,0,0,1-1.055-3.15Zm.942.259a3.852,3.852,0,0,0,.789,2.5,2.529,2.529,0,0,0,2.067.977,2.521,2.521,0,0,0,2.06-.977,3.979,3.979,0,0,0,.789-2.577v-.18a4.318,4.318,0,0,0-.361-1.781,2.9,2.9,0,0,0-1.012-1.251,2.587,2.587,0,0,0-1.491-.443,2.51,2.51,0,0,0-2.048.985,3.985,3.985,0,0,0-.792,2.577Z" transform="translate(522.513 473.732)" fill="#12263f"/>
      <path id="Trazado_125926" data-name="Trazado 125926" d="M-461.026-463.838a1.338,1.338,0,0,0-.561-1.122,4.33,4.33,0,0,0-1.691-.663,7.628,7.628,0,0,1-1.754-.549,2.335,2.335,0,0,1-.926-.757,1.888,1.888,0,0,1-.3-1.083,2.02,2.02,0,0,1,.84-1.659,3.391,3.391,0,0,1,2.15-.655,3.491,3.491,0,0,1,2.279.7,2.254,2.254,0,0,1,.859,1.832h-.942a1.52,1.52,0,0,0-.624-1.24,2.454,2.454,0,0,0-1.573-.494,2.456,2.456,0,0,0-1.487.412,1.271,1.271,0,0,0-.561,1.071,1.158,1.158,0,0,0,.467.985,4.935,4.935,0,0,0,1.7.64,8,8,0,0,1,1.852.62,2.4,2.4,0,0,1,.914.792,2.029,2.029,0,0,1,.3,1.122,2.033,2.033,0,0,1-.867,1.718,3.7,3.7,0,0,1-2.264.643,3.8,3.8,0,0,1-2.4-.718,2.209,2.209,0,0,1-.922-1.816h.941a1.632,1.632,0,0,0,.694,1.283,2.837,2.837,0,0,0,1.691.459,2.667,2.667,0,0,0,1.585-.432A1.294,1.294,0,0,0-461.026-463.838Z" transform="translate(483.874 473.732)" fill="#12263f"/>
      <path id="Trazado_125927" data-name="Trazado 125927" d="M-424.517-480.919v2.173h1.757v.769h-1.757v5.663a1.771,1.771,0,0,0,.255,1.053.988.988,0,0,0,.851.346,5.837,5.837,0,0,0,.761-.078l.039.762a3.068,3.068,0,0,1-1,.132,1.674,1.674,0,0,1-1.4-.561,2.64,2.64,0,0,1-.439-1.652v-5.665h-1.561v-.769h1.561v-2.173Z" transform="translate(451.877 482.308)" fill="#12263f"/>
      <path id="Trazado_125928" data-name="Trazado 125928" d="M-397.966-466.051a4.993,4.993,0,0,1,.475-2.2,3.619,3.619,0,0,1,1.342-1.526,3.615,3.615,0,0,1,1.966-.545,3.492,3.492,0,0,1,2.746,1.189,4.582,4.582,0,0,1,1.052,3.15v.2a5.04,5.04,0,0,1-.475,2.217,3.544,3.544,0,0,1-1.338,1.518,3.667,3.667,0,0,1-1.969.533,3.5,3.5,0,0,1-2.742-1.189,4.569,4.569,0,0,1-1.055-3.15Zm.941.259a3.852,3.852,0,0,0,.789,2.5,2.529,2.529,0,0,0,2.068.977,2.521,2.521,0,0,0,2.059-.977,3.978,3.978,0,0,0,.789-2.577v-.18a4.321,4.321,0,0,0-.361-1.781,2.9,2.9,0,0,0-1.012-1.251,2.587,2.587,0,0,0-1.491-.443,2.509,2.509,0,0,0-2.048.985,3.984,3.984,0,0,0-.793,2.577Z" transform="translate(428.354 473.732)" fill="#12263f"/>
      <path id="Trazado_125929" data-name="Trazado 125929" d="M-329.431-480.485a5.117,5.117,0,0,1,.883-3.15,2.841,2.841,0,0,1,2.4-1.173,2.952,2.952,0,0,1,2.621,1.357v-4.763h.934v12.052h-.879l-.039-1.13A3.033,3.033,0,0,1-326.167-476a2.83,2.83,0,0,1-2.366-1.181,5.143,5.143,0,0,1-.9-3.19Zm.949.165a4.427,4.427,0,0,0,.651,2.562,2.106,2.106,0,0,0,1.836.937,2.527,2.527,0,0,0,2.464-1.53v-3.986a2.508,2.508,0,0,0-2.448-1.656,2.132,2.132,0,0,0-1.844.93A4.731,4.731,0,0,0-328.482-480.32Z" transform="translate(372.868 488.213)" fill="#12263f"/>
      <path id="Trazado_125930" data-name="Trazado 125930" d="M-279.468-461.524a3.684,3.684,0,0,1-1.958-.533,3.633,3.633,0,0,1-1.361-1.487,4.634,4.634,0,0,1-.486-2.138v-.337a4.993,4.993,0,0,1,.475-2.2,3.777,3.777,0,0,1,1.322-1.542,3.261,3.261,0,0,1,1.836-.561,3.066,3.066,0,0,1,2.452,1.055,4.281,4.281,0,0,1,.906,2.883v.526h-6.057v.181a3.554,3.554,0,0,0,.828,2.4,2.633,2.633,0,0,0,2.083.961,3.058,3.058,0,0,0,1.33-.275,2.951,2.951,0,0,0,1.048-.879l.588.447A3.426,3.426,0,0,1-279.468-461.524Zm-.172-8a2.347,2.347,0,0,0-1.785.777,3.588,3.588,0,0,0-.883,2.087h5.092v-.1a3.118,3.118,0,0,0-.7-1.993A2.165,2.165,0,0,0-279.64-469.527Z" transform="translate(335.498 473.732)" fill="#12263f"/>
      <path id="Trazado_125931" data-name="Trazado 125931" d="M-235.432-476.161h-.942v-12.052h.942Z" transform="translate(297.527 488.213)" fill="#12263f"/>
      <path id="Trazado_125932" data-name="Trazado 125932" d="M-194.021-461.681a4.44,4.44,0,0,1-.18-1.185,3.274,3.274,0,0,1-1.259.993,3.859,3.859,0,0,1-1.62.349,2.846,2.846,0,0,1-1.981-.683,2.223,2.223,0,0,1-.757-1.726,2.272,2.272,0,0,1,1.032-1.962,4.958,4.958,0,0,1,2.876-.722h1.7v-.965a1.86,1.86,0,0,0-.561-1.432,2.319,2.319,0,0,0-1.636-.522,2.56,2.56,0,0,0-1.624.5,1.492,1.492,0,0,0-.643,1.208l-.941-.008a2.183,2.183,0,0,1,.941-1.754,3.626,3.626,0,0,1,2.315-.741,3.308,3.308,0,0,1,2.24.71,2.548,2.548,0,0,1,.843,1.981v4.017a4.981,4.981,0,0,0,.259,1.844v.094Zm-2.95-.675a3.153,3.153,0,0,0,1.683-.455,2.678,2.678,0,0,0,1.079-1.216v-1.867h-1.679a4.208,4.208,0,0,0-2.2.514,1.542,1.542,0,0,0-.792,1.369,1.517,1.517,0,0,0,.53,1.185A1.994,1.994,0,0,0-196.971-462.355Z" transform="translate(267.932 473.732)" fill="#12263f"/>
      <path id="Trazado_125933" data-name="Trazado 125933" d="M-151.407-470.17l.031,1.452a3.37,3.37,0,0,1,1.193-1.2,3.1,3.1,0,0,1,1.577-.412,2.547,2.547,0,0,1,2.032.769,3.469,3.469,0,0,1,.675,2.307v5.571h-.934v-5.578a2.594,2.594,0,0,0-.482-1.695,1.891,1.891,0,0,0-1.518-.557,2.375,2.375,0,0,0-1.542.545,3.194,3.194,0,0,0-.992,1.471v5.814h-.934v-8.49Z" transform="translate(229.461 473.732)" fill="#12263f"/>
      <path id="Trazado_125934" data-name="Trazado 125934" d="M-100.611-462.088a3.052,3.052,0,0,1-2.707,1.232,2.626,2.626,0,0,1-2.063-.788,3.454,3.454,0,0,1-.722-2.334V-469.5h.934v5.406q0,2.425,1.962,2.424a2.4,2.4,0,0,0,2.581-1.687V-469.5h.941v8.49h-.91Z" transform="translate(192.058 473.065)" fill="#12263f"/>
      <path id="Trazado_125935" data-name="Trazado 125935" d="M-58.68-470.17l.031,1.452a3.37,3.37,0,0,1,1.193-1.2,3.1,3.1,0,0,1,1.577-.412,2.547,2.547,0,0,1,2.032.769,3.469,3.469,0,0,1,.675,2.307v5.571h-.934v-5.578a2.594,2.594,0,0,0-.482-1.695,1.891,1.891,0,0,0-1.518-.557,2.375,2.375,0,0,0-1.542.545,3.194,3.194,0,0,0-.992,1.471v5.814h-.934v-8.49Z" transform="translate(154.388 473.732)" fill="#12263f"/>
      <path id="Trazado_125936" data-name="Trazado 125936" d="M-12.141-462.316a2.48,2.48,0,0,0,1.644-.553,1.948,1.948,0,0,0,.718-1.432h.9a2.659,2.659,0,0,1-.486,1.416,3.048,3.048,0,0,1-1.189,1,3.585,3.585,0,0,1-1.589.361,3.279,3.279,0,0,1-2.648-1.161,4.694,4.694,0,0,1-.977-3.123v-.283a5.306,5.306,0,0,1,.439-2.22,3.386,3.386,0,0,1,1.259-1.491,3.478,3.478,0,0,1,1.918-.526,3.274,3.274,0,0,1,2.3.832,3.033,3.033,0,0,1,.969,2.189h-.9a2.31,2.31,0,0,0-.718-1.608,2.326,2.326,0,0,0-1.652-.612,2.341,2.341,0,0,0-1.973.918,4.154,4.154,0,0,0-.7,2.574v.275a4.061,4.061,0,0,0,.7,2.534A2.357,2.357,0,0,0-12.141-462.316Z" transform="translate(118.92 473.732)" fill="#12263f"/>
      <path id="Trazado_125937" data-name="Trazado 125937" d="M29.979-485.067a.629.629,0,0,1,.173-.448.616.616,0,0,1,.471-.183.629.629,0,0,1,.475.183.622.622,0,0,1,.176.448.609.609,0,0,1-.176.445.636.636,0,0,1-.475.179.622.622,0,0,1-.471-.179A.616.616,0,0,1,29.979-485.067Zm1.106,10.942h-.942v-8.49h.942Z" transform="translate(81.885 486.178)" fill="#12263f"/>
      <path id="Trazado_125938" data-name="Trazado 125938" d="M46.464-466.051a4.993,4.993,0,0,1,.475-2.2,3.617,3.617,0,0,1,1.341-1.526,3.615,3.615,0,0,1,1.966-.545,3.493,3.493,0,0,1,2.746,1.189,4.582,4.582,0,0,1,1.051,3.15v.2a5.04,5.04,0,0,1-.475,2.217,3.544,3.544,0,0,1-1.338,1.518,3.667,3.667,0,0,1-1.969.533,3.5,3.5,0,0,1-2.742-1.189,4.57,4.57,0,0,1-1.055-3.15Zm.941.259a3.852,3.852,0,0,0,.789,2.5,2.529,2.529,0,0,0,2.068.977,2.521,2.521,0,0,0,2.06-.977,3.979,3.979,0,0,0,.789-2.577v-.18a4.322,4.322,0,0,0-.361-1.781,2.9,2.9,0,0,0-1.012-1.251,2.586,2.586,0,0,0-1.491-.443,2.509,2.509,0,0,0-2.048.985,3.984,3.984,0,0,0-.793,2.577Z" transform="translate(68.538 473.732)" fill="#12263f"/>
    </g>
    <g id="Grupo_55600" data-name="Grupo 55600" transform="translate(-812.896 -471.973)">
      <path id="Trazado_125939" data-name="Trazado 125939" d="M-532.546-402.119h-6.913v-.793h6.913Z" transform="translate(539.459 402.912)" fill="#12263f"/>
      <path id="Trazado_125940" data-name="Trazado 125940" d="M-496.114-402.119h-6.913v-.793h6.913Z" transform="translate(509.963 402.912)" fill="#12263f"/>
      <path id="Trazado_125941" data-name="Trazado 125941" d="M-459.683-402.119H-466.6v-.793h6.913Z" transform="translate(480.468 402.912)" fill="#12263f"/>
      <path id="Trazado_125942" data-name="Trazado 125942" d="M-423.252-402.119h-6.913v-.793h6.913Z" transform="translate(450.973 402.912)" fill="#12263f"/>
      <path id="Trazado_125943" data-name="Trazado 125943" d="M-386.82-402.119h-6.913v-.793h6.913Z" transform="translate(421.477 402.912)" fill="#12263f"/>
      <path id="Trazado_125944" data-name="Trazado 125944" d="M-350.389-402.119H-357.3v-.793h6.913Z" transform="translate(391.982 402.912)" fill="#12263f"/>
      <path id="Trazado_125945" data-name="Trazado 125945" d="M-313.958-402.119h-6.913v-.793h6.913Z" transform="translate(362.487 402.912)" fill="#12263f"/>
      <path id="Trazado_125946" data-name="Trazado 125946" d="M-277.526-402.119h-6.913v-.793h6.913Z" transform="translate(332.992 402.912)" fill="#12263f"/>
      <path id="Trazado_125947" data-name="Trazado 125947" d="M-241.1-402.119h-6.913v-.793h6.913Z" transform="translate(303.497 402.912)" fill="#12263f"/>
      <path id="Trazado_125948" data-name="Trazado 125948" d="M-204.663-402.119h-6.913v-.793h6.913Z" transform="translate(274.001 402.912)" fill="#12263f"/>
      <path id="Trazado_125949" data-name="Trazado 125949" d="M-168.232-402.119h-6.913v-.793h6.913Z" transform="translate(244.506 402.912)" fill="#12263f"/>
      <path id="Trazado_125950" data-name="Trazado 125950" d="M-131.8-402.119h-6.913v-.793h6.913Z" transform="translate(215.011 402.912)" fill="#12263f"/>
      <path id="Trazado_125951" data-name="Trazado 125951" d="M-95.369-402.119h-6.913v-.793h6.913Z" transform="translate(185.515 402.912)" fill="#12263f"/>
      <path id="Trazado_125952" data-name="Trazado 125952" d="M-58.938-402.119h-6.913v-.793h6.913Z" transform="translate(156.02 402.912)" fill="#12263f"/>
      <path id="Trazado_125953" data-name="Trazado 125953" d="M-22.506-402.119h-6.913v-.793h6.913Z" transform="translate(126.524 402.912)" fill="#12263f"/>
      <path id="Trazado_125954" data-name="Trazado 125954" d="M13.925-402.119H7.012v-.793h6.913Z" transform="translate(97.029 402.912)" fill="#12263f"/>
    </g>
    <g id="Grupo_55601" data-name="Grupo 55601" transform="translate(-788.571 -469.648)">
      <path id="Trazado_125955" data-name="Trazado 125955" d="M-411.692-390.067a.629.629,0,0,1,.172-.448.616.616,0,0,1,.471-.183.629.629,0,0,1,.475.183.622.622,0,0,1,.176.448.609.609,0,0,1-.176.445.636.636,0,0,1-.475.179.623.623,0,0,1-.471-.179A.616.616,0,0,1-411.692-390.067Zm1.106,10.942h-.942v-8.49h.942Z" transform="translate(411.692 390.699)" fill="#12263f"/>
      <path id="Trazado_125956" data-name="Trazado 125956" d="M-391.833-375.17l.031,1.381a3.14,3.14,0,0,1,1.177-1.153,3.227,3.227,0,0,1,1.569-.384,2.382,2.382,0,0,1,2.55,1.648,3.187,3.187,0,0,1,1.216-1.22,3.369,3.369,0,0,1,1.679-.428q2.73,0,2.785,2.981v5.665h-.941v-5.594a2.53,2.53,0,0,0-.49-1.687,2,2,0,0,0-1.573-.549,2.5,2.5,0,0,0-1.71.655,2.314,2.314,0,0,0-.777,1.557v5.618h-.942v-5.665a2.327,2.327,0,0,0-.514-1.628,2.045,2.045,0,0,0-1.558-.537,2.368,2.368,0,0,0-1.522.506,2.967,2.967,0,0,0-.941,1.5v5.822h-.942v-8.49Z" transform="translate(396.344 378.254)" fill="#12263f"/>
      <path id="Trazado_125957" data-name="Trazado 125957" d="M-310.895-370.839a5.112,5.112,0,0,1-.879,3.15,2.8,2.8,0,0,1-2.354,1.165,3.142,3.142,0,0,1-2.668-1.224v4.331h-.934V-375.17h.871l.047,1.2a3.013,3.013,0,0,1,2.66-1.357,2.824,2.824,0,0,1,2.389,1.153,5.225,5.225,0,0,1,.867,3.2Zm-.942-.165a4.367,4.367,0,0,0-.667-2.566,2.151,2.151,0,0,0-1.86-.941,2.6,2.6,0,0,0-1.483.416,2.616,2.616,0,0,0-.949,1.208v4.072a2.491,2.491,0,0,0,.965,1.114,2.783,2.783,0,0,0,1.483.384,2.13,2.13,0,0,0,1.848-.945A4.753,4.753,0,0,0-311.837-371Z" transform="translate(335.618 378.254)" fill="#12263f"/>
      <path id="Trazado_125958" data-name="Trazado 125958" d="M-267.422-366.681a4.441,4.441,0,0,1-.18-1.185,3.274,3.274,0,0,1-1.259.993,3.859,3.859,0,0,1-1.62.349,2.846,2.846,0,0,1-1.981-.683,2.223,2.223,0,0,1-.757-1.726,2.273,2.273,0,0,1,1.032-1.962,4.959,4.959,0,0,1,2.876-.722h1.7v-.965a1.86,1.86,0,0,0-.561-1.432,2.319,2.319,0,0,0-1.636-.522,2.561,2.561,0,0,0-1.624.5,1.492,1.492,0,0,0-.643,1.208l-.941-.008a2.183,2.183,0,0,1,.941-1.754,3.626,3.626,0,0,1,2.315-.741,3.307,3.307,0,0,1,2.24.71,2.549,2.549,0,0,1,.844,1.981v4.017a4.981,4.981,0,0,0,.259,1.844v.094Zm-2.95-.675a3.153,3.153,0,0,0,1.683-.455,2.68,2.68,0,0,0,1.079-1.216v-1.867h-1.679a4.208,4.208,0,0,0-2.2.514,1.542,1.542,0,0,0-.793,1.369,1.518,1.518,0,0,0,.53,1.185A2,2,0,0,0-270.372-367.355Z" transform="translate(299.583 378.254)" fill="#12263f"/>
      <path id="Trazado_125959" data-name="Trazado 125959" d="M-224.633-367.316a2.48,2.48,0,0,0,1.644-.553,1.948,1.948,0,0,0,.718-1.432h.9a2.658,2.658,0,0,1-.486,1.416,3.047,3.047,0,0,1-1.189,1,3.585,3.585,0,0,1-1.589.361,3.279,3.279,0,0,1-2.648-1.161,4.694,4.694,0,0,1-.977-3.123v-.283a5.306,5.306,0,0,1,.439-2.22,3.385,3.385,0,0,1,1.259-1.491,3.477,3.477,0,0,1,1.918-.526,3.274,3.274,0,0,1,2.3.832,3.033,3.033,0,0,1,.969,2.189h-.9a2.309,2.309,0,0,0-.718-1.608,2.325,2.325,0,0,0-1.652-.612,2.341,2.341,0,0,0-1.973.918,4.154,4.154,0,0,0-.7,2.574v.275a4.061,4.061,0,0,0,.7,2.534A2.357,2.357,0,0,0-224.633-367.316Z" transform="translate(263.181 378.254)" fill="#12263f"/>
      <path id="Trazado_125960" data-name="Trazado 125960" d="M-185.2-385.919v2.173h1.758v.769H-185.2v5.663a1.771,1.771,0,0,0,.255,1.053.988.988,0,0,0,.851.346,5.837,5.837,0,0,0,.761-.078l.039.762a3.068,3.068,0,0,1-1,.132,1.674,1.674,0,0,1-1.4-.561,2.64,2.64,0,0,1-.439-1.652v-5.665h-1.561v-.769h1.561v-2.173Z" transform="translate(230.349 386.829)" fill="#12263f"/>
      <path id="Trazado_125961" data-name="Trazado 125961" d="M-158.651-371.051a4.993,4.993,0,0,1,.475-2.2,3.618,3.618,0,0,1,1.342-1.526,3.614,3.614,0,0,1,1.965-.545,3.493,3.493,0,0,1,2.746,1.189,4.582,4.582,0,0,1,1.051,3.15v.2a5.041,5.041,0,0,1-.475,2.217,3.545,3.545,0,0,1-1.338,1.518,3.667,3.667,0,0,1-1.969.533,3.5,3.5,0,0,1-2.742-1.189,4.57,4.57,0,0,1-1.055-3.15Zm.942.259a3.851,3.851,0,0,0,.789,2.5,2.528,2.528,0,0,0,2.067.977,2.521,2.521,0,0,0,2.06-.977,3.979,3.979,0,0,0,.789-2.577v-.18a4.319,4.319,0,0,0-.361-1.781,2.9,2.9,0,0,0-1.012-1.251,2.588,2.588,0,0,0-1.491-.443,2.509,2.509,0,0,0-2.048.985,3.985,3.985,0,0,0-.792,2.577Z" transform="translate(206.827 378.254)" fill="#12263f"/>
      <path id="Trazado_125962" data-name="Trazado 125962" d="M-105.411-368.838a1.338,1.338,0,0,0-.561-1.122,4.33,4.33,0,0,0-1.691-.663,7.629,7.629,0,0,1-1.754-.549,2.335,2.335,0,0,1-.926-.757,1.888,1.888,0,0,1-.3-1.083,2.02,2.02,0,0,1,.84-1.659,3.391,3.391,0,0,1,2.15-.655,3.491,3.491,0,0,1,2.279.7,2.254,2.254,0,0,1,.859,1.832h-.942a1.52,1.52,0,0,0-.624-1.24,2.454,2.454,0,0,0-1.573-.494,2.456,2.456,0,0,0-1.487.412,1.27,1.27,0,0,0-.561,1.071,1.157,1.157,0,0,0,.467.985,4.932,4.932,0,0,0,1.7.64,8.007,8.007,0,0,1,1.852.62,2.4,2.4,0,0,1,.914.792,2.029,2.029,0,0,1,.3,1.122,2.033,2.033,0,0,1-.867,1.718,3.7,3.7,0,0,1-2.264.643,3.8,3.8,0,0,1-2.4-.718,2.209,2.209,0,0,1-.922-1.816h.941a1.632,1.632,0,0,0,.694,1.283,2.837,2.837,0,0,0,1.691.459,2.667,2.667,0,0,0,1.585-.432A1.3,1.3,0,0,0-105.411-368.838Z" transform="translate(168.189 378.254)" fill="#12263f"/>
    </g>
    <g id="Grupo_55602" data-name="Grupo 55602" transform="translate(-828.552 -487.366)">
      <path id="Trazado_125963" data-name="Trazado 125963" d="M-621.69-469.7a21.588,21.588,0,0,1,.754-5.7,18.472,18.472,0,0,1,2.209-5.064,9.867,9.867,0,0,1,3.125-3.293l.391,1.091a7.948,7.948,0,0,0-1.764,1.845,14.006,14.006,0,0,0-1.562,2.882,20.766,20.766,0,0,0-1.111,3.751,23.756,23.756,0,0,0-.424,4.721,22.57,22.57,0,0,0,.64,5.415,18.16,18.16,0,0,0,1.758,4.586,9.32,9.32,0,0,0,2.465,2.983l-.391,1.037a9.992,9.992,0,0,1-3.165-3.307,17.9,17.9,0,0,1-2.189-5.024A22.816,22.816,0,0,1-621.69-469.7Z" transform="translate(621.69 483.763)" fill="#12263f"/>
    </g>
    <g id="Grupo_55603" data-name="Grupo 55603" transform="translate(-692.629 -486.89)">
      <path id="Trazado_125964" data-name="Trazado 125964" d="M98.718-467a21.959,21.959,0,0,1-.734,5.7,18.042,18.042,0,0,1-2.175,5.017,10.059,10.059,0,0,1-3.179,3.327l-.391-1.037a8.939,8.939,0,0,0,2.445-2.923,17.982,17.982,0,0,0,1.771-4.613,23.934,23.934,0,0,0,.647-5.718,22.152,22.152,0,0,0-.647-5.381,18.8,18.8,0,0,0-1.785-4.633,8.961,8.961,0,0,0-2.431-2.97l.391-1.037a10.106,10.106,0,0,1,3.138,3.314,18.4,18.4,0,0,1,2.2,5.051A22.408,22.408,0,0,1,98.718-467Z" transform="translate(-92.239 481.263)" fill="#12263f"/>
    </g>
  </g>
</svg>
