<svg xmlns="http://www.w3.org/2000/svg" width="78.501" height="85.096" viewBox="0 0 78.501 85.096">
  <g id="Grupo_1100021" data-name="Grupo 1100021" transform="translate(-180 -9895.305)">
    <g id="Grupo_1100020" data-name="Grupo 1100020">
      <g id="Grupo_1100019" data-name="Grupo 1100019">
        <g id="Grupo_1099356" data-name="Grupo 1099356" transform="translate(-60.263 3278.838)">
          <path id="_12068" data-name="12068" d="M72.033,71.913c-8.038-1.11-16.53-.839-23.844,2.675C38.045,79.46,31.382,90.507,31.127,101.757s5.606,22.305,14.66,28.988,21,9.051,32.068,7.045c11.165-2.023,21.645-8.583,27.469-18.322,3.735-6.245,5.48-13.956,3.417-20.934a28.6,28.6,0,0,0-6.787-11.156A50.145,50.145,0,0,0,72.033,71.913Z" transform="translate(209.144 6563.081)" fill="#26aab7"/>
        </g>
        <g id="merchandise" transform="translate(180.994 9875.258)">
          <path id="Trazado_873521" data-name="Trazado 873521" d="M79.4,44.632a.4.4,0,0,0,0-.561L67.466,32.14a15.681,15.681,0,0,0-11.089-4.593H30.636A15.682,15.682,0,0,0,19.547,32.14L7.616,44.071a.4.4,0,0,0,0,.561l9.894,9.894a.4.4,0,0,0,.561,0l5.392-5.392a.4.4,0,0,1,.677.281V67.238h8.307a9.64,9.64,0,0,1,9.64,9.64v6.83l4.1,3.621a2.571,2.571,0,0,1,.859,1.577h6.338l1.849-21.135a.584.584,0,0,1,.582-.533h7.057V49.414a.4.4,0,0,1,.677-.281l5.392,5.392a.4.4,0,0,0,.561,0Z" transform="translate(-6.413 -6.413)" fill="#daf1f4"/>
          <g id="Grupo_1099358" data-name="Grupo 1099358" transform="translate(38.231 21.643)">
            <path id="Trazado_873522" data-name="Trazado 873522" d="M352.98,171.405a1.947,1.947,0,0,0-3.324,1.377V189.76h5.8V173.877Z" transform="translate(-337.223 -150.579)" fill="#b9e4ef"/>
            <path id="Trazado_873523" data-name="Trazado 873523" d="M391.239,47.076,379.308,35.145a15.682,15.682,0,0,0-7.125-4.084,15.689,15.689,0,0,1,1.329,1.186l6.371,6.371a8.259,8.259,0,0,1,0,11.68l-3.165,3.166,4.066,4.066a.4.4,0,0,0,.561,0l9.894-9.894A.4.4,0,0,0,391.239,47.076Z" transform="translate(-356.486 -31.061)" fill="#b9e4ef"/>
            <path id="Trazado_873524" data-name="Trazado 873524" d="M263.85,401.354l1.543,1.363a2.572,2.572,0,0,1,.859,1.577h6.338l.693-7.918A13.484,13.484,0,0,1,263.85,401.354Z" transform="translate(-263.85 -343.444)" fill="#b9e4ef"/>
          </g>
          <path id="Trazado_873525" data-name="Trazado 873525" d="M71.507,317.943l-3.063.478a76.187,76.187,0,0,1-23.476,0l-3.063-.478v-6.83a9.64,9.64,0,0,1,9.64-9.64H61.867a9.64,9.64,0,0,1,9.64,9.64Z" transform="translate(-35.833 -240.649)" fill="#7ad0df"/>
          <path id="Trazado_873526" data-name="Trazado 873526" d="M63.028,301.951a9.608,9.608,0,0,1,2.683,6.673v3.731a3.621,3.621,0,0,1-3.063,3.577,76.195,76.195,0,0,1-20.743.376v2.045l3.063.478a76.187,76.187,0,0,0,23.476,0l3.063-.478v-6.83A9.642,9.642,0,0,0,63.028,301.951Z" transform="translate(-35.833 -241.057)" fill="#70c6da"/>
          <path id="Trazado_873527" data-name="Trazado 873527" d="M128.635,280.073h-6.292v-1.72a1.907,1.907,0,0,1,1.907-1.907h2.479a1.907,1.907,0,0,1,1.907,1.907v1.72Z" transform="translate(-104.616 -219.249)" fill="#dd5790"/>
          <path id="Trazado_873528" data-name="Trazado 873528" d="M46.187,418.766l-4.1-3.621-3.063.478a76.187,76.187,0,0,1-23.476,0l-3.063-.478-4.1,3.621a2.613,2.613,0,0,0,1.169,4.51,82.65,82.65,0,0,0,35.464,0A2.613,2.613,0,0,0,46.187,418.766Z" transform="translate(-6.413 -337.85)" fill="#dd5790"/>
          <path id="Trazado_873529" data-name="Trazado 873529" d="M46.371,418.766l-4.1-3.621-2.137.333.441.39a2.613,2.613,0,0,1-1.169,4.51,82.649,82.649,0,0,1-31.691.737,2.592,2.592,0,0,0,2.023,2.161,82.65,82.65,0,0,0,35.464,0A2.613,2.613,0,0,0,46.371,418.766Z" transform="translate(-6.597 -337.85)" fill="#da387d"/>
          <path id="Trazado_873530" data-name="Trazado 873530" d="M194.521,27.547H169.436a12.543,12.543,0,1,0,25.085,0Z" transform="translate(-144.886 -6.413)" fill="#dd5790"/>
          <path id="Trazado_873531" data-name="Trazado 873531" d="M212.276,27.547a8.92,8.92,0,0,1-17.841,0Z" transform="translate(-166.262 -6.413)" fill="#7ad0df"/>
          <path id="Trazado_873532" data-name="Trazado 873532" d="M112.461,326.972l.875,2.692a.373.373,0,0,0,.355.258h2.831a.722.722,0,0,1,.424,1.305l-2.29,1.664a.373.373,0,0,0-.136.417l.875,2.692a.722.722,0,0,1-1.11.807l-2.29-1.664a.373.373,0,0,0-.439,0l-2.29,1.664a.722.722,0,0,1-1.11-.807l.875-2.692a.373.373,0,0,0-.136-.417l-2.29-1.664a.722.722,0,0,1,.424-1.305h2.83a.373.373,0,0,0,.355-.258l.875-2.692A.722.722,0,0,1,112.461,326.972Z" transform="translate(-90.902 -262.026)" fill="#f4dd45"/>
          <path id="Trazado_873533" data-name="Trazado 873533" d="M202.781,155.51l1.473,4.535a.629.629,0,0,0,.6.435h4.768a1.216,1.216,0,0,1,.714,2.2l-3.857,2.8a.629.629,0,0,0-.228.7l1.473,4.535a1.216,1.216,0,0,1-1.871,1.359l-3.857-2.8a.629.629,0,0,0-.739,0l-3.857,2.8a1.216,1.216,0,0,1-1.871-1.359L197,166.184a.629.629,0,0,0-.229-.7l-3.857-2.8a1.216,1.216,0,0,1,.714-2.2H198.4a.629.629,0,0,0,.6-.435l1.473-4.535A1.216,1.216,0,0,1,202.781,155.51Z" transform="translate(-164.532 -115.117)" fill="#f4dd45"/>
          <path id="Trazado_873534" data-name="Trazado 873534" d="M346.5,327.54H322.473a.584.584,0,0,1-.582-.635l2.178-24.9a.584.584,0,0,1,.582-.533h19.672a.584.584,0,0,1,.582.533l2.178,24.9A.584.584,0,0,1,346.5,327.54Z" transform="translate(-275.248 -240.649)" fill="#dd5790"/>
          <path id="Trazado_873535" data-name="Trazado 873535" d="M347.083,326.905l-2.178-24.9a.584.584,0,0,0-.582-.533h-5.007l1.524,17.422a5.287,5.287,0,0,1-5.267,5.748H322.089l-.2,2.263a.584.584,0,0,0,.582.635H346.5A.584.584,0,0,0,347.083,326.905Z" transform="translate(-275.248 -240.649)" fill="#da387d"/>
          <path id="Trazado_873536" data-name="Trazado 873536" d="M373.607,347.509l.975,3a.416.416,0,0,0,.4.288h3.157a.8.8,0,0,1,.473,1.456l-2.554,1.855a.417.417,0,0,0-.151.465l.975,3a.8.8,0,0,1-1.238.9l-2.554-1.855a.416.416,0,0,0-.489,0l-2.554,1.855a.8.8,0,0,1-1.238-.9l.975-3a.416.416,0,0,0-.151-.465l-2.554-1.855a.8.8,0,0,1,.473-1.456H370.7a.416.416,0,0,0,.4-.288l.975-3A.8.8,0,0,1,373.607,347.509Z" transform="translate(-313.603 -279.539)" fill="#f4dd45"/>
          <path id="Trazado_873537" data-name="Trazado 873537" d="M448.66,375.7a.81.81,0,0,0-.108-1.234Z" transform="translate(-383.559 -303.065)" fill="#f1d333"/>
          <path id="Trazado_873538" data-name="Trazado 873538" d="M103.5,331.272l1.871-1.359,1.87,1.359a1.808,1.808,0,0,0,2.783-2.022l-.714-2.2,1.87-1.359a1.808,1.808,0,0,0-1.063-3.271H107.8l-.714-2.2h0a1.808,1.808,0,0,0-3.44,0l-.714,2.2H100.62a1.808,1.808,0,0,0-1.063,3.271l1.871,1.359-.715,2.2a1.808,1.808,0,0,0,2.783,2.022Zm1.523-10.378h0Zm-1.569,3.7a1.456,1.456,0,0,0,1.389-1.009l.528-1.623.527,1.623a1.456,1.456,0,0,0,1.389,1.009h1.707l-1.381,1a1.456,1.456,0,0,0-.53,1.632l.527,1.623-1.38-1a1.456,1.456,0,0,0-1.717,0l-1.381,1,.528-1.623a1.456,1.456,0,0,0-.53-1.632l-1.381-1Z" transform="translate(-84.494 -255.612)"/>
          <path id="Trazado_873539" data-name="Trazado 873539" d="M203.2,152.98h-4.435l-1.371-4.218a2.3,2.3,0,0,0-4.379,0l-1.371,4.218h-4.435a2.3,2.3,0,0,0-1.353,4.165l3.588,2.607-1.371,4.218a2.3,2.3,0,0,0,3.543,2.574l3.588-2.607,3.588,2.607a2.3,2.3,0,0,0,3.543-2.574l-1.371-4.218,3.588-2.607a2.3,2.3,0,0,0-1.353-4.165Zm.076,2.406-3.857,2.8a1.711,1.711,0,0,0-.623,1.918l1.473,4.534a.129.129,0,0,1-.2.144l-3.857-2.8a1.711,1.711,0,0,0-2.017,0l-3.857,2.8a.129.129,0,0,1-.2-.144l1.473-4.534a1.711,1.711,0,0,0-.623-1.918l-3.857-2.8a.129.129,0,0,1,.076-.233h4.768a1.711,1.711,0,0,0,1.632-1.186l1.473-4.535a.129.129,0,0,1,.245,0l1.473,4.535a1.711,1.711,0,0,0,1.632,1.185H203.2a.129.129,0,0,1,.075.233Z" transform="translate(-158.109 -108.704)"/>
          <path id="Trazado_873540" data-name="Trazado 873540" d="M360.028,346.72l2.16,1.569-.825,2.539a1.891,1.891,0,0,0,2.911,2.115l2.16-1.569,2.159,1.569a1.891,1.891,0,0,0,2.911-2.115l-.825-2.539,2.159-1.569a1.891,1.891,0,0,0-1.112-3.422h-2.67l-.825-2.539h0a1.891,1.891,0,0,0-3.6,0l-.825,2.539H361.14a1.891,1.891,0,0,0-1.112,3.422Zm4.268-1.248a1.5,1.5,0,0,0,1.429-1.039l.707-2.177.707,2.177a1.5,1.5,0,0,0,1.429,1.038h2.289l-1.852,1.346a1.5,1.5,0,0,0-.545,1.68l.707,2.177-1.852-1.345a1.5,1.5,0,0,0-1.767,0l-1.851,1.345.707-2.176a1.5,1.5,0,0,0-.546-1.68l-1.852-1.345Z" transform="translate(-307.195 -273.126)"/>
          <path id="Trazado_873541" data-name="Trazado 873541" d="M61.761,48.881a1.485,1.485,0,0,0,2.1,0l9.894-9.894a1.484,1.484,0,0,0,0-2.1L61.821,24.958a16.659,16.659,0,0,0-11.857-4.911H24.223a16.659,16.659,0,0,0-11.857,4.911L.434,36.889a1.484,1.484,0,0,0,0,2.1l9.894,9.894a1.486,1.486,0,0,0,2.1,0l4.214-4.215V59.737h-.928A10.739,10.739,0,0,0,4.985,70.464V76.8L1.252,80.1a3.7,3.7,0,0,0,1.655,6.386,84.312,84.312,0,0,0,35.931,0,3.685,3.685,0,0,0,2.838-2.908h4.11l-.226,2.582a1.671,1.671,0,0,0,1.665,1.817H71.253a1.671,1.671,0,0,0,1.665-1.817l-2.178-24.9a1.662,1.662,0,0,0-1.665-1.525h-2.35a7.493,7.493,0,0,0-9.179-7.059V44.666Zm-34.3-25.042a1.087,1.087,0,1,0,2.093-.586,7.806,7.806,0,0,1-.215-1.033H44.852a7.834,7.834,0,0,1-13.022,4.715,1.087,1.087,0,0,0-1.461,1.609,10.008,10.008,0,0,0,16.674-6.324H48.5a11.457,11.457,0,0,1-22.81,0h1.456a9.97,9.97,0,0,0,.312,1.618Zm2.73,39.149a8.56,8.56,0,0,1,4.4,7.476v5.9l-1.731.27V71.3A13.543,13.543,0,0,0,30.187,62.988Zm-7.254-3.251H18.814V59.1a.821.821,0,0,1,.82-.82h2.479a.821.821,0,0,1,.82.82v.633ZM7.159,70.464a8.56,8.56,0,0,1,4.4-7.476A13.544,13.544,0,0,0,8.889,71.3v5.33l-1.731-.27ZM39.522,83.257a1.5,1.5,0,0,1-1.15,1.108,82.123,82.123,0,0,1-35,0,1.526,1.526,0,0,1-.683-2.634l3.718-3.283,2.559.4c1.5.234,3.023.425,4.532.57a1.087,1.087,0,0,0,.207-2.164c-.879-.084-1.763-.185-2.644-.3V71.3c0-5.179,2.974-9.393,6.629-9.393h6.362c3.655,0,6.629,4.214,6.629,9.393v5.648a75.332,75.332,0,0,1-11.921.614,1.087,1.087,0,0,0-.061,2.173,77.478,77.478,0,0,0,14.078-.892l2.559-.4,3.718,3.283a1.507,1.507,0,0,1,.5.9c0,.012,0,.024.005.037A1.55,1.55,0,0,1,39.522,83.257Zm19.717-28.6a5.323,5.323,0,0,1,5.311,5.079h-7v-4.8A5.29,5.29,0,0,1,59.239,54.659Zm-5.311,5.079a5.3,5.3,0,0,1,1.445-3.408v3.408Zm-2.175,0H49.4a1.662,1.662,0,0,0-1.665,1.525l-.53,6.056a1.087,1.087,0,0,0,2.165.189l.49-5.6H68.614L70.7,85.805H47.772l.28-3.2c0-.009,0-.019,0-.028L48.91,72.8a1.087,1.087,0,1,0-2.165-.189l-.769,8.791H41.443a3.705,3.705,0,0,0-.949-1.3l-3.733-3.3v-6.34A10.739,10.739,0,0,0,26.034,59.737h-.928V59.1a3,3,0,0,0-2.993-2.993H19.634a2.986,2.986,0,0,0-.82.114V31.04a1.087,1.087,0,1,0-2.173,0V41.687a1.493,1.493,0,0,0-.359.265l-4.9,4.9L2.459,37.938,13.9,26.5a14.49,14.49,0,0,1,9.606-4.258,13.63,13.63,0,0,0,27.17,0A14.488,14.488,0,0,1,60.284,26.5L71.727,37.938l-8.918,8.918-4.9-4.9a1.488,1.488,0,0,0-.359-.265V31.04a1.087,1.087,0,1,0-2.173,0V53.562a7.5,7.5,0,0,0-3.62,6.175Z" transform="translate(0 0)"/>
        </g>
      </g>
    </g>
  </g>
</svg>
