<svg xmlns="http://www.w3.org/2000/svg" width="104.226" height="113.223" viewBox="0 0 104.226 113.223">
  <g id="Grupo_1100033" data-name="Grupo 1100033" transform="translate(-1059.387 -931.433)">
    <g id="Grupo_1100032" data-name="Grupo 1100032">
      <g id="Grupo_1100031" data-name="Grupo 1100031">
        <path id="_12068" data-name="12068" d="M85.441,72.1C74.768,70.63,63.494,70.99,53.782,75.655,40.314,82.124,31.469,96.79,31.13,111.728s7.442,29.615,19.464,38.488,27.876,12.018,42.577,9.354c14.824-2.686,28.739-11.4,36.471-24.326,4.958-8.291,7.276-18.529,4.537-27.794a37.971,37.971,0,0,0-9.011-14.812A66.579,66.579,0,0,0,85.441,72.1Z" transform="translate(1028.268 884.17)" fill="#ffd947"/>
        <g id="shopping-budget" transform="translate(1061.567 926.451)">
          <g id="Grupo_1099389" data-name="Grupo 1099389" transform="translate(7.417 6.86)">
            <path id="Trazado_873558" data-name="Trazado 873558" d="M20.607,13.22l24.2-6.4a3.239,3.239,0,0,1,3.866,2.16l7.1,26.779H23.264L18.286,16.978a3.153,3.153,0,0,1,2.322-3.758Z" transform="translate(-6.362 -6.721)" fill="#67c2c5" fill-rule="evenodd"/>
            <path id="Trazado_873559" data-name="Trazado 873559" d="M38.2,25a9.243,9.243,0,0,1,9.275,9.167H29A9.135,9.135,0,0,1,38.2,25Z" transform="translate(-5.501 -5.263)" fill="#f6f3e0" fill-rule="evenodd"/>
            <path id="Trazado_873560" data-name="Trazado 873560" d="M67.881,33.61H11.214L7.24,91.616a6.23,6.23,0,0,0,6.479,6.4H65.343c3.866,0,6.738-2.872,6.479-6.4Z" transform="translate(-7.238 -4.576)" fill="#07bfed" fill-rule="evenodd"/>
            <path id="Trazado_873561" data-name="Trazado 873561" d="M7.564,94.048C35.736,91.284,67.114,63.555,63.8,33.58H11.214L7.24,91.618a8.865,8.865,0,0,0,.324,2.43Z" transform="translate(-7.237 -4.578)" fill="#19cffc" fill-rule="evenodd"/>
            <path id="Trazado_873562" data-name="Trazado 873562" d="M76.437,67.978a14.445,14.445,0,1,1,.032,0Z" transform="translate(-2.869 -4.143)" fill="#e6cb59" fill-rule="evenodd"/>
            <path id="Trazado_873563" data-name="Trazado 873563" d="M65.394,62.755A14.415,14.415,0,0,1,76.44,39a14.178,14.178,0,0,1,10.938,4.967C88.814,56.277,76.332,63.9,65.394,62.755Z" transform="translate(-2.872 -4.146)" fill="#fadc60" fill-rule="evenodd"/>
            <path id="Trazado_873564" data-name="Trazado 873564" d="M65.725,86.4h21.6a3.7,3.7,0,0,1,0,7.407h-21.6a3.7,3.7,0,1,1,.032-7.407Z" transform="translate(-2.869 -0.364)" fill="#fadc60" fill-rule="evenodd"/>
            <path id="Trazado_873565" data-name="Trazado 873565" d="M65.725,86.949h21.6a3.716,3.716,0,0,0-.054-7.429h-21.6a3.7,3.7,0,1,0,.086,7.4Z" transform="translate(-2.869 -0.913)" fill="#fadc60" fill-rule="evenodd"/>
            <path id="Trazado_873566" data-name="Trazado 873566" d="M65.725,72.7h21.6a3.7,3.7,0,0,1,0,7.4h-21.6a3.7,3.7,0,1,1,.032-7.4Z" transform="translate(-2.869 -1.457)" fill="#fadc60" fill-rule="evenodd"/>
            <path id="Trazado_873567" data-name="Trazado 873567" d="M65.725,73.247h21.6a3.7,3.7,0,0,0,0-7.407h-21.6a3.7,3.7,0,1,0,.032,7.407Z" transform="translate(-2.869 -2.005)" fill="#fadc60" fill-rule="evenodd"/>
            <path id="Trazado_873568" data-name="Trazado 873568" d="M85.767,88.04a3.7,3.7,0,1,1,0,7.407H80.8V65.84h4.967a3.7,3.7,0,1,1,0,7.407,3.7,3.7,0,0,1,0,7.4,3.7,3.7,0,0,1,0,7.4Z" transform="translate(-1.369 -2.005)" fill="#e6cb59" fill-rule="evenodd"/>
            <path id="Trazado_873569" data-name="Trazado 873569" d="M59.287,80.894,38.631,87.082a3.705,3.705,0,0,0,2.214,7.073L61.36,87.967A3.747,3.747,0,0,0,63.9,83.324a3.606,3.606,0,0,0-4.643-2.43Z" transform="translate(-4.939 -0.819)" fill="#fadc60" fill-rule="evenodd"/>
            <path id="Trazado_873570" data-name="Trazado 873570" d="M54.422,39.75a3.239,3.239,0,1,0,3.239,3.239,3.239,3.239,0,0,0-3.239-3.239Zm-31.7,0a3.239,3.239,0,1,0,3.239,3.239A3.239,3.239,0,0,0,22.719,39.75Z" transform="translate(-6.261 -4.086)" fill="#fd6f71" fill-rule="evenodd"/>
          </g>
          <path id="Trazado_873571" data-name="Trazado 873571" d="M28.756,26.079l-.335-2.16a8.26,8.26,0,0,0,4.19-5.842c0-.108.216-.216.432-.324l3.963-1.08c.227,0,.551-.108.659.108a7.472,7.472,0,0,0,6.857,2.9l.432,1.771a1.89,1.89,0,0,0,2.311,1.425,2.03,2.03,0,0,0,1.544-2.419l-.551-1.987A4.319,4.319,0,0,0,44.078,15.8a3.639,3.639,0,0,1-3.239-1.652,4.935,4.935,0,0,0-4.74-1.425L32,13.856A4.6,4.6,0,0,0,28.7,17.484a4.19,4.19,0,0,1-2.16,2.98,4.006,4.006,0,0,0-2.106,4.513l.551,2.095A1.879,1.879,0,0,0,27.406,28.5a2.16,2.16,0,0,0,1.35-2.419ZM78.08,57.025l3.855,1.76c-.108.669-2.095.669-2.753,0a2.062,2.062,0,0,0-2.861,0,1.933,1.933,0,0,0,0,2.753,5.248,5.248,0,0,0,2.419,1.328v.659a1.987,1.987,0,1,0,3.963,0v-.551a5,5,0,0,0,3.239-3.3A4.222,4.222,0,0,0,83.4,55.049l-3.9-1.771c.108-.659,2.084-.551,2.753,0a1.944,1.944,0,0,0,2.851-.216,2.041,2.041,0,0,0-.205-2.71,5.8,5.8,0,0,0-2.16-1.08v-.551a1.987,1.987,0,1,0-3.963,0v.443a4.546,4.546,0,0,0-3.077,3.3,4.028,4.028,0,0,0,2.419,4.621Zm-21.121,0V50.644A5.2,5.2,0,1,0,49.8,45.8a5.464,5.464,0,0,0,3.239,4.848v6.382c0,8.368-6.166,15.2-13.756,15.2s-13.908-7.051-13.908-15.2V50.644A5.464,5.464,0,0,0,28.616,45.8a5.172,5.172,0,0,0-10.344,0,5.453,5.453,0,0,0,3.185,4.848v6.382c0,10.571,8.034,19.166,17.827,19.166S57,67.553,57,57.025ZM54.973,44.586A1.188,1.188,0,0,1,56.3,45.8a2.073,2.073,0,0,1-.227.767,2.019,2.019,0,0,0-2.084-.108,1.458,1.458,0,0,1-.227-.659,1.22,1.22,0,0,1,1.209-1.209Zm-31.616,0A1.22,1.22,0,0,1,24.566,45.8a1.6,1.6,0,0,1-.227.659,2.073,2.073,0,0,0-1.976,0,1.6,1.6,0,0,1-.227-.659,1.22,1.22,0,0,1,1.22-1.209Zm76.848,53.633H96.458a8.639,8.639,0,0,0,.216-1.652,6.133,6.133,0,0,0-1.317-3.747,5.82,5.82,0,0,0,0-7.375,5.831,5.831,0,0,0,0-7.386,6.057,6.057,0,0,0,1.317-3.628,5.647,5.647,0,0,0-5.831-5.723,16.347,16.347,0,0,0-10.56-28.852A16.078,16.078,0,0,0,70.047,43.5l-.767-9.481H57.727L51.01,8.791a5.129,5.129,0,0,0-6.263-3.639L20.755,11.545a4.989,4.989,0,0,0-3.736,6.166L21.338,34H9.093L5,93.544a8.239,8.239,0,0,0,8.466,8.638h86.739a1.987,1.987,0,0,0,0-3.963Zm-60.2-1.209a1.8,1.8,0,0,1,1.08-2.095l20.6-6.166a1.674,1.674,0,0,1,2.16.983,1.89,1.89,0,0,1-1.209,2.16L42.124,98.068a1.782,1.782,0,0,1-2.16-1.08Zm52.715-15.2a1.7,1.7,0,0,1-1.652,1.652H69.615a1.717,1.717,0,0,1-1.76-1.652,1.674,1.674,0,0,1,1.76-1.76H91.07a1.652,1.652,0,0,1,1.652,1.76ZM64,95.7a5.107,5.107,0,0,0,.216,2.537H55.859C58.493,97.355,61.463,96.7,64,95.7Zm3.855-6.479a1.674,1.674,0,0,1,1.76-1.76H91.07a1.728,1.728,0,0,1,1.652,1.76,1.7,1.7,0,0,1-1.652,1.652H69.615A1.717,1.717,0,0,1,67.855,89.225ZM91.07,72.7a1.663,1.663,0,0,1,1.652,1.771,1.706,1.706,0,0,1-1.652,1.652H69.615a1.717,1.717,0,0,1-1.76-1.652,1.684,1.684,0,0,1,1.76-1.771Zm-10.8-28.852a5.911,5.911,0,1,1,.011-.043ZM20.755,16.717A1.145,1.145,0,0,1,21.64,15.4l24.2-6.392a1.339,1.339,0,0,1,1.436.767L53.656,34H50.686a10.917,10.917,0,0,0-13.54-9.243A11.057,11.057,0,0,0,29,34H25.376ZM46.724,33.994H32.967a7.019,7.019,0,0,1,13.756,0ZM8.985,93.922l3.844-55.944H65.652l.9,9.47a15.948,15.948,0,0,0-2.635,8.811,16.531,16.531,0,0,0,5.809,12.45,5.626,5.626,0,0,0-4.406,9.362,5.475,5.475,0,0,0-1.425,3.747,5.636,5.636,0,0,0,1.425,3.639,5.14,5.14,0,0,0-4.729-.551L40.007,91.06a5.69,5.69,0,0,0-3.693,7.159H13.488a4.319,4.319,0,0,1-4.5-4.319Zm60.63,4.319a1.792,1.792,0,0,1-1.76-1.652,1.674,1.674,0,0,1,1.76-1.76H91.07a1.706,1.706,0,0,1,0,3.412Z" transform="translate(0 0)"/>
        </g>
      </g>
    </g>
  </g>
</svg>
