<svg xmlns="http://www.w3.org/2000/svg" width="450.264" height="381.938" viewBox="0 0 450.264 381.938">
  <g id="Grupo_1099326" data-name="Grupo 1099326" transform="translate(-967.75 -7951.693)">
    <g id="Grupo_1099325" data-name="Grupo 1099325" transform="translate(267.883 3127.407)">
      <path id="_12068" data-name="12068" d="M222.787,74.053c-37.657-5.2-77.436-3.928-111.7,12.531-47.521,22.825-78.732,74.575-79.928,127.28s26.26,104.494,68.677,135.8,98.356,42.4,150.229,33c52.307-9.479,101.4-40.211,128.686-85.833,17.5-29.255,25.673-65.379,16.008-98.068-5.835-19.731-17.764-37.212-31.8-52.261A234.916,234.916,0,0,0,222.787,74.053Z" transform="translate(710.005 4820.32)" fill="#aee6e6"/>
      <g id="Grupo_1099291" data-name="Grupo 1099291" transform="translate(724.999 5170.994) rotate(-90)">
        <path id="Trazado_873104" data-name="Trazado 873104" d="M1.7,7.454a4.316,4.316,0,0,0,5.641-.639A4.316,4.316,0,0,0,7.1,1.143,4.318,4.318,0,0,0,1.424.99,4.139,4.139,0,0,0,1.7,7.454Z" transform="translate(56.381 338.287)" fill="#fff"/>
        <path id="Trazado_873105" data-name="Trazado 873105" d="M1.7,7.454a4.316,4.316,0,0,0,5.643-.637A4.318,4.318,0,0,0,7.1,1.143,4.318,4.318,0,0,0,1.425.99,4.139,4.139,0,0,0,1.7,7.454Z" transform="translate(138.745 355.987)" fill="#ffd947"/>
        <path id="Trazado_873106" data-name="Trazado 873106" d="M1.7,7.454a4.314,4.314,0,0,0,5.641-.637A4.318,4.318,0,0,0,7.1,1.143,4.318,4.318,0,0,0,1.424.99,4.139,4.139,0,0,0,1.7,7.454Z" transform="translate(285.006 0)" fill="#7d6eb2"/>
        <path id="Trazado_873109" data-name="Trazado 873109" d="M5.6,17.394a9.415,9.415,0,0,0,11.659-4.607A9.418,9.418,0,0,0,13.2.93,9.415,9.415,0,0,0,1.164,4.452,9.128,9.128,0,0,0,5.6,17.394Z" transform="translate(236.065 342.099)" fill="#26aab7"/>
        <path id="Trazado_873110" data-name="Trazado 873110" d="M5.6,17.393a9.415,9.415,0,0,0,11.66-4.607A9.416,9.416,0,0,0,13.2.931,9.413,9.413,0,0,0,1.165,4.451,9.127,9.127,0,0,0,5.6,17.393Z" transform="translate(171.84 382.004)" fill="#7d6eb2"/>
        <path id="Trazado_873111" data-name="Trazado 873111" d="M5.6,17.393a9.412,9.412,0,0,0,11.658-4.606A9.414,9.414,0,0,0,13.2.931,9.412,9.412,0,0,0,1.165,4.451,9.127,9.127,0,0,0,5.6,17.393Z" transform="translate(0 107.56)" fill="#7d6eb2"/>
        <path id="Trazado_873113" data-name="Trazado 873113" d="M5.6,17.394a9.417,9.417,0,0,0,11.66-4.606A9.418,9.418,0,0,0,13.2.93,9.417,9.417,0,0,0,1.164,4.452,9.128,9.128,0,0,0,5.6,17.394Z" transform="translate(266.987 22.647)" fill="#ffd947"/>
        <circle id="Elipse_11485" data-name="Elipse 11485" cx="4.445" cy="4.445" r="4.445" transform="translate(20.396 359.765)" fill="none" stroke="#26aab7" stroke-linecap="round" stroke-linejoin="round" stroke-width="1.5"/>
      </g>
    </g>
    <g id="freepik--Plant--inject-2" transform="translate(980.147 8128.647)">
      <path id="Trazado_128573" data-name="Trazado 128573" d="M115.083,303.546A47.1,47.1,0,0,0,70.16,291.22a81.854,81.854,0,0,0,45.452,14.2" transform="translate(-54.894 -211.837)" fill="#26aab7"/>
      <path id="Trazado_128574" data-name="Trazado 128574" d="M108.584,208.294c1.876-13.24-3.268-28.1-13.182-37.754-.327,13.123,5.228,27.886,13.182,37.754" transform="translate(-63.635 -170.54)" fill="#26aab7"/>
      <path id="Trazado_128575" data-name="Trazado 128575" d="M110.487,250.123A70.685,70.685,0,0,0,78,219.1a44.616,44.616,0,0,0,32.585,31.167" transform="translate(-57.61 -187.365)" fill="#26aab7"/>
      <path id="Trazado_128576" data-name="Trazado 128576" d="M106.85,266.468c-7.993.222-16.09-.059-23.821-2.1s-15.136-5.98-20.259-12.1a79.625,79.625,0,0,1,43.936,13.4" transform="translate(-52.333 -198.854)" fill="#26aab7"/>
      <path id="Trazado_128577" data-name="Trazado 128577" d="M124,231.478c4.058-15.214,10.757-25.736,22.71-34.258A31.63,31.63,0,0,1,124,231.478" transform="translate(-73.548 -179.784)" fill="#26aab7"/>
      <path id="Trazado_128578" data-name="Trazado 128578" d="M162.938,278.724A22.507,22.507,0,0,0,149.26,257.87c.654,7.842,6.836,16.939,13.678,20.854" transform="translate(-82.3 -200.798)" fill="#26aab7"/>
      <path id="Trazado_128579" data-name="Trazado 128579" d="M176,254.978a33.547,33.547,0,0,1,21.978-28.618c-2.738,12.711-10.084,23.292-21.978,28.618" transform="translate(-91.565 -189.88)" fill="#26aab7"/>
      <path id="Trazado_128580" data-name="Trazado 128580" d="M167.23,300.1c2.817-4.032,7.417-6.535,12.182-7.79s9.737-1.353,14.659-1.457A34.264,34.264,0,0,1,167.6,301.875" transform="translate(-88.526 -212.225)" fill="#26aab7"/>
      <path id="Trazado_128581" data-name="Trazado 128581" d="M158.48,353.7a37.551,37.551,0,0,1,45.845,21.717c-16.652-3.15-33.088-10.554-45.845-21.717" transform="translate(-85.495 -233.421)" fill="#26aab7"/>
      <path id="Trazado_128582" data-name="Trazado 128582" d="M127.81,337.35c2.764,8.176,2.235,18.063-3.921,25.108a29.984,29.984,0,0,1,3.921-25.108" transform="translate(-73.097 -228.336)" fill="#26aab7"/>
      <path id="Trazado_128583" data-name="Trazado 128583" d="M103.793,330.4A30.781,30.781,0,0,1,86.8,355.365a1.908,1.908,0,0,1-1.5.242c-.752-.3-.817-1.307-.725-2.13,1.2-10.456,8.966-20.606,19.22-23.076" transform="translate(-59.876 -225.928)" fill="#26aab7"/>
      <path id="Trazado_128584" data-name="Trazado 128584" d="M83.652,328.158a25.233,25.233,0,0,1-36.852.19c11.711-1.307,25.232-2.137,36.852-.19" transform="translate(-46.8 -224.751)" fill="#26aab7"/>
      <path id="Trazado_128585" data-name="Trazado 128585" d="M100.51,185.47a2.136,2.136,0,0,0,.1.346c.091.242.209.569.359.987.333.889.8,2.163,1.412,3.8s1.359,3.66,2.2,6.012l1.353,3.758c.464,1.307.954,2.758,1.464,4.241,2.078,5.934,4.379,13.07,6.869,20.978s5.013,16.711,7.535,25.958,4.7,18.129,6.574,26.226,3.4,15.423,4.529,21.605q.438,2.313.83,4.4c.242,1.392.464,2.712.654,3.921.425,2.457.784,4.575,1.033,6.32s.471,3.065.614,4c.072.438.131.784.17,1.039a2.2,2.2,0,0,0,.072.353,2.12,2.12,0,0,0,0-.359c-.033-.255-.072-.6-.131-1.046-.124-.941-.3-2.287-.529-4.013s-.556-3.869-.954-6.333c-.2-1.235-.412-2.555-.654-3.954s-.516-2.862-.8-4.411c-1.1-6.2-2.614-13.521-4.437-21.638s-4.058-16.992-6.535-26.252-5.1-18.024-7.574-25.964-4.843-15.031-6.96-20.958q-.784-2.222-1.5-4.228l-1.385-3.751c-.869-2.346-1.621-4.359-2.274-5.993s-1.144-2.882-1.49-3.764l-.4-.974a2.563,2.563,0,0,0-.157-.307Z" transform="translate(-65.409 -175.713)" fill="#263238"/>
      <path id="Trazado_128586" data-name="Trazado 128586" d="M181.991,236.75a1.255,1.255,0,0,0-.2.189l-.562.588c-.49.523-1.2,1.307-2.078,2.327a81.778,81.778,0,0,0-6.9,9.2,61.5,61.5,0,0,0-7.189,15.43c-1.961,6.137-3.137,13.123-4.326,20.416-2.385,14.606-5.307,27.69-7.424,37.153-1.065,4.712-1.961,8.528-2.536,11.208-.288,1.307-.516,2.32-.654,3.045-.072.333-.124.595-.17.8a1.41,1.41,0,0,0-.039.275,1.307,1.307,0,0,0,.085-.268c.052-.2.124-.457.209-.784.183-.719.431-1.732.758-3.026.654-2.666,1.549-6.476,2.673-11.175,2.2-9.443,5.169-22.527,7.555-37.153a154.835,154.835,0,0,1,4.281-20.37,62.472,62.472,0,0,1,7.084-15.377,87.49,87.49,0,0,1,6.764-9.254c.863-1.046,1.549-1.843,2.019-2.385.216-.255.392-.457.523-.621a1.493,1.493,0,0,0,.131-.216Z" transform="translate(-82.525 -193.48)" fill="#263238"/>
      <path id="Trazado_128587" data-name="Trazado 128587" d="M97.84,327.993a1.413,1.413,0,0,0,.418.078l1.216.131.876.092,1.033.15c.745.111,1.595.222,2.516.425l1.457.294,1.555.392c1.085.242,2.2.654,3.4,1a49.875,49.875,0,0,1,7.417,3.268,41.611,41.611,0,0,1,6.653,4.627,32.892,32.892,0,0,1,2.549,2.451,25.719,25.719,0,0,1,2.019,2.333,23.461,23.461,0,0,1,1.5,2.059,16.424,16.424,0,0,1,1.026,1.653l.621,1.052a1.641,1.641,0,0,0,.242.353,1.445,1.445,0,0,0-.163-.4l-.549-1.091a13.106,13.106,0,0,0-.967-1.68,22.532,22.532,0,0,0-1.451-2.117,26.566,26.566,0,0,0-2-2.392,32.2,32.2,0,0,0-2.555-2.5,39.947,39.947,0,0,0-6.705-4.7,47.784,47.784,0,0,0-7.5-3.268c-1.209-.353-2.34-.738-3.438-.967l-1.575-.372-1.47-.261c-.935-.19-1.791-.275-2.542-.366l-1.046-.118-.882-.046-1.222-.078a1.623,1.623,0,0,0-.425,0Z" transform="translate(-64.484 -225.089)" fill="#263238"/>
      <path id="Trazado_128588" data-name="Trazado 128588" d="M92.73,237.17a5.713,5.713,0,0,0,.83.817l2.411,2.091c2.052,1.751,4.9,4.143,8.064,6.77s6.052,4.986,8.149,6.672l2.5,1.961a5.381,5.381,0,0,0,.954.654,5.713,5.713,0,0,0-.843-.817l-2.412-2.091c-2.052-1.751-4.9-4.143-8.064-6.77s-6.045-4.98-8.143-6.666l-2.5-1.961a6.468,6.468,0,0,0-.948-.66Z" transform="translate(-62.714 -193.626)" fill="#263238"/>
      <path id="Trazado_128589" data-name="Trazado 128589" d="M88.32,260.887c0,.118,6.117,2.039,13.724,4.294s13.835,3.98,13.868,3.862-6.117-2.046-13.724-4.294S88.359,260.769,88.32,260.887Z" transform="translate(-61.186 -201.841)" fill="#263238"/>
      <path id="Trazado_128590" data-name="Trazado 128590" d="M123.08,239.84a5.523,5.523,0,0,0,.654-.882l1.621-2.47c1.372-2.085,3.326-4.921,5.64-7.947s4.535-5.653,6.176-7.529c.771-.889,1.425-1.634,1.961-2.222a5.634,5.634,0,0,0,.654-.85,4.3,4.3,0,0,0-.81.725c-.5.49-1.2,1.216-2.059,2.13-1.7,1.83-3.973,4.444-6.293,7.476s-4.235,5.914-5.548,8.038c-.654,1.065-1.17,1.961-1.5,2.555a4.627,4.627,0,0,0-.49.974Z" transform="translate(-73.229 -186.963)" fill="#263238"/>
      <path id="Trazado_128591" data-name="Trazado 128591" d="M155.76,264.61a21.266,21.266,0,0,0,1.444,2.372c.921,1.444,2.17,3.451,3.457,5.718s2.379,4.372,3.157,5.882a20.908,20.908,0,0,0,1.307,2.451,14.53,14.53,0,0,0-1.019-2.614c-.7-1.568-1.751-3.7-3.045-5.986s-2.614-4.267-3.581-5.673a14.376,14.376,0,0,0-1.719-2.15Z" transform="translate(-84.552 -203.133)" fill="#263238"/>
      <path id="Trazado_128592" data-name="Trazado 128592" d="M167,301.558c.033.059,1.2-.516,3.124-1.379s4.575-1.961,7.633-3.059,5.836-1.849,7.875-2.366a28.48,28.48,0,0,0,3.268-.876,3.522,3.522,0,0,0-.915.1c-.588.085-1.425.242-2.457.464a67.312,67.312,0,0,0-7.953,2.261,68.383,68.383,0,0,0-7.62,3.189c-.948.471-1.7.869-2.215,1.17a3.761,3.761,0,0,0-.739.5Z" transform="translate(-88.447 -213.274)" fill="#263238"/>
      <path id="Trazado_128593" data-name="Trazado 128593" d="M158.14,354.67a1.494,1.494,0,0,0,.379.124l1.111.281,4.091.948a134.56,134.56,0,0,1,13.358,3.529,59.14,59.14,0,0,1,12.469,5.882c1.49.948,2.653,1.784,3.438,2.392a12.765,12.765,0,0,0,1.235.915,3.01,3.01,0,0,0-.274-.294c-.19-.183-.471-.444-.856-.758a36.017,36.017,0,0,0-3.372-2.523,54.649,54.649,0,0,0-12.489-6.012,110.448,110.448,0,0,0-13.443-3.411l-4.124-.856A10.332,10.332,0,0,0,158.14,354.67Z" transform="translate(-85.377 -234.337)" fill="#263238"/>
      <path id="Trazado_128594" data-name="Trazado 128594" d="M126.3,356.5c.118,0,.85-4.294,1.634-9.633s1.307-9.685,1.189-9.7-.85,4.3-1.634,9.639S126.176,356.485,126.3,356.5Z" transform="translate(-74.339 -228.27)" fill="#263238"/>
      <path id="Trazado_128595" data-name="Trazado 128595" d="M93.16,346.332a23.151,23.151,0,0,0,1.961-2.32c1.17-1.457,2.791-3.464,4.627-5.646s3.529-4.13,4.764-5.535a21.683,21.683,0,0,0,1.961-2.32,3.118,3.118,0,0,0-.654.529c-.379.366-.908.9-1.562,1.581-1.307,1.353-3.032,3.268-4.875,5.457s-3.424,4.228-4.535,5.738c-.555.758-.993,1.379-1.307,1.81a2.8,2.8,0,0,0-.379.706Z" transform="translate(-62.863 -225.966)" fill="#263238"/>
      <path id="Trazado_128596" data-name="Trazado 128596" d="M156.453,385.46v10.7h-2.679l-9.509,30.029h-21.1l-9.215-29.735-3.568-.294v-10.7Z" transform="translate(-68.829 -245.005)" fill="#455a64"/>
      <path id="Trazado_128597" data-name="Trazado 128597" d="M113.11,402.172c0,.124,9.313.229,20.8.229s20.808-.1,20.808-.229-9.313-.222-20.808-.222S113.11,402.048,113.11,402.172Z" transform="translate(-69.775 -250.718)" fill="#263238"/>
      <path id="Trazado_128598" data-name="Trazado 128598" d="M89.89,296.94a8.4,8.4,0,0,0,1.353.366l3.7.9c3.124.771,7.411,1.961,12.057,3.5s8.777,3.222,11.763,4.5l3.49,1.523a8.929,8.929,0,0,0,1.307.529,7.9,7.9,0,0,0-1.222-.686c-.8-.418-1.961-.987-3.437-1.66a121.609,121.609,0,0,0-23.84-8.019c-1.568-.346-2.849-.6-3.738-.752A8.728,8.728,0,0,0,89.89,296.94Z" transform="translate(-61.73 -214.335)" fill="#263238"/>
      <path id="Trazado_128599" data-name="Trazado 128599" d="M123.83,427.692c0,.124,6.535.222,14.593.222s14.6-.1,14.6-.222-6.535-.222-14.6-.222S123.83,427.568,123.83,427.692Z" transform="translate(-73.489 -259.56)" fill="#fafafa"/>
      <path id="Trazado_128600" data-name="Trazado 128600" d="M122.57,423.882c0,.124,6.927.222,15.469.222s15.475-.1,15.475-.222-6.927-.222-15.475-.222S122.57,423.765,122.57,423.882Z" transform="translate(-73.053 -258.24)" fill="#fafafa"/>
    </g>
    <g id="freepik--Label--inject-2" transform="translate(1076.654 8055.604) rotate(-30)">
      <path id="Trazado_128601" data-name="Trazado 128601" d="M519.917,291.99l-43.57-48.949a18.455,18.455,0,0,0-13.646-6.182L319.26,235.82a18.442,18.442,0,0,0-18.58,18.488l.242,101.57a18.442,18.442,0,0,0,18.521,18.4l142.945-.6a18.435,18.435,0,0,0,13.907-6.385l43.832-50.975a18.456,18.456,0,0,0-.209-24.331Zm-24.246,17.645a27.945,27.945,0,1,1,0-.026Z" transform="translate(-300.68 -150.823)" fill="#7d6eb2"/>
      <path id="Trazado_128603" data-name="Trazado 128603" d="M531.457,291.99l-43.59-48.949a18.469,18.469,0,0,0-13.646-6.182L330.78,235.82a18.436,18.436,0,0,0-18.58,18.488l.235,101.57a18.449,18.449,0,0,0,18.586,18.4l142.938-.6a18.449,18.449,0,0,0,13.907-6.385l43.825-50.975A18.449,18.449,0,0,0,531.457,291.99Zm-24.239,17.645a27.789,27.789,0,1,1,0-.026Z" transform="translate(-304.671 -150.823)" fill="#62529b"/>
      <path id="Trazado_128604" data-name="Trazado 128604" d="M385.239,305.975c.111-12.312,7.7-20.07,18.338-19.965s17.978,7.888,17.867,20.3-7.607,20.07-18.24,19.972S385.122,318.287,385.239,305.975Zm25.768.242c.072-7.842-2.915-11.613-7.509-11.652-4.483-.046-7.653,3.784-7.725,11.509s3.026,11.607,7.509,11.652c4.594.039,7.653-3.686,7.725-11.509Zm36.068-18.952,12.417.118-50.55,72.541-12.417-.118ZM434.58,340.9c.118-12.312,7.7-20.07,18.24-19.972,10.639.1,18.076,8,17.965,20.3s-7.7,20.037-18.344,19.926C441.939,361.073,434.469,353.178,434.58,340.9Zm25.664.235c.072-7.718-2.915-11.607-7.509-11.646-4.483-.046-7.646,3.679-7.718,11.509s3.019,11.607,7.5,11.652c4.594.013,7.653-3.823,7.718-11.548Z" transform="translate(-329.977 -168.212)" fill="#fff"/>
      <path id="Trazado_128605" data-name="Trazado 128605" d="M621.147,360.342a6.663,6.663,0,0,1,1.431,1.026c.9.712,2.2,1.784,3.856,3.2s3.666,3.17,5.928,5.281,4.8,4.575,7.417,7.5a75.958,75.958,0,0,1,7.8,10.175l.928,1.483.876,1.549a33.983,33.983,0,0,1,1.66,3.268,20.448,20.448,0,0,1,1.869,7.542,11.909,11.909,0,0,1-.6,4.111,10.6,10.6,0,0,1-2.157,3.706,13.907,13.907,0,0,1-7.476,4.274,20.339,20.339,0,0,1-8.829-.209,38.626,38.626,0,0,1-8.385-3.091A52.4,52.4,0,0,1,611.4,399.7a67.65,67.65,0,0,1-5.431-6.313q-2.457-3.222-4.679-6.411A122.216,122.216,0,0,1,587.961,363c-.719-1.823-1.34-3.575-1.875-5.261-.261-.843-.51-1.666-.712-2.483a15.405,15.405,0,0,1-.477-2.411,5.98,5.98,0,0,1,1.078-4.385,6.378,6.378,0,0,1,3.1-2.157,8.687,8.687,0,0,1,1.555-.359,8.5,8.5,0,0,1,1.4-.033,6.572,6.572,0,0,1,2.13.464,4.327,4.327,0,0,1,1.137.7c.222.2.32.314.3.34s-.157-.046-.405-.2a5.032,5.032,0,0,0-1.15-.516,6.73,6.73,0,0,0-2.026-.288,9.384,9.384,0,0,0-1.307.1,8.487,8.487,0,0,0-1.418.405,5.758,5.758,0,0,0-2.667,2.013,5.117,5.117,0,0,0-.784,3.79,14.3,14.3,0,0,0,.51,2.268c.216.784.483,1.582.758,2.4q.856,2.47,1.961,5.15a126,126,0,0,0,13.5,23.527q2.222,3.137,4.686,6.32a66.766,66.766,0,0,0,5.339,6.143,51.426,51.426,0,0,0,13.62,10.117,37.421,37.421,0,0,0,8.038,2.967,18.8,18.8,0,0,0,8.1.229,12.372,12.372,0,0,0,6.614-3.725,9.608,9.608,0,0,0,2.405-6.705,19.037,19.037,0,0,0-1.725-7,33.035,33.035,0,0,0-1.562-3.163l-.817-1.51-.889-1.477a77,77,0,0,0-7.509-10.123c-2.523-2.928-4.973-5.437-7.189-7.607s-4.13-3.986-5.718-5.47l-3.608-3.424A7.181,7.181,0,0,1,621.147,360.342Z" transform="translate(-399.132 -188.962)" fill="#263238"/>
      <path id="Trazado_128606" data-name="Trazado 128606" d="M532.07,182.477c-.092,0-1.921-12.776-4.091-28.565s-3.849-28.6-3.751-28.611,1.921,12.776,4.091,28.565S532.168,182.464,532.07,182.477Z" transform="translate(-378.133 -112.53)" fill="#263238"/>
      <path id="Trazado_128607" data-name="Trazado 128607" d="M604.1,105.76a.821.821,0,0,1-.059.2l-.209.569-.83,2.176-3.111,7.986c-2.614,6.744-6.2,16.077-10,26.448s-7.1,19.8-9.456,26.644c-1.17,3.4-2.117,6.169-2.777,8.11-.327.935-.582,1.673-.765,2.2-.085.235-.157.418-.209.569a.975.975,0,0,1-.078.19.686.686,0,0,1,.046-.2l.177-.582c.163-.529.4-1.307.7-2.222.614-1.928,1.529-4.712,2.679-8.143,2.3-6.862,5.568-16.338,9.372-26.683s7.4-19.7,10.084-26.422c1.307-3.359,2.444-6.078,3.222-7.947l.9-2.15c.1-.229.183-.412.242-.555Z" transform="translate(-396.284 -105.76)" fill="#263238"/>
      <path id="Trazado_128608" data-name="Trazado 128608" d="M655.485,182.72c.059.072-9.293,7.4-20.913,16.338s-21.043,16.168-21.1,16.09,9.3-7.4,20.913-16.338S655.432,182.641,655.485,182.72Z" transform="translate(-409.055 -132.425)" fill="#263238"/>
      <path id="Trazado_128609" data-name="Trazado 128609" d="M493.08,205.411c-.078.059-3.692-4.575-8.078-10.3s-7.888-10.456-7.842-10.5,3.692,4.575,8.077,10.3S493.151,205.353,493.08,205.411Z" transform="translate(-361.826 -133.08)" fill="#263238"/>
      <path id="Trazado_128610" data-name="Trazado 128610" d="M657.477,267.615c0,.091-5.758-1.5-12.8-3.555s-12.731-3.79-12.7-3.882,5.757,1.5,12.8,3.555S657.509,267.524,657.477,267.615Z" transform="translate(-415.465 -159.261)" fill="#263238"/>
      <path id="Trazado_128611" data-name="Trazado 128611" d="M544.99,267.637l4.248-2.444,2.255-4.353,2.451,4.248,4.352,2.261-4.248,2.444-2.261,4.352-2.444-4.248Z" transform="translate(-385.328 -159.492)" fill="#fff"/>
      <path id="Trazado_128612" data-name="Trazado 128612" d="M509.85,259.659l1.49-.856.791-1.523.856,1.483,1.523.791-1.49.856-.791,1.523-.856-1.483Z" transform="translate(-373.153 -158.258)" fill="#fff"/>
      <path id="Trazado_128613" data-name="Trazado 128613" d="M532.29,304.411l2.875-1.653,1.529-2.947,1.653,2.875,2.947,1.529-2.875,1.653-1.529,2.947-1.653-2.875Z" transform="translate(-380.928 -172.994)" fill="#fff"/>
    </g>
    <g id="freepik--Floor--inject-2" transform="translate(967.75 8309.667)">
      <path id="Trazado_128614" data-name="Trazado 128614" d="M478.094,447.7c0,.091-100.806.17-225.125.17S27.83,447.791,27.83,447.7s100.78-.17,225.138-.17S478.094,447.6,478.094,447.7Z" transform="translate(-27.83 -447.53)" fill="#263238"/>
    </g>
    <g id="freepik--Character--inject-2" transform="translate(1040.79 8132.786)">
      <path id="Trazado_128615" data-name="Trazado 128615" d="M213.115,430.06s-27.258,7.555-28.389,7.94c-1.64.575-1.366,6.6,1.2,6.535,1.209-.046,20.958.732,23.455.575s9.215-2.8,9.215-2.8Z" transform="translate(-154.876 -264.596)" fill="#455a64"/>
      <path id="Trazado_128616" data-name="Trazado 128616" d="M209.648,443.112a23.869,23.869,0,0,0-1.2-2.928c-.882-1.5-2.013-2.4-1.928-2.51a4.663,4.663,0,0,1,2.327,2.281A4.962,4.962,0,0,1,209.648,443.112Z" transform="translate(-162.78 -267.231)" fill="#263238"/>
      <path id="Trazado_128617" data-name="Trazado 128617" d="M214.273,441.235c-.137,0-.412-1.268-1.137-2.693s-1.588-2.425-1.49-2.516a4.984,4.984,0,0,1,1.9,2.313A5.3,5.3,0,0,1,214.273,441.235Z" transform="translate(-164.556 -266.661)" fill="#263238"/>
      <path id="Trazado_128618" data-name="Trazado 128618" d="M218.61,440.043a17.919,17.919,0,0,0-.653-2.889,25.591,25.591,0,0,0-1.49-2.549,3.909,3.909,0,0,1,1.915,2.385A4.484,4.484,0,0,1,218.61,440.043Z" transform="translate(-166.226 -266.169)" fill="#263238"/>
      <path id="Trazado_128619" data-name="Trazado 128619" d="M218.839,434.17a4.928,4.928,0,0,1-.294-2.026,9.805,9.805,0,0,1,.294-2.242,8.606,8.606,0,0,1,.405-1.268,1.5,1.5,0,0,1,.438-.654.725.725,0,0,1,.935.046,1.228,1.228,0,0,1,.366.771,5.4,5.4,0,0,1,0,.719,5.882,5.882,0,0,1-.17,1.307,8.19,8.19,0,0,1-.837,2.085,5.537,5.537,0,0,1-1.229,1.64c-.059-.039.4-.654.941-1.791a8.808,8.808,0,0,0,.712-2.026,5.988,5.988,0,0,0,.137-1.248c0-.418,0-.941-.255-1.144a.261.261,0,0,0-.359-.033,1.131,1.131,0,0,0-.3.477,9.368,9.368,0,0,0-.412,1.2,10.658,10.658,0,0,0-.359,2.13C218.793,433.386,218.917,434.163,218.839,434.17Z" transform="translate(-166.945 -263.824)" fill="#263238"/>
      <path id="Trazado_128620" data-name="Trazado 128620" d="M219.06,436.952a3.848,3.848,0,0,1,1.764-.288,7.876,7.876,0,0,1,1.961.242,4.037,4.037,0,0,1,1.118.412,1.144,1.144,0,0,1,.614,1.242,1.366,1.366,0,0,1-.987.974,2.49,2.49,0,0,1-1.222,0,5.823,5.823,0,0,1-3.039-2.124,12.312,12.312,0,0,1,1.451.987,4.854,4.854,0,0,0,1.673.725,2.124,2.124,0,0,0,1.013,0,.935.935,0,0,0,.654-.654.7.7,0,0,0-.405-.758,3.973,3.973,0,0,0-.993-.386,8.912,8.912,0,0,0-1.836-.32C219.74,436.913,219.073,437.024,219.06,436.952Z" transform="translate(-167.127 -266.881)" fill="#263238"/>
      <path id="Trazado_128621" data-name="Trazado 128621" d="M203.914,444a14.733,14.733,0,0,0-.542-2.457c-.542-1.274-1.418-2.032-1.307-2.137s1.183.536,1.758,1.961A3.153,3.153,0,0,1,203.914,444Z" transform="translate(-161.236 -267.83)" fill="#263238"/>
      <path id="Trazado_128622" data-name="Trazado 128622" d="M218.471,448.366a6.472,6.472,0,0,1-1.059.5,23.975,23.975,0,0,1-3.039.941,43.03,43.03,0,0,1-10.417.987c-4.091-.046-7.777-.229-10.456-.34l-3.163-.163a5.813,5.813,0,0,1-1.157-.124,5.3,5.3,0,0,1,1.189-.078h3.17l10.456.2a48.667,48.667,0,0,0,10.345-.843C216.942,448.954,218.471,448.281,218.471,448.366Z" transform="translate(-156.775 -270.936)" fill="#263238"/>
      <path id="Trazado_128623" data-name="Trazado 128623" d="M228.247,448.1a22.026,22.026,0,0,1-2.046-.928,9.568,9.568,0,0,0-5.163-.856,8.185,8.185,0,0,0-4.464,2.653A15.292,15.292,0,0,1,215,450.577a8.554,8.554,0,0,1,1.34-1.823,10.72,10.72,0,0,1,1.81-1.693,6.483,6.483,0,0,1,2.817-1.2,9.031,9.031,0,0,1,5.372,1.019,7.226,7.226,0,0,1,1.908,1.216Z" transform="translate(-165.721 -270.05)" fill="#263238"/>
      <path id="Trazado_128624" data-name="Trazado 128624" d="M192.717,447.55a9.806,9.806,0,0,1,.4-1.033,5.025,5.025,0,0,0-.9-4.888c-.431-.523-.778-.771-.745-.823s.431.144.935.653a4.653,4.653,0,0,1,.954,5.163C193.063,447.262,192.75,447.576,192.717,447.55Z" transform="translate(-157.567 -268.316)" fill="#263238"/>
      <path id="Trazado_128625" data-name="Trazado 128625" d="M269.719,431.3s28,4.254,29.128,4.509c1.706.379,2.143,6.391-.405,6.6-1.209.1-20.73,3.222-23.226,3.366s-10.326-1.908-10.326-1.908Z" transform="translate(-183.006 -265.026)" fill="#455a64"/>
      <path id="Trazado_128626" data-name="Trazado 128626" d="M291.392,441.982a25.738,25.738,0,0,1,.843-3.052c.693-1.6,1.719-2.614,1.621-2.725a4.688,4.688,0,0,0-2.039,2.549A4.93,4.93,0,0,0,291.392,441.982Z" transform="translate(-192.151 -266.722)" fill="#263238"/>
      <path id="Trazado_128627" data-name="Trazado 128627" d="M286.847,440.7c.137,0,.255-1.307.81-2.81s1.307-2.614,1.176-2.673a4.92,4.92,0,0,0-1.608,2.516A5.267,5.267,0,0,0,286.847,440.7Z" transform="translate(-190.586 -266.383)" fill="#263238"/>
      <path id="Trazado_128628" data-name="Trazado 128628" d="M282.536,440a18.331,18.331,0,0,1,.288-2.941A29.164,29.164,0,0,1,284,434.346c-.131-.1-1.183.889-1.614,2.614A4.192,4.192,0,0,0,282.536,440Z" transform="translate(-189.007 -266.079)" fill="#263238"/>
      <path id="Trazado_128629" data-name="Trazado 128629" d="M281.341,434.3a4.718,4.718,0,0,0,.052-2.046,9.42,9.42,0,0,0-.542-2.176,9.054,9.054,0,0,0-.555-1.216,1.5,1.5,0,0,0-.51-.608.732.732,0,0,0-.928.157,1.222,1.222,0,0,0-.268.81,5.171,5.171,0,0,0,.052.719,5.879,5.879,0,0,0,.327,1.307,8.2,8.2,0,0,0,1.078,1.961,5.654,5.654,0,0,0,1.412,1.49,18.2,18.2,0,0,0-1.144-1.666,9.037,9.037,0,0,1-.954-1.961,5.963,5.963,0,0,1-.275-1.222c-.039-.418-.1-.934.111-1.163a.261.261,0,0,1,.353-.072,1.137,1.137,0,0,1,.359.438,9.147,9.147,0,0,1,.549,1.144,11.03,11.03,0,0,1,.614,2.072C281.3,433.524,281.269,434.3,281.341,434.3Z" transform="translate(-187.753 -263.936)" fill="#263238"/>
      <path id="Trazado_128630" data-name="Trazado 128630" d="M279.924,437.066a3.822,3.822,0,0,0-1.764-.1,8.112,8.112,0,0,0-1.9.464,4.286,4.286,0,0,0-1.059.542,1.15,1.15,0,0,0-.464,1.307,1.386,1.386,0,0,0,1.1.856,2.558,2.558,0,0,0,1.216-.15,5.882,5.882,0,0,0,2.764-2.47,12.338,12.338,0,0,0-1.307,1.15,4.822,4.822,0,0,1-1.575.921,2.2,2.2,0,0,1-1.006.1.947.947,0,0,1-.739-.562.719.719,0,0,1,.314-.81,4.261,4.261,0,0,1,.935-.5,8.706,8.706,0,0,1,1.791-.536C279.244,437.112,279.924,437.138,279.924,437.066Z" transform="translate(-186.401 -266.969)" fill="#263238"/>
      <path id="Trazado_128631" data-name="Trazado 128631" d="M297.685,442.19a15.549,15.549,0,0,1,.242-2.51,17.177,17.177,0,0,1,1.078-2.274c-.1-.091-1.118.654-1.516,2.157A3.231,3.231,0,0,0,297.685,442.19Z" transform="translate(-194.248 -267.139)" fill="#263238"/>
      <path id="Trazado_128632" data-name="Trazado 128632" d="M269.17,449.208a5.733,5.733,0,0,0,1.111.366,23.23,23.23,0,0,0,3.124.575,43.094,43.094,0,0,0,10.456-.255c4.058-.536,7.692-1.157,10.332-1.582l3.124-.542a5.371,5.371,0,0,0,1.131-.261,5.465,5.465,0,0,0-1.157.085l-3.143.4L283.8,449.436a48.711,48.711,0,0,1-10.371.392C270.784,449.606,269.19,449.136,269.17,449.208Z" transform="translate(-184.489 -270.641)" fill="#263238"/>
      <path id="Trazado_128633" data-name="Trazado 128633" d="M268.06,449.565c.046.059.732-.464,1.921-1.163a9.463,9.463,0,0,1,5.026-1.464,8.178,8.178,0,0,1,4.745,2.1,16.926,16.926,0,0,0,1.751,1.412,8.209,8.209,0,0,0-1.542-1.653,10.723,10.723,0,0,0-2-1.47,6.534,6.534,0,0,0-2.941-.85,9.038,9.038,0,0,0-5.228,1.647A7.228,7.228,0,0,0,268.06,449.565Z" transform="translate(-184.105 -270.285)" fill="#263238"/>
      <path id="Trazado_128634" data-name="Trazado 128634" d="M371.694,247.881a1.719,1.719,0,0,0-.817-.8l.654-1.307a3.823,3.823,0,0,0-.386-1.346c-.327-.562-1.47-.516-1.47-.516l.176-.373a1.686,1.686,0,0,0-.144-1.647c-.052-.072-.1-.144-.17-.222a2.725,2.725,0,0,0-1.444-.732s.654-1.255.359-1.784a2.719,2.719,0,0,0-2.784-1.1,39.481,39.481,0,0,0-5.065,2.418,1.2,1.2,0,0,1-1.7-.654,17.188,17.188,0,0,0-2.477-4.653c-1.229-1.477-2.379-1.359-3.052-1.1a.555.555,0,0,0-.274.8,29.816,29.816,0,0,1,1.778,3.268,73.247,73.247,0,0,1,.654,7.3l-1.764,3.359-17.8,28.108s-26.892-18.122-26.794-18.573l-1.268,20.782,20.259,13.463a14.273,14.273,0,0,0,20.971-6.169l13.639-29.6,1.653-2.418,6.424-4.117S371.922,248.423,371.694,247.881Z" transform="translate(-197.912 -196.633)" fill="#ffbe9d"/>
      <path id="Trazado_128635" data-name="Trazado 128635" d="M396.8,243.627a1.193,1.193,0,0,1-.124.118l-.386.314c-.359.274-.85.654-1.438,1.118l-2.15,1.634a13.485,13.485,0,0,1-1.307.941,1.888,1.888,0,0,1-1.706.229,1.307,1.307,0,0,1-.654-.654,1.876,1.876,0,0,1-.15-.856,2.47,2.47,0,0,1,.654-1.464,9.151,9.151,0,0,1,1.072-.98l.967-.8,1.412-1.157.386-.307c.092-.065.137-.1.144-.1l-.124.124-.366.333-1.372,1.189-.954.817a9.086,9.086,0,0,0-1.046.98,2.293,2.293,0,0,0-.654,1.372,1.353,1.353,0,0,0,.686,1.353,1.405,1.405,0,0,0,.8.078,2.288,2.288,0,0,0,.758-.294c.457-.281.876-.654,1.307-.921l2.163-1.614,1.47-1.072.405-.288Z" transform="translate(-225.968 -199.319)" fill="#eb996e"/>
      <path id="Trazado_128636" data-name="Trazado 128636" d="M399.382,249.3a1.714,1.714,0,0,1-.3.248c-.2.15-.49.366-.856.621-.725.5-1.751,1.183-2.921,1.869-.294.17-.575.346-.876.484a1.9,1.9,0,0,1-.934.176,1.464,1.464,0,0,1-1.209-.974,1.438,1.438,0,0,1,.078-1.059,1.364,1.364,0,0,1,.163-.242c.046-.052.072-.072.078-.072a2.876,2.876,0,0,0-.183.34,1.431,1.431,0,0,0,0,.993,1.307,1.307,0,0,0,1.111.863,1.771,1.771,0,0,0,.856-.176,9.412,9.412,0,0,0,.856-.471c1.17-.686,2.2-1.346,2.947-1.83l.876-.575a2.287,2.287,0,0,1,.314-.2Z" transform="translate(-227.123 -201.967)" fill="#eb996e"/>
      <path id="Trazado_128637" data-name="Trazado 128637" d="M400.963,253.82a1.667,1.667,0,0,1-.307.176l-.869.438c-.738.366-1.765.856-2.9,1.392a7.933,7.933,0,0,1-.85.366,1.641,1.641,0,0,1-.882.072.948.948,0,0,1-.654-.471,1.1,1.1,0,0,1-.1-.693,1.5,1.5,0,0,1,.516-.843c.176-.15.294-.209.3-.2a3.355,3.355,0,0,1-.261.242,1.529,1.529,0,0,0-.438.817.968.968,0,0,0,.1.608.83.83,0,0,0,.569.392,1.477,1.477,0,0,0,.8-.078,7.5,7.5,0,0,0,.83-.366c1.137-.529,2.163-1.006,2.915-1.346l.9-.386A1.2,1.2,0,0,1,400.963,253.82Z" transform="translate(-227.873 -203.533)" fill="#eb996e"/>
      <path id="Trazado_128638" data-name="Trazado 128638" d="M402.111,257.726a6.819,6.819,0,0,1-1.02.268c-.654.144-1.516.333-2.49.529l-.712.144a2.728,2.728,0,0,1-.686.078.967.967,0,0,1-.608-.216.654.654,0,0,1-.235-.516.935.935,0,0,1,.392-.686.49.49,0,0,1,.261-.118,1.446,1.446,0,0,0-.222.17.889.889,0,0,0-.314.654.523.523,0,0,0,.2.412.837.837,0,0,0,.523.17,2.942,2.942,0,0,0,.654-.085l.712-.15c.974-.2,1.856-.366,2.5-.484a7.514,7.514,0,0,1,1.046-.17Z" transform="translate(-228.558 -204.707)" fill="#eb996e"/>
      <path id="Trazado_128639" data-name="Trazado 128639" d="M392.567,255.809a9.4,9.4,0,0,0-1.83-.183,8.8,8.8,0,0,0-1.8.359,3.353,3.353,0,0,1,1.791-.523A3.438,3.438,0,0,1,392.567,255.809Z" transform="translate(-225.987 -204.097)" fill="#eb996e"/>
      <path id="Trazado_128640" data-name="Trazado 128640" d="M243.707,222.428s-9.045-7.627-6.953-12.881,7.9-7.842,10.757-17.416c2.281-7.633,15.867-22.363,31.97-11.254,0,0,5.45-.856,8.548,1.627s3.849,7.437,5.163,13.155c2.026,8.816,3.137,15.593-.784,19.906s-5.359,5.47-5.15,10.371c.275,6.4,3.1,5.542.654,10.208l-13.5-4.4-.144-3.719-1.366,3.5-7.842-2.823Z" transform="translate(-173.149 -176.872)" fill="#263238"/>
      <path id="Trazado_128641" data-name="Trazado 128641" d="M304.344,197.36c-.876,2.013-.157,4.339.654,6.378s1.8,4.189,1.379,6.346c-.745,3.823-5.5,5.954-6.019,9.8-.281,2.065.752,4.169.353,6.222s-2.046,3.477-3.8,4.47-3.7,1.66-5.352,2.823c0,0-3.634,2.98-9.894-1.928" transform="translate(-188.817 -183.971)" fill="#263238"/>
      <path id="Trazado_128642" data-name="Trazado 128642" d="M268.018,189.664a3.333,3.333,0,0,0-3.921,2.215h0l-12.972,43.067c-1.68,5.039,4.66,10.417,10.064,12.169h0c5.463,1.771,6.568-.823,8.3-5.568,2.9-7.921,3.921-10.914,3.921-10.868s7.241,1.242,11.763-7.189c2.248-4.2,4.575-11.567,6.254-17.645,1.529-5.477.261-13.293-5.274-14.58Z" transform="translate(-178.142 -181.274)" fill="#ffbe9d"/>
      <path id="Trazado_128643" data-name="Trazado 128643" d="M304.679,220.555a1.209,1.209,0,0,1-1.51.771,1.163,1.163,0,0,1-.823-1.444,1.216,1.216,0,0,1,1.51-.771,1.163,1.163,0,0,1,.823,1.444Z" transform="translate(-195.969 -191.488)" fill="#263238"/>
      <path id="Trazado_128644" data-name="Trazado 128644" d="M306.29,217.848c-.19.1-.837-.843-2.072-1.268s-2.353-.124-2.431-.32c-.046-.092.2-.314.654-.464a3.353,3.353,0,0,1,2.013.072,3.228,3.228,0,0,1,1.588,1.2C306.349,217.462,306.388,217.783,306.29,217.848Z" transform="translate(-195.788 -190.316)" fill="#263238"/>
      <path id="Trazado_128645" data-name="Trazado 128645" d="M285.963,214.577a1.216,1.216,0,0,1-1.5.778,1.163,1.163,0,0,1-.824-1.444,1.216,1.216,0,0,1,1.5-.778,1.163,1.163,0,0,1,.823,1.444Z" transform="translate(-189.486 -189.418)" fill="#263238"/>
      <path id="Trazado_128646" data-name="Trazado 128646" d="M287.466,212.16c-.2.1-.843-.843-2.078-1.268s-2.353-.124-2.431-.32c-.046-.091.2-.307.686-.457a3.3,3.3,0,0,1,2.013.072,3.182,3.182,0,0,1,1.588,1.2C287.519,211.8,287.558,212.121,287.466,212.16Z" transform="translate(-189.264 -188.347)" fill="#263238"/>
      <path id="Trazado_128647" data-name="Trazado 128647" d="M291.84,224.136a8.5,8.5,0,0,1,2.131.333c.327.078.653.118.771-.078a1.719,1.719,0,0,0,.111-1.006c0-.863-.059-1.771-.092-2.719a43.2,43.2,0,0,1,.085-7.006,43.141,43.141,0,0,1,.477,6.993c0,.948.033,1.856.052,2.725a1.908,1.908,0,0,1-.268,1.307.817.817,0,0,1-.654.281,2.084,2.084,0,0,1-.556-.111A8.533,8.533,0,0,1,291.84,224.136Z" transform="translate(-192.344 -189.618)" fill="#263238"/>
      <path id="Trazado_128648" data-name="Trazado 128648" d="M279.625,248.572a24,24,0,0,1-10.855-7.352s.882,7.189,10.117,9.47Z" transform="translate(-184.351 -199.167)" fill="#eb996e"/>
      <path id="Trazado_128649" data-name="Trazado 128649" d="M287.336,233.162a2.333,2.333,0,0,0-1.706-1.516,2.144,2.144,0,0,0-1.66.261,1.346,1.346,0,0,0-.608,1.438,1.568,1.568,0,0,0,1.47.967,4.836,4.836,0,0,0,1.9-.392,1.464,1.464,0,0,0,.484-.242.444.444,0,0,0,.157-.457" transform="translate(-189.396 -195.827)" fill="#eb996e"/>
      <path id="Trazado_128650" data-name="Trazado 128650" d="M288.1,207.1c-.19.327-1.438-.085-2.98-.19s-2.83.072-2.973-.274c-.059-.17.216-.457.771-.7a4.894,4.894,0,0,1,2.307-.346,4.954,4.954,0,0,1,2.229.7C287.962,206.615,288.191,206.942,288.1,207.1Z" transform="translate(-188.983 -186.815)" fill="#263238"/>
      <path id="Trazado_128651" data-name="Trazado 128651" d="M308.709,211.529c-.34.209-1.307-.379-2.542-.745s-2.359-.457-2.523-.823c-.065-.176.183-.418.719-.556a4.5,4.5,0,0,1,4.085,1.261C308.807,211.071,308.866,211.418,308.709,211.529Z" transform="translate(-196.43 -188.114)" fill="#263238"/>
      <path id="Trazado_128652" data-name="Trazado 128652" d="M254,217.034q3.647-12.214,7.3-24.442c.5-1.673,1.072-3.457,2.464-4.509a7.694,7.694,0,0,1,4.725-1.144,89.436,89.436,0,0,1,21.174,2.091c.327,1.653-1.1,3.228-2.712,3.771a16.2,16.2,0,0,1-5.032.366c-1.686.02-3.536.32-4.679,1.568s-1.34,3.372-2.49,4.758c-1.961,2.379-6.124,1.876-8.091,4.267-1.483,1.81-1.085,4.457-1.575,6.744-.556,2.614-.556,2.614-2.614,6.418-1.248,2.34,1.889,6.81-1.235,12.606L255.17,227.8l2.66-8.953-3.608,8.4Z" transform="translate(-179.233 -180.354)" fill="#263238"/>
      <path id="Trazado_128653" data-name="Trazado 128653" d="M285.792,229.453c.124.072.059.4.052.869a3.157,3.157,0,0,0,1.536,2.928c.386.261.693.392.654.536s-.372.268-.954.131a2.869,2.869,0,0,1-1.961-3.751C285.361,229.6,285.681,229.381,285.792,229.453Z" transform="translate(-189.956 -195.086)" fill="#263238"/>
      <path id="Trazado_128654" data-name="Trazado 128654" d="M278.092,199.4a1.307,1.307,0,0,1-.34.19,9.955,9.955,0,0,0-.961.536,11.62,11.62,0,0,0-5.352,8.071,13.173,13.173,0,0,0,0,3.509,21.066,21.066,0,0,1,.229,3.843,6.948,6.948,0,0,1-.412,1.961,12.268,12.268,0,0,1-.869,1.706,8.5,8.5,0,0,0-1.372,3.2,10.821,10.821,0,0,0,.085,3.163c.137,1,.314,1.961.379,2.791a7.379,7.379,0,0,1-.595,4.026,4.221,4.221,0,0,1-.654.908c-.19.176-.294.261-.3.248a5.881,5.881,0,0,0,.83-1.216,7.568,7.568,0,0,0,.477-3.921c-.085-.85-.274-1.771-.425-2.771a10.954,10.954,0,0,1-.111-3.268c.255-2.4,2.575-4.169,2.614-6.81a21.3,21.3,0,0,0-.216-3.784,13.242,13.242,0,0,1,0-3.594,11.515,11.515,0,0,1,2.477-5.5,10.907,10.907,0,0,1,3.117-2.614,7.027,7.027,0,0,1,1-.477A1.392,1.392,0,0,1,278.092,199.4Z" transform="translate(-184.06 -184.678)" fill="#263238"/>
      <path id="Trazado_128655" data-name="Trazado 128655" d="M323.347,232.891l-.111.091c-.078.052-.19.144-.346.235a5.476,5.476,0,0,1-1.484.6,6.169,6.169,0,0,1-2.542.092,5.6,5.6,0,0,1-3.006-1.5,6.117,6.117,0,0,1-1.8-3.64,5.606,5.606,0,0,1,.15-2.294,7.072,7.072,0,0,1,1.072-2.183,29.066,29.066,0,0,1,3.614-3.686,13.722,13.722,0,0,0,1.778-2.006,9.917,9.917,0,0,0,1.222-2.457,15.959,15.959,0,0,0,.686-5.392,38.983,38.983,0,0,0-.529-5.091,47.587,47.587,0,0,0-2.17-8.385,50.6,50.6,0,0,0-2.287-5.392c-.307-.621-.555-1.1-.725-1.418a3,3,0,0,1-.255-.471,3.343,3.343,0,0,1,.3.471c.189.307.457.778.784,1.392a44.051,44.051,0,0,1,2.4,5.365,46.2,46.2,0,0,1,2.261,8.417,38.272,38.272,0,0,1,.555,5.137,16.058,16.058,0,0,1-.7,5.5,9.937,9.937,0,0,1-1.261,2.542,14.234,14.234,0,0,1-1.83,2.059,29.27,29.27,0,0,0-3.588,3.627,6.745,6.745,0,0,0-1.039,2.078,5.528,5.528,0,0,0-.163,2.183,5.948,5.948,0,0,0,1.693,3.5,5.515,5.515,0,0,0,2.869,1.483,6.077,6.077,0,0,0,2.477-.039,7.02,7.02,0,0,0,1.974-.83Z" transform="translate(-200.024 -181.421)" fill="#263238"/>
      <path id="Trazado_128656" data-name="Trazado 128656" d="M243.23,222.924a5.646,5.646,0,0,0,2.1-1.046,8.359,8.359,0,0,0,2.784-5.614,32.725,32.725,0,0,0,.118-4.464,19.711,19.711,0,0,1,.4-5.163,9.622,9.622,0,0,1,1.052-2.614,6.209,6.209,0,0,1,2.065-2.117c1.771-1.085,3.921-1.033,5.882-1.706a6.216,6.216,0,0,0,2.5-1.64,15.62,15.62,0,0,0,1.764-2.385c1.046-1.647,2.052-3.379,3.647-4.4a6.241,6.241,0,0,1,2.529-.921,13.725,13.725,0,0,1,2.516-.1,25.812,25.812,0,0,0,4.464-.039,13.273,13.273,0,0,0,5.934-2.366,16.471,16.471,0,0,0,1.359-1.111l.333-.314.124-.1a9.148,9.148,0,0,1-1.738,1.634,13.188,13.188,0,0,1-5.98,2.5,26.143,26.143,0,0,1-4.5.078,8.346,8.346,0,0,0-4.869,1.013,13.884,13.884,0,0,0-3.536,4.313,15.79,15.79,0,0,1-1.8,2.444,6.535,6.535,0,0,1-2.614,1.725c-2.013.693-4.156.654-5.81,1.673a7.117,7.117,0,0,0-2.987,4.522,19.518,19.518,0,0,0-.425,5.078,31.111,31.111,0,0,1-.157,4.5,8.411,8.411,0,0,1-2.941,5.686,4.705,4.705,0,0,1-1.575.817,4.336,4.336,0,0,1-.451.1A.484.484,0,0,1,243.23,222.924Z" transform="translate(-175.502 -180.315)" fill="#455a64"/>
      <path id="Trazado_128657" data-name="Trazado 128657" d="M253.25,195.041a8.59,8.59,0,0,0,1.307.346,6.365,6.365,0,0,0,3.529-.582,14.762,14.762,0,0,0,4.222-3.326c.719-.732,1.47-1.516,2.32-2.255a10.574,10.574,0,0,1,2.947-1.882,9.549,9.549,0,0,1,3.444-.654,28.415,28.415,0,0,1,3.235.176c1.019.1,1.961.2,2.889.209a12.948,12.948,0,0,0,2.5-.2,6.894,6.894,0,0,0,3.268-1.451,12.589,12.589,0,0,0,.922-.961,1.566,1.566,0,0,1-.176.3,2.684,2.684,0,0,1-.255.34,3.4,3.4,0,0,1-.405.418,6.8,6.8,0,0,1-3.326,1.588,12.769,12.769,0,0,1-2.549.248c-.921,0-1.9-.091-2.921-.176a28.054,28.054,0,0,0-3.2-.157,9.248,9.248,0,0,0-3.326.614c-2.163.9-3.719,2.614-5.169,4.045a14.41,14.41,0,0,1-4.346,3.32,6.268,6.268,0,0,1-3.647.5,4.222,4.222,0,0,1-.967-.307A1.707,1.707,0,0,1,253.25,195.041Z" transform="translate(-178.973 -179.501)" fill="#455a64"/>
      <path id="Trazado_128658" data-name="Trazado 128658" d="M319.065,214.138a4.935,4.935,0,0,0,.32-1.248,5.358,5.358,0,0,0-.928-3.3,21.311,21.311,0,0,0-3.588-3.8,9.626,9.626,0,0,1-1.9-2.51,8.815,8.815,0,0,1-.81-3.268c-.15-2.32.248-4.49.2-6.457a7.842,7.842,0,0,0-1.438-4.875,4.856,4.856,0,0,0-2.869-1.836,5.562,5.562,0,0,0-1.307-.033,1.125,1.125,0,0,1,.333-.091,3.581,3.581,0,0,1,.974,0,4.862,4.862,0,0,1,3.039,1.817,7.946,7.946,0,0,1,1.562,5.019c.026,1.993-.32,4.176-.17,6.437a8.562,8.562,0,0,0,.771,3.163,9.261,9.261,0,0,0,1.823,2.438,20.377,20.377,0,0,1,3.568,3.921,5.34,5.34,0,0,1,.856,3.444,3.1,3.1,0,0,1-.275.935A1.177,1.177,0,0,1,319.065,214.138Z" transform="translate(-197.507 -180.273)" fill="#455a64"/>
      <path id="Trazado_128659" data-name="Trazado 128659" d="M235.629,216.32a3.88,3.88,0,0,1-.418-.229,4.862,4.862,0,0,1-1.013-.915,5.921,5.921,0,0,1-1.255-4.771,5.77,5.77,0,0,1,.556-1.6,6.364,6.364,0,0,1,1.15-1.425,14.66,14.66,0,0,1,3.4-2.091,13.273,13.273,0,0,0,3.634-2.313,8.568,8.568,0,0,0,2.059-4.065c.392-1.549.654-3.117,1.17-4.575a19.82,19.82,0,0,1,1.9-3.98,20.749,20.749,0,0,1,4.967-5.522A19.342,19.342,0,0,1,256.1,182.3a12.1,12.1,0,0,1,1.274-.477,2.083,2.083,0,0,1,.457-.131c0,.039-.614.235-1.68.732a20.051,20.051,0,0,0-4.228,2.614,20.86,20.86,0,0,0-4.849,5.5,19.523,19.523,0,0,0-1.849,3.921c-.5,1.425-.758,2.974-1.163,4.575a8.81,8.81,0,0,1-2.15,4.215,13.47,13.47,0,0,1-3.725,2.359,14.684,14.684,0,0,0-3.353,2.019,6.273,6.273,0,0,0-1.111,1.346,5.438,5.438,0,0,0-.549,1.516,6.1,6.1,0,0,0,.15,2.764,5.587,5.587,0,0,0,.967,1.876A6.984,6.984,0,0,0,235.629,216.32Z" transform="translate(-171.907 -178.541)" fill="#263238"/>
      <path id="Trazado_128660" data-name="Trazado 128660" d="M324.582,215.428c-.033,0,.274-.314.693-.935a7.907,7.907,0,0,0,1.163-2.9,10.973,10.973,0,0,0-.163-4.614,18.579,18.579,0,0,0-2.34-5.2c-1.078-1.732-2.242-3.3-3.222-4.784a26.976,26.976,0,0,1-2.307-4.13,13.617,13.617,0,0,1-.948-3.052,7.849,7.849,0,0,1-.1-.863,1.058,1.058,0,0,1,0-.3s.078.412.242,1.137a15.366,15.366,0,0,0,1.026,3.006,29.418,29.418,0,0,0,2.353,4.052c.987,1.47,2.163,3.032,3.268,4.784a18.435,18.435,0,0,1,2.359,5.3,11.013,11.013,0,0,1,.091,4.738,7.574,7.574,0,0,1-1.307,2.921,5.091,5.091,0,0,1-.575.654,1.1,1.1,0,0,1-.229.176Z" transform="translate(-201.18 -180.956)" fill="#263238"/>
      <path id="Trazado_128661" data-name="Trazado 128661" d="M195.115,368.782l-5.365,9.339s-26.67-9.757-42.283-6.914c-5.941,1.078-12.293,14.547-3.64,23.2,8.437,8.437,23.527,20.37,51.844,24.233.706.091,12.306,2.581,11.587,2.5s16.26,2.614,16.26,2.614l3.986-15.07,31.624,4.96c18.638-1.268,27.762-21.2,16.534-27.618-10.456-5.98-30.154-6.463-30.154-6.463l-7.136-11.188Z" transform="translate(-139.594 -243.222)" fill="#263238"/>
      <path id="Trazado_128662" data-name="Trazado 128662" d="M238.077,429.216c.078-.51.307-1.882.765-4.7.255-1.5.562-3.333.961-5.437.2-1.059.425-2.176.693-3.359.137-.595.281-1.2.457-1.817.085-.307.176-.614.288-.928a2.753,2.753,0,0,1,.484-.928l.046.229c-6.731-2.392-15.149-5.548-24.115-9.332-5.516-2.346-10.718-4.712-15.3-7.189a49.67,49.67,0,0,1-6.274-3.889c-1.856-1.372-3.516-2.745-5.071-3.921a27.53,27.53,0,0,0-7.953-4.666,13.523,13.523,0,0,0-1.392-.412,8.436,8.436,0,0,0-1.039-.222l-.654-.118-.222-.052a1.009,1.009,0,0,1,.229,0l.654.085a7.645,7.645,0,0,1,1.059.19,12.063,12.063,0,0,1,1.412.386,19.092,19.092,0,0,1,3.66,1.627,37.9,37.9,0,0,1,4.4,2.974c1.568,1.183,3.228,2.542,5.091,3.921a49.534,49.534,0,0,0,6.254,3.843c4.575,2.444,9.77,4.8,15.279,7.143,8.96,3.777,17.364,6.96,24.076,9.385l.189.072-.144.157a2.7,2.7,0,0,0-.412.823c-.111.3-.2.608-.294.908-.176.608-.327,1.215-.464,1.8-.275,1.176-.51,2.294-.719,3.346-.418,2.1-.745,3.921-1.02,5.424s-.5,2.647-.654,3.464c-.078.4-.137.706-.19.908a2.218,2.218,0,0,1-.078.288Z" transform="translate(-153.507 -248.107)" fill="#455a64"/>
      <path id="Trazado_128663" data-name="Trazado 128663" d="M304.4,397.715h-.176l-.49-.078c-.431-.059-1.059-.216-1.889-.3a36.781,36.781,0,0,0-7.012-.248,52.354,52.354,0,0,0-10.273,1.7c-1.9.5-3.869,1.1-5.882,1.8s-4.078,1.5-6.189,2.346a56.865,56.865,0,0,1-6.306,2.085c-2.072.569-4.091,1.013-6.026,1.386-3.869.758-7.391,1.222-10.345,1.582s-5.352.6-7.006.771l-1.908.19-.5.039a.564.564,0,0,1-.17,0h.163l.5-.072,1.9-.255,6.993-.876c2.954-.392,6.463-.882,10.313-1.653,1.928-.379,3.921-.83,6-1.405a58.631,58.631,0,0,0,6.274-2.072c2.1-.843,4.176-1.653,6.208-2.346s4.006-1.307,5.914-1.8a50.918,50.918,0,0,1,10.339-1.627,34.586,34.586,0,0,1,7.045.353c.83.1,1.451.288,1.882.366l.49.111A.589.589,0,0,1,304.4,397.715Z" transform="translate(-174.462 -253.086)" fill="#455a64"/>
      <path id="Trazado_128664" data-name="Trazado 128664" d="M250.239,388.374c0,.222-1.412.582-3.784.8a49.471,49.471,0,0,1-18.377-1.961c-2.268-.719-3.594-1.379-3.529-1.595.15-.471,5.751,1.02,12.809,1.751S250.193,387.877,250.239,388.374Z" transform="translate(-169.028 -249.168)" fill="#263238"/>
      <path id="Trazado_128665" data-name="Trazado 128665" d="M289.584,385.83a7.175,7.175,0,0,1-1.046.281,12.141,12.141,0,0,0-1.222.314c-.471.137-1.013.281-1.595.49a39.723,39.723,0,0,0-4.039,1.6c-1.477.706-3.072,1.542-4.7,2.51a74.2,74.2,0,0,0-7.914,5.568c-.967.771-1.745,1.412-2.274,1.856a6.188,6.188,0,0,1-.856.654,7.24,7.24,0,0,1,.765-.765c.51-.477,1.261-1.144,2.215-1.961a62.914,62.914,0,0,1,7.895-5.679,50.179,50.179,0,0,1,4.738-2.5,34.48,34.48,0,0,1,4.1-1.549c.588-.2,1.137-.327,1.621-.444a10.709,10.709,0,0,1,1.242-.261A6.266,6.266,0,0,1,289.584,385.83Z" transform="translate(-183.37 -249.271)" fill="#455a64"/>
      <path id="Trazado_128666" data-name="Trazado 128666" d="M250.389,403.208a7.553,7.553,0,0,1-1.876-.536,40.264,40.264,0,0,1-4.281-1.928l-4.137-2.176a14.685,14.685,0,0,1-1.706-.928,9.525,9.525,0,0,1,1.817.712c1.091.5,2.568,1.255,4.2,2.085s3.111,1.549,4.215,2.013A15.876,15.876,0,0,1,250.389,403.208Z" transform="translate(-173.825 -253.363)" fill="#455a64"/>
      <path id="Trazado_128667" data-name="Trazado 128667" d="M260.826,370.72c.052,0-.039.98-.137,2.555s-.19,3.751-.144,6.156.222,4.575.379,6.156a25.424,25.424,0,0,1,.242,2.549,2.5,2.5,0,0,1-.17-.654c-.091-.431-.2-1.065-.307-1.849a52.2,52.2,0,0,1-.484-6.176,53.7,53.7,0,0,1,.242-6.182c.085-.791.163-1.425.235-1.863A2.91,2.91,0,0,1,260.826,370.72Z" transform="translate(-181.38 -244.036)" fill="#455a64"/>
      <path id="Trazado_128668" data-name="Trazado 128668" d="M265.178,372.051a3.052,3.052,0,0,0-.281.3,1.856,1.856,0,0,0-.418.961,1.81,1.81,0,0,0,.412,1.431,1.686,1.686,0,0,0,2.79-1.033,1.823,1.823,0,0,0-.653-1.353,1.85,1.85,0,0,0-.941-.457c-.255-.039-.4,0-.405-.046s.137-.085.418-.085a1.8,1.8,0,0,1,1.085.405,1.89,1.89,0,1,1-2.555,2.777,2,2,0,0,1-.412-1.68,1.8,1.8,0,0,1,.562-1.019C265.015,372.077,265.172,372.038,265.178,372.051Z" transform="translate(-182.759 -244.4)" fill="#455a64"/>
      <path id="Trazado_128669" data-name="Trazado 128669" d="M268.311,355.729a3.721,3.721,0,0,1-.51.653,19.861,19.861,0,0,1-1.568,1.66,24.469,24.469,0,0,1-2.614,2.163,28.369,28.369,0,0,1-3.562,2.15A27.776,27.776,0,0,1,256.2,363.9a24.837,24.837,0,0,1-3.307.784,18.715,18.715,0,0,1-2.268.255,4.318,4.318,0,0,1-.836,0c0-.065,1.183-.131,3.065-.5a28.819,28.819,0,0,0,3.268-.85,27.932,27.932,0,0,0,9.947-5.731C267.494,356.6,268.258,355.69,268.311,355.729Z" transform="translate(-177.775 -238.842)" fill="#263238"/>
      <path id="Trazado_128670" data-name="Trazado 128670" d="M293.705,366.789c0,.1-1.176.1-2.562.451s-2.431.876-2.483.791a6.79,6.79,0,0,1,5.045-1.242Z" transform="translate(-191.242 -242.647)" fill="#263238"/>
      <g id="Grupo_55762" data-name="Grupo 55762" transform="translate(74.048 117.358)" opacity="0.3">
        <path id="Trazado_128671" data-name="Trazado 128671" d="M253.887,364.867a25.03,25.03,0,0,0,14.567-8.417,5.882,5.882,0,0,1-1.431,6c1.66.784,3.607.261,5.424,0s4.039,0,4.908,1.614a192.125,192.125,0,0,1-24.455.7" transform="translate(-252.9 -356.45)"/>
      </g>
      <path id="Trazado_128672" data-name="Trazado 128672" d="M219.906,348.274a9.182,9.182,0,0,0-2.817-1.823,9.06,9.06,0,0,0-3.575-.608,9.8,9.8,0,0,0-4.267,1.15c-2.849,1.477-4.575,4-5.829,5.614a17.453,17.453,0,0,0-1.307,2.13,5.284,5.284,0,0,1-.451.8,4.576,4.576,0,0,1,.333-.856,14.38,14.38,0,0,1,1.2-2.209c.608-.876,1.392-1.856,2.294-2.928a12.729,12.729,0,0,1,3.581-2.856,9.906,9.906,0,0,1,4.424-1.157,9.045,9.045,0,0,1,3.673.7,7,7,0,0,1,2.117,1.353,3.722,3.722,0,0,1,.471.5C219.867,348.2,219.919,348.267,219.906,348.274Z" transform="translate(-161.099 -235.307)" fill="#263238"/>
      <path id="Trazado_128673" data-name="Trazado 128673" d="M250.923,253.81l-9.123,1.941,4.562,17.077,16.155,3.47,11.084-7.862,1.523-9.417-9.5-3.594Z" transform="translate(-175.006 -203.529)" fill="#ffbe9d"/>
      <path id="Trazado_128674" data-name="Trazado 128674" d="M231.974,255.71s6.176,17.933,17.586,16.273,10.456-13.28,10.456-13.28,11.907,3.634,15.587,7.5,1.51,12.26,1.51,12.26l-3.085,15.175L267.31,322.7s2.568,7.934-4,9.894l-2.072-3.268-39.388,1.111s-8.424,9.711-11.051,6.365-5.15-9.881-5.15-9.881l18.1-69.064Z" transform="translate(-162.481 -204.188)" fill="#ffd947"/>
      <path id="Trazado_128675" data-name="Trazado 128675" d="M304.489,268.25c.32.183,27.964,20.259,27.964,20.259s-2.17,16.521,11.11,13.894c0,0-5.359,13.815-12.613,10.914-2.065-.823-27.546-16.946-27.546-16.946L298,284.862Z" transform="translate(-194.478 -208.533)" fill="#ffd947"/>
      <path id="Trazado_128676" data-name="Trazado 128676" d="M229.389,257.06a16.335,16.335,0,0,0-1.68.118c-5.411.523-25.383,4.66-27.232,18.756-.967,7.372-1.242,28.931-2.287,37.97,0,0,1.667,12.561,2.287,14.887,1.1,4.143,21.115-2.5,21.115-2.5l.039-39.865,7.15-29.35" transform="translate(-159.896 -204.655)" fill="#ffd947"/>
      <path id="Trazado_128677" data-name="Trazado 128677" d="M226.534,312.48a.961.961,0,0,1,0,.32,8.6,8.6,0,0,0,.065.928,13.383,13.383,0,0,0,.843,3.268c.51,1.346,1.307,2.875,2.065,4.627a20.905,20.905,0,0,1,1.046,2.836,17.357,17.357,0,0,1,.542,3.2,37.968,37.968,0,0,1-.163,6.235c-.163,1.908-.32,3.627-.555,5.058a22.522,22.522,0,0,1-.791,3.339c-.131.386-.242.654-.327.876a1.123,1.123,0,0,1-.144.294s.124-.431.346-1.209a25.365,25.365,0,0,0,.654-3.34c.209-1.425.34-3.137.49-5.039a40.82,40.82,0,0,0,.131-6.189,17.18,17.18,0,0,0-.523-3.137,21.34,21.34,0,0,0-1.013-2.8c-.758-1.745-1.516-3.3-2.006-4.666a12.155,12.155,0,0,1-.745-3.359,5.453,5.453,0,0,1,0-.935A1.8,1.8,0,0,1,226.534,312.48Z" transform="translate(-169.681 -223.857)" fill="#263238"/>
      <path id="Trazado_128678" data-name="Trazado 128678" d="M227.985,304.78c.059,0,.1,1.013.333,2.614a35.034,35.034,0,0,0,1.457,6.2c.2.595.412,1.163.654,1.712a3.642,3.642,0,0,0,.163.372l.235.359a8.464,8.464,0,0,1,.418.738,6.189,6.189,0,0,1,.739,2.823,5.039,5.039,0,0,1-.386,1.961,2.809,2.809,0,0,1-.359.654,6.791,6.791,0,0,0,.5-2.549,6.15,6.15,0,0,0-.771-2.686c-.124-.235-.268-.47-.418-.706l-.235-.359a2.382,2.382,0,0,1-.2-.425c-.229-.549-.438-1.131-.653-1.725a29.406,29.406,0,0,1-1.372-6.287c-.091-.817-.118-1.49-.124-1.961A3.176,3.176,0,0,1,227.985,304.78Z" transform="translate(-170.21 -221.189)" fill="#263238"/>
      <path id="Trazado_128679" data-name="Trazado 128679" d="M224.441,288.909c-.052,0-.353-.817-.941-2.1a29.583,29.583,0,0,0-2.764-4.8,30.063,30.063,0,0,0-3.627-4.176c-1.026-.98-1.719-1.536-1.68-1.582a2.34,2.34,0,0,1,.523.34,16.23,16.23,0,0,1,1.307,1.065,24.748,24.748,0,0,1,6.45,9.051,16.616,16.616,0,0,1,.575,1.595A2.522,2.522,0,0,1,224.441,288.909Z" transform="translate(-165.869 -211.304)" fill="#263238"/>
      <path id="Trazado_128680" data-name="Trazado 128680" d="M315.257,277.7a7.375,7.375,0,0,1-.131,1.582c-.118.974-.288,2.314-.438,3.8s-.274,2.83-.359,3.81a7.57,7.57,0,0,1-.2,1.575,7.107,7.107,0,0,1-.046-1.588c0-.987.1-2.34.261-3.83s.359-2.836.536-3.8a7.1,7.1,0,0,1,.372-1.549Z" transform="translate(-200.044 -211.807)" fill="#263238"/>
      <path id="Trazado_128681" data-name="Trazado 128681" d="M319.119,303.376c0,.059-.863.144-2.2.523a10.41,10.41,0,0,0-4.607,2.7,12.712,12.712,0,0,0-1.758,2.392,18.3,18.3,0,0,0-1.006,2.222l-.32.889c-.078.242-.144.471-.209.654a2.367,2.367,0,0,1-.216.575,1.838,1.838,0,0,1,.092-.608l.15-.7.274-.915a15.841,15.841,0,0,1,.961-2.294,12.061,12.061,0,0,1,1.791-2.418,9.894,9.894,0,0,1,4.784-2.693,6.858,6.858,0,0,1,.941-.19,5.888,5.888,0,0,1,.712-.092A1.962,1.962,0,0,1,319.119,303.376Z" transform="translate(-198.22 -220.701)" fill="#263238"/>
      <path id="Trazado_128682" data-name="Trazado 128682" d="M350.912,320.057a3.919,3.919,0,0,1-.438-.732c-.137-.235-.294-.536-.458-.9s-.359-.751-.529-1.216a23.8,23.8,0,0,1-1.052-3.3,27.046,27.046,0,0,1-.654-4.2,26.6,26.6,0,0,1,.072-4.241,24.433,24.433,0,0,1,.6-3.411c.1-.484.255-.908.366-1.307a8.22,8.22,0,0,1,.327-.948,4.078,4.078,0,0,1,.34-.784c.065,0-.373,1.157-.8,3.065a27.777,27.777,0,0,0-.523,3.385,29.575,29.575,0,0,0-.052,4.2,29.238,29.238,0,0,0,.614,4.15,27.369,27.369,0,0,0,.967,3.268C350.39,318.959,350.971,320.031,350.912,320.057Z" transform="translate(-211.708 -219.194)" fill="#263238"/>
      <path id="Trazado_128683" data-name="Trazado 128683" d="M341.193,315.194a2.75,2.75,0,0,1-.261-.7,13.786,13.786,0,0,1-.405-1.961,15.464,15.464,0,0,1,.614-6.64,15.032,15.032,0,0,1,3.339-5.777,2.863,2.863,0,0,1,1.8-.967,1.268,1.268,0,0,1,.556.111c.111.059.17.1.163.111a1.962,1.962,0,0,0-.712-.091,2.908,2.908,0,0,0-1.627,1,15.9,15.9,0,0,0-3.189,5.712,16.678,16.678,0,0,0-.706,6.535C340.931,314.161,341.251,315.174,341.193,315.194Z" transform="translate(-209.171 -219.238)" fill="#263238"/>
      <path id="Trazado_128684" data-name="Trazado 128684" d="M265.723,318.72a3.077,3.077,0,0,1-.163.778,7.72,7.72,0,0,1-.261.889,12.113,12.113,0,0,1-.438,1.15,18.24,18.24,0,0,1-1.49,2.836,19.346,19.346,0,0,1-5.47,5.594,18.453,18.453,0,0,1-2.8,1.562,10.939,10.939,0,0,1-1.144.457,5.926,5.926,0,0,1-.882.288,3.927,3.927,0,0,1-.771.183c0-.065,1.072-.359,2.693-1.144a20.553,20.553,0,0,0,2.732-1.6,23.247,23.247,0,0,0,2.954-2.5A22.673,22.673,0,0,0,263.1,324.2a20.052,20.052,0,0,0,1.536-2.764C265.39,319.8,265.658,318.7,265.723,318.72Z" transform="translate(-178.644 -226.019)" fill="#263238"/>
      <g id="Grupo_55763" data-name="Grupo 55763" transform="translate(58.099 83.864)" opacity="0.3">
        <path id="Trazado_128685" data-name="Trazado 128685" d="M234.844,320.505l-3.764-13.724c-.183-.654-.49-1.457-1.176-1.582a1.307,1.307,0,0,0-1.34,1.124,7.367,7.367,0,0,0,0,2.006c.294,2.987.529,5.013,1.921,7.326,2.712,4.509.928,6.7.928,6.7.216,5.49-.248,12.979-1.961,18.619l1.614,6.8c1.529-5.058,5.026-9.273,5.614-14.528C237.131,328.942,236.014,324.675,234.844,320.505Z" transform="translate(-228.495 -305.199)"/>
      </g>
      <g id="Grupo_55764" data-name="Grupo 55764" transform="translate(111.56 87.785)" opacity="0.3">
        <path id="Trazado_128686" data-name="Trazado 128686" d="M310.3,312.951c4.477,2.327,8.457,5.542,12.816,8.032a20.446,20.446,0,0,0-8.025-8.973,5.077,5.077,0,0,0-3.032-.8c-1.059.15-1.817.745-1.653,1.8" transform="translate(-310.3 -311.198)"/>
      </g>
      <g id="Grupo_55765" data-name="Grupo 55765" transform="translate(131.168 79.428)" opacity="0.3">
        <path id="Trazado_128687" data-name="Trazado 128687" d="M346.346,298.671c-1.529-.039-2.679,1.353-3.431,2.686a20.658,20.658,0,0,0-2.47,12.469c.091.771.379,1.7,1.144,1.849a1.307,1.307,0,0,0,1.353-.8,3.713,3.713,0,0,0,.255-1.653,54.1,54.1,0,0,1,.2-7.842,11.7,11.7,0,0,1,3.268-6.967" transform="translate(-340.303 -298.41)"/>
      </g>
      <path id="Trazado_128688" data-name="Trazado 128688" d="M243.78,305.558h.157l.451-.033,1.771-.092,6.692-.307,23.7-1.006h.157v.15c.2,7.973.425,17.148.654,26.86v1.144h-.111a232.03,232.03,0,0,0-29.186,2.183h-.124l-.033-.124a104.357,104.357,0,0,1-3.483-21.017c-.157-2.575-.183-4.575-.183-5.973v-2.111a.552.552,0,0,1,0,.137v1.974c0,1.379.085,3.4.261,5.96A107.275,107.275,0,0,0,248.1,334.26l-.163-.111a227.086,227.086,0,0,1,29.317-2.242l-.17.176v-.974c-.229-9.711-.438-18.887-.653-26.86l.157.15-23.71.882-6.7.222-1.771.052H243.8Z" transform="translate(-175.692 -220.961)" fill="#fff"/>
      <path id="Trazado_128689" data-name="Trazado 128689" d="M255.239,326.142c-.092,0-.908-4.4-1.823-9.862s-1.582-9.9-1.49-9.92.908,4.4,1.823,9.868S255.3,326.129,255.239,326.142Z" transform="translate(-178.512 -221.737)" fill="#fff"/>
      <path id="Trazado_128690" data-name="Trazado 128690" d="M257.867,345.722a19.653,19.653,0,0,1-.725-3.562,19.95,19.95,0,0,1-.392-3.621,19.652,19.652,0,0,1,.725,3.568A18.558,18.558,0,0,1,257.867,345.722Z" transform="translate(-180.186 -232.887)" fill="#fff"/>
      <path id="Trazado_128691" data-name="Trazado 128691" d="M266.193,321.472a2.007,2.007,0,0,1-.183-.608c-.1-.392-.222-.974-.359-1.686-.275-1.431-.582-3.418-.8-5.627s-.307-4.222-.327-5.673v-1.725a2.8,2.8,0,0,1,.059-.654,18.02,18.02,0,0,1,.163,2.346c.078,1.451.2,3.451.425,5.653s.49,4.183.7,5.62a19.884,19.884,0,0,1,.327,2.353Z" transform="translate(-182.878 -221.439)" fill="#fff"/>
      <path id="Trazado_128692" data-name="Trazado 128692" d="M265.334,343.27a32.415,32.415,0,0,1-.738-4.62,30.924,30.924,0,0,1-.405-4.66,32.634,32.634,0,0,1,.738,4.62,30.928,30.928,0,0,1,.405,4.66Z" transform="translate(-182.764 -231.31)" fill="#fff"/>
      <path id="Trazado_128693" data-name="Trazado 128693" d="M275.573,332.88a7.805,7.805,0,0,1-.131-1.078l-.255-2.941c-.216-2.477-.536-5.882-.967-9.679s-.9-7.189-1.255-9.652c-.17-1.189-.314-2.176-.418-2.921a7.108,7.108,0,0,1-.118-1.078,6.052,6.052,0,0,1,.248,1.059c.137.654.314,1.673.523,2.9.418,2.464.922,5.882,1.359,9.653s.712,7.189.869,9.7c.072,1.242.124,2.248.144,2.947a5.765,5.765,0,0,1,0,1.085Z" transform="translate(-185.619 -221.449)" fill="#fff"/>
      <path id="Trazado_128694" data-name="Trazado 128694" d="M286.177,333.15a6.744,6.744,0,0,1-.052-1.1v-2.993c0-2.523-.091-6.012-.268-9.855s-.451-7.326-.654-9.842c-.1-1.209-.19-2.215-.255-2.974a7.631,7.631,0,0,1-.059-1.1,5.966,5.966,0,0,1,.19,1.078c.1.7.229,1.719.366,2.974.274,2.51.575,5.993.765,9.842s.209,7.346.17,9.875c0,1.261-.046,2.287-.078,2.993A7.521,7.521,0,0,1,286.177,333.15Z" transform="translate(-189.935 -221.366)" fill="#fff"/>
      <g id="Grupo_55766" data-name="Grupo 55766" transform="translate(73.95 93.78)" opacity="0.3">
        <path id="Trazado_128695" data-name="Trazado 128695" d="M252.972,333.075a5.483,5.483,0,0,0,3.444.836,10.94,10.94,0,0,0,3.477-.908,10.5,10.5,0,0,0,3.954-2.614,9.2,9.2,0,0,0,1.961-4.627,27.172,27.172,0,0,0,.17-5.1.334.334,0,0,0-.052-.209.255.255,0,0,0-.366,0,.817.817,0,0,0-.2.359,18.952,18.952,0,0,1-12.606,11.92" transform="translate(-252.75 -320.371)"/>
      </g>
      <path id="Trazado_128696" data-name="Trazado 128696" d="M232.051,396.745l-3.993-7.489-8.979-42.028s-8.261-4.745-15.031,5.653c-.268.418,9.306,30.52,11.979,38.891l.372,8.012s-.47,9.483,0,10.313a3.856,3.856,0,0,0,1.66,1.307,2.3,2.3,0,0,0,2.372,2.614s.235,2.614,2.248,2.255a3.875,3.875,0,0,0,2.732-1.66s0,3.313,1.778,2.96,2.065-1.778,2.392-2.248.706-5.339.706-5.339l-.033-8.025,4.627,3.751c1.307.654,3.3,1.49,4.411.49Z" transform="translate(-161.924 -235.522)" fill="#ffbe9d"/>
      <path id="Trazado_128697" data-name="Trazado 128697" d="M244.075,430.92a14.442,14.442,0,0,1,.261,4.326c-.052,1.111-.1,2.124-.144,3.052a4.985,4.985,0,0,1-.118,1.261,20.034,20.034,0,0,1-.078-4.326C244.115,432.854,243.971,430.933,244.075,430.92Z" transform="translate(-175.739 -264.894)" fill="#eb996e"/>
      <path id="Trazado_128698" data-name="Trazado 128698" d="M236.3,439.48a46.466,46.466,0,0,1,.1,7.94,46.466,46.466,0,0,1-.1-7.94Z" transform="translate(-173.057 -267.86)" fill="#eb996e"/>
      <path id="Trazado_128699" data-name="Trazado 128699" d="M229.528,441.71A10.809,10.809,0,0,1,229,447.2c-.091,0,.144-1.235.281-2.745A25.089,25.089,0,0,1,229.528,441.71Z" transform="translate(-170.564 -268.633)" fill="#eb996e"/>
      <path id="Trazado_128700" data-name="Trazado 128700" d="M225.377,440.29a9.535,9.535,0,0,1-.353,3.575,4.758,4.758,0,0,1,0-1.8A4.973,4.973,0,0,1,225.377,440.29Z" transform="translate(-169.164 -268.141)" fill="#eb996e"/>
    </g>
    <g id="freepik--speech-bubble--inject-2" transform="translate(1047.332 8087.271)">
      <path id="Trazado_128701" data-name="Trazado 128701" d="M208.286,161.166l-6.012-10.6a28.389,28.389,0,1,0-6.8,7.568h0Z" transform="translate(-149.641 -107.249)" fill="#fff"/>
      <path id="Trazado_128702" data-name="Trazado 128702" d="M208.248,161.145,195.407,158.2a.078.078,0,0,1-.065-.1s0,0,0-.033h0l.118.118a28.814,28.814,0,0,1-5.829,3.516,28.414,28.414,0,0,1-7.744,2.228,25.262,25.262,0,0,1-4.483.222c-.778-.039-1.562-.059-2.353-.124l-2.4-.366A28.6,28.6,0,0,1,154.934,152.3a28.291,28.291,0,0,1-4.79-10.953,28.9,28.9,0,0,1,.333-12.613,28,28,0,0,1,6.078-11.659l1.157-1.307c.386-.431.837-.784,1.248-1.176a10.245,10.245,0,0,1,1.307-1.118l1.359-1.019a11.992,11.992,0,0,1,1.412-.935l1.438-.869,1.5-.732a13.193,13.193,0,0,1,1.523-.654,28.886,28.886,0,0,1,12.7-1.961,27.912,27.912,0,0,1,11.665,3.444,28.755,28.755,0,0,1,13.43,16.593,30.527,30.527,0,0,1,1.235,9.221,28.311,28.311,0,0,1-1.385,7.96,28.819,28.819,0,0,1-2.849,6.1v-.085l5.941,10.639-6.1-10.594a.085.085,0,0,1,0-.078,28.871,28.871,0,0,0,2.791-6.078,28,28,0,0,0,1.346-7.908,30.583,30.583,0,0,0-1.248-9.149A28.539,28.539,0,0,0,191.688,111a27.65,27.65,0,0,0-11.535-3.392,28.6,28.6,0,0,0-12.561,1.961,13.379,13.379,0,0,0-1.5.654l-1.484.719-1.425.863a12.217,12.217,0,0,0-1.392.921l-1.346,1.006c-.457.327-.843.745-1.268,1.111A12.075,12.075,0,0,0,157.947,116l-1.144,1.261a27.664,27.664,0,0,0-6.012,11.522,28.625,28.625,0,0,0-.34,12.463,28.049,28.049,0,0,0,4.725,10.835,28.369,28.369,0,0,0,17.514,11.293l2.372.366c.784.065,1.562.085,2.327.131a24.989,24.989,0,0,0,4.457-.209,28.181,28.181,0,0,0,7.718-2.17,28.755,28.755,0,0,0,5.81-3.457.085.085,0,0,1,.124,0,.1.1,0,0,1,0,.1h0l-.046-.137Z" transform="translate(-149.604 -107.228)" fill="#263238"/>
      <path id="Trazado_128703" data-name="Trazado 128703" d="M177.64,142.318a3.92,3.92,0,0,0-1.412-.366,4.222,4.222,0,0,0-3.888,1.438c3.065,1.778,7.241,4.137,10.228,5.842l3.771-2.157C183.62,145.579,180.208,143.7,177.64,142.318Z" transform="translate(-157.481 -119.24)" fill="#26aab7"/>
      <g id="Grupo_55767" data-name="Grupo 55767" transform="translate(14.859 22.658)" opacity="0.3">
        <path id="Trazado_128704" data-name="Trazado 128704" d="M177.64,142.318a3.92,3.92,0,0,0-1.412-.366,4.222,4.222,0,0,0-3.888,1.438c3.065,1.778,7.241,4.137,10.228,5.842l3.771-2.157C183.62,145.579,180.208,143.7,177.64,142.318Z" transform="translate(-172.34 -141.898)"/>
      </g>
      <path id="Trazado_128705" data-name="Trazado 128705" d="M189.08,151.184l-.137-.118c-.941-.542-1.961-1.575-2.889-1.555-.359,0-.752.32-1.686.843-1.555.882-4.176,2.418-5.744,3.268a5.769,5.769,0,0,1-4.49.81,6.431,6.431,0,0,1-2.1-1.274l17.044-9.881c-.085-.255-.176-.5-.261-.745A4.882,4.882,0,1,1,192.9,145.8a2.228,2.228,0,0,0-1.137.229c-.654.314-1.255.712-2.032,1.157,1.307.588,2.2,1.529,3.738,1.385a4.608,4.608,0,0,1,4.64,3.385,4.881,4.881,0,1,1-9.293-.111C188.891,151.655,189,151.432,189.08,151.184Zm4.352-7.842a2.333,2.333,0,0,0,2.359-2.379,2.366,2.366,0,0,0-2.34-2.327,2.4,2.4,0,0,0-2.379,2.392,2.372,2.372,0,0,0,2.359,2.3Zm0,12.469a2.366,2.366,0,0,0,2.385-2.281,2.327,2.327,0,0,0-2.313-2.425,2.379,2.379,0,0,0-2.4,2.268,2.4,2.4,0,0,0,2.307,2.425Z" transform="translate(-157.374 -117.219)" fill="#26aab7"/>
      <path id="Trazado_128706" data-name="Trazado 128706" d="M193.8,152.334a1.52,1.52,0,0,0-.516-.784.993.993,0,0,0-.921-.111.967.967,0,0,0,0,1.8.993.993,0,0,0,.921-.111c.484-.346.457-.8.516-.791s.052.1,0,.288a1.092,1.092,0,0,1-.392.693,1.222,1.222,0,0,1-1.176.216,1.261,1.261,0,0,1,0-2.385,1.222,1.222,0,0,1,1.176.216,1.078,1.078,0,0,1,.392.686C193.85,152.23,193.817,152.334,193.8,152.334Z" transform="translate(-164.077 -122.421)" fill="#263238"/>
      <path id="Trazado_128707" data-name="Trazado 128707" d="M196.6,151.73a3.364,3.364,0,0,1-.346.229l-.974.588-3.222,1.9-3.268,1.856-.993.549a2.425,2.425,0,0,1-.373.189,2.763,2.763,0,0,1,.346-.235l.974-.588,3.222-1.889,3.268-1.856.993-.555A2.7,2.7,0,0,1,196.6,151.73Z" transform="translate(-162.706 -122.647)" fill="#263238"/>
      <path id="Trazado_128708" data-name="Trazado 128708" d="M188.416,147.73a1.313,1.313,0,0,1-.157.111l-.471.294-1.738,1.078c-1.464.889-3.5,2.1-5.777,3.392l-5.823,3.307-1.8.954-.484.261-.17.085s.052-.039.157-.1l.471-.288,1.751-1.026,5.81-3.339c2.274-1.307,4.313-2.49,5.8-3.353l1.758-1.013.484-.274Z" transform="translate(-157.363 -121.261)" fill="#263238"/>
    </g>
  </g>
</svg>
