<svg xmlns="http://www.w3.org/2000/svg" xmlns:xlink="http://www.w3.org/1999/xlink" width="336" height="306.407" viewBox="0 0 336 306.407">
  <defs>
    <linearGradient id="linear-gradient" x1="-67.19" y1="2.439" x2="-66.147" y2="2.439" gradientUnits="objectBoundingBox">
      <stop offset="0" stop-color="#09005d"/>
      <stop offset="1" stop-color="#1a0f91"/>
    </linearGradient>
    <linearGradient id="linear-gradient-2" x1="-38.542" y1="2.109" x2="-37.573" y2="2.109" xlink:href="#linear-gradient"/>
    <linearGradient id="linear-gradient-3" x1="-0.001" y1="0.5" x2="1" y2="0.5" gradientUnits="objectBoundingBox">
      <stop offset="0" stop-color="#dae3fe"/>
      <stop offset="1" stop-color="#e9effd"/>
    </linearGradient>
    <linearGradient id="linear-gradient-4" x1="0.002" y1="0.5" x2="1.002" y2="0.5" xlink:href="#linear-gradient-3"/>
  </defs>
  <g id="graficos13-13-13" transform="translate(0 0.002)">
    <path id="Trazado_128889" data-name="Trazado 128889" d="M117.266,83.383c-1.072,43.186-4.543,192.155-2.88,244.944a10.6,10.6,0,0,0,10.243,10.265c27.661.9,107.23,3.2,152.473,1.3a17.846,17.846,0,0,0,17.112-17.458c.941-45.331,3.014-172.828-1.92-231.234a14.567,14.567,0,0,0-13.072-13.27C249.1,74.919,169.093,67.552,130.007,70.089A13.649,13.649,0,0,0,117.266,83.383Z" transform="translate(-100.27 -61.221)" fill="#5e5385"/>
    <path id="Trazado_128890" data-name="Trazado 128890" d="M183.587,210.616c-1.489,34.858-6.184,150.825-4.7,193.706a12.132,12.132,0,0,0,11.421,11.705c25.777,1.5,91.893,4.831,129.7,1.8a13.637,13.637,0,0,0,12.519-12.872c1.92-35.563,7.417-143.544,5.988-185.944a13.406,13.406,0,0,0-12.208-12.894c-27.888-2.5-99.511-8.461-131.641-6.708A11.723,11.723,0,0,0,183.587,210.616Z" transform="translate(-157.172 -175.203)" fill="#cbc5e0"/>
    <path id="Trazado_128891" data-name="Trazado 128891" d="M687,118.045h0a2.487,2.487,0,0,0,2.355,2.487c6.534.342,24.938,1.31,33.162,1.787a2.488,2.488,0,0,0,2.587-2.958l-.053-.272a2.489,2.489,0,0,0-2.216-2.009c-5.559-.51-22.335-1.92-33.45-1.525A2.483,2.483,0,0,0,687,118.045Z" transform="translate(-604.565 -101.63)" fill="#cbc5e0"/>
    <rect id="Rectángulo_30700" data-name="Rectángulo 30700" width="73.009" height="46.239" rx="21" transform="translate(61.757 41.451)" fill="#b1a8d1"/>
    <path id="Trazado_128892" data-name="Trazado 128892" d="M667.209,407.231a1.176,1.176,0,0,0-.971-.391l-34.76.728-.88-2.789a.9.9,0,0,0-.9-.626l-4.772.12a.9.9,0,0,0-.926.881.847.847,0,0,0,.926.833l4.08-.1,7.38,23.582a.976.976,0,0,0,.919.676l24.4.328a.938.938,0,0,0,1.037-.894.964.964,0,0,0-1.037-.918l-23.687-.256-1.9-6.12,26.029.04a1.206,1.206,0,0,0,1.152-.832l4.109-13.283A1.044,1.044,0,0,0,667.209,407.231Z" transform="translate(-549.125 -355.659)" fill="#fff" opacity="0.78"/>
    <path id="Trazado_128893" data-name="Trazado 128893" d="M737.991,633a3.52,3.52,0,0,0-3.631,3.48,3.7,3.7,0,0,0,3.631,3.635,3.527,3.527,0,0,0,3.672-3.48A3.7,3.7,0,0,0,737.991,633Zm0,5.22a1.729,1.729,0,0,1-1.7-1.7,1.643,1.643,0,0,1,1.7-1.625,1.727,1.727,0,0,1,1.709,1.7,1.644,1.644,0,0,1-1.709,1.621Z" transform="translate(-646.242 -557.043)" fill="#fff" opacity="0.78"/>
    <path id="Trazado_128894" data-name="Trazado 128894" d="M872.212,635.066a3.654,3.654,0,0,0-3.812,3.566,3.836,3.836,0,0,0,3.812,3.72,3.665,3.665,0,0,0,3.854-3.565A3.839,3.839,0,0,0,872.212,635.066Zm0,5.347a1.793,1.793,0,0,1-1.784-1.739,1.707,1.707,0,0,1,1.784-1.664A1.793,1.793,0,0,1,874,638.749,1.705,1.705,0,0,1,872.212,640.413Z" transform="translate(-764.198 -558.864)" fill="#fff" opacity="0.78"/>
    <rect id="Rectángulo_30701" data-name="Rectángulo 30701" width="129.796" height="94.102" rx="17" transform="translate(36.145 101.51)" fill="#b1a8d1"/>
    <rect id="Rectángulo_30702" data-name="Rectángulo 30702" width="126.146" height="23.12" rx="10.5" transform="translate(38.984 204.128)" fill="#b1a8d1"/>
    <path id="Trazado_128895" data-name="Trazado 128895" d="M348.02,2455.16s-.67,3.789-1,7.542a2.585,2.585,0,0,0,2.472,2.8c5,.208,15.682.613,19.516.441a.84.84,0,0,0,.74-1.152h0a1.878,1.878,0,0,0-.96-1.014l-17.65-8.113Z" transform="translate(-305.375 -2160.561)" fill="#30274c"/>
    <path id="Trazado_128896" data-name="Trazado 128896" d="M350.83,2431.471l.538,4.532s3.092,1.439,5.2-.181l-1.282-5.052Z" transform="translate(-308.733 -2139.098)" fill="#b57a68"/>
    <path id="Trazado_128897" data-name="Trazado 128897" d="M251.391,1726.4c-.233,1.183-1.247,59.07,4.94,85.01a.88.88,0,0,1-.516,1.025,15.322,15.322,0,0,1-5.04,1.023,1.517,1.517,0,0,1-1.5-1.088c-1.769-6.019-10.244-36.174-11.35-64.98-1.236-32.188,0-1.1,0-1.1l.72-19.9Z" transform="translate(-208.889 -1519.246)" fill="#0e1c2f"/>
    <path id="Trazado_128898" data-name="Trazado 128898" d="M170.569,2471.64a27.254,27.254,0,0,0-2.1,7,1.577,1.577,0,0,0,1.388,1.888c1.649.164,4.189.371,6.223.36a1.573,1.573,0,0,0,1.56-1.754,13.27,13.27,0,0,0-3.1-7.273Z" transform="translate(-148.228 -2175.063)" fill="#30274c"/>
    <path id="Trazado_128899" data-name="Trazado 128899" d="M178.39,2421.117l1.253,6.611s1.237.891,3.687.246l-.6-7.114Z" transform="translate(-156.984 -2130.376)" fill="#b57a68"/>
    <path id="Trazado_128900" data-name="Trazado 128900" d="M135.811,1717.741c-5.061,30.542,1.1,75.485,3.175,84.282a1.371,1.371,0,0,0,1.108,1.042,9.211,9.211,0,0,0,3.96-.158,1.256,1.256,0,0,0,.9-1.157c.278-7.112-.223-50.771,4.493-68.026a3.922,3.922,0,0,1,1.512-2.16l9.152-6.506.7-10.517Z" transform="translate(-117.8 -1508.809)" fill="#0e1c2f"/>
    <path id="Trazado_128901" data-name="Trazado 128901" d="M168.5,1240.828c-15.166-.257-31.9,3.975-31.9,3.975-4.52,26.378-.791,56.8-.791,56.8,11.741,3.079,24.986-1.883,24.986-1.883,1.951-11.025,11.056-42.054,11.056-42.054a50.018,50.018,0,0,0,18.54-5.88c-3.834-4.44-5.64-10.1-6.427-13.439A51.358,51.358,0,0,1,168.5,1240.828Z" transform="translate(-118.238 -1089.759)" fill="#a8dde2"/>
    <path id="Trazado_128902" data-name="Trazado 128902" d="M577.051,1064.35a2.9,2.9,0,0,0-3.375-.948c-2.231,9.428-13.934,17.071-25.956,20.807.785,3.344,2.593,9,6.427,13.439C574.1,1086.435,577.051,1064.35,577.051,1064.35Z" transform="translate(-481.998 -935.626)" fill="#b57a68"/>
    <path id="Trazado_128903" data-name="Trazado 128903" d="M767.051,957.8c.156.5-1.649,1.249-2.712-.778-.037-.971-.628-5.132-.048-5.924a77.572,77.572,0,0,1,9.086-9.5,1.426,1.426,0,0,1,.178,1.981l-2.907,3.029a14.038,14.038,0,0,1,1.7,3.36,4.079,4.079,0,0,1-.407,3,34.5,34.5,0,0,1-1.865,3.05A4.023,4.023,0,0,1,767.051,957.8Z" transform="translate(-672.359 -828.616)" fill="#b57a68"/>
    <path id="Trazado_128904" data-name="Trazado 128904" d="M782.991,999.73l-2.65,2.246-.831,2.237,2.363,2.621s.794-4.44,1.385-5.4S783.541,1000.011,782.991,999.73Z" transform="translate(-685.975 -879.771)" fill="#915046"/>
    <path id="Trazado_128905" data-name="Trazado 128905" d="M37.833,1306.815l-5.816-14.685s-14.166,9.625-16.5,21.823a32.245,32.245,0,0,1,11.937,3.35C29.6,1312.463,37.833,1306.815,37.833,1306.815Z" transform="translate(-13.658 -1137.085)" fill="#a8dde2"/>
    <path id="Trazado_128906" data-name="Trazado 128906" d="M255.224,1156.3,250.4,1170.26a.5.5,0,0,0,.229.6c1.32.727,6.054,2.829,11.765-.791a2.371,2.371,0,0,0,1.091-1.692l1.56-12.077Z" transform="translate(-220.329 -1017.554)" fill="#915046"/>
    <path id="Trazado_128907" data-name="Trazado 128907" d="M287.609,1048.64s5.3,9.975,4.62,14-7.248,3.74-12.982.467l-4.007-10.769Z" transform="translate(-242.213 -922.813)" fill="#b57a68"/>
    <path id="Trazado_128908" data-name="Trazado 128908" d="M226.1,1004.643a.41.41,0,0,0,.179-.6,10.709,10.709,0,0,1-1.473-3.131s-.953-.609,2.424-1.418,8.414-2.063,9.472-4.937c1.032-2.8-1.68-9.851-6.006-4.236a.412.412,0,0,1-.652,0c-.709-.923-2.574-2.839-5.16-1.68a3.886,3.886,0,0,0-2.661,3.757.409.409,0,0,1-.48.419,4.733,4.733,0,0,0-5.535,2.581c-1.13,2.483-.4,3.889.274,4.577a.41.41,0,0,1-.176.68,2.462,2.462,0,0,0-1.74,2.815c.144,2.607,3.059,2.377,3.889,2.258a.413.413,0,0,1,.36.13c.712.787,3.918,4.131,7.388,4.533a.414.414,0,0,0,.434-.547l-1.5-4.365a.414.414,0,0,1,.223-.512Z" transform="translate(-188.814 -869.633)" fill="#12263f"/>
    <path id="Trazado_128909" data-name="Trazado 128909" d="M285.981,1120.925s-3.774-2.589-4.049-.409,3.4,3.158,5.216,2.345Z" transform="translate(-248.09 -985.295)" fill="#b57a68"/>
    <path id="Trazado_128910" data-name="Trazado 128910" d="M1.961,1469.869s-9.682,22.052,13.985,25.28l3.227-2.689S7.34,1486.009,13.8,1473.1C13.8,1473.1,6.8,1467.182,1.961,1469.869Z" transform="translate(0 -1292.881)" fill="#b57a68"/>
    <path id="Trazado_128911" data-name="Trazado 128911" d="M136.117,1663.3h8.606s5.379,6.992,4.842,8.606-5.854.331-5.854.331l-2.751-4.634s-8.068.537-8.068-1.614S136.117,1663.3,136.117,1663.3Z" transform="translate(-116.944 -1463.718)" fill="#b57a68"/>
    <path id="Trazado_128912" data-name="Trazado 128912" d="M1584.333,78.129a1.013,1.013,0,0,1-1.013-.983,126.448,126.448,0,0,1,4.32-33.586c2.814-10.035,6.869-18.322,12.052-24.631A38.929,38.929,0,0,1,1624.448,4.65a27.989,27.989,0,0,1,22.99,6.114c8.991,7.41,15.675,20.84,19.867,39.919a170.006,170.006,0,0,1,3.609,26.4,1.014,1.014,0,1,1-2.026.078c-.019-.48-2.09-47.817-22.741-64.833a26.042,26.042,0,0,0-21.389-5.673c-17.1,2.647-28.936,15.251-35.165,37.46a124.547,124.547,0,0,0-4.241,32.975,1.014,1.014,0,0,1-.983,1.045Z" transform="translate(-1393.321 -3.742)" fill="#8d8d92"/>
    <path id="Trazado_128913" data-name="Trazado 128913" d="M985.271,474.9a2.244,2.244,0,0,1,2.181-1.92l119.9-1.975,39.258,234.034H957.166C950.659,705.034,985.271,474.9,985.271,474.9Z" transform="translate(-841.596 -414.485)" fill="#e6e6e6"/>
    <path id="Trazado_128914" data-name="Trazado 128914" d="M2235.706,472.782,2214.74,471,2254,705.034h23.484A7.507,7.507,0,0,0,2284.83,696l-45.885-220.345A3.621,3.621,0,0,0,2235.706,472.782Z" transform="translate(-1948.987 -414.485)" fill="#ccc"/>
    <path id="Trazado_128915" data-name="Trazado 128915" d="M1366.23,73.884a1.015,1.015,0,0,1-1.014-.983,126.775,126.775,0,0,1,4.32-33.586c2.814-10.035,6.87-18.323,12.052-24.631A38.95,38.95,0,0,1,1406.337.4a27.972,27.972,0,0,1,22.991,6.12c8.992,7.4,15.676,20.839,19.868,39.918a169.832,169.832,0,0,1,3.608,26.4,1.014,1.014,0,0,1-2.026.079c-.019-.48-2.09-47.818-22.741-64.834a26.049,26.049,0,0,0-21.389-5.68c-17.1,2.647-28.936,15.25-35.165,37.459a124.558,124.558,0,0,0-4.24,32.976,1.015,1.015,0,0,1-.983,1.045Z" transform="translate(-1201.39 0)" fill="#8d8d92"/>
    <path id="Trazado_128916" data-name="Trazado 128916" d="M1226.571,882.065c-.017-.436-1.913-43.8-20.858-59.406a23.992,23.992,0,0,0-19.71-5.231c-15.712,2.432-26.578,13.99-32.3,34.354a113.917,113.917,0,0,0-3.893,30.238l-1.44.044a115.721,115.721,0,0,1,3.937-30.635c2.564-9.144,6.258-16.695,10.977-22.438a35.417,35.417,0,0,1,22.5-12.984,25.356,25.356,0,0,1,20.849,5.538c8.18,6.739,14.265,18.978,18.087,36.377a154.608,154.608,0,0,1,3.294,24.093Z" transform="translate(-1010.568 -717.771)" fill="#0e1c2f"/>
    <path id="Trazado_128917" data-name="Trazado 128917" d="M653.073,1415.669l19.2-126.585a2.506,2.506,0,0,1,2.436-2.128l110.962-1.835,24,142.911H662.518C656.276,1428.026,652.161,1421.844,653.073,1415.669Z" transform="translate(-574.598 -1130.917)" fill="#7d6eb2"/>
    <path id="Trazado_128918" data-name="Trazado 128918" d="M1780.464,1286.942l-21.393-1.821,24,142.911,23.695-.612a3.749,3.749,0,0,0,3.572-4.516l-28.218-134.6A1.893,1.893,0,0,0,1780.464,1286.942Z" transform="translate(-1547.995 -1130.917)" fill="#5e5385"/>
    <path id="Trazado_128919" data-name="Trazado 128919" d="M1027.221,878.239c-.017-.437-1.913-43.8-20.858-59.407a23.994,23.994,0,0,0-19.71-5.229c-15.712,2.435-26.578,13.99-32.3,34.353a113.926,113.926,0,0,0-3.893,30.238l-1.44.044A115.715,115.715,0,0,1,952.96,847.6c2.564-9.145,6.258-16.693,10.976-22.439a35.416,35.416,0,0,1,22.5-12.984,25.385,25.385,0,0,1,20.851,5.544c8.181,6.742,14.267,18.979,18.089,36.371a154.606,154.606,0,0,1,3.294,24.093Z" transform="translate(-835.138 -714.405)" fill="#0e1c2f"/>
    <path id="Trazado_128920" data-name="Trazado 128920" d="M1376.844,589.442a2.12,2.12,0,0,0,.12-1.662c-2.786-8.159-12.788-37.386-13.223-37.765-.505-.442-16.155-16.957-16.155-16.957-2.88-3.042-4.141-.491-4.141-.491l-9.165,26.5,13.354,37.6a2.123,2.123,0,0,0,2.6,1.32l25.318-7.491A2.119,2.119,0,0,0,1376.844,589.442Zm-32.278-46.785a3.02,3.02,0,1,1,4.261-.294A3.02,3.02,0,0,1,1344.566,542.657Z" transform="translate(-1174.176 -467.783)" fill="#c1507f"/>
    <path id="Trazado_128921" data-name="Trazado 128921" d="M1412.71,767.41c1.943,4.221,1.105,7.183-.914,8.113-2.065.949-4.737-.434-6.531-4.275-1.744-3.791-1.281-7.027.988-8.072C1408.589,762.1,1411.052,763.805,1412.71,767.41Zm3,16.5-.971-24.642,1.589-.731.971,24.642Zm-8.37-13.77c1.04,2.322,2.433,3.734,3.544,3.223s.92-2.365-.2-4.8c-1.02-2.219-2.3-3.8-3.5-3.24-1.134.52-.879,2.567.156,4.817Zm19.364.91c1.928,4.19,1.128,7.172-.914,8.111s-4.737-.433-6.523-4.32c-1.73-3.759-1.282-7.027.96-8.06,2.345-1.073,4.82.664,6.478,4.268Zm-5.365,2.732c1.026,2.291,2.433,3.734,3.545,3.222,1.135-.522.92-2.364-.2-4.8-1.034-2.249-2.3-3.8-3.5-3.24C1420.045,769.486,1420.3,771.534,1421.339,773.784Z" transform="translate(-1235.71 -667.522)" fill="#fff" opacity="0.85"/>
    <path id="Trazado_128922" data-name="Trazado 128922" d="M1391.7,490.563a1.113,1.113,0,0,1-.473-1.142h0a13.977,13.977,0,0,0-4.56-12.239,1.118,1.118,0,0,1,1.527-1.633,16.255,16.255,0,0,1,5.221,14.307,1.117,1.117,0,0,1-1.716.708Z" transform="translate(-1219.969 -418.222)" fill="#0e1c2f"/>
    <path id="Trazado_128923" data-name="Trazado 128923" d="M1833.318,1342.123s-5.073,26.186-19.091,33.221c-2.748,1.207-6.18,1.723-7.477,3-1.476,1.453,1.258,3.857,2.583,5.847s1.419.9,1.634.12-1.841-2.622,0-3.947,1.526.144.826,1.5a4.521,4.521,0,0,0-.19,3.193,24.421,24.421,0,0,0,2.753-2.049,5.2,5.2,0,0,0,1.525-3.109c2.863-1,20.614-8.039,24.075-29.158C1839.96,1350.738,1836.384,1331.357,1833.318,1342.123Z" transform="translate(-1589.579 -1178.214)" fill="#e5baab"/>
    <path id="Trazado_128924" data-name="Trazado 128924" d="M2365.868,1777.044a.153.153,0,0,1-.151-.128c-.012-.08-1.295-8.053-3.769-9.461a1.393,1.393,0,0,0-1.275-.094c-3.347,1.332-1.66,8.879-1.642,8.952a.152.152,0,1,1-.3.068c-.075-.32-1.761-7.876,1.825-9.3a1.705,1.705,0,0,1,1.538.112c2.6,1.482,3.867,9.345,3.92,9.68a.153.153,0,0,1-.128.174Z" transform="translate(-2075.298 -1554.926)" fill="#fff"/>
    <path id="Trazado_128925" data-name="Trazado 128925" d="M2336.335,1836.628l-12.641-1.168-2.814,1.56,2.412,3.018,11.545-1.176Z" transform="translate(-2042.392 -1615.22)" fill="#91b3fa"/>
    <path id="Trazado_128926" data-name="Trazado 128926" d="M2434.448,2474.1l.209,4.836a1.987,1.987,0,0,0,1.6,1.867,30.727,30.727,0,0,0,6.4.6,1.7,1.7,0,0,0,1.595-2.087,17.522,17.522,0,0,0-2.725-6.511l-5.314-.414a1.643,1.643,0,0,0-1.769,1.708Z" transform="translate(-2142.332 -2175.722)" fill="url(#linear-gradient)"/>
    <path id="Trazado_128927" data-name="Trazado 128927" d="M2059.417,1991.92l-1.309,5.207s.631,30.66.217,42.873a9.552,9.552,0,0,1-1.834,5.31l-5.88,8.074,13.885-6.8.391-1.6-1.94-3.157,5.5-33.863a10.488,10.488,0,0,0-.739-5.88l-2.344-5.372Z" transform="translate(-1804.552 -1752.906)" fill="#e5baab"/>
    <path id="Trazado_128928" data-name="Trazado 128928" d="M2034.933,2428.875l4.236.33a2.557,2.557,0,0,0,2.1-.84c1.454-1.613,4.452-4.747,5.767-4.732,1.77.019,1.057,6.263,1.057,6.263l.987.077,1.857-7.68a4.62,4.62,0,0,0-2.04-5h0s-.634,2.946-2.921,4.093-9.359,5.341-9.359,5.341a6.061,6.061,0,0,0-1.724-.089A1.125,1.125,0,0,0,2034.933,2428.875Z" transform="translate(-1789.845 -2127.235)" fill="url(#linear-gradient-2)"/>
    <path id="Trazado_128929" data-name="Trazado 128929" d="M2273.93,2010.793s15,34.752,17.2,42.6a73.77,73.77,0,0,1,2.677,14.879c-.014.946,1.08,1.939,4.311,2.191a3.1,3.1,0,0,0,2.981-1.089,1.888,1.888,0,0,0,.213-1.815c-.858-2.139-3.575-8.975-4.538-12.054-1.151-3.676-2.962-20.072-4.21-25.821s-2.677-11.991-9.577-18.176C2282.986,2011.5,2278.333,2006.172,2273.93,2010.793Z" transform="translate(-2001.075 -1767.855)" fill="#e5baab"/>
    <path id="Trazado_128930" data-name="Trazado 128930" d="M2049.435,1269.461c-3.039-19.589,9.308-29.572,9.308-29.572-3.688-4.139-9.268-7.27-13.546-9.253a10.852,10.852,0,0,0-11.653,1.632c-3.547,3.064-7.4,7.4-6.887,11.465.547,4.3,6.891,26.038,6.891,26.038A17.618,17.618,0,0,0,2049.435,1269.461Z" transform="translate(-1783.431 -1082.086)" fill="#f5ca56"/>
    <path id="Trazado_128931" data-name="Trazado 128931" d="M2097.9,1571.877c-1.414-5.709-9.323-10.307-9.323-10.307a17.609,17.609,0,0,1-15.887.306,31.7,31.7,0,0,0-1.466,12.179c.685,5.975,4.91,44.36,4.91,44.36,11.127,3.173,28.873-.067,28.873-.067C2098.8,1605,2099.312,1577.586,2097.9,1571.877Z" transform="translate(-1822.573 -1374.195)" fill="#12263f"/>
    <path id="Trazado_128932" data-name="Trazado 128932" d="M2122.662,1124.349l2.4,16.865c.24,1.488-1.08,1.145-2.528.752-2.382-.644-5.425-1.826-6.32-3.789a1.758,1.758,0,0,1-.139-.64l-.69-11.619a2.073,2.073,0,0,1,1.379-2.076l3.165-1.117a2.072,2.072,0,0,1,2.734,1.624Z" transform="translate(-1861.55 -987.904)" fill="#ddb2a6"/>
    <path id="Trazado_128933" data-name="Trazado 128933" d="M2437.416,1875.42l4.334-2.491-10.435-27.739-2.5,1.692Z" transform="translate(-2137.371 -1623.782)" fill="#7d97f4"/>
    <path id="Trazado_128934" data-name="Trazado 128934" d="M2344.083,1787.673h-.012a.151.151,0,0,1-.139-.163c.006-.081.57-8.152-1.739-10.8a2.19,2.19,0,0,0-1.554-.809,2.087,2.087,0,0,0-1.577.611c-2.49,2.321-2.64,10.319-2.64,10.4a.152.152,0,0,1-.152.15h0a.151.151,0,0,1-.15-.154c0-.335.15-8.21,2.733-10.617a2.379,2.379,0,0,1,1.8-.692,2.486,2.486,0,0,1,1.766.912c2.43,2.781,1.819,10.938,1.813,11.02A.154.154,0,0,1,2344.083,1787.673Z" transform="translate(-2055.803 -1562.538)" fill="#fff"/>
    <path id="Trazado_128935" data-name="Trazado 128935" d="M2240.781,1322.749c.619.822,10.012,12,12.7,24.467s1.785,20.8,1.785,20.8-2.732,2.04-1.75,3.48.719,2.43,1.98,2.709,2.813.676,2.623-1.8,2.77-2.978,2.28-4.477,2.86-41.736-13.341-52.652c-.077-.052-.153-.1-.231-.154C2239.98,1317.6,2239.787,1321.428,2240.781,1322.749Z" transform="translate(-1971.518 -1157.317)" fill="#e5baab"/>
    <path id="Trazado_128936" data-name="Trazado 128936" d="M2320.82,1849.22l12.958,1.208,8.606,28.538-18.6.486Z" transform="translate(-2042.339 -1627.329)" fill="#bdd0fb"/>
    <g id="Grupo_55778" data-name="Grupo 55778" transform="translate(294.405 227.228)" opacity="0.66">
      <path id="Trazado_128937" data-name="Trazado 128937" d="M2459.427,1917.657a.181.181,0,0,1-.043,0,.173.173,0,0,1-.121-.211l.832-3.171-6.562-20.362a.173.173,0,0,1,.329-.105l6.577,20.409a.173.173,0,0,1,0,.1l-.84,3.22A.171.171,0,0,1,2459.427,1917.657Z" transform="translate(-2453.527 -1893.694)" fill="url(#linear-gradient-3)"/>
    </g>
    <g id="Grupo_55779" data-name="Grupo 55779" transform="translate(301.646 247.787)" opacity="0.66">
      <path id="Trazado_128938" data-name="Trazado 128938" d="M2516.284,2066.443a.167.167,0,0,1-.074-.017l-2.244-1.073a.171.171,0,0,1-.081-.229.174.174,0,0,1,.229-.082l2.244,1.073a.173.173,0,0,1-.075.328Z" transform="translate(-2513.868 -2065.027)" fill="url(#linear-gradient-4)"/>
    </g>
    <path id="Trazado_128939" data-name="Trazado 128939" d="M2232.311,1037.17s17.639-5.427,20.542,12.971,4.909,24.3,9.281,21.119c0,0-.72,6.874-9.119,3.8C2231.221,1067.09,2244.487,1041.558,2232.311,1037.17Z" transform="translate(-1964.45 -912.061)" fill="#12263f"/>
    <path id="Trazado_128940" data-name="Trazado 128940" d="M2067.4,1024.748s-5.131,1.395-9.377,7.963-2.221,10.14.816,11,7.68,1.419,13.185-2.45S2074.038,1023.17,2067.4,1024.748Z" transform="translate(-1808.942 -901.68)" fill="#e5baab"/>
    <path id="Trazado_128941" data-name="Trazado 128941" d="M2118.342,992.192s5.048-9.769-4.034-11.119l-2.344,1.208s-2.57-6.141,3.276-8.118a11.76,11.76,0,0,1,15.031,9.239c1.335,7.694-.673,12.28-5.03,15.288s-5.414-1.212-5.414-1.212,2.558-3.019,1.938-4.9-2.893-.018-2.893-.018Z" transform="translate(-1858.049 -856.797)" fill="#0e1c2f"/>
    <path id="Trazado_128942" data-name="Trazado 128942" d="M2176.46,1115.05s2.566-5.04,4.752-2.6-2.668,4.612-4.542,5.28Z" transform="translate(-1915.301 -978.38)" fill="#e5baab"/>
    <path id="Trazado_128943" data-name="Trazado 128943" d="M1024.72,1776.036v12.941a25.244,25.244,0,0,0,4.424,13.508l2.472,3.163a15.376,15.376,0,0,0,13.036,6.96H1098.8l.41-1.392,13.271-48.624,11.136-6-1.658-3.032-12.443,6.746-4.266,15.729Zm3.864,3.864H1104.3l-5.34,19.7-2.819,10.439h-51.489a12.4,12.4,0,0,1-10.142-5.824l-2.25-3.589a21.613,21.613,0,0,1-3.677-11.647Z" transform="translate(-901.761 -1543.147)" fill="#a0a8b2"/>
    <path id="Trazado_128944" data-name="Trazado 128944" d="M1087,2166.1a1.913,1.913,0,0,0,1.742,1.929h63.534c.96,0,1.69-1.359,1.69-2.318v-29.959c0-.33-.065-.3-.226-.559l-2.794,10.68h-.84v18.288h-61.36A1.928,1.928,0,0,0,1087,2166.1Z" transform="translate(-956.568 -1878.984)" fill="#a0a8b2"/>
    <rect id="Rectángulo_30703" data-name="Rectángulo 30703" width="2.319" height="32.612" transform="translate(163.387 234.708)" fill="#a0a8b2"/>
    <rect id="Rectángulo_30704" data-name="Rectángulo 30704" width="2.319" height="32.612" transform="translate(183.872 234.708)" fill="#a0a8b2"/>
    <rect id="Rectángulo_30705" data-name="Rectángulo 30705" width="2.319" height="32.612" transform="translate(143.385 234.708)" fill="#a0a8b2"/>
    <rect id="Rectángulo_30706" data-name="Rectángulo 30706" width="75.43" height="2.073" transform="translate(126.229 244.3)" fill="#a0a8b2"/>
    <rect id="Rectángulo_30707" data-name="Rectángulo 30707" width="70.247" height="2.073" transform="translate(128.118 255.652)" fill="#a0a8b2"/>
    <path id="Trazado_128945" data-name="Trazado 128945" d="M1500.77,2436.182a7.491,7.491,0,1,0,7.491-7.491A7.491,7.491,0,0,0,1500.77,2436.182Zm2.97,0a4.521,4.521,0,1,1,4.521,4.521A4.522,4.522,0,0,1,1503.74,2436.182Z" transform="translate(-1320.689 -2137.267)" fill="#a0a8b2"/>
    <path id="Trazado_128946" data-name="Trazado 128946" d="M1112.83,2436.182a7.491,7.491,0,1,0,7.491-7.491,7.491,7.491,0,0,0-7.491,7.491Zm2.97,0a4.521,4.521,0,1,1,4.521,4.521A4.521,4.521,0,0,1,1115.8,2436.182Z" transform="translate(-979.299 -2137.267)" fill="#a0a8b2"/>
    <path id="Trazado_128947" data-name="Trazado 128947" d="M1770.78,1753.019a3.519,3.519,0,0,0,3.519,3.518h11.71a3.519,3.519,0,0,0,3.52-3.518h0a3.519,3.519,0,0,0-3.52-3.519H1774.3A3.52,3.52,0,0,0,1770.78,1753.019Z" transform="translate(-1558.299 -1539.574)" fill="#a0a8b2"/>
  </g>
</svg>
