<svg xmlns="http://www.w3.org/2000/svg" width="259.428" height="296.61" viewBox="0 0 259.428 296.61">
  <g id="Grupo_1099990" data-name="Grupo 1099990" transform="translate(-348.572 -2773.363)">
    <g id="Grupo_1099989" data-name="Grupo 1099989">
      <g id="Grupo_1099988" data-name="Grupo 1099988">
        <g id="Grupo_1099987" data-name="Grupo 1099987">
          <g id="Grupo_1099986" data-name="Grupo 1099986">
            <g id="Grupo_1099985" data-name="Grupo 1099985">
              <path id="Trazado_129693" data-name="Trazado 129693" d="M-3830.263-9683h20.683l-10.341,10.342Z" transform="translate(4291.851 12742.632)" fill="#26aab7"/>
              <g id="Grupo_1099976" data-name="Grupo 1099976">
                <g id="Grupo_1099975" data-name="Grupo 1099975">
                  <g id="Grupo_1099974" data-name="Grupo 1099974">
                    <g id="Grupo_1099973" data-name="Grupo 1099973">
                      <rect id="Rect치ngulo_30773" data-name="Rect치ngulo 30773" width="225.092" height="213.011" rx="21.262" transform="translate(366.376 2793.209)" fill="#26aab7"/>
                      <path id="Trazado_129694" data-name="Trazado 129694" d="M-3698.026-10133.21h-105.105v4.451h105.105a19.629,19.629,0,0,1,19.605,19.606v200.639a19.628,19.628,0,0,1-19.605,19.605h-105.105v4.451h105.105a24.084,24.084,0,0,0,24.056-24.057v-200.639A24.084,24.084,0,0,0-3698.026-10133.21Z" transform="translate(4281.97 12906.573)" fill="#26aab7"/>
                      <path id="Trazado_129695" data-name="Trazado 129695" d="M-3876.928-9884.457h-7.676a2.226,2.226,0,0,1-2.226-2.226,2.225,2.225,0,0,1,2.226-2.226h7.676a2.225,2.225,0,0,1,2.226,2.226A2.226,2.226,0,0,1-3876.928-9884.457Zm-15.354,0h-7.677a2.226,2.226,0,0,1-2.226-2.226,2.225,2.225,0,0,1,2.226-2.226h7.677a2.225,2.225,0,0,1,2.226,2.226A2.226,2.226,0,0,1-3892.282-9884.457Zm-15.354,0h-7.677a2.226,2.226,0,0,1-2.225-2.226,2.225,2.225,0,0,1,2.225-2.226h7.677a2.225,2.225,0,0,1,2.226,2.226A2.226,2.226,0,0,1-3907.636-9884.457Zm-15.354,0h-7.676a2.226,2.226,0,0,1-2.226-2.226,2.226,2.226,0,0,1,2.226-2.226h7.676a2.225,2.225,0,0,1,2.226,2.226A2.226,2.226,0,0,1-3922.991-9884.457Zm-15.354,0h-7.677a2.226,2.226,0,0,1-2.226-2.226,2.225,2.225,0,0,1,2.226-2.226h7.677a2.225,2.225,0,0,1,2.226,2.226A2.226,2.226,0,0,1-3938.345-9884.457Zm-15.354,0h-7.677a2.226,2.226,0,0,1-2.226-2.226,2.225,2.225,0,0,1,2.226-2.226h7.677a2.225,2.225,0,0,1,2.226,2.226A2.226,2.226,0,0,1-3953.7-9884.457Zm-15.354,0h-7.677a2.226,2.226,0,0,1-2.226-2.226,2.225,2.225,0,0,1,2.226-2.226h7.677a2.225,2.225,0,0,1,2.226,2.226A2.225,2.225,0,0,1-3969.053-9884.457Zm-15.353,0h-.048a23.792,23.792,0,0,1-8.257-1.657,2.227,2.227,0,0,1-1.254-2.888,2.226,2.226,0,0,1,2.887-1.252,19.434,19.434,0,0,0,6.718,1.348,2.225,2.225,0,0,1,2.178,2.271A2.227,2.227,0,0,1-3984.406-9884.462Zm-14-5.5a2.217,2.217,0,0,1-1.476-.561,24.178,24.178,0,0,1-5.229-6.581,2.226,2.226,0,0,1,.895-3.019,2.224,2.224,0,0,1,3.017.9,19.79,19.79,0,0,0,4.271,5.374,2.226,2.226,0,0,1,.188,3.142A2.223,2.223,0,0,1-3998.4-9889.965Zm-7.155-13.225a2.226,2.226,0,0,1-2.2-1.91,24.067,24.067,0,0,1-.244-3.414v-4.567a2.225,2.225,0,0,1,2.226-2.226,2.225,2.225,0,0,1,2.225,2.226v4.567a19.663,19.663,0,0,0,.2,2.782,2.225,2.225,0,0,1-1.887,2.519A2.209,2.209,0,0,1-4005.556-9903.189Zm-.218-15.343a2.226,2.226,0,0,1-2.226-2.226v-7.677a2.226,2.226,0,0,1,2.226-2.227,2.226,2.226,0,0,1,2.225,2.227v7.677A2.225,2.225,0,0,1-4005.774-9918.532Zm0-15.354a2.225,2.225,0,0,1-2.226-2.226v-7.677a2.225,2.225,0,0,1,2.226-2.226,2.225,2.225,0,0,1,2.225,2.226v7.677A2.225,2.225,0,0,1-4005.774-9933.887Zm0-15.354a2.226,2.226,0,0,1-2.226-2.225v-7.679a2.226,2.226,0,0,1,2.226-2.226,2.225,2.225,0,0,1,2.225,2.226v7.679A2.225,2.225,0,0,1-4005.774-9949.24Zm0-15.355a2.226,2.226,0,0,1-2.226-2.227v-7.675a2.226,2.226,0,0,1,2.226-2.227,2.226,2.226,0,0,1,2.225,2.227v7.675A2.225,2.225,0,0,1-4005.774-9964.6Zm0-15.354a2.224,2.224,0,0,1-2.226-2.224v-7.68a2.226,2.226,0,0,1,2.226-2.225,2.225,2.225,0,0,1,2.225,2.225v7.68A2.224,2.224,0,0,1-4005.774-9979.95Zm0-15.354a2.225,2.225,0,0,1-2.226-2.226v-7.677a2.226,2.226,0,0,1,2.226-2.227,2.226,2.226,0,0,1,2.225,2.227v7.677A2.225,2.225,0,0,1-4005.774-9995.3Zm0-15.354a2.225,2.225,0,0,1-2.226-2.226v-7.677a2.225,2.225,0,0,1,2.226-2.225,2.225,2.225,0,0,1,2.225,2.225v7.677A2.225,2.225,0,0,1-4005.774-10010.658Zm0-15.354a2.227,2.227,0,0,1-2.226-2.226v-7.677a2.226,2.226,0,0,1,2.226-2.227,2.225,2.225,0,0,1,2.225,2.227v7.677A2.226,2.226,0,0,1-4005.774-10026.012Zm0-15.354a2.226,2.226,0,0,1-2.226-2.227v-7.678a2.225,2.225,0,0,1,2.226-2.225,2.225,2.225,0,0,1,2.225,2.225v7.678A2.226,2.226,0,0,1-4005.774-10041.365Zm0-15.355a2.225,2.225,0,0,1-2.226-2.225v-7.678a2.225,2.225,0,0,1,2.226-2.225,2.225,2.225,0,0,1,2.225,2.225v7.678A2.225,2.225,0,0,1-4005.774-10056.721Zm0-15.354a2.227,2.227,0,0,1-2.226-2.228v-7.675a2.226,2.226,0,0,1,2.226-2.226,2.225,2.225,0,0,1,2.225,2.226v7.675A2.226,2.226,0,0,1-4005.774-10072.074Zm0-15.355a2.225,2.225,0,0,1-2.226-2.225v-7.679a2.225,2.225,0,0,1,2.226-2.225,2.225,2.225,0,0,1,2.225,2.225v7.679A2.224,2.224,0,0,1-4005.774-10087.43Zm0-15.354a2.226,2.226,0,0,1-2.226-2.225v-4.145a24.054,24.054,0,0,1,.314-3.875,2.226,2.226,0,0,1,2.556-1.838,2.225,2.225,0,0,1,1.837,2.556,19.635,19.635,0,0,0-.256,3.157v4.145A2.225,2.225,0,0,1-4005.774-10102.783Zm2.828-14.858a2.223,2.223,0,0,1-1.1-.291,2.227,2.227,0,0,1-.837-3.034,24.193,24.193,0,0,1,5.356-6.481,2.224,2.224,0,0,1,3.137.249,2.224,2.224,0,0,1-.248,3.137,19.757,19.757,0,0,0-4.375,5.293A2.226,2.226,0,0,1-4002.947-10117.642Zm11.446-9.761a2.225,2.225,0,0,1-2.086-1.45,2.226,2.226,0,0,1,1.311-2.861,23.867,23.867,0,0,1,8.285-1.5,2.233,2.233,0,0,1,2.229,2.222,2.224,2.224,0,0,1-2.221,2.229,19.444,19.444,0,0,0-6.742,1.217A2.225,2.225,0,0,1-3991.5-10127.4Zm114.992-1.356h-7.677a2.225,2.225,0,0,1-2.226-2.226,2.226,2.226,0,0,1,2.226-2.226h7.677a2.226,2.226,0,0,1,2.226,2.226A2.225,2.225,0,0,1-3876.508-10128.759Zm-15.354,0h-7.677a2.226,2.226,0,0,1-2.226-2.226,2.227,2.227,0,0,1,2.226-2.226h7.677a2.227,2.227,0,0,1,2.226,2.226A2.225,2.225,0,0,1-3891.862-10128.759Zm-15.355,0h-7.676a2.225,2.225,0,0,1-2.226-2.226,2.227,2.227,0,0,1,2.226-2.226h7.676a2.227,2.227,0,0,1,2.226,2.226A2.225,2.225,0,0,1-3907.217-10128.759Zm-15.354,0h-7.677a2.225,2.225,0,0,1-2.226-2.226,2.226,2.226,0,0,1,2.226-2.226h7.677a2.226,2.226,0,0,1,2.225,2.226A2.225,2.225,0,0,1-3922.57-10128.759Zm-15.354,0h-7.677a2.225,2.225,0,0,1-2.226-2.226,2.227,2.227,0,0,1,2.226-2.226h7.677a2.227,2.227,0,0,1,2.226,2.226A2.225,2.225,0,0,1-3937.924-10128.759Zm-15.354,0h-7.677a2.225,2.225,0,0,1-2.226-2.226,2.227,2.227,0,0,1,2.226-2.226h7.677a2.227,2.227,0,0,1,2.226,2.226A2.225,2.225,0,0,1-3953.278-10128.759Zm-15.354,0h-7.677a2.225,2.225,0,0,1-2.226-2.226,2.227,2.227,0,0,1,2.226-2.226h7.677a2.227,2.227,0,0,1,2.226,2.226A2.225,2.225,0,0,1-3968.633-10128.759Z" transform="translate(4356.572 12906.573)" fill="#26aab7"/>
                      <rect id="Rect치ngulo_30774" data-name="Rect치ngulo 30774" width="4.451" height="36.88" transform="translate(469.702 3022.115)" fill="#26aab7"/>
                      <g id="Grupo_55889" data-name="Grupo 55889" transform="translate(423.192 2931.475)">
                        <path id="Trazado_129696" data-name="Trazado 129696" d="M-3858.971-9860.232a9.13,9.13,0,0,1-.789,3.915,5.928,5.928,0,0,1-2.258,2.593,6.217,6.217,0,0,1-3.369.915,6.294,6.294,0,0,1-3.354-.9,6,6,0,0,1-2.284-2.58,8.875,8.875,0,0,1-.82-3.859v-.747a9.079,9.079,0,0,1,.8-3.928,5.964,5.964,0,0,1,2.274-2.605,6.238,6.238,0,0,1,3.358-.908,6.24,6.24,0,0,1,3.359.908,5.966,5.966,0,0,1,2.273,2.605,9.051,9.051,0,0,1,.8,3.919Zm-3.156-.685a6.361,6.361,0,0,0-.851-3.612,2.772,2.772,0,0,0-2.43-1.236,2.772,2.772,0,0,0-2.419,1.22,6.284,6.284,0,0,0-.861,3.576v.737a6.443,6.443,0,0,0,.852,3.594,2.768,2.768,0,0,0,2.45,1.275,2.746,2.746,0,0,0,2.409-1.229,6.407,6.407,0,0,0,.851-3.588Z" transform="translate(3883.8 9868.963)" fill="#fff"/>
                        <path id="Trazado_129697" data-name="Trazado 129697" d="M-3838.227-9858.889a6.805,6.805,0,0,1-1.152,4.211,3.821,3.821,0,0,1-3.219,1.512,3.506,3.506,0,0,1-2.917-1.4l-.135,1.194h-2.7v-15.947h3v5.721a3.416,3.416,0,0,1,2.73-1.215,3.849,3.849,0,0,1,3.223,1.51,6.812,6.812,0,0,1,1.168,4.253Zm-3-.218a4.469,4.469,0,0,0-.541-2.485,1.824,1.824,0,0,0-1.609-.783,1.978,1.978,0,0,0-1.972,1.172v4.434a2,2,0,0,0,1.993,1.184,1.851,1.851,0,0,0,1.911-1.433A7.419,7.419,0,0,0-3841.227-9859.106Z" transform="translate(3875.243 9869.321)" fill="#fff"/>
                        <path id="Trazado_129698" data-name="Trazado 129698" d="M-3827.571-9864.459v11.846a4.013,4.013,0,0,1-.986,2.891,3.748,3.748,0,0,1-2.845,1.035,6.031,6.031,0,0,1-1.485-.178v-2.379a5.636,5.636,0,0,0,.945.1q1.36,0,1.36-1.443v-11.867Zm-3.25-2.906a1.477,1.477,0,0,1,.452-1.111,1.7,1.7,0,0,1,1.23-.437,1.7,1.7,0,0,1,1.23.438,1.476,1.476,0,0,1,.452,1.111,1.472,1.472,0,0,1-.462,1.121,1.7,1.7,0,0,1-1.22.436,1.7,1.7,0,0,1-1.219-.436A1.472,1.472,0,0,1-3830.821-9867.365Z" transform="translate(3869.613 9869.174)" fill="#fff"/>
                        <path id="Trazado_129699" data-name="Trazado 129699" d="M-3815.9-9850.586a5.509,5.509,0,0,1-4.023-1.516,5.384,5.384,0,0,1-1.552-4.037v-.293a6.783,6.783,0,0,1,.654-3.025,4.785,4.785,0,0,1,1.853-2.055,5.19,5.19,0,0,1,2.735-.725,4.664,4.664,0,0,1,3.629,1.455,5.905,5.905,0,0,1,1.324,4.121v1.227h-7.153a2.788,2.788,0,0,0,.877,1.766,2.659,2.659,0,0,0,1.853.664,3.238,3.238,0,0,0,2.71-1.258l1.474,1.65a4.484,4.484,0,0,1-1.827,1.49A6.013,6.013,0,0,1-3815.9-9850.586Zm-.343-9.229a1.871,1.871,0,0,0-1.448.605,3.119,3.119,0,0,0-.711,1.73h4.174v-.24a2.235,2.235,0,0,0-.54-1.549A1.941,1.941,0,0,0-3816.242-9859.814Z" transform="translate(3865.457 9866.741)" fill="#fff"/>
                        <path id="Trazado_129700" data-name="Trazado 129700" d="M-3799.771-9866.251v2.762h1.921v2.2h-1.921v5.606a1.33,1.33,0,0,0,.239.893,1.194,1.194,0,0,0,.913.271,4.751,4.751,0,0,0,.883-.072v2.274a6.184,6.184,0,0,1-1.817.269q-3.155,0-3.218-3.187v-6.053h-1.64v-2.2h1.64v-2.762Z" transform="translate(3859.244 9868.203)" fill="#fff"/>
                        <path id="Trazado_129701" data-name="Trazado 129701" d="M-3791.5-9867.365a1.475,1.475,0,0,1,.451-1.111,1.7,1.7,0,0,1,1.23-.437,1.7,1.7,0,0,1,1.225.438,1.469,1.469,0,0,1,.457,1.111,1.472,1.472,0,0,1-.462,1.121,1.7,1.7,0,0,1-1.22.436,1.7,1.7,0,0,1-1.22-.436A1.475,1.475,0,0,1-3791.5-9867.365Zm3.187,14.141h-3.011v-11.234h3.011Z" transform="translate(3854.541 9869.174)" fill="#fff"/>
                        <path id="Trazado_129702" data-name="Trazado 129702" d="M-3778.976-9854.339l2.087-7.569h3.135l-3.79,11.232h-2.865l-3.79-11.232h3.135Z" transform="translate(3851.883 9866.622)" fill="#fff"/>
                        <path id="Trazado_129703" data-name="Trazado 129703" d="M-3766.678-9856.514a6.654,6.654,0,0,1,.644-2.979,4.7,4.7,0,0,1,1.854-2.025,5.4,5.4,0,0,1,2.808-.719,5.123,5.123,0,0,1,3.711,1.393,5.585,5.585,0,0,1,1.6,3.779l.021.768a5.858,5.858,0,0,1-1.444,4.146,5.012,5.012,0,0,1-3.872,1.564,5.043,5.043,0,0,1-3.878-1.557,5.975,5.975,0,0,1-1.449-4.236Zm3,.213a4.194,4.194,0,0,0,.6,2.447,1.985,1.985,0,0,0,1.724.85,1.993,1.993,0,0,0,1.7-.838,4.6,4.6,0,0,0,.613-2.68,4.153,4.153,0,0,0-.613-2.432,1.991,1.991,0,0,0-1.723-.861,1.955,1.955,0,0,0-1.7.855A4.682,4.682,0,0,0-3763.678-9856.3Z" transform="translate(3845.503 9866.741)" fill="#fff"/>
                        <path id="Trazado_129704" data-name="Trazado 129704" d="M-3741.279-9853.9a.972.972,0,0,0-.545-.869,6.2,6.2,0,0,0-1.749-.564q-4.008-.841-4.008-3.406a3.086,3.086,0,0,1,1.24-2.5,5.007,5.007,0,0,1,3.245-1,5.4,5.4,0,0,1,3.421,1.008,3.177,3.177,0,0,1,1.282,2.617h-3a1.447,1.447,0,0,0-.416-1.062,1.745,1.745,0,0,0-1.3-.422,1.8,1.8,0,0,0-1.173.342,1.084,1.084,0,0,0-.415.873.921.921,0,0,0,.473.8,4.741,4.741,0,0,0,1.593.529,13.124,13.124,0,0,1,1.89.506,3.1,3.1,0,0,1,2.377,3.02,2.928,2.928,0,0,1-1.319,2.486,5.676,5.676,0,0,1-3.405.951,5.933,5.933,0,0,1-2.507-.5,4.2,4.2,0,0,1-1.718-1.381,3.2,3.2,0,0,1-.623-1.895h2.845a1.57,1.57,0,0,0,.591,1.227,2.353,2.353,0,0,0,1.475.424,2.168,2.168,0,0,0,1.3-.328A1.012,1.012,0,0,0-3741.279-9853.9Z" transform="translate(3838.678 9866.741)" fill="#fff"/>
                        <path id="Trazado_129705" data-name="Trazado 129705" d="M-3885.071-9810.46a5.516,5.516,0,0,1-4.023-1.514,5.39,5.39,0,0,1-1.552-4.04v-.29a6.785,6.785,0,0,1,.654-3.026,4.791,4.791,0,0,1,1.854-2.056,5.2,5.2,0,0,1,2.735-.723,4.663,4.663,0,0,1,3.629,1.454,5.906,5.906,0,0,1,1.324,4.122v1.225h-7.153a2.788,2.788,0,0,0,.877,1.766,2.649,2.649,0,0,0,1.853.664,3.238,3.238,0,0,0,2.71-1.256l1.475,1.65a4.515,4.515,0,0,1-1.828,1.49A6.023,6.023,0,0,1-3885.071-9810.46Zm-.343-9.229a1.878,1.878,0,0,0-1.449.6,3.142,3.142,0,0,0-.71,1.731h4.173v-.239a2.226,2.226,0,0,0-.54-1.549A1.931,1.931,0,0,0-3885.414-9819.688Z" transform="translate(3890.646 9852.13)" fill="#fff"/>
                        <path id="Trazado_129706" data-name="Trazado 129706" d="M-3866.178-9813.771a.968.968,0,0,0-.545-.867,6.177,6.177,0,0,0-1.749-.566q-4.008-.841-4.008-3.405a3.085,3.085,0,0,1,1.241-2.5,5,5,0,0,1,3.244-1,5.384,5.384,0,0,1,3.421,1.008,3.176,3.176,0,0,1,1.282,2.617h-3a1.455,1.455,0,0,0-.415-1.064,1.755,1.755,0,0,0-1.3-.421,1.793,1.793,0,0,0-1.173.342,1.082,1.082,0,0,0-.416.873.923.923,0,0,0,.472.8,4.835,4.835,0,0,0,1.594.53,13.14,13.14,0,0,1,1.889.5,3.1,3.1,0,0,1,2.377,3.021,2.928,2.928,0,0,1-1.318,2.485,5.685,5.685,0,0,1-3.405.95,5.939,5.939,0,0,1-2.507-.5,4.213,4.213,0,0,1-1.718-1.382,3.206,3.206,0,0,1-.623-1.895h2.845a1.559,1.559,0,0,0,.592,1.225,2.342,2.342,0,0,0,1.474.428,2.17,2.17,0,0,0,1.3-.329A1.016,1.016,0,0,0-3866.178-9813.771Z" transform="translate(3884.159 9852.13)" fill="#fff"/>
                        <path id="Trazado_129707" data-name="Trazado 129707" d="M-3851.75-9826.124v2.763h1.92v2.2h-1.92v5.606a1.341,1.341,0,0,0,.238.893,1.2,1.2,0,0,0,.914.271,4.836,4.836,0,0,0,.882-.073v2.273a6.185,6.185,0,0,1-1.817.27q-3.157,0-3.218-3.187v-6.052h-1.641v-2.2h1.641v-2.763Z" transform="translate(3878.172 9853.591)" fill="#fff"/>
                        <path id="Trazado_129708" data-name="Trazado 129708" d="M-3837.13-9819.086a7.948,7.948,0,0,0-1.08-.083,2.2,2.2,0,0,0-2.232,1.151v7.351h-3V-9821.9h2.835l.083,1.339a2.779,2.779,0,0,1,2.5-1.548,3.142,3.142,0,0,1,.934.136Z" transform="translate(3873.457 9852.13)" fill="#fff"/>
                        <path id="Trazado_129709" data-name="Trazado 129709" d="M-3825.482-9810.667a3.356,3.356,0,0,1-.3-1.006,3.632,3.632,0,0,1-2.833,1.213,3.99,3.99,0,0,1-2.736-.954,3.073,3.073,0,0,1-1.084-2.408,3.174,3.174,0,0,1,1.324-2.74,6.516,6.516,0,0,1,3.826-.966h1.381v-.646a1.854,1.854,0,0,0-.4-1.245,1.574,1.574,0,0,0-1.262-.467,1.784,1.784,0,0,0-1.189.364,1.231,1.231,0,0,0-.43,1h-3a3.021,3.021,0,0,1,.6-1.808,3.991,3.991,0,0,1,1.7-1.3,6.2,6.2,0,0,1,2.471-.473,4.9,4.9,0,0,1,3.3,1.045,3.647,3.647,0,0,1,1.22,2.933v4.869a5.378,5.378,0,0,0,.446,2.42v.175Zm-2.481-2.087a2.572,2.572,0,0,0,1.225-.3,1.935,1.935,0,0,0,.831-.795v-1.93h-1.121q-2.253,0-2.4,1.557l-.011.177a1.2,1.2,0,0,0,.394.926A1.543,1.543,0,0,0-3827.963-9812.754Z" transform="translate(3869.45 9852.13)" fill="#fff"/>
                        <path id="Trazado_129710" data-name="Trazado 129710" d="M-3810.816-9826.124v2.763h1.921v2.2h-1.921v5.606a1.336,1.336,0,0,0,.239.893,1.2,1.2,0,0,0,.914.271,4.841,4.841,0,0,0,.883-.073v2.273a6.19,6.19,0,0,1-1.817.27q-3.156,0-3.218-3.187v-6.052h-1.641v-2.2h1.641v-2.763Z" transform="translate(3863.266 9853.591)" fill="#fff"/>
                        <path id="Trazado_129711" data-name="Trazado 129711" d="M-3797.571-9813.04a5.512,5.512,0,0,1-4.023-1.515,5.388,5.388,0,0,1-1.552-4.039v-.291a6.791,6.791,0,0,1,.654-3.026,4.805,4.805,0,0,1,1.854-2.055,5.2,5.2,0,0,1,2.735-.724,4.665,4.665,0,0,1,3.629,1.454,5.909,5.909,0,0,1,1.324,4.122v1.226h-7.153a2.789,2.789,0,0,0,.877,1.766,2.653,2.653,0,0,0,1.853.663,3.237,3.237,0,0,0,2.71-1.256l1.474,1.651a4.511,4.511,0,0,1-1.827,1.489A6.011,6.011,0,0,1-3797.571-9813.04Zm-.342-9.229a1.874,1.874,0,0,0-1.449.6,3.135,3.135,0,0,0-.711,1.73h4.173v-.239a2.23,2.23,0,0,0-.54-1.549A1.935,1.935,0,0,0-3797.913-9822.269Zm.269-6.926h3.271l-2.876,3.219h-2.439Z" transform="translate(3858.783 9854.709)" fill="#fff"/>
                        <path id="Trazado_129712" data-name="Trazado 129712" d="M-3785.12-9816.366a6.589,6.589,0,0,1,1.229-4.163,3.989,3.989,0,0,1,3.317-1.579,3.5,3.5,0,0,1,2.876,1.267l.125-1.058h2.72v10.859a4.8,4.8,0,0,1-.669,2.563,4.308,4.308,0,0,1-1.884,1.662,6.639,6.639,0,0,1-2.845.57,6.172,6.172,0,0,1-2.409-.492,4.269,4.269,0,0,1-1.775-1.272l1.33-1.827a3.516,3.516,0,0,0,2.72,1.256,2.569,2.569,0,0,0,1.859-.639,2.4,2.4,0,0,0,.665-1.812v-.6a3.471,3.471,0,0,1-2.73,1.172,3.977,3.977,0,0,1-3.276-1.583,6.578,6.578,0,0,1-1.25-4.2Zm3,.224a4.1,4.1,0,0,0,.613,2.4,1.949,1.949,0,0,0,1.682.868,2.084,2.084,0,0,0,1.962-1.028v-4.732a2.082,2.082,0,0,0-1.942-1.029,1.962,1.962,0,0,0-1.7.885A4.615,4.615,0,0,0-3782.121-9816.143Z" transform="translate(3852.219 9852.13)" fill="#fff"/>
                        <path id="Trazado_129713" data-name="Trazado 129713" d="M-3765.38-9827.239a1.478,1.478,0,0,1,.451-1.11,1.7,1.7,0,0,1,1.23-.437,1.7,1.7,0,0,1,1.225.437,1.471,1.471,0,0,1,.457,1.11,1.474,1.474,0,0,1-.462,1.121,1.7,1.7,0,0,1-1.22.436,1.7,1.7,0,0,1-1.22-.436A1.474,1.474,0,0,1-3765.38-9827.239Zm3.187,14.141h-3.011v-11.233h3.011Z" transform="translate(3845.031 9854.56)" fill="#fff"/>
                        <path id="Trazado_129714" data-name="Trazado 129714" d="M-3752.077-9812.878a1.971,1.971,0,0,0,1.35-.456,1.6,1.6,0,0,0,.539-1.215h2.813a3.845,3.845,0,0,1-.622,2.092,4.122,4.122,0,0,1-1.677,1.475,5.259,5.259,0,0,1-2.351.522,4.876,4.876,0,0,1-3.8-1.53,6.06,6.06,0,0,1-1.391-4.23v-.2a5.99,5.99,0,0,1,1.381-4.143,4.817,4.817,0,0,1,3.79-1.548,4.722,4.722,0,0,1,3.379,1.2,4.241,4.241,0,0,1,1.292,3.192h-2.813a2.063,2.063,0,0,0-.539-1.425,1.8,1.8,0,0,0-1.371-.548,1.809,1.809,0,0,0-1.583.764,4.435,4.435,0,0,0-.534,2.48v.313a4.486,4.486,0,0,0,.529,2.5A1.833,1.833,0,0,0-3752.077-9812.878Z" transform="translate(3842.058 9852.13)" fill="#fff"/>
                        <path id="Trazado_129715" data-name="Trazado 129715" d="M-3739.778-9816.388a6.669,6.669,0,0,1,.643-2.979,4.714,4.714,0,0,1,1.853-2.025,5.41,5.41,0,0,1,2.809-.717,5.118,5.118,0,0,1,3.711,1.393,5.582,5.582,0,0,1,1.6,3.779l.021.769a5.864,5.864,0,0,1-1.443,4.146,5.011,5.011,0,0,1-3.872,1.563,5.036,5.036,0,0,1-3.877-1.557,5.97,5.97,0,0,1-1.448-4.236Zm3,.213a4.2,4.2,0,0,0,.6,2.449,1.988,1.988,0,0,0,1.724.848,1.988,1.988,0,0,0,1.7-.837,4.6,4.6,0,0,0,.613-2.678,4.161,4.161,0,0,0-.613-2.434,1.992,1.992,0,0,0-1.723-.862,1.96,1.96,0,0,0-1.7.858A4.671,4.671,0,0,0-3736.778-9816.175Z" transform="translate(3835.708 9852.13)" fill="#fff"/>
                        <path id="Trazado_129716" data-name="Trazado 129716" d="M-3714.379-9813.771a.967.967,0,0,0-.545-.867,6.187,6.187,0,0,0-1.75-.566q-4.006-.841-4.007-3.405a3.085,3.085,0,0,1,1.241-2.5,5,5,0,0,1,3.245-1,5.384,5.384,0,0,1,3.421,1.008,3.175,3.175,0,0,1,1.282,2.617h-3a1.455,1.455,0,0,0-.415-1.064,1.753,1.753,0,0,0-1.3-.421,1.794,1.794,0,0,0-1.173.342,1.084,1.084,0,0,0-.416.873.923.923,0,0,0,.472.8,4.831,4.831,0,0,0,1.594.53,13.174,13.174,0,0,1,1.89.5,3.106,3.106,0,0,1,2.377,3.021,2.928,2.928,0,0,1-1.319,2.485,5.685,5.685,0,0,1-3.405.95,5.938,5.938,0,0,1-2.507-.5,4.213,4.213,0,0,1-1.718-1.382,3.2,3.2,0,0,1-.623-1.895h2.845a1.557,1.557,0,0,0,.591,1.225,2.346,2.346,0,0,0,1.475.428,2.174,2.174,0,0,0,1.3-.329A1.017,1.017,0,0,0-3714.379-9813.771Z" transform="translate(3828.883 9852.13)" fill="#fff"/>
                      </g>
                      <g id="Grupo_55892" data-name="Grupo 55892" transform="translate(456.667 2833.903)">
                        <g id="Grupo_55891" data-name="Grupo 55891">
                          <path id="Trazado_129735" data-name="Trazado 129735" d="M-3795.657-10012.9l10.08-12.667a1.579,1.579,0,0,0,.164-1.744,1.793,1.793,0,0,0-1.591-.921h-43.4v-2.128a4,4,0,0,0,2.491-3.635,4.148,4.148,0,0,0-4.271-4,4.147,4.147,0,0,0-4.271,4,4,4,0,0,0,2.49,3.635v61.378h-2.256a1.727,1.727,0,0,0-1.781,1.667,1.728,1.728,0,0,0,1.781,1.669h8.073a1.728,1.728,0,0,0,1.781-1.669,1.727,1.727,0,0,0-1.781-1.667h-2.257v-28.651h43.333a1.792,1.792,0,0,0,1.591-.919,1.583,1.583,0,0,0-.163-1.745Zm-36.526-20.1a1.035,1.035,0,0,1-1.066-1,1.035,1.035,0,0,1,1.066-1,1.035,1.035,0,0,1,1.066,1A1.035,1.035,0,0,1-3832.183-10033Zm1.78,32.027h0v-5.541h5.674a1.728,1.728,0,0,0,1.781-1.669,1.727,1.727,0,0,0-1.781-1.667h-5.674v-6.172h8.878a1.728,1.728,0,0,0,1.781-1.669,1.726,1.726,0,0,0-1.781-1.667h-8.878v-5.541h39.85l-8.751,11a1.584,1.584,0,0,0,0,1.993l8.691,10.938Z" transform="translate(3838 10038)" fill="#fff"/>
                        </g>
                      </g>
                    </g>
                  </g>
                </g>
              </g>
            </g>
          </g>
        </g>
      </g>
    </g>
  </g>
</svg>
