<svg xmlns="http://www.w3.org/2000/svg" width="83.25" height="87.315" viewBox="0 0 83.25 87.315">
  <g id="Grupo_1100007" data-name="Grupo 1100007" transform="translate(-758.375 -6965)">
    <g id="Grupo_1100006" data-name="Grupo 1100006">
      <g id="Grupo_1100005" data-name="Grupo 1100005">
        <g id="Grupo_1100004" data-name="Grupo 1100004">
          <path id="_12068" data-name="12068" d="M72.033,71.913c-8.038-1.11-16.53-.839-23.844,2.675C38.045,79.46,31.382,90.507,31.127,101.757s5.606,22.305,14.66,28.988,21,9.051,32.068,7.045c11.165-2.023,21.645-8.583,27.469-18.322,3.735-6.245,5.48-13.956,3.417-20.934a28.6,28.6,0,0,0-6.787-11.156A50.145,50.145,0,0,0,72.033,71.913Z" transform="translate(729.631 6913.833)" fill="#ffd947"/>
          <g id="pricing" transform="translate(750.363 6933.532)">
            <g id="Grupo_1099320" data-name="Grupo 1099320" transform="translate(9.354 33.227)">
              <g id="Grupo_1099317" data-name="Grupo 1099317" transform="translate(0 0)">
                <path id="Trazado_873498" data-name="Trazado 873498" d="M48.859,42.328,77.584,58.912a2.686,2.686,0,0,1,1.375,2.382V94.463a2.686,2.686,0,0,1-1.375,2.382L48.859,113.429a2.686,2.686,0,0,1-2.75,0L17.383,96.845a2.686,2.686,0,0,1-1.375-2.382V61.294a2.686,2.686,0,0,1,1.375-2.382L46.108,42.328a2.686,2.686,0,0,1,2.75,0Z" transform="translate(-16.008 -41.949)" fill="#f2d1a5" fill-rule="evenodd"/>
                <path id="Trazado_873499" data-name="Trazado 873499" d="M89.644,204.564l-5.69-3.285a2.686,2.686,0,0,1-1.375-2.382V186.173l9.128,5.27v11.93a1.375,1.375,0,0,1-2.063,1.191Z" transform="translate(-71.405 -161.965)" fill="#e3a76f" fill-rule="evenodd"/>
                <path id="Trazado_873500" data-name="Trazado 873500" d="M50.641,42.328,79.366,58.912a2.742,2.742,0,0,1,1.016,1L49.266,77.878,18.15,59.914a2.739,2.739,0,0,1,1.016-1L47.891,42.328A2.686,2.686,0,0,1,50.641,42.328Z" transform="translate(-17.79 -41.949)" fill="#e3a76f" fill-rule="evenodd"/>
                <path id="Trazado_873501" data-name="Trazado 873501" d="M82.578,96.08l9.128,5.27,31.476-18.172-9.128-5.27Z" transform="translate(-71.404 -71.872)" fill="#c48958" fill-rule="evenodd"/>
                <path id="Trazado_873502" data-name="Trazado 873502" d="M234.643,148.976a2.739,2.739,0,0,1,.36,1.38v33.169a2.686,2.686,0,0,1-1.375,2.382L204.9,202.492a2.74,2.74,0,0,1-1.375.379V166.941Z" transform="translate(-172.052 -131.011)" fill="#ecba78" fill-rule="evenodd"/>
              </g>
              <g id="Grupo_1099318" data-name="Grupo 1099318" transform="translate(51.895 20.738)">
                <path id="Trazado_873503" data-name="Trazado 873503" d="M353.318,177.568v36.857a2.615,2.615,0,0,1-2.61,2.61h-22.92a2.615,2.615,0,0,1-2.61-2.61V177.568a2.526,2.526,0,0,1,.864-1.94l9.213-8.287a5.247,5.247,0,0,1,7.984,0l9.213,8.287A2.526,2.526,0,0,1,353.318,177.568Z" transform="translate(-325.179 -165.499)" fill="#fe646f" fill-rule="evenodd"/>
                <path id="Trazado_873504" data-name="Trazado 873504" d="M414.747,177.568v36.857a2.615,2.615,0,0,1-2.61,2.61H408.78a2.615,2.615,0,0,0,2.61-2.61V177.568a2.526,2.526,0,0,0-.864-1.94l-9.213-8.288A7.642,7.642,0,0,0,399,165.812a4.608,4.608,0,0,1,1.679-.313,5.881,5.881,0,0,1,3.992,1.842l9.213,8.288A2.527,2.527,0,0,1,414.747,177.568Z" transform="translate(-386.608 -165.499)" fill="#fd4755" fill-rule="evenodd"/>
                <path id="Trazado_873505" data-name="Trazado 873505" d="M391.875,201.187a2.875,2.875,0,1,1,2.875,2.875A2.875,2.875,0,0,1,391.875,201.187Z" transform="translate(-380.68 -192.804)" fill="#eceff1" fill-rule="evenodd"/>
                <path id="Trazado_873506" data-name="Trazado 873506" d="M391.875,201.187a2.876,2.876,0,0,1,3.43-2.821,2.875,2.875,0,0,0,0,5.642,2.876,2.876,0,0,1-3.43-2.821Z" transform="translate(-380.68 -192.804)" fill="#d1d1d6" fill-rule="evenodd"/>
                <path id="Trazado_873507" data-name="Trazado 873507" d="M379.726,168.17l.922-.829a5.247,5.247,0,0,1,7.984,0l1.787,1.608-3.761,2.886a2.874,2.874,0,0,0-4.083.049Z" transform="translate(-370.57 -165.499)" fill="#fe646f" fill-rule="evenodd"/>
                <path id="Trazado_873508" data-name="Trazado 873508" d="M399,165.812a4.608,4.608,0,0,1,1.679-.313,5.881,5.881,0,0,1,3.992,1.842l1.787,1.608-1.812,1.39-3.333-3A7.648,7.648,0,0,0,399,165.812Z" transform="translate(-386.608 -165.499)" fill="#fd4755" fill-rule="evenodd"/>
              </g>
              <g id="Grupo_1099319" data-name="Grupo 1099319" transform="translate(51.123 36.409)">
                <circle id="Elipse_11560" data-name="Elipse 11560" cx="10.487" cy="10.487" r="10.487" transform="translate(0 14.828) rotate(-45)" fill="#ffc338"/>
                <path id="Trazado_873509" data-name="Trazado 873509" d="M357.012,284.72a10.622,10.622,0,0,1,1.189.067,10.487,10.487,0,0,0,0,20.838,10.622,10.622,0,0,1-1.189.067,10.487,10.487,0,0,1,0-20.973Z" transform="translate(-342.17 -280.379)" fill="#f5b829" fill-rule="evenodd"/>
              </g>
            </g>
            <path id="Trazado_873510" data-name="Trazado 873510" d="M75.319,93.607a9.144,9.144,0,1,1,9.145-9.145A9.155,9.155,0,0,1,75.319,93.607Zm0-20.974a11.83,11.83,0,1,0,11.83,11.829A11.841,11.841,0,0,0,75.319,72.634ZM80,86.757c-.24-1.981-1.74-3.211-4.452-3.657-1.858-.3-1.89-.931-1.9-1.168-.043-.875.888-1.154,1.175-1.22A2,2,0,0,1,77.169,81.8a1.342,1.342,0,1,0,2.475-1.039,4.407,4.407,0,0,0-2.982-2.615v-.315a1.343,1.343,0,1,0-2.685,0v.329a3.866,3.866,0,0,0-3.013,3.906c.055,1.131.668,3.117,4.148,3.688,2.1.345,2.185,1.035,2.223,1.329a.665.665,0,0,1-.152.573,2.582,2.582,0,0,1-1.757.621,2.027,2.027,0,0,1-2.167-1.312,1.342,1.342,0,1,0-2.6.649A4.41,4.41,0,0,0,73.976,90.8v.3a1.343,1.343,0,0,0,2.685,0v-.28a4.671,4.671,0,0,0,2.551-1.41A3.337,3.337,0,0,0,80,86.757Zm.209-31.948a11.265,11.265,0,0,0-1.485-1.15c.389-.566.807-1.127,1.255-1.68a20.892,20.892,0,0,1,5.489-4.923c1.615-.921,2.593-.935,2.859-.721s.45,1.176-.121,2.944a20.855,20.855,0,0,1-3.691,6.384q-.724.891-1.487,1.68Zm-5.736,8.582a3.144,3.144,0,0,0,.865.488h-.019a1.535,1.535,0,0,1-1.5-1.224A3.128,3.128,0,0,0,74.472,63.391Zm1.694-2.085a.67.67,0,0,1-.185-.337,1.532,1.532,0,0,1,.549.446A.66.66,0,0,1,76.166,61.306Zm11.879,4.729a1.185,1.185,0,0,0-.419-.942l-4.56-4.1a18.417,18.417,0,0,1-2.711,1.927c-.334.19-.649.351-.952.491a4.219,4.219,0,1,1-.28-2.882,15.29,15.29,0,0,0,1.926-1.349l-2.636-2.37a3.945,3.945,0,0,0-6.188,0l-9.213,8.287a1.192,1.192,0,0,0-.419.942v36.859a1.267,1.267,0,0,0,1.267,1.265H86.78a1.266,1.266,0,0,0,1.265-1.265ZM42.173,103.177,59.907,92.937v-26.9A3.853,3.853,0,0,1,61.216,63.1l9.213-8.289q.253-.228.534-.457V53.31L42.173,69.932ZM10.7,53.31l8.488,4.9V71.748a1.339,1.339,0,0,0,.672,1.161l9.128,5.271A1.343,1.343,0,0,0,31,77.017V65.03l8.488,4.9v33.245L10.7,86.554ZM40.83,34.363l8.488,4.9L20.529,55.885l-8.488-4.9Zm-18.958,25.4V70.972l6.441,3.72V63.481Zm1.342-2.326L52,40.813l6.442,3.72L29.656,61.155ZM40.83,67.605l-8.488-4.9,28.79-16.623,8.488,4.9ZM90.761,50.1c1.166-3.619.036-5.221-.743-5.853s-2.577-1.412-5.88.473a23.56,23.56,0,0,0-6.245,5.561,28.929,28.929,0,0,0-1.752,2.4,5.918,5.918,0,0,0-2.493.185v-1.88a1.341,1.341,0,0,0-.672-1.163L41.5,31.648a1.342,1.342,0,0,0-1.343,0L8.684,49.822a1.343,1.343,0,0,0-.672,1.163V87.329a1.342,1.342,0,0,0,.672,1.163l31.475,18.171a1.342,1.342,0,0,0,1.343,0L59.907,96.037v6.855a3.957,3.957,0,0,0,3.953,3.951H86.78a3.956,3.956,0,0,0,3.951-3.951V66.034A3.85,3.85,0,0,0,89.422,63.1l-4.4-3.957c.537-.562,1.064-1.158,1.575-1.785A23.557,23.557,0,0,0,90.761,50.1Z" fill-rule="evenodd"/>
          </g>
        </g>
      </g>
    </g>
  </g>
</svg>
