<svg id="graficos14-13" xmlns="http://www.w3.org/2000/svg" width="420" height="235.523" viewBox="0 0 420 235.523">
  <g id="freepik--character-1--inject-3" transform="translate(27.353 18.376)">
    <path id="Trazado_128948" data-name="Trazado 128948" d="M319.838,144.638a7.988,7.988,0,0,0-.577-13.9l-9.571-1.857q.38,18.017.517,36.044a13.538,13.538,0,0,0,6.782-2.889c1.839-1.679,2.822-4.5,1.749-6.746a6.338,6.338,0,0,0,1.1-10.65Z" transform="translate(-256.934 -113.918)" fill="#263238"/>
    <path id="Trazado_128949" data-name="Trazado 128949" d="M170.9,157.445l-.215-4.258,25.451-5.662c7.866-1.084,16.646,6.568,17.393,14.486.825,8.795,1.49,19.543.634,26.142-1.687,13.267-11.759,15.262-11.759,15.262l.82,13.035c.323,7.608-6.043,9.509-13.663,9.83h0a13.829,13.829,0,0,1-14.382-12.745Z" transform="translate(-153.889 -127.664)" fill="#966960"/>
    <path id="Trazado_128950" data-name="Trazado 128950" d="M313.064,233.01a1.694,1.694,0,0,1-1.586,1.756,1.612,1.612,0,0,1-1.782-1.417.376.376,0,0,0,0-.054,1.694,1.694,0,0,1,1.581-1.762,1.625,1.625,0,0,1,1.79,1.449A.267.267,0,0,0,313.064,233.01Z" transform="translate(-256.937 -190.011)" fill="#263238"/>
    <path id="Trazado_128951" data-name="Trazado 128951" d="M307.1,220.939c-.2.228-1.516-.68-3.342-.636s-3.125,1.017-3.334.8c-.1-.1.1-.5.673-.944a4.656,4.656,0,0,1,2.662-.905,4.439,4.439,0,0,1,2.664.776C306.969,220.442,307.17,220.836,307.1,220.939Z" transform="translate(-250.042 -180.911)" fill="#263238"/>
    <path id="Trazado_128952" data-name="Trazado 128952" d="M247.483,237.271a1.694,1.694,0,0,1-1.578,1.756,1.619,1.619,0,0,1-1.79-1.423v-.047a1.692,1.692,0,0,1,1.578-1.764,1.63,1.63,0,0,1,1.79,1.449A.117.117,0,0,1,247.483,237.271Z" transform="translate(-208.32 -193.17)" fill="#263238"/>
    <path id="Trazado_128953" data-name="Trazado 128953" d="M237.795,224.4c-.209.228-1.524-.686-3.342-.636s-3.13,1.017-3.334.8c-.1-.1.1-.5.673-.944a4.6,4.6,0,0,1,2.657-.913,4.467,4.467,0,0,1,2.667.776C237.686,223.9,237.888,224.294,237.795,224.4Z" transform="translate(-198.668 -183.47)" fill="#263238"/>
    <path id="Trazado_128954" data-name="Trazado 128954" d="M280.381,237.215a13.026,13.026,0,0,1,2.941-.634c.463-.062.908-.171.97-.486a2.343,2.343,0,0,0-.347-1.371l-1.49-3.505c-2.069-4.982-3.583-9.09-3.378-9.173s2.041,3.88,4.108,8.875l1.431,3.528a2.706,2.706,0,0,1,.3,1.811,1.185,1.185,0,0,1-.75.7,2.879,2.879,0,0,1-.776.132A10.088,10.088,0,0,1,280.381,237.215Z" transform="translate(-234.226 -182.984)" fill="#263238"/>
    <path id="Trazado_128955" data-name="Trazado 128955" d="M240.971,352.005a34.965,34.965,0,0,1-18.281-4.185s4.736,9.1,18.384,7.473Z" transform="translate(-192.438 -276.224)" fill="#77544d"/>
    <path id="Trazado_128956" data-name="Trazado 128956" d="M266.236,294.441a3.293,3.293,0,0,0-2.98-1.128,3,3,0,0,0-2.041,1.174,1.9,1.9,0,0,0-.075,2.181,2.217,2.217,0,0,0,2.408.517,6.97,6.97,0,0,0,2.289-1.459,2,2,0,0,0,.517-.543.634.634,0,0,0,0-.68" transform="translate(-220.715 -235.792)" fill="#77544d"/>
    <path id="Trazado_128957" data-name="Trazado 128957" d="M262.829,286.229c.3-.031.362,1.948,2.1,3.3s3.836,1.066,3.859,1.342c.034.122-.455.4-1.35.45a4.884,4.884,0,0,1-3.208-1.017,4.281,4.281,0,0,1-1.635-2.77C262.485,286.718,262.694,286.216,262.829,286.229Z" transform="translate(-221.997 -230.565)" fill="#263238"/>
    <path id="Trazado_128958" data-name="Trazado 128958" d="M234.24,205.643c-.166.5-1.989.323-4.121.634s-3.841.957-4.139.517c-.132-.21.153-.683.838-1.185a7.243,7.243,0,0,1,6.288-.9C233.89,205.027,234.3,205.4,234.24,205.643Z" transform="translate(-194.854 -169.876)" fill="#263238"/>
    <path id="Trazado_128959" data-name="Trazado 128959" d="M307.41,196.512c-.305.424-1.573,0-3.086.057s-2.778.367-3.089-.057c-.132-.21.057-.634.634-1.035a4.48,4.48,0,0,1,4.977,0C307.353,195.883,307.549,196.3,307.41,196.512Z" transform="translate(-250.636 -162.729)" fill="#263238"/>
    <path id="Trazado_128960" data-name="Trazado 128960" d="M125.563,376.429s-13.805,15.12-13.805,32.9,11.276,40.095,10.218,52.824-10.89,29.724-13.811,38.217-2.385,11.151-2.385,11.151H178.5l-1.459-48.685L176.91,437.2l.432-23.2-20.6-27.893V380.4l-30.265-7.962Z" transform="translate(-105.741 -294.475)" fill="#f5ca56"/>
    <path id="Trazado_128961" data-name="Trazado 128961" d="M383.94,766.28s25.172,26.682,25.7,27.107,19.879,0,19.879,0l11.863,6.637s-.7,2.263-4.656,1.136a1.63,1.63,0,0,1-.6,2.377h-6.777l-6.045-.08H403.382L384.473,790.37Z" transform="translate(-311.977 -586.439)" fill="#966960"/>
    <g id="Grupo_55780" data-name="Grupo 55780" transform="translate(12.451 102.425)" opacity="0.3">
      <path id="Trazado_128962" data-name="Trazado 128962" d="M153.881,467a41.19,41.19,0,0,0,7.677,25.091,33.842,33.842,0,0,0,22.187,13.534c2.967.4,6,.367,8.875,1.172,2.587.724,4.93,2.093,7.465,2.954a20.092,20.092,0,0,0,9.178.916c1.2-.158,2.535-.569,2.993-1.692.634-1.668-1.205-3.169-2.778-4.02C190.186,494.5,170.028,481.882,153.907,467" transform="translate(-153.875 -467)"/>
    </g>
    <path id="Trazado_128963" data-name="Trazado 128963" d="M272.83,507.057s45.938,20.285,52.366,20.285,42.472-32.735,42.472-32.735l-8.575-10.321L324.35,504.649l-39.8-21.809Z" transform="translate(-229.608 -376.318)" fill="#966960"/>
    <path id="Trazado_128964" data-name="Trazado 128964" d="M583.27,447.866l8.443-5.274s3.7-7.264,5.655-8.112,13.027-4.915,13.027-4.915l11.221-1.035s1.009,1.433-2.111,3.544c-2.328,1.573-6.826,2.411-6.826,2.411l-2.77,1.267s2.085,2.344,3.746,2.282c1.482-.057,6.674-3.1,8.3-2.447s-.473,4.881-.473,4.881h0a102.92,102.92,0,0,1-7.362,11.527c-1,1.146-7.784,1.146-7.784,1.146l-7.3.9-8.179,6.34Z" transform="translate(-459.745 -336.056)" fill="#966960"/>
    <path id="Trazado_128965" data-name="Trazado 128965" d="M168.158,396.8a16.389,16.389,0,0,0-11.64,7.892c-3.505,5.642-2.535,11.069-.21,18.322a24.474,24.474,0,0,0,6.208,9.186c6.208,6,19.551,14.274,19.551,14.274l20.766-23.539S179.966,400,168.158,396.8Z" transform="translate(-141.677 -312.534)" fill="#f5ca56"/>
    <path id="Trazado_128966" data-name="Trazado 128966" d="M176.962,402.311l.127.1.372.305,1.42,1.19,5.37,4.548,19.018,16.221.106.093-.093.116L183,447.89c-.166.191-.331.38-.489.551l-.088.1-.122-.07c-3.8-2.3-7.486-4.656-10.929-7.075a46.954,46.954,0,0,1-9.2-7.874,31.5,31.5,0,0,1-5.916-9.211,21.778,21.778,0,0,1-.936-13.516,21.163,21.163,0,0,1,1.268-3.505,17.919,17.919,0,0,1,3.283-4.938,16.186,16.186,0,0,1,2.871-2.408l.843-.494c.191-.109.292-.153.292-.153l-.259.184-.825.517a17.135,17.135,0,0,0-2.814,2.447,18.009,18.009,0,0,0-3.208,4.915,20.7,20.7,0,0,0-1.218,3.5,21.675,21.675,0,0,0,1.009,13.355,31.3,31.3,0,0,0,5.89,9.111,47.8,47.8,0,0,0,9.16,7.809c3.425,2.421,7.1,4.754,10.916,7.049l-.21.039.489-.559,20.285-22.978v.2l-18.935-16.3-5.313-4.61-1.394-1.229-.354-.318Z" transform="translate(-142 -314.387)" fill="#263238"/>
    <path id="Trazado_128967" data-name="Trazado 128967" d="M213.481,391.758a2.718,2.718,0,0,1-.039.5c-.044.329-.127.8-.259,1.412a19.011,19.011,0,0,1-1.9,4.894l-.07.127-.122-.088a55.358,55.358,0,0,0-10.559-5.344A108.245,108.245,0,0,0,187.7,389.19c-1.668-.445-3.029-.742-3.968-.957l-1.084-.259a1.512,1.512,0,0,1-.367-.114,1.464,1.464,0,0,1,.38.052l1.1.2c.944.184,2.328.442,4,.856a95.781,95.781,0,0,1,12.887,3.986,51.954,51.954,0,0,1,10.65,5.445l-.189.039a19.884,19.884,0,0,0,1.963-4.8c.16-.6.259-1.071.331-1.394A2.848,2.848,0,0,1,213.481,391.758Z" transform="translate(-162.481 -305.906)" fill="#263238"/>
    <path id="Trazado_128968" data-name="Trazado 128968" d="M190.967,93.4a8.208,8.208,0,0,0,2.928-8.57,9.367,9.367,0,0,0-6.568-6.428,10.279,10.279,0,0,0-1.9-.3,8.536,8.536,0,0,0-4.139-1.048A4.443,4.443,0,0,0,177.8,73.7a10.479,10.479,0,0,0-5.073.354,8.616,8.616,0,0,0-13.852,1.035,7.062,7.062,0,0,0-10.3,4.656,7.01,7.01,0,0,0-4.964,2.535,6.841,6.841,0,0,0-1.076,1.852,6.615,6.615,0,0,0-1.174,2.649,7.939,7.939,0,0,0-3.169,14.581,7.258,7.258,0,0,0,.217,10.262,7.385,7.385,0,0,0,1.684,1.205,9.312,9.312,0,0,0,.939,7.243,4.475,4.475,0,0,0,2.4,2.093,1.723,1.723,0,0,0,.217.494c.83,1.211,2.757.634,3.88-.336,2.726-2.307,4.113-5.831,4.8-9.336s.776-7.1,1.42-10.606a.517.517,0,0,1,.044-.246,9.8,9.8,0,0,1,1.811-4.041,24.9,24.9,0,0,0,3.233,1.935,10.507,10.507,0,0,0,12.158-2.809,15.378,15.378,0,0,0,9.894,3.3c3.557-.1,7.049-.874,9.705-3.239a4.868,4.868,0,0,0,1.477-2.263A1.508,1.508,0,0,0,190.967,93.4Z" transform="translate(-127.054 -71.039)" fill="#263238"/>
    <path id="Trazado_128969" data-name="Trazado 128969" d="M160.961,252.12c-.178-.088-7.17-2.5-7.284,4.754s7.189,5.869,7.207,5.66S160.961,252.12,160.961,252.12Z" transform="translate(-141.276 -204.943)" fill="#966960"/>
    <path id="Trazado_128970" data-name="Trazado 128970" d="M163.976,266.423a2,2,0,0,1-.344.184,1.267,1.267,0,0,1-.944,0,3.1,3.1,0,0,1-1.4-2.82,4.115,4.115,0,0,1,.38-1.811,1.438,1.438,0,0,1,.962-.949.634.634,0,0,1,.742.354c.1.2.044.349.083.362s.158-.122.1-.419a.81.81,0,0,0-.274-.463.983.983,0,0,0-.7-.189,1.759,1.759,0,0,0-1.337,1.115,4.309,4.309,0,0,0-.471,2.01,3.256,3.256,0,0,0,1.8,3.169,1.345,1.345,0,0,0,1.159-.176C163.963,266.576,164,266.444,163.976,266.423Z" transform="translate(-146.542 -211.615)" fill="#77544d"/>
    <path id="Trazado_128971" data-name="Trazado 128971" d="M253.608,119.81a.4.4,0,0,0,.065.166,3.188,3.188,0,0,1,.132.517,5.525,5.525,0,0,1-1.49,4.886,5.691,5.691,0,0,1-3.841,1.674l.134-.114a12.481,12.481,0,0,1-2.913,6.343,9.682,9.682,0,0,1-3.169,2.452,8.037,8.037,0,0,1-4.152.68,14.2,14.2,0,0,1-4.038-.949,10.884,10.884,0,0,1-3.378-1.966h.222a13.164,13.164,0,0,1-6.022,3.466,10.308,10.308,0,0,1-5.458-.372,10.734,10.734,0,0,1-3.169-1.731,8.872,8.872,0,0,1-.724-.634,1.552,1.552,0,0,1-.228-.241s.341.3,1.014.776a11.087,11.087,0,0,0,3.169,1.617,10.231,10.231,0,0,0,5.339.3,12.96,12.96,0,0,0,5.849-3.412l.109-.1.109.093a10.605,10.605,0,0,0,3.277,1.9,13.828,13.828,0,0,0,3.947.926,7.646,7.646,0,0,0,3.994-.634,9.23,9.23,0,0,0,3.05-2.364,12.207,12.207,0,0,0,2.876-6.175V126.8h.116a5.5,5.5,0,0,0,3.689-1.552,5.344,5.344,0,0,0,1.49-2.721,5.756,5.756,0,0,0,.075-2.007C253.665,120.051,253.59,119.81,253.608,119.81Z" transform="translate(-187.167 -107.194)" fill="#455a64"/>
    <path id="Trazado_128972" data-name="Trazado 128972" d="M159.216,130.3a16.2,16.2,0,0,0-.634,2.491,10.376,10.376,0,0,0,1.2,6.441l.065.106-.1.078a6.671,6.671,0,0,0-1.9,2.964,6.405,6.405,0,0,0,0,3.854,6.7,6.7,0,0,0,3.1,3.805l.134.07-.065.14a8.277,8.277,0,0,0-.817,4.524,9.071,9.071,0,0,0,1.071,3.513,10.2,10.2,0,0,0,2.069,2.535.835.835,0,0,1-.189-.127,5.609,5.609,0,0,1-.517-.411,8.192,8.192,0,0,1-1.552-1.9,8.992,8.992,0,0,1-1.141-3.585,8.537,8.537,0,0,1,.8-4.7l.07.21a6.984,6.984,0,0,1-3.285-4.007,6.71,6.71,0,0,1,.039-4.059,6.93,6.93,0,0,1,2.015-3.081v.184a10.347,10.347,0,0,1-1.117-6.607,9.2,9.2,0,0,1,.517-1.85,4.346,4.346,0,0,1,.2-.463C159.182,130.342,159.208,130.29,159.216,130.3Z" transform="translate(-143.918 -114.969)" fill="#455a64"/>
    <path id="Trazado_128973" data-name="Trazado 128973" d="M165.48,290.484a5.533,5.533,0,0,0-.14,1.293,1.9,1.9,0,0,0,.517,1.224,1.6,1.6,0,0,0,1.49.419,1.343,1.343,0,0,0,.9-1.2,2.569,2.569,0,0,0-.259-1.345c-.357-.727-.673-1.146-.636-1.177a3.362,3.362,0,0,1,.83,1.076,2.639,2.639,0,0,1,.349,1.477,1.878,1.878,0,0,1-.3.882,1.467,1.467,0,0,1-.817.6,1.86,1.86,0,0,1-1.8-.517,2.069,2.069,0,0,1-.543-1.42A1.969,1.969,0,0,1,165.48,290.484Z" transform="translate(-149.727 -233.138)" fill="#263238"/>
    <path id="Trazado_128974" data-name="Trazado 128974" d="M264.543,484a2.621,2.621,0,0,1-.215.246l-.634.667-2.437,2.39c-2.033,2.046-4.811,4.915-7.76,8.156s-5.546,6.3-7.39,8.516l-2.181,2.631-.634.709a1.372,1.372,0,0,1-.222.235,2.275,2.275,0,0,1,.171-.274l.551-.748c.481-.634,1.2-1.573,2.1-2.706,1.811-2.258,4.361-5.318,7.328-8.583s5.776-6.1,7.853-8.1c1.035-1,1.9-1.811,2.494-2.346l.7-.634A1.186,1.186,0,0,1,264.543,484Z" transform="translate(-207.546 -377.178)" fill="#263238"/>
  </g>
  <g id="freepik--character-2--inject-3" transform="translate(179.854)">
    <path id="Trazado_128975" data-name="Trazado 128975" d="M747.036,437.359l5.786-5.7,6.886-1.205,24.266,9.455s3.8,6.695.861,11.612-5.706,4.742-5.706,4.742l-5.158-3.27-18.392,2.046s-7.745-5.337-7.915-6.369-.173-7.227-.173-7.227l-.735-1.017A2.372,2.372,0,0,1,747.036,437.359Z" transform="translate(-733.122 -319.103)" fill="#ffbe9d"/>
    <path id="Trazado_128976" data-name="Trazado 128976" d="M752.39,482.47a71.308,71.308,0,0,0,11.625,5.554,6.726,6.726,0,0,0,2.8.587,3.2,3.2,0,0,0,2.4-1.293,2.641,2.641,0,0,0,.241-2.669,4.851,4.851,0,0,0-2.07-1.793l-7.362-4.185" transform="translate(-737.62 -354.85)" fill="#ffbe9d"/>
    <path id="Trazado_128977" data-name="Trazado 128977" d="M752.064,482.28a72.633,72.633,0,0,0,6.467,3.417,36.718,36.718,0,0,0,6.542,2.587,3.486,3.486,0,0,0,4.2-1.731c.693-1.666-.445-3.024-1.857-3.862-2.538-1.487-5.111-2.907-7.665-4.361a.078.078,0,0,0-.078.135h0l7.1,4.038c1.11.634,2.434,1.337,2.535,2.77a2.863,2.863,0,0,1-2.587,2.967,8.18,8.18,0,0,1-3.955-.921c-1.236-.484-2.538-1.019-3.766-1.583a72.483,72.483,0,0,1-6.883-3.6.08.08,0,0,0-.078.14Z" transform="translate(-737.333 -354.59)" fill="#eb996e"/>
    <path id="Trazado_128978" data-name="Trazado 128978" d="M751.8,501.62c3.169,3.531,7.5,6.788,11.144,10.5a5.274,5.274,0,0,0,.882-6.208" transform="translate(-737.182 -371.864)" fill="#ffbe9d"/>
    <path id="Trazado_128979" data-name="Trazado 128979" d="M751.517,501.316c3.435,3.8,7.564,6.857,11.144,10.5a.093.093,0,0,0,.114,0,5.388,5.388,0,0,0,.9-6.34c-.052-.088-.184,0-.134.083a5.259,5.259,0,0,1,.1,4.775,3.264,3.264,0,0,1-.735,1.1c-.222.166-.2.122-.432-.07a4.926,4.926,0,0,1-.468-.468q-1.066-1.035-2.176-2.041c-2.763-2.538-5.673-4.9-8.195-7.677-.065-.078-.178.039-.109.114Z" transform="translate(-736.956 -371.516)" fill="#eb996e"/>
    <path id="Trazado_128980" data-name="Trazado 128980" d="M721.152,435.109c-4.247-2.473-11.017-3.474-18.521-4.729l-7.341,13.4s13.242,2,18.883,4.439c8.053,3.492,12.4,14.023,12.4,14.023L737.2,449.08S734.453,441.485,721.152,435.109Z" transform="translate(-695.29 -319.052)" fill="#455a64"/>
    <path id="Trazado_128981" data-name="Trazado 128981" d="M775.034,457.442l-1.34,2.5c.856.564,1.738,1.18,1.4,2.269-.4,1.293-1.738,1.7-3.316,1.267l-.569,1.066-.486-.153.577-1.066a3.622,3.622,0,0,1-1.9-1.552l.53-.463a3.221,3.221,0,0,0,1.707,1.428l1.317-2.455c-.817-.556-1.622-1.172-1.267-2.269.388-1.268,1.694-1.692,3.215-1.293l.577-1.061.481.153-.577,1.066a3.781,3.781,0,0,1,1.679,1.159l-.486.494A3.259,3.259,0,0,0,775.034,457.442Zm-1.666,3.089-1.27,2.328c1.11.285,1.987,0,2.24-.794C774.545,461.418,774.015,460.968,773.368,460.531Zm-.083-.887,1.268-2.351c-1.071-.243-1.9.062-2.155.848C772.194,458.774,772.688,459.212,773.285,459.644Z" transform="translate(-750.23 -337.792)" fill="#fff"/>
    <path id="Trazado_128982" data-name="Trazado 128982" d="M727.388,439.887l.329.145.957.463c.419.2.939.463,1.523.8s1.268.7,2.02,1.185a38.661,38.661,0,0,1,5.13,3.756,27.762,27.762,0,0,1,5.471,6.281l.044.078-.057.07-8.875,11.206-.158.2-.109-.241a31.057,31.057,0,0,0-3.8-6.379,22.26,22.26,0,0,0-5.8-5.311,20.028,20.028,0,0,0-4.915-2.069c-1.687-.517-3.363-.962-5.016-1.381-3.3-.83-6.5-1.552-9.509-2.2l-.209-.047.109-.176c2.281-3.942,4.369-7.538,6.208-10.694l.044-.078h.083a107.04,107.04,0,0,1,12.31,2.535,21,21,0,0,1,3.2,1.231,8.474,8.474,0,0,1,1.053.577,1.68,1.68,0,0,1-.279-.127c-.176-.088-.442-.235-.8-.388a22.882,22.882,0,0,0-3.213-1.159,110.047,110.047,0,0,0-12.31-2.434l.132-.065-6.151,10.745-.1-.228c3.032.634,6.226,1.355,9.509,2.186,1.656.419,3.342.861,5.034,1.381a19.9,19.9,0,0,1,4.992,2.093,22.276,22.276,0,0,1,5.882,5.4,30.615,30.615,0,0,1,3.854,6.451l-.259-.036,8.919-11.177v.145a28.02,28.02,0,0,0-5.375-6.25,39.882,39.882,0,0,0-5.07-3.8c-.729-.489-1.407-.869-1.992-1.211s-1.089-.634-1.508-.83l-.939-.494A1.58,1.58,0,0,1,727.388,439.887Z" transform="translate(-702.051 -322.847)" fill="#fff"/>
    <path id="Trazado_128983" data-name="Trazado 128983" d="M763.6,443.81c-.14.106-14.106,4.493-14.106,4.493l-4.6,1.958s1.958,3.1,5.008,2.481a11.136,11.136,0,0,0,3.911-1.27l4.894.23s2.046,8.645,17.471,4.5" transform="translate(-732.06 -329.008)" fill="#ffbe9d"/>
    <path id="Trazado_128984" data-name="Trazado 128984" d="M775.514,456.464a1.73,1.73,0,0,1-.367.116l-1.079.272a26.875,26.875,0,0,1-4.077.729,19.946,19.946,0,0,1-2.915.083h-.812l-.83-.127-.856-.127-.867-.235a11.413,11.413,0,0,1-1.751-.634,10.7,10.7,0,0,1-1.663-1.063,7.1,7.1,0,0,1-2.408-3.425l.145.122-4.894-.222.1-.031a9.978,9.978,0,0,1-2.429.926,15.375,15.375,0,0,1-1.9.416,3.99,3.99,0,0,1-1.945-.241,6.278,6.278,0,0,1-2.866-2.357l-.1-.16.176-.075,4.61-1.945h0l10.231-3.171,2.884-.88.776-.235a1.183,1.183,0,0,1,.259-.07,1.058,1.058,0,0,1-.259.114l-.75.274-2.864.962-10.187,3.272h0l-4.6,1.966.075-.23a6.014,6.014,0,0,0,2.708,2.227,3.917,3.917,0,0,0,1.793.22,15.863,15.863,0,0,0,1.87-.411,9.781,9.781,0,0,0,2.328-.874l.057-.031h.044l4.894.233h.114v.122a6.725,6.725,0,0,0,.921,1.826,7.829,7.829,0,0,0,1.376,1.43,9.372,9.372,0,0,0,1.653.97,10.634,10.634,0,0,0,1.7.634l.83.259.838.135.817.132.8.039a21.464,21.464,0,0,0,2.884-.044,31.94,31.94,0,0,0,4.077-.634l1.084-.228A2.624,2.624,0,0,1,775.514,456.464Z" transform="translate(-731.4 -329.245)" fill="#eb996e"/>
    <path id="Trazado_128985" data-name="Trazado 128985" d="M731.9,441.259c0,.551-.634,1-1.356,1s-1.363-.45-1.363-1,.634-1.009,1.363-1.009S731.9,440.7,731.9,441.259Z" transform="translate(-720.414 -326.368)" fill="#fff"/>
    <path id="Trazado_128986" data-name="Trazado 128986" d="M815.91,527.456c0,.722.43,1.311.962,1.311s.97-.59.97-1.311-.437-1.306-.97-1.306S815.91,526.74,815.91,527.456Z" transform="translate(-784.709 -390.048)" fill="#fff"/>
    <path id="Trazado_128987" data-name="Trazado 128987" d="M1203.882,774.57l-2.093.538-85.534,2.4-2.8,32.05,92.166.14,1.744-2.263Z" transform="translate(-1005.29 -574.208)" fill="#12263f"/>
    <path id="Trazado_128988" data-name="Trazado 128988" d="M1151.222,260.734l10.567-4.845,4.956-6.281,32.614-4.348,4.571,5.95,25.453,16.576s-7.864,91.33-8.927,99.375-6.438,15.019-6.438,15.019-55.356,14.744-74.884,7.243c0,0-13.244-8.241-11.9-21.674s8.495-50.517,8.495-50.517Z" transform="translate(-1015.431 -181.817)" fill="#a8dde2"/>
    <path id="Trazado_128989" data-name="Trazado 128989" d="M869.483,344.445l44.841,12.494s-.259-4.951,3.955-5.9c0,0,26.359-37.327,29.256-40.488s8.407-5.471,8.407-5.471l-18.917,74.8s-16.418,8.723-23.12,7.4-24.088-7.377-34.375-14.486l-15.81-9.845Z" transform="translate(-820.151 -226.163)" fill="#a8dde2"/>
    <path id="Trazado_128990" data-name="Trazado 128990" d="M1065.735,522a2.778,2.778,0,0,1-.165-.691c-.1-.517-.228-1.143-.373-1.9a47.629,47.629,0,0,0-1.648-6.084q-.587-1.632-1.332-3.2a25.029,25.029,0,0,0-1.376-2.47c-.862-1.363-1.521-2.118-1.477-2.163a2.782,2.782,0,0,1,.494.517,6.934,6.934,0,0,1,.533.634,9.756,9.756,0,0,1,.634.887,21.249,21.249,0,0,1,1.451,2.465,29.253,29.253,0,0,1,1.371,3.228,37.3,37.3,0,0,1,1.552,6.154c.135.8.228,1.451.259,1.9A2.819,2.819,0,0,1,1065.735,522Z" transform="translate(-965.186 -374.732)" fill="#263238"/>
    <path id="Trazado_128991" data-name="Trazado 128991" d="M1265.587,329.054s-19.367-1.976-26.848,14.791-8.032,63.8-8.032,63.8c-.887-1.743-16.829,11.441-19.975,14.53l-32.593,9.02,5.717,20.924s40.095-4.1,50.566-9.312c11.881-5.9,20.435-7.721,23.85-14.227s11.827-45.705,12.753-58.391S1275.451,332.256,1265.587,329.054Z" transform="translate(-1053.239 -243.883)" fill="#a8dde2"/>
    <path id="Trazado_128992" data-name="Trazado 128992" d="M1277.617,290.14a1.156,1.156,0,0,1-.14.259c-.1.158-.259.4-.45.7-.4.634-1,1.456-1.774,2.535-1.521,2.1-3.805,4.93-6.087,8.241l-.158.228-.127-.259c-.209-.406-.424-.836-.634-1.267-2-3.906-3.8-7.455-5.073-10.029-.634-1.268-1.12-2.287-1.5-3.055l-.393-.843a1.352,1.352,0,0,1-.122-.3,1.864,1.864,0,0,1,.178.272c.1.184.272.484.45.812l1.6,3.006c1.337,2.535,3.171,6.079,5.174,9.982l.634,1.268h-.28c2.328-3.363,4.61-6.149,6.182-8.239l1.85-2.442A8.014,8.014,0,0,1,1277.617,290.14Z" transform="translate(-1114.784 -212.278)" fill="#263238"/>
    <path id="Trazado_128993" data-name="Trazado 128993" d="M1352.03,273a2.526,2.526,0,0,1-.287.287l-.856.76c-.735.673-1.811,1.63-3.1,2.864a111.653,111.653,0,0,0-9.472,10.189c-1.477,1.811-2.845,3.6-4.038,5.261l-.158.22-.109-.246-3.8-8.583-1.076-2.486c-.116-.259-.2-.489-.274-.665a1.1,1.1,0,0,1-.083-.235.847.847,0,0,1,.127.215c.091.173.191.388.323.634.287.634.672,1.433,1.154,2.447l3.919,8.536-.274-.031c1.193-1.674,2.538-3.469,4.038-5.287a99.048,99.048,0,0,1,9.571-10.143c1.314-1.218,2.416-2.15,3.172-2.791l.9-.722A1.556,1.556,0,0,1,1352.03,273Z" transform="translate(-1164.905 -202.382)" fill="#263238"/>
    <path id="Trazado_128994" data-name="Trazado 128994" d="M1258.5,485.308s-.052.127-.158.372l-.494,1.084a24.606,24.606,0,0,1-2.429,3.924,25.491,25.491,0,0,1-5.243,5.174,34.95,34.95,0,0,1-8.7,4.628,67.907,67.907,0,0,1-11.695,3.068c-2.15.411-4.4.742-6.689,1.236s-4.656,1.019-7.119,1.438c-9.83,1.643-20.849,3.1-32.653,4.6h-.132l-.039-.135-5.691-20.919-.047-.171.173-.031c2.069-.393,4.271-.869,6.482-1.394,4.61-1.092,9.1-2.359,13.516-3.565s8.823-2.181,12.729-4.139a25.754,25.754,0,0,0,5.3-3.622c1.6-1.386,3.086-2.871,4.584-4.291a41.759,41.759,0,0,1,4.656-3.942,16.992,16.992,0,0,1,5.287-2.587l-.109.122c2.46-17.37,4.514-31.9,5.949-42.117.735-5.073,1.294-9.1,1.7-11.855.2-1.355.349-2.408.458-3.125.057-.349.093-.634.127-.8s.044-.259.044-.259a2.345,2.345,0,0,1,0,.259c0,.191-.057.458-.1.8q-.145,1.087-.414,3.133c-.38,2.752-.923,6.77-1.622,11.868-1.412,10.212-3.43,24.76-5.838,42.128v.1h-.1a16.792,16.792,0,0,0-5.192,2.535,41.652,41.652,0,0,0-4.607,3.924c-1.5,1.42-2.98,2.91-4.6,4.3a26.024,26.024,0,0,1-5.357,3.665c-3.955,1.984-8.391,2.933-12.786,4.17s-8.911,2.478-13.526,3.57c-2.219.517-4.439,1-6.5,1.394l.127-.2c1.958,7.189,3.859,14.193,5.691,20.919l-.176-.114c11.8-1.485,22.82-2.931,32.645-4.553,9.705-2.162,18.625-2.993,25.477-5.66a34.941,34.941,0,0,0,8.679-4.55,25.609,25.609,0,0,0,7.67-8.95c.222-.468.4-.825.517-1.071A2.448,2.448,0,0,1,1258.5,485.308Z" transform="translate(-1052.705 -302.461)" fill="#263238"/>
    <g id="Grupo_55781" data-name="Grupo 55781" transform="translate(177.342 162.902)" opacity="0.3">
      <path id="Trazado_128995" data-name="Trazado 128995" d="M1402.891,638.028a5.086,5.086,0,0,0-1.014-2.328c-2.359-3.314-6.389-5.135-10.422-5.673a29.965,29.965,0,0,0-10.326.437l-.259.184c6.8-.517,11.746,2.144,16.221,7.341a10.164,10.164,0,0,0,2.07,2.093,2.62,2.62,0,0,0,2.788.184A2.4,2.4,0,0,0,1402.891,638.028Z" transform="translate(-1380.87 -629.754)"/>
    </g>
    <path id="Trazado_128996" data-name="Trazado 128996" d="M1400.065,634.809a20.99,20.99,0,0,0-2.142-2.175,14.744,14.744,0,0,0-6.619-3.016,22.629,22.629,0,0,0-7.341-.1c-.936.122-1.692.241-2.217.323a3.865,3.865,0,0,1-.825.088,4.051,4.051,0,0,1,.8-.215c.517-.119,1.268-.259,2.212-.432a21.372,21.372,0,0,1,7.437,0,14.254,14.254,0,0,1,6.7,3.171,10.657,10.657,0,0,1,1.552,1.653,3.624,3.624,0,0,1,.445.7Z" transform="translate(-1203.565 -466.264)" fill="#263238"/>
    <path id="Trazado_128997" data-name="Trazado 128997" d="M1438.349,329.691a26.043,26.043,0,0,0-4.26-.634,16.955,16.955,0,0,0-2.176.057c-.385.044-.776.127-1.19.184a8.575,8.575,0,0,0-1.27.285,15.8,15.8,0,0,0-5.145,2.385,20.577,20.577,0,0,0-4.139,3.911c-.285.329-.517.7-.761,1.035a6.862,6.862,0,0,0-.685,1c-.385.68-.792,1.268-1.089,1.9s-.553,1.136-.776,1.617-.375.921-.517,1.27-.241.577-.331.8-.127.274-.14.259a.964.964,0,0,1,.078-.292c.075-.22.166-.494.271-.817a13.144,13.144,0,0,1,.471-1.268l.753-1.653c.284-.634.678-1.231,1.058-1.9.191-.347.45-.634.685-1.019a7.72,7.72,0,0,1,.761-1.058,19.984,19.984,0,0,1,4.2-3.989,15.826,15.826,0,0,1,5.256-2.413,8.515,8.515,0,0,1,1.268-.274c.419-.057.825-.132,1.218-.171a17.389,17.389,0,0,1,2.2,0l.965.07c.3.044.577.1.843.145a7.919,7.919,0,0,1,1.337.3l.83.259A1.511,1.511,0,0,1,1438.349,329.691Z" transform="translate(-1229.474 -243.796)" fill="#263238"/>
    <path id="Trazado_128998" data-name="Trazado 128998" d="M1144.329,405a.663.663,0,0,1,0,.176v.517c0,.476-.083,1.143-.152,1.992-.135,1.725-.362,4.222-.634,7.31-.634,6.167-1.6,14.675-2.988,24.036s-2.89,17.794-4.087,23.873c-.6,3.045-1.1,5.5-1.472,7.2-.184.823-.323,1.477-.429,1.945-.047.21-.09.375-.122.517a.555.555,0,0,1-.052.171.663.663,0,0,1,0-.176,3.555,3.555,0,0,1,.091-.517c.088-.468.215-1.128.368-1.958.328-1.73.8-4.185,1.368-7.214,1.136-6.092,2.6-14.522,3.994-23.878s2.4-17.849,3.076-24.013c.323-3.063.59-5.554.776-7.3.093-.843.163-1.508.215-1.984a3.4,3.4,0,0,1,.062-.517A.542.542,0,0,1,1144.329,405Z" transform="translate(-1020.804 -300.237)" fill="#263238"/>
    <g id="Grupo_55782" data-name="Grupo 55782" transform="translate(109.691 128.66)" opacity="0.3">
      <path id="Trazado_128999" data-name="Trazado 128999" d="M1126.523,522.407c2.129-7.918,2.959-16.672,4.051-25.027-1.35,9.462-5.949,20.461-11.234,28.436C1121.966,524.662,1124.425,523.522,1126.523,522.407Z" transform="translate(-1119.34 -497.38)"/>
    </g>
    <g id="Grupo_55783" data-name="Grupo 55783" transform="translate(164.14 71.537)" opacity="0.3">
      <path id="Trazado_129000" data-name="Trazado 129000" d="M1329.83,283.651a120.712,120.712,0,0,0,3.8,14.281,2.927,2.927,0,0,0,.825,1.381,1.892,1.892,0,0,0,1.766.184,4.306,4.306,0,0,0,1.5-1.05c2.307-2.3,3.554-5.4,5.008-8.311a86.788,86.788,0,0,1,9.012-13.586c-6.808,5.706-11.84,12.217-16.772,18.537Z" transform="translate(-1329.83 -276.55)"/>
    </g>
    <g id="Grupo_55784" data-name="Grupo 55784" transform="translate(147.018 75.194)" opacity="0.3">
      <path id="Trazado_129001" data-name="Trazado 129001" d="M1263.64,290.69a125.655,125.655,0,0,0,6.255,18.681c.122.285.3.634.6.634a.944.944,0,0,0,.711-.468,62.222,62.222,0,0,0,7.719-15.422l-8.063,10.864Z" transform="translate(-1263.64 -290.69)"/>
    </g>
    <path id="Trazado_129002" data-name="Trazado 129002" d="M1241.048,560.43a1.3,1.3,0,0,1-.341.166l-1.009.419c-.874.36-2.147.854-3.733,1.443-3.169,1.18-7.608,2.7-12.551,4.16s-9.509,2.574-12.8,3.3c-1.656.367-2.993.634-3.924.812l-1.071.189a2.134,2.134,0,0,1-.38.052,1.512,1.512,0,0,1,.367-.114l1.058-.259,3.88-.913c3.29-.776,7.815-1.932,12.766-3.386s9.39-2.959,12.559-4.082l3.8-1.342,1.035-.357A1.539,1.539,0,0,1,1241.048,560.43Z" transform="translate(-1073.329 -415.461)" fill="#263238"/>
    <path id="Trazado_129003" data-name="Trazado 129003" d="M1205.566,404.436a.936.936,0,0,1-.145.109l-.437.279c-.393.241-.962.634-1.686,1.1-1.451.962-3.461,2.491-6.066,4.227a30.61,30.61,0,0,1-4.486,2.478,17.414,17.414,0,0,1-5.706,1.412,11.509,11.509,0,0,1-6.338-1.267,7.932,7.932,0,0,1-2.587-2.294,5.552,5.552,0,0,1-1.084-3.4,3.791,3.791,0,0,1,.533-1.756,3.662,3.662,0,0,1,1.317-1.268,4.936,4.936,0,0,1,3.43-.517,4.278,4.278,0,0,1,2.77,1.862,5.433,5.433,0,0,1,.874,3.089,6.466,6.466,0,0,1-.73,2.964,6.672,6.672,0,0,1-1.863,2.2,9.252,9.252,0,0,1-4.785,1.78,12.255,12.255,0,0,1-4.216-.372,20,20,0,0,1-3.011-1.035,19.1,19.1,0,0,1-1.811-.869l-.458-.246c-.106-.057-.155-.088-.153-.1a.536.536,0,0,1,.166.062l.476.223c.419.191,1.035.476,1.839.8a20.782,20.782,0,0,0,3,.983,12.5,12.5,0,0,0,4.139.323,9.106,9.106,0,0,0,4.656-1.769,6.234,6.234,0,0,0,2.455-4.948,5.155,5.155,0,0,0-.83-2.918,3.985,3.985,0,0,0-2.587-1.718,4.583,4.583,0,0,0-3.169.481,3.214,3.214,0,0,0-1.2,1.136,3.447,3.447,0,0,0-.489,1.6,5.21,5.21,0,0,0,1.035,3.169,7.6,7.6,0,0,0,2.491,2.207,11.228,11.228,0,0,0,6.161,1.268,17.115,17.115,0,0,0,5.624-1.363,29.634,29.634,0,0,0,4.436-2.426c2.613-1.7,4.656-3.208,6.125-4.139.734-.471,1.317-.825,1.718-1.035l.463-.259A.655.655,0,0,1,1205.566,404.436Z" transform="translate(-1046.411 -299.068)" fill="#fff"/>
    <path id="Trazado_129004" data-name="Trazado 129004" d="M1321.971,465.184a.258.258,0,0,1-.137-.075l-.388-.259a11.745,11.745,0,0,0-1.552-.887,12.575,12.575,0,0,0-6.338-1.267,12.326,12.326,0,0,0-8.451,4.227,9.965,9.965,0,0,0-2.486,5.026,5.409,5.409,0,0,0,.354,2.91,4.121,4.121,0,0,0,2.01,2.175,3.85,3.85,0,0,0,2.974.031,4.859,4.859,0,0,0,2.328-1.756,3.74,3.74,0,0,0,.634-1.267,4.57,4.57,0,0,0,.178-1.4,5.833,5.833,0,0,0-.691-2.638,6.677,6.677,0,0,0-1.643-2.041,7.52,7.52,0,0,0-2.162-1.205,9.937,9.937,0,0,0-4.436-.463,17.044,17.044,0,0,0-6.149,2.17c-.681.373-1.2.683-1.552.9l-.406.233-.14.078a.77.77,0,0,1,.121-.1l.385-.259c.341-.23.849-.559,1.521-.96a23.179,23.179,0,0,1,2.535-1.267,13.936,13.936,0,0,1,3.645-1,10.069,10.069,0,0,1,4.553.432,7.733,7.733,0,0,1,2.256,1.268,6.888,6.888,0,0,1,1.725,2.116,6.134,6.134,0,0,1,.742,2.783,5.067,5.067,0,0,1-.184,1.49,4.153,4.153,0,0,1-.634,1.389,5.173,5.173,0,0,1-2.481,1.9,4.211,4.211,0,0,1-3.169-.083,4.438,4.438,0,0,1-2.168-2.346,5.774,5.774,0,0,1-.38-3.086,10.306,10.306,0,0,1,2.587-5.186,12.4,12.4,0,0,1,15.076-2.858A8.936,8.936,0,0,1,1321.971,465.184Z" transform="translate(-1139.07 -342.865)" fill="#fff"/>
    <path id="Trazado_129005" data-name="Trazado 129005" d="M1447.8,384.659l-.145.057-.44.135a14.081,14.081,0,0,1-1.7.367,16.578,16.578,0,0,1-6.4-.305,16.238,16.238,0,0,1-4.139-1.653,10.162,10.162,0,0,1-2.015-1.477,6.05,6.05,0,0,1-1.49-2.207,4.244,4.244,0,0,1,0-2.8,3.174,3.174,0,0,1,2.015-2.093,3.247,3.247,0,0,1,2.931.673,4.2,4.2,0,0,1,1.552,2.7,6.127,6.127,0,0,1-.432,3.081,10.864,10.864,0,0,1-1.5,2.6,15.155,15.155,0,0,1-8.953,5.655,14.6,14.6,0,0,1-4.437.222,15.143,15.143,0,0,1-6.1-1.994,11.075,11.075,0,0,1-1.9-1.381l.132.083.367.259a15.828,15.828,0,0,0,1.472.931,15.344,15.344,0,0,0,6.048,1.865,14.442,14.442,0,0,0,4.361-.259,14.965,14.965,0,0,0,8.749-5.585A10.452,10.452,0,0,0,1437.23,381a5.873,5.873,0,0,0,.411-2.918,3.862,3.862,0,0,0-1.433-2.478,2.89,2.89,0,0,0-2.623-.634,2.845,2.845,0,0,0-1.811,1.9,3.917,3.917,0,0,0,0,2.587,7.325,7.325,0,0,0,3.363,3.549,16.186,16.186,0,0,0,4.059,1.661,16.826,16.826,0,0,0,6.338.406c.748-.1,1.324-.217,1.713-.305l.437-.1A.69.69,0,0,1,1447.8,384.659Z" transform="translate(-1228.569 -277.686)" fill="#fff"/>
    <path id="Trazado_129006" data-name="Trazado 129006" d="M1124.5,440.939a12.422,12.422,0,0,0-.895-1.211,7.348,7.348,0,0,0-3.363-2.207,7.14,7.14,0,0,0-5.787.748,4.7,4.7,0,0,0-2.219,2.587,1.9,1.9,0,0,0,.328,1.666,2.53,2.53,0,0,0,1.6.83,2.806,2.806,0,0,0,1.811-.316,3.55,3.55,0,0,0,1.267-1.27,6.708,6.708,0,0,0,.82-3.4,11.2,11.2,0,0,0-1.617-5.756,11.794,11.794,0,0,0-2.675-3.076c-.776-.6-1.27-.848-1.231-.88a1.542,1.542,0,0,1,.354.171,10.649,10.649,0,0,1,.952.634,11.382,11.382,0,0,1,4.5,8.94,6.956,6.956,0,0,1-.843,3.562,3.881,3.881,0,0,1-1.376,1.412,3.1,3.1,0,0,1-2.008.362,2.846,2.846,0,0,1-1.811-.957,2.191,2.191,0,0,1-.388-1.945,4.984,4.984,0,0,1,2.372-2.778,7.354,7.354,0,0,1,6.014-.709,7.263,7.263,0,0,1,3.4,2.346,7.133,7.133,0,0,1,.634.931A1.572,1.572,0,0,1,1124.5,440.939Z" transform="translate(-1004.094 -317.776)" fill="#fff"/>
    <path id="Trazado_129007" data-name="Trazado 129007" d="M1279.048,291.111a15.988,15.988,0,0,0-3.57,1.187,15.622,15.622,0,0,0-3,2.274,6.682,6.682,0,0,1,2.845-2.535,6.754,6.754,0,0,1,3.722-.926Z" transform="translate(-1123.175 -215.803)" fill="#fff"/>
    <path id="Trazado_129008" data-name="Trazado 129008" d="M1362.246,289.416a3.582,3.582,0,0,1-1.363-.45,7.545,7.545,0,0,1-3.994-5.458,3.532,3.532,0,0,1,0-1.438c.065,0,.065.543.258,1.394a8.239,8.239,0,0,0,3.854,5.313A12.026,12.026,0,0,0,1362.246,289.416Z" transform="translate(-1185.695 -209.106)" fill="#fff"/>
    <path id="Trazado_129009" data-name="Trazado 129009" d="M1158.914,644.688a5.064,5.064,0,0,1-.848.3,9.859,9.859,0,0,1-1.014.279c-.406.088-.856.207-1.369.277a23.388,23.388,0,0,1-3.621.323,23.894,23.894,0,0,1-8.735-1.591,22.985,22.985,0,0,1-3.277-1.578c-.455-.259-.838-.517-1.18-.742a9.236,9.236,0,0,1-.848-.629,5.11,5.11,0,0,1-.691-.582c.044-.052,1.035.748,2.845,1.736a25.247,25.247,0,0,0,3.272,1.5,26.868,26.868,0,0,0,4.245,1.167,27.349,27.349,0,0,0,4.382.4,25.636,25.636,0,0,0,3.588-.246C1157.646,645.037,1158.914,644.644,1158.914,644.688Z" transform="translate(-1022.985 -474.997)" fill="#fff"/>
    <path id="Trazado_129010" data-name="Trazado 129010" d="M1273.49,597.029a.539.539,0,0,1-.158-.052l-.445-.178-.709-.29c-.287-.109-.636-.21-1-.336a20.677,20.677,0,0,0-6.6-.97,21.111,21.111,0,0,0-9.509,2.447,18.881,18.881,0,0,0-4.656,3.492,7.625,7.625,0,0,0-1.65,2.535,4.2,4.2,0,0,0,0,3.024,2.871,2.871,0,0,0,2.2,1.9,3.1,3.1,0,0,0,2.643-1.063,3.673,3.673,0,0,0,1.035-2.618,5.129,5.129,0,0,0-.851-2.631,8.374,8.374,0,0,0-4.043-3.208,10.863,10.863,0,0,0-4.5-.7,11.074,11.074,0,0,0-6.169,2.281,15.679,15.679,0,0,0-1.757,1.712.578.578,0,0,1,.091-.134l.292-.38a4.2,4.2,0,0,1,.517-.582,7.871,7.871,0,0,1,.776-.717,11.188,11.188,0,0,1,10.864-1.736,8.628,8.628,0,0,1,4.191,3.3,5.5,5.5,0,0,1,.905,2.788,3.968,3.968,0,0,1-1.123,2.845,3.438,3.438,0,0,1-2.921,1.174,3.169,3.169,0,0,1-2.46-2.093,4.44,4.44,0,0,1,0-3.251,7.808,7.808,0,0,1,1.718-2.649,19.014,19.014,0,0,1,4.749-3.544,21.064,21.064,0,0,1,9.661-2.408,20.028,20.028,0,0,1,6.648,1.071c.375.14.711.259.991.367l.709.331.424.2A.628.628,0,0,1,1273.49,597.029Z" transform="translate(-1097.11 -441.079)" fill="#fff"/>
    <path id="Trazado_129011" data-name="Trazado 129011" d="M1417.384,574.35a2.036,2.036,0,0,1-.259.171l-.76.437c-.331.184-.743.406-1.231.634s-1.035.517-1.666.755-1.319.546-2.069.8-1.573.517-2.434.776a36.731,36.731,0,0,1-11.55,1.293c-.9-.057-1.749-.1-2.535-.2s-1.534-.2-2.206-.323-1.268-.259-1.8-.367a13.479,13.479,0,0,1-1.337-.349l-.835-.259a.925.925,0,0,1-.285-.109,1.1,1.1,0,0,1,.3.044l.851.2c.368.091.818.2,1.343.292s1.128.235,1.811.318,1.394.207,2.188.277,1.635.127,2.535.173a42.5,42.5,0,0,0,5.794-.217,43.212,43.212,0,0,0,5.691-1.071c.856-.241,1.681-.455,2.421-.729s1.454-.517,2.069-.753,1.185-.494,1.681-.711.905-.411,1.267-.582l.776-.375A1.306,1.306,0,0,1,1417.384,574.35Z" transform="translate(-1209.125 -425.78)" fill="#fff"/>
    <path id="Trazado_129012" data-name="Trazado 129012" d="M997.77,520.256a.857.857,0,0,1,.088-.287l.323-.776q.22-.517.494-1.237c.191-.489.406-1.035.634-1.661.45-1.231.9-2.734,1.345-4.4a55.128,55.128,0,0,0,1.1-5.528,45.213,45.213,0,0,0,.406-5.611,31.875,31.875,0,0,0-.336-4.576c-.052-.323-.083-.634-.14-.926s-.122-.559-.179-.812a11.858,11.858,0,0,0-.315-1.293l-.23-.812a.929.929,0,0,1-.057-.29,1.941,1.941,0,0,1,.121.272l.285.8a9.768,9.768,0,0,1,.375,1.268c.062.259.132.517.2.817s.109.595.171.926a28.442,28.442,0,0,1,.406,4.615,41.385,41.385,0,0,1-.38,5.655,50.808,50.808,0,0,1-1.128,5.559c-.468,1.674-.939,3.169-1.42,4.4-.228.634-.455,1.167-.665,1.648s-.388.9-.551,1.224l-.375.745A1.29,1.29,0,0,1,997.77,520.256Z" transform="translate(-919.526 -364.769)" fill="#fff"/>
    <path id="Trazado_129013" data-name="Trazado 129013" d="M1287.279,301.45a1.166,1.166,0,0,1,0,.191c0,.145-.039.328-.062.564l-.259,2.155c-.23,1.9-.634,4.584-1.1,7.923-.988,6.682-2.535,15.885-4.6,25.992s-4.17,19.194-5.743,25.761c-.791,3.259-1.438,5.908-1.9,7.76-.23.9-.406,1.6-.541,2.111-.057.222-.106.406-.145.546a.643.643,0,0,1-.062.184,1.231,1.231,0,0,1,.031-.2l.114-.551.476-2.124c.429-1.857,1.035-4.514,1.811-7.791,1.508-6.581,3.58-15.676,5.642-25.769s3.645-19.289,4.7-25.989c.517-3.334.931-6.035,1.2-7.9.14-.918.259-1.635.331-2.155.036-.228.07-.411.088-.559A1.114,1.114,0,0,1,1287.279,301.45Z" transform="translate(-1123.457 -223.472)" fill="#263238"/>
    <path id="Trazado_129014" data-name="Trazado 129014" d="M1234.985,586a3.4,3.4,0,0,1-.259.259l-.76.7a14.746,14.746,0,0,0-1.185,1.128l-.691.755a10.331,10.331,0,0,0-.761.856,25.99,25.99,0,0,0-1.591,2.085c-.258.393-.543.776-.817,1.211l-.776,1.345a31.168,31.168,0,0,0-2.623,6.371,41.282,41.282,0,0,0-1.267,6.775c-.07,1.061-.178,2.069-.186,3.011,0,.476,0,.934-.031,1.371s0,.861,0,1.268c0,.8.052,1.534.09,2.168s.067,1.193.119,1.635l.083,1.035a1.711,1.711,0,0,1,0,.362,1.214,1.214,0,0,1-.07-.357c-.044-.259-.088-.634-.153-1.035s-.127-1-.171-1.64-.127-1.363-.14-2.175c0-.406-.031-.823-.044-1.267s0-.9,0-1.376c0-.949.088-1.963.152-3.029a39.98,39.98,0,0,1,1.268-6.847,30.472,30.472,0,0,1,2.662-6.42l.792-1.358c.279-.416.572-.817.843-1.211a24.34,24.34,0,0,1,1.637-2.069,10.119,10.119,0,0,1,.776-.848l.727-.722a12.511,12.511,0,0,1,1.231-1.1l.8-.634A1.264,1.264,0,0,1,1234.985,586Z" transform="translate(-1087.049 -434.416)" fill="#263238"/>
    <path id="Trazado_129015" data-name="Trazado 129015" d="M1271,24.406c.385-13.249-8.767-24.38-22.029-24.406l-1.224.07a23.708,23.708,0,0,0-22.37,23.094c-.271,11.493-.432,24.184,0,30.319.875,12.675,13.692,13.945,13.692,13.945l.077,1.948L1251.56,77.4l20.368-13.805Z" transform="translate(-1088.057)" fill="#ffbe9d"/>
    <path id="Trazado_129016" data-name="Trazado 129016" d="M1238.27,118a1.811,1.811,0,0,0,1.852,1.731,1.733,1.733,0,0,0,1.774-1.687v-.052a1.811,1.811,0,0,0-1.852-1.736,1.738,1.738,0,0,0-1.775,1.7Z" transform="translate(-1097.815 -86.185)" fill="#263238"/>
    <path id="Trazado_129017" data-name="Trazado 129017" d="M1237.089,104.384c.235.228,1.552-.869,3.508-.975s3.435.792,3.637.538c.1-.109-.158-.517-.8-.944a4.961,4.961,0,0,0-2.928-.724,4.853,4.853,0,0,0-2.778,1.071C1237.146,103.846,1236.97,104.283,1237.089,104.384Z" transform="translate(-1096.913 -75.814)" fill="#263238"/>
    <path id="Trazado_129018" data-name="Trazado 129018" d="M1311.81,115.317a1.811,1.811,0,0,0,1.86,1.725,1.733,1.733,0,0,0,1.775-1.687V115.3a1.811,1.811,0,0,0-1.85-1.731,1.728,1.728,0,0,0-1.775,1.684A.5.5,0,0,0,1311.81,115.317Z" transform="translate(-1152.332 -84.19)" fill="#263238"/>
    <path id="Trazado_129019" data-name="Trazado 129019" d="M1312.192,99.1c.215.259,1.64-.7,3.593-.59s3.334,1.159,3.557.931c.109-.1-.1-.538-.7-1.035a4.987,4.987,0,0,0-2.845-1.035,4.754,4.754,0,0,0-2.871.761C1312.318,98.61,1312.088,99,1312.192,99.1Z" transform="translate(-1152.597 -72.182)" fill="#263238"/>
    <path id="Trazado_129020" data-name="Trazado 129020" d="M1273.72,120.978a12.787,12.787,0,0,0-3.2-.393c-.5,0-.983-.1-1.084-.432a2.532,2.532,0,0,1,.258-1.5q.636-1.842,1.268-3.88c1.743-5.52,2.975-10.047,2.752-10.109s-1.811,4.348-3.557,9.868l-1.2,3.893a2.875,2.875,0,0,0-.145,1.971,1.268,1.268,0,0,0,.854.685,3.4,3.4,0,0,0,.856.07A13.352,13.352,0,0,0,1273.72,120.978Z" transform="translate(-1120.377 -77.593)" fill="#263238"/>
    <path id="Trazado_129021" data-name="Trazado 129021" d="M1293.7,171.689c-.318,0-.2,2.119-1.9,3.728s-3.994,1.5-3.994,1.793c0,.134.517.388,1.482.357a5.3,5.3,0,0,0,3.342-1.381,4.618,4.618,0,0,0,1.482-3.1C1294.107,172.178,1293.84,171.671,1293.7,171.689Z" transform="translate(-1134.533 -127.277)" fill="#263238"/>
    <path id="Trazado_129022" data-name="Trazado 129022" d="M1311.758,75.283c.179.538,2.137.341,4.436.678s4.121,1.035,4.439.551c.14-.228-.171-.735-.9-1.268a7.778,7.778,0,0,0-6.751-.936C1312.113,74.624,1311.67,75.03,1311.758,75.283Z" transform="translate(-1152.285 -54.801)" fill="#e0e0e0"/>
    <path id="Trazado_129023" data-name="Trazado 129023" d="M1239.43,84.628c.375.424,1.694-.114,3.3-.222s3.006.127,3.3-.354c.127-.235-.116-.634-.737-1.053a4.589,4.589,0,0,0-2.732-.569,4.538,4.538,0,0,0-2.587,1.035C1239.43,83.953,1239.277,84.416,1239.43,84.628Z" transform="translate(-1098.633 -61.089)" fill="#e0e0e0"/>
    <path id="Trazado_129024" data-name="Trazado 129024" d="M1370.314,19.345c.634-.347,3.316,2.442,3.836,2.9,3.055,2.706,4.323,7.791,4.716,11.852a43.832,43.832,0,0,1-.088,11.653c-.077.494-.362,2.587-.362,2.587-.538.484-1.089,5.016-1.811,5.073-1.019.083-2-6.847-2.2-7.372a30.124,30.124,0,0,0-.851-4.672,42.5,42.5,0,0,1-1.456-7.52c-.179-3.531-1.516-8.767-1.7-12.3C1370.371,20.892,1369.742,19.676,1370.314,19.345Z" transform="translate(-1195.525 -14.319)" fill="#e0e0e0"/>
    <path id="Trazado_129025" data-name="Trazado 129025" d="M1372.32,37.52l7.372,5.313a28.987,28.987,0,0,1,.776,4.139l-7.326-4.439Z" transform="translate(-1197.189 -27.815)" fill="#fafafa"/>
    <path id="Trazado_129026" data-name="Trazado 129026" d="M1395,129.255c.21-.1,8.583-3.076,8.795,5.629s-8.562,7.119-8.583,6.865S1395,129.255,1395,129.255Z" transform="translate(-1214.003 -95.397)" fill="#ffbe9d"/>
    <path id="Trazado_129027" data-name="Trazado 129027" d="M1405.747,146.35c.039,0,.158.1.411.215a1.513,1.513,0,0,0,1.135,0c.913-.36,1.648-1.837,1.656-3.4a5.154,5.154,0,0,0-.476-2.16,1.757,1.757,0,0,0-1.172-1.136.776.776,0,0,0-.882.437c-.114.259-.052.419-.1.437s-.189-.145-.132-.517a.978.978,0,0,1,.328-.551,1.131,1.131,0,0,1,.83-.241,2.134,2.134,0,0,1,1.617,1.312,5.113,5.113,0,0,1,.59,2.408c0,1.756-.875,3.417-2.124,3.805a1.594,1.594,0,0,1-1.389-.2C1405.765,146.557,1405.716,146.368,1405.747,146.35Z" transform="translate(-1221.964 -103.358)" fill="#eb996e"/>
    <path id="Trazado_129028" data-name="Trazado 129028" d="M1278.41,243.918a30.577,30.577,0,0,0,16.837-5.838s-3.544,9.292-13.945,9.509c-.171,0-2.656-1.718-2.656-1.718Z" transform="translate(-1127.572 -176.495)" fill="#eb996e"/>
    <path id="Trazado_129029" data-name="Trazado 129029" d="M1247,131.7a4.408,4.408,0,0,1-3.171,1.236c-1.961.109-3.391-.717-3.3-.843a25.383,25.383,0,0,0,3.259.241C1245.584,132.214,1246.913,131.544,1247,131.7Z" transform="translate(-1099.492 -97.616)" fill="#eb996e"/>
    <path id="Trazado_129030" data-name="Trazado 129030" d="M1248.268,100.913c-.07.052-.323-.228-.823-.517a4.969,4.969,0,0,0-2.119-.634,13.235,13.235,0,0,0-2.307.1c-.634.057-.983.07-1,0s.331-.241.926-.411a7.26,7.26,0,0,1,2.432-.282,4.1,4.1,0,0,1,2.328.9C1248.193,100.476,1248.332,100.874,1248.268,100.913Z" transform="translate(-1100.593 -73.509)" fill="#eb996e"/>
    <path id="Trazado_129031" data-name="Trazado 129031" d="M1349.044,103.161c.114.109-.634.944-1.9,1.332s-2.328.114-2.295-.039a19.245,19.245,0,0,1,2.116-.538C1348.079,103.562,1348.93,103.029,1349.044,103.161Z" transform="translate(-1176.823 -76.461)" fill="#eb996e"/>
    <path id="Trazado_129032" data-name="Trazado 129032" d="M1352.551,112.624c.088.132-.761.717-1.958.634s-1.961-.776-1.852-.908.874.243,1.9.305S1352.473,112.466,1352.551,112.624Z" transform="translate(-1179.702 -83.267)" fill="#eb996e"/>
    <path id="Trazado_129033" data-name="Trazado 129033" d="M1320.521,95.92c-.1.153-1.482-1.066-3.575-1.161s-3.6.952-3.678.794c-.044-.057.259-.414.908-.776a5.386,5.386,0,0,1,5.528.285C1320.312,95.5,1320.573,95.878,1320.521,95.92Z" transform="translate(-1153.41 -69.793)" fill="#eb996e"/>
    <path id="Trazado_129034" data-name="Trazado 129034" d="M1321.158,127.133c.114.114-.776,1.019-2.245,1.355a3.261,3.261,0,0,1-2.618-.222c.052-.147,1.159-.049,2.478-.367S1321.05,127,1321.158,127.133Z" transform="translate(-1155.656 -94.232)" fill="#eb996e"/>
    <path id="Trazado_129035" data-name="Trazado 129035" d="M1309.106,168.984c-.147.1-.6-.341-1.306-.468s-1.267.083-1.394-.057.533-.729,1.508-.533S1309.264,168.922,1309.106,168.984Z" transform="translate(-1148.314 -124.458)" fill="#eb996e"/>
    <path id="Trazado_129036" data-name="Trazado 129036" d="M1316.785,165.843c-.153.075-.518-.318-1.035-.634s-1.058-.414-1.071-.585.634-.349,1.371.057S1316.938,165.786,1316.785,165.843Z" transform="translate(-1154.459 -121.9)" fill="#eb996e"/>
    <path id="Trazado_129037" data-name="Trazado 129037" d="M1369.274,218.25a.584.584,0,0,1,.235.458,3.488,3.488,0,0,1-.3,1.293.947.947,0,0,0,.393,1.278l.109.049a3.181,3.181,0,0,1,1,.735,1.581,1.581,0,0,1,.179,1.438,12.826,12.826,0,0,1-1.268,2.041,1.7,1.7,0,0,0,.132,1.617c.546.882,1.11,1.332,1.035,1.407s-.68-.259-1.4-1.18a2.089,2.089,0,0,1-.277-2.069c.31-.763.97-1.27,1.172-2a1.017,1.017,0,0,0-.075-.905,3.059,3.059,0,0,0-.82-.634,1.508,1.508,0,0,1-.76-.934,1.717,1.717,0,0,1,.153-1.014,5.106,5.106,0,0,0,.463-1.167C1369.312,218.444,1369.23,218.276,1369.274,218.25Z" transform="translate(-1194.44 -161.794)" fill="#eb996e"/>
    <path id="Trazado_129038" data-name="Trazado 129038" d="M1384.909,225.974c-.052.039-.517-.336-1-1.2a2.691,2.691,0,0,1-.305-1.754c.114-.748.848-1.268.742-1.731s-.729-.817-1.267-1.234a1.81,1.81,0,0,1-.634-1.707,1.744,1.744,0,0,1,.564-1.063c.228-.178.386-.21.406-.178a2.474,2.474,0,0,0-.546,1.268,1.413,1.413,0,0,0,.564,1.231c.215.171.518.316.8.538a1.673,1.673,0,0,1,.7,1.035,1.647,1.647,0,0,1-.4,1.172,2.1,2.1,0,0,0-.4.776,2.452,2.452,0,0,0,.158,1.464A8.982,8.982,0,0,1,1384.909,225.974Z" transform="translate(-1204.675 -160.941)" fill="#eb996e"/>
    <path id="Trazado_129039" data-name="Trazado 129039" d="M1280.267,52.61a2.743,2.743,0,0,1-1.966.724c-1.332.088-3.086-.292-4.868.127-.887.235-1.7.673-2.535.962a4.818,4.818,0,0,1-2.289.362,2.586,2.586,0,0,1-1.456-.59c-.279-.259-.357-.455-.323-.476a3.363,3.363,0,0,0,1.811.634,4.979,4.979,0,0,0,2.054-.45,19.987,19.987,0,0,1,2.538-1.035,8.254,8.254,0,0,1,2.807-.127c.838.075,1.58.158,2.194.158A12.029,12.029,0,0,0,1280.267,52.61Z" transform="translate(-1118.981 -39.001)" fill="#eb996e"/>
    <path id="Trazado_129040" data-name="Trazado 129040" d="M1279.39,44.978c0,.171-2.212.279-4.915.406s-4.915.228-4.946.057,2.176-.533,4.915-.634S1279.39,44.812,1279.39,44.978Z" transform="translate(-1120.987 -33.188)" fill="#eb996e"/>
    <path id="Trazado_129041" data-name="Trazado 129041" d="M1289.785,35.833c-.052.163-.887.049-1.9,0s-1.9-.114-1.9-.279.843-.419,1.94-.323S1289.834,35.672,1289.785,35.833Z" transform="translate(-1133.183 -26.101)" fill="#eb996e"/>
    <path id="Trazado_129042" data-name="Trazado 129042" d="M1229.63,114.18c.083.145-.577.517-1.387.241s-1.084-1.009-.926-1.071.533.3,1.128.5S1229.573,114.03,1229.63,114.18Z" transform="translate(-1089.664 -84.024)" fill="#eb996e"/>
    <path id="Trazado_129043" data-name="Trazado 129043" d="M1229.663,120.2c.062.158-.259.432-.517.812s-.429.753-.634.74-.259-.556.114-1.089S1229.611,120.052,1229.663,120.2Z" transform="translate(-1090.462 -89.06)" fill="#eb996e"/>
    <path id="Trazado_129044" data-name="Trazado 129044" d="M994.508,714.973l-15.52-3.981a2.587,2.587,0,0,0-3.161,1.837v.029l-4.4,17.16a2.587,2.587,0,0,0,1.813,3.159h.034l32.712,8.386a2.587,2.587,0,0,0,3.161-1.837V739.7l4.4-17.155a2.587,2.587,0,0,0-1.839-3.164h-.026Z" transform="translate(-899.934 -527.012)" fill="#263238"/>
    <path id="Trazado_129045" data-name="Trazado 129045" d="M1071.276,759.072c-.09,0,1.128-4.48,2.714-9.951s2.946-9.9,3.034-9.871-1.128,4.488-2.719,9.959S1071.359,759.1,1071.276,759.072Z" transform="translate(-974.015 -548.024)" fill="#455a64"/>
    <path id="Trazado_129046" data-name="Trazado 129046" d="M1067.958,724.714s-4.837.432-6.188.078-9.933-3.29-11.64-3.557a8.678,8.678,0,0,0-1.267-.109,8.476,8.476,0,0,0-3.8.825l-3.666,1.7,7.913,2.028s-.034.711-1.345,1.984-16.615,7.5-17.649,8.04-2.09,1.267-1.324,2.4a6.051,6.051,0,0,0,3.621,1.9,13.186,13.186,0,0,0,2.889-.634s-4.436,2.4-4.519,3.3.517,2.46,1.386,2.328c.737-.1,4.558-.887,4.558-.887s9.889-2.093,10.238-1.769-4.6,3.316-5.311,3.508-3.805.137-4.527.486a1.6,1.6,0,0,0-.057,2.845,16.868,16.868,0,0,0,4.209,1.756,1.811,1.811,0,0,0-.432,2.085,2.328,2.328,0,0,0,1.9,1.389,6.889,6.889,0,0,0,3.948-.939c.866-.572,15.52-6.092,16.483-6.726s4-4.025,5.287-5.013a36.352,36.352,0,0,1,3.461-2.214Z" transform="translate(-942.475 -534.588)" fill="#ffbe9d"/>
    <path id="Trazado_129047" data-name="Trazado 129047" d="M1043.33,775.531a3.871,3.871,0,0,1,.634-.517,7.112,7.112,0,0,1,.81-.538l.517-.318.634-.31a43.838,43.838,0,0,1,6.984-2.61,71.062,71.062,0,0,0,7.036-2.4l.634-.259.538-.272c.336-.166.636-.313.856-.45a4.721,4.721,0,0,1,.729-.393,4.772,4.772,0,0,1-.672.486,8.219,8.219,0,0,1-.835.494l-.538.292-.634.285a55.645,55.645,0,0,1-7.031,2.494,51.406,51.406,0,0,0-6.984,2.535l-.634.29-.517.292a8.877,8.877,0,0,0-.836.473A4.779,4.779,0,0,1,1043.33,775.531Z" transform="translate(-953.301 -568.937)" fill="#eb996e"/>
    <path id="Trazado_129048" data-name="Trazado 129048" d="M1111.23,788.372a8.239,8.239,0,0,0,6.1-2.662,2.437,2.437,0,0,1-.634.823,6.571,6.571,0,0,1-2.049,1.407,6.378,6.378,0,0,1-2.427.546A2.407,2.407,0,0,1,1111.23,788.372Z" transform="translate(-1003.637 -582.467)" fill="#eb996e"/>
    <path id="Trazado_129049" data-name="Trazado 129049" d="M1076.46,817.5a3.01,3.01,0,0,1,.634-.2c.419-.109,1.019-.259,1.761-.476a50.928,50.928,0,0,0,11.074-4.6c.672-.372,1.21-.683,1.586-.905a2.779,2.779,0,0,1,.595-.31,3.449,3.449,0,0,1-.538.406c-.354.246-.882.582-1.552.98a42.306,42.306,0,0,1-11.092,4.615c-.748.184-1.363.318-1.787.393a2.872,2.872,0,0,1-.68.1Z" transform="translate(-977.861 -601.222)" fill="#eb996e"/>
    <path id="Trazado_129050" data-name="Trazado 129050" d="M1005.444,699.09l-1.914,4.348,25.495,6.187Z" transform="translate(-923.796 -518.253)" fill="#455a64"/>
    <path id="Trazado_129051" data-name="Trazado 129051" d="M1022.075,722.065a1.2,1.2,0,0,1-.259,0,4.424,4.424,0,0,1-.776-.057c-.672-.065-1.648-.184-2.845-.388a84.435,84.435,0,0,1-9.2-2.186c-3.549-.965-6.827-1.63-9.152-2.307-1.167-.323-2.1-.634-2.739-.856a5.809,5.809,0,0,1-.975-.4,7.644,7.644,0,0,1,1,.292c.634.184,1.591.458,2.757.755,2.328.634,5.616,1.268,9.185,2.212s6.782,1.811,9.152,2.276c1.18.228,2.144.385,2.817.489A7.381,7.381,0,0,1,1022.075,722.065Z" transform="translate(-918.31 -530.693)" fill="#455a64"/>
  </g>
  <g id="freepik--cash-register--inject-3" transform="translate(110.009 159.556)">
    <rect id="Rectángulo_30708" data-name="Rectángulo 30708" width="35.632" height="16.672" transform="translate(3.942 54.834)" fill="#455a64"/>
    <path id="Trazado_129052" data-name="Trazado 129052" d="M529.38,841.539s6.043-16.943,7.949-22.122A2.628,2.628,0,0,1,539.8,817.7h95.9v23.839Z" transform="translate(-502.452 -765.737)" fill="#263238"/>
    <rect id="Rectángulo_30709" data-name="Rectángulo 30709" width="3.942" height="21.711" transform="translate(0 51.963)" fill="#263238"/>
    <path id="Trazado_129053" data-name="Trazado 129053" d="M571,746.694V735.232a2.473,2.473,0,0,1,2.069-2.442l69.216-10.89H658.8a3.12,3.12,0,0,1,3.127,3.13h0V746.7Z" transform="translate(-533.306 -694.719)" fill="#455a64"/>
    <rect id="Rectángulo_30710" data-name="Rectángulo 30710" width="6.738" height="15.456" transform="translate(114.339 11.721)" fill="#455a64"/>
    <rect id="Rectángulo_30711" data-name="Rectángulo 30711" width="28.431" height="11.721" rx="5.17" transform="translate(103.493)" fill="#455a64"/>
    <path id="Trazado_129054" data-name="Trazado 129054" d="M578.3,732.459a.848.848,0,0,1,.215-.06l.634-.114,2.5-.424,9.211-1.5,30.428-4.83,26.561-4.139h0l12.171.057,3.339.039h.877a1.15,1.15,0,0,1,.3,0h-1.174l-3.339.031-12.171.057h0L621.3,725.782l-30.428,4.729-9.23,1.4-2.538.36-.634.09Z" transform="translate(-538.718 -694.34)" fill="#263238"/>
    <path id="Trazado_129055" data-name="Trazado 129055" d="M863.985,661.656c0,.1-3.733.166-8.342.166s-8.342-.07-8.342-.166,3.733-.166,8.342-.166S863.985,661.568,863.985,661.656Z" transform="translate(-738.134 -649.935)" fill="#263238"/>
    <rect id="Rectángulo_30712" data-name="Rectángulo 30712" width="24.362" height="8.259" transform="translate(105.71 1.599)" fill="#263238"/>
    <path id="Trazado_129056" data-name="Trazado 129056" d="M908.258,629.3l-.323,1.609c.577.171,1.172.362,1.172,1.035,0,.794-.672,1.268-1.63,1.268l-.14.691h-.29l.132-.7a2.124,2.124,0,0,1-1.33-.533l.215-.349a1.9,1.9,0,0,0,1.2.5l.31-1.591c-.546-.171-1.1-.375-1.1-1.035,0-.776.634-1.229,1.57-1.268l.135-.683h.3l-.14.691a2.217,2.217,0,0,1,1.136.354l-.184.362A1.947,1.947,0,0,0,908.258,629.3Zm-.6,1.526.3-1.526c-.634.049-1.053.359-1.053.843C906.908,630.529,907.244,630.694,907.661,630.826Zm.2.484-.3,1.513c.665-.031,1.115-.323,1.115-.823C908.669,631.626,908.294,631.442,907.857,631.31Z" transform="translate(-781.538 -625.293)" fill="#fff"/>
    <path id="Trazado_129057" data-name="Trazado 129057" d="M892.421,629.3l-.318,1.609c.572.171,1.167.362,1.167,1.035,0,.794-.673,1.268-1.63,1.268l-.14.691h-.29l.14-.7a2.141,2.141,0,0,1-1.34-.533l.222-.349a1.893,1.893,0,0,0,1.193.5l.316-1.591c-.551-.171-1.107-.375-1.107-1.035,0-.776.634-1.229,1.57-1.268l.14-.683h.292l-.132.691a2.266,2.266,0,0,1,1.133.354l-.189.362A1.948,1.948,0,0,0,892.421,629.3Zm-.6,1.526.305-1.526c-.634.049-1.058.359-1.058.843,0,.385.336.551.753.683Zm.2.484-.3,1.513c.634-.031,1.11-.323,1.11-.823C892.832,631.626,892.457,631.442,892.02,631.31Z" transform="translate(-769.796 -625.293)" fill="#fff"/>
    <path id="Trazado_129058" data-name="Trazado 129058" d="M876.618,629.3l-.323,1.609c.577.171,1.172.362,1.172,1.035,0,.794-.678,1.268-1.627,1.268l-.14.691h-.3l.137-.7a2.123,2.123,0,0,1-1.33-.533l.2-.349a1.9,1.9,0,0,0,1.2.5l.31-1.591c-.551-.171-1.1-.375-1.1-1.035,0-.776.634-1.229,1.552-1.268l.14-.683h.3l-.14.691a2.242,2.242,0,0,1,1.136.354l-.189.362A1.888,1.888,0,0,0,876.618,629.3Zm-.6,1.526.305-1.526c-.634.049-1.058.359-1.058.843C875.263,630.529,875.6,630.694,876.016,630.826Zm.2.484-.305,1.513c.665-.031,1.11-.323,1.11-.823-.023-.375-.375-.559-.8-.691Z" transform="translate(-758.083 -625.293)" fill="#fff"/>
    <path id="Trazado_129059" data-name="Trazado 129059" d="M845.113,748.663c-.088,0-.163-5.66-.163-12.647s.075-12.647.163-12.647.166,5.662.166,12.647S845.178,748.663,845.113,748.663Z" transform="translate(-736.392 -695.808)" fill="#263238"/>
    <path id="Trazado_129060" data-name="Trazado 129060" d="M471.263,828.326c0,.1-6.917.166-15.443.166s-15.44-.07-15.44-.166,6.914-.166,15.44-.166S471.263,828.238,471.263,828.326Z" transform="translate(-436.474 -773.492)" fill="#263238"/>
  </g>
  <g id="freepik--Counter--inject-3" transform="translate(0 235.195)">
    <path id="Trazado_129061" data-name="Trazado 129061" d="M420,909.393c0,.1-94.028.166-209.992.166S0,909.489,0,909.393s94-.163,210.008-.163S420,909.305,420,909.393Z" transform="translate(0 -909.23)" fill="#263238"/>
  </g>
  <g id="freepik--speech-bubble--inject-3" transform="translate(118.967 7.327)">
    <path id="Trazado_129062" data-name="Trazado 129062" d="M459.91,88.09l6.643-11.728a31.432,31.432,0,1,1,7.53,8.381h0Z" transform="translate(-459.91 -28.42)" fill="#cbc5e0"/>
    <path id="Trazado_129063" data-name="Trazado 129063" d="M459.91,87.994,474.1,84.569l-.044.127h0l-.38-.494.494.38a32.334,32.334,0,0,0,6.441,3.8,31.3,31.3,0,0,0,8.557,2.413,28.089,28.089,0,0,0,4.933.233c.843-.049,1.712-.075,2.587-.15l2.631-.406a31.418,31.418,0,0,0,19.4-12.515,30.952,30.952,0,0,0,5.236-12.005,31.788,31.788,0,0,0-.373-13.821,30.676,30.676,0,0,0-6.661-12.771l-1.267-1.394a16.5,16.5,0,0,0-1.363-1.268,15.246,15.246,0,0,0-1.407-1.218l-1.49-1.11a12,12,0,0,0-1.552-1.019l-1.568-.975-1.648-.8a14.525,14.525,0,0,0-1.666-.742,31.675,31.675,0,0,0-13.948-2.15,30.656,30.656,0,0,0-12.784,3.766,31.657,31.657,0,0,0-14.791,18.136,33.967,33.967,0,0,0-1.381,10.143,31.33,31.33,0,0,0,1.5,8.772,31.921,31.921,0,0,0,3.1,6.726v.083c-4.317,7.5-6.428,11.208-6.726,11.684l6.591-11.78v.083a31.943,31.943,0,0,1-3.169-6.757,31.321,31.321,0,0,1-1.534-8.813,33.909,33.909,0,0,1,1.368-10.21,31.845,31.845,0,0,1,14.923-18.309,30.966,30.966,0,0,1,12.913-3.8,32.091,32.091,0,0,1,14.043,2.165,16.508,16.508,0,0,1,1.684.75l1.663.8,1.591.97A13.449,13.449,0,0,1,511.56,34.1l1.5,1.13a16.547,16.547,0,0,1,1.425,1.283c.458.429.96.823,1.384,1.268l1.268,1.407A31.017,31.017,0,0,1,523.865,52.1a32.01,32.01,0,0,1,.367,13.948,31.187,31.187,0,0,1-5.3,12.119,31.693,31.693,0,0,1-19.6,12.6l-2.662.391c-.874.075-1.751.1-2.587.145a28.246,28.246,0,0,1-4.969-.259,31.619,31.619,0,0,1-8.6-2.413,32.461,32.461,0,0,1-6.467-3.88l.122-.114h0l.075.106h-.119Z" transform="translate(-459.91 -28.324)" fill="#263238"/>
    <path id="Trazado_129064" data-name="Trazado 129064" d="M548.55,125.212l3.174-3.177,6.125,5.445,12.023-11.571,2.949,3.177L557.4,133.6Z" transform="translate(-525.621 -93.254)" fill="#c1507f"/>
  </g>
</svg>
