<svg xmlns="http://www.w3.org/2000/svg" width="137.039" height="134.085" viewBox="0 0 137.039 134.085">
  <g id="Grupo_1100061" data-name="Grupo 1100061" transform="translate(-939.236 -4247.046)">
    <g id="Grupo_1100060" data-name="Grupo 1100060">
      <g id="Grupo_1100059" data-name="Grupo 1100059">
        <path id="_12068" data-name="12068" d="M102.542,72.346c-14.033-1.938-28.856-1.464-41.625,4.669-17.708,8.505-29.338,27.789-29.784,47.429s9.786,38.939,25.592,50.6,36.651,15.8,55.981,12.3c19.492-3.532,37.786-14.984,47.953-31.985,6.519-10.9,9.567-24.363,5.965-36.544-2.174-7.352-6.62-13.866-11.848-19.475A87.539,87.539,0,0,0,102.542,72.346Z" transform="translate(908.117 4192.578)" fill="#ffd947"/>
        <g id="Shopping" transform="translate(945.756 4247.037)">
          <path id="Trazado_873887" data-name="Trazado 873887" d="M0,0H11.255V18.214H0Z" transform="translate(31.599 20.626) rotate(-21.589)" fill="#ffab8a"/>
          <path id="Trazado_873888" data-name="Trazado 873888" d="M26.39,16.966l.965,2.431,4.785-1.891a1.852,1.852,0,0,1,2.38,2.457l-3.627,8.374,2.2,5.57,3.319-1.286,4.335-9.982L36.886,12.85Z" transform="translate(5.194 3.677)" fill="#ff8867"/>
          <path id="Trazado_873889" data-name="Trazado 873889" d="M86.645,22.983,100.113,57.02,47.554,77.807,34.33,44.375,50.4,7.29Z" transform="translate(7.468 2.085)" fill="#ffb080"/>
          <path id="Trazado_873890" data-name="Trazado 873890" d="M84.386,26.943,94.574,52.67a1.6,1.6,0,0,1-.888,2.058L49.951,72.042a1.569,1.569,0,0,1-2.045-.888L37.9,46.02a6.921,6.921,0,0,1,.09-5.313L50.221,12.472a2.328,2.328,0,0,1,3.061-1.209l27.4,11.86a6.959,6.959,0,0,1,3.7,3.82Z" transform="translate(8.35 3.167)" fill="#ffd894"/>
          <path id="Trazado_873891" data-name="Trazado 873891" d="M37,43.512C55.523.677,56.539-1.716,37,43.525Z" transform="translate(8.232 2.999)" fill="#ffb080"/>
          <path id="Trazado_873892" data-name="Trazado 873892" d="M80.268,24.431c0,.129.45.206-32.158-13.931Z" transform="translate(11.413 3.004)" fill="#ffb080"/>
          <path id="Trazado_873893" data-name="Trazado 873893" d="M68.893,23.383,44.826,32.9a1.286,1.286,0,0,1-1.608-1.672l7.268-16.722a1.286,1.286,0,0,1,1.659-.656l16.722,7.268a1.286,1.286,0,0,1,.026,2.264Z" transform="translate(9.989 3.936)" fill="#fff1ad"/>
          <path id="Trazado_873894" data-name="Trazado 873894" d="M53.953,17.915l-2.5-1.093a.682.682,0,0,0-.888.36l-1.106,2.457a.682.682,0,0,0,.875.913l3.589-1.428a.669.669,0,0,0,.026-1.209Z" transform="translate(11.784 4.799)" fill="#fff"/>
          <path id="Trazado_873895" data-name="Trazado 873895" d="M95.677,23.169l-.81,1.891a2.341,2.341,0,0,1-3.087,1.222L52.07,9.084l-17.2,39.7a2.341,2.341,0,0,1-3.087,1.286l-1.878-.823a2.328,2.328,0,0,1-1.222-3.087L47.555,2.51a2.573,2.573,0,0,1,3.319-1.286L94.455,20.082a2.341,2.341,0,0,1,1.222,3.087Z" transform="translate(5.794 0.291)" fill="#e66f49"/>
          <path id="Trazado_873896" data-name="Trazado 873896" d="M95.507,20.955a.913.913,0,0,1-1.158,1.286L50.446,3.217a.9.9,0,0,0-1.171.463c-.09.206-15.693,36.2-19.012,43.915a.913.913,0,0,1-1.724-.141c-.193-1-1.582,2.637,19.038-44.945a2.573,2.573,0,0,1,3.306-1.286C97.912,21.573,94.928,20.055,95.507,20.955Z" transform="translate(5.784 0.292)" fill="#ff974e"/>
          <path id="Trazado_873897" data-name="Trazado 873897" d="M0,0H19.617V27.528H0Z" transform="translate(73.671 42.9) rotate(-21.589)" fill="#f02f62"/>
          <rect id="Rectángulo_401174" data-name="Rectángulo 401174" width="21.289" height="14.921" rx="1.02" transform="translate(85.069 65.453) rotate(-111.589)" fill="#ff4d6c"/>
          <rect id="Rectángulo_401175" data-name="Rectángulo 401175" width="10.213" height="3.177" rx="0.35" transform="translate(80.33 46.978) rotate(-21.589)" fill="#fff"/>
          <path id="Trazado_873898" data-name="Trazado 873898" d="M0,0H19.617V2.11H0Z" transform="translate(73.67 42.902) rotate(-21.589)" fill="#b92053"/>
          <path id="Trazado_873899" data-name="Trazado 873899" d="M59.3,34.9l4.9,12.375a1.106,1.106,0,0,1-.617,1.428L47.376,55.134a1.093,1.093,0,0,1-1.415-.617L41.06,42.1Z" transform="translate(9.395 9.991)" fill="#cef0fc"/>
          <rect id="Rectángulo_401176" data-name="Rectángulo 401176" width="16.478" height="11.95" rx="0.65" transform="translate(52.381 52.664) rotate(-21.589)" fill="#fffffc"/>
          <path id="Trazado_873900" data-name="Trazado 873900" d="M2.714,0h14.15a2.766,2.766,0,0,1,2.766,2.766V4.206H0V2.766A2.766,2.766,0,0,1,2.715,0Z" transform="translate(72.169 38.982) rotate(-21.589)" fill="#e16a3f"/>
          <path id="Trazado_873901" data-name="Trazado 873901" d="M1.286.026H13.674A1.286,1.286,0,0,1,14.96,1.312v1.6H0V1.286A1.286,1.286,0,0,1,1.286,0Z" transform="translate(74.824 39.361) rotate(-21.589)" fill="#f5923f"/>
          <path id="Trazado_873902" data-name="Trazado 873902" d="M2.753,0h14.06a2.766,2.766,0,0,1,2.766,2.766V4.206H0V2.766A2.766,2.766,0,0,1,2.766,0Z" transform="translate(48.936 48.18) rotate(-21.589)" fill="#e16a3f"/>
          <path id="Trazado_873903" data-name="Trazado 873903" d="M1.273.026H13.661a1.286,1.286,0,0,1,1.286,1.286v1.6H0V1.286A1.286,1.286,0,0,1,1.286,0Z" transform="translate(51.59 48.542) rotate(-21.589)" fill="#f5923f"/>
          <circle id="Elipse_11581" data-name="Elipse 11581" cx="1.621" cy="1.621" r="1.621" transform="translate(81.803 52.236)" fill="#405075"/>
          <rect id="Rectángulo_401177" data-name="Rectángulo 401177" width="5.403" height="15.835" rx="1.82" transform="translate(42.204 10.633) rotate(68.411)" fill="#ff5b49"/>
          <rect id="Rectángulo_401178" data-name="Rectángulo 401178" width="5.403" height="8.348" rx="1.82" transform="translate(38.735 12.006) rotate(68.411)" fill="#ff7449"/>
          <path id="Trazado_873904" data-name="Trazado 873904" d="M57.581,51.012l-6.007,2.38a.8.8,0,0,1-1.042-.45.81.81,0,0,1,.45-1.042l6.007-2.367a.8.8,0,0,1,1.042.45.785.785,0,0,1-.45,1.029Z" transform="translate(12.091 14.164)" fill="#fffbc6"/>
          <path id="Trazado_873905" data-name="Trazado 873905" d="M82.114,83.529H32.963a3.447,3.447,0,0,1-3.422-2.676,3.357,3.357,0,0,1,3.293-4.026h48.1V70.91h-48.1a9.274,9.274,0,0,0-9.249,9.956,9.506,9.506,0,0,0,9.545,8.58H82.011a2.959,2.959,0,0,0,.1-5.917Z" transform="translate(4.384 20.301)" fill="#deeaff"/>
          <path id="Trazado_873906" data-name="Trazado 873906" d="M27.608,79.616a2.714,2.714,0,0,0,2.238-1.286,3.306,3.306,0,0,1,2.766-1.492h48.1V70.92h-48.1a9.223,9.223,0,0,0-7.834,4.309,2.869,2.869,0,0,0,2.431,4.4Z" transform="translate(4.606 20.304)" fill="#caccff"/>
          <path id="Trazado_873907" data-name="Trazado 873907" d="M98.054,48.71C90.761,68.918,93.591,61.1,85.616,83.2H35.989c-8.837-24.44-5.03-13.982-12.439-34.487Z" transform="translate(4.381 13.945)" fill="#97d7fc"/>
          <path id="Trazado_873908" data-name="Trazado 873908" d="M77.7,52.56A1.981,1.981,0,0,1,79.6,55.133c-.077.219-6.432,20.761-6.432,20.581A1.968,1.968,0,0,1,71.286,77.1H43.63a1.968,1.968,0,0,1-1.878-1.389L35.32,55.133a1.981,1.981,0,0,1,1.891-2.573Z" transform="translate(7.725 15.047)" fill="#bff5fc"/>
          <path id="Trazado_873909" data-name="Trazado 873909" d="M46.94,86.611,29.754,39.017a3.447,3.447,0,0,0-3.216-2.277H12.209a2.959,2.959,0,1,0,0,5.917H24.223L40.1,86.611Z" transform="translate(0.286 10.517)" fill="#deeaff"/>
          <path id="Trazado_873910" data-name="Trazado 873910" d="M28.569,38.977A3.447,3.447,0,0,0,25.353,36.7h-9a2.959,2.959,0,1,0,0,5.917h6.689l1.119,3.126a3.233,3.233,0,1,0,6.071-2.225Z" transform="translate(1.472 10.506)" fill="#f7f9ff"/>
          <circle id="Elipse_11582" data-name="Elipse 11582" cx="6.226" cy="6.226" r="6.226" transform="translate(41 109.748)" fill="#405075"/>
          <circle id="Elipse_11583" data-name="Elipse 11583" cx="6.226" cy="6.226" r="6.226" transform="translate(73.261 109.748)" fill="#405075"/>
          <g id="Grupo_1099647" data-name="Grupo 1099647" transform="translate(8.25 0.009)">
            <path id="Trazado_873911" data-name="Trazado 873911" d="M108.777,58.641,96.454,27.486l.6.257a3.64,3.64,0,0,0,4.772-1.891l.81-1.878a3.615,3.615,0,0,0-1.891-4.785L57.182.306a3.859,3.859,0,0,0-5,1.981l-7.5,17.327-1.042-2.637A3.64,3.64,0,0,0,44.525,13l-.27-.682a3.64,3.64,0,0,0-4.708-2.032l-10.368,4.1a3.615,3.615,0,0,0-2.045,4.7l.27.682a3.615,3.615,0,0,0,3.357,2.29l6.136,15.5-3.6,8.31a3.615,3.615,0,0,0,1.891,4.785,8.567,8.567,0,0,0,3.332,1.119A3.6,3.6,0,0,0,41.733,49.8l4.579,11.577H35.7L31.25,49.058a4.734,4.734,0,0,0-4.425-3.126H12.495a4.245,4.245,0,1,0,0,8.49H23.6c5.9,16.324,9.866,27.283,12.863,35.554a10.561,10.561,0,0,0-9.738,11.294,10.792,10.792,0,0,0,10.792,9.763h4.013a7.5,7.5,0,1,0,11.281,0H73.853a7.5,7.5,0,1,0,11.281,0H86.5a4.245,4.245,0,0,0,0-8.49H37.347a2.071,2.071,0,1,1-.129-4.129h52.74a1.286,1.286,0,0,0,1.209-.849c3.859-10.664,8.708-24.183,12.426-34.474a1.364,1.364,0,0,0,0-1.029l4.464-1.762a1.286,1.286,0,0,0,.72-1.659ZM29.8,18.817l-.27-.669a1.055,1.055,0,0,1,.592-1.364c11.384-4.5,10.5-4.181,10.767-4.181a1.055,1.055,0,0,1,.978.669l.27.669a1.055,1.055,0,0,1-.54,1.351L31.211,19.383a1.055,1.055,0,0,1-1.415-.566Zm3.46,2.573,8.117-3.229,1.891,4.785L38.376,34.214ZM39.5,48.6a1.068,1.068,0,0,1-1.4.553c-2.045-.888-2.251-.888-2.457-1.4s-1.389,2.418,18.9-44.43a1.286,1.286,0,0,1,1.145-.746c.386,0-2.663-1.286,44.07,18.986a1.042,1.042,0,0,1,.643.978c0,.27,0,.206-.913,2.3a1.055,1.055,0,0,1-1.389.553L58.378,8.191a1.286,1.286,0,0,0-1.685.669Zm11.217.682a.888.888,0,0,1,.489-1.158c15.282-6.059,14.291-5.673,14.536-5.673A.888.888,0,0,1,66.56,43l.476,1.2c-2.508.952-1.968.823-15.861,6.226Zm35.85,14.664c-1.068,5.39-.695,3.422-1.376,6.933H75.8c0-.72,0,.4.5-6.933ZM73.9,40.067a.9.9,0,0,1,.5-1.158L88.62,33.3a.888.888,0,0,1,1.145.489l.476,1.2L74.38,41.25ZM91.18,37.378l9.172,23.154-1.981.785H82.343L75.332,43.643Zm-8.5,46.076h-7.86l.733-10.008h9Zm-32.866,0H43.663L40.087,73.447H47.8Zm.63-10.008H59.51c.6,8.374.244,3.447.733,10.008H52.436Zm11.641,0H73.03c-.077,1.016,0-.412-.733,10.008h-9.48C62.045,72.843,62.379,77.332,62.083,73.447Zm11.14-2.573H61.954l-.463-6.239,1.749-.695H73.776ZM65.595,60.224l-1.7-4.309,6.728-2.663,1.7,4.309C64.681,60.6,65.723,60.224,65.595,60.224Zm-2.65-6.7-1.7-4.309c.527-.257-1.968.785,6.728-2.65l1.7,4.3Zm-4.091-3.357,1.7,4.3-6.728,2.663-1.7-4.3Zm-4.078,9.352L61.5,56.853l1.737,4.309c-.669.27.527.206-7.718.206Zm4.039,4.425c.141,2.122,0,.656.5,6.933h-9.39c-.193-.99,0,.154-1.376-6.933Zm-12.863,0,1.376,6.933H39.122l-2.5-6.933Zm6.226,52.032a4.914,4.914,0,1,0-.026,0Zm32.274,0a4.925,4.925,0,1,0-.026,0ZM37.218,95.842a4.644,4.644,0,0,0-4.554,5.557,4.708,4.708,0,0,0,4.682,3.718H86.5a1.672,1.672,0,1,1,0,3.344H37.514a8.207,8.207,0,0,1-8.323-7.384,7.988,7.988,0,0,1,7.975-8.58c.167,0,0-.373,1.286,3.344Zm4.065,0c-1.865-5.158-13.712-37.96-15.565-43.105a1.286,1.286,0,0,0-1.209-.849H12.495a1.672,1.672,0,1,1,0-3.344h14.33a2.135,2.135,0,0,1,2.007,1.428c4.451,12.336,14.741,40.905,16.555,45.922Zm6.843,0c-1.466-4.078-.888-2.444-3.537-9.815h5.789c.978,4.965.5,2.573,1.955,9.815Zm6.779,0c-1.479-7.384-.99-4.94-1.955-9.815h7.474c.553,7.345.129,1.659.72,9.815Zm8.824,0c-.3-4.013-.54-7.358-.72-9.815h9.107C71.5,94.44,72,87.507,71.4,95.842Zm10.291,0c.6-8.348.167-2.483.72-9.815h7.474c-.965,4.849-.579,2.727-2.007,9.815Zm15.14,0H82.832c1.4-7.011,1-5,1.955-9.815h7.86Zm4.464-12.387H85.3L87.3,73.447h9.892Zm4.541-12.58H87.874c1.119-5.634.836-4.245,1.376-6.933h11.423ZM102.8,59.632c-8.245-20.839,1.518,3.859-10.587-26.781a3.46,3.46,0,0,0-4.528-1.981l-14.15,5.647a3.473,3.473,0,0,0-1.955,4.489c1.286,3.319-.141-.386,8.052,20.363H69.672l4.785-1.891a1.286,1.286,0,0,0,.72-1.672c0-.129-4.824-12.169-6.239-15.783a3.46,3.46,0,0,0-4.412-1.942l-14.15,5.608a3.46,3.46,0,0,0-2.058,4.476c1.209,3.074,3.023,7.718,4.425,11.191H49.091l-5.9-14.87C48.937,33.211,54.764,19.91,58.546,11.06L93.122,26.046l12.786,32.338Z" transform="translate(-8.25 -0.009)" fill="#302d3d"/>
            <path id="Trazado_873912" data-name="Trazado 873912" d="M67.746,42.168l-.193-.437a1.287,1.287,0,1,0-2.393.952c.1.27.347,1.286,1.364,1.286a1.286,1.286,0,0,0,1.222-1.8Z" transform="translate(8.019 11.705)" fill="#302d3d"/>
          </g>
        </g>
      </g>
    </g>
  </g>
</svg>
