<svg xmlns="http://www.w3.org/2000/svg" xmlns:xlink="http://www.w3.org/1999/xlink" width="478.5" height="303.788" viewBox="0 0 478.5 303.788">
  <defs>
    <clipPath id="clip-path">
      <path id="Trazado_128813" data-name="Trazado 128813" d="M185.508,366.026a7.459,7.459,0,0,0,.551,5.159c-.244.1-.063,1.087.37,1.3s4.2.189,4.946-.4a.788.788,0,0,0,0-.662s.922.354,3.544-.142a13.325,13.325,0,0,0,5.049-1.9c.307-.2.095-.9-.252-.788,0,0-.228-1.819-1.749-1.717a11.523,11.523,0,0,1-6.955-2.032,5.632,5.632,0,0,0-2.071-.906A3.552,3.552,0,0,0,185.508,366.026Z" transform="translate(-185.279 -363.933)" fill="#ed0c37"/>
    </clipPath>
    <clipPath id="clip-path-2">
      <path id="Trazado_128822" data-name="Trazado 128822" d="M87.762,355.148a7.428,7.428,0,0,0-4,3.269c-.221-.142-.945.551-.882,1.024s2.127,3.623,3.024,3.938a.787.787,0,0,0,.543-.378s.213.961,2.056,2.891a13.272,13.272,0,0,0,4.348,3.2c.331.15.788-.41.512-.638,0,0,1.41-1.181.5-2.41a11.42,11.42,0,0,1-2.087-6.931,5.789,5.789,0,0,0-.378-2.237A3.544,3.544,0,0,0,87.762,355.148Z" transform="translate(-82.875 -355.103)" fill="#ed0c37"/>
    </clipPath>
    <clipPath id="clip-path-3">
      <path id="Trazado_128851" data-name="Trazado 128851" d="M446.491,359.4a28.366,28.366,0,0,1,2.41,2.316c.347.5,1.678,4.261,1.678,4.261a3.2,3.2,0,0,1-2.079,1.434l-1.678-2.134s-.851,3.765-1.717,4.986c-1.048,1.473-7.033,3.15-7.931,2.733,0,0-1.1-2.2.788-3.395,3.465-2.229,3.552-6.884,3.552-6.884a3.261,3.261,0,0,1,4.978-3.316Z" transform="translate(-436.854 -358.878)" fill="#fd6141"/>
    </clipPath>
    <clipPath id="clip-path-4">
      <path id="Trazado_128857" data-name="Trazado 128857" d="M463.215,362.692a28.833,28.833,0,0,1,1.426,3.024c.142.6.047,4.576.047,4.576a3.15,3.15,0,0,1-2.449.606l-.788-2.607a10.954,10.954,0,0,1-2.473,3.379c-1.5,1.008-6.852,2.253-7.75,1.8,0,0-1.237-2.363.748-3.4,4.97-2.544,5.411-6.065,5.411-6.065a3.261,3.261,0,0,1,5.828-1.315Z" transform="translate(-450.847 -361.363)" fill="#fd6141"/>
    </clipPath>
  </defs>
  <g id="graficos12-12" transform="translate(0.022 0.005)" style="isolation: isolate">
    <g id="Layer_1" data-name="Layer 1" transform="translate(-0.022 0.48)">
      <rect id="Rectángulo_30684" data-name="Rectángulo 30684" width="323.395" height="178.576" rx="3.85" transform="translate(78.047 63.12)" fill="#764582"/>
      <rect id="Rectángulo_30685" data-name="Rectángulo 30685" width="323.395" height="178.576" rx="3.85" transform="translate(72.392 56.385)" fill="#9d68aa"/>
      <rect id="Rectángulo_30686" data-name="Rectángulo 30686" width="323.395" height="178.576" rx="2.12" transform="translate(66.736 49.643)" fill="#fff" stroke="#764582" stroke-miterlimit="10" stroke-width="0.97"/>
      <path id="Trazado_128713" data-name="Trazado 128713" d="M106.287,82.447H126.97V81.234H106.287Zm-4.867.606h2.434V80.62H101.42Zm4.867,6.088H126.97V87.921H106.287Zm-4.867.606h2.434V87.315H101.42Zm4.867,6.08H126.97V94.616H106.287Zm-4.867.606h2.434V94.009H101.42Z" transform="translate(-21.522 -17.5)" fill="#764582" fill-rule="evenodd"/>
      <rect id="Rectángulo_30687" data-name="Rectángulo 30687" width="91.844" height="89.04" rx="15.11" transform="translate(79.897 89.702)" fill="#fff" stroke="#764582" stroke-miterlimit="10" stroke-width="1.02"/>
      <rect id="Rectángulo_30688" data-name="Rectángulo 30688" width="91.844" height="89.04" rx="15.11" transform="translate(183.067 89.702)" fill="#fff" stroke="#764582" stroke-miterlimit="10" stroke-width="1.02"/>
      <rect id="Rectángulo_30689" data-name="Rectángulo 30689" width="91.844" height="89.04" rx="15.11" transform="translate(286.237 89.702)" fill="#fff" stroke="#764582" stroke-miterlimit="10" stroke-width="1.02"/>
      <path id="Trazado_128714" data-name="Trazado 128714" d="M450.147,88.926l-1.575-10.278a.567.567,0,0,0-.567-.5H445.24V76.86H448a1.851,1.851,0,0,1,1.827,1.575l.173,1.142,17.438.11L465.655,87.8Zm.087-8.018,1,6.695,13.389-.953,1.244-5.639Z" transform="translate(-94.544 -16.702)" fill="#764582"/>
      <path id="Trazado_128715" data-name="Trazado 128715" d="M467.148,94.4l-15.075-.087a1.158,1.158,0,0,1-.843-.394,1.111,1.111,0,0,1-.244-.89l.291-1.835,1.26.2-.26,1.638,14.878.087Z" transform="translate(-95.762 -19.745)" fill="#764582"/>
      <path id="Trazado_128716" data-name="Trazado 128716" d="M456.32,97.993a1.709,1.709,0,1,1-.492-1.224A1.725,1.725,0,0,1,456.32,97.993Z" transform="translate(-96.165 -20.822)" fill="none" stroke="#764582" stroke-miterlimit="10" stroke-width="1.26"/>
      <path id="Trazado_128717" data-name="Trazado 128717" d="M467.79,98.063a1.717,1.717,0,1,1-.495-1.222,1.725,1.725,0,0,1,.495,1.222Z" transform="translate(-98.601 -20.837)" fill="none" stroke="#764582" stroke-miterlimit="10" stroke-width="1.26"/>
      <line id="Línea_1582" data-name="Línea 1582" x2="92.285" transform="translate(182.626 184.901)" fill="#fff" stroke="#764582" stroke-linecap="round" stroke-linejoin="round" stroke-width="1.02"/>
      <path id="Trazado_128718" data-name="Trazado 128718" d="M317.845,185.484c0,1.26-15.075,2.276-33.663,2.276s-33.663-1.016-33.663-2.276,15.067-2.284,33.663-2.284S317.845,184.224,317.845,185.484Z" transform="translate(-53.189 -39.287)" fill="#a1abad" opacity="0.7" style="mix-blend-mode: multiply;isolation: isolate"/>
      <path id="Trazado_128719" data-name="Trazado 128719" d="M259.27,155.723s.669-1.7,6.561.536c3.2,1.213,7.364,4.143,15.477.606,0,0,2.465,8.2-7.876,7.482a17.194,17.194,0,0,1-14.161-8.624Z" transform="translate(-55.047 -33.32)" fill="#dd4026"/>
      <path id="Trazado_128720" data-name="Trazado 128720" d="M315.083,172.4l2.363.63c1.355.725,1.284,4.34.165,5.458,0,0-9.664,5.647-37.963,6.128-16.28-.315-27.157-3.1-27.661-4.206a14.491,14.491,0,0,1-.449-5.324l3.072-3.576Z" transform="translate(-53.396 -36.804)" fill="#e2e2e2"/>
      <path id="Trazado_128721" data-name="Trazado 128721" d="M258.065,154.231s-3.15,3.064-3.568,5.584c-.543,3.623-1.158,5.419-.788,9.073,0,0,9.176,3.576,24.463,3.757a157.948,157.948,0,0,0,26.3-1.78c6.742-1.205,13.389-2.812,13.389-2.812-1.945-6.813-7.837-4.285-16.233-6.947-5.71-1.8-19.3-13.027-19.3-13.027s-3.15,2.363-3.316,3.544c-.11.788,1.386,2.733,1.386,2.733s-.378,6.443-6.805,6.868C267.39,161.643,258.065,154.231,258.065,154.231Z" transform="translate(-53.842 -31.828)" fill="#c1507f"/>
      <path id="Trazado_128722" data-name="Trazado 128722" d="M317.5,173.44a36.947,36.947,0,0,1-12.484,4.875c-7.577,1.465-19.942,1.953-27.653,1.662-8.522-.323-25.771-4.482-25.771-4.482" transform="translate(-53.416 -37.214)" fill="none"/>
      <path id="Trazado_128723" data-name="Trazado 128723" d="M287.7,156.05a21.438,21.438,0,0,1,4.411.41c2.717.953,10.578,7.222,16.469,7.971" transform="translate(-61.085 -33.52)" fill="none" stroke="#efe9da" stroke-linecap="round" stroke-miterlimit="10" stroke-width="1.16"/>
      <path id="Trazado_128724" data-name="Trazado 128724" d="M298.912,155.323l-2.631,4.245c-.354.5-1.93-.63-1.575-1.134l2.434-4.474C297.668,153.283,299.432,154.646,298.912,155.323Z" transform="translate(-62.562 -33.038)" fill="#e2e2e2"/>
      <path id="Trazado_128725" data-name="Trazado 128725" d="M303.678,158.19l-2.765,4.5c-.331.788-2.1,0-1.764-.788l2.765-5.08C302.433,156.135,304.205,157.513,303.678,158.19Z" transform="translate(-63.508 -33.644)" fill="#e2e2e2"/>
      <path id="Trazado_128726" data-name="Trazado 128726" d="M308.53,161.056l-2.8,4.521c-.3.638-2.024-.165-1.733-.788l2.765-5.072C307.285,159.008,309.058,160.378,308.53,161.056Z" transform="translate(-64.54 -34.257)" fill="#e2e2e2"/>
      <path id="Trazado_128727" data-name="Trazado 128727" d="M289.93,158.461a1,1,0,1,1,2,.079l-.788,7.537c0,1.087-1.142,1.087-1.142,0Z" transform="translate(-61.559 -33.828)" fill="#e2e2e2"/>
      <path id="Trazado_128728" data-name="Trazado 128728" d="M281.08,176.67a8.278,8.278,0,0,1,4.143-4.875c3.615-1.709,12.2,1.512,16.957-1.126a49.818,49.818,0,0,0,4.994-3.938" transform="translate(-59.679 -35.789)" fill="none" stroke="#efe9da" stroke-linecap="round" stroke-miterlimit="10" stroke-width="1.16"/>
      <path id="Trazado_128729" data-name="Trazado 128729" d="M255.8,160.45s5.1,2.284,7.459,5.293c1.071,1.355,2.56,8.664,2.56,8.664" transform="translate(-54.31 -34.455)" fill="none" stroke="#efe9da" stroke-linecap="round" stroke-miterlimit="10" stroke-width="1.16"/>
      <path id="Trazado_128730" data-name="Trazado 128730" d="M183.585,185.484c0,1.26-15.075,2.276-33.663,2.276s-33.663-1.016-33.663-2.276,15.067-2.284,33.663-2.284S183.585,184.224,183.585,185.484Z" transform="translate(-24.674 -39.287)" fill="#a1abad" opacity="0.7" style="mix-blend-mode: multiply;isolation: isolate"/>
      <path id="Trazado_128731" data-name="Trazado 128731" d="M125,155.723s.677-1.7,6.569.536c3.2,1.213,7.364,4.143,15.469.606,0,0,2.473,8.2-7.876,7.482A17.194,17.194,0,0,1,125,155.723Z" transform="translate(-26.53 -33.32)" fill="#dd4026"/>
      <path id="Trazado_128732" data-name="Trazado 128732" d="M180.793,172.4l2.363.63c1.355.725,1.284,4.34.165,5.458,0,0-9.664,5.647-37.963,6.128-16.28-.315-27.157-3.1-27.661-4.206a14.492,14.492,0,0,1-.449-5.324l3.064-3.576Z" transform="translate(-24.875 -36.804)" fill="#e2e2e2"/>
      <path id="Trazado_128733" data-name="Trazado 128733" d="M123.8,154.231s-3.15,3.064-3.568,5.584c-.543,3.623-1.15,5.419-.788,9.073,0,0,9.184,3.576,24.471,3.757a158.06,158.06,0,0,0,26.3-1.78c6.742-1.205,13.389-2.812,13.389-2.812-1.953-6.813-7.837-4.285-16.233-6.947-5.71-1.8-19.3-13.027-19.3-13.027s-3.15,2.363-3.324,3.544c-.1.788,1.394,2.733,1.394,2.733s-.378,6.443-6.8,6.868C133.106,161.643,123.8,154.231,123.8,154.231Z" transform="translate(-25.326 -31.828)" fill="#b89841"/>
      <path id="Trazado_128734" data-name="Trazado 128734" d="M183.228,173.44a36.948,36.948,0,0,1-12.492,4.875c-7.569,1.465-19.942,1.953-27.653,1.662-8.514-.323-25.763-4.482-25.763-4.482" transform="translate(-24.899 -37.214)" fill="none"/>
      <path id="Trazado_128735" data-name="Trazado 128735" d="M153.41,156.05a21.486,21.486,0,0,1,4.411.41c2.717.953,10.578,7.222,16.469,7.971" transform="translate(-32.564 -33.52)" fill="none" stroke="#efe9da" stroke-miterlimit="10" stroke-width="1.16"/>
      <path id="Trazado_128736" data-name="Trazado 128736" d="M164.614,155.323l-2.623,4.245c-.362.5-1.93-.63-1.575-1.134l2.434-4.474C163.377,153.283,165.142,154.646,164.614,155.323Z" transform="translate(-34.041 -33.038)" fill="#e2e2e2"/>
      <path id="Trazado_128737" data-name="Trazado 128737" d="M169.387,158.19l-2.765,4.5c-.339.788-2.1,0-1.764-.788l2.757-5.08C168.111,156.135,169.907,157.513,169.387,158.19Z" transform="translate(-34.987 -33.644)" fill="#e2e2e2"/>
      <path id="Trazado_128738" data-name="Trazado 128738" d="M174.239,161.056l-2.8,4.521c-.3.638-2.032-.165-1.733-.788l2.757-5.072C173,159.008,174.759,160.378,174.239,161.056Z" transform="translate(-36.019 -34.257)" fill="#e2e2e2"/>
      <path id="Trazado_128739" data-name="Trazado 128739" d="M155.63,158.48a1.008,1.008,0,0,1,2.008.079l-.788,7.538c0,1.087-1.142,1.087-1.142,0Z" transform="translate(-33.036 -33.848)" fill="#e2e2e2"/>
      <path id="Trazado_128740" data-name="Trazado 128740" d="M146.79,176.67a8.278,8.278,0,0,1,4.143-4.875c3.615-1.709,12.2,1.512,16.95-1.126a50.139,50.139,0,0,0,5-3.938" transform="translate(-31.158 -35.789)" fill="none" stroke="#efe9da" stroke-miterlimit="10" stroke-width="1.16"/>
      <path id="Trazado_128741" data-name="Trazado 128741" d="M121.51,160.45s5.088,2.284,7.459,5.293c1.071,1.355,2.552,8.664,2.552,8.664" transform="translate(-25.789 -34.455)" fill="none" stroke="#efe9da" stroke-miterlimit="10" stroke-width="1.16"/>
      <path id="Trazado_128742" data-name="Trazado 128742" d="M446.025,185.484c0,1.26-15.067,2.276-33.663,2.276s-33.663-1.016-33.663-2.276,15.075-2.284,33.663-2.284S446.025,184.224,446.025,185.484Z" transform="translate(-80.412 -39.287)" fill="#a1abad" opacity="0.7" style="mix-blend-mode: multiply;isolation: isolate"/>
      <path id="Trazado_128743" data-name="Trazado 128743" d="M387.42,155.723s.669-1.7,6.569.536c3.2,1.213,7.356,4.143,15.469.606,0,0,2.465,8.2-7.876,7.482A17.194,17.194,0,0,1,387.42,155.723Z" transform="translate(-82.264 -33.32)" fill="#3c8460"/>
      <path id="Trazado_128744" data-name="Trazado 128744" d="M443.234,172.4l2.363.63c1.363.725,1.292,4.34.165,5.458,0,0-9.664,5.647-37.963,6.128-16.28-.315-27.157-3.1-27.661-4.206s-.543-3.576-.449-5.324l3.072-3.576Z" transform="translate(-80.614 -36.804)" fill="#e2e2e2"/>
      <path id="Trazado_128745" data-name="Trazado 128745" d="M386.215,154.231s-3.19,3.064-3.568,5.584c-.543,3.623-1.158,5.419-.788,9.073,0,0,9.176,3.576,24.471,3.757a158.06,158.06,0,0,0,26.3-1.78c6.742-1.205,13.389-2.812,13.389-2.812-1.945-6.813-7.837-4.285-16.233-6.947-5.7-1.8-19.3-13.027-19.3-13.027s-3.15,2.363-3.324,3.544c-.11.788,1.386,2.733,1.386,2.733s-.378,6.443-6.805,6.868C395.54,161.643,386.215,154.231,386.215,154.231Z" transform="translate(-81.059 -31.828)" fill="#8ec8c8"/>
      <path id="Trazado_128746" data-name="Trazado 128746" d="M445.648,173.44a36.947,36.947,0,0,1-12.484,4.875c-7.577,1.465-19.942,1.953-27.653,1.662-8.522-.323-25.771-4.482-25.771-4.482" transform="translate(-80.633 -37.214)" fill="none"/>
      <path id="Trazado_128747" data-name="Trazado 128747" d="M415.85,156.05a21.548,21.548,0,0,1,4.419.41c2.709.953,10.578,7.222,16.461,7.971" transform="translate(-88.302 -33.52)" fill="none" stroke="#efe9da" stroke-miterlimit="10" stroke-width="1.16"/>
      <path id="Trazado_128748" data-name="Trazado 128748" d="M427.063,155.322l-2.623,4.245c-.362.5-1.938-.63-1.575-1.134l2.457-4.482C425.819,153.282,427.591,154.645,427.063,155.322Z" transform="translate(-89.781 -33.037)" fill="#e2e2e2"/>
      <path id="Trazado_128749" data-name="Trazado 128749" d="M431.828,158.19l-2.757,4.5c-.339.788-2.1,0-1.772-.788l2.765-5.08C430.583,156.135,432.355,157.513,431.828,158.19Z" transform="translate(-90.725 -33.644)" fill="#e2e2e2"/>
      <path id="Trazado_128750" data-name="Trazado 128750" d="M436.682,161.056l-2.8,4.521c-.291.638-2.024-.165-1.725-.788l2.757-5.072C435.445,159.008,437.209,160.378,436.682,161.056Z" transform="translate(-91.759 -34.257)" fill="#e2e2e2"/>
      <path id="Trazado_128751" data-name="Trazado 128751" d="M418.08,158.461a1,1,0,1,1,2,.079l-.788,7.537c0,1.087-1.142,1.087-1.142,0Z" transform="translate(-88.776 -33.828)" fill="#e2e2e2"/>
      <path id="Trazado_128752" data-name="Trazado 128752" d="M409.23,176.67a8.278,8.278,0,0,1,4.143-4.875c3.615-1.709,12.2,1.512,16.957-1.126a49.811,49.811,0,0,0,4.994-3.938" transform="translate(-86.896 -35.789)" fill="none" stroke="#efe9da" stroke-miterlimit="10" stroke-width="1.16"/>
      <path id="Trazado_128753" data-name="Trazado 128753" d="M384,160.45s5.1,2.284,7.467,5.293c1.063,1.355,2.552,8.664,2.552,8.664" transform="translate(-81.538 -34.455)" fill="none" stroke="#efe9da" stroke-miterlimit="10" stroke-width="1.16"/>
      <path id="Trazado_128754" data-name="Trazado 128754" d="M243.981,134.968v.1c0,.528-.134.748-.433.748h-2.922c-.3,0-.425-.221-.425-.748v-.1c0-.52.126-.788.425-.788h2.922C243.87,134.219,243.981,134.448,243.981,134.968Z" transform="translate(-50.997 -28.876)" fill="#764582"/>
      <path id="Trazado_128755" data-name="Trazado 128755" d="M252.473,129.325c0,2.079-1.142,2.512-2.142,2.512s-2.15-.433-2.15-2.512,1.142-2.5,2.15-2.5S252.473,127.285,252.473,129.325Zm-2.835,0c0,.583.134,1.284.693,1.284s.669-.7.669-1.284-.118-1.221-.669-1.221-.717.669-.717,1.221Zm6.837-2.213a.552.552,0,0,1-.079.213L251.283,137a.662.662,0,0,1-.63.417h-.63c-.2,0-.3-.095-.3-.2a.639.639,0,0,1,.071-.221l5.112-9.68a.677.677,0,0,1,.63-.417h.63c.2.055.307.118.307.236Zm1.575,7.876c0,2.071-1.15,2.5-2.15,2.5s-2.15-.433-2.15-2.5,1.15-2.513,2.15-2.513,2.119.48,2.119,2.56Zm-2.835,0c0,.583.126,1.284.685,1.284s.677-.7.677-1.284-.118-1.229-.677-1.229-.717.693-.717,1.276Z" transform="translate(-52.692 -27.313)" fill="#764582"/>
      <path id="Trazado_128756" data-name="Trazado 128756" d="M321.21,197.044v.985c1.4,0,3.891.591,3.891,1.4,0,.37-.543,1.307-.788,1.307a8.294,8.294,0,0,0-3.1-.937v5.734c2.19.788,4.726,1.678,4.726,5.072,0,2.812-1.827,4.584-4.726,4.828v1.229c0,.276-.15.394-.5.394s-.488-.118-.488-.394v-1.205c-2.788-.071-4.875-1.134-4.875-1.8,0-.394.591-1.331.858-1.331a8.658,8.658,0,0,0,4.017,1.355v-6.348c-2.166-.843-4.56-1.7-4.56-4.875,0-2.418,1.772-4.088,4.56-4.387v-1.032c0-.276.142-.394.488-.394S321.21,196.768,321.21,197.044Zm-3.3,5.513c0,1.4,1.008,2.071,2.316,2.607v-5.293a2.544,2.544,0,0,0-2.316,2.686Zm3.3,11.027a2.93,2.93,0,0,0,2.457-3.009c0-1.575-1.1-2.284-2.457-2.875Z" transform="translate(-66.958 -42.143)" fill="#fd6141"/>
      <rect id="Rectángulo_30690" data-name="Rectángulo 30690" width="47.312" height="8.53" rx="3.93" transform="translate(199.82 165.588)" fill="#fd6141"/>
      <rect id="Rectángulo_30691" data-name="Rectángulo 30691" width="353.53" height="29.008" rx="13.38" transform="translate(71.068 5.025)" fill="#e4bce8"/>
      <circle id="Elipse_4315" data-name="Elipse 4315" cx="14.508" cy="14.508" r="14.508" transform="translate(3.444 5.017)" fill="#e4bce8"/>
      <circle id="Elipse_4316" data-name="Elipse 4316" cx="14.508" cy="14.508" r="14.508" transform="translate(37.248 5.017)" fill="#e4bce8"/>
      <rect id="Rectángulo_30692" data-name="Rectángulo 30692" width="353.53" height="29.008" rx="13.38" transform="translate(71.068 0.008)" fill="#fff" stroke="#764582" stroke-miterlimit="10" stroke-width="0.97"/>
      <path id="Trazado_128757" data-name="Trazado 128757" d="M197.443,12.007v.536c1.284.047,2.52.528,2.52,1.016,0,.362-.433,1.189-.732,1.189a5.592,5.592,0,0,0-1.788-.473v2.883c1.363.551,3.009,1.189,3.009,3.292a3.15,3.15,0,0,1-3.009,3.363v.7c0,.284-.126.394-.386.394s-.425-.11-.425-.394v-.709c-2.04-.063-3.292-.788-3.292-1.3s.551-1.221.788-1.221a6.561,6.561,0,0,0,2.473.788v-3.15c-1.394-.52-3.072-1.126-3.072-3.308a3.077,3.077,0,0,1,3.072-3.08v-.551c0-.284.126-.394.394-.394A.394.394,0,0,1,197.443,12.007Zm-1.875,3.513c0,.622.449.985,1.063,1.284V14.355a1.174,1.174,0,0,0-1.063,1.166Zm1.875,6.451a1.331,1.331,0,0,0,1.008-1.331,1.489,1.489,0,0,0-1.008-1.331Z" transform="translate(-41.045 -2.84)" fill="#a1abad"/>
      <path id="Trazado_128758" data-name="Trazado 128758" d="M207.477,21.387v.126c0,.48-.134.669-.417.669h-3.15c-.284,0-.41-.189-.41-.669v-.126c0-.473.126-.677.41-.677h3.15C207.344,20.71,207.477,20.938,207.477,21.387Z" transform="translate(-43.203 -4.777)" fill="#a1abad"/>
      <path id="Trazado_128759" data-name="Trazado 128759" d="M214.868,15.391c0,2.174-1.252,2.631-2.316,2.631s-2.292-.457-2.292-2.631,1.213-2.631,2.292-2.631S214.868,13.225,214.868,15.391Zm-3.2,0c0,.669.126,1.489.882,1.489s.906-.788.906-1.489-.11-1.457-.906-1.457S211.67,14.729,211.67,15.391Zm7.585-2.363a.457.457,0,0,1-.079.2l-5.75,10.42a.7.7,0,0,1-.669.4h-.473c-.221,0-.347-.079-.347-.2a.481.481,0,0,1,.079-.2l5.734-10.42a.709.709,0,0,1,.685-.386h.473c.221-.016.347.063.347.173Zm1.662,8.435c0,2.182-1.244,2.631-2.308,2.631s-2.3-.449-2.3-2.631,1.221-2.631,2.3-2.631,2.308.417,2.308,2.615Zm-3.2,0c0,.662.126,1.489.89,1.489s.9-.843.9-1.5-.11-1.457-.9-1.457-.89.835-.89,1.457Z" transform="translate(-44.638 -3.088)" fill="#a1abad"/>
      <path id="Trazado_128760" data-name="Trazado 128760" d="M170.962,24.939H142.513a6.655,6.655,0,0,1-6.663-6.655h0a6.655,6.655,0,0,1,6.663-6.663h28.449a6.663,6.663,0,0,1,6.663,6.663h0a6.655,6.655,0,0,1-6.663,6.655Z" transform="translate(-28.835 -2.846)" fill="#a1abad"/>
      <circle id="Elipse_4317" data-name="Elipse 4317" cx="14.508" cy="14.508" r="14.508" transform="translate(3.444)" fill="#fff" stroke="#764582" stroke-miterlimit="10" stroke-width="0.97"/>
      <circle id="Elipse_4318" data-name="Elipse 4318" cx="14.508" cy="14.508" r="14.508" transform="translate(37.248)" fill="#fff" stroke="#764582" stroke-miterlimit="10" stroke-width="0.97"/>
      <path id="Trazado_128761" data-name="Trazado 128761" d="M22.574,7.68,13.39,16.769l9.184,9.27,1.749-1.749-7.435-7.522,7.435-7.341Z" transform="translate(-2.826 -2.009)" fill="#764582"/>
      <path id="Trazado_128762" data-name="Trazado 128762" d="M63.559,26.039l9.176-9.1L63.559,7.68,61.81,9.429l7.427,7.514L61.81,24.291Z" transform="translate(-13.11 -2.009)" fill="#764582"/>
      <path id="Trazado_128763" data-name="Trazado 128763" d="M122.7,24.761l-5.852-5.781a7.5,7.5,0,0,0,1.26-4.151A7.671,7.671,0,0,0,110.46,7.26a7.758,7.758,0,0,0-5.387,2.2,7.451,7.451,0,0,0-2.213,5.324,7.663,7.663,0,0,0,7.648,7.569h0a7.648,7.648,0,0,0,4.19-1.26l5.844,5.781Zm-6.876-9.932a5.23,5.23,0,0,1-1.575,3.725,5.387,5.387,0,0,1-3.757,1.536h0a5.372,5.372,0,0,1-5.364-5.309,5.2,5.2,0,0,1,1.575-3.718,5.372,5.372,0,0,1,9.144,3.765Z" transform="translate(-21.828 -1.92)" fill="#764582"/>
      <path id="Trazado_128764" data-name="Trazado 128764" d="M511.609,16.446l-3.253,3.308a1.016,1.016,0,0,0,0,1.418.992.992,0,0,0,1.41,0l3.292-3.308,3.284,3.308a1,1,0,1,0,1.41-1.418l-3.284-3.308,3.284-3.308a1,1,0,1,0-1.41-1.41l-3.284,3.3-3.292-3.3a1,1,0,0,0-1.41,1.41Zm1.41,10.7a10.7,10.7,0,1,1,10.633-10.7A10.7,10.7,0,0,1,513.019,27.142Z" transform="translate(-106.654 -1.599)" fill="#9d68aa" fill-rule="evenodd"/>
      <path id="Trazado_128765" data-name="Trazado 128765" d="M39.258,99.3a19.625,19.625,0,1,0-39.251,0H0c0,4.505-1.347,7.459,19.627,45.107C40.7,106.583,39.242,101.621,39.258,99.3Z" transform="translate(0.022 -17.299)" fill="#26aab7"/>
      <path id="Trazado_128766" data-name="Trazado 128766" d="M22.6,111.518a8.664,8.664,0,1,1,8.664-8.664,8.664,8.664,0,0,1-8.664,8.664Z" transform="translate(-2.943 -20.382)" fill="#fff"/>
      <path id="Trazado_128767" data-name="Trazado 128767" d="M241.519,353.485a6.955,6.955,0,1,1-6.955-6.955,6.955,6.955,0,0,1,6.955,6.955Z" transform="translate(-48.323 -73.975)" fill="#764582"/>
      <circle id="Elipse_4319" data-name="Elipse 4319" cx="4.182" cy="4.182" r="4.182" transform="translate(182.059 275.327)" fill="#3e2344"/>
      <path id="Trazado_128768" data-name="Trazado 128768" d="M232.96,352.55l2.363-6.3a.858.858,0,0,1,.788-.559H244.4a.866.866,0,0,1,.638,1.457l-7.467,8.057a2.363,2.363,0,0,1-2.449.638l-.74-.244a2.363,2.363,0,0,1-1.426-3.048Z" transform="translate(-49.428 -73.797)" fill="#ffdcae"/>
      <circle id="Elipse_4320" data-name="Elipse 4320" cx="1.599" cy="1.599" r="1.599" transform="translate(184.643 277.91)" fill="#764582"/>
      <path id="Trazado_128769" data-name="Trazado 128769" d="M296.41,353.485a6.955,6.955,0,1,0,6.955-6.955,6.955,6.955,0,0,0-6.955,6.955Z" transform="translate(-62.935 -73.975)" fill="#764582"/>
      <path id="Trazado_128770" data-name="Trazado 128770" d="M299.93,354.232a4.182,4.182,0,1,0,4.182-4.182A4.182,4.182,0,0,0,299.93,354.232Z" transform="translate(-63.683 -74.723)" fill="#3e2344"/>
      <path id="Trazado_128771" data-name="Trazado 128771" d="M305.4,352.55l-2.363-6.3a.858.858,0,0,0-.788-.559h-8.341a.866.866,0,0,0-.63,1.457l7.467,8.057a2.363,2.363,0,0,0,2.442.638l.748-.244a2.363,2.363,0,0,0,1.465-3.048Z" transform="translate(-62.22 -73.797)" fill="#ffdcae"/>
      <circle id="Elipse_4321" data-name="Elipse 4321" cx="1.599" cy="1.599" r="1.599" transform="translate(238.831 277.91)" fill="#764582"/>
      <path id="Trazado_128772" data-name="Trazado 128772" d="M206.655,265.74a1.048,1.048,0,0,1-.953-.622c-2.363-5.458-6.3-14.35-6.986-15.461-1.055-.788-8.987-3.591-16.178-5.923a1.032,1.032,0,0,1,0-1.961l12.814-4.143a1.158,1.158,0,0,1,.591,0c1.221.339,12,3.324,14.319,5.513,1.843,1.709,7.278,13.043,8.349,15.3a1.032,1.032,0,0,1-1.867.882c-2.41-5.08-6.687-13.555-7.876-14.673-1.433-1.331-8.711-3.678-13.169-4.915l-9.451,3.072c6.6,2.19,13.389,4.639,14.177,5.608.858,1.142,6.2,13.476,7.262,15.933a1.016,1.016,0,0,1-.536,1.355.922.922,0,0,1-.5.039Z" transform="translate(-38.6 -50.839)" fill="#7d6eb2"/>
      <path id="Trazado_128773" data-name="Trazado 128773" d="M209.8,264.755l11.625-7.215,89.678,4.387,2.056,5.624Z" transform="translate(-44.541 -55.075)" fill="#fff" stroke="#7d6eb2" stroke-linecap="round" stroke-linejoin="round" stroke-width="1.85"/>
      <path id="Trazado_128774" data-name="Trazado 128774" d="M208.72,266.94l13.61,44.76a3.15,3.15,0,0,0,3.064,2.2l75.068-2.323a3.087,3.087,0,0,0,2.914-2.363l9.53-39.664Z" transform="translate(-44.311 -57.072)" fill="#7d6eb2"/>
      <path id="Trazado_128775" data-name="Trazado 128775" d="M301.952,348.394a29.481,29.481,0,0,0-4.174-9.192c-.709-.961-1.875-2.064-4.6-2.064H231.019c-.977,0-2.733-.165-3.473-1.252s-.3-2.631.158-3.8a71.929,71.929,0,0,1,3.489-7.7l-2.434.2a57.851,57.851,0,0,0-2.969,6.75c-.929,2.363-.906,4.293.055,5.71s2.749,2.15,5.175,2.15h3.332V340.6a1.575,1.575,0,0,0,1.575,1.575h1.189a1.575,1.575,0,0,0,1.575-1.575V339.2h41.1V340.6a1.575,1.575,0,0,0,1.575,1.575h1.189a1.575,1.575,0,0,0,1.575-1.575V339.2h9.081c1.875,0,2.5.63,2.938,1.229a27.251,27.251,0,0,1,3.836,8.467,1.9,1.9,0,0,1-.15,1.646,3.43,3.43,0,0,1-2.41.835c-14.4.323-45.461.15-62.151.055-4.962,0-8.719-.055-10.507-.055-2.536,0-4.419-.725-5.309-2.032s-.788-3.15.071-5.379c1.993-4.954,7.829-19.69,7.829-19.69l-1.914-.788s-5.836,14.736-7.821,19.69c-1.481,3.678-.748,6,.134,7.293,1.284,1.9,3.773,2.946,7.01,2.946h5.86v1.347a1.575,1.575,0,0,0,1.575,1.575h1.189a1.575,1.575,0,0,0,1.575-1.575v-.945l.307-.315c9.507.055,23.684.142,36.8.142h10.318v1.205a1.575,1.575,0,0,0,1.575,1.575h1.189a1.575,1.575,0,0,0,1.575-1.575v-1.268c4.119,0,7.805-.071,10.775-.142a5.1,5.1,0,0,0,4-1.646,3.851,3.851,0,0,0,.449-3.4Z" transform="translate(-46.022 -69.082)" fill="#7d6eb2"/>
      <path id="Trazado_128776" data-name="Trazado 128776" d="M310.46,268.5l-9.3,38.373a2.418,2.418,0,0,1-2.276,1.851L263.826,309.8q4.088-4.395,8.1-8.869c.2-.221.26-.488.134-.614s-.4-.063-.622.165q-4.324,4.466-8.585,9h0a1.284,1.284,0,0,0-.22.347l-30.938.961q4.324-4.678,8.593-9.412c.2-.228.276-.512.15-.638s-.41-.055-.638.181q-4.521,4.726-8.987,9.451h0a1.182,1.182,0,0,0-.276.457l-2.8.087a2.426,2.426,0,0,1-2.363-1.717l-6.214-20.368q2.363-2.6,4.726-5.253a.339.339,0,0,0,0-.457.331.331,0,0,0-.465,0q-2.3,2.316-4.545,4.726l-6.632-21.88-.985.3,13.122,43.264a3.45,3.45,0,0,0,3.3,2.449h.11l71.153-2.2a3.466,3.466,0,0,0,3.245-2.646l9.31-38.365Z" transform="translate(-44.851 -56.866)" fill="#fff"/>
      <path id="Trazado_128777" data-name="Trazado 128777" d="M228.158,286.71a3.94,3.94,0,0,0,.725-.622,4.62,4.62,0,0,0,.575-.788.4.4,0,0,0,0-.378.378.378,0,0,0-.52-.118,3.882,3.882,0,0,0-.725.622,3.94,3.94,0,0,0-.567.788.346.346,0,0,0,0,.37.37.37,0,0,0,.512.126Z" transform="translate(-48.319 -60.854)" fill="#fff"/>
      <path id="Trazado_128778" data-name="Trazado 128778" d="M230.6,284.406a.386.386,0,0,0,.252-.126.41.41,0,0,0,.1-.252h0a.52.52,0,0,0-.536-.488.473.473,0,0,0-.252.118.456.456,0,0,0-.1.26h0a.512.512,0,0,0,.536.488Z" transform="translate(-48.844 -60.597)" fill="#fff"/>
      <path id="Trazado_128779" data-name="Trazado 128779" d="M241.489,270.977q3.15-3.19,6.206-6.458h0a.473.473,0,0,0,0-.654.48.48,0,0,0-.662,0q-3.032,3.292-6,6.647a.331.331,0,0,0,.48.449Z" transform="translate(-51.16 -56.39)" fill="#fff"/>
      <path id="Trazado_128780" data-name="Trazado 128780" d="M240.116,274.226a.346.346,0,0,0,.252-.118.417.417,0,0,0,.1-.26h0a.52.52,0,0,0-.536-.488.417.417,0,0,0-.252.118.433.433,0,0,0-.1.26h0a.5.5,0,0,0,.536.488Z" transform="translate(-50.865 -58.435)" fill="#fff"/>
      <path id="Trazado_128781" data-name="Trazado 128781" d="M238.676,275.766a.378.378,0,0,0,.252-.118.37.37,0,0,0,.095-.26h0a.512.512,0,0,0-.528-.488.378.378,0,0,0-.252.118.355.355,0,0,0-.1.26h0a.512.512,0,0,0,.536.488Z" transform="translate(-50.56 -58.762)" fill="#fff"/>
      <path id="Trazado_128782" data-name="Trazado 128782" d="M237.226,277.336a.425.425,0,0,0,.252-.126.409.409,0,0,0,.1-.252h0a.528.528,0,0,0-.536-.488.472.472,0,0,0-.252.118.433.433,0,0,0-.1.26h0a.52.52,0,0,0,.536.488Z" transform="translate(-50.252 -59.096)" fill="#fff"/>
      <path id="Trazado_128783" data-name="Trazado 128783" d="M232.249,281.913a20.231,20.231,0,0,0,1.5-1.465,17.5,17.5,0,0,0,1.355-1.575.361.361,0,0,0-.52-.5,20.116,20.116,0,0,0-1.5,1.457,17.6,17.6,0,0,0-1.355,1.575.37.37,0,0,0,0,.449.378.378,0,0,0,.52.055Z" transform="translate(-49.182 -59.483)" fill="#fff"/>
      <path id="Trazado_128784" data-name="Trazado 128784" d="M249.114,308.128c.079.2.378.189.662-.039a11.811,11.811,0,0,0,1.244-1.181,13.723,13.723,0,0,0,1.1-1.331.622.622,0,0,0,.126-.528c-.079-.213-.378-.2-.662,0a12.729,12.729,0,0,0-1.244,1.189,13.635,13.635,0,0,0-1.1,1.323A.63.63,0,0,0,249.114,308.128Z" transform="translate(-52.886 -65.133)" fill="#fff"/>
      <path id="Trazado_128785" data-name="Trazado 128785" d="M254.21,303.926a1.079,1.079,0,0,0,.394-.276,1.111,1.111,0,0,0,.244-.409h0c.095-.394-.15-.606-.536-.48a1.166,1.166,0,0,0-.394.268,1.221,1.221,0,0,0-.244.417h0C253.58,303.839,253.816,304.052,254.21,303.926Z" transform="translate(-53.854 -64.672)" fill="#fff"/>
      <path id="Trazado_128786" data-name="Trazado 128786" d="M273.9,279.628q5.616-5.852,11.153-11.767h0c.307-.339.41-.748.221-.922s-.6-.047-.914.291q-5.513,5.947-10.956,11.948c-.213.236-.284.52-.158.646S273.668,279.864,273.9,279.628Z" transform="translate(-58.002 -57.055)" fill="#fff"/>
      <path id="Trazado_128787" data-name="Trazado 128787" d="M271.429,285.5a1.182,1.182,0,0,0,.394-.276,1.111,1.111,0,0,0,.244-.41h0c.087-.394-.15-.606-.543-.473a1.165,1.165,0,0,0-.394.268,1.181,1.181,0,0,0-.244.41h0C270.8,285.4,271.043,285.639,271.429,285.5Z" transform="translate(-57.51 -60.759)" fill="#fff"/>
      <path id="Trazado_128788" data-name="Trazado 128788" d="M268.845,288.3a1.1,1.1,0,0,0,.638-.677h0c.087-.394-.15-.606-.543-.48a1.079,1.079,0,0,0-.394.276,1.11,1.11,0,0,0-.244.41h0C268.184,288.211,268.428,288.432,268.845,288.3Z" transform="translate(-56.959 -61.354)" fill="#fff"/>
      <path id="Trazado_128789" data-name="Trazado 128789" d="M266.19,291.106a1.024,1.024,0,0,0,.394-.268,1.008,1.008,0,0,0,.244-.417h0c.087-.394-.15-.606-.536-.48a1.048,1.048,0,0,0-.4.276,1,1,0,0,0-.236.41h0C265.56,291.019,265.8,291.232,266.19,291.106Z" transform="translate(-56.399 -61.949)" fill="#fff"/>
      <path id="Trazado_128790" data-name="Trazado 128790" d="M257.16,299.378c.922-.866,1.788-1.788,2.654-2.7s1.709-1.859,2.512-2.843a.614.614,0,0,0,.158-.638c-.118-.165-.433-.1-.693.142-.921.866-1.788,1.788-2.662,2.7s-1.709,1.859-2.5,2.843c-.189.228-.26.488-.158.638S256.877,299.622,257.16,299.378Z" transform="translate(-54.442 -62.628)" fill="#fff"/>
      <path id="Trazado_128791" data-name="Trazado 128791" d="M289.879,307.654a13.861,13.861,0,0,0,2.237-2.4.575.575,0,0,0,.11-.512c-.079-.2-.37-.2-.646,0a13.49,13.49,0,0,0-1.2,1.126,11.652,11.652,0,0,0-1.04,1.276.575.575,0,0,0-.118.512C289.312,307.874,289.6,307.866,289.879,307.654Z" transform="translate(-61.406 -65.068)" fill="#fff"/>
      <path id="Trazado_128792" data-name="Trazado 128792" d="M294.1,303.686a.945.945,0,0,0,.386-.252,1.078,1.078,0,0,0,.228-.394h0c.087-.386-.158-.6-.536-.488a1.008,1.008,0,0,0-.378.26.977.977,0,0,0-.228.394h0C293.489,303.568,293.733,303.781,294.1,303.686Z" transform="translate(-62.329 -64.629)" fill="#fff"/>
      <path id="Trazado_128793" data-name="Trazado 128793" d="M312.9,280.455q5.364-5.576,10.656-11.231h0c.3-.323.386-.725.2-.906s-.591-.055-.89.268q-5.253,5.671-10.46,11.42c-.2.221-.26.5-.134.622S312.69,280.652,312.9,280.455Z" transform="translate(-66.29 -57.347)" fill="#fff"/>
      <path id="Trazado_128794" data-name="Trazado 128794" d="M310.549,286.066a1.009,1.009,0,0,0,.378-.26.976.976,0,0,0,.228-.394h0c.079-.378-.158-.591-.536-.48a1.038,1.038,0,0,0-.386.26,1.078,1.078,0,0,0-.228.394h0C309.927,285.964,310.171,286.177,310.549,286.066Z" transform="translate(-65.82 -60.887)" fill="#fff"/>
      <path id="Trazado_128795" data-name="Trazado 128795" d="M308.049,288.745a1.009,1.009,0,0,0,.378-.26.977.977,0,0,0,.228-.394h0c.079-.386-.165-.6-.536-.48a.945.945,0,0,0-.386.252,1.056,1.056,0,0,0-.228.4h0C307.427,288.643,307.671,288.856,308.049,288.745Z" transform="translate(-65.289 -61.455)" fill="#fff"/>
      <path id="Trazado_128796" data-name="Trazado 128796" d="M305.549,291.425a1.008,1.008,0,0,0,.378-.26.976.976,0,0,0,.228-.394h0c.079-.386-.165-.6-.536-.48a1.032,1.032,0,0,0-.386.252,1.056,1.056,0,0,0-.228.4h0C304.927,291.323,305.171,291.544,305.549,291.425Z" transform="translate(-64.758 -62.024)" fill="#fff"/>
      <path id="Trazado_128797" data-name="Trazado 128797" d="M296.928,299.323c.882-.788,1.709-1.7,2.544-2.576a34.948,34.948,0,0,0,2.363-2.717c.181-.221.244-.473.142-.614s-.417-.118-.669.118c-.89.827-1.717,1.7-2.544,2.576s-1.63,1.78-2.363,2.717c-.173.221-.236.473-.134.614S296.676,299.56,296.928,299.323Z" transform="translate(-62.894 -62.676)" fill="#fff"/>
      <circle id="Elipse_4322" data-name="Elipse 4322" cx="8.168" cy="8.168" r="8.168" transform="translate(173.427 286.968)" fill="#764582"/>
      <path id="Trazado_128798" data-name="Trazado 128798" d="M234.129,373.877a4.915,4.915,0,1,1-4.915-4.907A4.915,4.915,0,0,1,234.129,373.877Z" transform="translate(-47.62 -78.741)" fill="#3e2344"/>
      <path id="Trazado_128799" data-name="Trazado 128799" d="M226.393,371.9l2.8-7.388a1.024,1.024,0,0,1,.953-.662h9.751a1.024,1.024,0,0,1,.74,1.717l-8.774,9.451a2.757,2.757,0,0,1-2.875.748l-.874-.291a2.749,2.749,0,0,1-1.717-3.576Z" transform="translate(-48.028 -77.654)" fill="#ffdcae"/>
      <path id="Trazado_128800" data-name="Trazado 128800" d="M231.915,374.692a1.882,1.882,0,1,1-1.882-1.882A1.882,1.882,0,0,1,231.915,374.692Z" transform="translate(-48.438 -79.557)" fill="#764582"/>
      <circle id="Elipse_4323" data-name="Elipse 4323" cx="8.168" cy="8.168" r="8.168" transform="translate(235.846 286.968)" fill="#764582"/>
      <path id="Trazado_128801" data-name="Trazado 128801" d="M303.55,373.877a4.915,4.915,0,1,0,4.915-4.907A4.915,4.915,0,0,0,303.55,373.877Z" transform="translate(-64.452 -78.741)" fill="#3e2344"/>
      <path id="Trazado_128802" data-name="Trazado 128802" d="M309.977,371.9l-2.8-7.388a1.024,1.024,0,0,0-.953-.662h-9.743a1.024,1.024,0,0,0-.748,1.717l8.774,9.451a2.757,2.757,0,0,0,2.875.748l.874-.291a2.749,2.749,0,0,0,1.717-3.576Z" transform="translate(-62.735 -77.654)" fill="#ffdcae"/>
      <path id="Trazado_128803" data-name="Trazado 128803" d="M307.4,374.692a1.882,1.882,0,1,0,1.882-1.882A1.882,1.882,0,0,0,307.4,374.692Z" transform="translate(-65.269 -79.557)" fill="#764582"/>
      <circle id="Elipse_4324" data-name="Elipse 4324" cx="18.485" cy="18.485" r="18.485" transform="translate(243.291 222.622) rotate(-76.82)" fill="#ffd25a"/>
      <path id="Trazado_128804" data-name="Trazado 128804" d="M338.958,252.937v16.3h3.1c.614,0,.874.433.874,1.449v.5c0,1.008-.26,1.449-.874,1.449H330.814c-.606,0-.866-.441-.866-1.449v-.5c0-1.016.26-1.449.866-1.449h3.875v-13l-3.938.575c-.788,0-.922-1.622-.922-2.434a.788.788,0,0,1,.748-.788l7.215-1.331C338.234,252.236,338.958,252.583,338.958,252.937Z" transform="translate(-70.033 -53.954)" fill="#764582"/>
      <path id="Trazado_128805" data-name="Trazado 128805" d="M243.02,247.546v14.563l34.4.89V246.05Z" transform="translate(-51.596 -52.635)" fill="#ffbe57"/>
      <path id="Trazado_128806" data-name="Trazado 128806" d="M286.69,246.05V263l16.39.528V249.019Z" transform="translate(-60.871 -52.635)" fill="#f99441"/>
      <path id="Trazado_128807" data-name="Trazado 128807" d="M241.75,244.051l36.191-1.481V247.3l-36.191,1.512Z" transform="translate(-51.326 -51.896)" fill="#ffd25a"/>
      <path id="Trazado_128808" data-name="Trazado 128808" d="M287.7,247.3l16.784,2.875v-4.489L287.7,242.57Z" transform="translate(-61.085 -51.896)" fill="#ffbe57"/>
      <path id="Trazado_128809" data-name="Trazado 128809" d="M172.57,331.246c.788,7.994,7.53,19.69,10.137,26.22.788,1.922,4.4.843,3.993-1.181-1.4-6.915-2.363-20.9-3-28.039C182.943,319.841,171.806,323.637,172.57,331.246Z" transform="translate(-36.626 -69.08)" fill="#ffb072"/>
      <path id="Trazado_128810" data-name="Trazado 128810" d="M185.508,366.026a7.459,7.459,0,0,0,.551,5.159c-.244.1-.063,1.087.37,1.3s4.2.189,4.946-.4a.788.788,0,0,0,0-.662s.922.354,3.544-.142a13.325,13.325,0,0,0,5.049-1.9c.307-.2.095-.9-.252-.788,0,0-.228-1.819-1.749-1.717a11.523,11.523,0,0,1-6.955-2.032,5.632,5.632,0,0,0-2.071-.906A3.552,3.552,0,0,0,185.508,366.026Z" transform="translate(-39.333 -77.671)" fill="#7d6eb2"/>
      <g id="Grupo_55772" data-name="Grupo 55772" transform="translate(145.946 286.262)" clip-path="url(#clip-path)">
        <path id="Trazado_128811" data-name="Trazado 128811" d="M186,372.158a29.4,29.4,0,0,0,5.3-.11s5.978-.1,8.333-2.5a2.8,2.8,0,0,1,4.387.158l-9.782,7.79-6.388-.5L185,374.607S184.759,372.047,186,372.158Z" transform="translate(-185.214 -364.906)" fill="#ffaec1"/>
        <path id="Trazado_128812" data-name="Trazado 128812" d="M184.9,365.971a2.465,2.465,0,0,0,2.615,1.118c1.756-.37,1.938-1.449,1.536-3.332S183.031,363.12,184.9,365.971Z" transform="translate(-185.117 -363.705)" fill="#ffb072"/>
      </g>
      <path id="Trazado_128814" data-name="Trazado 128814" d="M139.237,257.085s11.491,20.675,15.288,29.142,8.6,29.315,8.6,29.315,9.451,1.993,14.4-2.442c0,0-1.575-22.053-4.285-31.906S160.3,247.043,160.3,247.043C156.186,238.3,135.118,248.366,139.237,257.085Z" transform="translate(-29.441 -52.131)" fill="#552f5e"/>
      <path id="Trazado_128815" data-name="Trazado 128815" d="M151.31,277.507a39.019,39.019,0,0,1,3.253-7.876c2.024-3.544,6.915-6.3,7.451-5.891.922.74-6.372,6.159-7.79,10.074,0,0,8.128-5.907,8.664-5.135S154.508,274.317,151.31,277.507Z" transform="translate(-32.118 -56.383)" fill="#3e2344"/>
      <path id="Trazado_128816" data-name="Trazado 128816" d="M149.7,192.863c1.9,8.735,4.844,20.384,11.326,26.062s20.573,8.837,21.266,8.837c1.575.362,3.245-7.916,2-8.869s-12.318-5.427-14.279-7.325c-3.521-3.395-2.024-24.038-6-28.535S147.52,182.679,149.7,192.863Z" transform="translate(-31.723 -38.868)" fill="#b1a8d1"/>
      <path id="Trazado_128817" data-name="Trazado 128817" d="M193.1,230.73s4.938,4.1,5.23,5.222a5.4,5.4,0,0,1-.228,3.426c-.4.465-3.418,1.977-4.576,1.189a20.6,20.6,0,0,1-2.741-2.6l.551-2.016s-.378,1.378-3.363-.5S190.255,227.895,193.1,230.73Z" transform="translate(-39.716 -49.216)" fill="#f29353"/>
      <path id="Trazado_128818" data-name="Trazado 128818" d="M103.244,325.315c-5.954,5.4-11.365,17.745-15.067,23.723-1.095,1.756,1.938,4.048,3.324,2.513,4.726-5.238,15.414-14.319,20.769-19.076C118.587,326.875,108.915,320.18,103.244,325.315Z" transform="translate(-18.66 -69.08)" fill="#ffb072"/>
      <path id="Trazado_128819" data-name="Trazado 128819" d="M87.762,355.148a7.428,7.428,0,0,0-4,3.269c-.221-.142-.945.551-.882,1.024s2.127,3.623,3.024,3.938a.787.787,0,0,0,.543-.378s.213.961,2.056,2.891a13.272,13.272,0,0,0,4.348,3.2c.331.15.788-.41.512-.638,0,0,1.41-1.181.5-2.41a11.42,11.42,0,0,1-2.087-6.931,5.789,5.789,0,0,0-.378-2.237A3.544,3.544,0,0,0,87.762,355.148Z" transform="translate(-17.584 -75.796)" fill="#7d6eb2"/>
      <g id="Grupo_55773" data-name="Grupo 55773" transform="translate(65.291 279.307)" clip-path="url(#clip-path-2)">
        <path id="Trazado_128820" data-name="Trazado 128820" d="M83.174,359.2a29.6,29.6,0,0,0,2.961,4.4s3.339,4.954,6.616,5.592,2.237,3.8,2.237,3.8l-11.814-3.954-3.064-5.631.465-3.7S82.6,358.094,83.174,359.2Z" transform="translate(-82.288 -355.891)" fill="#ffaec1"/>
        <path id="Trazado_128821" data-name="Trazado 128821" d="M88.507,354.47a2.481,2.481,0,0,0,.488,2.8c1.268,1.276,2.276.835,3.631-.528S89.893,351.367,88.507,354.47Z" transform="translate(-84.021 -354.724)" fill="#ffb072"/>
      </g>
      <path id="Trazado_128823" data-name="Trazado 128823" d="M120.131,249.375s1.575,30.315-1.8,38.255-12.247,20.864-12.247,20.864a13.61,13.61,0,0,0,11.389,8.6s13.515-9.522,18.824-23.944,9.751-30.268,7.6-42.082C142.688,244.5,121.84,239.719,120.131,249.375Z" transform="translate(-22.512 -52.18)" fill="#764582"/>
      <path id="Trazado_128824" data-name="Trazado 128824" d="M124.427,250.5s.2,25.2-.985,35.01c-1.142,9.451-15.752,26.921-15.752,26.921" transform="translate(-22.854 -53.58)" fill="none" stroke="#fff" stroke-miterlimit="10" stroke-width="0.5"/>
      <path id="Trazado_128825" data-name="Trazado 128825" d="M157.4,181.788c2.363,4.647-1.835,22.29-1.835,29.992a125.385,125.385,0,0,0,1.961,20.691,2.457,2.457,0,0,1-1.158,2.686A30.307,30.307,0,0,1,145,238.678c-11.4,1.095-16.918-.906-19.509-1.882a3.151,3.151,0,0,1-2.016-3.434c.575-3.859,2.2-13.279.788-21.951-1.819-11.35-4.789-26.779.536-31.544s15.288-7.727,15.288-7.727S154.52,176.054,157.4,181.788Z" transform="translate(-25.846 -36.938)" fill="#fff"/>
      <path id="Trazado_128826" data-name="Trazado 128826" d="M145.835,159.829s-2.56-.425-6.073-4.789c-2.3-2.859-5.513-15.792,4.647-17.753s13.13,4.9,13.594,9.388-4.568,8.175-6.844,9.8S145.835,159.829,145.835,159.829Z" transform="translate(-29.163 -29.462)" fill="#3e2344"/>
      <path id="Trazado_128827" data-name="Trazado 128827" d="M143.514,159.39a29.8,29.8,0,0,1-1.465,6.978,11.176,11.176,0,0,1-3.859,5.293c-1.457,1.3,5.828,9.042,12.318,11.027,0,0,4.726-5.734,2.552-8.932s-3.867-3.481-3.1-7.742c.669-3.725,1.071-5.789,1.071-5.789Z" transform="translate(-29.292 -34.23)" fill="#ffb072"/>
      <path id="Trazado_128828" data-name="Trazado 128828" d="M143.988,155.747s-.331,2.9.843,4.143,3.253,4.237,8.018,3.891c6.364-.465,3.891-10.562,3.891-10.562a22.273,22.273,0,0,0,0-7.089c-.662-3.19-6.963-4.86-12.1-3.3,0,0-1.473,1.4-.906,7.671a1.914,1.914,0,0,0-2.434-.323c-1.134.614-1.252,2.071-.866,3.442C140.838,155.283,142.594,156.7,143.988,155.747Z" transform="translate(-29.767 -30.587)" fill="#ffb072" fill-rule="evenodd"/>
      <path id="Trazado_128829" data-name="Trazado 128829" d="M143.685,157.585l-.567-1.5.961-.394s-.63-2.788-2.205-1.756C140.629,154.781,142.087,158.144,143.685,157.585Z" transform="translate(-30.015 -33.023)" fill="#e57e55"/>
      <path id="Trazado_128830" data-name="Trazado 128830" d="M145.008,155.81a39.924,39.924,0,0,0-.528,5.663c.095,1.749,1.819,7.191,9.79,6.7s5.08-9.058,3.733-9.648a2.363,2.363,0,0,1-.788,1.89,2.111,2.111,0,0,0-2.552-1.095c-1.134-.646-2.434-.244-3.8.567l-.992.693a5.041,5.041,0,0,1-4.048-4.671Z" transform="translate(-30.668 -33.47)" fill="#3e2344"/>
      <path id="Trazado_128831" data-name="Trazado 128831" d="M153.86,162.06s4.182,0,4.277.284-.5.851-2.142.851A2.237,2.237,0,0,1,153.86,162.06Z" transform="translate(-32.66 -34.797)" fill="#fff"/>
      <path id="Trazado_128832" data-name="Trazado 128832" d="M153.737,161.987c.142-.087.11,0,.126-.047H155l1.174.047a11.583,11.583,0,0,1,1.174.079,3.718,3.718,0,0,1,.583.087.552.552,0,0,1,.15.047.2.2,0,0,1,.087.079.173.173,0,0,1,0,.087.457.457,0,0,1-.15.291,2.079,2.079,0,0,1-1.087.473,5.354,5.354,0,0,1-1.181.079,2.583,2.583,0,0,1-1.15-.307,2.2,2.2,0,0,1-.5-.354,1.917,1.917,0,0,1-.2-.228l-.095-.126-.039-.063v-.039h0S153.706,161.987,153.737,161.987Zm.181.126c.039,0,0-.126,0-.095h0v.055l.071.118.181.213a1.906,1.906,0,0,0,.441.347,2.441,2.441,0,0,0,1.079.307,5.1,5.1,0,0,0,1.15-.055,2.079,2.079,0,0,0,1.04-.425c.386-.386-.3-.347-.622-.4a9.118,9.118,0,0,0-1.166-.055h-2.229s-.063.063.079-.024Z" transform="translate(-32.632 -34.771)" fill="#e57e55"/>
      <path id="Trazado_128833" data-name="Trazado 128833" d="M154,155.3c0,.354-.5.378-1.063.331s-1.016-.15-.985-.5.512-.6,1.079-.551S154.029,154.949,154,155.3Z" transform="translate(-32.254 -33.207)" fill="#3e2344"/>
      <path id="Trazado_128834" data-name="Trazado 128834" d="M149.79,152.994a18.485,18.485,0,0,1,2.127-.5,13.344,13.344,0,0,0,2.631.126,2.717,2.717,0,0,0,.291-.843,20.8,20.8,0,0,0-3.2-.118,3.631,3.631,0,0,0-1.851,1.339Z" transform="translate(-31.795 -32.584)" fill="#3e2344"/>
      <path id="Trazado_128835" data-name="Trazado 128835" d="M160.577,155.853c0,.354-.5.378-1.055.331s-1.024-.15-.992-.5.512-.6,1.079-.551S160.609,155.5,160.577,155.853Z" transform="translate(-33.651 -33.324)" fill="#3e2344"/>
      <path id="Trazado_128836" data-name="Trazado 128836" d="M161.172,153.864c0,.055-.7-.843-1.048-.906s-2.04.079-2.127-.134a3.7,3.7,0,0,1-.079-.874,14.468,14.468,0,0,1,2.607.386A2.473,2.473,0,0,1,161.172,153.864Z" transform="translate(-33.522 -32.65)" fill="#3e2344"/>
      <path id="Trazado_128837" data-name="Trazado 128837" d="M157.086,159.611s-1.307,0-1.276-.4,2.772-.788,2.922-.488S157.676,159.446,157.086,159.611Z" transform="translate(-33.074 -34.065)" fill="#e57e55" opacity="0.5"/>
      <path id="Trazado_128838" data-name="Trazado 128838" d="M157.657,153a6.576,6.576,0,0,0-.189,2.229c.2.591,1.4,1.914,1.426,2.2s-1.363.969-1.465,1.008,1.977-.276,1.914-.922-1.575-2.26-1.654-2.576A16.754,16.754,0,0,1,157.657,153Z" transform="translate(-33.417 -32.873)" fill="#e57e55"/>
      <path id="Trazado_128839" data-name="Trazado 128839" d="M144.82,152.068c.4-.276,1.071-2.639.362-4.915a2.835,2.835,0,0,1,2.1-3.67c1.3-.142,5.513,1.048,7.175.843,3.647-.441,6.474-1.52,6.466-2.2s-2.678,0-2.678,0,4.064-1.04,3.7-4.442a16.817,16.817,0,0,1-5.789-.709c-2.733-.937-9.27-2.024-12.744.559-2.276,1.686-3.891,7.2-.882,9.995C143.915,148.839,144.041,152.6,144.82,152.068Z" transform="translate(-29.905 -29.247)" fill="#3e2344"/>
      <path id="Trazado_128840" data-name="Trazado 128840" d="M157.54,184.49s-1.741,34.521-1.355,37.766-.252,15.752,7.632,18.115c0,0-3.521-18-3.024-28.819S157.54,184.49,157.54,184.49Z" transform="translate(-33.142 -39.561)" fill="#a1abad" fill-rule="evenodd" opacity="0.7" style="mix-blend-mode: multiply;isolation: isolate"/>
      <path id="Trazado_128841" data-name="Trazado 128841" d="M154.72,174.57a87.963,87.963,0,0,1,3.206,24.9c-.189,14.09-.788,43,9.664,42.326,0,0-4.395-17.761-4.127-24.211s3.765-30.158,2.481-34.222C164.085,177.484,154.72,174.57,154.72,174.57Z" transform="translate(-32.843 -37.454)" fill="#cbc5e0"/>
      <path id="Trazado_128842" data-name="Trazado 128842" d="M135.352,173.93s7.026,11.027,9.278,29.646c1.079,8.892-.126,22.975-1.465,31.969-1.575,10.357-21.817,10.341-23.117,7.624s4.505-19.911,2.694-29.685-2.883-25.731-.717-30.985S135.352,173.93,135.352,173.93Z" transform="translate(-25.438 -37.318)" fill="#cbc5e0"/>
      <path id="Trazado_128843" data-name="Trazado 128843" d="M126.554,197.65s3.45,16.634,3.009,25.479-3.253,26.6-3.253,26.6" transform="translate(-26.809 -42.356)" fill="none" stroke="#fff" stroke-linecap="round" stroke-linejoin="round" stroke-width="0.5"/>
      <path id="Trazado_128844" data-name="Trazado 128844" d="M123.284,185.665a16.421,16.421,0,0,0-.914,4.356c1.9,14.508,10.058,30.772,22.6,36.616.417-4.726.662-9.7.6-14.177-8.4-8.364-14.823-19.241-19.746-29.929a8.569,8.569,0,0,0-2.536,3.135Z" transform="translate(-25.972 -39.144)" fill="#b1a8d1"/>
      <path id="Trazado_128845" data-name="Trazado 128845" d="M184.747,234.588s6.246,1.465,7.01,2.363,2.04,3.836,1.89,4.434-3.458,1.906-4.844,1.717a10.869,10.869,0,0,1-2.891-.977c.213-.74.15-1.4-.614-1.638s-1.67.189-3.087.827C179,242.763,180.912,233.312,184.747,234.588Z" transform="translate(-38.336 -50.175)" fill="#ffb072"/>
      <path id="Trazado_128846" data-name="Trazado 128846" d="M122.163,192.688c1.678,9.31,13.586,23.2,18.682,27.567,4.474,3.836,26.527,10.341,27.5,10.389,2.26.48,5.135-7.656,3.379-8.664s-21.415-10.1-23.55-12.468-9.932-23.4-15.485-28.2S120.265,182.173,122.163,192.688Z" transform="translate(-25.86 -38.52)" fill="#cbc5e0"/>
      <path id="Trazado_128847" data-name="Trazado 128847" d="M571.83,172.641c9.042-13.027,18.367-10.2,21.793-4.726s.953,13.657-6.183,20.4c-5.12,5.127-15.366,8.664-23.629,10.664-5.757-6.2-12.295-14.862-13.7-21.974-2.19-9.57.284-17.729,6.183-20.391S571.546,156.786,571.83,172.641Z" transform="translate(-116.649 -33.453)" fill="#c1507f" fill-rule="evenodd"/>
      <g id="Grupo_55774" data-name="Grupo 55774" transform="translate(434.914 129.878)" opacity="0.5">
        <path id="Trazado_128848" data-name="Trazado 128848" d="M594.228,169.98c-2.922-4.686-10.152-7.427-17.832,0,6.537-5.151,15.918-5.253,16.737,4.182.859,9.9-7.089,16.666-16.217,14.965-12-2.268-9.05-12.334-14.752-17.257-4.45-3.749-9.743,1.922-9.979,6.561a28.061,28.061,0,0,0,.472,6.222c2.7,5.734,7.467,11.775,11.814,16.43,8.231-1.961,18.478-5.513,23.629-10.664C595.181,183.637,597.654,175.477,594.228,169.98Z" transform="translate(-552.167 -165.38)" fill="#90516b" fill-rule="evenodd"/>
      </g>
      <path id="Trazado_128849" data-name="Trazado 128849" d="M446.491,359.4a28.366,28.366,0,0,1,2.41,2.316c.347.5,1.678,4.261,1.678,4.261a3.2,3.2,0,0,1-2.079,1.434l-1.678-2.134s-.851,3.765-1.717,4.986c-1.048,1.473-7.033,3.15-7.931,2.733,0,0-1.1-2.2.788-3.395,3.465-2.229,3.552-6.884,3.552-6.884a3.261,3.261,0,0,1,4.978-3.316Z" transform="translate(-92.763 -76.598)" fill="#fd6141"/>
      <g id="Grupo_55775" data-name="Grupo 55775" transform="translate(344.091 282.28)" clip-path="url(#clip-path-3)">
        <path id="Trazado_128850" data-name="Trazado 128850" d="M436.37,373.412c.1-.055,7.664-1.071,8.553-3.3.7-1.749,1.166-4.726,1.575-5.033s2.308-2.6,2.308-2.6l3.024,5.269-11.381,9.57Z" transform="translate(-436.751 -359.643)" fill="#dd4026"/>
      </g>
      <path id="Trazado_128852" data-name="Trazado 128852" d="M440.924,369.442l1.032.221a3.536,3.536,0,0,0,.669-1.914l-1.008-.354a.354.354,0,0,0-.449.213l-.5,1.363a.362.362,0,0,0,.26.473Z" transform="translate(-93.568 -78.402)" fill="#f7b614"/>
      <path id="Trazado_128853" data-name="Trazado 128853" d="M429.734,224.906c0-.354-9.593,42.248-9.247,53.708.213,7.136,13.555,39.987,17.54,53.865.788,2.662,4.9-.465,4.576-3.229-1.575-13.287-1.465-20.273-7.325-49.147-.914-4.5,15.225-44.8,13.941-54.243S434.775,211.28,429.734,224.906Z" transform="translate(-89.285 -46.377)" fill="#ffb072"/>
      <path id="Trazado_128854" data-name="Trazado 128854" d="M449.256,225.858c-1.276-9.451-14.445-14.579-19.486-.953,0-.339-8.664,38.207-9.231,51.817,4.3-3.261,10.026-1.575,14.965,1.055C437.395,267.949,450.391,234.373,449.256,225.858Z" transform="translate(-89.298 -46.376)" fill="#ffbe57" opacity="0.5" style="mix-blend-mode: multiply;isolation: isolate"/>
      <path id="Trazado_128855" data-name="Trazado 128855" d="M463.215,362.692a28.833,28.833,0,0,1,1.426,3.024c.142.6.047,4.576.047,4.576a3.15,3.15,0,0,1-2.449.606l-.788-2.607a10.954,10.954,0,0,1-2.473,3.379c-1.5,1.008-6.852,2.253-7.75,1.8,0,0-1.237-2.363.748-3.4,4.97-2.544,5.411-6.065,5.411-6.065a3.261,3.261,0,0,1,5.828-1.315Z" transform="translate(-95.735 -77.126)" fill="#fd6141"/>
      <g id="Grupo_55776" data-name="Grupo 55776" transform="translate(355.112 284.238)" clip-path="url(#clip-path-4)">
        <path id="Trazado_128856" data-name="Trazado 128856" d="M450.54,374.42c.118,0,6.23-.591,7.7-1.764s2.757-3.938,3.253-4.151,3.08-1.575,3.08-1.575l.961,6-14.043,4.907Z" transform="translate(-450.782 -362.545)" fill="#dd4026"/>
      </g>
      <path id="Trazado_128858" data-name="Trazado 128858" d="M455.516,369.912l.882.575a3.544,3.544,0,0,0,1.3-1.575l-.788-.685a.346.346,0,0,0-.5.039l-.953,1.095a.355.355,0,0,0,.055.551Z" transform="translate(-96.692 -78.565)" fill="#f7b614"/>
      <path id="Trazado_128859" data-name="Trazado 128859" d="M444.228,227.613c-.079,3.71.5,43.272,3.938,54.1,2.134,6.742,6.616,39.137,8.128,50.2.559,4.033,4.938,4.033,5.253.173,1.181-14.327,5.821-34.261.559-51.77-1.315-4.371,4.773-49.541,1-58.142S444.5,213.9,444.228,227.613Z" transform="translate(-94.328 -46.335)" fill="#ffb072"/>
      <path id="Trazado_128860" data-name="Trazado 128860" d="M461.9,277.39c.126-11.176,4.537-47.58,1.189-55.212-3.773-8.6-18.588-8.278-18.863,5.435-.071,3.418.41,37.191,3.15,50.99C451.663,276.185,457.074,275.988,461.9,277.39Z" transform="translate(-94.328 -46.335)" fill="#ffbe57" opacity="0.5" style="mix-blend-mode: multiply;isolation: isolate"/>
      <path id="Trazado_128861" data-name="Trazado 128861" d="M429.971,218.541l-.425,3.883s-6.955,17.643-9.955,46.312c7.419-2.056,21.439,4.8,42.224,1.882,0,0,8.223-36.664-6.08-52.975S430.727,209.908,429.971,218.541Z" transform="translate(-89.097 -44.643)" fill="#fd6141"/>
      <path id="Trazado_128862" data-name="Trazado 128862" d="M432.8,225.437s-.551,5.513,8.947,6.458,18.9-5.9,18.682-7.916S432.8,225.437,432.8,225.437Z" transform="translate(-91.901 -47.814)" fill="#dd4026"/>
      <path id="Trazado_128863" data-name="Trazado 128863" d="M462.58,222.56s10.877,18.115,4.182,50.407" transform="translate(-98.227 -47.646)" fill="none" stroke="#fff" stroke-linecap="round" stroke-miterlimit="10" stroke-width="0.5"/>
      <path id="Trazado_128864" data-name="Trazado 128864" d="M380.881,208.092a37.143,37.143,0,0,0-4.726-.055,23.637,23.637,0,0,0-2.717,1.189c-1.087.551,0,1.331.788,1.26a13.389,13.389,0,0,1,2.087-.236,4.065,4.065,0,0,1,.709.173,16.374,16.374,0,0,1-3.6,2.158c-.788.3-1.473.5-2.591.866-.5.158-.417.788.15.922a6.971,6.971,0,0,0,3-.378c.48-.181.969-.386,1.41-.591a10.149,10.149,0,0,1-1.536.882c-.733.331-1.473.473-2.544.866-.5.181-.362.788.213.835a5.135,5.135,0,0,0,.788.039.473.473,0,0,0,.4.732,4.9,4.9,0,0,0,1.213-.1.465.465,0,0,0,.433.284c4.009,0,6.4-2.182,8.6-2.694C386.52,210.714,383.5,208.6,380.881,208.092Z" transform="translate(-78.67 -44.551)" fill="#ffb072"/>
      <path id="Trazado_128865" data-name="Trazado 128865" d="M430.616,171.551c-2.725-1.575-7.38-2.056-11.027,3.15s-5.277,17.509-9.168,21.667c-2.316,2.481-23.361,3.2-24.857,3.938-.977.5-.394,5.175-.079,6.041.67,1.827,23.455,2.8,29.654.354S436.468,174.875,430.616,171.551Z" transform="translate(-81.755 -36.585)" fill="#552f5e"/>
      <path id="Trazado_128866" data-name="Trazado 128866" d="M431.325,139.19c.165-1.906.158-5.08,2.426-7.829s11.129-5.513,15.752-2.284c5.7,3.938,3.844,7.648,10.956,10.515s4.962,6.049,2.93,9.3-1.323,3.788,1.969,7.191,7.648,11.893,0,16.737-24.211,1.67-30.851-4.726,1.2-10.609-.646-14.421-4-2.969-4-7.018C429.876,143.562,431.065,142.1,431.325,139.19Z" transform="translate(-91.278 -27.483)" fill="#3e2344"/>
      <path id="Trazado_128867" data-name="Trazado 128867" d="M445.732,166.041s-15.091,2.52-15.595,7.089c-.2,1.93,2.418,5.82,1.741,7.8-.992,2.891-2.568,4.568.347,11.428,2.363,5.513-1.693,17.02-1.575,18.383.457,5.112,8.553,6.049,11.877,5.962,4.726-.11,18.359-3.15,18.359-6.143,0-2.583-6.3-8.144-6.923-12.6s10.932-22.2,8.664-26.07C458.176,164.45,445.732,166.041,445.732,166.041Z" transform="translate(-91.334 -35.612)" fill="#764582"/>
      <path id="Trazado_128868" data-name="Trazado 128868" d="M466.135,226.466a36.423,36.423,0,0,0-4.489,1.386,25.508,25.508,0,0,0-2.221,1.961c-.866.858.378,1.276,1.142.953a14.174,14.174,0,0,1,1.914-.866,3.976,3.976,0,0,1,.732-.039,16.538,16.538,0,0,1-2.772,3.15c-.646.52-1.244.929-2.205,1.615-.425.307-.142.906.433.835a6.994,6.994,0,0,0,2.733-1.276c.41-.323.788-.662,1.166-1a10.572,10.572,0,0,1-1.189,1.315c-.6.543-1.26.9-2.166,1.575-.41.323-.11.788.465.732a5.875,5.875,0,0,0,.788-.2c-.11.307.15.654.6.567a5.512,5.512,0,0,0,1.126-.465.52.52,0,0,0,.5.134c2.363-.543,6.451-3.938,7.364-5.19C472.3,227.238,468.773,226.143,466.135,226.466Z" transform="translate(-97.261 -48.464)" fill="#ffb072"/>
      <path id="Trazado_128869" data-name="Trazado 128869" d="M463.346,168.73c-2.442,1.969-4.623,6.112-1.1,11.436s13.523,10.861,15.957,16c1.457,3.064-12.066,16.217-12.09,17.895s2.544,5.757,3.529,6.23c1.741.851,20.738-17.587,20.738-24.251S468.576,164.5,463.346,168.73Z" transform="translate(-97.764 -36.111)" fill="#764582"/>
      <path id="Trazado_128870" data-name="Trazado 128870" d="M450.132,151.31a29.763,29.763,0,0,0,1.465,6.97,11.16,11.16,0,0,0,3.859,5.3c1.457,1.3-5.828,9.042-12.318,11.027,0,0-4.726-5.734-2.552-8.932s3.867-3.473,3.1-7.742c-.669-3.718-1.071-5.781-1.071-5.781Z" transform="translate(-93.434 -32.514)" fill="#ffb072"/>
      <path id="Trazado_128871" data-name="Trazado 128871" d="M439.155,152.984c0,1.827-.788,3.324-1.678,3.324s-1.678-1.5-1.678-3.324a4.473,4.473,0,0,1,.859-2.883c.158-.2-.047-.362-.2-.158a4.726,4.726,0,0,0-.906,3.04c0,2,.843,3.576,1.93,3.576s1.93-1.575,1.93-3.576a4.86,4.86,0,0,0-.543-2.5c-.039.047-.142.134-.189.181a5.158,5.158,0,0,1,.48,2.323Z" transform="translate(-92.484 -32.203)" fill="#fff"/>
      <path id="Trazado_128872" data-name="Trazado 128872" d="M449.288,147.664s-1.055,7.971-8.538,7.4c-3.765-.284-5.687-8-4.214-9.94a22.218,22.218,0,0,1,0-7.089c.662-3.2,6.963-4.867,12.1-3.3,0,0,1.473,1.4.906,7.671a1.914,1.914,0,0,1,2.434-.331c1.134.614,1.252,2.071.866,3.45C452.383,147.191,450.658,148.609,449.288,147.664Z" transform="translate(-92.59 -28.868)" fill="#ffb072" fill-rule="evenodd"/>
      <path id="Trazado_128873" data-name="Trazado 128873" d="M453.424,149.5l.567-1.489-.961-.4s.622-2.78,2.174-1.756C456.48,146.707,455.023,150.063,453.424,149.5Z" transform="translate(-96.199 -31.306)" fill="#e57e55"/>
      <path id="Trazado_128874" data-name="Trazado 128874" d="M455.586,152.984c0,1.827-.748,3.324-1.678,3.324s-1.678-1.5-1.678-3.324a4.521,4.521,0,0,1,.858-2.883c.158-.2-.039-.362-.2-.158a4.726,4.726,0,0,0-.914,3.04c0,2,.851,3.576,1.93,3.576s1.93-1.575,1.93-3.576a4.868,4.868,0,0,0-.536-2.5c-.039.047-.15.134-.189.181A5.167,5.167,0,0,1,455.586,152.984Z" transform="translate(-95.974 -32.203)" fill="#fff"/>
      <path id="Trazado_128875" data-name="Trazado 128875" d="M439.51,154.151s.512-1.244,4.442-.843C443.5,155.411,439.825,156.42,439.51,154.151Z" transform="translate(-93.327 -32.921)" fill="#fd6141"/>
      <g id="Grupo_55777" data-name="Grupo 55777" transform="translate(346.183 120.387)" style="mix-blend-mode: multiply;isolation: isolate">
        <path id="Trazado_128876" data-name="Trazado 128876" d="M439.51,154.173a13.256,13.256,0,0,0,4.442-.843" transform="translate(-439.51 -153.33)" fill="#e57e55"/>
        <path id="Trazado_128877" data-name="Trazado 128877" d="M439.51,154.173a25.7,25.7,0,0,0,4.442-.843,7.782,7.782,0,0,1-2.166.717A9.177,9.177,0,0,1,439.51,154.173Z" transform="translate(-439.51 -153.33)" fill="#e57e55"/>
      </g>
      <path id="Trazado_128878" data-name="Trazado 128878" d="M436.7,147.8c0,.354.488.378,1.055.331s1.024-.15.992-.5-.512-.606-1.079-.559S436.668,147.417,436.7,147.8Z" transform="translate(-92.73 -31.614)" fill="#3e2344"/>
      <path id="Trazado_128879" data-name="Trazado 128879" d="M435.21,145.659c0,.055,1.307-1.134,1.67-1.111s1.678.512,1.811.331a2.8,2.8,0,0,0,.26-.591,10.807,10.807,0,0,0-2.26-.228A4.041,4.041,0,0,0,435.21,145.659Z" transform="translate(-92.414 -30.974)" fill="#3e2344"/>
      <path id="Trazado_128880" data-name="Trazado 128880" d="M443.28,147.213c0,.354.5.378,1.055.331s1.024-.15.992-.5-.512-.6-1.079-.551S443.248,146.89,443.28,147.213Z" transform="translate(-94.127 -31.489)" fill="#3e2344"/>
      <path id="Trazado_128881" data-name="Trazado 128881" d="M446.29,144.257a9.54,9.54,0,0,0-2.205-.567c-.441.118-1.875.835-2.064.685a2.314,2.314,0,0,1-.4-.52,15.532,15.532,0,0,1,2.591-.685,4.025,4.025,0,0,1,2.079,1.087Z" transform="translate(-93.775 -30.785)" fill="#3e2344"/>
      <path id="Trazado_128882" data-name="Trazado 128882" d="M439.945,151.532s1.315-.047,1.284-.4-2.772-.788-2.922-.5S439.362,151.367,439.945,151.532Z" transform="translate(-93.069 -32.35)" fill="#e57e55" opacity="0.5"/>
      <path id="Trazado_128883" data-name="Trazado 128883" d="M439.655,144.89a6.791,6.791,0,0,1,.189,2.229c-.2.591-1.4,1.922-1.426,2.2s1.363.969,1.457,1.016-1.969-.284-1.906-.922,1.575-2.268,1.654-2.583A16.766,16.766,0,0,0,439.655,144.89Z" transform="translate(-93 -31.15)" fill="#e57e55"/>
      <path id="Trazado_128884" data-name="Trazado 128884" d="M446.132,134.368c-6.238.654-9.01,6.529-13.578,6.537-2.828-4.915,5.813-17.391,16.012-7.711,4.678,4.442.457,7.876.457,7.876l-1.04,3.592s.095-2.694-.866-3.725A5.876,5.876,0,0,1,446.132,134.368Z" transform="translate(-91.734 -27.906)" fill="#3e2344"/>
      <path id="Trazado_128885" data-name="Trazado 128885" d="M374.075,88.809l-64.12-15.752h0l-8.112-2a5.891,5.891,0,0,0-7.089,4.308l-6.372,25.881h0l-.362,1.481-2.914,11.814a5.891,5.891,0,0,0,4.308,7.089L360.5,139.122a5.891,5.891,0,0,0,7.089-4.308l.89-3.426h0l2.363-9.853h0l3.56-14.327h0l3.15-12.665a4.726,4.726,0,0,0-3.473-5.734Z" transform="translate(-60.5 -15.435)" fill="#764582" opacity="0.3"/>
      <rect id="Rectángulo_30693" data-name="Rectángulo 30693" width="84.976" height="52.132" rx="5.83" transform="matrix(0.971, 0.239, -0.239, 0.971, 234.475, 51.871)" fill="#ffbe57"/>
      <path id="Trazado_128886" data-name="Trazado 128886" d="M301.762,82.738c-2.418,6.451-1.615,15.319,4.836,18.541,23.1,13.76,47.7,12.539,69.956,3.466l3.15-12.665a4.726,4.726,0,0,0-3.442-5.687L312.143,70.64C307.307,73.365,303.849,78.051,301.762,82.738Z" transform="translate(-63.805 -15.381)" fill="#ffd25a"/>
      <rect id="Rectángulo_30694" data-name="Rectángulo 30694" width="84.976" height="10.144" transform="matrix(0.971, 0.239, -0.239, 0.971, 226.693, 83.459)" fill="#764582"/>
      <rect id="Rectángulo_30695" data-name="Rectángulo 30695" width="30.402" height="5.072" rx="2.34" transform="matrix(0.971, 0.239, -0.239, 0.971, 236.462, 58.226)" fill="#764582"/>
      <rect id="Rectángulo_30696" data-name="Rectángulo 30696" width="52.983" height="2.536" rx="1.17" transform="matrix(0.971, 0.239, -0.239, 0.971, 234.64, 65.612)" fill="#764582"/>
      <rect id="Rectángulo_30697" data-name="Rectángulo 30697" width="4.97" height="3.568" rx="1.65" transform="translate(271.914 85.519) rotate(13.82)" fill="#fff"/>
      <rect id="Rectángulo_30698" data-name="Rectángulo 30698" width="4.97" height="3.568" rx="1.65" transform="matrix(0.971, 0.239, -0.239, 0.971, 278.035, 87.065)" fill="#fff"/>
      <rect id="Rectángulo_30699" data-name="Rectángulo 30699" width="4.97" height="3.568" rx="1.65" transform="matrix(0.971, 0.239, -0.239, 0.971, 284.183, 88.577)" fill="#fff"/>
      <path id="Trazado_128887" data-name="Trazado 128887" d="M379.464,94.5a5.513,5.513,0,1,0-1.819,7.4A5.513,5.513,0,0,1,379.464,94.5Z" transform="translate(-78.388 -19.861)" fill="#fd6141"/>
      <path id="Trazado_128888" data-name="Trazado 128888" d="M386.042,94.3a5.513,5.513,0,0,0-4.292.717,5.513,5.513,0,0,1-1.819,7.4,5.513,5.513,0,1,0,6.112-8.112Z" transform="translate(-80.673 -20.372)" fill="#fd6141"/>
    </g>
  </g>
</svg>
