<svg xmlns="http://www.w3.org/2000/svg" width="78.501" height="78" viewBox="0 0 78.501 78">
  <g id="Grupo_1100003" data-name="Grupo 1100003" transform="translate(-445.999 -6974.315)">
    <g id="Grupo_1100002" data-name="Grupo 1100002">
      <g id="Grupo_1100001" data-name="Grupo 1100001">
        <g id="Grupo_1100000" data-name="Grupo 1100000">
          <path id="_12068" data-name="12068" d="M72.033,71.913c-8.038-1.11-16.53-.839-23.844,2.675C38.045,79.46,31.382,90.507,31.127,101.757s5.606,22.305,14.66,28.988,21,9.051,32.068,7.045c11.165-2.023,21.645-8.583,27.469-18.322,3.735-6.245,5.48-13.956,3.417-20.934a28.6,28.6,0,0,0-6.787-11.156A50.145,50.145,0,0,0,72.033,71.913Z" transform="translate(414.88 6913.833)" fill="#ffd947"/>
          <g id="mobile-shopping" transform="translate(444.052 6969.361)">
            <path id="Trazado_873486" data-name="Trazado 873486" d="M13.6,14.884,41.1,7.467a3.684,3.684,0,0,1,4.5,2.673L60.638,66.049a3.659,3.659,0,0,1-2.623,4.494L30.449,77.961A3.709,3.709,0,0,1,25.955,75.3L10.978,19.387a3.717,3.717,0,0,1,2.665-4.5Z" transform="translate(-0.966 -0.394)" fill="#d8dfee" fill-rule="evenodd"/>
            <path id="Trazado_873487" data-name="Trazado 873487" d="M43.719,74.795C28.967,59.959,16.8,34.8,19.553,13.64L42.466,7.467a3.684,3.684,0,0,1,4.5,2.673L62,66.049a3.659,3.659,0,0,1-2.623,4.494Z" transform="translate(-2.332 -0.394)" fill="#eef5ff" fill-rule="evenodd"/>
            <path id="Trazado_873488" data-name="Trazado 873488" d="M10.75,70.53H33.914V88.364H10.75Z" transform="translate(-0.947 -10.798)" fill="#fa9f6a"/>
            <path id="Trazado_873489" data-name="Trazado 873489" d="M34.758,69.479H8.929A1.119,1.119,0,0,1,7.76,68.4V65.236A1.128,1.128,0,0,1,8.929,64.15H34.758a1.119,1.119,0,0,1,1.161,1.086V68.4a1.119,1.119,0,0,1-1.161,1.078Z" transform="translate(-0.454 -9.747)" fill="#fa9f6a" fill-rule="evenodd"/>
            <path id="Trazado_873490" data-name="Trazado 873490" d="M34.758,70H8.929A1.119,1.119,0,0,1,7.76,68.927V67.34H35.919v1.587A1.119,1.119,0,0,1,34.758,70Z" transform="translate(-0.454 -10.273)" fill="#eb8f59" fill-rule="evenodd"/>
            <path id="Trazado_873491" data-name="Trazado 873491" d="M10.75,85.356v4.586H33.914V80.11C28.584,85.957,18.168,87.194,10.75,85.356Z" transform="translate(-0.947 -12.375)" fill="#eb8f59" fill-rule="evenodd"/>
            <path id="Trazado_873492" data-name="Trazado 873492" d="M20.93,64.15h6.165v5.329H20.93Z" transform="translate(-2.623 -9.747)" fill="#62b9bc"/>
            <g id="Grupo_1099316" data-name="Grupo 1099316" transform="translate(18.307 25.216)">
              <path id="Trazado_873493" data-name="Trazado 873493" d="M27.095,64.15H20.93V79.9l3-2,3.166,2Z" transform="translate(-20.93 -34.963)" fill="#62b9bc" fill-rule="evenodd"/>
              <path id="Trazado_873494" data-name="Trazado 873494" d="M24.62,77.983,27.7,79.9V64.15H24.62Z" transform="translate(-21.538 -34.963)" fill="#67c2c5" fill-rule="evenodd"/>
              <path id="Trazado_873495" data-name="Trazado 873495" d="M83.684,44.811l-34.834-4,6.173,23.832,23.74-5.171a2.857,2.857,0,0,0,2.255-1.8l3.993-10.918a1.512,1.512,0,0,0-1.328-1.913Z" transform="translate(-25.527 -31.12)" fill="#19cffc" fill-rule="evenodd"/>
              <path id="Trazado_873496" data-name="Trazado 873496" d="M55.487,75.312a3.024,3.024,0,0,1,3.091,3.082,3.091,3.091,0,1,1-6.173,0,3.024,3.024,0,0,1,3.082-3.082ZM31.83,33.211a2,2,0,0,1,0-4h5.5a2,2,0,0,1,0,4Zm40.322,42.1a3.091,3.091,0,0,1,3.166,3.082,3.166,3.166,0,0,1-3.166,3.166,3.1,3.1,0,0,1-3.082-3.166,3.024,3.024,0,0,1,3.082-3.082Z" transform="translate(-22.416 -29.21)" fill="#fd6f71" fill-rule="evenodd"/>
            </g>
            <path id="Trazado_873497" data-name="Trazado 873497" d="M48.17,60.96l24.492-5.288A4.761,4.761,0,0,0,76,52.857l4.01-11.269a2.874,2.874,0,0,0-2.564-3.843c-8.1-.835-16.289-1.871-24.4-2.815l-6.315-25.9a5.363,5.363,0,0,0-6.482-3.926l-28.4,7a5.221,5.221,0,0,0-3.751,6.4l7.334,29.964a1.437,1.437,0,0,0,1.8,1.111,1.545,1.545,0,0,0,1.1-1.8L10.973,17.865a2.339,2.339,0,0,1,1.621-2.848l28.4-7A2.322,2.322,0,0,1,43.81,9.687l6.056,24.751-7.075-.769L41.6,29.059A5.1,5.1,0,0,0,36.9,25.65h-.927a3.341,3.341,0,0,0-2.991-2.138h-5.63a3.6,3.6,0,0,0-3.417,3.675,3.442,3.442,0,0,0,3.417,3.5h5.63a3.224,3.224,0,0,0,2.991-2.055h.936A2.047,2.047,0,0,1,38.7,29.827l7.426,28.685a5.1,5.1,0,0,0-3.074,4.778,5.43,5.43,0,0,0,5.388,5.53H75.168a1.437,1.437,0,0,0,1.445-1.453,1.512,1.512,0,0,0-1.445-1.537H48.437a2.406,2.406,0,0,1-2.389-2.506A2.506,2.506,0,0,1,48.17,60.96Zm20.474,9.907a4.736,4.736,0,0,0-4.686,4.695,4.67,4.67,0,1,0,4.686-4.695Zm0,6.315a1.671,1.671,0,0,1-1.671-1.621,1.708,1.708,0,0,1,3.417,0,1.671,1.671,0,0,1-1.671,1.621ZM51.587,70.867a4.736,4.736,0,0,0-4.695,4.695,4.674,4.674,0,1,0,4.695-4.695Zm0,6.315a1.671,1.671,0,0,1-1.712-1.621,1.708,1.708,0,0,1,3.417,0,1.671,1.671,0,0,1-1.671,1.621ZM23.937,18.458l6.574-1.621a1.554,1.554,0,0,0,1.111-1.821,1.57,1.57,0,0,0-1.88-1.111l-6.566,1.629a1.412,1.412,0,0,0-1.027,1.788,1.437,1.437,0,0,0,1.788,1.111ZM41.6,73.858l-7.426,1.788V61.988a2.623,2.623,0,0,0,2.564-2.556V56.19a2.715,2.715,0,0,0-2.564-2.748H7.648A2.732,2.732,0,0,0,5,56.19v3.241a2.64,2.64,0,0,0,2.648,2.556h8.529v9.189a1.5,1.5,0,0,0,2.306,1.278l2.389-1.47,2.389,1.537a1.5,1.5,0,0,0,2.3-1.278V62.054H31.2V77.182H10.463V67.025A1.52,1.52,0,0,0,9.01,65.488a1.537,1.537,0,0,0-1.5,1.537V78.719a1.462,1.462,0,0,0,1.5,1.453H32.725a1.445,1.445,0,0,0,1.453-1.453l8.1-1.963a1.529,1.529,0,0,0,1.144-1.788,1.5,1.5,0,0,0-1.788-1.111ZM22.542,56.441v2.564H19.2V56.441ZM7.982,59.005V56.441h8.195v2.564Zm14.56,9.473-.835-.593a1.4,1.4,0,0,0-1.621,0l-.885.593V61.988h3.341Zm2.982-12.037h8.195v2.564H25.558Zm7.46-28.677h-5.63c-.51,0-.51-1.195,0-1.195h5.63C33.41,26.569,33.493,27.764,32.984,27.764ZM54.744,52.431a1.47,1.47,0,0,0,1.788,1.111,1.6,1.6,0,0,0,1.094-1.771l-.835-3.158H64.81l-.769,5.847-15.1,3.266-2.306-9.139h7.084Zm1.278-6.825L54.059,38l11.92,1.37-.769,6.232Zm15.955,7.167L67.2,53.793l.677-5.2h6.457l-1.078,3.183A1.971,1.971,0,0,1,71.977,52.8Zm5.2-12.121-1.8,4.954H68.218l.769-5.9ZM50.944,37.663l2.047,7.944H45.865l-2.214-8.8Z" transform="translate(0 0)"/>
          </g>
        </g>
      </g>
    </g>
  </g>
</svg>
