<svg xmlns="http://www.w3.org/2000/svg" width="92.965" height="85.218" viewBox="0 0 92.965 85.218">
  <g id="Grupo_1099954" data-name="Grupo 1099954" transform="translate(1168.483 10417.143)">
    <g id="Grupo_1099953" data-name="Grupo 1099953">
      <g id="Grupo_1099952" data-name="Grupo 1099952">
        <g id="Grupo_1099951" data-name="Grupo 1099951">
          <path id="_12068" data-name="12068" d="M72.033,71.913c-8.038-1.11-16.53-.839-23.844,2.675C38.045,79.46,31.382,90.507,31.127,101.757s5.606,22.305,14.66,28.988,21,9.051,32.068,7.045c11.165-2.023,21.645-8.583,27.469-18.322,3.735-6.245,5.48-13.956,3.417-20.934a28.6,28.6,0,0,0-6.787-11.156A50.145,50.145,0,0,0,72.033,71.913Z" transform="translate(-1192.369 -10479.441)" fill="#ffd947"/>
          <g id="Grupo_55621" data-name="Grupo 55621" transform="translate(-1153.023 -10417.143)">
            <path id="Trazado_125984" data-name="Trazado 125984" d="M64.453,16.107a1.423,1.423,0,0,1-1.162-.387A42.272,42.272,0,0,0,35.014,4.874,41.642,41.642,0,0,0,7.125,15.332a2.386,2.386,0,0,1-2.711-.387c-.775-.775-.387-1.937.387-2.711A44.905,44.905,0,0,1,35.014,1,48.021,48.021,0,0,1,66,12.621a1.872,1.872,0,0,1,0,2.711,2.012,2.012,0,0,1-1.549.775Z" transform="translate(-3.991 -1)" fill="#62529b"/>
          </g>
          <g id="Grupo_55622" data-name="Grupo 55622" transform="translate(-1152.988 -10417.143)">
            <path id="Trazado_125985" data-name="Trazado 125985" d="M17.557,16.494H5.937A1.83,1.83,0,0,1,4,14.557V2.937A1.83,1.83,0,0,1,5.937,1,1.83,1.83,0,0,1,7.874,2.937v9.684h9.684a1.83,1.83,0,0,1,1.937,1.937A1.83,1.83,0,0,1,17.557,16.494Z" transform="translate(-4 -1)" fill="#62529b"/>
          </g>
          <g id="Grupo_55623" data-name="Grupo 55623" transform="translate(-1153.182 -10346.838)">
            <path id="Trazado_125986" data-name="Trazado 125986" d="M35.519,34.063A48.021,48.021,0,0,1,4.531,22.443a1.872,1.872,0,0,1,0-2.711,1.872,1.872,0,0,1,2.711,0A42.272,42.272,0,0,0,35.519,30.577a41.642,41.642,0,0,0,27.89-10.459,1.66,1.66,0,0,1,2.711.387,1.66,1.66,0,0,1-.387,2.711A46.561,46.561,0,0,1,35.519,34.063Z" transform="translate(-3.95 -19.15)" fill="#62529b"/>
          </g>
          <g id="Grupo_55624" data-name="Grupo 55624" transform="translate(-1106.119 -10347.419)">
            <path id="Trazado_125987" data-name="Trazado 125987" d="M29.657,34.494a1.83,1.83,0,0,1-1.937-1.937V22.874H18.037A1.83,1.83,0,0,1,16.1,20.937,1.83,1.83,0,0,1,18.037,19H29.657a1.83,1.83,0,0,1,1.937,1.937V32.557A1.83,1.83,0,0,1,29.657,34.494Z" transform="translate(-16.1 -19)" fill="#62529b"/>
          </g>
          <g id="Grupo_55625" data-name="Grupo 55625" transform="translate(-1158.799 -10393.901)">
            <path id="Trazado_125988" data-name="Trazado 125988" d="M12.184,26.368A9.59,9.59,0,0,1,2.5,16.684,9.59,9.59,0,0,1,12.184,7a9.59,9.59,0,0,1,9.684,9.684A9.59,9.59,0,0,1,12.184,26.368Zm0-15.494a5.957,5.957,0,0,0-5.81,5.81,5.957,5.957,0,0,0,5.81,5.81,5.957,5.957,0,0,0,5.81-5.81A5.957,5.957,0,0,0,12.184,10.874Z" transform="translate(-2.5 -7)" fill="#62529b"/>
          </g>
          <g id="Grupo_55626" data-name="Grupo 55626" transform="translate(-1168.483 -10370.66)">
            <path id="Trazado_125989" data-name="Trazado 125989" d="M36.8,28.494a1.83,1.83,0,0,1-1.937-1.937V22.684a5.957,5.957,0,0,0-5.81-5.81H9.684a5.957,5.957,0,0,0-5.81,5.81v3.874a1.83,1.83,0,0,1-1.937,1.937A1.83,1.83,0,0,1,0,26.557V22.684A9.59,9.59,0,0,1,9.684,13H29.052a9.59,9.59,0,0,1,9.684,9.684v3.874A1.83,1.83,0,0,1,36.8,28.494Z" transform="translate(0 -13)" fill="#62529b"/>
          </g>
          <g id="Grupo_55627" data-name="Grupo 55627" transform="translate(-1104.569 -10393.901)">
            <path id="Trazado_125990" data-name="Trazado 125990" d="M26.184,26.368A9.59,9.59,0,0,1,16.5,16.684a9.684,9.684,0,1,1,19.368,0A9.59,9.59,0,0,1,26.184,26.368Zm0-15.494a5.957,5.957,0,0,0-5.81,5.81,5.957,5.957,0,0,0,5.81,5.81,5.957,5.957,0,0,0,5.81-5.81A5.957,5.957,0,0,0,26.184,10.874Z" transform="translate(-16.5 -7)" fill="#62529b"/>
          </g>
          <g id="Grupo_55628" data-name="Grupo 55628" transform="translate(-1114.253 -10370.66)">
            <path id="Trazado_125991" data-name="Trazado 125991" d="M50.8,28.494a1.83,1.83,0,0,1-1.937-1.937V22.684a5.957,5.957,0,0,0-5.81-5.81H23.684a5.957,5.957,0,0,0-5.81,5.81v3.874a1.83,1.83,0,0,1-1.937,1.937A1.83,1.83,0,0,1,14,26.557V22.684A9.59,9.59,0,0,1,23.684,13H43.052a9.59,9.59,0,0,1,9.684,9.684v3.874A1.83,1.83,0,0,1,50.8,28.494Z" transform="translate(-14 -13)" fill="#62529b"/>
          </g>
        </g>
      </g>
    </g>
  </g>
</svg>
