<svg xmlns="http://www.w3.org/2000/svg" width="97.011" height="91.068" viewBox="0 0 97.011 91.068">
  <g id="Grupo_1099946" data-name="Grupo 1099946" transform="translate(-1067.754 -1354.417)">
    <g id="Grupo_1099945" data-name="Grupo 1099945">
      <g id="Grupo_1099944" data-name="Grupo 1099944">
        <path id="_12068" data-name="12068" d="M72.033,71.913c-8.038-1.11-16.53-.839-23.844,2.675C38.045,79.46,31.382,90.507,31.127,101.757s5.606,22.305,14.66,28.988,21,9.051,32.068,7.045c11.165-2.023,21.645-8.583,27.469-18.322,3.735-6.245,5.48-13.956,3.417-20.934a28.6,28.6,0,0,0-6.787-11.156A50.145,50.145,0,0,0,72.033,71.913Z" transform="translate(1044.63 1297.113)" fill="#ffd947"/>
        <g id="Grupo_55805" data-name="Grupo 55805" transform="translate(645.659 1267.732)">
          <path id="Trazado_41006" data-name="Trazado 41006" d="M449.908,103.5a1.356,1.356,0,0,1-1.356-1.358V95.484a1.356,1.356,0,1,1,2.712,0v6.656A1.357,1.357,0,0,1,449.908,103.5Z" transform="translate(17.72 4.985)" fill="#62529b"/>
          <path id="Trazado_41007" data-name="Trazado 41007" d="M443.729,105.152a1.36,1.36,0,0,1-1.176-.678l-3.328-5.764a1.356,1.356,0,1,1,2.349-1.356l3.328,5.764a1.356,1.356,0,0,1-1.174,2.034Z" transform="translate(11.352 6.691)" fill="#62529b"/>
          <path id="Trazado_41008" data-name="Trazado 41008" d="M439.2,109.676a1.345,1.345,0,0,1-.676-.182l-5.764-3.33a1.356,1.356,0,1,1,1.356-2.348l5.764,3.328a1.357,1.357,0,0,1-.68,2.531Z" transform="translate(6.691 11.353)" fill="#62529b"/>
          <path id="Trazado_41009" data-name="Trazado 41009" d="M437.55,115.855h-6.657a1.356,1.356,0,0,1,0-2.712h6.657a1.356,1.356,0,0,1,0,2.712Z" transform="translate(4.984 17.721)" fill="#62529b"/>
          <path id="Trazado_41010" data-name="Trazado 41010" d="M433.441,126.7a1.356,1.356,0,0,1-.678-2.531l5.764-3.328a1.356,1.356,0,1,1,1.356,2.348l-5.764,3.328A1.353,1.353,0,0,1,433.441,126.7Z" transform="translate(6.691 22.753)" fill="#62529b"/>
          <path id="Trazado_41011" data-name="Trazado 41011" d="M440.4,134.635a1.356,1.356,0,0,1-1.174-2.034l3.328-5.766a1.356,1.356,0,0,1,2.349,1.356l-3.328,5.766A1.359,1.359,0,0,1,440.4,134.635Z" transform="translate(11.352 26.437)" fill="#62529b"/>
          <path id="Trazado_41012" data-name="Trazado 41012" d="M449.908,137.538a1.355,1.355,0,0,1-1.356-1.356v-6.656a1.356,1.356,0,0,1,2.712,0v6.656A1.356,1.356,0,0,1,449.908,137.538Z" transform="translate(17.72 27.786)" fill="#62529b"/>
          <path id="Trazado_41013" data-name="Trazado 41013" d="M462.923,109.676a1.357,1.357,0,0,1-.68-2.531l5.766-3.328a1.356,1.356,0,1,1,1.356,2.348l-5.764,3.33A1.35,1.35,0,0,1,462.923,109.676Z" transform="translate(26.437 11.353)" fill="#62529b"/>
          <path id="Trazado_41014" data-name="Trazado 41014" d="M457.42,105.152a1.356,1.356,0,0,1-1.172-2.034l3.328-5.764a1.356,1.356,0,1,1,2.348,1.356l-3.328,5.764A1.356,1.356,0,0,1,457.42,105.152Z" transform="translate(22.753 6.691)" fill="#62529b"/>
          <path id="Trazado_41015" data-name="Trazado 41015" d="M445.56,99.632a1.355,1.355,0,0,1-1.309-1.005l-.575-2.144a1.356,1.356,0,1,1,2.62-.7l.574,2.142a1.358,1.358,0,0,1-1.311,1.708Z" transform="translate(14.424 5.418)" fill="#62529b"/>
          <path id="Trazado_41016" data-name="Trazado 41016" d="M438.031,103.978a1.346,1.346,0,0,1-.958-.4l-1.57-1.57a1.356,1.356,0,1,1,1.919-1.917l1.57,1.57a1.357,1.357,0,0,1-.96,2.314Z" transform="translate(8.715 8.715)" fill="#62529b"/>
          <path id="Trazado_41017" data-name="Trazado 41017" d="M433.685,111.509a1.342,1.342,0,0,1-.351-.047l-2.144-.574a1.356,1.356,0,0,1,.7-2.62l2.144.574a1.357,1.357,0,0,1-.351,2.667Z" transform="translate(5.419 14.424)" fill="#62529b"/>
          <path id="Trazado_41018" data-name="Trazado 41018" d="M431.539,121.006a1.356,1.356,0,0,1-.349-2.665l2.144-.574a1.355,1.355,0,0,1,.7,2.618l-2.144.574A1.343,1.343,0,0,1,431.539,121.006Z" transform="translate(5.419 20.786)" fill="#62529b"/>
          <path id="Trazado_41019" data-name="Trazado 41019" d="M436.463,129.929a1.356,1.356,0,0,1-.96-2.314l1.57-1.57a1.356,1.356,0,1,1,1.917,1.919l-1.568,1.568A1.352,1.352,0,0,1,436.463,129.929Z" transform="translate(8.715 26.097)" fill="#62529b"/>
          <path id="Trazado_41020" data-name="Trazado 41020" d="M444.987,135.082a1.358,1.358,0,0,1-1.311-1.708l.575-2.142a1.356,1.356,0,1,1,2.62.7l-.574,2.144A1.357,1.357,0,0,1,444.987,135.082Z" transform="translate(14.424 29.162)" fill="#62529b"/>
          <path id="Trazado_41021" data-name="Trazado 41021" d="M455.059,135.083a1.355,1.355,0,0,1-1.309-1.005l-.574-2.144a1.356,1.356,0,1,1,2.62-.7l.573,2.142a1.358,1.358,0,0,1-1.309,1.708Z" transform="translate(20.786 29.162)" fill="#62529b"/>
          <path id="Trazado_41022" data-name="Trazado 41022" d="M462.414,103.978a1.356,1.356,0,0,1-.96-2.314l1.57-1.57a1.356,1.356,0,0,1,1.919,1.917l-1.57,1.57A1.352,1.352,0,0,1,462.414,103.978Z" transform="translate(26.096 8.715)" fill="#62529b"/>
          <path id="Trazado_41023" data-name="Trazado 41023" d="M454.486,99.632a1.357,1.357,0,0,1-1.311-1.708l.574-2.142a1.355,1.355,0,1,1,2.618.7l-.573,2.144A1.359,1.359,0,0,1,454.486,99.632Z" transform="translate(20.786 5.418)" fill="#62529b"/>
          <path id="Trazado_41024" data-name="Trazado 41024" d="M464.712,167.564a38.262,38.262,0,1,1,0-76.524,38.97,38.97,0,0,1,35.959,24.638,1.355,1.355,0,1,1-2.523.992,36.242,36.242,0,0,0-33.436-22.918,35.55,35.55,0,0,0,0,71.1,35.234,35.234,0,0,0,15.23-3.418,1.356,1.356,0,0,1,1.164,2.45A37.935,37.935,0,0,1,464.712,167.564Z" transform="translate(2.916 2.917)" fill="#62529b"/>
          <path id="Trazado_41025" data-name="Trazado 41025" d="M452.162,123.726a6.974,6.974,0,1,1,6.973-6.973A6.981,6.981,0,0,1,452.162,123.726Zm0-11.236a4.262,4.262,0,1,0,4.261,4.263A4.267,4.267,0,0,0,452.162,112.49Z" transform="translate(15.466 15.467)" fill="#62529b"/>
          <path id="Trazado_41026" data-name="Trazado 41026" d="M449.908,117.1a1.355,1.355,0,0,1-1.356-1.356v-11.5a1.356,1.356,0,1,1,2.712,0v11.5A1.356,1.356,0,0,1,449.908,117.1Z" transform="translate(17.72 10.854)" fill="#62529b"/>
          <path id="Trazado_41027" data-name="Trazado 41027" d="M449.322,115.855h-6.928a1.356,1.356,0,1,1,0-2.712h6.928a1.356,1.356,0,1,1,0,2.712Z" transform="translate(12.688 17.721)" fill="#62529b"/>
          <path id="Trazado_41028" data-name="Trazado 41028" d="M472.829,126.572a9.23,9.23,0,1,1,9.229-9.231A9.241,9.241,0,0,1,472.829,126.572Zm0-15.748a6.518,6.518,0,1,0,6.517,6.517A6.525,6.525,0,0,0,472.829,110.825Z" transform="translate(27.798 14.352)" fill="#62529b"/>
          <path id="Trazado_41029" data-name="Trazado 41029" d="M492.745,145.723H460.332a2.275,2.275,0,0,1-2.273-2.273v-17.1a5.436,5.436,0,0,1,3.452-5.038l6.895-2.668a1.355,1.355,0,0,1,.979,2.528l-6.893,2.668a2.708,2.708,0,0,0-1.72,2.51v16.663h31.535V126.349a2.709,2.709,0,0,0-1.72-2.51l-6.893-2.668a1.355,1.355,0,1,1,.979-2.528l6.893,2.668a5.435,5.435,0,0,1,3.453,5.038v17.1A2.275,2.275,0,0,1,492.745,145.723Z" transform="translate(24.088 21.343)" fill="#62529b"/>
          <path id="Trazado_41030" data-name="Trazado 41030" d="M475.677,140.943a1.356,1.356,0,0,1-1.356-1.356V127.044a1.357,1.357,0,0,1,2.713,0v12.543A1.356,1.356,0,0,1,475.677,140.943Z" transform="translate(34.98 26.123)" fill="#62529b"/>
          <path id="Trazado_41031" data-name="Trazado 41031" d="M463.662,140.943a1.356,1.356,0,0,1-1.356-1.356V127.044a1.356,1.356,0,0,1,2.712,0v12.543A1.355,1.355,0,0,1,463.662,140.943Z" transform="translate(26.932 26.123)" fill="#62529b"/>
          <path id="Trazado_41032" data-name="Trazado 41032" d="M467.628,177.753a45.534,45.534,0,1,1,43.545-58.881,1.356,1.356,0,0,1-2.593.795,42.833,42.833,0,1,0-13.029,45.019,1.356,1.356,0,1,1,1.77,2.056A45.524,45.524,0,0,1,467.628,177.753Z" transform="translate(0)" fill="#62529b"/>
        </g>
      </g>
    </g>
  </g>
</svg>
