<svg xmlns="http://www.w3.org/2000/svg" width="87.136" height="90.598" viewBox="0 0 87.136 90.598">
  <g id="Grupo_1100068" data-name="Grupo 1100068" transform="translate(-2937.681 6393.483)">
    <g id="Grupo_1100067" data-name="Grupo 1100067">
      <g id="Grupo_1100066" data-name="Grupo 1100066">
        <g id="Grupo_1100065" data-name="Grupo 1100065">
          <path id="_12068" data-name="12068" d="M72.033,71.913c-8.038-1.11-16.53-.839-23.844,2.675C38.045,79.46,31.382,90.507,31.127,101.757s5.606,22.305,14.66,28.988,21,9.051,32.068,7.045c11.165-2.023,21.645-8.583,27.469-18.322,3.735-6.245,5.48-13.956,3.417-20.934a28.6,28.6,0,0,0-6.787-11.156A50.145,50.145,0,0,0,72.033,71.913Z" transform="translate(2912.631 -6453.091)" fill="#ffd947"/>
          <g id="buy-button" transform="translate(2927.899 -6393.483)">
            <g id="Grupo_1099893" data-name="Grupo 1099893" transform="translate(20.218 1.327)">
              <g id="Grupo_1099890" data-name="Grupo 1099890">
                <path id="Trazado_874064" data-name="Trazado 874064" d="M81.5,43.816l49.051.034c2.546,0,6.679-.04,7.926-2.058a7.045,7.045,0,0,0,1.053-3.716v-23.5A7.078,7.078,0,0,0,132.451,7.5H80.342a7.045,7.045,0,0,0-3.716,1.052c-2.018,1.247-2.393,4.995-2.393,7.541V37.359c0,3.909,3.357,6.457,7.266,6.457Z" transform="translate(-73.265 -7.5)" fill="#62529b"/>
                <path id="Trazado_874065" data-name="Trazado 874065" d="M133.971,46.688a7.075,7.075,0,0,1-6.025,3.362H75.838a7.078,7.078,0,0,1-7.078-7.078v-23.5a7.075,7.075,0,0,1,3.362-6.025V42.972a3.72,3.72,0,0,0,3.716,3.716Z" transform="translate(-68.76 -12.397)" fill="#7d6eb2"/>
              </g>
              <g id="Grupo_1099892" data-name="Grupo 1099892" transform="translate(24.097 36.315)">
                <path id="Trazado_874066" data-name="Trazado 874066" d="M239.962,233.77s-3.552,1.192-3.552,3.171V234.5a3.658,3.658,0,0,0-.067-.7c-.331-1.705-3.716-2.543-3.716-2.543s-3.723,1.2-3.723,3.24c0-.987,0-1.2,0-2.192a3.649,3.649,0,0,0-.067-.7c-.331-1.7-3.653-2.384-3.653-2.384s-3.22.544-3.653,2.112V218.92a3.64,3.64,0,0,0-.129-.964c-.431-1.571-3.657-2.19-3.657-2.19s-3.027,1.094-3.027,3.132l.06,14.459-2.259.179a4.249,4.249,0,0,0-4.367,4.427l.211,4.729a11.835,11.835,0,0,0,4.716,9.854l.735.537a7.723,7.723,0,0,1,3.132,5.843h21.626a20.722,20.722,0,0,0,1.467-3.008,10.341,10.341,0,0,1,1.625-3.536,10.34,10.34,0,0,0,1.925-6.009v-9.434a3.61,3.61,0,0,0-.058-.646c-.3-1.671-3.565-2.525-3.565-2.525Z" transform="translate(-207.58 -215.23)" fill="#f2d1a5"/>
                <path id="Trazado_874067" data-name="Trazado 874067" d="M216.858,336.334a1.051,1.051,0,0,1-.982-.658,10.127,10.127,0,0,0-3.341-4.408l-.766-.559a9.343,9.343,0,0,1-3.822-7.52V319.03a3.443,3.443,0,0,1,3.4-3.436h.029l.813-.919-.813-1.2h-1.821a4.612,4.612,0,0,0-1.612.289h0a4.649,4.649,0,0,0-3.008,4.332v5.1a12.322,12.322,0,0,0,5.055,9.95l.736.536a7.085,7.085,0,0,1,2.833,5.668l11.768,2.35,11.763-2.35v-.534a10.435,10.435,0,0,1,.3-2.474Z" transform="translate(-204.938 -295.644)" fill="#f2bb88"/>
                <g id="Grupo_1099891" data-name="Grupo 1099891" transform="translate(6.441)">
                  <path id="Trazado_874068" data-name="Trazado 874068" d="M245.092,212.73a3.827,3.827,0,0,0-.674.063v0a3.737,3.737,0,0,0-3.079,3.631v23.548a1.539,1.539,0,0,0,1.539,1.539h0a1.539,1.539,0,0,0,1.539-1.539V216.817c.171-1.933,3.092-1.889,4.36-1.093A3.738,3.738,0,0,0,245.092,212.73Z" transform="translate(-241.338 -212.73)" fill="#f2bb88"/>
                  <path id="Trazado_874069" data-name="Trazado 874069" d="M287.38,288.36a3.821,3.821,0,0,0-.543.04h0a3.753,3.753,0,0,0-3.077,2.683v6a1.574,1.574,0,0,0,1.436,1.588,1.539,1.539,0,0,0,1.641-1.535v-4.752c.148-1.917,3-1.8,4.229-1.031A3.738,3.738,0,0,0,287.38,288.36Z" transform="translate(-276.254 -274.977)" fill="#f2bb88"/>
                  <path id="Trazado_874070" data-name="Trazado 874070" d="M329.236,300.75a3.836,3.836,0,0,0-.669.059,3.783,3.783,0,0,0-2.323,1.4h0a3.637,3.637,0,0,0-.754,2.015v3.054a1.574,1.574,0,0,0,1.436,1.588,1.539,1.539,0,0,0,1.641-1.535v-2.5c.165-1.933,3.091-1.883,4.355-1.089A3.738,3.738,0,0,0,329.236,300.75Z" transform="translate(-310.599 -285.175)" fill="#f2bb88"/>
                  <path id="Trazado_874071" data-name="Trazado 874071" d="M374.92,318.117a3.584,3.584,0,0,0-4.04-2.9v0a3.647,3.647,0,0,0-3.077,3.944,1.574,1.574,0,0,0,1.436,1.588,1.539,1.539,0,0,0,1.641-1.535C371,317.372,373.711,317.389,374.92,318.117Z" transform="translate(-345.414 -297.052)" fill="#f2bb88"/>
                </g>
                <path id="Trazado_874072" data-name="Trazado 874072" d="M235.587,460.524l1.049-.843H262.96a2.477,2.477,0,0,1,2.477,2.477v1.914l-.615,1.351c0,1.368-1.664,1.426-3.032,1.426l-25.236.06a2.477,2.477,0,0,1-2.477-2.477l-.056-1.86C234.021,461.2,234.219,460.524,235.587,460.524Z" transform="translate(-228.875 -415.983)" fill="#5f6c75"/>
                <path id="Trazado_874073" data-name="Trazado 874073" d="M261.139,464.072v1.062a2.477,2.477,0,0,1-2.477,2.477H231.277a2.477,2.477,0,0,1-2.477-2.477v-2.976a2.477,2.477,0,0,1,2.477-2.477h1.062v2.8a1.592,1.592,0,0,0,1.593,1.593Z" transform="translate(-224.578 -415.982)" fill="#4e5a61"/>
              </g>
            </g>
            <g id="Grupo_1099894" data-name="Grupo 1099894" transform="translate(9.782 0)">
              <path id="Trazado_874074" data-name="Trazado 874074" d="M121.765,0H79.246a1.327,1.327,0,1,0,0,2.654h42.519a5.764,5.764,0,0,1,5.757,5.757V31.9a5.764,5.764,0,0,1-5.757,5.757h-21.44a5.113,5.113,0,0,0-6.9,0H69.668A5.764,5.764,0,0,1,63.911,31.9V8.411a5.764,5.764,0,0,1,5.757-5.757h3.378a1.327,1.327,0,0,0,0-2.654H69.668a8.421,8.421,0,0,0-8.411,8.411V31.9a8.421,8.421,0,0,0,8.411,8.411H91.9a4.96,4.96,0,0,0-.107,1.025v3.395a1.327,1.327,0,1,0,2.654,0V41.333a2.426,2.426,0,0,1,4.851,0V60.024a1.327,1.327,0,1,0,2.654,0V53.952a2.424,2.424,0,0,1,2.294-1.6,2.4,2.4,0,0,1,2.425,2.365c0,1.271.014,4,.017,5.31a1.327,1.327,0,0,0,1.327,1.323h0a1.327,1.327,0,0,0,1.323-1.332l-.011-3.158a2.426,2.426,0,0,1,4.848.047v3.139a1.327,1.327,0,1,0,2.654,0v-.693a2.261,2.261,0,0,1,4.521,0v3.085a1.327,1.327,0,0,0,2.654,0V59.354a4.913,4.913,0,0,0-7.489-4.181,5.108,5.108,0,0,0-7.6-2.425,5.108,5.108,0,0,0-6.966-2.506V41.333a4.971,4.971,0,0,0-.107-1.025h19.916a8.421,8.421,0,0,0,8.411-8.411V8.411A8.42,8.42,0,0,0,121.765,0Z" transform="translate(-52.149 0)"/>
              <path id="Trazado_874075" data-name="Trazado 874075" d="M232.856,310.681h-.567a8.953,8.953,0,0,1,1.642-4.445,11.6,11.6,0,0,0,2.172-6.78,1.327,1.327,0,1,0-2.654,0,8.963,8.963,0,0,1-1.678,5.238,11.593,11.593,0,0,0-2.144,5.988H208.613a8.472,8.472,0,0,0-3.268-5.412l-.735-.537a11.028,11.028,0,0,1-4.511-8.878v-5.1a3.3,3.3,0,0,1,3.293-3.293h.494v8.283a1.327,1.327,0,1,0,2.654,0v-14.16a1.327,1.327,0,0,0-2.654,0v3.223h-.494a5.954,5.954,0,0,0-5.947,5.947v5.1a13.692,13.692,0,0,0,5.6,11.022l.721.527a5.787,5.787,0,0,1,2.146,3.278h-.441a3.809,3.809,0,0,0-3.8,3.8v2.976a3.809,3.809,0,0,0,3.8,3.8h27.385a3.809,3.809,0,0,0,3.8-3.8v-2.976a3.808,3.808,0,0,0-3.8-3.8Zm1.15,6.781a1.151,1.151,0,0,1-1.15,1.15H205.471a1.151,1.151,0,0,1-1.15-1.15v-2.976a1.152,1.152,0,0,1,1.15-1.15h27.385a1.152,1.152,0,0,1,1.15,1.15Z" transform="translate(-164.238 -230.668)"/>
              <path id="Trazado_874076" data-name="Trazado 874076" d="M32.491,230.179l-2.1,2.143a1.327,1.327,0,0,0,1.9,1.857l2.1-2.142a1.327,1.327,0,0,0-1.9-1.857Z" transform="translate(-26.435 -189.12)"/>
              <path id="Trazado_874077" data-name="Trazado 874077" d="M67.029,245.007a1.327,1.327,0,0,0-1.615.956l-.745,2.9a1.327,1.327,0,1,0,2.571.659l.745-2.9A1.327,1.327,0,0,0,67.029,245.007Z" transform="translate(-54.922 -201.619)"/>
              <path id="Trazado_874078" data-name="Trazado 874078" d="M15.275,204.11a1.327,1.327,0,0,0-1.635-.921L10.752,204a1.327,1.327,0,1,0,.715,2.556l2.887-.807a1.327,1.327,0,0,0,.921-1.635Z" transform="translate(-9.782 -167.194)"/>
              <path id="Trazado_874079" data-name="Trazado 874079" d="M457.41,230.179a1.327,1.327,0,0,0-1.9,1.857l2.1,2.143a1.327,1.327,0,0,0,1.9-1.857Z" transform="translate(-376.33 -189.121)"/>
              <path id="Trazado_874080" data-name="Trazado 874080" d="M430.774,245.964a1.327,1.327,0,0,0-2.571.659l.745,2.9a1.327,1.327,0,1,0,2.571-.659Z" transform="translate(-354.129 -201.62)"/>
              <path id="Trazado_874081" data-name="Trazado 874081" d="M475.469,204l-2.887-.807a1.327,1.327,0,1,0-.715,2.556l2.887.807a1.327,1.327,0,1,0,.715-2.556Z" transform="translate(-389.303 -167.193)"/>
              <path id="Trazado_874082" data-name="Trazado 874082" d="M144.373,29.73H148a.675.675,0,0,1,.669.586l.695,7.546h0l.429,4.661a3.314,3.314,0,0,0,1.384,2.41,4.617,4.617,0,0,0,.04,4.421,4.676,4.676,0,0,0,1.721,1.795,4.329,4.329,0,1,0,7.646.645h7.032a4.331,4.331,0,1,0,3.993-2.654H155.329a2.035,2.035,0,0,1-1.713-3.133l.294-.458h16.379a3.312,3.312,0,0,0,3.291-2.822l1.741-11.292a1.327,1.327,0,0,0-1.312-1.529h-22.72A3.329,3.329,0,0,0,148,27.076h-3.623a1.327,1.327,0,0,0,0,2.654ZM164.3,39.054l-.21,3.841H159.7l-.21-3.841ZM159.342,36.4l-.21-3.841h5.521l-.21,3.841Zm-2.3,6.495H153.1a.672.672,0,0,1-.672-.613l-.3-3.227h4.694Zm1.226,10.576a1.677,1.677,0,1,1-1.677-1.677A1.678,1.678,0,0,1,158.264,53.471Zm13.341,1.677a1.677,1.677,0,1,1,1.677-1.677A1.678,1.678,0,0,1,171.605,55.148Zm-1.317-12.253h-3.54l.21-3.841h4.5l-.5,3.268A.672.672,0,0,1,170.289,42.895Zm1.58-6.495H167.1l.21-3.841h5.149Zm-15.394-3.841.21,3.841h-4.793l-.353-3.841Z" transform="translate(-119.465 -22.285)" fill="#ffd947"/>
            </g>
          </g>
        </g>
      </g>
    </g>
  </g>
</svg>
