<svg xmlns="http://www.w3.org/2000/svg" width="95.911" height="95.91" viewBox="0 0 95.911 95.91">
  <g id="Grupo_1099959" data-name="Grupo 1099959" transform="translate(851.411 10427.836)">
    <g id="Grupo_1099958" data-name="Grupo 1099958">
      <g id="Grupo_1099957" data-name="Grupo 1099957">
        <g id="Grupo_1099956" data-name="Grupo 1099956">
          <g id="Grupo_1099955" data-name="Grupo 1099955">
            <path id="_12068" data-name="12068" d="M72.033,71.913c-8.038-1.11-16.53-.839-23.844,2.675C38.045,79.46,31.382,90.507,31.127,101.757s5.606,22.305,14.66,28.988,21,9.051,32.068,7.045c11.165-2.023,21.645-8.583,27.469-18.322,3.735-6.245,5.48-13.956,3.417-20.934a28.6,28.6,0,0,0-6.787-11.156A50.145,50.145,0,0,0,72.033,71.913Z" transform="translate(-877.619 -10479.441)" fill="#ffd947"/>
            <g id="Grupo_55647" data-name="Grupo 55647" transform="translate(-851.411 -10415.847)">
              <path id="Trazado_126010" data-name="Trazado 126010" d="M35.966,74.933A35.966,35.966,0,0,1,35.966,3,35.954,35.954,0,0,1,61.543,13.39a40.553,40.553,0,0,1,7.593,10.79,2.471,2.471,0,0,1-.8,2.8,2.471,2.471,0,0,1-2.8-.8,40.16,40.16,0,0,0-6.394-9.591C52.351,10.193,44.359,7,35.966,7a31.97,31.97,0,0,0,0,63.94,2,2,0,0,1,0,4Z" transform="translate(0 -3)" fill="#62529b"/>
            </g>
            <g id="Grupo_55648" data-name="Grupo 55648" transform="translate(-837.424 -10401.86)">
              <path id="Trazado_126011" data-name="Trazado 126011" d="M23.481,50.459A21.815,21.815,0,0,1,3.5,28.48,22.175,22.175,0,0,1,25.48,6.5a22.786,22.786,0,0,1,15.585,6.394,24.908,24.908,0,0,1,3.6,4.8,2.057,2.057,0,1,1-3.6,2,14.353,14.353,0,0,0-2.8-4A19.246,19.246,0,0,0,25.48,10.5a18.02,18.02,0,0,0-1.6,35.967,1.828,1.828,0,0,1,1.6,2A1.888,1.888,0,0,1,23.481,50.459Z" transform="translate(-3.5 -6.5)" fill="#62529b"/>
            </g>
            <g id="Grupo_55649" data-name="Grupo 55649" transform="translate(-817.642 -10407.654)">
              <path id="Trazado_126012" data-name="Trazado 126012" d="M10.648,34.822a2.4,2.4,0,0,1-1.6-.4,1.932,1.932,0,0,1,0-2.8L35.025,5.649a1.978,1.978,0,0,1,2.8,2.8L11.847,34.423C11.847,34.822,11.048,34.822,10.648,34.822Z" transform="translate(-8.45 -5.05)" fill="#62529b"/>
            </g>
            <g id="Grupo_55650" data-name="Grupo 55650" transform="translate(-791.467 -10427.836)">
              <path id="Trazado_126013" data-name="Trazado 126013" d="M26.989,23.978H17a1.888,1.888,0,0,1-2-2V11.989c0-.4.4-1.2.4-1.6L25.39.4a5.069,5.069,0,0,1,2.4-.4,2.2,2.2,0,0,1,1.2,2V9.991H36.98a2.2,2.2,0,0,1,2,1.2,5.069,5.069,0,0,1-.4,2.4l-9.991,9.991C28.188,23.578,27.388,23.978,26.989,23.978Zm-7.993-4H26.19l5.994-5.994h-5.2a1.888,1.888,0,0,1-2-2v-5.2L19,12.788Z" transform="translate(-15 0)" fill="#62529b"/>
            </g>
            <g id="Grupo_55651" data-name="Grupo 55651" transform="translate(-807.452 -10383.877)">
              <path id="Trazado_126014" data-name="Trazado 126014" d="M36.976,62.952A25.976,25.976,0,1,1,62.952,36.976,25.924,25.924,0,0,1,36.976,62.952Zm0-47.955A22.175,22.175,0,0,0,15,36.976a22.175,22.175,0,0,0,21.98,21.98,22.175,22.175,0,0,0,21.98-21.98A22.175,22.175,0,0,0,36.976,15Z" transform="translate(-11 -11)" fill="#62529b"/>
            </g>
            <g id="Grupo_55652" data-name="Grupo 55652" transform="translate(-795.663 -10367.692)">
              <path id="Trazado_126015" data-name="Trazado 126015" d="M24.141,34.832c-.4,0-1.2-.4-1.6-.4l-7.993-7.993a1.978,1.978,0,0,1,2.8-2.8l6.394,6.394L36.129,15.649a1.978,1.978,0,0,1,2.8,2.8L24.94,34.432c.4,0,0,.4-.8.4Z" transform="translate(-13.95 -15.05)" fill="#62529b"/>
            </g>
            <g id="Grupo_55653" data-name="Grupo 55653" transform="translate(-823.437 -10387.873)">
              <path id="Trazado_126016" data-name="Trazado 126016" d="M14.993,25.985a7.993,7.993,0,1,1,7.993-7.993A8.016,8.016,0,0,1,14.993,25.985Zm0-11.989a3.776,3.776,0,0,0-4,4,3.776,3.776,0,0,0,4,4,3.776,3.776,0,0,0,4-4A3.776,3.776,0,0,0,14.993,14Z" transform="translate(-7 -10)" fill="#62529b"/>
            </g>
          </g>
        </g>
      </g>
    </g>
  </g>
</svg>
