<svg xmlns="http://www.w3.org/2000/svg" width="82.251" height="97.442" viewBox="0 0 82.251 97.442">
  <g id="Grupo_1099923" data-name="Grupo 1099923" transform="translate(4066 9744.052)">
    <g id="Grupo_1099922" data-name="Grupo 1099922">
      <g id="Grupo_1099921" data-name="Grupo 1099921">
        <g id="Grupo_1099920" data-name="Grupo 1099920">
          <path id="_12068" data-name="12068" d="M72.033,71.913c-8.038-1.11-16.53-.839-23.844,2.675C38.045,79.46,31.382,90.507,31.127,101.757s5.606,22.305,14.66,28.988,21,9.051,32.068,7.045c11.165-2.023,21.645-8.583,27.469-18.322,3.735-6.245,5.48-13.956,3.417-20.934a28.6,28.6,0,0,0-6.787-11.156A50.145,50.145,0,0,0,72.033,71.913Z" transform="translate(-4093.369 -9785.091)" fill="#ffd947"/>
          <g id="Grupo_55575" data-name="Grupo 55575" transform="translate(-4359 -12132.052)">
            <g id="Grupo_55571" data-name="Grupo 55571" transform="translate(303.083 2388)">
              <path id="Trazado_125490" data-name="Trazado 125490" d="M1178.316,2849.37H1131a4.726,4.726,0,0,1,4.731,4.731v72.865h47.315V2854.1a4.725,4.725,0,0,0-4.732-4.731Zm0,0" transform="translate(-1124.692 -2847.793)" fill="#ccf"/>
              <path id="Trazado_125491" data-name="Trazado 125491" d="M1117.964,2854.1v23.657H1108.5V2854.1a4.732,4.732,0,0,1,9.463,0Zm0,0" transform="translate(-1106.924 -2847.793)" fill="#fff"/>
              <path id="Trazado_125492" data-name="Trazado 125492" d="M1217.427,2903.833v-9.463h-9.463V2913.3H1198.5v10.409h28.389v-19.872Zm0,0" transform="translate(-1177.998 -2883.33)" fill="#fff"/>
              <path id="Trazado_125493" data-name="Trazado 125493" d="M1192.578,2919.36h28.389a1.578,1.578,0,0,0,1.577-1.578v-19.872a1.578,1.578,0,0,0-1.577-1.578h-7.886v-7.886a1.578,1.578,0,0,0-1.577-1.577h-9.463a1.578,1.578,0,0,0-1.577,1.577V2905.8h-7.886a1.578,1.578,0,0,0-1.577,1.577v10.409a1.578,1.578,0,0,0,1.577,1.578Zm26.812-19.872v16.717h-6.309v-16.717Zm-15.772-9.463h6.309v26.181h-6.309Zm-9.463,18.926h6.309v7.255h-6.309Zm0,0" transform="translate(-1172.075 -2877.407)" fill="#5e5385"/>
              <path id="Trazado_125494" data-name="Trazado 125494" d="M1192.578,3074.524h3.154a1.577,1.577,0,0,0,0-3.154h-3.154a1.577,1.577,0,0,0,0,3.154Zm0,0" transform="translate(-1172.075 -3023.109)" fill="#5e5385"/>
              <path id="Trazado_125495" data-name="Trazado 125495" d="M1268.35,3071.37h-15.772a1.577,1.577,0,1,0,0,3.154h15.772a1.577,1.577,0,0,0,0-3.154Zm0,0" transform="translate(-1219.458 -3023.109)" fill="#5e5385"/>
              <path id="Trazado_125496" data-name="Trazado 125496" d="M1192.578,3119.524h3.154a1.577,1.577,0,0,0,0-3.154h-3.154a1.577,1.577,0,0,0,0,3.154Zm0,0" transform="translate(-1172.075 -3058.646)" fill="#5e5385"/>
              <path id="Trazado_125497" data-name="Trazado 125497" d="M1268.35,3116.37h-15.772a1.577,1.577,0,1,0,0,3.154h15.772a1.577,1.577,0,0,0,0-3.154Zm0,0" transform="translate(-1219.458 -3058.646)" fill="#5e5385"/>
              <path id="Trazado_125498" data-name="Trazado 125498" d="M1192.578,3164.524h3.154a1.577,1.577,0,0,0,0-3.154h-3.154a1.577,1.577,0,0,0,0,3.154Zm0,0" transform="translate(-1172.075 -3094.183)" fill="#5e5385"/>
              <path id="Trazado_125499" data-name="Trazado 125499" d="M1268.35,3161.37h-15.772a1.577,1.577,0,1,0,0,3.154h15.772a1.577,1.577,0,0,0,0-3.154Zm0,0" transform="translate(-1219.458 -3094.183)" fill="#5e5385"/>
              <path id="Trazado_125500" data-name="Trazado 125500" d="M1101,2848.179v23.657a1.577,1.577,0,0,0,1.577,1.577h7.886v47.63a1.578,1.578,0,0,0,1.577,1.577h47.315a1.578,1.578,0,0,0,1.577-1.577v-72.865a6.316,6.316,0,0,0-6.309-6.309H1107.31a6.316,6.316,0,0,0-6.309,6.309Zm56.778,0v71.288h-44.161v-71.288a6.266,6.266,0,0,0-.849-3.154h41.855a3.158,3.158,0,0,1,3.154,3.154Zm-53.624,0a3.154,3.154,0,1,1,6.309,0v22.08h-6.309Zm0,0" transform="translate(-1101.001 -2841.87)" fill="#5e5385"/>
            </g>
            <rect id="Rectángulo_30395" data-name="Rectángulo 30395" width="82" height="82" transform="translate(293 2388)" fill="none" opacity="0.616"/>
          </g>
        </g>
      </g>
    </g>
  </g>
</svg>
