<svg xmlns="http://www.w3.org/2000/svg" width="88.782" height="99.753" viewBox="0 0 88.782 99.753">
  <g id="Grupo_1100064" data-name="Grupo 1100064" transform="translate(-1065.469 -5285.637)">
    <g id="Grupo_1100063" data-name="Grupo 1100063">
      <g id="Grupo_1100062" data-name="Grupo 1100062">
        <path id="_12068" data-name="12068" d="M72.033,71.913c-8.038-1.11-16.53-.839-23.844,2.675C38.045,79.46,31.382,90.507,31.127,101.757s5.606,22.305,14.66,28.988,21,9.051,32.068,7.045c11.165-2.023,21.645-8.583,27.469-18.322,3.735-6.245,5.48-13.956,3.417-20.934a28.6,28.6,0,0,0-6.787-11.156A50.145,50.145,0,0,0,72.033,71.913Z" transform="translate(1044.631 5246.909)" fill="#ffd947"/>
        <g id="buying" transform="translate(1065.469 5285.637)">
          <g id="Grupo_1099876" data-name="Grupo 1099876" transform="translate(1.432 1.432)">
            <g id="Grupo_1099866" data-name="Grupo 1099866" transform="translate(0 8.592)">
              <path id="Trazado_874036" data-name="Trazado 874036" d="M43.959,52.823H38.231a14.306,14.306,0,0,0,5.728-11.456V32.775a8.6,8.6,0,0,0-8.592-8.592H25.344a9.939,9.939,0,0,1-7.017-2.864h-.143a8.6,8.6,0,0,0-8.592,8.592V41.367A14.314,14.314,0,0,0,21.663,55.5l-.029.215c-.2-.014-.387-.029-.587-.029a5.726,5.726,0,0,0-5.728,5.728V72.871h-1.9a3.814,3.814,0,0,1-3.823-3.823A3.811,3.811,0,0,0,8.06,66L6,64.451A5.347,5.347,0,0,1,4.766,57.2l.759-1.146a7.1,7.1,0,0,0,1.2-3.967,7.128,7.128,0,0,0-2.85-5.7l-.745-.558A5.347,5.347,0,0,1,1.9,38.589,11.745,11.745,0,0,0,3.864,32.1V24.184A17.179,17.179,0,0,1,21.048,7H32.5A17.179,17.179,0,0,1,49.687,24.184V32.1a11.745,11.745,0,0,0,1.962,6.487,5.347,5.347,0,0,1-1.231,7.246l-.745.558a7.128,7.128,0,0,0-2.85,5.7,6.245,6.245,0,0,0,.043.73Z" transform="translate(-1 -7)" fill="#656d78"/>
            </g>
            <g id="Grupo_1099867" data-name="Grupo 1099867" transform="translate(14.32 57.093)">
              <path id="Trazado_874037" data-name="Trazado 874037" d="M29.1,44.378l-6.644-3.322H19.592a12.875,12.875,0,0,1-2.248-.186l-.029.215c-.2-.014-.387-.029-.587-.029A5.726,5.726,0,0,0,11,46.784v8.592H22.456V58.24l8.606,1.317a.537.537,0,0,0,.014-.158l1.575-11.756A8.609,8.609,0,0,0,29.1,44.378Z" transform="translate(-11 -40.87)" fill="#b4dd7f"/>
            </g>
            <g id="Grupo_1099868" data-name="Grupo 1099868" transform="translate(34.382 54.415)">
              <path id="Trazado_874038" data-name="Trazado 874038" d="M42.179,39H27.86L26.6,48.451,25.024,60.207a.537.537,0,0,1-.014.158l10.009,1.547,3.737-2.492a2.2,2.2,0,0,1,3.422,1.833v.659h1.432a4.2,4.2,0,0,1,1.747.372L47.22,39Z" transform="translate(-25.01 -39)" fill="#ffeaa7"/>
            </g>
            <g id="Grupo_1099869" data-name="Grupo 1099869" transform="translate(52.983 80.19)">
              <path id="Trazado_874039" data-name="Trazado 874039" d="M70.935,58.6a4.107,4.107,0,0,1-4.124,4.124H38a4.3,4.3,0,0,0,4.3-4.3A3.969,3.969,0,0,0,42.038,57H70.821l.1,1.274a2.428,2.428,0,0,1,.014.329Z" transform="translate(-38 -57)" fill="#d3a06c"/>
            </g>
            <g id="Grupo_1099870" data-name="Grupo 1099870" transform="translate(54.73 45.823)">
              <path id="Trazado_874040" data-name="Trazado 874040" d="M67.544,33H41.769l-.687,8.592L39.22,64.876a4.23,4.23,0,0,1,2.291,2.492H70.294Z" transform="translate(-39.22 -33)" fill="#cf9e76"/>
            </g>
            <g id="Grupo_1099871" data-name="Grupo 1099871" transform="translate(14.32 71.599)">
              <path id="Trazado_874041" data-name="Trazado 874041" d="M22.456,53.864l8.606,1.317,10.009,1.547,3.737-2.492a2.2,2.2,0,0,1,3.422,1.833v.659h1.432A4.276,4.276,0,0,1,53.7,59.592a3.969,3.969,0,0,1,.258,1.432,4.3,4.3,0,0,1-4.3,4.3H22.456A11.453,11.453,0,0,1,11,53.864V51H22.456Z" transform="translate(-11 -51)" fill="#f0d0b4"/>
            </g>
            <g id="Grupo_1099872" data-name="Grupo 1099872" transform="translate(8.592 22.912)">
              <path id="Trazado_874042" data-name="Trazado 874042" d="M41.367,28.456v8.592a14.32,14.32,0,0,1-14.32,14.32H21.32a12.876,12.876,0,0,1-2.248-.186A14.314,14.314,0,0,1,7,37.048V25.592A8.6,8.6,0,0,1,15.592,17h.143a9.939,9.939,0,0,0,7.017,2.864H32.775A8.6,8.6,0,0,1,41.367,28.456Z" transform="translate(-7 -17)" fill="#f0d0b4"/>
            </g>
            <g id="Grupo_1099873" data-name="Grupo 1099873" transform="translate(54.415)">
              <path id="Trazado_874043" data-name="Trazado 874043" d="M56.828,28.365a2.329,2.329,0,0,1-4.153,0l-2.22-4.453H40.432A1.436,1.436,0,0,1,39,22.48V2.432A1.436,1.436,0,0,1,40.432,1H69.071A1.436,1.436,0,0,1,70.5,2.432V22.48a1.436,1.436,0,0,1-1.432,1.432H59.048Z" transform="translate(-39 -1)" fill="#e6e9ed"/>
            </g>
            <g id="Grupo_1099874" data-name="Grupo 1099874" transform="translate(63.007 5.728)">
              <path id="Trazado_874044" data-name="Trazado 874044" d="M59.32,8.594v.258a3.935,3.935,0,0,1-1.461,3.05l-5.7,4.554-5.7-4.554A3.935,3.935,0,0,1,45,8.852V8.594a3.5,3.5,0,0,1,1.933-3.136A4.5,4.5,0,0,1,48.909,5a4.39,4.39,0,0,1,3.107,1.289l.143.143.143-.143A4.39,4.39,0,0,1,55.41,5a4.5,4.5,0,0,1,1.976.458A3.5,3.5,0,0,1,59.32,8.594Z" transform="translate(-45 -5)" fill="#ff826e"/>
            </g>
            <g id="Grupo_1099875" data-name="Grupo 1099875" transform="translate(17.184 42.959)">
              <path id="Trazado_874045" data-name="Trazado 874045" d="M13,31H30.184a8.6,8.6,0,0,1-8.592,8.592A8.6,8.6,0,0,1,13,31Z" transform="translate(-13 -31)" fill="#ff826e"/>
            </g>
          </g>
          <g id="Grupo_1099877" data-name="Grupo 1099877" transform="translate(0 0)">
            <path id="Trazado_874046" data-name="Trazado 874046" d="M15.728,24.864a2.867,2.867,0,0,1,2.864,2.864h2.864a5.728,5.728,0,1,0-11.456,0h2.864A2.867,2.867,0,0,1,15.728,24.864Z" transform="translate(4.32 9.503)"/>
            <path id="Trazado_874047" data-name="Trazado 874047" d="M25.728,24.864a2.867,2.867,0,0,1,2.864,2.864h2.864a5.728,5.728,0,1,0-11.456,0h2.864A2.867,2.867,0,0,1,25.728,24.864Z" transform="translate(8.639 9.503)"/>
            <path id="Trazado_874048" data-name="Trazado 874048" d="M12,31.432a10.024,10.024,0,0,0,20.048,0V30H12Zm17.039,1.432a7.16,7.16,0,0,1-14.03,0Z" transform="translate(5.184 12.959)"/>
            <path id="Trazado_874049" data-name="Trazado 874049" d="M69.5,0H40.864A2.867,2.867,0,0,0,38,2.864V22.912a2.867,2.867,0,0,0,2.864,2.864H50l1.827,3.656h0a3.751,3.751,0,0,0,6.707,0l1.827-3.656H69.5a2.867,2.867,0,0,0,2.864-2.864V2.864A2.867,2.867,0,0,0,69.5,0Zm0,22.912H58.595l-2.619,5.237a.915.915,0,0,1-1.582,0l-2.621-5.237H40.864V2.864H69.5Z" transform="translate(16.415 0)"/>
            <path id="Trazado_874050" data-name="Trazado 874050" d="M52.592,18.716l6.589-5.27a5.314,5.314,0,0,0,2-4.17V9.021a4.9,4.9,0,0,0-2.726-4.41,5.953,5.953,0,0,0-5.865.375,5.955,5.955,0,0,0-5.867-.375A4.9,4.9,0,0,0,44,9.021v.255a5.322,5.322,0,0,0,2,4.173ZM46.864,9.021a2.056,2.056,0,0,1,1.141-1.849,3,3,0,0,1,1.33-.314,2.957,2.957,0,0,1,2.1.869l1.154,1.156,1.156-1.156a3.028,3.028,0,0,1,3.431-.557,2.06,2.06,0,0,1,1.141,1.85v.255a2.469,2.469,0,0,1-.929,1.936l-4.8,3.838-4.8-3.838a2.469,2.469,0,0,1-.929-1.936Z" transform="translate(19.007 1.733)"/>
            <path id="Trazado_874051" data-name="Trazado 874051" d="M49,26h2.864v2.864H49Z" transform="translate(21.167 11.231)"/>
            <path id="Trazado_874052" data-name="Trazado 874052" d="M53,26h2.864v2.864H53Z" transform="translate(22.894 11.231)"/>
            <path id="Trazado_874053" data-name="Trazado 874053" d="M45,26h2.864v2.864H45Z" transform="translate(19.439 11.231)"/>
            <path id="Trazado_874054" data-name="Trazado 874054" d="M85.808,43.231H57.389L56.7,51.823H48.77a5.708,5.708,0,0,1,2.2-3.859l.733-.55a6.781,6.781,0,0,0,1.574-9.189,10.241,10.241,0,0,1-1.724-5.7V24.616A18.637,18.637,0,0,0,32.935,6H21.48A18.637,18.637,0,0,0,2.864,24.616v7.913a10.241,10.241,0,0,1-1.724,5.7,6.78,6.78,0,0,0,1.575,9.189l.733.55a5.736,5.736,0,0,1,2.28,4.562,5.678,5.678,0,0,1-.958,3.163L4,56.841A6.78,6.78,0,0,0,5.579,66.03l2.059,1.545a2.4,2.4,0,0,1,.954,1.909,5.257,5.257,0,0,0,5.251,5.251H14.4a12.9,12.9,0,0,0,12.8,11.456H83.219a5.57,5.57,0,0,0,5.563-5.563c0-.147-.006-.292-.017-.445ZM67.3,46.1h8.592v4.3a4.3,4.3,0,1,1-8.592,0ZM27.384,57.807l5.835,2.917a7.226,7.226,0,0,1,2.692,2.347l-1.322,9.916-5.95-.914V61.847a7.125,7.125,0,0,0-1.256-4.04Zm-9.12-34.588a11.394,11.394,0,0,0,7.512,2.828H35.8a7.168,7.168,0,0,1,7.16,7.16V41.8A12.9,12.9,0,0,1,30.071,54.687H24.344A12.9,12.9,0,0,1,11.456,41.8V30.344a7.151,7.151,0,0,1,6.808-7.124ZM36.4,59.424a10.066,10.066,0,0,0-1.9-1.26L32.776,57.3a15.646,15.646,0,0,0,4.078-1.307ZM21.48,57.551a4.3,4.3,0,0,1,4.3,4.3v7.16H17.184v-7.16A4.3,4.3,0,0,1,21.48,57.551Zm18.437-2.864h3.043v1.432a5.728,5.728,0,0,0,11.456,0V54.687h2.058L54.867,74.753c-.149-.013-.3-.019-.453-.019h-.082a3.631,3.631,0,0,0-5.563-2.254l-3.279,2.185-8.073-1.242Zm11.635,0v1.432a2.864,2.864,0,0,1-5.728,0V54.687Zm-40.1,14.8a5.273,5.273,0,0,0-2.1-4.2L7.3,63.739a3.919,3.919,0,0,1-.909-5.31l.766-1.151a8.535,8.535,0,0,0,1.439-4.751,8.607,8.607,0,0,0-3.428-6.853l-.733-.55a3.92,3.92,0,0,1-.908-5.31,13.09,13.09,0,0,0,2.205-7.284V24.616A15.77,15.77,0,0,1,21.48,8.864H32.935A15.77,15.77,0,0,1,48.687,24.616v7.913a13.1,13.1,0,0,0,2.205,7.284,3.919,3.919,0,0,1-.909,5.31l-.735.55a8.6,8.6,0,0,0-3.384,6.15H42.212A15.672,15.672,0,0,0,45.823,41.8V26.048A11.469,11.469,0,0,0,34.367,14.592v2.864a8.6,8.6,0,0,1,8.592,8.592v.159a9.986,9.986,0,0,0-7.16-3.023H25.775a8.6,8.6,0,0,1-8.592-8.592H14.32a11.379,11.379,0,0,0,1.756,6.067,10.031,10.031,0,0,0-7.483,9.684V41.8a15.755,15.755,0,0,0,8.854,14.139,7.157,7.157,0,0,0-3.126,5.908V71.871h-.477a2.39,2.39,0,0,1-2.387-2.387ZM54.415,83.326H27.207A10.037,10.037,0,0,1,17.184,73.3V71.871h8.592v.839l-2.444,2.444,2.025,2.025,2.35-2.35,18.448,2.838,4.206-2.8a.792.792,0,0,1,1.191.637v2.1h2.864a2.864,2.864,0,1,1,0,5.728ZM60.033,46.1h4.406v4.3a7.16,7.16,0,0,0,14.32,0V46.1h4.406l2.52,31.5H59.365a5.762,5.762,0,0,0-1.7-1.853ZM83.219,83.326H59.374a5.684,5.684,0,0,0,.769-2.864h25.77c0,.054.006.11.006.165A2.7,2.7,0,0,1,83.219,83.326Z" transform="translate(0 2.592)"/>
          </g>
        </g>
      </g>
    </g>
  </g>
</svg>
