<svg xmlns="http://www.w3.org/2000/svg" width="91.751" height="91.751" viewBox="0 0 91.751 91.751">
  <g id="Grupo_1099963" data-name="Grupo 1099963" transform="translate(539.75 10419.131)">
    <g id="Grupo_1099962" data-name="Grupo 1099962">
      <g id="Grupo_1099961" data-name="Grupo 1099961">
        <g id="Grupo_1099960" data-name="Grupo 1099960">
          <path id="_12068" data-name="12068" d="M72.033,71.913c-8.038-1.11-16.53-.839-23.844,2.675C38.045,79.46,31.382,90.507,31.127,101.757s5.606,22.305,14.66,28.988,21,9.051,32.068,7.045c11.165-2.023,21.645-8.583,27.469-18.322,3.735-6.245,5.48-13.956,3.417-20.934a28.6,28.6,0,0,0-6.787-11.156A50.145,50.145,0,0,0,72.033,71.913Z" transform="translate(-560.619 -10479.441)" fill="#ffd947"/>
          <g id="Grupo_55654" data-name="Grupo 55654" transform="translate(-530.193 -10373.256)">
            <path id="Trazado_126017" data-name="Trazado 126017" d="M73.225,27.292a1.806,1.806,0,0,1-1.911-1.911V15.823H6.323V25.38a1.806,1.806,0,0,1-1.911,1.911A1.806,1.806,0,0,1,2.5,25.38V13.911A1.806,1.806,0,0,1,4.411,12H73.225a1.806,1.806,0,0,1,1.911,1.911V25.38A1.806,1.806,0,0,1,73.225,27.292Z" transform="translate(-2.5 -12)" fill="#62529b"/>
          </g>
          <g id="Grupo_55655" data-name="Grupo 55655" transform="translate(-495.786 -10390.459)">
            <path id="Trazado_126018" data-name="Trazado 126018" d="M13.411,40A1.806,1.806,0,0,1,11.5,38.084V9.411A1.806,1.806,0,0,1,13.411,7.5a1.806,1.806,0,0,1,1.911,1.911V38.084A1.806,1.806,0,0,1,13.411,40Z" transform="translate(-11.5 -7.5)" fill="#62529b"/>
          </g>
          <g id="Grupo_55656" data-name="Grupo 55656" transform="translate(-499.609 -10354.141)">
            <path id="Trazado_126019" data-name="Trazado 126019" d="M16.234,28.469A5.88,5.88,0,0,1,10.5,22.734,5.88,5.88,0,0,1,16.234,17a5.88,5.88,0,0,1,5.734,5.734A5.88,5.88,0,0,1,16.234,28.469Zm0-7.646a1.911,1.911,0,1,0,0,3.823,1.911,1.911,0,0,0,0-3.823Z" transform="translate(-10.5 -17)" fill="#62529b"/>
          </g>
          <g id="Grupo_55657" data-name="Grupo 55657" transform="translate(-505.344 -10338.849)">
            <path id="Trazado_126020" data-name="Trazado 126020" d="M30.026,32.469a1.806,1.806,0,0,1-1.911-1.911V28.646a3.612,3.612,0,0,0-3.823-3.823H16.646a3.612,3.612,0,0,0-3.823,3.823v1.911a1.806,1.806,0,0,1-1.911,1.911A1.806,1.806,0,0,1,9,30.557V28.646A7.668,7.668,0,0,1,16.646,21h7.646a7.668,7.668,0,0,1,7.646,7.646v1.911A1.806,1.806,0,0,1,30.026,32.469Z" transform="translate(-9 -21)" fill="#62529b"/>
          </g>
          <g id="Grupo_55658" data-name="Grupo 55658" transform="translate(-465.203 -10354.141)">
            <path id="Trazado_126021" data-name="Trazado 126021" d="M25.234,28.469A5.88,5.88,0,0,1,19.5,22.734,5.88,5.88,0,0,1,25.234,17a5.88,5.88,0,0,1,5.734,5.734A5.88,5.88,0,0,1,25.234,28.469Zm0-7.646a1.911,1.911,0,1,0,1.911,1.911A1.806,1.806,0,0,0,25.234,20.823Z" transform="translate(-19.5 -17)" fill="#62529b"/>
          </g>
          <g id="Grupo_55659" data-name="Grupo 55659" transform="translate(-470.937 -10338.849)">
            <path id="Trazado_126022" data-name="Trazado 126022" d="M39.026,32.469a1.806,1.806,0,0,1-1.911-1.911V28.646a3.612,3.612,0,0,0-3.823-3.823H25.646a3.612,3.612,0,0,0-3.823,3.823v1.911a1.806,1.806,0,0,1-1.911,1.911A1.806,1.806,0,0,1,18,30.557V28.646A7.668,7.668,0,0,1,25.646,21h7.646a7.668,7.668,0,0,1,7.646,7.646v1.911A1.806,1.806,0,0,1,39.026,32.469Z" transform="translate(-18 -21)" fill="#62529b"/>
          </g>
          <g id="Grupo_55660" data-name="Grupo 55660" transform="translate(-534.016 -10354.141)">
            <path id="Trazado_126023" data-name="Trazado 126023" d="M7.234,28.469A5.88,5.88,0,0,1,1.5,22.734,5.88,5.88,0,0,1,7.234,17a5.88,5.88,0,0,1,5.734,5.734A5.88,5.88,0,0,1,7.234,28.469Zm0-7.646a1.911,1.911,0,0,0,0,3.823,1.911,1.911,0,1,0,0-3.823Z" transform="translate(-1.5 -17)" fill="#62529b"/>
          </g>
          <g id="Grupo_55661" data-name="Grupo 55661" transform="translate(-539.75 -10338.849)">
            <path id="Trazado_126024" data-name="Trazado 126024" d="M21.026,32.469a1.806,1.806,0,0,1-1.911-1.911V28.646a3.612,3.612,0,0,0-3.823-3.823H7.646a3.612,3.612,0,0,0-3.823,3.823v1.911a1.806,1.806,0,0,1-1.911,1.911A1.806,1.806,0,0,1,0,30.557V28.646A7.668,7.668,0,0,1,7.646,21h7.646a7.668,7.668,0,0,1,7.646,7.646v1.911A1.806,1.806,0,0,1,21.026,32.469Z" transform="translate(0 -21)" fill="#62529b"/>
          </g>
          <g id="Grupo_55662" data-name="Grupo 55662" transform="translate(-512.99 -10419.131)">
            <path id="Trazado_126025" data-name="Trazado 126025" d="M15.41,38.229c-.382,0-.765,0-.765-.382A2.1,2.1,0,0,1,13.5,35.936L15.41,24.467,7.382,16.439A2.865,2.865,0,0,1,7,14.527c.382-.765.765-1.147,1.529-1.147l11.087-1.911,4.97-10.322C24.586.382,25.35,0,26.115,0a2.1,2.1,0,0,1,1.911,1.147l4.588,10.322L43.318,13c.765,0,1.147.765,1.529,1.147s0,1.529-.382,1.911l-8.028,8.028,1.911,11.469c0,.765,0,1.529-.765,1.911a1.706,1.706,0,0,1-1.911,0L26.115,32.5l-9.557,5.352a1.4,1.4,0,0,1-1.147.382ZM12.734,16.439l6.117,6.117c.382.382.765,1.147.382,1.529l-1.147,8.793,7.264-3.823a1.706,1.706,0,0,1,1.911,0l7.264,3.823L33,24.467c0-.765,0-1.147.382-1.529L39.5,16.821l-8.028-1.147c-.765,0-1.147-.382-1.529-1.147L26.5,6.881l-3.441,7.646a2.92,2.92,0,0,0-1.911.765Z" transform="translate(-7 0)" fill="#62529b"/>
          </g>
        </g>
      </g>
    </g>
  </g>
</svg>
