<svg xmlns="http://www.w3.org/2000/svg" width="78.501" height="87.3" viewBox="0 0 78.501 87.3">
  <g id="Grupo_1100061" data-name="Grupo 1100061" transform="translate(-760.75 -5298.09)">
    <g id="Grupo_1100060" data-name="Grupo 1100060">
      <g id="Grupo_1100059" data-name="Grupo 1100059">
        <path id="_12068" data-name="12068" d="M72.033,71.913c-8.038-1.11-16.53-.839-23.844,2.675C38.045,79.46,31.382,90.507,31.127,101.757s5.606,22.305,14.66,28.988,21,9.051,32.068,7.045c11.165-2.023,21.645-8.583,27.469-18.322,3.735-6.245,5.48-13.956,3.417-20.934a28.6,28.6,0,0,0-6.787-11.156A50.145,50.145,0,0,0,72.033,71.913Z" transform="translate(729.631 5246.909)" fill="#ffd947"/>
        <g id="purchase" transform="translate(764 5297.921)">
          <g id="Grupo_1099887" data-name="Grupo 1099887" transform="translate(1.055 1.223)">
            <g id="Grupo_1099882" data-name="Grupo 1099882" transform="translate(13.17 0)">
              <g id="Grupo_1099881" data-name="Grupo 1099881">
                <g id="Grupo_1099880" data-name="Grupo 1099880">
                  <g id="Grupo_1099879" data-name="Grupo 1099879">
                    <g id="Grupo_1099878" data-name="Grupo 1099878">
                      <path id="Trazado_874055" data-name="Trazado 874055" d="M150.33,29.367a24.679,24.679,0,1,0-46.024,15.053,28.359,28.359,0,0,1,3.711,13.892V76.426h24.329v-8.3a2.976,2.976,0,0,1,3.224-2.966l9.153.764a5.34,5.34,0,0,0,5.784-5.321v-9.24a3.426,3.426,0,0,1,2.165-3.186l3.034-1.2a3.426,3.426,0,0,0,1.531-5.172l-4.649-6.538a12.8,12.8,0,0,1-2.259-5.9Z" transform="translate(-101.153 -7.664)" fill="#f9eae2"/>
                      <path id="Trazado_874056" data-name="Trazado 874056" d="M291.775,41.806l-4.649-6.538a12.8,12.8,0,0,1-2.259-5.9A24.682,24.682,0,0,0,260.2,7.665c-.8.005-1.595.05-2.376.129a24.7,24.7,0,0,1,17.865,20.8,12.8,12.8,0,0,0,2.259,5.9l4.649,6.538a3.426,3.426,0,0,1-1.531,5.172l-3.034,1.2a3.426,3.426,0,0,0-2.165,3.186V59.83a5.34,5.34,0,0,1-5.784,5.321l-9.153-.764a2.976,2.976,0,0,0-3.224,2.966v9.073h9.177v-8.3a2.976,2.976,0,0,1,3.224-2.966l9.153.764a5.34,5.34,0,0,0,5.784-5.321v-9.24a3.427,3.427,0,0,1,2.165-3.186l3.034-1.2A3.426,3.426,0,0,0,291.775,41.806Z" transform="translate(-235.69 -7.664)" fill="#f5dbcc"/>
                      <path id="Trazado_874057" data-name="Trazado 874057" d="M148.277,453.511H122.594a4.158,4.158,0,1,1,.262-8.308l25.632,1.62a3.347,3.347,0,0,1-.211,6.688Z" transform="translate(-116.006 -383.667)" fill="#9bc4f9"/>
                      <path id="Trazado_874058" data-name="Trazado 874058" d="M274.706,454.435l-6.051-.382v3.723a3.347,3.347,0,0,1-3.347,3.347h9.187a3.347,3.347,0,0,0,.211-6.688Z" transform="translate(-242.223 -391.28)" fill="#7fb2f9"/>
                    </g>
                  </g>
                </g>
              </g>
            </g>
            <g id="Grupo_1099886" data-name="Grupo 1099886" transform="translate(0 2.314)">
              <circle id="Elipse_11585" data-name="Elipse 11585" cx="21.443" cy="21.443" r="21.443" transform="translate(0 0)" fill="#f4e580"/>
              <path id="Trazado_874059" data-name="Trazado 874059" d="M131.913,24.122a21.525,21.525,0,0,0-4.594.495,21.447,21.447,0,0,1,0,41.9,21.445,21.445,0,1,0,4.594-42.392Z" transform="translate(-110.469 -24.122)" fill="#ffd064"/>
              <g id="Grupo_1099885" data-name="Grupo 1099885" transform="translate(10.495 14.349)">
                <g id="Grupo_1099884" data-name="Grupo 1099884" transform="translate(0)">
                  <g id="Grupo_1099883" data-name="Grupo 1099883">
                    <path id="Trazado_874060" data-name="Trazado 874060" d="M101.759,145.752H84.4a2.267,2.267,0,0,1-2.251-2.54l1.824-15.059a2.267,2.267,0,0,1,2.251-1.995H99.935a2.267,2.267,0,0,1,2.251,1.995l1.824,15.059a2.268,2.268,0,0,1-2.251,2.54Z" transform="translate(-82.13 -126.159)" fill="#db636e"/>
                  </g>
                </g>
                <path id="Trazado_874061" data-name="Trazado 874061" d="M82.147,234.784a2.267,2.267,0,0,0,2.251,2.54h17.362a2.267,2.267,0,0,0,2.251-2.54l-.251-2.069H82.4Z" transform="translate(-82.13 -217.731)" fill="#d84a54"/>
              </g>
            </g>
          </g>
          <g id="Grupo_1099889" data-name="Grupo 1099889" transform="translate(0 0.169)">
            <g id="Grupo_1099888" data-name="Grupo 1099888" transform="translate(0 0)">
              <path id="Trazado_874062" data-name="Trazado 874062" d="M71.169,34.754l-4.649-6.538A11.788,11.788,0,0,1,64.448,22.8,25.7,25.7,0,0,0,38.9.169h-.174a25.923,25.923,0,0,0-11.543,2.8A22.761,22.761,0,0,0,22.5,2.483,22.523,22.523,0,0,0,0,24.981,22.258,22.258,0,0,0,4.9,39a1.055,1.055,0,1,0,1.649-1.315,20.17,20.17,0,0,1-4.438-12.7A20.389,20.389,0,0,1,35.2,9.035a1.055,1.055,0,0,0,1.316-1.649,22.422,22.422,0,0,0-6.2-3.516,23.55,23.55,0,0,1,8.427-1.591H38.9A23.6,23.6,0,0,1,62.354,23.052,13.9,13.9,0,0,0,64.8,29.439l4.649,6.538a2.371,2.371,0,0,1-1.06,3.58l-3.034,1.2a4.457,4.457,0,0,0-2.832,4.167v9.239a4.282,4.282,0,0,1-4.642,4.27l-9.153-.764a4.034,4.034,0,0,0-4.367,4.017v1.488l-22.219-1.4v-9.9a28.35,28.35,0,0,0-.348-4.4c.234.007.468.012.7.012A22.523,22.523,0,0,0,45,24.981,22.269,22.269,0,0,0,40.181,11.07a1.055,1.055,0,1,0-1.657,1.305,20.179,20.179,0,0,1,4.363,12.606A20.412,20.412,0,0,1,22.5,45.37,20.177,20.177,0,0,1,9.871,40.99a1.055,1.055,0,0,0-1.307,1.655A22.222,22.222,0,0,0,19.629,47.3a26.314,26.314,0,0,1,.405,4.57v9.887a5.212,5.212,0,0,0,.779,10.365H46.5a4.4,4.4,0,0,0,.278-8.8l-.3-.019V61.686a1.92,1.92,0,0,1,2.082-1.915l9.153.764a6.4,6.4,0,0,0,6.926-6.372V44.923a2.359,2.359,0,0,1,1.5-2.205l3.034-1.2a4.481,4.481,0,0,0,2-6.764ZM46.64,65.431a2.293,2.293,0,0,1-.145,4.581H20.813a3.1,3.1,0,0,1-.006-6.207c.192,0-1.5-.1,25.834,1.626Z" transform="translate(0 -0.169)"/>
              <path id="Trazado_874063" data-name="Trazado 874063" d="M86.631,70.508A5.6,5.6,0,0,0,81.043,76.1V77.28H79.775a3.325,3.325,0,0,0-3.3,2.922L74.652,95.261a3.323,3.323,0,0,0,3.3,3.721H95.312a3.323,3.323,0,0,0,3.3-3.722L96.786,80.2a3.325,3.325,0,0,0-3.3-2.922H92.22V76.1A5.6,5.6,0,0,0,86.631,70.508ZM83.152,76.1a3.479,3.479,0,0,1,6.958,0V77.28H83.152V76.1ZM96.516,95.514a1.212,1.212,0,0,1-1.2,1.358H77.95a1.212,1.212,0,0,1-1.2-1.358l.138-1.141H96.378ZM93.488,79.389a1.213,1.213,0,0,1,1.2,1.067l1.431,11.808H77.14l1.431-11.808a1.214,1.214,0,0,1,1.2-1.067h1.268V80.63a1.055,1.055,0,0,0,2.109,0V79.389H90.11V80.63a1.055,1.055,0,0,0,2.109,0V79.389h1.268Z" transform="translate(-64.133 -60.617)"/>
            </g>
          </g>
        </g>
      </g>
    </g>
  </g>
</svg>
