<svg xmlns="http://www.w3.org/2000/svg" xmlns:xlink="http://www.w3.org/1999/xlink" width="78.501" height="83.76" viewBox="0 0 78.501 83.76">
  <defs>
    <clipPath id="clip-path">
      <rect id="Rect치ngulo_30388" data-name="Rect치ngulo 30388" width="60" height="69" transform="translate(-0.461 -0.467)" fill="none"/>
    </clipPath>
  </defs>
  <g id="Grupo_1099904" data-name="Grupo 1099904" transform="translate(-445.999 -1969.63)">
    <g id="Grupo_1099903" data-name="Grupo 1099903">
      <g id="Grupo_1099902" data-name="Grupo 1099902">
        <g id="Grupo_1099901" data-name="Grupo 1099901">
          <g id="Grupo_1099900" data-name="Grupo 1099900">
            <g id="Grupo_1099899" data-name="Grupo 1099899">
              <g id="Grupo_1099898" data-name="Grupo 1099898">
                <g id="Grupo_1099897" data-name="Grupo 1099897">
                  <g id="Grupo_1099896" data-name="Grupo 1099896">
                    <path id="_12068" data-name="12068" d="M72.033,71.913c-8.038-1.11-16.53-.839-23.844,2.675C38.045,79.46,31.382,90.507,31.127,101.757s5.606,22.305,14.66,28.988,21,9.051,32.068,7.045c11.165-2.023,21.645-8.583,27.469-18.322,3.735-6.245,5.48-13.956,3.417-20.934a28.6,28.6,0,0,0-6.787-11.156A50.145,50.145,0,0,0,72.033,71.913Z" transform="translate(414.88 1914.909)" fill="#ffd947"/>
                    <g id="Grupo_55579" data-name="Grupo 55579" transform="translate(164.577 326.956)">
                      <g id="Grupo_55563" data-name="Grupo 55563" transform="translate(295.135 1645.14)">
                        <path id="Trazado_125452" data-name="Trazado 125452" d="M-87.459,2455.776a24.123,24.123,0,0,1-24.123,24.124,24.123,24.123,0,0,1-24.123-24.124,24.123,24.123,0,0,1,24.123-24.124,24.123,24.123,0,0,1,24.123,24.124Zm0,0" transform="translate(137.18 -2421.468)" fill="#ccf"/>
                        <path id="Trazado_125453" data-name="Trazado 125453" d="M-58.541,2492.735a16.082,16.082,0,0,1-16.082,16.082,16.082,16.082,0,0,1-16.082-16.082,16.082,16.082,0,0,1,16.082-16.083,16.082,16.082,0,0,1,16.082,16.083Zm0,0" transform="translate(100.221 -2458.426)" fill="#fff"/>
                        <path id="Trazado_125454" data-name="Trazado 125454" d="M-29.624,2529.694a8.042,8.042,0,0,1-8.041,8.041,8.042,8.042,0,0,1-8.041-8.041,8.042,8.042,0,0,1,8.041-8.041,8.042,8.042,0,0,1,8.041,8.041Zm0,0" transform="translate(63.262 -2495.385)" fill="#ccf"/>
                        <g id="Grupo_55562" data-name="Grupo 55562" transform="translate(0)">
                          <g id="Grupo_55561" data-name="Grupo 55561" transform="translate(0)" clip-path="url(#clip-path)">
                            <path id="Trazado_125455" data-name="Trazado 125455" d="M126.474,2382.153l-2.68,10.721,10.722-2.68v-8.041Zm0,0" transform="translate(-75.949 -2380.813)" fill="#b9f"/>
                            <path id="Trazado_125456" data-name="Trazado 125456" d="M-129.562,2431.51l-5.433,9.769a1.34,1.34,0,0,0,.52,1.823,1.341,1.341,0,0,0,1.823-.52l5.532-9.947a25.332,25.332,0,0,0,9.379,1.791,25.332,25.332,0,0,0,9.379-1.791l5.532,9.947a1.341,1.341,0,0,0,1.823.52,1.341,1.341,0,0,0,.52-1.823l-5.433-9.769a25.488,25.488,0,0,0,13.644-22.548,25.362,25.362,0,0,0-6.545-17.024l4.014-4.014,10.361-2.59a1.341,1.341,0,0,0,1.016-1.3v-8.041a1.34,1.34,0,0,0-1.34-1.34h-8.041a1.341,1.341,0,0,0-1.3,1.015l-2.59,10.361-4.013,4.013a25.366,25.366,0,0,0-17.024-6.544,25.493,25.493,0,0,0-25.464,25.464,25.488,25.488,0,0,0,13.644,22.548Zm37.794-54.177h5.655v5.655l-7.539,1.885Zm-25.974,8.845a22.691,22.691,0,0,1,15.126,5.761l-3.8,3.8a17.345,17.345,0,0,0-11.329-4.2,17.442,17.442,0,0,0-17.422,17.423,17.442,17.442,0,0,0,17.422,17.422,17.442,17.442,0,0,0,17.422-17.422,17.345,17.345,0,0,0-4.2-11.33l3.8-3.8a22.686,22.686,0,0,1,5.762,15.126,22.809,22.809,0,0,1-22.783,22.783,22.809,22.809,0,0,1-22.783-22.783,22.809,22.809,0,0,1,22.783-22.783Zm6.7,22.783a6.709,6.709,0,0,1-6.7,6.7,6.709,6.709,0,0,1-6.7-6.7,6.709,6.709,0,0,1,6.7-6.7,6.663,6.663,0,0,1,3.692,1.113l-4.64,4.64a1.343,1.343,0,0,0,0,1.9,1.342,1.342,0,0,0,1.9,0l4.64-4.641a6.663,6.663,0,0,1,1.113,3.693Zm-1.085-7.511a9.337,9.337,0,0,0-5.616-1.871,9.392,9.392,0,0,0-9.381,9.382,9.392,9.392,0,0,0,9.381,9.381,9.392,9.392,0,0,0,9.381-9.381,9.335,9.335,0,0,0-1.871-5.616l3.813-3.813a14.679,14.679,0,0,1,3.418,9.429,14.759,14.759,0,0,1-14.742,14.742,14.759,14.759,0,0,1-14.742-14.742,14.759,14.759,0,0,1,14.742-14.742,14.673,14.673,0,0,1,9.428,3.418Zm0,0" transform="translate(143.34 -2374.653)" fill="#5e5385"/>
                          </g>
                        </g>
                      </g>
                      <rect id="Rect치ngulo_30390" data-name="Rect치ngulo 30390" width="72" height="72" transform="translate(287.674 1642.674)" fill="none" opacity="0.616"/>
                    </g>
                  </g>
                </g>
              </g>
            </g>
          </g>
        </g>
      </g>
    </g>
  </g>
</svg>
