<svg xmlns="http://www.w3.org/2000/svg" width="104.486" height="104.485" viewBox="0 0 104.486 104.485">
  <g id="Grupo_1099950" data-name="Grupo 1099950" transform="translate(1493.243 10426.777)">
    <g id="Grupo_1099949" data-name="Grupo 1099949">
      <g id="Grupo_1099948" data-name="Grupo 1099948">
        <g id="Grupo_1099947" data-name="Grupo 1099947">
          <path id="_12068" data-name="12068" d="M72.033,71.913c-8.038-1.11-16.53-.839-23.844,2.675C38.045,79.46,31.382,90.507,31.127,101.757s5.606,22.305,14.66,28.988,21,9.051,32.068,7.045c11.165-2.023,21.645-8.583,27.469-18.322,3.735-6.245,5.48-13.956,3.417-20.934a28.6,28.6,0,0,0-6.787-11.156A50.145,50.145,0,0,0,72.033,71.913Z" transform="translate(-1511.369 -10479.441)" fill="#ffd947"/>
          <g id="Grupo_55639" data-name="Grupo 55639" transform="translate(-1484.536 -10418.07)">
            <path id="Trazado_126002" data-name="Trazado 126002" d="M45.536,89.072A43.536,43.536,0,1,1,89.072,45.536,43.664,43.664,0,0,1,45.536,89.072Zm0-82.718A39.182,39.182,0,1,0,84.718,45.536,39.019,39.019,0,0,0,45.536,6.354Z" transform="translate(-2 -2)" fill="#62529b"/>
          </g>
          <g id="Grupo_55640" data-name="Grupo 55640" transform="translate(-1443.177 -10426.777)">
            <path id="Trazado_126003" data-name="Trazado 126003" d="M13.677,21.768A2.057,2.057,0,0,1,11.5,19.591V2.177A2.057,2.057,0,0,1,13.677,0a2.057,2.057,0,0,1,2.177,2.177V19.591A2.057,2.057,0,0,1,13.677,21.768Z" transform="translate(-11.5)" fill="#62529b"/>
          </g>
          <g id="Grupo_55641" data-name="Grupo 55641" transform="translate(-1443.177 -10426.777)">
            <path id="Trazado_126004" data-name="Trazado 126004" d="M13.677,21.768A2.057,2.057,0,0,1,11.5,19.591V2.177A2.057,2.057,0,0,1,13.677,0a2.057,2.057,0,0,1,2.177,2.177V19.591A2.057,2.057,0,0,1,13.677,21.768Z" transform="translate(-11.5)" fill="#62529b"/>
          </g>
          <g id="Grupo_55642" data-name="Grupo 55642" transform="translate(-1410.525 -10376.711)">
            <path id="Trazado_126005" data-name="Trazado 126005" d="M38.591,15.854H21.177A2.057,2.057,0,0,1,19,13.677,2.057,2.057,0,0,1,21.177,11.5H38.591a2.057,2.057,0,0,1,2.177,2.177A2.057,2.057,0,0,1,38.591,15.854Z" transform="translate(-19 -11.5)" fill="#62529b"/>
          </g>
          <g id="Grupo_55643" data-name="Grupo 55643" transform="translate(-1443.177 -10344.06)">
            <path id="Trazado_126006" data-name="Trazado 126006" d="M13.677,40.768A2.057,2.057,0,0,1,11.5,38.591V21.177A2.057,2.057,0,0,1,13.677,19a2.057,2.057,0,0,1,2.177,2.177V38.591A2.057,2.057,0,0,1,13.677,40.768Z" transform="translate(-11.5 -19)" fill="#62529b"/>
          </g>
          <g id="Grupo_55644" data-name="Grupo 55644" transform="translate(-1493.243 -10376.711)">
            <path id="Trazado_126007" data-name="Trazado 126007" d="M19.591,15.854H2.177A2.057,2.057,0,0,1,0,13.677,2.057,2.057,0,0,1,2.177,11.5H19.591a2.057,2.057,0,0,1,2.177,2.177A2.057,2.057,0,0,1,19.591,15.854Z" transform="translate(0 -11.5)" fill="#62529b"/>
          </g>
          <g id="Grupo_55645" data-name="Grupo 55645" transform="translate(-1449.707 -10396.302)">
            <path id="Trazado_126008" data-name="Trazado 126008" d="M18.707,24.414a8.707,8.707,0,1,1,8.707-8.707A8.733,8.733,0,0,1,18.707,24.414Zm0-13.061a4.113,4.113,0,0,0-4.354,4.354,4.113,4.113,0,0,0,4.354,4.354,4.113,4.113,0,0,0,4.354-4.354A4.113,4.113,0,0,0,18.707,11.354Z" transform="translate(-10 -7)" fill="#62529b"/>
          </g>
          <g id="Grupo_55646" data-name="Grupo 55646" transform="translate(-1458.414 -10374.534)">
            <path id="Trazado_126009" data-name="Trazado 126009" d="M40.652,29.414a2.057,2.057,0,0,1-2.177-2.177V22.884a6.7,6.7,0,0,0-6.53-6.53H18.884a6.7,6.7,0,0,0-6.53,6.53v4.354a2.057,2.057,0,0,1-2.177,2.177A2.057,2.057,0,0,1,8,27.238V22.884A10.778,10.778,0,0,1,18.884,12H31.945A10.778,10.778,0,0,1,42.829,22.884v4.354A2.057,2.057,0,0,1,40.652,29.414Z" transform="translate(-8 -12)" fill="#62529b"/>
          </g>
        </g>
      </g>
    </g>
  </g>
</svg>
