<svg xmlns="http://www.w3.org/2000/svg" width="85.79" height="102.84" viewBox="0 0 85.79 102.84">
  <g id="Grupo_1099943" data-name="Grupo 1099943" transform="translate(-757.105 -1321.834)">
    <g id="Grupo_1099942" data-name="Grupo 1099942">
      <g id="Grupo_1099941" data-name="Grupo 1099941">
        <path id="_12068" data-name="12068" d="M72.033,71.913c-8.038-1.11-16.53-.839-23.844,2.675C38.045,79.46,31.382,90.507,31.127,101.757s5.606,22.305,14.66,28.988,21,9.051,32.068,7.045c11.165-2.023,21.645-8.583,27.469-18.322,3.735-6.245,5.48-13.956,3.417-20.934a28.6,28.6,0,0,0-6.787-11.156A50.145,50.145,0,0,0,72.033,71.913Z" transform="translate(729.631 1263.131)" fill="#ffd947"/>
        <g id="_011-knight" data-name="011-knight" transform="translate(755.105 1321.809)">
          <g id="Grupo_55635" data-name="Grupo 55635" transform="translate(10.579 0.025)">
            <path id="Trazado_125998" data-name="Trazado 125998" d="M61.908,81.418c-.858,0-1.716-.429-1.716-1.287l-1.716-3.861c-4.718-9.008-4.718-19.3-.858-28.74,6.005-13.3.858-29.168-11.153-36.89l-8.15-4.718v9.008A2.189,2.189,0,0,1,36.6,17.076L13.008,23.939c-3,.429-4.718,3-4.718,6.005V33.8a3.252,3.252,0,0,0,.858,1.716c.429.429.858.429,1.716.429l21.018-1.716a2.359,2.359,0,0,1,2.145,1.287,3.214,3.214,0,0,1-.429,2.145l-1.287,1.716A62.638,62.638,0,0,0,16.868,79.273a2.026,2.026,0,0,1-2.145,2.145,2.026,2.026,0,0,1-2.145-2.145A68.676,68.676,0,0,1,26.734,38.952L10.863,40.239a6.451,6.451,0,0,1-4.718-1.716A6.888,6.888,0,0,1,4,33.8V29.944a10.556,10.556,0,0,1,7.721-10.295l22.305-6.434V2.063c0-.858.429-1.287,1.287-1.716a1.915,1.915,0,0,1,2.145,0L48.611,7.21c14.155,9.008,19.732,27.024,12.868,42.037a29.644,29.644,0,0,0,.429,24.879l1.716,3.861a2.843,2.843,0,0,1-.858,3c0,.429-.429.429-.858.429Z" transform="translate(-4 -0.025)" fill="#62529b"/>
          </g>
          <g id="Grupo_55636" data-name="Grupo 55636" transform="translate(44.895 34.234)">
            <path id="Trazado_125999" data-name="Trazado 125999" d="M18.434,55.184a1.576,1.576,0,0,1-1.287-.429C16.718,54.326,12,50.466,12,40.171c0-6.005,2.145-10.295,4.289-14.155,2.145-4.289,4.289-8.579,4.289-15.871A2.026,2.026,0,0,1,22.724,8a2.026,2.026,0,0,1,2.145,2.145c0,8.579-2.574,13.726-4.718,18.016-2.145,3.861-3.861,6.863-3.861,12.011,0,8.15,3.432,11.153,3.432,11.153a2.642,2.642,0,0,1,.429,3,3.252,3.252,0,0,1-1.716.858Z" transform="translate(-12 -8)" fill="#62529b"/>
          </g>
          <g id="Grupo_55637" data-name="Grupo 55637" transform="translate(2 85.707)">
            <path id="Trazado_126000" data-name="Trazado 126000" d="M85.645,37.158H4.145A2.026,2.026,0,0,1,2,35.013V26.434A6.6,6.6,0,0,1,8.434,20H81.355a6.6,6.6,0,0,1,6.434,6.434v8.579A2.026,2.026,0,0,1,85.645,37.158ZM6.289,32.868H83.5V26.434a2.026,2.026,0,0,0-2.145-2.145H8.434a2.026,2.026,0,0,0-2.145,2.145Z" transform="translate(-2 -20)" fill="#62529b"/>
          </g>
          <g id="Grupo_55638" data-name="Grupo 55638" transform="translate(10.579 77.128)">
            <path id="Trazado_126001" data-name="Trazado 126001" d="M70.487,30.868H6.145A2.026,2.026,0,0,1,4,28.724V24.434A6.6,6.6,0,0,1,10.434,18H66.2a6.6,6.6,0,0,1,6.434,6.434v4.289A2.026,2.026,0,0,1,70.487,30.868Zm-62.2-4.289H68.342V24.434A2.026,2.026,0,0,0,66.2,22.289H10.434a2.026,2.026,0,0,0-2.145,2.145Z" transform="translate(-4 -18)" fill="#62529b"/>
          </g>
        </g>
      </g>
    </g>
  </g>
</svg>
