<svg xmlns="http://www.w3.org/2000/svg" xmlns:xlink="http://www.w3.org/1999/xlink" width="151.991" height="124.833" viewBox="0 0 151.991 124.833">
  <defs>
    <clipPath id="clip-path">
      <rect id="Rectángulo_30459" data-name="Rectángulo 30459" width="112" height="92" transform="translate(0.206 -0.256)" fill="none"/>
    </clipPath>
  </defs>
  <g id="Grupo_1099930" data-name="Grupo 1099930" transform="translate(-298.504 -2729.696)">
    <g id="Grupo_1099929" data-name="Grupo 1099929">
      <g id="Grupo_1099928" data-name="Grupo 1099928">
        <g id="Grupo_1099927" data-name="Grupo 1099927">
          <path id="_12068" data-name="12068" d="M103.949,72.366C89.64,70.39,74.525,70.874,61.5,77.128,43.447,85.8,31.588,105.464,31.133,125.491s9.978,39.705,26.1,51.6S94.6,193.2,114.312,189.632c19.875-3.6,38.53-15.279,48.9-32.614,6.648-11.116,9.755-24.842,6.082-37.264-2.217-7.5-6.75-14.14-12.082-19.858A89.263,89.263,0,0,0,103.949,72.366Z" transform="translate(273.512 2663.667)" fill="#ffd947"/>
          <g id="Grupo_1099289" data-name="Grupo 1099289" transform="translate(247.64 2982.56) rotate(-90)">
            <path id="Trazado_873104" data-name="Trazado 873104" d="M149.557,395.548a1.582,1.582,0,1,0-.106-2.456A1.573,1.573,0,0,0,149.557,395.548Z" transform="translate(13.93 -213.31)" fill="#fff"/>
            <path id="Trazado_873105" data-name="Trazado 873105" d="M417.219,416a1.582,1.582,0,1,0-.105-2.456A1.573,1.573,0,0,0,417.219,416Z" transform="translate(-222.435 -227.035)" fill="#ffd947"/>
            <path id="Trazado_873106" data-name="Trazado 873106" d="M303.26,44.546a1.582,1.582,0,1,0-.106-2.456A1.573,1.573,0,0,0,303.26,44.546Z" transform="translate(-52.901 9.151)" fill="#7d6eb2"/>
            <path id="Trazado_873109" data-name="Trazado 873109" d="M339.452,404.413a3.448,3.448,0,1,0-1.687-4.918A3.468,3.468,0,0,0,339.452,404.413Z" transform="translate(-106.207 -216.949)" fill="#26aab7"/>
            <path id="Trazado_873110" data-name="Trazado 873110" d="M390.262,440.006a3.448,3.448,0,1,0-1.687-4.918A3.468,3.468,0,0,0,390.262,440.006Z" transform="translate(-181.42 -237.38)" fill="#7d6eb2"/>
            <path id="Trazado_873111" data-name="Trazado 873111" d="M176.115,56.142a3.448,3.448,0,1,0-1.687-4.918A3.468,3.468,0,0,0,176.115,56.142Z" transform="translate(-32.569 42.202)" fill="#7d6eb2"/>
            <path id="Trazado_873113" data-name="Trazado 873113" d="M321.56,66.974a3.448,3.448,0,1,0-1.687-4.918A3.468,3.468,0,0,0,321.56,66.974Z" transform="translate(-76.565 -0.895)" fill="#ffd947"/>
            <circle id="Elipse_11485" data-name="Elipse 11485" cx="1.689" cy="1.689" r="1.689" transform="translate(149.167 187.566)" fill="none" stroke="#26aab7" stroke-linecap="round" stroke-linejoin="round" stroke-width="1.5"/>
          </g>
          <g id="Grupo_55612" data-name="Grupo 55612" transform="translate(320.221 2734.682)">
            <g id="Grupo_55608" data-name="Grupo 55608" transform="translate(3.574 3.573)">
              <path id="Trazado_125974" data-name="Trazado 125974" d="M-1440.277,7223h-13.163l4.388,35.1h13.163Zm0,0" transform="translate(1477.572 -7168.244)" fill="#fff"/>
              <rect id="Rectángulo_30457" data-name="Rectángulo 30457" width="26.326" height="26.326" transform="translate(15.357 28.434)" fill="#a8dde2"/>
              <path id="Trazado_125975" data-name="Trazado 125975" d="M-1393.44,7069.331v26.326c21.914,2.192,41.879-.487,55.286,26.326V7043c-13.437,26.873-33.132,24.111-55.286,26.327Zm0,0" transform="translate(1435.123 -7040.896)" fill="#fff"/>
              <path id="Trazado_125976" data-name="Trazado 125976" d="M-1204.44,7148l13.163,2.193v13.163l-13.163,2.194" transform="translate(1301.409 -7115.182)" fill="#a8dde2"/>
              <g id="Grupo_55607" data-name="Grupo 55607" transform="translate(0 0)">
                <g id="Grupo_55606" data-name="Grupo 55606" transform="translate(0 0)" clip-path="url(#clip-path)">
                  <rect id="Rectángulo_30458" data-name="Rectángulo 30458" width="13.163" height="17.551" transform="translate(2.194 32.822)" fill="#fff"/>
                  <path id="Trazado_125977" data-name="Trazado 125977" d="M-1425.447,7068.442l-11.33-1.888V7037.7a2.192,2.192,0,0,0-1.69-2.134,2.191,2.191,0,0,0-2.466,1.154c-12.778,25.556-30.542,22.841-53.426,25.113h-26.225a2.194,2.194,0,0,0-2.194,2.194v2.194h-10.969a2.194,2.194,0,0,0-2.194,2.193v17.551a2.194,2.194,0,0,0,2.194,2.194h10.969v2.194a2.193,2.193,0,0,0,2.194,2.194h6.839l4.148,33.18a2.194,2.194,0,0,0,2.177,1.922h13.163a2.192,2.192,0,0,0,1.644-.741,2.193,2.193,0,0,0,.532-1.724l-4.079-32.637h1.8c21.845,2.168,40.666-.4,53.426,25.114a2.193,2.193,0,0,0,1.962,1.213,2.2,2.2,0,0,0,2.194-2.195v-28.855l11.33-1.889a2.194,2.194,0,0,0,1.833-2.164v-13.164a2.194,2.194,0,0,0-1.833-2.164Zm-106.105,15.327v-13.164h8.776v13.164Zm13.163-17.551h21.939v21.938h-21.939Zm21.647,57.041h-8.741l-3.839-30.714h8.741Zm55.577-14.709c-13.357-19.667-31.6-18.493-50.9-20.2v-22.328c19.2-1.7,37.491-.431,50.9-20.193Zm13.163-26.639-8.776,1.462V7071l8.776,1.463Zm0,0" transform="translate(1535.94 -7035.591)" fill="#26aab7"/>
                </g>
              </g>
            </g>
            <rect id="Rectángulo_30464" data-name="Rectángulo 30464" width="120" height="98" transform="translate(-0.221 0.318)" fill="#fff" opacity="0"/>
          </g>
        </g>
      </g>
    </g>
  </g>
</svg>
