<svg xmlns="http://www.w3.org/2000/svg" width="151.991" height="133.289" viewBox="0 0 151.991 133.289">
  <g id="Grupo_1099920" data-name="Grupo 1099920" transform="translate(-1144.999 -2916.241)">
    <g id="Grupo_1099919" data-name="Grupo 1099919">
      <g id="Grupo_1099918" data-name="Grupo 1099918">
        <g id="Grupo_1099917" data-name="Grupo 1099917">
          <path id="_12068" data-name="12068" d="M103.949,72.366C89.64,70.39,74.525,70.874,61.5,77.128,43.447,85.8,31.588,105.464,31.133,125.491s9.978,39.705,26.1,51.6S94.6,193.2,114.312,189.632c19.875-3.6,38.53-15.279,48.9-32.614,6.648-11.116,9.755-24.842,6.082-37.264-2.217-7.5-6.75-14.14-12.082-19.858A89.263,89.263,0,0,0,103.949,72.366Z" transform="translate(1120.007 2858.667)" fill="#ffd947"/>
          <g id="Grupo_1099026" data-name="Grupo 1099026" transform="translate(1094.135 3177.56) rotate(-90)">
            <path id="Trazado_873104" data-name="Trazado 873104" d="M149.557,395.548a1.582,1.582,0,1,0-.106-2.456A1.573,1.573,0,0,0,149.557,395.548Z" transform="translate(13.93 -213.31)" fill="#fff"/>
            <path id="Trazado_873105" data-name="Trazado 873105" d="M417.219,416a1.582,1.582,0,1,0-.105-2.456A1.573,1.573,0,0,0,417.219,416Z" transform="translate(-222.435 -227.035)" fill="#ffd947"/>
            <path id="Trazado_873106" data-name="Trazado 873106" d="M303.26,44.546a1.582,1.582,0,1,0-.106-2.456A1.573,1.573,0,0,0,303.26,44.546Z" transform="translate(-52.901 9.151)" fill="#7d6eb2"/>
            <path id="Trazado_873109" data-name="Trazado 873109" d="M339.452,404.413a3.448,3.448,0,1,0-1.687-4.918A3.468,3.468,0,0,0,339.452,404.413Z" transform="translate(-106.207 -216.949)" fill="#26aab7"/>
            <path id="Trazado_873110" data-name="Trazado 873110" d="M390.262,440.006a3.448,3.448,0,1,0-1.687-4.918A3.468,3.468,0,0,0,390.262,440.006Z" transform="translate(-181.42 -237.38)" fill="#7d6eb2"/>
            <path id="Trazado_873111" data-name="Trazado 873111" d="M176.115,56.142a3.448,3.448,0,1,0-1.687-4.918A3.468,3.468,0,0,0,176.115,56.142Z" transform="translate(-32.569 42.202)" fill="#7d6eb2"/>
            <path id="Trazado_873113" data-name="Trazado 873113" d="M321.56,66.974a3.448,3.448,0,1,0-1.687-4.918A3.468,3.468,0,0,0,321.56,66.974Z" transform="translate(-76.565 -0.895)" fill="#ffd947"/>
            <circle id="Elipse_11485" data-name="Elipse 11485" cx="1.689" cy="1.689" r="1.689" transform="translate(149.167 187.566)" fill="none" stroke="#26aab7" stroke-linecap="round" stroke-linejoin="round" stroke-width="1.5"/>
          </g>
          <g id="online-magazine2" transform="translate(1150.528 2842.508)">
            <path id="Trazado_873374" data-name="Trazado 873374" d="M399.284,103.733h-8.551v86.076l8.551-4.275a8.55,8.55,0,0,0,8.551-8.551v-64.7A8.551,8.551,0,0,0,399.284,103.733Z" transform="translate(-279.367 -21.449)" fill="#515985"/>
            <path id="Trazado_873375" data-name="Trazado 873375" d="M151.185,112.284a8.55,8.55,0,0,0-8.551-8.551H52.284a8.55,8.55,0,0,0-8.551,8.551v64.7a8.55,8.55,0,0,0,8.551,8.551l49.451,4.275,40.9-4.275a8.55,8.55,0,0,0,8.551-8.551v-2.138l-4.275-30.212,4.275-30.212Z" transform="translate(-31.268 -21.449)" fill="#62529b"/>
            <path id="Trazado_873376" data-name="Trazado 873376" d="M441.78,390.733l-6.047,8.551h8.551a8.554,8.554,0,0,0,8.067-5.71,2.138,2.138,0,0,0-2.021-2.84Z" transform="translate(-311.541 -226.649)" fill="#98b6d1"/>
            <path id="Trazado_873377" data-name="Trazado 873377" d="M83.292,390.733l-12.826,3.206L57.64,390.733H2.143a2.138,2.138,0,0,0-2.021,2.84,8.554,8.554,0,0,0,8.067,5.71H57.64l12.826-3.206,12.826,3.206h40.9a8.554,8.554,0,0,0,8.067-5.71,2.138,2.138,0,0,0-2.021-2.84Z" transform="translate(0 -226.649)" fill="#a8cae0"/>
            <path id="Trazado_873378" data-name="Trazado 873378" d="M202.233,390.733h25.652v8.551H202.233Z" transform="translate(-144.593 -226.649)" fill="#98b6d1"/>
            <path id="Trazado_873379" data-name="Trazado 873379" d="M367.146,133.733l-6.413,32.35,6.413,32.35H375.7a2.138,2.138,0,0,0,2.138-2.138V135.871a2.138,2.138,0,0,0-2.138-2.138Z" transform="translate(-257.917 -42.899)" fill="#e1f7fc"/>
            <path id="Trazado_873380" data-name="Trazado 873380" d="M159.809,133.733H75.871a2.138,2.138,0,0,0-2.138,2.138v60.424a2.138,2.138,0,0,0,2.138,2.138h86.076a2.138,2.138,0,0,0,2.138-2.138v-8.551Z" transform="translate(-52.718 -42.899)" fill="#fff"/>
            <path id="Trazado_873381" data-name="Trazado 873381" d="M337.146,73.733l-6.413,64.7,17.1-8.551V75.871a2.138,2.138,0,0,0-2.138-2.138Z" transform="translate(-236.468)" fill="#b9dff0"/>
            <path id="Trazado_873382" data-name="Trazado 873382" d="M234.334,73.733a8.55,8.55,0,0,0-8.551,8.551h-8.551l8.551,64.7,32.35-8.551V119.194l-4.275-17.387,4.275-17.387V75.871A2.138,2.138,0,0,0,256,73.733Z" transform="translate(-155.318)" fill="#bdeffc"/>
            <path id="Trazado_873383" data-name="Trazado 873383" d="M136.083,73.733H105.871a2.138,2.138,0,0,0-2.138,2.138v54.011l40.9,8.551V82.284A8.551,8.551,0,0,0,136.083,73.733Z" transform="translate(-74.167)" fill="#e1f7fc"/>
            <path id="Trazado_873384" data-name="Trazado 873384" d="M136.083,270.733h-32.35v8.551l40.9,8.551v-8.551A8.551,8.551,0,0,0,136.083,270.733Z" transform="translate(-74.167 -140.851)" fill="#bdeffc"/>
            <path id="Trazado_873385" data-name="Trazado 873385" d="M347.834,270.733h-8.551l-8.551,12.826,17.1-4.275Z" transform="translate(-236.468 -140.851)" fill="#a8cae0"/>
            <path id="Trazado_873386" data-name="Trazado 873386" d="M255.784,270.733a8.55,8.55,0,0,0-8.551,8.551v8.551l32.35-4.275V270.733Z" transform="translate(-176.767 -140.851)" fill="#b9dff0"/>
            <path id="Trazado_873387" data-name="Trazado 873387" d="M355.371,300.733l-2.138,4.275v4.275h8.551a2.138,2.138,0,0,0,2.138-2.138v-6.413Z" transform="translate(-252.555 -162.301)" fill="#98b6d1"/>
            <path id="Trazado_873388" data-name="Trazado 873388" d="M255.784,300.733a8.55,8.55,0,0,0-8.551,8.551h30.212a2.138,2.138,0,0,0,2.138-2.138v-6.413Z" transform="translate(-176.767 -162.301)" fill="#a8cae0"/>
            <path id="Trazado_873389" data-name="Trazado 873389" d="M136.083,300.733h-32.35v6.413a2.138,2.138,0,0,0,2.138,2.138h38.763A8.551,8.551,0,0,0,136.083,300.733Z" transform="translate(-74.167 -162.301)" fill="#b9dff0"/>
            <path id="Trazado_873390" data-name="Trazado 873390" d="M307.146,103.729l-6.413,19.524,6.413,19.524H315.7a2.138,2.138,0,0,0,2.138-2.138V105.867a2.138,2.138,0,0,0-2.138-2.138Z" transform="translate(-215.018 -21.447)" fill="#fe5d4d"/>
            <path id="Trazado_873391" data-name="Trazado 873391" d="M277.233,105.867V140.64a2.138,2.138,0,0,0,2.138,2.138h10.973a2.138,2.138,0,0,0,2.138-2.138V105.867a2.138,2.138,0,0,0-2.138-2.138H279.371a2.138,2.138,0,0,0-2.138,2.138Z" transform="translate(-198.216 -21.447)" fill="#ff7c59"/>
            <path id="Trazado_873392" data-name="Trazado 873392" d="M174.371,103.729,172.233,114.7l2.138,10.974h8.551a2.138,2.138,0,0,0,2.138-2.138V105.867a2.138,2.138,0,0,0-2.138-2.138Z" transform="translate(-123.143 -21.447)" fill="#ffb464"/>
            <path id="Trazado_873393" data-name="Trazado 873393" d="M133.733,105.867v17.672a2.138,2.138,0,0,0,2.138,2.138h10.973a2.138,2.138,0,0,0,2.138-2.138V105.867a2.138,2.138,0,0,0-2.138-2.138H135.871a2.138,2.138,0,0,0-2.138,2.138Z" transform="translate(-95.617 -21.447)" fill="#ffd06a"/>
            <g id="Grupo_1099282" data-name="Grupo 1099282" transform="translate(38.116 110.643)">
              <path id="Trazado_873394" data-name="Trazado 873394" d="M155.394,207.508H135.871a2.138,2.138,0,0,1,0-4.275h19.524a2.138,2.138,0,0,1,0,4.275Z" transform="translate(-133.733 -203.233)" fill="#7587b3"/>
              <path id="Trazado_873395" data-name="Trazado 873395" d="M155.394,237.508H135.871a2.138,2.138,0,0,1,0-4.275h19.524a2.138,2.138,0,0,1,0,4.275Z" transform="translate(-133.733 -224.682)" fill="#7587b3"/>
            </g>
          </g>
        </g>
      </g>
    </g>
  </g>
</svg>
