<svg xmlns="http://www.w3.org/2000/svg" width="151.991" height="127.141" viewBox="0 0 151.991 127.141">
  <g id="Grupo_1099916" data-name="Grupo 1099916" transform="translate(-724.999 -2922.389)">
    <g id="Grupo_1099915" data-name="Grupo 1099915">
      <g id="Grupo_1099914" data-name="Grupo 1099914">
        <g id="Grupo_1099913" data-name="Grupo 1099913">
          <path id="_12068" data-name="12068" d="M103.949,72.366C89.64,70.39,74.525,70.874,61.5,77.128,43.447,85.8,31.588,105.464,31.133,125.491s9.978,39.705,26.1,51.6S94.6,193.2,114.312,189.632c19.875-3.6,38.53-15.279,48.9-32.614,6.648-11.116,9.755-24.842,6.082-37.264-2.217-7.5-6.75-14.14-12.082-19.858A89.263,89.263,0,0,0,103.949,72.366Z" transform="translate(699.012 2858.667)" fill="#7d6eb2"/>
          <g id="Grupo_1099025" data-name="Grupo 1099025" transform="translate(674.135 3177.56) rotate(-90)">
            <path id="Trazado_873104" data-name="Trazado 873104" d="M149.557,395.548a1.582,1.582,0,1,0-.106-2.456A1.573,1.573,0,0,0,149.557,395.548Z" transform="translate(13.93 -213.31)" fill="#fff"/>
            <path id="Trazado_873105" data-name="Trazado 873105" d="M417.219,416a1.582,1.582,0,1,0-.105-2.456A1.573,1.573,0,0,0,417.219,416Z" transform="translate(-222.435 -227.035)" fill="#ffd947"/>
            <path id="Trazado_873106" data-name="Trazado 873106" d="M303.26,44.546a1.582,1.582,0,1,0-.106-2.456A1.573,1.573,0,0,0,303.26,44.546Z" transform="translate(-52.901 9.151)" fill="#7d6eb2"/>
            <path id="Trazado_873109" data-name="Trazado 873109" d="M339.452,404.413a3.448,3.448,0,1,0-1.687-4.918A3.468,3.468,0,0,0,339.452,404.413Z" transform="translate(-106.207 -220.255)" fill="#7d6eb2"/>
            <path id="Trazado_873110" data-name="Trazado 873110" d="M390.262,440.006a3.448,3.448,0,1,0-1.687-4.918A3.468,3.468,0,0,0,390.262,440.006Z" transform="translate(-181.42 -237.38)" fill="#ffd947"/>
            <path id="Trazado_873111" data-name="Trazado 873111" d="M176.115,56.142a3.448,3.448,0,1,0-1.687-4.918A3.468,3.468,0,0,0,176.115,56.142Z" transform="translate(-32.569 42.202)" fill="#ffd947"/>
            <path id="Trazado_873113" data-name="Trazado 873113" d="M321.56,66.974a3.448,3.448,0,1,0-1.687-4.918A3.468,3.468,0,0,0,321.56,66.974Z" transform="translate(-76.565 -0.895)" fill="#ffd947"/>
            <circle id="Elipse_11485" data-name="Elipse 11485" cx="1.689" cy="1.689" r="1.689" transform="translate(149.167 187.566)" fill="none" stroke="#26aab7" stroke-linecap="round" stroke-linejoin="round" stroke-width="1.5"/>
          </g>
          <g id="Grupo_1099281" data-name="Grupo 1099281" transform="translate(9975.982 11713.797)">
            <g id="Layer_1" data-name="Layer 1" transform="translate(-9229.668 -8791.408)">
              <path id="Trazado_125314" data-name="Trazado 125314" d="M488.805,336.46H440.5v3.8H432.26v93.295A3.945,3.945,0,0,0,436.2,437.5h93.736a7.17,7.17,0,0,0,7.17-7.169V336.46Z" transform="translate(-429.735 -333.493)" fill="gray" opacity="0.5" style="mix-blend-mode: multiply;isolation: isolate"/>
              <path id="Trazado_125315" data-name="Trazado 125315" d="M412.506,303.53v3.809H404.26v93.29a3.943,3.943,0,0,0,3.94,3.943h93.738a7.17,7.17,0,0,0,7.171-7.169V303.53Z" transform="translate(-404.258 -303.53)" fill="#ececec"/>
              <path id="Trazado_125316" data-name="Trazado 125316" d="M1073,404.572a7.17,7.17,0,0,0,7.171-7.169V303.53h-48.3V404.572Z" transform="translate(-975.322 -303.53)" fill="#ddd"/>
              <path id="Trazado_125317" data-name="Trazado 125317" d="M412.488,438.694a4.3,4.3,0,0,1-4.3,4.3,3.943,3.943,0,0,1-3.943-3.943V345.76h8.244Z" transform="translate(-404.24 -341.955)" fill="#2e434d"/>
              <path id="Trazado_125318" data-name="Trazado 125318" d="M710.707,396.13h6.022v2.822H715.7v10.565h-4.836l-5.041-7.761v4.939h1.032v2.822H700.83v-2.822h1.033v-7.743H700.83V396.13h6.384l4.524,6.917v-4.095h-1.031Z" transform="translate(-674.108 -387.787)" fill="#7d6eb2"/>
              <path id="Trazado_125319" data-name="Trazado 125319" d="M891.333,398.952h-2.082v2.718h1.515v1.961h-1.515v3.063h2.082v-2.717h3.854v5.54H883.4v-2.822h1.032v-7.743H883.4V396.13h11.787v5.2h-3.854Z" transform="translate(-840.229 -387.787)" fill="#7d6eb2"/>
              <path id="Trazado_125320" data-name="Trazado 125320" d="M1024.539,409.517l-2.39-10.565h-.689V396.13h6.832v2.822h-1.117l.841,6.452h.173l1.982-9.274h4.956l1.858,9.274h.169l.844-6.452h-1.116V396.13h5.968v2.822h-.687l-2.222,10.565h-6l-1.57-7.092h-.173l-1.651,7.09Z" transform="translate(-965.85 -387.787)" fill="#7d6eb2"/>
              <path id="Trazado_125321" data-name="Trazado 125321" d="M1268.078,404.014a1.445,1.445,0,0,0,.811-.173.591.591,0,0,0,.242-.514.556.556,0,0,0-.2-.423,2.958,2.958,0,0,0-.8-.421c-.851-.321-1.59-.631-2.229-.921a6.858,6.858,0,0,1-1.581-.972,3.368,3.368,0,0,1-.938-1.248,4.318,4.318,0,0,1-.311-1.729,4.686,4.686,0,0,1,.3-1.728,3.115,3.115,0,0,1,.98-1.309,4.713,4.713,0,0,1,1.807-.825,11.622,11.622,0,0,1,2.778-.283,12.77,12.77,0,0,1,2.824.3,8.068,8.068,0,0,1,2.2.8v3.079h-3.613a.745.745,0,0,0-.276-.678,1.172,1.172,0,0,0-.67-.18,1.7,1.7,0,0,0-.816.146.543.543,0,0,0-.25.507.455.455,0,0,0,.27.431,5.368,5.368,0,0,0,.8.309c.666.219,1.294.45,1.886.689a6.327,6.327,0,0,1,1.558.895,3.893,3.893,0,0,1,1.056,1.289,4.066,4.066,0,0,1,.389,1.86,3.91,3.91,0,0,1-1.441,3.328,6.931,6.931,0,0,1-4.235,1.092,16.551,16.551,0,0,1-3.044-.27,11.4,11.4,0,0,1-2.342-.655V403h3.784a1.173,1.173,0,0,0,.205.765A1.1,1.1,0,0,0,1268.078,404.014Z" transform="translate(-1185.694 -385.365)" fill="#7d6eb2"/>
              <rect id="Rectángulo_30349" data-name="Rectángulo 30349" width="81.905" height="1.433" transform="translate(15.595 5.018)" fill="#9b9b9b"/>
              <rect id="Rectángulo_30350" data-name="Rectángulo 30350" width="81.905" height="1.434" transform="translate(15.595 23.613)" fill="#9b9b9b"/>
              <rect id="Rectángulo_30351" data-name="Rectángulo 30351" width="36.845" height="32.979" transform="translate(60.656 27.108)" fill="#9b9b9b"/>
              <rect id="Rectángulo_30352" data-name="Rectángulo 30352" width="40.176" height="7.646" transform="translate(16.372 27.945)" fill="#38a2b3"/>
              <rect id="Rectángulo_30353" data-name="Rectángulo 30353" width="40.176" height="2.151" transform="translate(16.372 38.458)" fill="#9b9b9b"/>
              <rect id="Rectángulo_30354" data-name="Rectángulo 30354" width="40.176" height="2.152" transform="translate(16.372 42.568)" fill="#9b9b9b"/>
              <rect id="Rectángulo_30355" data-name="Rectángulo 30355" width="40.176" height="2.15" transform="translate(16.372 46.679)" fill="#9b9b9b"/>
              <rect id="Rectángulo_30356" data-name="Rectángulo 30356" width="40.176" height="2.152" transform="translate(16.372 50.789)" fill="#9b9b9b"/>
              <rect id="Rectángulo_30357" data-name="Rectángulo 30357" width="40.176" height="2.151" transform="translate(16.372 54.899)" fill="#9b9b9b"/>
              <rect id="Rectángulo_30358" data-name="Rectángulo 30358" width="40.176" height="2.151" transform="translate(16.372 59.01)" fill="#9b9b9b"/>
              <rect id="Rectángulo_30359" data-name="Rectángulo 30359" width="20.09" height="28.577" transform="translate(16.372 64.487)" fill="#9b9b9b"/>
              <rect id="Rectángulo_30360" data-name="Rectángulo 30360" width="32.618" height="7.648" transform="translate(64.882 64.487)" fill="#30909e"/>
              <rect id="Rectángulo_30361" data-name="Rectángulo 30361" width="32.618" height="1.937" transform="translate(64.882 75.487)" fill="#9b9b9b"/>
              <rect id="Rectángulo_30362" data-name="Rectángulo 30362" width="32.618" height="1.939" transform="translate(64.882 79.638)" fill="#9b9b9b"/>
              <rect id="Rectángulo_30363" data-name="Rectángulo 30363" width="32.618" height="1.937" transform="translate(64.882 83.79)" fill="#9b9b9b"/>
              <rect id="Rectángulo_30364" data-name="Rectángulo 30364" width="32.618" height="1.937" transform="translate(64.882 87.943)" fill="#9b9b9b"/>
              <rect id="Rectángulo_30365" data-name="Rectángulo 30365" width="32.618" height="1.937" transform="translate(64.882 92.094)" fill="#9b9b9b"/>
              <rect id="Rectángulo_30366" data-name="Rectángulo 30366" width="20.088" height="28.577" transform="translate(40.568 64.487)" fill="#9b9b9b"/>
            </g>
          </g>
        </g>
      </g>
    </g>
  </g>
</svg>
